<?xml version="1.0" encoding="utf-8"?>
<!-- Generator: Adobe Illustrator 24.0.2, SVG Export Plug-In . SVG Version: 6.00 Build 0)  -->
<svg version="1.1" id="Capa_1" xmlns="http://www.w3.org/2000/svg" xmlns:xlink="http://www.w3.org/1999/xlink" x="0px" y="0px"
	 viewBox="0 0 449.7 512" style="enable-background:new 0 0 449.7 512;" xml:space="preserve">
<style type="text/css">
	.st0{fill:#FFFFFF;}
	.st1{fill:#EFEEED;}
	.st2{fill:#FF9A00;}
	.st3{fill:#273238;}
</style>
<title>پرداخت پست</title>
<path class="st0" d="M264.3,442.1l-35.1-35H10v51c-0.1,9.3,7.4,16.8,16.7,16.9c0.1,0,0.1,0,0.2,0h215.8"/>
<polyline class="st1" points="42.7,373.8 42.7,104.5 13.8,104.5 13.8,427 37.5,427 "/>
<polyline class="st2" points="221.8,346.7 221.8,315.4 74.8,315.4 74.8,377.9 199.2,377.9 "/>
<path class="st0" d="M415.6,423c8-13.8,5.7-31.2-5.5-42.5l-67.7-67.6c-7.1-6.5-18-6.5-25.1,0.1c-7.1,6.7-7.7,17.8-1.3,25.2l-7.1-7
	c-3.4-2.8-7.6-4.4-12-4.4c-10.1,0-18.3,8.1-18.4,18.2c0,4.4,1.6,8.7,4.5,12.1h-0.1c-7.5-6.8-19.1-6.2-25.8,1.3
	c-6.3,7-6.3,17.6,0,24.6H257l-0.4-0.3L199.8,326c-7.1-6.5-18-6.5-25.1,0c-7.3,6.9-7.8,18.4-0.9,25.8h0.1l90.4,90.2l-13.1,13.1
	c-11.3,11.3-11.3,29.7,0,41c6.1,6,15.8,6,21.9,0l12.2-12.1c8.6-8.6,14.3-6.4,24.1-7.1l27.6,3.6c7.7,1,15.6-0.2,22.7-3.5l0.9,0.9
	L415.6,423L415.6,423z"/>
<rect x="358.6" y="445.8" transform="matrix(0.7071 -0.7071 0.7071 0.7071 -209.5934 417.7351)" class="st1" width="81.7" height="32.1"/>
<path class="st3" d="M435.9,440.8l-17.5-17.5c4.8-15.2,0.7-31.8-10.6-43.1l-64.8-64.7c-10.8-10.1-27.8-9.5-38,1.3
	c-2.7,2.9-4.8,6.4-5.9,10.1c-1.9-0.5-3.8-0.7-5.8-0.7c-3,0-6.1,0.6-9,1.5V50.4c-0.1-14.1-11.5-25.5-25.6-25.6H36.5
	c-14.2,0-25.6,11.4-25.6,25.6v410.3c-0.1,14.1,11.3,25.5,25.4,25.6c0.1,0,0.1,0,0.2,0h196.9c1.6,6.6,5,12.6,9.8,17.4
	c4.6,4.6,10.8,7,17.1,7h0.1c6.4,0,12.6-2.5,17.1-7l11.6-11.7c3.7-3.6,5.1-3.6,10.8-3.7c1.7,0,3.4,0,5.1-0.2l25.3,3.3
	c6.2,0.8,12.4,0.4,18.4-1.1l18.8,18.9c1.8,1.8,4.2,2.8,6.8,2.8c2.5,0,4.9-1,6.8-2.8l54.9-55c3.7-3.7,3.8-9.6,0.2-13.4
	C436,440.8,436,440.8,435.9,440.8z M249.7,358.8c-1.9,1.9-3.6,4.2-4.9,6.6l-17.8-17.8v-26.7c0-5.2-4.3-9.5-9.5-9.5H77.7
	c-5.2,0-9.5,4.3-9.5,9.5v59.5c0,5.2,4.3,9.5,9.5,9.5H193l12.9,12.8h-176V114.8h235.4v236.4C259.4,352,253.9,354.6,249.7,358.8z
	 M169,365.8l0.5,0.5h0.1l4.4,4.5H87.2v-40.4h81.2C159.8,340.7,160.1,355.8,169,365.8L169,365.8z M29.9,50.4c0-3.6,2.9-6.6,6.6-6.6
	h222.3c3.6,0,6.6,2.9,6.6,6.6v45.4H29.9V50.4z M29.9,460.7v-39h195.2l23.8,23.9l-5.7,5.7c-4.5,4.5-7.7,10-9.4,16H36.5
	C32.9,467.3,29.9,464.3,29.9,460.7z M332.8,472.6l-26.3-3.4c-0.7-0.1-5.3,0.1-6.9,0.1c-6.9,0.1-14.8,0.2-24,9.3L264,490.2
	c-1,1-2.3,1.6-3.7,1.5l0,0c-1.3,0-2.7-0.6-3.6-1.5c-3.4-3.3-5.3-8-5.3-12.8v-0.4l0,0c0.1-4.7,2-9.1,5.3-12.4l12.5-12.5
	c3.8-3.8,4.2-9.2-0.1-13.4l-85.7-85.7h-0.1c-2.9-3.1-2.8-8.2,0.4-11.1c3.1-2.8,7.7-2.8,10.8,0l65.2,65.1c3.7,3.7,9.7,3.7,13.4,0
	c3.7-3.7,3.7-9.7,0-13.4l-9.6-9.7l-0.7-0.9c-2.9-3.2-2.6-8.3,0.7-11.1c2.9-2.6,7.2-2.7,10.3-0.2l10.7,10.6c3.6,3.7,9.5,3.8,13.2,0.2
	c0.1-0.1,0.2-0.2,0.2-0.2c3.7-3.7,3.7-9.7,0-13.4l-10.4-10.6c-2.7-3.1-2.5-7.8,0.4-10.8c1.5-1.4,3.5-2.3,5.6-2.3
	c1.8,0,3.5,0.7,4.9,1.8l10.8,10.7c1.8,1.7,4.2,2.8,6.7,2.8c2.6,0,4.9-1,6.8-2.8c3.7-3.7,3.7-9.8,0-13.5l-3.7-3.8
	c-2.8-3.2-2.5-8,0.6-10.9c3.1-2.8,7.7-2.8,10.8,0l64.1,64.1c7.4,7.3,9.1,18.6,4.3,27.9l-48,48c-0.6,0.1-1.1,0.3-1.6,0.6
	C344,472.4,338.3,473.3,332.8,472.6z M374.3,489.1l-8.1-8.2l41.5-41.5l8.1,8.1L374.3,489.1z"/>
<path class="st3" d="M166.6,454.9h-44.3c-5.5,0-10-4.5-10-10s4.5-10,10-10h44.3c5.5,0,10,4.5,10,10S172.1,454.9,166.6,454.9z"/>
<path class="st3" d="M220.1,78.7l-1.9-0.2c-0.7-0.1-1.3-0.3-1.9-0.6c-0.6-0.2-1.2-0.5-1.7-0.9l-1.6-1.2l-1.2-1.6
	c-0.4-0.5-0.7-1.1-0.9-1.7c-0.3-0.6-0.5-1.2-0.6-1.9c-0.1-0.6-0.2-1.3-0.2-1.9c0-0.7,0.1-1.3,0.2-2c0.1-0.6,0.3-1.2,0.6-1.8
	c0.2-0.6,0.5-1.2,0.9-1.8l1.2-1.5c2.4-2.3,5.8-3.4,9.1-2.7l1.8,0.5l1.8,1c0.5,0.4,1,0.8,1.5,1.2c0.4,0.5,0.8,1,1.2,1.5
	c0.4,0.6,0.7,1.2,0.9,1.8c0.3,0.6,0.5,1.2,0.6,1.8c0.1,0.7,0.2,1.3,0.2,2c0,2.6-1.1,5.2-2.9,7.1l-1.5,1.2c-0.6,0.4-1.2,0.7-1.8,0.9
	c-0.6,0.3-1.2,0.5-1.8,0.6L220.1,78.7z"/>
<path class="st3" d="M189.9,78.1H74.2c-5.5,0-10-4.5-10-10s4.5-10,10-10h115.7c5.5,0,10,4.5,10,10S195.4,78.1,189.9,78.1z"/>
<path class="st1" d="M221.9,208c0.9,43.1-33.3,78.8-76.5,79.7c-1.1,0-2.2,0-3.2,0c-41.9-0.7-76-34.9-76.8-76.7
	c-0.8-43.3,33.7-79,77-79.8c0.9,0,1.9,0,2.8,0C187,132,221.2,166.1,221.9,208z"/>
<path class="st3" d="M143.7,297.8H142c-48.7-0.9-87.4-41.2-86.5-89.9s41.2-87.4,89.9-86.5c47.4,0.9,85.5,39.1,86.5,86.5l0,0
	c0.9,48.8-37.8,89-86.6,90c-0.5,0-1.1,0-1.6,0L143.7,297.8z M143.7,141.2c-37.7,0-68.3,30.6-68.3,68.3c0,0.4,0,0.9,0,1.3
	c0.7,36.2,30.7,66.3,67,66.9c37.5,0.8,68.7-28.9,69.5-66.5c0-1,0-2,0-3l0,0c-0.6-36.3-30.7-66.3-66.9-67H143.7z"/>
<path class="st3" d="M140.5,250.4c-13.1-0.4-23.9-7.5-23.9-14.8c0-3.9,3.3-9.6,7.5-9.6c4.2,0,8.3,6.7,16.4,8.2v-18.5
	c-10.1-4-21.9-9-21.9-23.6s10.3-21.5,21.9-23.2v-3.2c0-1.6,1.8-3.1,4.2-3.1s4.2,1.5,4.2,3.1v2.8c6.8,0.3,19.7,2.1,19.7,10
	c0,3.1-2,9.4-6.8,9.4s-5.8-3.7-12.9-4.3v16.7c10,3.9,21.7,9.3,21.7,24.7s-8.8,22.8-21.7,25v3.3c0,1.6-2.1,3.1-4.2,3.1
	s-4.2-1.5-4.2-3.1V250.4z M141.6,197.6V184c-4.9,1-7,3.6-7,6.4S137.5,195.8,141.6,197.6z M147.8,218.7v15.4c3.7-0.9,6.7-3.1,6.7-7.2
	S151.8,220.7,147.8,218.7z"/>
</svg>
