<?xml version="1.0" encoding="utf-8"?>
<!-- Generator: Adobe Illustrator 24.0.2, SVG Export Plug-In . SVG Version: 6.00 Build 0)  -->
<svg version="1.1" id="Capa_1" xmlns="http://www.w3.org/2000/svg" xmlns:xlink="http://www.w3.org/1999/xlink" x="0px" y="0px"
	 viewBox="0 0 449.7 512" style="enable-background:new 0 0 449.7 512;" xml:space="preserve">
<style type="text/css">
	.st0{fill:#FFFFFF;}
	.st1{fill:#EFEEED;}
	.st2{fill:#FF9A00;}
	.st3{fill:#273238;}
</style>
<title>پرداخت پست</title>
<path class="st0" d="M264.3,442.1l-35.1-35H10v51c-0.1,9.3,7.4,16.8,16.7,16.9c0.1,0,0.1,0,0.2,0h215.8"/>
<polyline class="st1" points="38.9,353.9 38.9,84.6 10,84.6 10,407.1 33.7,407.1 "/>
<polyline class="st2" points="217.2,342.4 217.2,311.1 70.2,311.1 70.2,373.6 194.6,373.6 "/>
<path class="st0" d="M415.6,423c8-13.8,5.7-31.2-5.5-42.5l-67.7-67.6c-7.1-6.5-18-6.5-25.1,0.1c-7.1,6.7-7.7,17.8-1.3,25.2l-7.1-7
	c-3.4-2.8-7.6-4.4-12-4.4c-10.1,0-18.3,8.1-18.4,18.2c0,4.4,1.6,8.7,4.5,12.1h-0.1c-7.5-6.8-19.1-6.2-25.8,1.3
	c-6.3,7-6.3,17.6,0,24.6H257l-0.4-0.3L199.8,326c-7.1-6.5-18-6.5-25.1,0c-7.3,6.9-7.8,18.4-0.9,25.8h0.1l90.4,90.2l-13.1,13.1
	c-11.3,11.3-11.3,29.7,0,41c6.1,6,15.8,6,21.9,0l12.2-12.1c8.6-8.6,14.3-6.4,24.1-7.1l27.6,3.6c7.7,1,15.6-0.2,22.7-3.5l0.9,0.9
	L415.6,423L415.6,423z"/>
<rect x="358.6" y="445.8" transform="matrix(0.7071 -0.7071 0.7071 0.7071 -209.571 417.7461)" class="st1" width="81.7" height="32.1"/>
<path class="st0" d="M277.4,84.6H10V26.9C10,17.6,17.6,10,26.9,10h233.6c9.3,0,16.9,7.6,16.9,16.9V84.6z"/>
<path class="st3" d="M446.7,437.2l-18.4-18.4c5-16,0.7-33.4-11.1-45.3l-68.1-68c-11.4-10.6-29.2-10-39.9,1.4c-2.8,3-5,6.7-6.2,10.6
	c-2-0.5-4-0.7-6.1-0.7c-3.2,0-6.4,0.6-9.5,1.6V26.9C287.3,12.1,275.3,0.1,260.5,0H26.9C12,0,0,12,0,26.9v431.2
	c-0.1,14.8,11.9,26.8,26.7,26.9c0.1,0,0.1,0,0.2,0h206.9c1.7,6.9,5.3,13.2,10.3,18.3c4.8,4.8,11.3,7.4,18,7.4h0.1
	c6.7,0,13.2-2.6,18-7.4l12.2-12.3c3.9-3.8,5.4-3.8,11.3-3.9c1.8,0,3.6,0,5.4-0.2l26.6,3.5c6.5,0.8,13,0.4,19.3-1.2l19.8,19.9
	c1.9,1.9,4.4,2.9,7.1,2.9c2.6,0,5.2-1.1,7.1-2.9l57.7-57.8c3.9-3.9,4-10.1,0.2-14.1C446.8,437.2,446.8,437.2,446.7,437.2z M251,351
	c-2,2-3.8,4.4-5.1,6.9l-18.7-18.7v-28.1c0-5.5-4.5-10-10-10h-147c-5.5,0-10,4.5-10,10v62.5c0,5.5,4.5,10,10,10h121.2l13.6,13.5H20
	V94.6h247.4V343C261.2,343.8,255.4,346.6,251,351z M166.2,358.4l0.5,0.5h0.1l4.6,4.7H80.2v-42.5h85.3
	C156.5,332,156.8,347.8,166.2,358.4L166.2,358.4z M20,26.9c0-3.8,3.1-6.9,6.9-6.9h233.6c3.8,0,6.9,3.1,6.9,6.9v47.7H20V26.9z
	 M20,458.1v-41h205.1l25,25.1l-6,6c-4.7,4.7-8.1,10.5-9.9,16.8H26.9C23.1,465,20,461.9,20,458.1z M338.3,470.6l-27.6-3.6
	c-0.7-0.1-5.6,0.1-7.2,0.1c-7.3,0.1-15.6,0.2-25.2,9.8L266,489.1c-1,1.1-2.4,1.7-3.9,1.6l0,0c-1.4,0-2.8-0.6-3.8-1.6
	c-3.6-3.5-5.6-8.4-5.6-13.4v-0.4l0,0c0.1-4.9,2.1-9.6,5.6-13l13.1-13.1c4-4,4.4-9.7-0.1-14.1L181.2,345h-0.1
	c-3.1-3.3-2.9-8.6,0.4-11.7c3.3-2.9,8.1-2.9,11.4,0l68.5,68.4c3.9,3.9,10.2,3.9,14.1,0c3.9-3.9,3.9-10.2,0-14.1l-10.1-10.2l-0.7-0.9
	c-3-3.4-2.7-8.7,0.7-11.7c3.1-2.7,7.6-2.8,10.8-0.2l11.2,11.1c3.8,3.9,10,4,13.9,0.2c0.1-0.1,0.2-0.2,0.2-0.2
	c3.9-3.9,3.9-10.2,0-14.1l-10.9-11.1c-2.8-3.3-2.6-8.2,0.4-11.3c1.6-1.5,3.7-2.4,5.9-2.4c1.9,0,3.7,0.7,5.2,1.9l11.3,11.2
	c1.9,1.8,4.4,2.9,7,2.9c2.7,0,5.2-1,7.1-2.9c3.9-3.9,3.9-10.3,0-14.2l-3.9-4c-2.9-3.4-2.6-8.4,0.6-11.5c3.3-2.9,8.1-2.9,11.4,0
	l67.4,67.4c7.8,7.7,9.6,19.6,4.5,29.3l-50.4,50.4c-0.6,0.1-1.2,0.3-1.7,0.6C350.1,470.4,344.1,471.3,338.3,470.6z M381.9,487.9
	l-8.5-8.6l43.6-43.6l8.5,8.5L381.9,487.9z"/>
<path class="st3" d="M165.8,451.1h-44.3c-5.5,0-10-4.5-10-10s4.5-10,10-10h44.3c5.5,0,10,4.5,10,10S171.3,451.1,165.8,451.1z"/>
<path class="st3" d="M220.1,57.3l-1.9-0.2c-0.7-0.1-1.3-0.3-1.9-0.6c-0.6-0.2-1.2-0.5-1.7-0.9l-1.6-1.2l-1.2-1.6
	c-0.4-0.5-0.7-1.1-0.9-1.7c-0.3-0.6-0.5-1.2-0.6-1.9c-0.1-0.6-0.2-1.3-0.2-1.9c0-0.7,0.1-1.3,0.2-2c0.1-0.6,0.3-1.2,0.6-1.8
	c0.2-0.6,0.5-1.2,0.9-1.8l1.2-1.5c2.4-2.3,5.8-3.4,9.1-2.7l1.8,0.5l1.8,1c0.5,0.4,1,0.8,1.5,1.2c0.4,0.5,0.8,1,1.2,1.5
	c0.4,0.6,0.7,1.2,0.9,1.8c0.3,0.6,0.5,1.2,0.6,1.8c0.1,0.7,0.2,1.3,0.2,2c0,2.6-1.1,5.2-2.9,7.1l-1.5,1.2c-0.6,0.4-1.2,0.7-1.8,0.9
	c-0.6,0.3-1.2,0.5-1.8,0.6L220.1,57.3z"/>
<path class="st3" d="M183,57.3H67.3c-5.5,0-10-4.5-10-10s4.5-10,10-10H183c5.5,0,10,4.5,10,10S188.5,57.3,183,57.3z"/>
<path class="st1" d="M221.9,197.3c0.9,43.1-33.3,78.8-76.5,79.7c-1.1,0-2.2,0-3.2,0c-41.9-0.7-76-34.9-76.8-76.7
	c-0.8-43.3,33.7-79,77-79.8c0.9,0,1.9,0,2.8,0C187,121.3,221.2,155.4,221.9,197.3z"/>
<path class="st3" d="M143.7,287.1H142c-48.7-0.9-87.4-41.2-86.5-89.9s41.2-87.4,89.9-86.5c47.4,0.9,85.5,39.1,86.5,86.5l0,0
	c0.9,48.8-37.8,89-86.6,90c-0.5,0-1.1,0-1.6,0L143.7,287.1z M143.7,130.5c-37.7,0-68.3,30.6-68.3,68.3c0,0.4,0,0.9,0,1.3
	c0.7,36.2,30.7,66.3,67,66.9c37.5,0.8,68.7-28.9,69.5-66.5c0-1,0-2,0-3l0,0c-0.6-36.3-30.7-66.3-66.9-67H143.7z"/>
<path class="st3" d="M140.5,239.7c-13.1-0.4-23.9-7.5-23.9-14.8c0-3.9,3.3-9.6,7.5-9.6s8.3,6.7,16.4,8.2V205
	c-10.1-4-21.9-9-21.9-23.6s10.3-21.5,21.9-23.2V155c0-1.6,1.8-3.1,4.2-3.1s4.2,1.5,4.2,3.1v2.8c6.8,0.3,19.7,2.1,19.7,10
	c0,3.1-2,9.4-6.8,9.4s-5.8-3.7-12.9-4.3v16.7c10,3.9,21.7,9.3,21.7,24.7s-8.8,22.8-21.7,25v3.3c0,1.6-2.1,3.1-4.2,3.1
	s-4.2-1.5-4.2-3.1V239.7z M141.6,186.9v-13.6c-4.9,1-7,3.6-7,6.4S137.5,185.1,141.6,186.9z M147.8,208v15.4c3.7-0.9,6.7-3.1,6.7-7.2
	S151.8,210,147.8,208z"/>
</svg>
