<?xml version="1.0" encoding="utf-8"?>
<!-- Generator: Adobe Illustrator 24.0.2, SVG Export Plug-In . SVG Version: 6.00 Build 0)  -->
<svg version="1.1" id="Capa_1" xmlns="http://www.w3.org/2000/svg" xmlns:xlink="http://www.w3.org/1999/xlink" x="0px" y="0px"
	 viewBox="0 0 449.7 512" style="enable-background:new 0 0 449.7 512;" xml:space="preserve">
<style type="text/css">
	.st0{fill:#FFFFFF;}
	.st1{fill:#EFEEED;}
	.st2{fill:#FF9A00;}
	.st3{fill:#273238;}
	.st4{fill:none;stroke:#FFFFFF;stroke-width:0.25;stroke-miterlimit:10;}
</style>
<title>پرداخت پست</title>
<path class="st0" d="M263.1,444.2l-34.1-34H16.3v49.5c-0.1,9,7.2,16.3,16.2,16.4c0.1,0,0.1,0,0.2,0h209.5"/>
<polyline class="st1" points="48.1,377.9 48.1,116.5 20,116.5 20,429.5 43,429.5 "/>
<polyline class="st2" points="221.9,351.6 221.9,321.2 79.2,321.2 79.2,381.8 200,381.8 "/>
<path class="st0" d="M410,425.6c7.8-13.4,5.5-30.3-5.3-41.3l-65.7-65.6c-6.9-6.3-17.5-6.3-24.4,0.1c-6.9,6.5-7.5,17.3-1.3,24.5
	l-6.9-6.8c-3.3-2.7-7.4-4.3-11.6-4.3c-9.8,0-17.8,7.9-17.9,17.7c0,4.3,1.6,8.4,4.4,11.7h-0.1c-7.3-6.6-18.5-6-25,1.3
	c-6.1,6.8-6.1,17.1,0,23.9h-0.1l-0.4-0.3l-55.1-55c-6.9-6.3-17.5-6.3-24.4,0c-7.1,6.7-7.6,17.9-0.9,25h0.1l87.7,87.5l-12.7,12.7
	c-11,11-11,28.8,0,39.8c5.9,5.8,15.3,5.8,21.3,0l11.8-11.7c8.3-8.3,13.9-6.2,23.4-6.9l26.8,3.5c7.5,1,15.1-0.2,22-3.4l0.9,0.9
	L410,425.6L410,425.6z"/>
<rect x="354.6" y="447.8" transform="matrix(0.7071 -0.7071 0.7071 0.7071 -212.1387 414.5172)" class="st1" width="79.3" height="31.2"/>
<path class="st3" d="M429.7,442.9l-17-17c4.7-14.8,0.7-30.9-10.3-41.8l-62.9-62.8c-10.5-9.8-27-9.2-36.9,1.3
	c-2.6,2.8-4.7,6.2-5.7,9.8c-1.8-0.5-3.7-0.7-5.6-0.7c-2.9,0-5.9,0.6-8.7,1.5V64c-0.1-13.7-11.2-24.8-24.8-24.8H42
	c-13.8,0-24.8,11.1-24.8,24.8v398.2c-0.1,13.7,11,24.8,24.7,24.8c0.1,0,0.1,0,0.2,0h191.1c1.6,6.4,4.9,12.2,9.5,16.9
	c4.5,4.5,10.5,6.8,16.6,6.8h0.1c6.2,0,12.2-2.4,16.6-6.8l11.3-11.4c3.6-3.5,5-3.5,10.5-3.6c1.7,0,3.3,0,5-0.2l24.6,3.2
	c6,0.8,12,0.4,17.9-1.1l18.2,18.3c1.7,1.7,4.1,2.7,6.6,2.7c2.4,0,4.8-1,6.6-2.7l53.3-53.4c3.6-3.6,3.7-9.3,0.2-13
	C429.8,442.9,429.8,442.9,429.7,442.9z M249,363.3c-1.8,1.8-3.5,4.1-4.8,6.4l-17.3-17.3v-25.9c0-5-4.2-9.2-9.2-9.2H82
	c-5,0-9.2,4.2-9.2,9.2v57.8c0,5,4.2,9.2,9.2,9.2h111.9l12.5,12.4H35.6V126.5h228.5v229.4C258.4,356.7,253,359.2,249,363.3z
	 M170.6,370.1l0.5,0.5h0.1l4.3,4.4H91.2v-39.2h78.8C161.7,345.7,162,360.4,170.6,370.1L170.6,370.1z M35.6,64c0-3.5,2.8-6.4,6.4-6.4
	h215.8c3.5,0,6.4,2.8,6.4,6.4V108H35.6V64z M35.6,462.2v-37.9h189.5l23.1,23.2l-5.5,5.5c-4.4,4.4-7.5,9.7-9.1,15.5H42
	C38.5,468.6,35.6,465.7,35.6,462.2z M329.6,473.8l-25.5-3.3c-0.7-0.1-5.1,0.1-6.7,0.1c-6.7,0.1-14.4,0.2-23.3,9l-11.3,11.3
	c-1,1-2.2,1.6-3.6,1.5l0,0c-1.3,0-2.6-0.6-3.5-1.5c-3.3-3.2-5.1-7.8-5.1-12.4V478l0,0c0.1-4.6,1.9-8.8,5.1-12l12.1-12.1
	c3.7-3.7,4.1-8.9-0.1-13l-83.2-83.2h-0.1c-2.8-3-2.7-8,0.4-10.8c3-2.7,7.5-2.7,10.5,0l63.3,63.2c3.6,3.6,9.4,3.6,13,0
	c3.6-3.6,3.6-9.4,0-13l-9.3-9.4l-0.7-0.9c-2.8-3.1-2.5-8.1,0.7-10.8c2.8-2.5,7-2.6,10-0.2l10.4,10.3c3.5,3.6,9.2,3.7,12.8,0.2
	c0.1-0.1,0.2-0.2,0.2-0.2c3.6-3.6,3.6-9.4,0-13l-10.1-10.3c-2.6-3-2.4-7.6,0.4-10.5c1.5-1.4,3.4-2.2,5.4-2.2c1.7,0,3.4,0.7,4.8,1.7
	l10.5,10.4c1.7,1.6,4.1,2.7,6.5,2.7c2.5,0,4.8-1,6.6-2.7c3.6-3.6,3.6-9.5,0-13.1l-3.6-3.7c-2.7-3.1-2.4-7.8,0.6-10.6
	c3-2.7,7.5-2.7,10.5,0l62.2,62.2c7.2,7.1,8.8,18.1,4.2,27.1l-46.6,46.6c-0.6,0.1-1.1,0.3-1.6,0.6C340.5,473.6,335,474.4,329.6,473.8
	z M369.9,489.8l-7.9-8l40.3-40.3l7.9,7.9L369.9,489.8z"/>
<path class="st3" d="M168.3,456.6h-43c-5.3,0-9.7-4.4-9.7-9.7s4.4-9.7,9.7-9.7h43c5.3,0,9.7,4.4,9.7,9.7S173.7,456.6,168.3,456.6z"
	/>
<path class="st3" d="M220.2,91.4l-1.8-0.2c-0.7-0.1-1.3-0.3-1.8-0.6c-0.6-0.2-1.2-0.5-1.6-0.9l-1.6-1.2l-1.2-1.6
	c-0.4-0.5-0.7-1.1-0.9-1.7c-0.3-0.6-0.5-1.2-0.6-1.8c-0.1-0.6-0.2-1.3-0.2-1.8c0-0.7,0.1-1.3,0.2-1.9c0.1-0.6,0.3-1.2,0.6-1.7
	c0.2-0.6,0.5-1.2,0.9-1.7l1.2-1.5c2.3-2.2,5.6-3.3,8.8-2.6l1.7,0.5l1.7,1c0.5,0.4,1,0.8,1.5,1.2c0.4,0.5,0.8,1,1.2,1.5
	c0.4,0.6,0.7,1.2,0.9,1.7c0.3,0.6,0.5,1.2,0.6,1.7c0.1,0.7,0.2,1.3,0.2,1.9c0,2.5-1.1,5-2.8,6.9l-1.5,1.2c-0.6,0.4-1.2,0.7-1.7,0.9
	c-0.6,0.3-1.2,0.5-1.7,0.6L220.2,91.4z"/>
<path class="st3" d="M190.9,90.9H78.6c-5.3,0-9.7-4.4-9.7-9.7s4.4-9.7,9.7-9.7h112.3c5.3,0,9.7,4.4,9.7,9.7S196.3,90.9,190.9,90.9z"
	/>
<path class="st1" d="M222,216.9c0.9,41.8-32.3,76.5-74.3,77.4c-1.1,0-2.1,0-3.1,0c-40.7-0.7-73.8-33.9-74.5-74.4
	c-0.8-42,32.7-76.7,74.7-77.5c0.9,0,1.8,0,2.7,0C188.1,143.2,221.3,176.3,222,216.9z"/>
<path class="st3" d="M146.1,304.1h-1.7c-47.3-0.9-84.8-40-84-87.3s40-84.8,87.3-84c46,0.9,83,38,84,84l0,0
	c0.9,47.4-36.7,86.4-84.1,87.4C147.2,304.2,146.6,304.2,146.1,304.1L146.1,304.1z M146.1,152.1c-36.6,0-66.3,29.7-66.3,66.3
	c0,0.4,0,0.9,0,1.3c0.7,35.1,29.8,64.4,65,64.9c36.4,0.8,66.7-28.1,67.5-64.5c0-1,0-1.9,0-2.9l0,0c-0.6-35.2-29.8-64.4-64.9-65
	L146.1,152.1L146.1,152.1z"/>
<path class="st3" d="M143,258.1c-12.7-0.4-23.2-7.3-23.2-14.4c0-3.8,3.2-9.3,7.3-9.3s8.1,6.5,15.9,8v-18
	c-9.8-3.9-21.3-8.7-21.3-22.9c0-14.2,10-20.9,21.3-22.5v-3.1c0-1.6,1.7-3,4.1-3c2.3,0,4.1,1.5,4.1,3v2.7c6.6,0.3,19.1,2,19.1,9.7
	c0,3-1.9,9.1-6.6,9.1s-5.6-3.6-12.5-4.2v16.2c9.7,3.8,21.1,9,21.1,24c0,14.9-8.5,22.1-21.1,24.3v3.2c0,1.6-2,3-4.1,3
	c-2,0-4.1-1.5-4.1-3V258.1z M144,206.8v-13.2c-4.8,1-6.8,3.5-6.8,6.2C137.3,202.6,140.1,205.1,144,206.8z M150.1,227.3v14.9
	c3.6-0.9,6.5-3,6.5-7S153.9,229.3,150.1,227.3z"/>
<rect x="122.7" y="0.1" class="st4" width="17.4" height="1"/>
</svg>
