<?xml version="1.0" encoding="utf-8"?>
<!-- Generator: Adobe Illustrator 24.0.2, SVG Export Plug-In . SVG Version: 6.00 Build 0)  -->
<svg version="1.1" id="Layer_1" xmlns="http://www.w3.org/2000/svg" xmlns:xlink="http://www.w3.org/1999/xlink" x="0px" y="0px"
	 viewBox="0 0 477.6 480" style="enable-background:new 0 0 477.6 480;" xml:space="preserve">
<style type="text/css">
	.st0{fill:#FFFFFF;}
	.st1{fill:#EFEEED;}
	.st2{fill:#FF9A00;}
	.st3{fill:#231F20;}
</style>
<title>dliverd orange</title>
<g id="Send_package">
	<path class="st0" d="M281.6,337c-2.6-0.7-5.4-0.6-8,0.1l-127.4,34.1c-8.1,2.2-14.4,8.4-16.7,16.5l-85.4-49.3
		c-11.5-6.6-26.2-2.7-32.8,8.8c-6.6,11.5-2.7,26.2,8.8,32.8l141.8,81.9c2.4,1.4,5.2,2.1,8,2.1h135.9c2.5,0,5-0.6,7.2-1.7l28.6-14.3
		v-96L281.6,337z"/>
	<path class="st1" d="M21.6,72h112l16-64h-96L21.6,72z"/>
	<path class="st1" d="M309.6,72l-32-64h-96l16,64H309.6z"/>
	<path class="st2" d="M405.6,328h-64v144h64V328z"/>
	<path class="st1" d="M405.6,344h64v112h-64V344z"/>
	<path class="st1" d="M21.6,72h288v224h-288V72z"/>
	<path class="st0" d="M165.6,152l32,16V72h-64v96L165.6,152z"/>
	<path class="st0" d="M197.6,72l-16-64h-32l-16,64H197.6z"/>
	<path class="st2" d="M293.6,72v144c0,26.5-21.5,48-48,48l0,0h-224v32h288V72H293.6z"/>
	<path class="st0" d="M405.6,344h24v112h-24V344z"/>
	<path class="st3" d="M469.6,336h-56v-8c0-4.4-3.6-8-8-8h-64c-4.4,0-8,3.6-8,8v13.8l-50-12.6c-4-0.9-8.1-0.9-12,0.1l-127.4,34.2
		c-7.4,2-13.9,6.6-18.1,13l-78-45C33,322.3,13.3,327,4.1,342s-4.5,34.8,10.5,44c0.5,0.3,1,0.6,1.5,0.8l141.8,81.9
		c3.6,2.1,7.8,3.2,12,3.2h135.9c3.7,0,7.4-0.9,10.8-2.5l17-8.6V472c0,4.4,3.6,8,8,8h64c4.4,0,8-3.6,8-8v-8h56c4.4,0,8-3.6,8-8V344
		C477.6,339.6,474,336,469.6,336z M309.4,455.2c-1.1,0.5-2.4,0.8-3.6,0.8H169.9c-1.4,0-2.8-0.4-4-1.1L24.1,373.1
		c-7.5-4.6-9.9-14.5-5.3-22c4.4-7.3,13.8-9.8,21.3-5.7l80.6,46.5c-1.5,17.5,11.5,32.9,29,34.4c0,0,0,0,0,0c3.7,0.3,7.4,0,11-1
		l95.4-25.5c4.3-1.1,6.8-5.5,5.7-9.8c-1.1-4.3-5.5-6.8-9.8-5.7l-95.4,25.6c-8.4,2.9-17.5-1.6-20.3-10c-2.9-8.4,1.6-17.5,10-20.3
		c0.5-0.2,1-0.3,1.5-0.4l0.6-0.2l127.4-34.2c1.3-0.3,2.7-0.3,4,0l53.9,13.4V443L309.4,455.2z M397.6,464h-48V336h48V464z M461.6,448
		h-48v-96h48V448z"/>
	<path class="st3" d="M316.8,68.4l-32-64c-1.4-2.7-4.2-4.4-7.2-4.4h-224c-3,0-5.8,1.7-7.2,4.4l-32,64c-0.4,1.2-0.7,2.4-0.8,3.6v224
		c0,4.4,3.6,8,8,8h288c4.4,0,8-3.6,8-8V72C317.5,70.8,317.2,69.6,316.8,68.4z M296.7,64h-92.9l-12-48h80.8L296.7,64z M141.6,80h48
		v75.1l-20.4-10.3c-2.3-1.1-4.9-1.1-7.2,0l-20.4,10.3V80z M175.4,16l12,48h-43.6l12-48H175.4z M58.5,16h80.8l-12,48H34.5L58.5,16z
		 M301.6,288h-272V80h96v88c0,4.4,3.6,8,8,8c1.2,0,2.5-0.3,3.6-0.8l28.4-14.3l28.4,14.3c3.9,2,8.8,0.4,10.8-3.5c0,0,0-0.1,0-0.1
		c0.5-1.1,0.8-2.4,0.8-3.6V80h96V288z"/>
</g>
</svg>
