<svg id="Layer_1" data-name="Layer 1" xmlns="http://www.w3.org/2000/svg" viewBox="0 0 477.6 480"><defs><style>.cls-1{fill:#fff;}.cls-2{fill:#efeeed;}.cls-3{fill:#fca468;}.cls-4{fill:#231f20;}</style></defs><title>dliverd orange</title><g id="Send_package" data-name="Send package"><path class="cls-1" d="M300,353a15.5,15.5,0,0,0-8,.1L164.6,387.2a23.8,23.8,0,0,0-16.7,16.5L62.5,354.4a24,24,0,0,0-24,41.6l141.8,81.9a15.9,15.9,0,0,0,8,2.1H324.2a16.2,16.2,0,0,0,7.2-1.7L360,464V368Z" transform="translate(-18.4 -16)"/><path class="cls-2" d="M40,88H152l16-64H72Z" transform="translate(-18.4 -16)"/><path class="cls-2" d="M328,88,296,24H200l16,64Z" transform="translate(-18.4 -16)"/><path class="cls-3" d="M424,344H360V488h64V344Z" transform="translate(-18.4 -16)"/><path class="cls-2" d="M424,360h64V472H424Z" transform="translate(-18.4 -16)"/><path class="cls-2" d="M40,88H328V312H40Z" transform="translate(-18.4 -16)"/><path class="cls-1" d="M184,168l32,16V88H152v96Z" transform="translate(-18.4 -16)"/><path class="cls-1" d="M216,88,200,24H168L152,88Z" transform="translate(-18.4 -16)"/><path class="cls-3" d="M312,88V232a48,48,0,0,1-48,48H40v32H328V88Z" transform="translate(-18.4 -16)"/><path class="cls-1" d="M424,360h24V472H424Z" transform="translate(-18.4 -16)"/><path class="cls-4" d="M488,352H432v-8a8,8,0,0,0-8-8H360a8,8,0,0,0-8,8v13.8l-50-12.6a25.6,25.6,0,0,0-12,.1L162.6,379.5a31.4,31.4,0,0,0-18.1,13l-78-45a32,32,0,1,0-32,55.4l141.8,81.9a24,24,0,0,0,12,3.2H324.2a25.5,25.5,0,0,0,10.8-2.5l17-8.6V488a8,8,0,0,0,8,8h64a8,8,0,0,0,8-8v-8h56a8,8,0,0,0,8-8V360a8,8,0,0,0-8-8ZM327.8,471.2a8.6,8.6,0,0,1-3.6.8H188.3a8,8,0,0,1-4-1.1L42.5,389.1a16,16,0,0,1,16-27.7l80.6,46.5a31.8,31.8,0,0,0,29,34.4,31.4,31.4,0,0,0,11-1l95.4-25.5a8,8,0,0,0-4.1-15.5L175,425.9a16,16,0,1,1-8.9-30.7l.6-.2,127.4-34.2a9,9,0,0,1,4,0L352,374.2V459ZM416,480H368V352h48Zm64-16H432V368h48Z" transform="translate(-18.4 -16)"/><path class="cls-4" d="M335.2,84.4l-32-64A8.2,8.2,0,0,0,296,16H72a8.2,8.2,0,0,0-7.2,4.4l-32,64A15.5,15.5,0,0,0,32,88V312a8,8,0,0,0,8,8H328a8,8,0,0,0,8-8V88A15.5,15.5,0,0,0,335.2,84.4ZM315.1,80H222.2l-12-48H291ZM160,96h48v75.1l-20.4-10.3a8.3,8.3,0,0,0-7.2,0L160,171.1Zm33.8-64,12,48H162.2l12-48ZM76.9,32h80.8l-12,48H52.9ZM320,304H48V96h96v88a8,8,0,0,0,8,8,9,9,0,0,0,3.6-.8L184,176.9l28.4,14.3a8,8,0,0,0,10.8-3.6,8.6,8.6,0,0,0,.8-3.6V96h96Z" transform="translate(-18.4 -16)"/></g></svg>