<?xml version="1.0" encoding="utf-8"?>
<!-- Generator: Adobe Illustrator 24.0.2, SVG Export Plug-In . SVG Version: 6.00 Build 0)  -->
<svg version="1.1" id="Layer_1" xmlns="http://www.w3.org/2000/svg" xmlns:xlink="http://www.w3.org/1999/xlink" x="0px" y="0px"
	 viewBox="0 0 512 411.6" style="enable-background:new 0 0 512 411.6;" xml:space="preserve">
<style type="text/css">
	.st0{fill:#FFFFFF;}
	.st1{fill:#FF9A00;}
	.st2{fill:#EFEEED;}
	.st3{fill:#273238;}
</style>
<title>rigester orange</title>
<path class="st0" d="M444.2,134.5v239.6c0,16.6-13.4,30-30,30l0,0h-377c-16.6,0-30-13.4-30-30l0,0V134.5c0-16.6,13.4-30,30-30h377
	C430.8,104.5,444.2,117.9,444.2,134.5z"/>
<path class="st0" d="M171.9,299.1H82.2c-16.6,0-30-13.4-30-30l0,0v-89.6c0-16.6,13.4-30,30-30h89.7c16.6,0,30,13.4,30,30v89.6
	C201.9,285.7,188.5,299.1,171.9,299.1L171.9,299.1z"/>
<circle class="st1" cx="127.1" cy="215.7" r="36.2"/>
<path class="st1" d="M82.2,299.1h89.7c2.8,0,5.5-0.4,8.2-1.1c-4.2-29.3-31.4-49.6-60.7-45.4C95.9,256,77.4,274.5,74,298
	C76.7,298.7,79.4,299.1,82.2,299.1z"/>
<path class="st2" d="M444.2,134.5v99c-13.3,4.4-27.3,6.6-41.3,6.6c-72.4,0-131.3-58.9-131.3-131.3c0-1.4,0-2.9,0.1-4.3h142.5
	C430.8,104.5,444.2,117.9,444.2,134.5L444.2,134.5z"/>
<circle class="st2" cx="402.9" cy="108.8" r="101.3"/>
<path class="st3" d="M399.5,351.6h-347c-4.1,0-7.5,3.4-7.5,7.5s3.4,7.5,7.5,7.5h347c4.1,0,7.5-3.4,7.5-7.5S403.6,351.6,399.5,351.6z
	 M399.5,321.6h-347c-4.1,0-7.5,3.4-7.5,7.5s3.4,7.5,7.5,7.5h347c4.1,0,7.5-3.4,7.5-7.5S403.6,321.6,399.5,321.6z M444.5,223.9
	c-4.1,0-7.5,3.4-7.5,7.5v142.7c0,12.4-10.1,22.5-22.5,22.5l0,0h-377c-12.4,0-22.5-10.1-22.5-22.5l0,0V134.5
	c0-12.4,10.1-22.5,22.5-22.5h234.3c4.1,0,7.5-3.4,7.5-7.5s-3.4-7.5-7.5-7.5H37.5C16.8,97,0,113.8,0,134.5l0,0v239.6
	c0,20.7,16.8,37.5,37.5,37.5l0,0h377c20.7,0,37.5-16.8,37.5-37.5l0,0V231.4C452,227.3,448.6,223.9,444.5,223.9L444.5,223.9z
	 M403.2,0c-60,0-108.9,48.8-108.9,108.8c0,11.3,1.8,22.5,5.2,33.2h-52c-4.1,0-7.5,3.4-7.5,7.5s3.4,7.5,7.5,7.5h58.1
	c2.6,5.2,5.6,10.3,9,15h-67.1c-4.1,0-7.5,3.4-7.5,7.5s3.4,7.5,7.5,7.5h80c43.2,41.8,112.1,40.6,153.8-2.6S522,72.4,478.8,30.6
	C458.5,11,431.4,0,403.2,0z M403.2,202.6c-51.8,0-93.8-42-93.8-93.8s42-93.8,93.8-93.8S497,57,497,108.8v0
	C496.9,160.6,455,202.5,403.2,202.6z M72.3,305.2c3.3,0.9,6.8,1.3,10.2,1.4h89.6c19.1,0.4,37.9-16.7,37.5-37.5v-89.6
	c0-20.7-16.8-37.5-37.5-37.5H82.5C61.8,142,45,158.8,45,179.5v89.6C45,285.9,56.2,300.6,72.3,305.2z M83.4,291.6
	c7.6-24.2,33.4-37.7,57.6-30.2c14.4,4.5,25.7,15.8,30.2,30.2H83.4z M98.6,215.7c0-15.9,12.8-28.7,28.7-28.7
	c15.9,0,28.7,12.8,28.7,28.7c0,15.9-12.8,28.7-28.7,28.7C111.5,244.3,98.7,231.5,98.6,215.7z M60,179.5c0-12.4,10.1-22.5,22.5-22.5
	h89.6c12.4,0,22.5,10.1,22.5,22.5v89.6c0,7.1-3.3,13.9-9.1,18.1c-5.1-16.1-16.6-29.3-31.8-36.7c19.2-14.6,23-42,8.4-61.2
	s-42-23-61.2-8.4s-23,42-8.4,61.2c2.4,3.2,5.2,6,8.4,8.4c-15.2,7.4-26.7,20.6-31.8,36.7c-5.7-4.3-9.1-11-9.1-18.1V179.5z
	 M440.6,82.5l-52,52c-0.8,0.7-1.9,0.7-2.7,0l-20.2-20.2c-2.8-3-7.6-3.2-10.6-0.4s-3.2,7.6-0.4,10.6c0.1,0.1,0.2,0.3,0.4,0.4
	l20.2,20.2c6.5,6.6,17.2,6.7,23.8,0.1c0,0,0.1-0.1,0.1-0.1l52-52c2.8-3,2.7-7.8-0.4-10.6C447.9,79.8,443.5,79.8,440.6,82.5
	L440.6,82.5z M399.5,261.6h-152c-4.1,0-7.5,3.4-7.5,7.5s3.4,7.5,7.5,7.5h152c4.1,0,7.5-3.4,7.5-7.5S403.6,261.6,399.5,261.6z
	 M399.5,291.6h-152c-4.1,0-7.5,3.4-7.5,7.5s3.4,7.5,7.5,7.5h152c4.1,0,7.5-3.4,7.5-7.5S403.6,291.6,399.5,291.6z"/>
</svg>
