<?xml version="1.0" encoding="utf-8"?>
<!-- Generator: Adobe Illustrator 24.0.2, SVG Export Plug-In . SVG Version: 6.00 Build 0)  -->
<svg version="1.1" id="Layer_1" xmlns="http://www.w3.org/2000/svg" xmlns:xlink="http://www.w3.org/1999/xlink" x="0px" y="0px"
	 viewBox="0 0 486.1 338.6" style="enable-background:new 0 0 486.1 338.6;" xml:space="preserve">
<style type="text/css">
	.st0{fill:#FFFFFF;}
	.st1{fill:#EFEEED;}
	.st2{fill:#273238;}
	.st3{fill:#FF9A00;}
</style>
<title>rigestwer orange</title>
<g id="Layer_1-2">
	<path class="st0" d="M477.7,40.4v257.7c0,17.8-14.4,32.2-32.2,32.3H40c-17.8-0.1-32.2-14.5-32.2-32.3l0,0V40.4
		C7.8,22.6,22.2,8.2,40,8.2h405.5C463.3,8.2,477.7,22.6,477.7,40.4C477.7,40.4,477.7,40.4,477.7,40.4z"/>
	<path class="st0" d="M184.9,217.5H88.4c-17.8-0.1-32.2-14.5-32.2-32.3l0,0V88.8c0-17.8,14.4-32.2,32.2-32.2h96.5
		c17.8,0,32.2,14.4,32.3,32.2v96.4C217.2,203,202.7,217.5,184.9,217.5z"/>
	<path class="st1" d="M477.9,294.7V191.6c-14.3-4.6-29.3-6.9-44.3-6.8c-77.7,0-140.9,61.3-140.9,136.6c0,1.5,0,3,0.1,4.5h152.9
		C463.5,325.9,477.9,311.9,477.9,294.7L477.9,294.7z"/>
	<path class="st2" d="M429.7,273.9H56.5c-4.4-0.5-8.5,2.7-9,7.1c-0.5,4.4,2.7,8.5,7.2,9c0.6,0.1,1.2,0.1,1.8,0h373.2
		c4.4-0.5,7.6-4.5,7.2-8.9C436.4,277.3,433.5,274.3,429.7,273.9z"/>
	<path class="st2" d="M429.7,241.7H56.5c-4.4-0.5-8.5,2.7-9,7.2c-0.5,4.4,2.7,8.5,7.2,8.9l0,0c0.6,0.1,1.2,0.1,1.8,0h373.2
		c4.4-0.5,7.6-4.5,7.2-8.9C436.4,245.1,433.5,242.1,429.7,241.7z"/>
	<path class="st2" d="M478.1,136.6c-4.4-0.1-8,3.5-8.1,7.9c0,0,0,0,0,0l0,0v153.6c0,13.4-10.8,24.2-24.2,24.2h0H40.4
		c-13.4,0-24.2-10.8-24.2-24.2l0,0l0,0V40.4C16.2,27,27,16.2,40.4,16.2h251.9c4.4,0.5,8.4-2.6,8.9-7c0-0.1,0-0.1,0-0.2
		c0.5-4.4-2.7-8.4-7.1-8.9H40.4C18.1,0.1,0.1,18.1,0,40.4v257.7c-0.1,22.2,17.9,40.2,40.1,40.3c0.1,0,0.1,0,0.2,0h405.5
		c22.2,0.1,40.2-17.9,40.3-40.1c0,0,0,0,0,0V144.6C486.1,140.2,482.5,136.6,478.1,136.6z"/>
	<path class="st2" d="M429.7,127.3H266.2c-4.5,0-8.1,3.6-8.1,8.1c0,4.5,3.6,8.1,8.1,8.1c0,0,0,0,0,0h163.5c4.5,0,8.1-3.6,8.1-8.1
		C437.8,130.9,434.2,127.3,429.7,127.3C429.7,127.3,429.7,127.3,429.7,127.3z"/>
	<path class="st2" d="M417.7,72.8H278.2c-3.9,0-6.9,5.8-6.9,12.9s3,12.8,6.9,12.8h139.5c3.8,0,6.9-5.7,6.9-12.8
		S421.5,72.8,417.7,72.8z"/>
	<path class="st2" d="M429.7,162.3H266.2c-4.5,0-8.1,3.6-8.1,8.1c0,4.5,3.6,8.1,8.1,8.1c0,0,0,0,0,0h163.5c4.5,0,8.1-3.6,8.1-8.1
		C437.8,165.9,434.2,162.3,429.7,162.3C429.7,162.3,429.7,162.3,429.7,162.3z"/>
	<path class="st2" d="M429.7,197.3H266.2c-4.4-0.5-8.5,2.7-9,7.2c-0.5,4.4,2.7,8.5,7.2,8.9l0,0h165.3c4.4-0.5,7.6-4.5,7.2-8.9
		C436.4,200.7,433.5,197.7,429.7,197.3z"/>
	<path class="st2" d="M185.1,48.5H88.7c-22.2,0.1-40.2,18.1-40.3,40.3v96.4c0,18,12,33.9,29.4,38.8c3.6,0.9,7.2,1.4,10.9,1.5h96.4
		c20.5,0.5,40.8-17.9,40.3-40.3V88.8c0.1-22.2-17.9-40.2-40.1-40.3C185.2,48.5,185.2,48.5,185.1,48.5z M209.3,185.2
		c0,7.7-3.6,14.9-9.8,19.5v-0.2l-2,1.2c-1.6,1.1-3.4,1.8-5.3,2.3c-4.2,1.7-9.7,2.6-13.9,1.4H89.7l0.2-0.5h-2.2
		c-4.1,0-8.2-1.1-11.7-3.2l-1.6-1.1h-0.1l-1.8-1.5l-1.2-1c-2.8-2.9-4.8-6.4-5.9-10.2c-0.1-0.4-0.1-0.9-0.2-1.3
		c-0.4-1.5-0.6-3-0.6-4.6v-0.2c0-0.5,0-1,0.1-1.5V88.8c0-13.3,10.7-24.1,24-24.2h96.4c13.4,0,24.2,10.8,24.2,24.2V185.2z"/>
</g>
<g id="Layer_5">
	<path class="st2" d="M8.1,136.7c4.5,0,8.1,3.6,8.1,8.1l0,0l0,0v153.5c0,13.4,10.8,24.2,24.2,24.2c0,0,0,0,0,0h405.4
		c13.4,0,24.2-10.8,24.2-24.2v0l0,0V40.6c0-13.4-10.8-24.2-24.2-24.2l0,0h-252c-4.4-0.5-7.6-4.5-7.2-8.9c0.4-3.8,3.4-6.8,7.2-7.2
		h252C468,0.2,486,18.2,486.1,40.4c0,0,0,0,0,0v257.9c0.1,22.2-17.9,40.2-40.1,40.3c-0.1,0-0.1,0-0.2,0H40.4
		c-22.3,0-40.3-18-40.4-40.3V144.8C0.1,140.3,3.6,136.8,8.1,136.7z"/>
</g>
<g id="Layer_2_1_">
	<path class="st1" d="M91.2,117.7h34.5l4.9-19.7h-29.5L91.2,117.7z"/>
	<path class="st1" d="M179.9,117.7L170.1,98h-29.6l4.9,19.7L179.9,117.7z"/>
	<path class="st1" d="M94.7,111.1h78.4v61H94.7V111.1z"/>
	<path class="st0" d="M135.6,139.5l8.7,4.4v-26.2h-17.4v26.2L135.6,139.5z"/>
	<path class="st0" d="M144.3,117.7l-4.4-17.4h-8.7l-4.3,17.4H144.3z"/>
	<path class="st3" d="M172.8,116.9v41.2c-0.1,7.6-6.3,13.8-13.9,13.7c0,0,0,0,0,0h-65v9.2h83.5v-64.1H172.8z"/>
	<path class="st2" d="M180.5,114.7L171,95.6c-0.4-0.8-1.2-1.3-2.1-1.3h-66.6c-0.9,0-1.8,0.5-2.2,1.3l-9.5,19.1
		c-0.1,0.3-0.2,0.7-0.2,1v66.6c-0.1,1.3,0.9,2.3,2.2,2.4c0,0,0,0,0,0h85.8c1.3,0,2.4-1.1,2.4-2.4v-66.6L180.5,114.7z M174.6,113.3
		h-27.7l-3.5-14.2h24L174.6,113.3z M128.4,118.1h14.3v22.3l-6.1-3c-0.6-0.4-1.5-0.4-2.1,0l-6.1,3L128.4,118.1z M138.5,99.1l3.5,14.2
		h-12.9l3.6-14.2H138.5z M103.7,99.1h24l-3.5,14.2H96.6L103.7,99.1z M176,180H95.1v-61.9h28.6v26.2c0,1.3,1.1,2.4,2.4,2.4l1-0.3
		l8.5-4.2l8.4,4.2c1.2,0.6,2.6,0.1,3.2-1l0,0c0.2-0.3,0.3-0.6,0.3-1v-26.3H176V180z"/>
</g>
</svg>
