<?xml version="1.0" encoding="utf-8"?>
<!-- Generator: Adobe Illustrator 24.0.2, SVG Export Plug-In . SVG Version: 6.00 Build 0)  -->
<svg version="1.1" id="Layer_1" xmlns:svgjs="http://svgjs.com/svgjs"
	 xmlns="http://www.w3.org/2000/svg" xmlns:xlink="http://www.w3.org/1999/xlink" x="0px" y="0px" viewBox="0 0 512 512"
	 style="enable-background:new 0 0 512 512;" xml:space="preserve">
<style type="text/css">
	.st0{fill:#FFFFFF;}
	.st1{fill:#EFEEED;}
	.st2{fill:#FCA468;}
	.st3{fill:#273238;}
</style>
<g>
	<g>
		<g>
			<path class="st0" d="M337.7,48.5v414.9c0,22.6-18.3,40.9-40.9,40.9h-211c-22.6,0-40.9-18.3-40.9-40.9V48.5
				c0-22.6,18.3-40.9,40.9-40.9h211C319.4,7.6,337.7,25.9,337.7,48.5z"/>
			<path class="st1" d="M337.7,48.5v414.9c0,22.6-18.3,40.9-40.9,40.9h-211c-22.6,0-40.9-18.3-40.9-40.9V48.5
				c0-22.6,18.3-40.9,40.9-40.9h211C319.4,7.6,337.7,25.9,337.7,48.5z"/>
			<path class="st2" d="M310.8,48.5v414.9c0,22.6-18.3,40.9-40.9,40.9H85.8c-22.6,0-40.9-18.3-40.9-40.9V48.5
				c0-22.6,18.3-40.9,40.9-40.9h184.1C292.5,7.6,310.8,25.9,310.8,48.5z"/>
			<path class="st1" d="M44.9,61.3h292.8v355.3H44.9L44.9,61.3z"/>
			<path class="st0" d="M44.9,61.3h265.9v355.3H44.9L44.9,61.3z"/>
			<path class="st0" d="M272.4,61.3v65.9c0,23.2-9.9,45.2-26.8,60.7c-2.4,2.2-4.9,4.2-7.5,6.1l-89.3,64c-0.2,0.1-0.3,0.2-0.5,0.3
				c-4.2-2.5-8.4-5.1-12.6-7.7c-46.1-28.8-77.2-56.9-90.9-70.2V61.3L272.4,61.3z"/>
			<path class="st0" d="M245.7,61.3v126.6c-2.4,2.2-4.9,4.2-7.5,6.1l-89.3,64c-0.2,0.1-0.3,0.2-0.5,0.3c-4.2-2.5-8.4-5.1-12.6-7.7
				c-46.1-28.8-77.2-56.9-90.9-70.2V61.3L245.7,61.3z"/>
			<path class="st0" d="M337.7,363.2v53.5H106.9v-15c0-39.8,16.5-77.7,44.9-104.8c29,15.8,59.2,29.4,90.1,40.5
				c22.6,8.1,45.6,14.9,68.9,20.3C319.7,359.7,328.7,361.5,337.7,363.2L337.7,363.2z"/>
			<path class="st0" d="M310.8,357.6v59.1H106.9v-15c0-39.8,16.5-77.7,44.9-104.8c29,15.8,59.2,29.4,90.1,40.5
				C264.5,345.4,287.5,352.2,310.8,357.6z"/>
			<path class="st1" d="M221.3,477h-60c-5.5,0-10-4.5-10-10v-11.8c0-5.5,4.5-10,10-10h60c5.5,0,10,4.5,10,10V467
				C231.3,472.5,226.8,477,221.3,477z"/>
			<path class="st1" d="M139.8,61.3c-4.7,0-9.2,0.6-13.5,1.7c-23.5,6-40.8,27.3-40.8,52.6c0,23.5,22.2,71.8,40.6,91.6
				c5.1,5.5,9.8,8.8,13.7,8.8c17,0,54.3-70.4,54.3-100.3S169.7,61.3,139.8,61.3z M120.6,115.6c0-10.6,8.6-19.2,19.2-19.2
				s19.2,8.6,19.2,19.2s-8.6,19.2-19.2,19.2S120.6,126.2,120.6,115.6z"/>
			<path class="st0" d="M126.3,63c-23.5,6-40.8,27.3-40.8,52.6c0,23.5,22.2,71.8,40.6,91.6c18.1-19.8,41-68.1,41-91.6
				C167,90.3,149.7,69,126.3,63z M139.8,134.8c-10.6,0-19.2-8.6-19.2-19.2s8.6-19.2,19.2-19.2s19.2,8.6,19.2,19.2
				C158.9,126.2,150.4,134.8,139.8,134.8z"/>
			<g>
				<path class="st1" d="M253.3,307.6c-25.3-9-50.1-19.8-74.1-32.2l77.5-55.6c29.8-21.3,47.6-56,47.6-92.6V61.3h-31.8v65.9
					c0,26.4-12.8,51.4-34.3,66.8l-89.3,64c-0.2,0.1-0.3,0.2-0.5,0.3c-4.2-2.5-8.4-5.1-12.6-7.7c-46.1-28.8-77.2-56.9-90.9-70.2v43.1
					c17.4,14.9,41.9,33.9,73,53.5c1.8,1.1,3.6,2.2,5.4,3.3C92.7,312.9,75,356.3,75,401.7v15h31.8v-15c0-39.8,16.5-77.7,44.9-104.8
					c29,15.8,59.2,29.4,90.1,40.5c31.3,11.2,63.3,19.9,95.8,25.9v-32.4C309.1,325.2,280.9,317.4,253.3,307.6L253.3,307.6z"/>
				<path class="st1" d="M446.2,363.5H260.9L228,395.3v-77.8c0-11.5,9.4-20.9,20.9-20.9h197.2c11.5,0,20.9,9.4,20.9,20.9v25.1
					C467.1,354.1,457.7,363.5,446.2,363.5z"/>
			</g>
		</g>
		<g>
			<path class="st3" d="M166.5,115.6c0-14.8-12-26.8-26.8-26.8c-14.8,0-26.8,12-26.8,26.8s12,26.8,26.8,26.8
				S166.5,130.4,166.5,115.6z M128.2,115.6c0-6.4,5.2-11.6,11.6-11.6c6.4,0,11.6,5.2,11.6,11.6c0,6.4-5.2,11.6-11.6,11.6
				C133.4,127.2,128.2,122,128.2,115.6z"/>
			<path class="st3" d="M196.2,382.5h-50.4c-4.2,0-7.6,3.4-7.6,7.6s3.4,7.6,7.6,7.6h50.4c4.2,0,7.6-3.4,7.6-7.6
				S200.4,382.5,196.2,382.5z"/>
			<path class="st3" d="M316.9,329.5c0,4.2,3.4,7.6,7.6,7.6h104.2c4.2,0,7.6-3.4,7.6-7.6c0-4.2-3.4-7.6-7.6-7.6H324.5
				C320.3,321.9,316.9,325.3,316.9,329.5z"/>
			<path class="st3" d="M263.1,321.9c-4.2,0-7.6,3.4-7.6,7.6c0,4.2,3.4,7.6,7.6,7.6h24.1c4.2,0,7.6-3.4,7.6-7.6
				c0-4.2-3.4-7.6-7.6-7.6H263.1z"/>
			<path class="st3" d="M446.2,289h-23.7c-4.2,0-7.6,3.4-7.6,7.6s3.4,7.6,7.6,7.6h23.7c7.3,0,13.3,6,13.3,13.3v25.1
				c0,7.3-6,13.3-13.3,13.3H337.7h0h-76.8c-2,0-3.9,0.8-5.3,2.1l-20,19.3v-45.2c0-10.4-2.4-28,13.3-28h139.7c4.2,0,7.6-3.4,7.6-7.6
				c0-4.2-3.4-7.6-7.6-7.6h-43.4l0-240.4c0-26.8-21.8-48.5-48.5-48.5h-211C59.1,0,37.3,21.8,37.3,48.5v287.3c0,4.2,3.4,7.6,7.6,7.6
				s7.6-3.4,7.6-7.6v-96.1c18.5,14.9,38.2,29.1,59.1,42.3C83,315.5,67.4,357.6,67.4,401.7v7.4h-15v-37.3c0-4.2-3.4-7.6-7.6-7.6
				s-7.6,3.4-7.6,7.6v91.8c0,26.8,21.8,48.5,48.5,48.5h211c26.8,0,48.5-21.8,48.5-48.5l0-92.4h100.9c15.7,0,28.5-12.8,28.5-28.5
				v-25.1C474.7,301.8,461.9,289,446.2,289L446.2,289z M264,371.1h66.1v38H114.5v-7.4c0-35.5,14-70,38.6-95.5
				c21.8,11.7,44.3,22.1,67.3,31.1v57.9c0,6.7,8.2,10,12.9,5.5L264,371.1z M248.9,289c-0.5,0-1,0-1.5,0c-4.5,0.2-8.7,1.5-12.4,3.6
				c-13.9-5.6-27.8-11.7-41.3-18.3l67.3-48.2c31.8-22.8,50.7-59.7,50.7-98.8V68.9h18.2v220L248.9,289L248.9,289z M52.5,68.9h46.7
				C86.1,80.3,77.9,97,77.9,115.6c0,18.4,11.4,46.5,21.2,65c10.4,19.6,25.9,43,40.6,43c14.2,0,29.7-23.4,40.2-42.9
				c10.5-19.5,21.7-46.9,21.7-65c0-18.6-8.3-35.3-21.3-46.7h84.5v58.3c0,24-11.6,46.6-31.1,60.6L148,249.3c-2.8-1.7-5.5-3.4-8.2-5
				c-42.7-26.7-72.3-52.6-87.3-67L52.5,68.9L52.5,68.9z M112.2,172.8c-11.4-21.8-19.1-44.8-19.1-57.2c0-25.7,20.9-46.7,46.7-46.7
				s46.7,20.9,46.7,46.7c0,12.1-7.7,34.8-19.2,56.5c-13.6,25.8-24.5,35.6-27.5,36.2C136.7,208,125.8,198.7,112.2,172.8L112.2,172.8z
				 M85.8,15.2h211c18.4,0,33.3,14.9,33.3,33.3v5.2H52.5v-5.2C52.5,30.2,67.4,15.2,85.8,15.2L85.8,15.2z M82.7,401.7
				c0-43.3,16.4-84.5,46.2-116.1c6.3-6.6-1.9-11.9-6.9-15C97.1,255,73.8,238,52.5,220V198c17.1,15.3,43.8,37,79.2,59.2
				c5.4,3.4,14.9,12.3,21.3,7.2l89.5-64.2c23.5-16.8,37.5-44.1,37.5-72.9V68.9h16.6v58.3c0,34.2-16.6,66.5-44.4,86.4l-77.5,55.6
				c-2.2,1.5-3.3,4.1-3.2,6.7c0.2,2.6,1.7,5,4.1,6.2c15.6,8,31.7,15.5,47.9,22.2c-2.8,5.3-3.2,10.8-3.2,16.6
				c-22.2-9-44-19.3-65-30.8c-2.9-1.6-6.5-1.1-8.9,1.2c-30,28.7-47.2,68.9-47.2,110.3v7.4H82.7L82.7,401.7z M296.8,496.8h-211
				c-18.4,0-33.3-14.9-33.3-33.3v-39.2l277.6,0v39.2C330.1,481.8,315.1,496.8,296.8,496.8L296.8,496.8z"/>
			<path class="st3" d="M111.4,41.6c4.4,0,8.1-3.6,8.1-8.1s-3.6-8.1-8.1-8.1c-4.4,0-8.1,3.6-8.1,8.1S107,41.6,111.4,41.6z"/>
			<path class="st3" d="M150.2,41.5h82.2c4.2,0,7.6-3.4,7.6-7.6s-3.4-7.6-7.6-7.6h-82.2c-4.2,0-7.6,3.4-7.6,7.6S146,41.5,150.2,41.5
				z"/>
			<path class="st3" d="M221.3,437.6h-60c-9.7,0-17.6,7.9-17.6,17.6V467c0,9.7,7.9,17.6,17.6,17.6h60c9.7,0,17.6-7.9,17.6-17.6
				v-11.8C238.9,445.5,231,437.6,221.3,437.6z M223.7,467c0,1.3-1.1,2.4-2.4,2.4h-60c-1.3,0-2.4-1.1-2.4-2.4v-11.8
				c0-1.3,1.1-2.4,2.4-2.4h60c1.3,0,2.4,1.1,2.4,2.4V467z"/>
		</g>
	</g>
</g>
</svg>
