<svg id="Layer_1" data-name="Layer 1" xmlns="http://www.w3.org/2000/svg" viewBox="0 0 512 512"><defs><style>.cls-1{fill:#efeeed;}.cls-2{fill:#fff;}.cls-3{fill:#273238;}.cls-4{fill:#fca468;}</style></defs><title>buy orange</title><path class="cls-1" d="M107.3,372v79.3c45.2,2,32.2,10,110.7,45.3,10.1,3.9,33.2,10.4,57.9-1h0l154.4-55.3c5-2.3,30.4-16,20.4-41.7-11.7-27.3-41.8-15.9-44.3-15.1l-80.6,22.3" transform="translate(0 0)"/><path class="cls-2" d="M198.5,405.2l89.8,28.4a29.4,29.4,0,0,0,36.4-20.3h0c4.4-15.6-4.6-31.9-22.6-38.6l-79.6-27s-17-27.8-57.5-27.8c-25.5,0-47.6,20.7-57.7,38.8v36.1" transform="translate(0 0)"/><path class="cls-3" d="M162.8,403.9l-2-.2-1.9-.6-1.7-.9a13.9,13.9,0,0,1-2.8-2.8l-.9-1.7-.6-1.9a9.6,9.6,0,0,1,0-3.9l.6-1.9.9-1.7a9.3,9.3,0,0,1,1.3-1.5,6.4,6.4,0,0,1,1.5-1.3l1.7-.9,1.9-.5a8.6,8.6,0,0,1,3.9,0l1.9.5,1.7.9a13.9,13.9,0,0,1,2.8,2.8l.9,1.7.6,1.9a9.6,9.6,0,0,1,0,3.9l-.6,1.9-.9,1.7a6.4,6.4,0,0,1-1.3,1.5,9.3,9.3,0,0,1-1.5,1.3l-1.7.9-1.9.6Z" transform="translate(0 0)"/><rect class="cls-2" x="69.5" y="357.4" width="37.9" height="107.44"/><rect class="cls-4" x="10" y="357.4" width="59.5" height="126.08"/><path class="cls-3" d="M460,395c0-.1-.1-.2-.1-.3-9.2-21.6-30.8-29.5-56.4-20.8l-69.6,19.3c-4.1-12.2-14.1-22.6-28.3-27.9h-.3l-76.6-26c-6.3-8.2-26.3-29.3-63.7-29.3-26.1,0-49.2,17.9-62.4,37.5H10a10,10,0,0,0-10,10V483.5a10,10,0,0,0,10,10H69.5a10,10,0,0,0,10-10v-8.7h27.8a10,10,0,0,0,10-10v-2.9c16.3,1.5,21.6,4.5,36.6,13.2a595.2,595.2,0,0,0,60,30.6l.5.2a88.7,88.7,0,0,0,32.2,6.1,79.8,79.8,0,0,0,33.1-7.1l154-55.2.8-.3C449.2,442.6,471.1,423.6,460,395ZM59.5,473.5H20V367.4H59.5Zm37.8-18.7H79.5V367.4H97.3Zm329.2-23.7L272.6,486.2l-.5.2h-.4c-21.4,9.9-41.8,4-49.8.9-30.2-13.6-46.3-22.9-58-29.7-16.4-9.4-24.3-14-46.6-15.8V361.4c9.5-15.6,27.9-31.5,47.7-31.5,34,0,48.4,22.1,49,23a9.6,9.6,0,0,0,5.3,4.2l79.5,27c12.6,4.8,19.4,15.7,16.3,26.5a19.5,19.5,0,0,1-24,13.4l-89.6-28.3a10,10,0,0,0-6,19l89.7,28.5h.3a37.4,37.4,0,0,0,10.9,1.6,39.6,39.6,0,0,0,37.9-28.7l.6-2.5L410,392.8c10.8-3.7,25.1-5,31.4,9.6C448,419.5,430.9,429,426.5,431.1Z" transform="translate(0 0)"/><polyline class="cls-2" points="239.9 98.8 151.1 10 39.7 121.4 230 311.6 335.1 206.6"/><path class="cls-4" d="M187.3,114h0a47,47,0,1,0,50.2,48" transform="translate(0 0)"/><path class="cls-1" d="M404.7,155.3V76c-45.2-1.9-32.2-9.9-110.7-45.3-10.1-3.9-33.2-10.3-57.9,1h0L189.5,48.4l48,48.1" transform="translate(0 0)"/><path class="cls-2" d="M39.7,121.4,77.5,83.6a53.5,53.5,0,0,1,0,75.5Z" transform="translate(0 0)"/><path class="cls-2" d="M192.3,273.9a53.5,53.5,0,0,1,75.5,0L230,311.7Z" transform="translate(0 0)"/><path class="cls-2" d="M113.3,47.8,151.1,10l37.7,37.8A53.5,53.5,0,0,1,113.3,47.8Z" transform="translate(0 0)"/><path class="cls-2" d="M291.2,182a53.8,53.8,0,0,0,12.4,56.1l31.5-31.5" transform="translate(0 0)"/><path class="cls-2" d="M313.5,122.2,223.7,93.7A29.5,29.5,0,0,0,187.3,114h0c-4.4,15.7,4.6,32,22.6,38.6l79.6,27.1h0s17,27.7,57.5,27.7c25.5,0,47.6-20.6,57.7-38.7V132.6" transform="translate(0 0)"/><path class="cls-3" d="M349.3,143.5l-2-.2a7,7,0,0,1-1.9-.6,5.6,5.6,0,0,1-1.7-.9l-1.5-1.2a10.1,10.1,0,0,1-1.3-1.6l-.9-1.7-.6-1.9a12.3,12.3,0,0,1-.2-1.9,13.6,13.6,0,0,1,.2-2l.6-1.8.9-1.8,1.3-1.5a6.1,6.1,0,0,1,1.5-1.2,5.6,5.6,0,0,1,1.7-.9,7,7,0,0,1,1.9-.6,8.6,8.6,0,0,1,3.9,0,7,7,0,0,1,1.9.6,5.6,5.6,0,0,1,1.7.9,8.8,8.8,0,0,1,1.5,1.2l1.3,1.5.9,1.8.6,1.8a13.4,13.4,0,0,1,.1,2,12.1,12.1,0,0,1-.1,1.9l-.6,1.9-.9,1.7a10.1,10.1,0,0,1-1.3,1.6l-1.5,1.2a5.6,5.6,0,0,1-1.7.9,7,7,0,0,1-1.9.6Z" transform="translate(0 0)"/><rect class="cls-2" x="404.7" y="62.5" width="37.9" height="107.44"/><rect class="cls-4" x="442.5" y="43.9" width="59.5" height="126.08"/><path class="cls-3" d="M502,33.9H442.5a10,10,0,0,0-10,10v8.6H404.7a10,10,0,0,0-10,10v2.9c-16.3-1.4-21.6-4.5-36.6-13.1a611.5,611.5,0,0,0-60-30.7l-.5-.2c-10.2-4-36.8-11.8-65.3,1.1L192.1,36.9,158.2,3A9.9,9.9,0,0,0,144,3L32.7,114.3a10,10,0,0,0,0,14.2L222.9,318.7c3.1,3.1,10.2,4,14.2,0L338.8,217.1c2.6.2,5.3.3,8.2.3,26.1,0,49.2-17.9,62.4-37.4H502a10,10,0,0,0,10-10V43.9A10,10,0,0,0,502,33.9ZM176.4,126.6c1.9,15.4,13,29.1,30,35.4h.3l20,6.8a37,37,0,1,1-62.3-34.2A38.5,38.5,0,0,1,176.4,126.6Zm20.1-39a39.2,39.2,0,0,0-16.3,17.2,57,57,0,1,0,65.5,70.6l33.8,11.4A63.9,63.9,0,0,0,290,237.5l-22.8,22.8a63.7,63.7,0,0,0-74.4,0L91.1,158.6a63.3,63.3,0,0,0,12-37.2,62.8,62.8,0,0,0-12-37.2l22.8-22.8a62.8,62.8,0,0,0,37.2,12,63.3,63.3,0,0,0,37.2-12L209.9,83A38.1,38.1,0,0,0,196.5,87.6Zm108,135.5a43,43,0,0,1-6.4-20.8,76.3,76.3,0,0,0,17.6,9.5ZM151.1,24.2,173.9,47a43.8,43.8,0,0,1-45.6,0ZM76.7,98.6a43.8,43.8,0,0,1,0,45.6L53.9,121.4ZM230,297.5l-22.8-22.8a44,44,0,0,1,45.6,0ZM347,197.4a70.3,70.3,0,0,1-10.5-.7h0c-21.6-3.2-33.2-15.4-37-20.3l-1.2-1.6a10,10,0,0,0-5.5-4.6l-79.6-27c-12.6-4.7-19.3-15.6-16.3-26.4h0a19.6,19.6,0,0,1,9.3-11.6,18.9,18.9,0,0,1,14.7-1.8l89.6,28.4a10,10,0,0,0,6-19.1L245.2,90l-.6-.6h0L207.7,52.5l31.7-11.3.4-.2h.1l.4-.2c21.4-9.8,41.8-3.9,49.8-.8,30.2,13.5,46.3,22.8,58,29.6,16.4,9.5,24.3,14,46.6,15.8V166C385.2,181.5,366.8,197.4,347,197.4ZM414.7,72.5h17.8V160H414.7ZM492,160H452.5V53.9H492Z" transform="translate(0 0)"/></svg>