<svg id="Layer_1" data-name="Layer 1" xmlns="http://www.w3.org/2000/svg" viewBox="0 0 512 411.6"><defs><style>.cls-1{fill:#fff;}.cls-2{fill:#fca468;}.cls-3{fill:#efeeed;}.cls-4{fill:#273238;}</style></defs><title>rigester orange</title><path class="cls-1" d="M444.2,184.7V424.3a30,30,0,0,1-30,30H37.2a30,30,0,0,1-30-30V184.7a30,30,0,0,1,30-30h377A30,30,0,0,1,444.2,184.7Z" transform="translate(0 -50.2)"/><path class="cls-1" d="M171.9,349.3H82.2a30,30,0,0,1-30-30V229.7a30,30,0,0,1,30-30h89.7a30,30,0,0,1,30,30v89.6A30,30,0,0,1,171.9,349.3Z" transform="translate(0 -50.2)"/><circle class="cls-2" cx="127.1" cy="215.7" r="36.2"/><path class="cls-2" d="M82.2,349.3h89.7a31.8,31.8,0,0,0,8.2-1.1,53.6,53.6,0,0,0-106.1,0,31.8,31.8,0,0,0,8.2,1.1Z" transform="translate(0 -50.2)"/><path class="cls-3" d="M444.2,184.7v99a131.3,131.3,0,0,1-41.3,6.6c-72.4,0-131.3-58.9-131.3-131.3,0-1.4,0-2.9.1-4.3H414.2a30,30,0,0,1,30,30Z" transform="translate(0 -50.2)"/><circle class="cls-3" cx="402.9" cy="108.8" r="101.3"/><path class="cls-4" d="M399.5,401.8H52.5a7.5,7.5,0,0,0,0,15h347a7.5,7.5,0,0,0,0-15Zm0-30H52.5a7.5,7.5,0,0,0,0,15h347a7.5,7.5,0,0,0,0-15Zm45-97.7a7.5,7.5,0,0,0-7.5,7.5V424.3a22.5,22.5,0,0,1-22.5,22.5H37.5A22.5,22.5,0,0,1,15,424.3V184.7a22.5,22.5,0,0,1,22.5-22.5H271.8a7.5,7.5,0,0,0,0-15H37.5A37.5,37.5,0,0,0,0,184.7V424.3a37.5,37.5,0,0,0,37.5,37.5h377A37.5,37.5,0,0,0,452,424.3V281.6A7.5,7.5,0,0,0,444.5,274.1ZM403.2,50.2c-60,0-108.9,48.8-108.9,108.8a110.4,110.4,0,0,0,5.2,33.2h-52a7.5,7.5,0,0,0,0,15h58.1a108.3,108.3,0,0,0,9,15H247.5a7.5,7.5,0,0,0,0,15h80a108.8,108.8,0,1,0,75.7-187Zm0,202.6A93.8,93.8,0,1,1,497,159,93.9,93.9,0,0,1,403.2,252.8ZM72.3,355.4a44.4,44.4,0,0,0,10.2,1.4h89.6c19.1.4,37.9-16.7,37.5-37.5V229.7a37.5,37.5,0,0,0-37.5-37.5H82.5A37.5,37.5,0,0,0,45,229.7v89.6A37.6,37.6,0,0,0,72.3,355.4Zm11.1-13.6a46,46,0,0,1,87.8,0Zm15.2-75.9a28.7,28.7,0,1,1,28.7,28.7A28.8,28.8,0,0,1,98.6,265.9ZM60,229.7a22.5,22.5,0,0,1,22.5-22.5h89.6a22.5,22.5,0,0,1,22.5,22.5v89.6a22.3,22.3,0,0,1-9.1,18.1,61.6,61.6,0,0,0-31.8-36.7,43.7,43.7,0,1,0-52.8,0,61.6,61.6,0,0,0-31.8,36.7A22.6,22.6,0,0,1,60,319.3Zm380.6-97-52,52a2,2,0,0,1-2.7,0l-20.2-20.2a7.5,7.5,0,1,0-10.6,10.6l20.2,20.2a16.8,16.8,0,0,0,23.9,0l52-52a7.5,7.5,0,0,0-10.6-10.6ZM399.5,311.8h-152a7.5,7.5,0,1,0,0,15h152a7.5,7.5,0,0,0,0-15Zm0,30h-152a7.5,7.5,0,1,0,0,15h152a7.5,7.5,0,0,0,0-15Z" transform="translate(0 -50.2)"/></svg>