<svg id="Layer_1" data-name="Layer 1" xmlns="http://www.w3.org/2000/svg" viewBox="0 0 434.9 413.5"><defs><style>.cls-1{fill:#ebf1ef;}.cls-2{fill:#263238;}.cls-3{fill:#455a64;}.cls-4{fill:#ff9a00;}.cls-5{fill:#46a0ae;}.cls-6{opacity:0.5;}.cls-7,.cls-9{fill:#fff;}.cls-8{opacity:0.4;}.cls-15,.cls-9{stroke:#263238;stroke-miterlimit:10;}.cls-10{fill:#192023;}.cls-11{fill:#067fc8;}.cls-12{fill:#fafafa;}.cls-13{fill:#ddd;}.cls-14{opacity:0.3;}.cls-15{fill:none;}</style></defs><title>مسافر.svgآلمان</title><g id="Layer_7" data-name="Layer 7"><path class="cls-1" d="M370.6,59.2C345.7,2.5,286-18.9,238.9,19.2,220.5,34,209,57.7,186.5,67.2s-48,6.2-70.8,11.1C67,88.5,1.5,127.3,6.5,186.8,8.7,213,26.3,242,35,266.4c10,28.1,16,63.3,42.5,80.1,45.4,28.9,100.1,5.3,141-18,22-12.5,34.1-20.2,57.8-15.9,22,4,41.7,18,63.1,1.4,16.1-12.5,17.5-37.7,31-52.6,15.2-16.7,30.6-17.9,38.5-43,9.6-30.5-4.5-49.6-14.1-76.8S382.3,85.9,370.6,59.2Z" transform="translate(0 0)"/></g><g id="Floor"><path class="cls-2" d="M421.8,412.5c0,.1-94.4.2-210.9.2S0,412.6,0,412.5s94.4-.3,210.9-.3S421.8,412.3,421.8,412.5Z" transform="translate(0 0)"/></g><g id="Map"><path class="cls-3" d="M415.2,256.8a6.5,6.5,0,0,1-2.2,3.6c-.7.7-3.2,2-3.5.1a12.8,12.8,0,0,1,.7-3.4c.6-1.4,1.3-.5,2.2-.3S414.4,256.1,415.2,256.8Z" transform="translate(0 0)"/><path class="cls-3" d="M408.5,106.4c.3,1.2.6,2.4.8,3.6s-2.8.9-4.2,1.7-.8,1.6-1.5,1.8-.8-.5-1.3-.5-1.9,2.5-3.4,1.9,0,3-1,3.2-1.2-1.1-1.7-1.8-1.3-1.4-1.3-2.1,1.2-1.9,1.6-2.4a6.7,6.7,0,0,1,2.1-2c1.1-.3,2.3.1,3.2-.3s.8-1.8,1.2-2.2.7-.2,1-.4a3.9,3.9,0,0,0,1.2-4.1c-.3-1.2-1.9-2.5-.9-3.9a5.1,5.1,0,0,1,3.8,3.9c.1.7-.2,1.4-.1,2.1A8.8,8.8,0,0,0,408.5,106.4Z" transform="translate(0 0)"/><path class="cls-3" d="M408.8,95.1c-.2.5-.6.4-.9.7s-.8,1.3-1.2,1.4-1.5-.9-2.2-.7-.3,1-.6,1.9-1.9-1.1-1.9-2.1.6-.9.8-1.6-.4-1.8-.8-2.9.1-.2.1-.3,2.5,1.7,4.4,2S408.7,93.7,408.8,95.1Z" transform="translate(0 0)"/><path class="cls-3" d="M405.6,200.1c.1.9-1.1.8-1.3.2S405.5,199.4,405.6,200.1Z" transform="translate(0 0)"/><path class="cls-3" d="M399.6,86.4c.9.5,2.9,1.8,1.5,2.9A2.7,2.7,0,0,1,399.6,86.4Z" transform="translate(0 0)"/><path class="cls-3" d="M395.6,195.6c1-.7,2.1-2.1,3.8-1.4-.3,1.3-1.6,1.3-2.5,1.9s-1.5,1.6-2.5,1.7l-.4-.4C394,196.3,395,196,395.6,195.6Z" transform="translate(0 0)"/><path class="cls-3" d="M393.3,176.1c1,0,2-.4,2.7.1-.1,2.6-3.5.6-5.7,1.1-.5,0-.6.5-1.1.3a2,2,0,0,1,1.6-1.9C391.4,175.6,392.4,176.1,393.3,176.1Z" transform="translate(0 0)"/><path class="cls-3" d="M394.2,179.3c.1,1.5-1.6,1.6-2,2.7s1,3.2,1.8,4.4a1.3,1.3,0,0,1-.3,2.1c-.4.3-2.6-3.3-3.3-4.6-1.3.3-.1,5.4-1.9,4.7s0-1.7-.2-2.9-.9-1.2-1-1.9.6-1.3.8-2,.1-2.7,1-2.8,1.1,1.2,1.4,1.3S392.7,179,394.2,179.3Z" transform="translate(0 0)"/><path class="cls-3" d="M391,194.7c-.3.8-2.1.4-2.2-.3S390.8,193.9,391,194.7Z" transform="translate(0 0)"/><path class="cls-3" d="M389.4,197.2l-.4.4c-.6-.2-1.3-.4-1.5-1.2S389.3,196.2,389.4,197.2Z" transform="translate(0 0)"/><path class="cls-3" d="M387,194.6c-.4.8-1.9,0-2.5.8s-1.8-.1-1.9-1,1-.2,1.7-.3S386.8,193.1,387,194.6Z" transform="translate(0 0)"/><path class="cls-3" d="M374.9,234.3a13.1,13.1,0,0,0-.6-2.7,2.9,2.9,0,0,1,0-1.3l-.3-1.5c.1-.7.8-.8,1-1.4s-.4-1.1-.4-2.2.5-1.3.9-2.3l.3-1.8a5.4,5.4,0,0,1,1.6-1c1.3-.8,2.4-2.2,3.7-2.5s.8.1,1,0a19.7,19.7,0,0,1,2.9-1.2c1.1-.3,1.9-.2,2.7-.8a7.3,7.3,0,0,0,2.4-3.1c.4-1.1.3-2.1,1.1-2.4s.7,0,1.1-.2a3.8,3.8,0,0,0,1.5-.9c.6-.6.7-1.7,1.4-2.4l2-1.5a2.3,2.3,0,0,1,1.4-.4c1.2.1,1.7,2.1,3.1,1.7s.9-1.3,1.3-2,1.1-2.5,2.2-2.8,1.8.4,2.3-.5-.4-1.1,0-1.5,2.7,1.7,4.2,1.8,2.4-1.1,2.5.4-.6,1.2-.7,1.8.1.8-.1,1.3-1.5.5-1.5,1.4,1.4,1.8,2.3,2.4l1.3,1.4.9.4c.6.4,1,1.4,1.7,1.4s1.8-1.3,2.3-2.6a26.7,26.7,0,0,0,.8-4.8c.1-.6.4-1.1.5-1.6s.8-3.3,1.8-3.8c1.1,1.3,1.4,3.8,1.2,6,.7.6,1.9.4,2.1,1.9s-.2,1.1-.2,1.6.6,1.6.7,2.4-.2,2.5.4,3.5,2,1.2,2.8,2.6a11.6,11.6,0,0,0,.4,1.8,4.1,4.1,0,0,1,.1,1.1c.3.7,1.1.7,1.3,1.3s.1.9.3,1.4a8.2,8.2,0,0,0,1.2,2,21.2,21.2,0,0,1,1.1,2.1c.2,1-.4,1.8-.6,2.6s0,2.4-.3,3.4a32.3,32.3,0,0,1-2.2,4.1,14.1,14.1,0,0,1-2.4,3.6c-.5.5-1.2.8-1.7,1.3s-1.5,1.9-2.3,2.8a26.8,26.8,0,0,0-2.3,2.6c-.6.9-1.3,3.2-2.8,3.4a6.9,6.9,0,0,0-2.5.4c-1.3.6-2.1,1.8-2.8,1.8s-1.3-1-1.9-1-1.2.6-2.2.6-.6-.3-1.2-.5-2.6-.5-2.8-2.1.5-1.3.5-2.1-.7-1-1-1.6.2-1.7-.4-2.1a4,4,0,0,1,.3-1.5l-1.7.9c-.6.4-1.1,1.5-1.8,1.3s-.2-1.1-.3-1.7a8.3,8.3,0,0,0-1.4-3,10.3,10.3,0,0,0-3-1.4c-2.6-.5-4.3,1.2-6.4,1.5H390c-1.7.3-3.6,2-4.7,3.1s-3.6-.5-5.4.2-2.9,2.4-5.7,1.9c-.6-.5-1.5-.8-1.5-1.8s.9-1.3,1.2-1.9a6.3,6.3,0,0,0,1-2.9c0-.7-.4-1.5-.4-2.4A14.2,14.2,0,0,0,374.9,234.3Z" transform="translate(0 0)"/><path class="cls-3" d="M373.4,191.1c.5-.1.8-.5,1.3-.5s2,.9,3.2.7.1.6.1,1.2,2.6.5,3.2,1.7-1.9.3-2.9.1l-2.7-.2c-1.2-.2-2.3-1-3.5-1.1h-2c-.6-.1-3.7-1.5-3.7-2.4s1.3-1.2,2.5-1S371.4,191.4,373.4,191.1Z" transform="translate(0 0)"/><path class="cls-3" d="M375.7,184c-.6-.2-1.2-.1-1.5-.3s-.5-1.7-.7-2.4-.9-1.1-1.3-2.1-.8-4.6.7-4.8,1.2.4,1.6.3.7-1.6,1.4-2.1,1.1-.2,1.7-.4a4.7,4.7,0,0,0,1.3-1.5c.4-.5.7-1.4,1.2-1.7a6.7,6.7,0,0,0,1.4-.9c.4-.4,1.2-2.4,2.1-3.7s2,1,2.1,1.9,1.2.8,1.6,1.5-1.9,2-1.6,4.6a3.4,3.4,0,0,0,.5,1.7c.2.7.9,1.3.9,1.7s-1.3.7-1.6,1.6,0,.8-.1,1.9-1.3,1.1-1.6,2.1,0,2.8-.8,3.7-1.2.6-1.9.5-1.5-1.3-2.7-1.3l-1.4.3C376.6,184.6,376.3,184.2,375.7,184Z" transform="translate(0 0)"/><path class="cls-3" d="M370.2,181.7c2.2,0,2.2,4.1,0,4.1S368,181.7,370.2,181.7Z" transform="translate(0 0)"/><path class="cls-3" d="M367,181.2a4.5,4.5,0,0,1,1.2,2.1c-.1.7-1,.6-1.2,1.6s.1,3.2-.6,3.9-1,.2-1.7.2a30,30,0,0,1-4.1-4.6,8.5,8.5,0,0,1-1.4-1.9c-.4-1-.6-2-1.1-3s-1.3-1.4-1.7-2.2-.4-1.7-.8-2.4-1-1-1.4-1.5-.4-.8-.7-1.2-3.1-2.4-3.2-4.7c.4-.6.9.3,1.7.4h1.5c.4.1,1.4,1.8,2.2,2.6s1.1.8,1.5,1.3a10,10,0,0,0,1.3,1.5l2.1,1.3c1,.7,2.8,1.5,3,3.1a5.7,5.7,0,0,1-.1,1.3c.1.6.7.8,1.1,1.3s.5,1.4,1.1,1.5S366.3,181.1,367,181.2Z" transform="translate(0 0)"/><path class="cls-3" d="M326.3,159.5c.8.2,3.2,3.9,2.5,5.9a2.1,2.1,0,0,1-1.9,1.1c-1.7-.3-1.4-4.9-.8-6.7C326.1,159.6,326.2,159.5,326.3,159.5Z" transform="translate(0 0)"/><path class="cls-3" d="M269.1,211.8a3.9,3.9,0,0,1,1.1-2.7c.8-.7,1.8-.6,2.6-1.1a6.4,6.4,0,0,0,2.1-1.9c.4-.6.4-1.4.8-1.8a9,9,0,0,0,1-.9c.3-.4.2-1,.6-1.4s1.6,2,1.7,3.8.3,1.2.3,1.5-.9,1-1.1,1.5a21,21,0,0,1-1.5,6.1c-.6,1.6-.9,3.4-1.4,4.8s-.5.9-.6,1.3-.9,4.5-2,5.3a7.3,7.3,0,0,1-2.4.7,2.6,2.6,0,0,1-2.3-2c-.1-.6,0-1.2-.1-1.9a10.9,10.9,0,0,1-.4-2.5c.2-2.1,1.9-3.1,2-4.9S268.9,213.1,269.1,211.8Z" transform="translate(0 0)"/><path class="cls-3" d="M227.5,64.6c.1,1.7-2.2,1.5-2.5,3s.3,1.5.2,2.1-1,.8-2.1,1.4-1.1,1.4-1.8,1.4-.9-.4-1.2-.3-.4,1-1.3,1.2-1.8-.7-1.8.3,1,1,1.7.9.9-.5,1.4-.5,1.7.9,2.4.9,2.9-1.6,4.4-1.4,1.2.7,1.7.6,1.5-1.3,2.1-1.7.1-4,1.4-4.1,2.3,1.9,2.5,0a1.5,1.5,0,0,0-1.3-1.6c-.5.1-1.1,1.2-1.5.3s.9-.7,1.3-1l1.1-.8c2-.9,4.9.8,5.7-1.2-1.9-1.9-5,.6-7,.5a2.7,2.7,0,0,1-2.3-1.9,5.7,5.7,0,0,1-.1-1.3c-.1-.7-.4-1.4-.4-1.8s4-2.2,4-4.5a2.6,2.6,0,0,0-3.6.2c-.3.3-.3,1-.6,1.6s-3.3,1.6-4.1,3.3a3.9,3.9,0,0,0-.3,2.1C225.7,63.3,227.5,63.5,227.5,64.6ZM207,165.8c-2.4-.5-5,.7-6.7,1.6s-1.9,1.3-2.8,1.4-1.6-.6-2.4-.7a9.8,9.8,0,0,0-3.4.3c-1,.2-1.9,1-2.7,1.1s-3.3-1.8-4.3-2.8l-1.9-1.7-2-1.5c-.7-.8-.7-2.2-1.1-3.2a14.4,14.4,0,0,0-2.6-3.3c-1-1.1-2.4-2.2-2.6-3.3a12.3,12.3,0,0,1,.2-1.9c-.1-.9-.6-1.4-.6-2.1s.9-1.6,1.1-2.4a6.8,6.8,0,0,1,.2-1.4c.2-1.1.8-1.7.6-3.2a18.2,18.2,0,0,0-.5-2c-.1-.8.3-.8.3-1.3s-1-1.1-1.1-2.1.8-1.9,1.3-3.1l.6-1.8c.5-.8,1.3-1.3,1.7-2.1s.3-1.6.6-2.1.9-.9,1.5-1.8.7-1.4,1.1-1.7l1.5-.7a7.6,7.6,0,0,0,3.6-3.9,5.4,5.4,0,0,1,.6-3.5,8.3,8.3,0,0,1,1.9-2.7c1-.7,2-.8,2.8-2.1a6.2,6.2,0,0,0,.9-2.6c0-1.1-.8-2.4-1.6-2.5s-2,.7-2.4-.3a3.8,3.8,0,0,1,0-1.5c-.1-.7-.6-1.1-.6-1.6s.8-2,1-3.1a17,17,0,0,0-.1-4.5c1.2-2.3,3.9-1.1,6.6-.9H197c1.6,0,2.8.6,3.3-1.1a19.8,19.8,0,0,0,.3-3.5,8.8,8.8,0,0,0-1.8-2.9c-.9-.6-2.1-.3-2.6-1.5s2.3-.4,3.4-.8.6-1.5,1.1-1.7.8.4,1.3.4a10.1,10.1,0,0,0,2.3-1.2c.5-.5.7-1.4,1.2-1.8l1.1-.4a6.7,6.7,0,0,0,2.2-1.9c.7-1,1-2.3,1.9-2.4s3.7.2,3.9-1.3-1-2.6-.6-4.1,1.3-1,2.6-1.8.5,2.1.5,3,2.5-.3,2.6-1.1-1.2-2.2-1.5-2.8-.3-1.9-1-2.1S214.6,68,213,68a2.9,2.9,0,0,1-2.5-2c-.2-.5,0-1.1-.1-1.6a7,7,0,0,1-.3-2.9c.6-1.4,2.1-1.6,3.2-2.3l1.2-1c.8-.4,2,0,2.7-.6s.4-.9.7-1.5.7-.7,1-1.2.3-.8.5-1.1,2.1-1.5,2.6-2.7-.4-.7-.2-1.4,1.3-.2,2-.3,1.6-1.5,2.5-1.7a15.7,15.7,0,0,0,3-.5c.9-.4,1-.9,1.5-.9h1l1.1-.4,2.2.3c1.4,0,2.7-.5,3.8.1s.5,1.1,1.3,1.4.9-.1,1.5,0a18.6,18.6,0,0,0,2.8.9h1.2a25,25,0,0,1,3.8,1.5c1,.4,3.1.9,3.2,2.1S250.8,54,250,54s-3.1-.9-4.5-.4a3.8,3.8,0,0,0,3.8,3.8h.2c.2-1.1-1.1-.5-.9-1.5s1.8.5,3.1.3.3-1,.5-1.6a3.3,3.3,0,0,1,3.8-1,.8.8,0,0,1,.4-.4c.1-1.1-1-1.7-.4-2.8a1.2,1.2,0,0,1,2.1.1c.2.6-.4.6-.3,1.2a1.3,1.3,0,0,0,1.3,1c.9-.1,1.1-1,1.9-1.5s.8-.2,1.2-.4a5.7,5.7,0,0,1,1.3-.8h1.1c.5-.2,1-.6,1.4-.6s.9.7,1.6.8l1.3-.3a2.4,2.4,0,0,1,1.2,0c.8-.2,1.4-.7,2.1-.6s1.3.8,1.6.4-.8-1.2-.4-1.8,2.8.1,4.1.3,3.8,1.5,5.6,1.6c-.2-1.5-1.5-1.1-2.2-1.7a8.5,8.5,0,0,1-.9-2.2,13.4,13.4,0,0,1,1.2-2.4,3.1,3.1,0,0,1,4,.3c.4.8.3,2,1,1.9s.9-1.8,1.6-1.8.9,1.1,1.5,1.1,1.2-1.6,2.1-1.6.7.3,1.5.4-.2-1,.1-1.6,3.2-.2,4.4-.7-.5-.8-.1-1.4,2.8-.9,4.6-1.3,2.2-1.1,3.1-1.2,1.7.6,2.5.6a4.2,4.2,0,0,0,1.6-.4c.5-.3.8-.8,1.3-1H313l2.4-.4c.6.1,1.1.9,1.7,1.1s3.7-.4,5.3.2l1,.6c1.1.5,1.9.3,2.1,1.9s1.3,1.4,2.4,1.7,1.3-.1,2.1-.1a17.2,17.2,0,0,1,3.2.2c.5.1.9.5,1.4.6a2.4,2.4,0,0,0,1.2,0,4,4,0,0,0,1.5.3c.9,0,1.5-1,2.3-1.1s.9.2,1.3.2a21.5,21.5,0,0,1,4.3.1,8.1,8.1,0,0,1,2.4,1.7c.5.4.8,1.2,1.3,1.5a5,5,0,0,0,2,.8c.6-.1.6-.8,1.2-1.1s4.7.7,6.1-.1.4-1,.8-1.3a64.3,64.3,0,0,1,7.6.2,10.5,10.5,0,0,1,2.5-.1c.9.1,1.5,1.2,2.3,1.5a19,19,0,0,0,2.5.3c.9.2,1,.6,1.4.6a8.2,8.2,0,0,0,2.7-.2c2-.2,4.5-.3,6.4.7s1.5,1.5,2.6,1.6,4.1-.1,5.7,0l1,.2c.6,0,.9-.6,1.6-.6s2.2,1.6,3.4,1.3-.4-1,.1-1.4,1.2,0,1.9,0l1.3-.2c1,.1,1.9,1.1,3,1.4a7.8,7.8,0,0,0,3.4.2,9.1,9.1,0,0,1,2.3-.3l1.1.6h1.1l.8.5c1.6.5,3.8.8,5.5,1.4a13.9,13.9,0,0,0,2.8,1.2c.4,0,.8-.3,1.3-.2,2.6,0,5.6,1.3,5.4,4.2-3,.8-5.6-2.5-8.8-1.6a1.8,1.8,0,0,0-1,1.5c.1,1.8,3.9,1.6,4.2,3.4s-1.3,0-1.8.1a5.6,5.6,0,0,0-2.6,1.7c-.6.6-1.1,2.3-1.7,2.5s-1.9-1-3.1-.7-.8.8-1.2.9-2.2-.7-2.8.7a2.3,2.3,0,0,0,.8,2.8c.6.6,1,.1,1.5.3s.9,1.1,1.4,1.6.9.5,1.2,1-.3.8-.2,1.3,1.2,1.1,1.3,1.7-.7.6-.9,1.3.5.6.5,1.3-.3.8-.2,1.3a5.3,5.3,0,0,1,.4,1.8,1.2,1.2,0,0,1-.8,1.1c-1.6-1.3-3.1-3-4.9-4.7s-4.7-3.7-5-7.2c0-.5,1-1,1.1-1.8s-.1-.7,0-1.2.9-2.4.8-3.1A3.5,3.5,0,0,0,405,60c-.5.3,0,1-.1,1.5s-.7,1.4-1.3,1.4-1.8-2.5-4.3-1.7a2.7,2.7,0,0,0-1.4,2.9c.1.4,1.1.9,1,1.5s-2.3.8-2.8.7-2.1-1.4-3.4-1.3-1.1.6-1.6.7c-2.7.6-6.8-1.6-7.7,1.2a6.8,6.8,0,0,1-.2,1.4,3.5,3.5,0,0,1-.6,1.4c-.2.4-.1,1-.3,1.5s-1.8,2.2-.4,2.7.6-.2,1-.1,2,1.5,2.8,1.5,1.3-.7,1.7-.7a10.5,10.5,0,0,1,2,.9,4.2,4.2,0,0,0,1.8,1.1c.9-.1.5-.8,1.3-1.1s2.1,2.5,3.6,4a22.5,22.5,0,0,0,2,1.7,6.5,6.5,0,0,1,1.6,2.1c.1.5-.3.7-.4,1.1s.1,1.1-.2,1.6-1.7-2.3-2.7-3.6-.7-1.2-1.3-1.9-1.1-1.5-1.7-1.2.6,2.4.9,2.9a7.1,7.1,0,0,1,1.3,3.1c.1.6-.3,1.7-.3,2.8s.1,1.3.1,1.9a8.9,8.9,0,0,1-.6,2c-.2.7-.3,1.7-.4,2.2s-1.5,2-2.3,2-1-.6-1.7-.6-1.3,1.2-1.9,2.2a14.9,14.9,0,0,1,.2,2.1c-.3,1-1.5,1.2-1.5,2.3s1.2,1.2,1.7,1.7a17,17,0,0,1,2.9,3.1,7.9,7.9,0,0,1,1.1,2.9c-.1,1-2.5,2.4-3.5,2.1s-.7-1.5-.9-2.5-.7-1.1-1-1.8,0-.8-.2-1.2-1.4-.5-2.5-1.2-.5-1.3-.8-2.1a2.7,2.7,0,0,0-3.2-1.4c-.9.2-1.2,1.2-2,1.4s.2-3.2-1.3-3.3-2,2-2.7,2.6-1.3.6-1.4,1.2,1,.9,1.9,1.3.9,1.5,1.7,1.6,1-.8,1.6-.9a4,4,0,0,1,2.6,1c-.5,1.2-2.8,2.2-2.8,3.8s.9,1.1,1.7,1.8,1.3,2,2.2,3.1a5.2,5.2,0,0,1,1.1,1c.4.7.3,1.5.8,2s-.2.7-.2,1.2,1.2.6,1.4,1.4.4,3.4-.8,4.1c-.5,3.2-1.2,5.7-3,7.4s-3.8,2.1-5.8,2.8c-.5.2-.9.9-1.3,1.1s-3.2.2-3.3,1.8.9,1.4.9,2.2-.8,2.6-1.5,2.7a1.7,1.7,0,0,1-1.7-1.4c0-1.3,1.3-1.8,1.4-2.5a2.2,2.2,0,0,0-1.9-2.5h-.3c-1.2.1-3.7,2.8-3.8,4.3s1.8,3.5,2.5,4.2c2.4,2.5,5,4.1,4.6,10.3-.6,1.6-2.2,1.9-3.4,2.8s-1.4,2.7-2.9,2.9-.3-1.4-.5-2-1.4-1.1-2.2-1.8-.9-1.6-1.4-2.2a6.1,6.1,0,0,0-2.2-1.3c-.5-.3-.8-1.4-1.3-1.4s-.5.9-.7,2.4-1.1,2.5-.8,4.2.9,1.3,1.2,2a14.4,14.4,0,0,0,1.3,3.2c.6.7,1.1.6,1.6.9a11.7,11.7,0,0,1,2.8,3.5c.4,1,0,2.3.3,3.5s1.7,2.3.8,3.6a6.1,6.1,0,0,1-2.2-1.3,8.4,8.4,0,0,1-2.5-3.1c-.2-.5-.6-.9-.7-1.3s-.2-2-.5-3.1a9.2,9.2,0,0,0-1.9-3.3c-.6-.7-1.7-1.1-1.7-2.1s.4-3,.3-4.6-.2-.7-.2-1.2a23.6,23.6,0,0,0-.1-2.5c-.1-.8-.6-1.2-.8-1.8s-.5-1.2-.7-2-.7-3.5-1.5-3.6-1.8,1.9-2.9,2a1.6,1.6,0,0,1-1.4-1.3,12.3,12.3,0,0,1,.2-1.9c0-1.4-.8-2-1.4-2.9l-.6-1.3c-.4-.5-1.1-.9-1.6-1.4a7.6,7.6,0,0,1-1.2-1.9c-.3-.8-.4-1.9-1-2s-1,.8-1.5,1l-2.3.5c-1.8.1-3.2-.4-3,2.1s-1.2,1.1-1.9,1.6a35.5,35.5,0,0,0-2.3,3.1l-1.4,1.4c-.4.5-.5,1-.8,1.4s-2.3,1.1-2.9,2.6.6,3,.5,4.7-.6,1.4-.6,2.1a14.8,14.8,0,0,1,.1,2.1c-.1.7-.5.6-.7,1a5,5,0,0,0-.5,1.3l-1.1,1.1c-.3.4-.5,1.1-.9,1.1s-2.4-3.9-3.2-5.7-1.2-1.6-1.6-2.6a26.4,26.4,0,0,0-1.2-4,35.4,35.4,0,0,1-1.6-3.4l-.9-3.3c-.3-1.1-.5-2.3-.7-3.5s.3-2.2-.6-2.7-1.2,1.2-2.2,1.2-3.4-1.9-2.7-3.6-2.1-1.6-3.2-2.8-1.3-2.3-2.5-2.5l-1,.3h-2.8a21.7,21.7,0,0,1-3.6.2l-2.8-.5c-1.1-.1-2.6-.4-3.2-1.1s-.5-1.8-1.2-2-1.2.6-2,.8a4.1,4.1,0,0,1-3.9-1.3l-2-1.3c-1.3-1.1-1.6-4.2-3.5-4.3a1.9,1.9,0,0,0-1.9,1.5,5,5,0,0,0,.9,2.4c1,1.6,2.7,2.2,3.3,4.4.3.2,1.1-.4,1.4.1s0,2.7.8,3.1c3.6.7,4.6-1.6,6.2-3.3.9.7.6,1.4,1,2.2a2.6,2.6,0,0,0,1.4,1.7c.5.2,1,.1,1.7.4a6.2,6.2,0,0,1,2.1,2.7c.1.7-1.1,2.7-1.4,3.3s-.9.7-1.1,1.2a10.5,10.5,0,0,0-.2,1.3l-1.3,1.5-1.5,1.3c-.5.5-.9,1.2-1.5,1.5s-2.2.3-3.1,1-.7,1.6-1.4,2.2-2.2.6-3.3,1.2-1.2,1.2-1.8,1.5h-.9l-1.6.8-1.3.2c-1.3.5-2.5,2.1-3.9,1.2s-.7-4-1.4-5.5-1.1-1.1-1.4-1.9.6-.5.7-1-1.1-1.7-1.7-2.6l-.6-1.7c-1.1-1.8-3.1-2.7-3.5-4.9-.1-.6,0-1.1-.1-1.6a6.2,6.2,0,0,0-1-2.2c-.3-.4-1-.7-1.4-1.4a7.1,7.1,0,0,1-.5-1.6,18.7,18.7,0,0,0-3.4-4.9,2.6,2.6,0,0,0-1.9.7,19.4,19.4,0,0,0,1.5,3.6c.6,1.1,1.1,2.2,1.6,3.3l.3,1.5c.5,1.6,2.2,2.1,2.6,4s-.1,2.2.2,3.4,1.8,2,2.5,3.1a29.9,29.9,0,0,1,.8,3.2c.5,1.4,2,1.9,3,2.8a21.7,21.7,0,0,1,2.4,2.9c.5.5,1.1.6,1.2,1.2s-.2.9-.3,1.5a3.5,3.5,0,0,0,2.4,2.5c1.1.1,1-.5,1.7-.6h1.1c.4-.1.8-.6,1.4-.7l3-.4c1-.1,1.7-1.2,2.5-.9s.3,2.5,0,3.6a4.9,4.9,0,0,1-.1,1.2c-.5,1.8-1.7,3.2-2.3,4.8l-.3,1.7a20.9,20.9,0,0,1-3,4.7c-.6.7-1.1,1.4-1.7,2l-2.1,1.6a18.2,18.2,0,0,0-3.8,4.5c-.4.6-.6,1.4-1,1.9s-1.4,1.1-1.8,1.9a11.9,11.9,0,0,0-1.1,2.6c-.5,1.2-1.4,2-1.3,3.7s.6,1,.7,1.6a6.9,6.9,0,0,1-.1,3.2,14.4,14.4,0,0,0,1.8,4c.1,2.1-.2,4.1,0,5.9s.4,1.9,0,3a7.9,7.9,0,0,1-2.3,3.1c-.8.6-2,.8-2.9,1.5s-1.1,1.5-1.7,2.1-2.4,2-2.5,3,.4,1.5.5,2.1a11.8,11.8,0,0,1,.1,5.3c-.7,1.8-3.8,1.5-4.2,3.3s.2,1.1.2,1.7a17.1,17.1,0,0,1-.9,3c-.3.9-1.2,1.2-1.8,2s-1,2.2-1.8,3.2a22.2,22.2,0,0,1-3.7,3.8,10.3,10.3,0,0,1-5,2.2c-1,.1-2.1-.3-3.2-.1s-.9.5-1.4.6h-1c-.4.1-1,.6-1.5.6s-2.6-1.6-2.6-3.2.4-1.2.4-1.8a12.3,12.3,0,0,0-1.2-2.6c-.5-1.2-.7-2.5-1.2-3.5s-1.2-1.4-1.6-2.2a14.1,14.1,0,0,1-1.1-5.4,16,16,0,0,1-.5-2.1c-.1-.9,0-2-.1-2.8a11.8,11.8,0,0,0-1.1-1.9c-.6-1.4-1-3.1-1.5-4.2s-1.5-2-1.6-3.1a12.8,12.8,0,0,1,.2-2.9,15.9,15.9,0,0,1,.7-2c.1-.6,0-1.1.1-1.7.4-2.4,2.6-3.2,2.3-6.1-.1-1.2-.8-1.8-.9-3.2a12.3,12.3,0,0,1,.2-1.9,10.4,10.4,0,0,0-.9-3c-.9-2.3-1.4-4.4-2.7-6.1s-1.6-1.6-2.2-2.5a8.2,8.2,0,0,1-1-2.6c0-.5.4-.9.5-1.5s.2-2.2.5-3.4a8.7,8.7,0,0,0,.5-2.8,4.3,4.3,0,0,0-2.1-2.8c-1.2-.4-2.4.4-4,.3S208.9,166.1,207,165.8Zm47.7,37c.4-.8.9-2.9,0-3.4h-.2c-.4.9-.8,2.9.2,3.4Zm-1.2-21.6a4.9,4.9,0,0,0,.8-2.4c-.2-2-3.3-1-3.7.4s.2,1.7-.2,2.7,1.2.9,2.3.8S253.2,181.8,253.5,181.2Zm-5.3,10.6c.4-.7-.5-1.2-.7-2s.2-2.1-.5-2.6h-.3c-.6,1.7.3,4.5,1.5,4.6ZM306.9,89.1c-.3-.8-1.2.2-.8.9S306.9,89.7,306.9,89.1Zm-20,4.2c1.4-.3,0-3-1.1-2.7S285.9,93.6,286.9,93.3Zm-6.4,13.4c.4-3.6-1.9-3.9-2.3-6.4.2,0,.1-.3.2-.3s1.5.5,1.8-.4a1.9,1.9,0,0,0-1.9-1.7l-.7.2c-.4-.3-.4-1-.5-1.7s-3.4-2.2-3.4-3.6,1.3-1.8,2.7-1.7.2-2.2-.4-2.6a4.5,4.5,0,0,0-4.8,1l-1.8,1.4a3,3,0,0,0-.8,1.6c.1.6.8,1,1.1,1.9l.3,1.3a7.2,7.2,0,0,0,2.1,2.5c.5.6,1.9,1.9,1.9,2.6s-.4.7-.6,1.3a11.4,11.4,0,0,0-.2,2.6c.2,1.2,1.2,1.2,2.1,1.7s1.7,1.3,2.6,1.3A3.2,3.2,0,0,0,280.5,106.7Zm-20.2-7.5c2.3-.5,1.2-2.8.1-3.7l-3.1-2c-.6-.4-2.9-1.2-2.9-2.1s1.7-1.3,1-3-3.9.2-3.7,1.7,1,.4,1.2,1.4-1.9,1.3-2.8,1.1-1.3-1.7-1.9-2.7-1.3-.9-2.3-.8-1.6,1.9-2.1,2.8-.7.7-.8,1.1,0,.7-.1,1.1-1.2,1.5-1.1,2.5.9,1.3,1,2.1-1.1.4-1,1.4,1.6-.8,2.4-1.1,1.8.2,2.6,0,1.2-.9,1.9-1.2a4.7,4.7,0,0,1,1.7-.4c2.7-.2,4.5,2,6.9,2A10.1,10.1,0,0,0,260.3,99.2Zm-5.5,12.2c0-1.1-.4-1.9-.5-3.5s-2.8,1.1-4.4.9-1.7-1.6-2.7-1.4-.9,1-1.5,1.1-1.8-1.1-3.1-.6c-1.8-1.7-2.7-4.4-3.1-7.5s-2.5-.3-3.3.7-1-.3-1.1.3,2.3,2.1,2.3,3.4-1.1.8-1.5,1.4-.2,1.1-.8,1.5-2.2-.9-2.2-2.7-1.7-2.3-2.3-3.4a2.9,2.9,0,0,1-.7-1.6c-.1-.5.2-1.1.1-1.7s-1.8-1.7-2.7-2.3a14.9,14.9,0,0,1-3-1.8c-.5-.6-.8-1.5-1.2-1.8s-.9-.2-1.2-.5-.4-1.1-1.1-1.3-.8.4-1,.8c-.4,2.2,1.1,2.4,1.8,3.4s.7,1.7,1.2,2.2l1.9.7c.5.2.8.9,1.2,1.2s2.1.7,2.2,1.9-1.6-.6-2,.4.4,1,.4,1.7-1,2.1-1.8,1.9.5-1.1.4-1.7a11.7,11.7,0,0,0-3.3-4c-1.1-.6-1.2-.3-1.7-.6a12.4,12.4,0,0,1-2.8-2.8c-.6-1-1.1-2.8-2.5-2.7s-1,.7-1.5,1l-1.3.8c-.5.4-.9.8-1.3.8s-2-1-3-.7-.5.4-.9.8.1,1,.1,1.7-1.1.5-1.7.9a15.4,15.4,0,0,0-2.5,2.6,4.2,4.2,0,0,0-.9,1.4c-.1.4.2,1,.2,1.5a5.6,5.6,0,0,1-1.4,2c-.3.2-.7.2-1,.5s-1,1.1-1.6,1.2-4.2-.4-4.2,1.6,1.4,1.2,2.3,1.2a14.8,14.8,0,0,0,2.9.1c.6-.2,1-.8,1.5-1l.9-.3c.5-.3.8-.9,1.2-1.1a10.9,10.9,0,0,1,3.1-.8h3.8c.6,0,1.1-.5,1.7-.5l2.9.4c.5,0,1.1-.6,1.7-.6a1.9,1.9,0,0,1,1.6,1.1c.1.3-.2.8-.1,1.3s.6,1,.6,1.5-1.4,1.5-1.2,2.3,1.1,1,1.5,1.3a6.9,6.9,0,0,0,1.9,1h1.4a5.1,5.1,0,0,1,2.4,1c.8.7.7,1.8,1.7,2.2l1.6.2c1.3.3,2.2,1.5,3.1,1.4s.8-1.8.9-3,4.7-2.5,5.6-.7c.6.2,1.1,0,1.9.3s.7.7,1.1.8h1.1c1.6.3,3.1,1.7,4.6,1.5s1.5-1.2,2.4-1.3,2.7,1.5,4.4.8,1.1-2.2,1.5-3.9a23.1,23.1,0,0,0,1-2.8Zm92.8-35.2a4.6,4.6,0,0,0-.9-3.6c-1,.2-.2,1.5-.3,2.2s-1,1.8-1,2.8-.9.7-.9,1.5.8-.4,1.2-.9S347.4,77,347.6,76.2ZM325,40.3a2.7,2.7,0,0,0-1.9.8c-.3.2-1,.3-.7.9S324.8,41.4,325,40.3ZM288.7,53c2,.5,3-2.2,1.6-3.7s-1.3-.5-1.8-1.4-.4-2.3-1.7-2.1,0,.3-.1.4c-.1,2.2,2.6,2.8,2.6,4.6S288.4,51.9,288.7,53Z" transform="translate(0 0)"/><path class="cls-3" d="M260.4,49.1c-.3-1.2,1.5-1,1.2.1S260.5,49.4,260.4,49.1Z" transform="translate(0 0)"/><path class="cls-3" d="M249.8,110.9c0-.8,1.6-1.1,1.9-.4S250.1,111.9,249.8,110.9Z" transform="translate(0 0)"/><path class="cls-3" d="M220.2,105.3c.9-.8,2.9-.2,4.2-.3-.3.8-.3,1.8-.8,2.3S220.9,106.6,220.2,105.3Z" transform="translate(0 0)"/><path class="cls-3" d="M213.9,99.9c1.2-1.5,2.5-.7,2,2.1-.3.9-1.5,2-2,.8A14.1,14.1,0,0,0,213.9,99.9Z" transform="translate(0 0)"/><path class="cls-3" d="M215.7,96.5a1.5,1.5,0,0,1-.6,1.6C213.9,97.9,214.8,95.4,215.7,96.5Z" transform="translate(0 0)"/><path class="cls-3" d="M199,75.5a1.7,1.7,0,0,0-.8-1.6c-.3-.2-.7-.1-1.1-.3s-1.1-1.7-1.6-2a12.2,12.2,0,0,1,0-2.7,5.8,5.8,0,0,1,1.9-1.9c.8-.4,1.5-.1,2-.8h.4c0,.7-.4.8-.5,1.4s1.5.3,1.6,1.2-.8,1.2-.8,1.9,1,1.8,1.5,2.6,1.1,1,1.4,1.6.4,1.2.6,1.5,1.5.6,1.6,1.3-1.1,1.4-.9,2.5-3.2.5-5.1.8-1.8,1.2-2.7.3.7-.8.8-1.4-.7-.5-.8-1,1-1,.9-2.2S198.8,76.4,199,75.5Z" transform="translate(0 0)"/><path class="cls-3" d="M192.5,73.1c1.1-.9,3.2-.2,3.3.8s-.6.9-.9,1.7,0,1.8-.3,2.3-.9.5-1.4.6-3.2,2-4.1.2.9-1.1,1.2-1.8-.6-.9-.5-1.6.6-.5,1.3-.8S191.8,73.5,192.5,73.1Z" transform="translate(0 0)"/><path class="cls-3" d="M133.7,50.6c.2.9-2.3,2.1-2.5.9S133.1,49.4,133.7,50.6Z" transform="translate(0 0)"/><path class="cls-3" d="M130.8,283.8h-1.3A2.9,2.9,0,0,1,130.8,283.8Z" transform="translate(0 0)"/><path class="cls-3" d="M127,43.3c.1-.1.3-.2.4-.1h.1c-.1.2-.2.5-.5.4Z" transform="translate(0 0)"/><path class="cls-3" d="M119.3,59.7c0,.6-1.7,1.5-1.9.4a1.1,1.1,0,0,1,.3-.8C118.2,59,119.3,59.1,119.3,59.7Z" transform="translate(0 0)"/><path class="cls-3" d="M83.5,155.8l-.2.4C82.4,156.2,83.2,154.8,83.5,155.8Z" transform="translate(0 0)"/><path class="cls-3" d="M48.5,83.5c.6-.4,1.2.6.8,1.1S48.4,83.9,48.5,83.5Z" transform="translate(0 0)"/><path class="cls-3" d="M142.4,87.3l-1.5-.2-1.4-.3c-1-.1-2.2.2-2.8-.5a42.5,42.5,0,0,1,3.7-4.7c.4-.4,1.2-.7,1-1.5s-1.6,0-2.3.5a7.2,7.2,0,0,1-2.4,1.4c-1.4.2-3.3-.5-4.5.4s1.3.4,1.1,1.6a1.4,1.4,0,0,1-1.5-.3c-.4-.4-.2-1.1-.4-1.3a4.2,4.2,0,0,0-2.9-.4,2,2,0,0,0-1.8,1.7c1.1.6,2.9-.6,3.3.9s-2,2-1.8,3.8a2,2,0,0,0,1.2,1.6c.4.1.7-.4,1.2-.4s.4.7.9.6,1.3-1.8,2.3-1.7c1.1,1.6-1.1,2.4-2.3,3s-3.1.9-4.2,1.4-2.6,2.7-2.9.8,1-.9,1.3-2c-1.4-.3-2.6.7-3.8,1.2s-4.7,1.3-5.1,3.6c-.1.5.2,1.4-.1,1.7s-1.4.3-2,.5-1.5,1.1-2,1.3-1,0-1.2.2a18.8,18.8,0,0,1-1.8,2.1l-1.3.9c-.4.5-.5,1.8-1.2,2s-1-.4-1.4-.1.4,3.1-.1,4.5a17.7,17.7,0,0,1-3.5,2.6l-2.2,1.1c-.6.4-1.2,1.3-1.9,1.8s-3.6,2.5-3.6,5.5c0,.6.3,1.3.3,2V124c.1,1,.8,2.4,0,3.2s-2.6-.8-3.4-1.8.4-1.9.3-2.8a3,3,0,0,0-1.4-2.2c-.5-.1-1,.6-1.6.6s-1.2-1.2-2-1.3-2.1.4-3.5.1-1.7,2.3-3.3,2.2-1-.6-1.7-.7a6.9,6.9,0,0,0-2.5-.4c-1.4.1-2.5,1.3-3.8,2.1s-2.7,1.6-3,3,0,1.9-.2,2.6L68,130a12,12,0,0,0-1.1,7.9,27.5,27.5,0,0,0,1.5,3.6,4.8,4.8,0,0,0,2.5,1.4l2-.5,2.2-.4c1.9-.7,1.5-3.8,3.4-4.8a8.7,8.7,0,0,1,3.2-.6,3.6,3.6,0,0,1,.6,2c-.1.5-.5,1-.7,1.7s-.3,1.4-.5,2-.8,1.2-1,1.8a6.8,6.8,0,0,1-.2,1.4c-.2.7-.9,1.1-.6,1.8,1.9.9,4.1-.2,5.7.2a2.9,2.9,0,0,1,2.1,2.3c0,1-.6,1.6-.7,2.6s-.6,2.9-.6,3.9,2.1,4.7,3.6,4.7,2.6-2,4.6-.9,1.3,1.6,2,1.5,1.5-1.3,1.9-2.1.6-2,1.4-2.5,1.7-.3,2.9-.9a7.1,7.1,0,0,0,1.4-1c.4-.3.9-1.2,1.4-.6s-.8,1.3-.3,2.2,1.8-1.5,2.7-1.5a9.5,9.5,0,0,1,1.7,1c.7.6.9,1.3,1.7,1.5s1.2-.2,1.9-.1,1.4,1,2,1,1.2-1.1,1.9-1.2a3.1,3.1,0,0,1,2.8,1.3c.7,1.1.8-1,1.4-.6s.2,1.3.5,2.1.1.8.3,1,1.2.5,1.8.9,1,1.4,1.8,2.4a4.8,4.8,0,0,0,3,2.2c.9.1,1.7-.3,2.5-.2a8.3,8.3,0,0,1,4.1,2.5,3.8,3.8,0,0,1,1.5,1.8c.2.6.1,1.3.3,1.9s1.9,1.9,1.4,4.1.8.9,1.4,1.4,1,1.1,1.5,1.2.7-.1,1-.1a7.7,7.7,0,0,1,2.5,1,4.4,4.4,0,0,1,1.6.6c.4.3.5,1.5,1,1.8s1.2,0,1.7,0,2.2.8,3.1.9.9-.3,1.3-.2c2.1.2,3.3,3.2,5.4,4.1s1.6.1,2,.3,1.5,3.2,1.5,4.5c.2,3.7-2.2,4.9-3.6,7.4-.3.5-.5,1.3-.9,2.1s-1.7,1.7-1.6,4.4c0,.8.3,1.5.3,2.3a17.2,17.2,0,0,1-.2,3.2,14.6,14.6,0,0,0-.7,1.9,8.6,8.6,0,0,0,.1,1.6,9.4,9.4,0,0,1-1,2.3c-.8,1.8-.9,3.8-2.6,4.6s-2.2.1-3.2.6l-1.5.9c-1.5.8-3.6,2-4,3.8s.5,3,.2,4.9a16.2,16.2,0,0,1-1,1.8c-.4.5-.6,1.2-1,1.8s-1.3,1.1-1.6,2.2a5.9,5.9,0,0,1-.2,1.3,3.1,3.1,0,0,1-.5,1c-.1.3-.1.8-.2,1.1s-1.6,3.1-2.5,3.4-3.6-.9-4.9-.6.8.9,1.2,1.7a8.8,8.8,0,0,0,.7,1.4c.3.4.8.7.8,1.3a4,4,0,0,1-1.3,3.1,7.3,7.3,0,0,1-2.5.8c-.6.1-2.3.1-2.6.6s.3,2.5-.1,3.2-2.3,0-3.2.4a2,2,0,0,0,.7,2c.5.4,1.3-.1,1.7.6s-1.1,1.2-1.3,2.2.3,1.2.2,1.8-2,1.3-1.9,2.7,3.4,1.3,3.4,3.3-.9,1.3-1.3,2.5.1.8,0,1.4-.8.9-.8,1.7,1.2,2.1,1.8,2.9a12.7,12.7,0,0,0,2.1,2.5c1.2.8,3,.6,3.6,2.1s-.9,1.1-1.6,1.3h-.2a2.9,2.9,0,0,0-1.3,0h-1.2c-1.1-.6-2.5-1-3.9-1.6s-1.1-.8-1.7-1.1l-1.2-.5c-.7-.4-1.5-2-2.3-2.6s-1.2-.5-1.5-.9a7.6,7.6,0,0,1-.6-1.6l-1.2-1.3a8.6,8.6,0,0,1-1.6-3.5c0-.8.7-1.4.4-2.2s-1.5-.6-1.7-1.4.4-1.5.4-2.2-.7-1-.5-1.7.9.1,1.4-.3,0-3.9-1.2-4.3.6,2.1-.4,2.5-.8-2.2-1.1-3.5a18.9,18.9,0,0,1-.5-2.3,7.6,7.6,0,0,0,.1-1.5c-.2-1.4-1.5-2.5-1.5-3.9s.3-1.3.4-2a3.8,3.8,0,0,1,0-1.5,12.9,12.9,0,0,0,.4-1.9,17.9,17.9,0,0,0-.2-4c-.2-1.2-1-2.2-1.1-3.5a12.1,12.1,0,0,0,.1-1.9c0-.6-.3-1.1-.3-1.8a10.9,10.9,0,0,1,.1-1.8c.1-1.3-.2-2.8-.1-4.1s.1-.6.1-1-.3-2.1-.3-3.2a31.2,31.2,0,0,0-.1-5.2c-.3-1.8-.4-3.5-.9-4.3a9.5,9.5,0,0,0-3.1-3.2l-2-1c-.6-.4-4.1-2.5-4.8-4.2l-.3-1.7c-.4-1-1.2-1.9-1.7-3s-2-4.4-3-6.4a15.1,15.1,0,0,0-1.7-3c-.6-.8-1.5-.9-1.6-1.6s-.8-2.3-.7-3,1.7-1.8,1.7-2.7-.8-1.2-1-1.9a7.6,7.6,0,0,1,.8-3.8,8.8,8.8,0,0,1,.5-1.5c.3-.5.9-.7,1.4-1.3l.6-1.6c.7-1,1.8-1.4,2-2.3a23.3,23.3,0,0,0,.1-5.9c-.1-.8-.7-1.4-.9-2.1s-.5-2.6-1.6-2.6-1.1.9-1.5,1.5-.1,1.5-.7,1.7-1.4-1.2-2.5-1.6l-1.5-.4c-.8-.4-1.1-1.9-2-2.4s-1.3-.3-1.8-1.1a13.4,13.4,0,0,1-.1-2c-.9-.7-1.7-3.2-2.8-3.8s-1.8-.3-2.8-.7l-1.2-.5-1.5-.4c-1.7-1-2.6-4.3-4.7-4.3s-1.8,1.1-2.6,1.1a7.7,7.7,0,0,1-3.2-1.4c-1.1-.6-2.2-.9-3.1-1.4s-1.2-1.2-1.8-1.6l-1.6-.5c-.5-.3-1.1-1-1.8-1.5a4.9,4.9,0,0,1-1.4-2.1c0-.8.7-1.5.7-2.3.2-2.5-1.3-4.2-2.2-5.7l-2.3-3a3.3,3.3,0,0,0,0-1.4c-.5-.7-.9-1.6-1.5-2.5s-1.5-1.8-1.6-2.7.3-2.2,0-3.3-2.8-1-2.5,1.4c0,.7.8,1.6,1.1,2.3a17.2,17.2,0,0,1,.4,2.4c.2.8.9,1.5,1.1,2.4s.4,2.9.7,3.8,1.4,1.5.8,2.5-1.1-.8-1.6-1.4-1.3-.9-1.5-1.6.3-1.4.2-2.2-2.8-1.5-2.8-3,1-1,1-2-1.1-1.8-1.3-2.6a11.2,11.2,0,0,1-.4-3.2c0-1-.1-2-.2-3a4.5,4.5,0,0,0-1.6-2c-.7-.5-1.3-.3-1.7-1.1a11,11,0,0,1-.6-2.6c-.1-1.3,0-2.7-.1-4a13.4,13.4,0,0,1,0-4c.4-1,1.2-1.5,1.6-2.5s.4-1.5.7-2.3a28.8,28.8,0,0,1,3-3.9,19.9,19.9,0,0,0,2.5-4.5,5.4,5.4,0,0,0,.6-2.5c-.1-1-1.6-1.9-1.5-3s.9-.8,1.2-1.5a6.3,6.3,0,0,0,.3-1.9c0-1-.5-2-.3-3.1s1.3-1.2.7-2.2-1.6.5-2.3-.1.2-1.3.2-2.4-.2-.9-.2-1.3.9-1.2.7-1.5-1-2.5-2-3.1-2.7-.3-4.4-.6-1.6-1.5-2.6-1.4-1,.9-1.8,1.4a13.7,13.7,0,0,1-2.8.5c-.8.2-1.2.9-2,.8s-.8-.8-1.6-.9-.9.2-1.4.3a17.4,17.4,0,0,1-5.1-.1,10.6,10.6,0,0,1-3.4-1.6c-1-.5-2.9-1.2-2.8-2.1s1.8-1.2,2.5-1.5,1.8-1.1,2.6-1.1.8.2,1.2.2,1-.5,1.6-.6,2.9,0,2.7-1.4-4.6.7-4.7-1.2,1.4-1.5,2.5-1.8a18.6,18.6,0,0,1,3.4-.6c.9,0,2.2,1.4,2.8-.1s-.3-2-.5-2.8,2.1-1.1,3.1-1.2A14.2,14.2,0,0,0,35.8,48,11.9,11.9,0,0,1,39,47c1.2-.2,2.3-.7,3.4-.8a10.7,10.7,0,0,0,2.5-.3,9.8,9.8,0,0,1,2.3-.6c.6.1,1,.5,1.6.6a7.8,7.8,0,0,1,1.6.2l1.2.5c.7.1,1.4-.1,2,0s1.1.5,1.6.6a35.7,35.7,0,0,1,4.2.2l1.4.5h1.6c.7.2,1.2,1,2,1.1s2.8-.7,4.2-.9a16.2,16.2,0,0,0,3.1-.2l2.7-.7c.5,0,.9.2,1.3.1s1-.7,1.5-.6.5,1.1,1.2,1.3a5.9,5.9,0,0,0,2.3,0,6.3,6.3,0,0,1,2.4-.3c.9.2,3.8,2.1,5,1.1s.3-.6.5-1.3,1.2-1.9,1-3.2-3.4,1-5.4,1.1c-1.9-1.5.6-2.4,2-3.1s2.2-1.8,3.6-2,2.6.3,4,.5H96c.8.3,1.2,1.3,1.9,1.5l1.2.2c.8.3,1.5.7,2.3,0s.7.9,1.3,1.1,1-1.3,1.9-1.6.8.1,1.2,0,1.6-1.3,2-.2-1.1.9-1.6,1.5a3.9,3.9,0,0,0-1.1,2.2c.1,1,1.3.6,1.4,1.9s-.9.4-1.5.7-.7.9-1.3,1.1-2.9-.5-4.2-.5.7,1.2,1,1.4a10.3,10.3,0,0,0,4,.6c1.7-.1,1.9.3,2.7-.3s.4-1.3.8-1.8a3.3,3.3,0,0,1,2.3-1c.4.1,1,.6,1,1s-1.1.7-1.1,1.7,2.6-.6,2.7-1.4-.6-1.1-.6-1.7,1.3-1.1,1.1-2.2-1.2.1-1.8,0-1.6-1.4-1.9-2.2,1.1-.1,1.7-.1,1.8-1.4,3.4-1.6,1.4-.4,1.7.3-1.3,1.6-1,2.7,1.5-1.5,2.5-2.3a8,8,0,0,1,1.6-.8c.6-.3,1.2-.9,1.6-.8s.6.4,1,.7,1-.2,1.1.5-4.7.9-5.6,3-.6,2.8,0,3.7,1.6.2,1.9,1-1.1.9-.7,2,2-.6,2.8-1.1,2.1-1.2,2.2-2.5-2.2-.2-2.4-1.3a3.2,3.2,0,0,1,.6-2.2,8.9,8.9,0,0,1,6.3-2.7c.5,0,.9.4,1.3.4s3.2-.8,4.4,0,2.1.1,3.4-.1.7,2.2,2.2,2.9l1.5.2c.4.1.8.7,1.3.9s1.1.3,1.3.9-.5.9-.5,1.4a4.4,4.4,0,0,0,.3,1.5c.2.6,1.3.9,2.2,1.3s2.1,1.3,2,2.1-1.3,1.4-1.7,1.6-1.8,1.1-2.3,1-1.1-2.2-2.2-2.1-.9.4-.9,1.1,1.2,1.5,1.2,2.6-.6,1.5-1.6,2.4a8.5,8.5,0,0,0-2.2-.9c-.6.8.9,1,.4,2s-2.4-.4-3.7-.9a3.1,3.1,0,0,1-1.3-.3c-.5-.3-.6-1.3-1-1.9a3.7,3.7,0,0,0-2.2-1.4c-1,0-2.6,1.6-3.4.1s3.3-.6,5.1-1.5,1-1.1,1.5-1.5,2.9-.9,2.8-2.4-1-.7-1.5-1.1-1.2-2.4-2.2-2.5-.8.4-1.3.5-2.4-.5-3.4,0-.1.8-.5,1.5-1,.6-1.3,1.1-.3,1.3-.7,1.8-2.2.8-3.1,1.2-.9.7-1.3.7-1-1.1-1.8-.7,1,1.6,1.6,2.1a3.5,3.5,0,0,1,1.8,2c-.7,1.8-1.9-.1-3-.1s-3,2.8-4,.6,1.4-1.4,1.6-2.6-2.2,1.4-3.7,1.8-1.2.1-1.7.3-1.7,1.3-2.8,1.8-1,.1-1.4.3a38.2,38.2,0,0,0-6.4,4,6.1,6.1,0,0,0-1.3,2.2c.1.6,1,.8,1.1,1.5s-.6,1.2-.2,1.7,1,.1,1.8.2,2.2,1.5,3.2,2.2a6.6,6.6,0,0,0,2.7,1.2c1.2.2,2.5-.4,2.7.8s-1.1,1.5-1.2,2.1a13.3,13.3,0,0,0-.4,2.4,2.6,2.6,0,0,0,1.3,1.9,2.9,2.9,0,0,0,2.5-2.1c.5-1.2.3-2.9,1.1-3.8,4,.1,7.4-2.2,7.1-7.2a8.6,8.6,0,0,1-.1-1.6c.1-.8,1.2-1.5,1.1-2.5a3.3,3.3,0,0,1,2.2-2.9c1.2-.3,2.1.8,3.4.7s.9-.5,1.3-.4,1.4,1.4,2,2,1.2.3,1.3,1-.8,1.2-.8,2.3a2.4,2.4,0,0,0,1.3,1.8,3.4,3.4,0,0,0,2.2-.7c1.1-.6,2.1-2.6,3.1-2.3s1.3,3.1,1.4,4.1-.1,2,0,3,1.9,1.6,2.8,2.5.4,1,.6,1.3,1,.7,1,1.5-1.3,1.9-1.2,3.9-1.1.7-1,1.8,2.1.3,2.6,1.6-.1,1.2-.3,2.2.7,2.5-.5,2.5S143.1,87.5,142.4,87.3ZM49.3,84.6c.4-.5-.2-1.5-.8-1.1S48.6,84.8,49.3,84.6Zm60.1,9.5c-.4-.5-1.5-.3-2.3-.2s-1.3.2-1.3.7S109.1,95.4,109.4,94.1Zm-4.5-1.8a1.5,1.5,0,0,0,0-2l-.3-.2c-.3-.1-.7.3-1.1.2l-1.4-.6a2.2,2.2,0,0,0-1.7.7c0,.7.4.8.4,1.4s-.4,3.1.4,3.2,1.3-2.7,2.5-2.9S104.4,92.4,104.9,92.3Zm-1.2,4.1c-1.2-.5-2.3.4-3.3.6s-1.7-.2-1.6.9,1.2.5,1.9.3A7.1,7.1,0,0,0,103.7,96.4Zm-3.8-7.8c1.7-.9-.3-3.6-1.1-3.9s-3.4,1.3-5,1.8-1.8.3-2,1.3,2.5-.4,3.6-.2,1,1.2,1.6,1.3A14.3,14.3,0,0,0,99.9,88.6Zm-1.2,1.6c-.3-.5-2.3.1-2.8.5a9.9,9.9,0,0,0-1.1,1.7L93.6,94c-.3.4-2,3.4-.7,3.8s1.8-1.3,1.9-1.9a6.2,6.2,0,0,1,2.4-4.1c.7-.5,1.4-.5,1.5-1.6ZM87.9,78.6c1,0,1.7-3.4,0-3S86.6,78.7,87.9,78.6Zm-4.6,77.6.2-.4C83.2,154.8,82.4,156.2,83.3,156.2ZM46.9,69.6c0-.2-.1-.2-.1-.4s-.6,0-.5.3S46.7,69.9,46.9,69.6Zm90.5-16.2q.6.1.6-.6C137.6,52.5,137,52.9,137.4,53.4Zm-9.9-10.1c-.1-.1-.3-.2-.4-.1H127v.4C127.3,43.8,127.4,43.5,127.5,43.3ZM94.8,51.2c.2-.2.7-.5.5-1s-2.6-.1-4-.3-2.1-1.6-2.2.6C90.7,52.1,93.1,49.8,94.8,51.2ZM79.3,61.9c.5-.2,1.2-.1,1.3-.7s-.8-1-1.3-1-.9.7-1.5,1.1-1.7.5-1.8,1.3A5.5,5.5,0,0,0,79.3,61.9Zm-.4-7.5c.6-.1,1.1.2,1.5-.4-.4-2.3-3.1-.9-4.6-.7a9.5,9.5,0,0,0-.9,2.1C76.1,55.7,77.6,54.7,78.9,54.4Zm25.8,105.8c.7-.2.5-2-.3-1.6S104.1,160.3,104.7,160.2Z" transform="translate(0 0)"/><path class="cls-3" d="M46.8,69.2c0,.2.1.2.1.4s-.5.2-.6-.1S46.5,69.2,46.8,69.2Z" transform="translate(0 0)"/><path class="cls-3" d="M44.2,75.3A2,2,0,0,1,43,76.6l-.4-.5C42.6,75.1,43.8,74.4,44.2,75.3Z" transform="translate(0 0)"/></g><g id="Layer_9" data-name="Layer 9"><path class="cls-4" d="M228.7,48.5c0-9.7-10.2-15.8-20.5-11a11.8,11.8,0,0,0-5.5,5.3c-2.6,5-1.4,10.8.9,15.5l8.1,20.5a3.4,3.4,0,0,0,6.4-.1L226,58.2C228.8,52,228.7,48.5,228.7,48.5Zm-9.8,8.4c-6.9,4-14-3.4-10.2-10.8a6.4,6.4,0,0,1,2.2-2.4c7-4,14.1,3.5,10.2,10.8A5.6,5.6,0,0,1,218.9,56.9Z" transform="translate(0 0)"/></g><g id="Character"><path class="cls-5" d="M231.7,401.4l-3.7-9.2L210.6,399l5.3,13.6,1.1-.3c4.9-1.6,24.8-8.6,27.6-10.8S231.7,401.4,231.7,401.4Z" transform="translate(0 0)"/><g class="cls-6"><path class="cls-7" d="M222.1,410a6.1,6.1,0,0,0-3.7-2.8,5.9,5.9,0,0,0-4.5.3l1.9,4.9Z" transform="translate(0 0)"/></g><g class="cls-8"><path class="cls-7" d="M239.7,400.5s5.7-.6,5.4.6-20.2,8.9-29.2,11.5l-.2-.4,23.3-8.9S238.7,400.9,239.7,400.5Z" transform="translate(0 0)"/></g><path class="cls-2" d="M215.5,412.3h.3l.9-.2,3.2-1.1,10.5-4,10.4-4.2,3.1-1.5.8-.4h0l-.9.3-3.1,1.3-10.4,4.2-10.5,4-3.2,1.2-.8.3Z" transform="translate(0 0)"/><path class="cls-2" d="M239.1,403.6a4.9,4.9,0,0,1,0-1.7c.2-1,.7-1.6.6-1.7a3,3,0,0,0-.8,1.6A2.3,2.3,0,0,0,239.1,403.6Z" transform="translate(0 0)"/><path class="cls-2" d="M232.9,403c.1,0,.2-.4.3-.9s.2-.9.1-.9-.2.4-.3.9A2.8,2.8,0,0,0,232.9,403Z" transform="translate(0 0)"/><path class="cls-2" d="M231.2,402.8c.1.1.3-.2.5-.6s.3-.8.2-.8l-.4.7Z" transform="translate(0 0)"/><path class="cls-2" d="M229.7,401.5c0,.1.5,0,1-.2s.9-.4.8-.5l-.9.3Z" transform="translate(0 0)"/><path class="cls-2" d="M228.9,400.5c0,.1.6.1,1.2-.1s1-.5,1-.6l-1.1.4Z" transform="translate(0 0)"/><path class="cls-2" d="M232.9,401.3l1.2-.5,1-.7.6-.6c.1-.1.2-.2.1-.4s-.1-.4-.3-.4a2.4,2.4,0,0,0-2.3,1.6,2.8,2.8,0,0,0-.1.9v.3c.1,0-.1-.5.2-1.2a1.6,1.6,0,0,1,.7-.9,1.9,1.9,0,0,1,1.3-.5c.3.1.3.3.1.5l-.5.5-1,.8C233.3,401.1,232.9,401.2,232.9,401.3Z" transform="translate(0 0)"/><path class="cls-2" d="M233.2,401.2c.1,0,.1-.3-.1-.8a2.3,2.3,0,0,0-.7-.7.9.9,0,0,0-1.1-.2.4.4,0,0,0-.2.5h0l.4.5.8.4c.5.2.8.3.8.2l-.7-.3-.7-.5c-.3-.2-.6-.6-.3-.7a.8.8,0,0,1,.9.2,2.1,2.1,0,0,1,.9,1.3Z" transform="translate(0 0)"/><path class="cls-2" d="M214,407.4l1.3-.4a4.4,4.4,0,0,1,3.2,0,5.6,5.6,0,0,1,2.7,1.8c.6.7.8,1.1.9,1.1l-.2-.3-.5-.9a6.1,6.1,0,0,0-2.8-1.9,5,5,0,0,0-3.4,0l-.9.4Z" transform="translate(0 0)"/><path class="cls-2" d="M212.9,399.5s.5,1.6,1.3,3.6l1.4,3.6a22.9,22.9,0,0,0-1.2-3.7A21.7,21.7,0,0,0,212.9,399.5Z" transform="translate(0 0)"/><path class="cls-2" d="M223.6,407.5a13.8,13.8,0,0,0,2.7-.8,11.5,11.5,0,0,0,2.5-1.2l-2.6,1Z" transform="translate(0 0)"/><path class="cls-2" d="M220.2,408.8l.4.4.5.4a.9.9,0,0,0-.3-.6C220.5,408.8,220.3,408.7,220.2,408.8Z" transform="translate(0 0)"/><path class="cls-2" d="M218.3,407.7c0,.1.2.2.4.3h.5c.1-.1-.1-.2-.4-.3Z" transform="translate(0 0)"/><path class="cls-2" d="M216.2,407.7h1.1l-.6-.2A.4.4,0,0,0,216.2,407.7Z" transform="translate(0 0)"/><path class="cls-2" d="M214.8,407.9h.6l-.3-.2Z" transform="translate(0 0)"/><path class="cls-5" d="M124,406.7l1-9.9-18.6-2.1-1.6,14.5,1.1.2c5.1.9,26,4,29.5,3.3S124,406.7,124,406.7Z" transform="translate(0 0)"/><g class="cls-6"><path class="cls-7" d="M111.5,409.8a6.5,6.5,0,0,0-1.9-4.2,6,6,0,0,0-4.2-1.8l-.6,5.2Z" transform="translate(0 0)"/></g><g class="cls-8"><path class="cls-7" d="M131.5,409.5s5.3,2.2,4.6,3.1-22-1.5-31.3-3.4v-.4l24.7,2.9S130.4,409.5,131.5,409.5Z" transform="translate(0 0)"/></g><path class="cls-2" d="M104.6,408.8h.3l.9.2,3.4.5c2.8.4,6.7,1,11.1,1.4l11.2,1.1,3.3.2h.1l-3.4-.3-11.2-1.1-11.1-1.3-3.4-.5h-1.2Z" transform="translate(0 0)"/><path class="cls-2" d="M129.5,412c.1.1.3-.7.9-1.5s1.3-1.1,1.2-1.2A3.6,3.6,0,0,0,129.5,412Z" transform="translate(0 0)"/><path class="cls-2" d="M124.4,408.7l.6-.7c.4-.4.6-.7.5-.8l-.6.7C124.5,408.3,124.3,408.6,124.4,408.7Z" transform="translate(0 0)"/><path class="cls-2" d="M123,407.7l.7-.4c.3-.2.6-.5.5-.5l-.7.3C123.1,407.3,122.9,407.6,123,407.7Z" transform="translate(0 0)"/><path class="cls-2" d="M122.2,405.8l.9.3h1c0-.1-.4-.2-.9-.3Z" transform="translate(0 0)"/><path class="cls-2" d="M122,404.6l1,.4a2.4,2.4,0,0,0,1.2,0l-1.1-.2C122.5,404.7,122,404.5,122,404.6Z" transform="translate(0 0)"/><path class="cls-2" d="M125.2,407.1h2.5l.7-.2a.8.8,0,0,0,.4-.4c0-.1,0-.4-.2-.5a2.1,2.1,0,0,0-2.7.4,1.8,1.8,0,0,0-.5.7.4.4,0,0,0-.1.3c.1.1.2-.4.7-.9a2.4,2.4,0,0,1,1.1-.6,3.2,3.2,0,0,1,1.4.3c.2.1.1.4-.2.5l-.7.2-1.2.2Z" transform="translate(0 0)"/><path class="cls-2" d="M125.5,407.2a1.9,1.9,0,0,0,.2-.8,2.9,2.9,0,0,0-.2-.9c-.2-.3-.4-.7-.9-.7a.5.5,0,0,0-.5.5.8.8,0,0,0,.2.5,2.2,2.2,0,0,0,.5.8l.6.6-.5-.7a2,2,0,0,1-.4-.8c-.2-.2-.2-.7.1-.7s.5.3.7.6a1.1,1.1,0,0,1,.2.8C125.6,406.9,125.4,407.2,125.5,407.2Z" transform="translate(0 0)"/><path class="cls-2" d="M105.5,403.7c0,.1.5,0,1.4.2a6.1,6.1,0,0,1,2.8,1.6,5,5,0,0,1,1.6,2.8,6.8,6.8,0,0,1,.2,1.4.6.6,0,0,0,.1-.4,3.4,3.4,0,0,0-.1-1,7.3,7.3,0,0,0-1.6-3,5.7,5.7,0,0,0-3-1.5h-1.4Z" transform="translate(0 0)"/><path class="cls-2" d="M108.3,396.2a25,25,0,0,0-.6,3.8c-.3,2.1-.4,3.8-.4,3.8a23.2,23.2,0,0,0,.6-3.8C108.2,397.9,108.3,396.2,108.3,396.2Z" transform="translate(0 0)"/><path class="cls-2" d="M114.1,408.3a8.6,8.6,0,0,0,2.7.5,8.2,8.2,0,0,0,2.7.1l-2.7-.3A12.4,12.4,0,0,0,114.1,408.3Z" transform="translate(0 0)"/><path class="cls-2" d="M110.4,407.9l.2.5c.1.3.1.6.2.6s.1-.3,0-.7S110.5,407.8,110.4,407.9Z" transform="translate(0 0)"/><path class="cls-2" d="M109.2,406l.3.5c.1.2.2.3.4.3a.5.5,0,0,0-.3-.5C109.5,406.1,109.4,406,109.2,406Z" transform="translate(0 0)"/><path class="cls-2" d="M107.4,405c0,.1.2.1.5.2l.5.3c0-.1-.1-.3-.4-.5Z" transform="translate(0 0)"/><path class="cls-2" d="M106,404.5l.2.2h.3c.1-.1,0-.2-.2-.3Z" transform="translate(0 0)"/><path class="cls-9" d="M205.2,237.3l2.7.6a8.2,8.2,0,0,0,2.7.1,8.9,8.9,0,0,0,3.2-.8,1.1,1.1,0,0,1,1.5.4,1,1,0,0,1,.1.9c-.5.8-3,2.2-6.3,2.3s.9,3.3,2.4,4.5,6.1,5,6.1,5.7-1.2,1.3-2.7.1-6.2-4.4-6.8-3.6,7.3,6.6,7.3,6.6,1.9,1,1.2,2-9-5-9.7-5.7-1.2.4-.6.9,8,5.6,6.8,7.4-6.5-5.5-8.6-5.7,4.8,4.8,3.9,6.1-.7.8-4.2-2.7a91.7,91.7,0,0,1-7-8.2h0s-14.7-12.7-22.5-27.1c0,0-8-23.7-9.3-35.7l17.2-3.6s3.8,23.5,6.9,31.1S205.2,237.3,205.2,237.3Z" transform="translate(0 0)"/><rect class="cls-10" x="114.2" y="140.1" width="37.8" height="21.78" rx="9.2"/><path class="cls-2" d="M130.6,160a16.5,16.5,0,0,0,3.6-2.2,10.4,10.4,0,0,0,2.6-3.6,9.5,9.5,0,0,0-1.2-10.2,11.9,11.9,0,0,0-3.4-2.9c-2.3-1.2-4-1.1-4-1.3h1.2a7.5,7.5,0,0,1,2.9.9,11.6,11.6,0,0,1,3.7,2.9,10.1,10.1,0,0,1,2.2,5.2,9.5,9.5,0,0,1-1,5.5,11.3,11.3,0,0,1-2.8,3.7,9.2,9.2,0,0,1-2.7,1.6Z" transform="translate(0 0)"/><path class="cls-2" d="M141.8,149c0,.2-1,.2-2.2.3a8.1,8.1,0,0,1-2.2.1,4.3,4.3,0,0,1,2.2-.6A5.5,5.5,0,0,1,141.8,149Z" transform="translate(0 0)"/><path class="cls-2" d="M142.2,150.6c0,.2-.9.2-2,.4s-1.8.5-1.9.3.7-.6,1.8-.8A3.8,3.8,0,0,1,142.2,150.6Z" transform="translate(0 0)"/><path class="cls-2" d="M140.3,161.8a62.3,62.3,0,0,0-12.9-2.3,21,21,0,0,0-12.5,3.1c-5.5,3.8-7.9,10.8-9.2,17.4-2.4,12.1-2.1,24.5-1.8,36.9.1,5.1.3,10.6,3.3,14.9s12.2,7.3,19.3,6.6,13.9-3.4,21-3.9" transform="translate(0 0)"/><path class="cls-3" d="M129.6,184.2l-.8.9a11.6,11.6,0,0,1-2.4,2,54.8,54.8,0,0,1-9.1,5.2,49.3,49.3,0,0,1-5.3,2.2,14.6,14.6,0,0,1-4.6,1h-1l-.8-.4-.9-1-.7-1c.1-.1.4.3.8.8a2.8,2.8,0,0,0,1,.9,2.3,2.3,0,0,0,1.6.4,24.6,24.6,0,0,0,4.5-1.1l5.2-2.2a81.3,81.3,0,0,0,9.1-5.1C128.4,185.4,129.5,184.1,129.6,184.2Z" transform="translate(0 0)"/><path class="cls-2" d="M104.4,198.3a17.7,17.7,0,0,0-4.4,19.2,6.1,6.1,0,0,0,1.9,2.6,2.4,2.4,0,0,0,3,0,3.2,3.2,0,0,0,1-2.6c.4-4,.7-8.1,1-12.2.2-2.3.2-5.1-1.5-6.7" transform="translate(0 0)"/><path class="cls-2" d="M103.4,398.8l21.5,9.9,38.4-68.5c5-18.1,9.8-81.7,9.8-81.7l-27.8,2.1s-4.2,45.7-11,69.2Z" transform="translate(0 0)"/><path class="cls-3" d="M128.2,402a17.9,17.9,0,0,1-3.2-1.3l-7.7-3.5-7.7-3.6-3.1-1.7a22.6,22.6,0,0,1,3.3,1.3l7.7,3.5,7.6,3.7C127.1,401.3,128.3,401.9,128.2,402Z" transform="translate(0 0)"/><path class="cls-2" d="M132.6,232.9c-.5,0-6.2,16.9-.7,28,.6,1.2,4.9,7.3,4.9,7.3,15.1,17.9,30.5,52.6,34.7,61.7,8.8,18.6,41.2,80.1,41.2,80.1l20.9-11.9-30.5-78.3-27.6-70.6Z" transform="translate(0 0)"/><path class="cls-3" d="M145.9,278.7l.8,1.5c.6,1.1,1.3,2.6,2.1,4.4l7,14.3c2.8,5.5,5.2,10.6,6.9,14.3.9,1.9,1.5,3.4,2,4.5l.6,1.6-.8-1.6-2.1-4.3-7-14.3c-2.8-5.6-5.2-10.7-6.9-14.4l-2-4.4Z" transform="translate(0 0)"/><path class="cls-3" d="M232,394.5c.1.1-4.7,2.6-10.7,5.6s-11,5.4-11,5.2,4.7-2.6,10.7-5.6S231.9,394.3,232,394.5Z" transform="translate(0 0)"/><path class="cls-2" d="M50.4,406.9a6,6,0,0,1-5.3,6.6,6.1,6.1,0,0,1-6.6-5.4,6,6,0,0,1,5.4-6.5,5.8,5.8,0,0,1,6.5,5Z" transform="translate(0 0)"/><polygon class="cls-3" points="45.7 407.6 49.7 400.2 47.8 398.9 44 406.6 45.7 407.6"/><polygon class="cls-3" points="86.3 309 111.3 251 115.5 253.3 91.2 310.8 86.3 309"/><path class="cls-11" d="M87.2,303.2l5.5,2.5a14.7,14.7,0,0,1,7.4,19.3h0L64.3,405.3a2.8,2.8,0,0,1-3.7,1.4L33.5,394.6a2.7,2.7,0,0,1-1.4-3.7l35.7-80.3a14.6,14.6,0,0,1,19.3-7.4h.1Z" transform="translate(0 0)"/><polygon class="cls-2" points="104.9 265.9 109.4 267.9 116.1 253.3 111.3 251 104.9 265.9"/><path class="cls-2" d="M63.9,406l.2-.5.6-1.5,2.4-5.6c2.2-4.9,5.2-11.9,9-20.5l13.3-30.5c2.6-5.7,5.2-11.7,7.9-17.9l2.1-4.7a10.8,10.8,0,0,0,.9-5,9.9,9.9,0,0,0-5.7-8.1,10.1,10.1,0,0,0-9.9,1.2,10.8,10.8,0,0,0-3,4l-2.1,4.7-7.9,18C66.6,351,62,361.3,58.2,370l-9.1,20.5L46.6,396l-.7,1.5a.8.8,0,0,1-.2.4.8.8,0,0,0,.2-.5l.6-1.4,2.4-5.6,9-20.6,13.3-30.4c2.5-5.7,5.2-11.7,7.9-18l2.1-4.7a11,11,0,0,1,3.2-4.2A10.3,10.3,0,0,1,99.9,325l-2.1,4.7-7.9,17.9c-5.1,11.5-9.6,21.8-13.5,30.4l-9.1,20.5c-1.1,2.4-1.9,4.3-2.5,5.5l-.6,1.5Z" transform="translate(0 0)"/><path class="cls-2" d="M67.4,346.4c-.1.2-3.1-1-6.7-2.5l-6.6-3c.1-.2,3.1,1,6.8,2.5S65.3,345.3,67.4,346.4Z" transform="translate(0 0)"/><path class="cls-11" d="M171.4,157.4s12.7.4,15.3,24.5l.7,14.6-5.8,2.5-11.1-41.1" transform="translate(0 0)"/><path class="cls-11" d="M147.3,157.1s-5.6.2-11.2,10.9c-4.4,8.5-7.3,81.2-7.3,81.2l52.8,1.6s-.5-16.7,0-37.4c.7-34.2.9-49.6-8.5-56C167.4,153.5,158.1,153.4,147.3,157.1Z" transform="translate(0 0)"/><path class="cls-2" d="M182,211.3c-.1,0-.4-7.4-.6-16.5s-.3-16.4-.1-16.4.4,7.3.6,16.4S182.2,211.3,182,211.3Z" transform="translate(0 0)"/><path class="cls-2" d="M181.5,186.1c0,.1,1.8-17.1-2.9-25a32.7,32.7,0,0,1,4.3,6.2c1.2,2.7,2.7,15.6-1.3,22.9l.3-3.5" transform="translate(0 0)"/><path class="cls-12" d="M180.9,176.3a1.6,1.6,0,0,1-.6.8,4.9,4.9,0,0,1-2.3,1.4,10.8,10.8,0,0,1-4,.2,20.1,20.1,0,0,1-4.7-1.6,33.8,33.8,0,0,0-4.4-1.8,15.8,15.8,0,0,0-3.8-.5,8,8,0,0,0-3.4,1.1,1.6,1.6,0,0,1,.8-.6,7.3,7.3,0,0,1,2.5-.8,9.1,9.1,0,0,1,4,.4,36.6,36.6,0,0,1,4.6,1.8,17,17,0,0,0,4.5,1.5,8.1,8.1,0,0,0,3.8-.1A5.8,5.8,0,0,0,180.9,176.3Z" transform="translate(0 0)"/><path class="cls-12" d="M138.7,212.2a14.8,14.8,0,0,0-4.2-.1,19,19,0,0,0-4,1.4c-.1-.1,1.4-1.5,3.9-1.9A6.4,6.4,0,0,1,138.7,212.2Z" transform="translate(0 0)"/><path class="cls-12" d="M180.7,215.6l-1.5-.3a9.4,9.4,0,0,0-4.1.3c-1.7.5-3.6,1.3-5.9,2.1a28.6,28.6,0,0,1-21.1-1.6,15.1,15.1,0,0,1-2.2-1.1l-1.5-1-1.2-.9a48.2,48.2,0,0,0,5,2.7,29.5,29.5,0,0,0,13.4,2.6,31.7,31.7,0,0,0,7.5-1.2c2.2-.7,4.2-1.5,5.9-1.9a8.6,8.6,0,0,1,4.2-.2l1.2.3Z" transform="translate(0 0)"/><path class="cls-12" d="M181.1,241.8a7.6,7.6,0,0,0-2.1-.3,11.8,11.8,0,0,0-5.5,1.4c-1.1.5-2.3,1.1-3.7,1.6a14,14,0,0,1-4.5,1,28.4,28.4,0,0,1-10.4-1.7c-3.6-1.2-6.9-2.5-10-3.2a22.2,22.2,0,0,0-8.5-.5,12.4,12.4,0,0,0-5.2,2.1,10.9,10.9,0,0,0-1.7,1.3.8.8,0,0,1,.4-.4A5.7,5.7,0,0,1,131,242a15.8,15.8,0,0,1,9.4-2.5,17.6,17.6,0,0,1,4.6.6c3.4.9,6.7,2,10,3.2a30.1,30.1,0,0,0,10.3,1.7,16.4,16.4,0,0,0,4.4-.9l3.7-1.6a13.8,13.8,0,0,1,5.6-1.2,4.5,4.5,0,0,1,1.6.3Z" transform="translate(0 0)"/><path class="cls-9" d="M109.4,255.4c.6-2.8,2.2-6.1,4.5-3.7s5,3.4,5.9,3.2.9-1.6,0-2A10.7,10.7,0,0,1,117,251a8.7,8.7,0,0,1-1.7-2.1l-1.2-2.4s4.4-20.5,8.1-27.8,19-25.6,19-25.6l-14-10.7c-8.2,8.9-20.9,30.4-20.9,30.4-5.8,15.3-5.8,34.8-5.8,34.8h.1a15,15,0,0,0-.6,2.9c-1.1,4.6,1.8,10.7,6.4,11.9l3-7" transform="translate(0 0)"/><path class="cls-13" d="M107.3,260.8c0,.1-.7-.1-1.3-1a7.7,7.7,0,0,1-1.2-3.6c-.1-1.6,0-2.9,0-3.9s0-1.5.1-1.5a4,4,0,0,1,.3,1.5c.1,1,0,2.4.1,3.8a7.4,7.4,0,0,0,1,3.5A5.8,5.8,0,0,0,107.3,260.8Z" transform="translate(0 0)"/><path class="cls-13" d="M106.5,262.4a2.3,2.3,0,0,1-1.4-.4,7.5,7.5,0,0,1-2.1-2.9c-1.1-2.4-1.3-4.7-1.1-4.7.5,1.5,1,3,1.6,4.5a8.4,8.4,0,0,0,1.8,2.8C105.9,262.2,106.5,262.3,106.5,262.4Z" transform="translate(0 0)"/><path class="cls-11" d="M146.6,157.4c-1.1.5-15.5,4-23.1,17.3l-8.8,13.4,25.1,15.6L153,170.3Z" transform="translate(0 0)"/><path class="cls-2" d="M130,163.7s25.5-3.4,23.9,16.7-30.4,49.3-30.4,49.3l-.6,7.7s25.6-24.9,30.9-40.8,8.8-35.4-16-35.5Z" transform="translate(0 0)"/><path class="cls-2" d="M115.6,188.6l.5.2,1.4.8,5,3,16.6,9.9h0l.2-.2.4-.6a7.5,7.5,0,0,1,.7-1.2l1.2-2.4,2.2-4.6c1.4-2.9,2.6-5.6,3.6-7.9l2.3-5.3.7-1.5.2-.5a.9.9,0,0,1-.1.5c-.2.4-.3.9-.6,1.5s-1.2,3.2-2.2,5.5-2.1,4.9-3.5,7.9l-2.1,4.6-1.3,2.5a7.5,7.5,0,0,1-.7,1.2,2.1,2.1,0,0,1-.4.6l-.2.3h-.7l-16.5-10-4.9-3.1-1.4-.9Z" transform="translate(0 0)"/><path class="cls-12" d="M154.2,176.4l-1.1.8a31.5,31.5,0,0,1-2.9,2.2,6.9,6.9,0,0,1-5.4.9,6.1,6.1,0,0,1-2.9-1.4,28.5,28.5,0,0,1-2.3-2.6l-2.1-2.7a7.2,7.2,0,0,0-2.5-1.8,11.6,11.6,0,0,0-5.2-1.1,11.1,11.1,0,0,0-4.7,1.4l.3-.2.8-.6a11.2,11.2,0,0,1,3.6-.9,9.2,9.2,0,0,1,5.4,1,6.8,6.8,0,0,1,2.6,1.8l2.2,2.7a13.8,13.8,0,0,0,2.2,2.6,7.4,7.4,0,0,0,2.8,1.4,6.7,6.7,0,0,0,5-.8c1.3-.8,2.3-1.6,3-2.1A3.4,3.4,0,0,1,154.2,176.4Z" transform="translate(0 0)"/><path class="cls-9" d="M161.9,165.7h0a9,9,0,0,0,9-8.8c0-.4-.1-.7-.1-1.1-.3-2.9-.6-5.3-.6-5.3s7.1-1.1,7.2-8.2-1.1-23.3-1.1-23.3h0a24.4,24.4,0,0,0-24.8,3.1l-1,.8,2.4,34.4A9.1,9.1,0,0,0,161.9,165.7Z" transform="translate(0 0)"/><path class="cls-2" d="M174.7,130.6a.9.9,0,0,1-.5-1.3h0a1,1,0,0,1,1.3-.5.9.9,0,0,1,.5,1.3h0A1,1,0,0,1,174.7,130.6Z" transform="translate(0 0)"/><path class="cls-2" d="M165.8,130a1,1,0,0,1,.3,1.4,1.1,1.1,0,0,1-1.4.3,1,1,0,0,1,1.1-1.7Z" transform="translate(0 0)"/><path class="cls-2" d="M169.7,138.4l1.6-.3.4-.2a1.2,1.2,0,0,0-.2-.7,11.1,11.1,0,0,1-.7-2,32.7,32.7,0,0,1-1.7-5.3,29.1,29.1,0,0,1,2.2,5.1c.2.7.5,1.3.7,2a1.8,1.8,0,0,1,.2,1,.7.7,0,0,1-.5.4Z" transform="translate(0 0)"/><path class="cls-7" d="M166.5,139.5c-1-.6,2.8,1.5,4.8,1.4a2.7,2.7,0,0,1-3.2,1.1A2.2,2.2,0,0,1,166.5,139.5Z" transform="translate(0 0)"/><path class="cls-9" d="M150.4,129.7c-.1,0-5.2-.4-4.4,5.6s6.6,3.2,6.6,3S150.4,129.7,150.4,129.7Z" transform="translate(0 0)"/><path class="cls-13" d="M150.5,136.5c-.1-.1-.1,0-.3.1a1.5,1.5,0,0,1-.8.2,2.9,2.9,0,0,1-1.5-2.2,3.8,3.8,0,0,1,.1-1.5,1,1,0,0,1,.7-.9.5.5,0,0,1,.6.1h0a.4.4,0,0,1,.1.3c.1,0,.1-.1.1-.4l-.3-.3a.7.7,0,0,0-.6-.1c-.5.1-.8.6-1,1.1a4.9,4.9,0,0,0-.1,1.7,3,3,0,0,0,1.9,2.4l.9-.3Z" transform="translate(0 0)"/><path class="cls-2" d="M147.4,123.1c0,2,1.7,4,2.4,5.8h0v1.2l2,7,2.9-1.3-1.3-11.5s-.6-4.4,3.2-4.2,9.3,4.1,16.7,2.6a9.8,9.8,0,0,0,3.4-1.2,3.6,3.6,0,0,0,1.4-3.2,2.3,2.3,0,0,0-2.6-1.9,2.6,2.6,0,0,0,2.4-2.9A2.7,2.7,0,0,0,175,111a2.9,2.9,0,0,0-1.3.5,7,7,0,0,0,1.9-2.6,2.8,2.8,0,0,0-.7-3,2.9,2.9,0,0,0-3.1,0c-1.4.7-2.5,2.1-4.1,2.7a13.2,13.2,0,0,1-4.8.6,8.6,8.6,0,0,0-5,2.1,5.7,5.7,0,0,0-2,4.9c-2.2-.1-4.7,0-6.4,1.4A6.9,6.9,0,0,0,147.4,123.1Z" transform="translate(0 0)"/><path class="cls-2" d="M165.4,126.6c-.1.3-1.2.2-2.3.6s-1.8,1.3-2,1.1-.1-.4.2-.8a2.6,2.6,0,0,1,1.5-1.2,3.1,3.1,0,0,1,1.9-.2C165.2,126.3,165.4,126.5,165.4,126.6Z" transform="translate(0 0)"/><path class="cls-2" d="M175.3,125.3c-.1.3-.8.3-1.6.6s-1.4.6-1.6.4-.1-.3.1-.6a2,2,0,0,1,1.2-.8,2.2,2.2,0,0,1,1.4-.1C175.2,125,175.4,125.2,175.3,125.3Z" transform="translate(0 0)"/><path class="cls-2" d="M153.6,132.6c.5-1.3,1.8-2,2.2-3.3a4.2,4.2,0,0,0,.2-2.2c-.2-2.4-.4-4.8-.7-7.2,0-.2,0-.4-.2-.5a1,1,0,0,0-.9,0,5.5,5.5,0,0,0-2.8,3.7,9.3,9.3,0,0,0,.2,4.7,23.5,23.5,0,0,0,1.7,4.4" transform="translate(0 0)"/><g class="cls-14"><path d="M130.7,212c-.1-1.9,2.1-3.1,4-3.2s4,1,5.6-.1,3.9-5.9,4.8-8.5a95.9,95.9,0,0,0,4.5-18.3c-3.6,7.3-6.9,14-10.6,21.3l-3.9-2.5a14.5,14.5,0,0,0-3.7,5.4,23.3,23.3,0,0,0-.6,5.3" transform="translate(0 0)"/></g></g><g id="Layer_8" data-name="Layer 8"><path class="cls-15" d="M164.7,142.5s5.3,3.7,8.1,3.1" transform="translate(0 0)"/></g></svg>