<?xml version="1.0" encoding="utf-8"?>
<!-- Generator: Adobe Illustrator 24.0.2, SVG Export Plug-In . SVG Version: 6.00 Build 0)  -->
<svg version="1.1" id="Layer_1" xmlns="http://www.w3.org/2000/svg" xmlns:xlink="http://www.w3.org/1999/xlink" x="0px" y="0px"
	 viewBox="0 0 347.9 338.5" style="enable-background:new 0 0 347.9 338.5;" xml:space="preserve">
<style type="text/css">
	.st0{fill:#EDF1F0;}
	.st1{fill:#273238;}
	.st2{fill:#FFFFFF;stroke:#273238;stroke-width:2;stroke-miterlimit:10;}
	.st3{fill:#067FC8;stroke:#273238;stroke-width:2;stroke-miterlimit:10;}
</style>
<title>travel</title>
<g id="Layer_1-2">
	<path class="st0" d="M9.3,294.6V191.5c10.1-4.6,21.1-6.9,32.2-6.8c56.4,0,102.3,61.3,102.3,136.6v4.5H32.7
		C19.7,325.8,9.3,311.8,9.3,294.6z"/>
	<path class="st1" d="M323,198H220.1c-1.2-0.4-2.5,0.3-2.9,1.6c-0.4,1.2,0.3,2.5,1.6,2.9c0.3,0.1,0.5,0.1,0.8,0.1H323
		c1.2-0.2,2.1-1.3,2-2.5C324.8,199,324,198.2,323,198z"/>
	<path class="st1" d="M323,189.1H220.1c-1.2-0.4-2.5,0.3-2.9,1.6c-0.4,1.2,0.3,2.5,1.6,2.9c0.3,0.1,0.5,0.1,0.8,0.1H323
		c1.2-0.2,2.1-1.3,2-2.5C324.8,190.1,324,189.3,323,189.1z"/>
	<path class="st1" d="M323,238.4H220.1c-1.2-0.2-2.3,0.7-2.5,1.9c0,0,0,0,0,0c-0.1,1.2,0.8,2.3,2,2.5H323c1.2-0.2,2.1-1.3,2-2.5
		C324.8,239.3,324,238.5,323,238.4z"/>
	<path class="st1" d="M323,229.5H220.1c-1.2-0.1-2.3,0.7-2.4,1.9c-0.1,1.2,0.7,2.3,1.9,2.4l0,0H323c1.2-0.1,2.1-1.2,2-2.4
		c0,0,0,0,0,0C324.9,230.5,324,229.6,323,229.5z"/>
	<path class="st1" d="M323,287.4H220.1c-1.2-0.1-2.3,0.7-2.4,2c-0.1,1.2,0.7,2.3,1.9,2.4H323c1.2-0.1,2.1-1.2,2-2.4c0,0,0,0,0,0
		C324.9,288.4,324,287.5,323,287.4z"/>
	<path class="st1" d="M323,278.5H220.1c-1.2-0.1-2.3,0.8-2.5,2c-0.1,1.2,0.8,2.3,2,2.4c0,0,0,0,0,0l0,0c0.2,0.1,0.3,0.1,0.5,0H323
		c1.2-0.1,2.1-1.2,2-2.4c0,0,0,0,0,0C324.9,279.5,324,278.6,323,278.5z"/>
	<path class="st1" d="M138.6,198H35.8c-1.2-0.1-2.3,0.8-2.5,2c-0.1,1.2,0.8,2.3,2,2.5h103.3c1.2-0.2,2.1-1.3,2-2.5
		C140.5,198.9,139.7,198.1,138.6,198z"/>
	<path class="st1" d="M138.6,189.1H35.8c-1.2-0.1-2.3,0.8-2.5,2c-0.1,1.2,0.8,2.3,2,2.5h103.3c1.2-0.3,2-1.5,1.8-2.7
		C140.2,190,139.5,189.3,138.6,189.1z"/>
	<path class="st1" d="M138.6,238.4H35.8c-1.1-0.2-2.2,0.5-2.5,1.7c0,0.1,0,0.2,0,0.2c-0.2,1.2,0.7,2.3,1.9,2.5c0,0,0.1,0,0.1,0
		h103.3c1.2-0.1,2.1-1.2,2-2.4c0,0,0-0.1,0-0.1C140.5,239.3,139.6,238.4,138.6,238.4z"/>
	<path class="st1" d="M138.6,229.5H35.8c-1.1-0.2-2.2,0.5-2.5,1.7c0,0.1,0,0.2,0,0.3c-0.1,1.2,0.8,2.3,2,2.4c0,0,0,0,0,0h103.3
		c1.2,0,2.2-1,2.2-2.2C140.8,230.5,139.8,229.5,138.6,229.5z"/>
	<path class="st1" d="M138.6,287.4H35.8c-1.1-0.2-2.2,0.5-2.5,1.7c0,0.1,0,0.2,0,0.3c-0.1,1.2,0.8,2.3,2,2.4c0,0,0,0,0,0h103.3
		c1.2,0,2.2-1,2.2-2.2C140.8,288.4,139.8,287.4,138.6,287.4z"/>
	<path class="st1" d="M138.6,278.5H35.8c-1.2-0.1-2.3,0.8-2.5,2c-0.1,1.2,0.8,2.3,2,2.4c0,0,0,0,0,0l0,0c0.1,0.1,0.4,0.1,0.5,0
		h102.8c1.2,0,2.2-1,2.2-2.2C140.8,279.5,139.8,278.5,138.6,278.5z"/>
	<path class="st1" d="M342.1,136.5c-3.1-0.1-5.7,3.5-5.8,7.9l0,0V298c0,13.4-7.7,24.2-17.3,24.2H28.9c-9.6,0-17.3-10.8-17.3-24.2
		l0,0V40.3c0-13.4,7.7-24.2,17.3-24.2h180.3c3.1,0.5,5.9-2.6,6.3-7V8.9c0.4-4.4-1.9-8.4-5.1-8.9H28.9C13,0,0,18,0,40.3V298
		c-0.1,22.2,12.8,40.2,28.7,40.3H319c15.9,0.1,28.8-17.9,28.8-40.1l0,0V144.5C347.8,140.1,345.3,136.5,342.1,136.5z"/>
	<path class="st1" d="M120.6,137.5H46.9c-2,0-3.7,2-3.7,4.3s1.7,4.3,3.7,4.3h73.7c2,0,3.6-1.9,3.6-4.3S122.6,137.5,120.6,137.5
		L120.6,137.5z"/>
	<path class="st1" d="M306.4,137.5h-73.7c-2,0-3.6,2-3.6,4.3s1.6,4.3,3.6,4.3h73.7c2.1,0,3.7-1.9,3.7-4.3S308.5,137.5,306.4,137.5
		L306.4,137.5z"/>
</g>
<g id="Layer_5">
	<path class="st1" d="M5.8,136.6c3.2,0,5.8,3.6,5.8,8.1l0,0v153.5c0,13.4,7.7,24.2,17.3,24.2H319c9.6,0,17.3-10.8,17.3-24.2l0,0
		V40.5c0-13.4-7.7-24.2-17.3-24.2H138.7c-3.2-0.5-5.5-4.5-5.2-8.9s2.5-6.8,5.2-7.2H319c15.9-0.1,28.8,17.9,28.8,40.1l0,0v257.9
		c0.1,22.2-12.8,40.2-28.7,40.3H28.9C13,338.5,0,320.5,0,298.2V144.7C0,140.2,2.6,136.7,5.8,136.6z"/>
</g>
<path class="st2" d="M155.5,94.1l15.2,0.5l5.5,8.6c-0.5,0.1-0.9,0.5-0.9,0.8s0.9,1.1,2,1.1h0.1l0.4,0.6c-0.9,0-1.7,0.5-1.7,1
	s0.9,1,2,1h1l2.4,3.8h3.1l-3.4-18l11-1.3l6.2,6.5V81.8l-6.4,6.1l-10.8-1.2l3.9-17.2h-3.6l-1.7,2.6h-0.5c-1.1,0-2,0.4-2,1
	s0.5,0.8,1.3,1l-0.7,1h-0.6c-1.1,0-2,0.5-2,1s0.6,0.9,1.3,1l-5.7,8.9l-15,0.6c0,0-3.3,0.7-3.4,3.4S155.5,94.1,155.5,94.1z"/>
<path class="st3" d="M268.1,51.5h2c18.8,0,34,15.2,34,34v3.3c0,18.8-15.2,34-34,34h-2c-18.8,0-34-15.2-34-34v-3.3
	C234.1,66.7,249.3,51.5,268.1,51.5z"/>
<path class="st3" d="M82.3,51.5h2c18.8,0,34,15.2,34,34v3.3c0,18.8-15.2,34-34,34h-2c-18.8,0-34-15.2-34-34v-3.3
	C48.3,66.7,63.5,51.5,82.3,51.5z"/>
</svg>
