<?xml version="1.0" encoding="utf-8"?>
<!-- Generator: Adobe Illustrator 24.0.2, SVG Export Plug-In . SVG Version: 6.00 Build 0)  -->
<svg version="1.1" id="Layer_1" xmlns:svgjs="http://svgjs.com/svgjs"
	 xmlns="http://www.w3.org/2000/svg" xmlns:xlink="http://www.w3.org/1999/xlink" x="0px" y="0px" viewBox="0 0 512 512"
	 style="enable-background:new 0 0 512 512;" xml:space="preserve">
<style type="text/css">
	.st0{fill:#FFFFFF;}
	.st1{fill:#067FC8;}
	.st2{fill:#EDF1F0;}
	.st3{fill:#273238;}
</style>
<g>
	<g>
		<g>
			<path class="st0" d="M444.2,184.7v239.6c0,16.6-13.4,30-30,30h-377c-16.6,0-30-13.4-30-30V184.7c0-16.6,13.4-30,30-30h377
				C430.8,154.7,444.2,168.1,444.2,184.7z"/>
			<path class="st0" d="M171.9,349.3H82.2c-16.6,0-30-13.4-30-30v-89.6c0-16.6,13.4-30,30-30h89.6c16.6,0,30,13.4,30,30v89.6
				C201.9,335.9,188.4,349.3,171.9,349.3z"/>
			<circle class="st1" cx="127.1" cy="265.9" r="36.2"/>
			<path class="st1" d="M82.2,349.3h89.6c2.9,0,5.6-0.4,8.2-1.2c-3.7-26-26-46-53-46s-49.4,20-53,46
				C76.6,348.9,79.4,349.3,82.2,349.3L82.2,349.3z"/>
			<g>
				<g>
					<path class="st2" d="M444.2,184.7v99c-13,4.3-26.9,6.7-41.3,6.7c-72.4,0-131.3-58.9-131.3-131.3c0-1.4,0-2.9,0.1-4.3h142.6
						C430.8,154.7,444.2,168.1,444.2,184.7L444.2,184.7z"/>
					<circle class="st2" cx="402.9" cy="159" r="101.3"/>
				</g>
			</g>
		</g>
		<path class="st3" d="M399.5,401.8h-347c-4.1,0-7.5,3.4-7.5,7.5s3.4,7.5,7.5,7.5h347c4.1,0,7.5-3.4,7.5-7.5
			S403.6,401.8,399.5,401.8z M399.5,371.8h-347c-4.1,0-7.5,3.4-7.5,7.5s3.4,7.5,7.5,7.5h347c4.1,0,7.5-3.4,7.5-7.5
			S403.6,371.8,399.5,371.8z M444.5,274.1c-4.1,0-7.5,3.4-7.5,7.5v142.7c0,12.4-10.1,22.5-22.5,22.5h-377
			c-12.4,0-22.5-10.1-22.5-22.5V184.7c0-12.4,10.1-22.5,22.5-22.5h234.3c4.1,0,7.5-3.4,7.5-7.5s-3.4-7.5-7.5-7.5H37.5
			C16.8,147.2,0,164,0,184.7v239.6c0,20.7,16.8,37.5,37.5,37.5h377c20.7,0,37.5-16.8,37.5-37.5V281.6
			C452,277.4,448.6,274.1,444.5,274.1z M403.2,50.2c-60,0-108.8,48.8-108.8,108.8c0,11.6,1.8,22.7,5.2,33.2h-52
			c-4.1,0-7.5,3.4-7.5,7.5s3.4,7.5,7.5,7.5h58.1c2.6,5.3,5.6,10.3,9,15h-67.1c-4.1,0-7.5,3.4-7.5,7.5s3.4,7.5,7.5,7.5h80
			c19.6,19,46.3,30.7,75.6,30.7c60,0,108.8-48.8,108.8-108.8C512,99,463.2,50.2,403.2,50.2z M403.2,252.8
			c-51.7,0-93.8-42.1-93.8-93.8c0-51.7,42.1-93.8,93.8-93.8c51.7,0,93.8,42.1,93.8,93.8C497,210.8,454.9,252.8,403.2,252.8z
			 M72.3,355.4c2.3,0.6,5.8,1.3,10.2,1.4h89.6c19.1,0.4,37.9-16.7,37.5-37.5v-89.6c0-20.7-16.8-37.5-37.5-37.5H82.5
			C61.8,192.2,45,209,45,229.7v89.6C45,336.5,56.6,350.9,72.3,355.4z M83.4,341.8c6-18.8,23.7-32.2,43.9-32.2
			c20.2,0,38,13.4,43.9,32.2H83.4z M98.6,265.9c0-15.8,12.9-28.7,28.7-28.7s28.7,12.9,28.7,28.7s-12.9,28.7-28.7,28.7
			S98.6,281.8,98.6,265.9z M60,229.7c0-12.4,10.1-22.5,22.5-22.5h89.6c12.4,0,22.5,10.1,22.5,22.5v89.6c0,7.4-3.6,13.9-9.1,18
			c-5.1-16.2-16.8-29.4-31.8-36.6c10.5-8,17.3-20.6,17.3-34.8c0-24.1-19.6-43.7-43.7-43.7s-43.7,19.6-43.7,43.7
			c0,14.2,6.8,26.8,17.3,34.8c-15,7.2-26.7,20.4-31.8,36.6c-5.5-4.1-9.1-10.7-9.1-18L60,229.7z M440.6,132.7l-52,52
			c-0.7,0.7-1.9,0.7-2.6,0l-20.2-20.2c-2.9-2.9-7.7-2.9-10.6,0c-2.9,2.9-2.9,7.7,0,10.6l20.2,20.2c3.3,3.3,7.6,4.9,11.9,4.9
			s8.6-1.6,11.9-4.9l52-52c2.9-2.9,2.9-7.7,0-10.6C448.3,129.8,443.5,129.8,440.6,132.7z M399.5,311.8h-152c-4.1,0-7.5,3.4-7.5,7.5
			s3.4,7.5,7.5,7.5h152c4.1,0,7.5-3.4,7.5-7.5S403.6,311.8,399.5,311.8z M399.5,341.8h-152c-4.1,0-7.5,3.4-7.5,7.5s3.4,7.5,7.5,7.5
			h152c4.1,0,7.5-3.4,7.5-7.5S403.6,341.8,399.5,341.8z"/>
	</g>
</g>
</svg>
