<?xml version="1.0"?>
<svg xmlns="http://www.w3.org/2000/svg" xmlns:xlink="http://www.w3.org/1999/xlink" xmlns:svgjs="http://svgjs.com/svgjs" version="1.1" width="512" height="512" x="0" y="0" viewBox="0 0 504.936 504.936" style="enable-background:new 0 0 512 512" xml:space="preserve" class=""><g><g xmlns="http://www.w3.org/2000/svg"><g><path d="m481.641 301.13c-4.901 22.258-13.128 43.632-24.358 63.356-6.808 11.977-14.722 23.345-23.658 33.94-24.893 29.536-57.708 53.056-96.715 66.949-23.677 8.439-47.823 12.668-71.638 13.11-8.089.148-16.122-.147-24.1-.857-4.754-.424-9.48-1.004-14.169-1.723-32.945-5.085-64.342-17.43-91.842-35.92-38.684-25.998-69.694-64.185-86.526-111.465-16.841-47.289-16.961-96.476-3.418-141.074 20.073-66.149 70.162-122.236 140.271-147.202 18.398-6.55 37.072-10.576 55.654-12.235 78.235-7.048 154.811 27.564 201.335 90.349 12.971 17.495 23.603 37.164 31.286 58.74 14.723 41.348 16.667 84.132 7.878 124.032z" fill="#ffffff" data-original="#3c87d0" style="" class=""/><path d="m441.542 301.129c-4.901 22.261-13.132 43.634-24.36 63.356-25.805 45.352-67.369 82.014-120.376 100.888-18.385 6.551-37.063 10.574-55.633 12.253-38.098-3.417-74.594-16.52-106.014-37.639-38.684-26.001-69.693-64.186-86.525-111.471-16.842-47.285-16.959-96.475-3.417-141.075 20.074-66.149 70.162-122.231 140.274-147.197 18.395-6.551 37.073-10.574 55.653-12.234 63.61 5.702 122.729 38.371 161.237 90.343 12.966 17.496 23.609 37.17 31.293 58.748 14.712 41.34 16.655 84.124 7.868 124.028z" fill="#edf1f0" data-original="#5f99d7" style="" class=""/><path d="m481.641 301.129-44.161 15.729-13.913 4.95c-24.321 8.66-51.054-4.032-59.705-28.334l-5.926-16.627-7.43 2.646c-17.78 6.337-37.326-2.939-43.653-20.718l-17.653-49.56c-6.327-17.78 2.949-37.326 20.728-43.653l100.39-35.754 32.161-11.453c12.966 17.496 23.599 37.17 31.283 58.748 14.724 41.338 16.667 84.122 7.879 124.026z" fill="#edf1f0" data-original="#0ab69f" style="" class=""/><path d="m441.542 301.129c-1.162 5.302-2.519 10.545-4.062 15.729l-13.913 4.95c-24.321 8.66-51.054-4.032-59.705-28.334l-5.926-16.627-7.43 2.646c-17.78 6.337-37.326-2.939-43.653-20.718l-17.653-49.56c-6.327-17.78 2.949-37.326 20.728-43.653l100.39-35.754c9.422 14.489 17.301 30.306 23.355 47.295 14.713 41.338 16.656 84.122 7.869 124.026z" fill="#ffffff" data-original="#5de1c4" style="" class=""/><path d="m106.479 249.429.206.597c7.863 22.024-3.649 46.252-25.673 54.104l-21.807 7.765-14.335 5.104c-12.999-43.657-12.098-88.487.315-129.45.011-.033.022-.076.033-.109l6.831-2.433h.011l21.796-7.765c17.789-6.342 37.337 2.943 43.668 20.732l3.768 10.567c5.582 15.682-.977 32.743-14.813 40.888z" fill="#edf1f0" data-original="#0ab69f" style="" class=""/><path d="m84.673 257.194.206.597c7.852 22.024-3.649 46.253-25.673 54.104l-14.335 5.104c-12.999-43.657-12.098-88.487.315-129.45.011-.033.022-.076.033-.109l6.831-2.433h.011c17.789-6.342 37.326 2.943 43.646 20.732l3.779 10.578c5.582 15.671-.978 32.732-14.813 40.877z" fill="#ffffff" data-original="#5de1c4" style="" class=""/><path d="m297.802 107.097c0 15.143-9.412 29.34-24.497 34.71l-33.04 11.765c-.068.029-.127.059-.195.078l-27.787 9.891c-19.166 6.825-40.226-3.183-47.051-22.349-1.455-4.081-2.148-8.26-2.148-12.361 0-15.143 9.402-29.33 24.487-34.7l27.777-9.891 33.235-11.843c19.166-6.825 40.236 3.183 47.07 22.349 1.456 4.081 2.149 8.25 2.149 12.351z" fill="#47a0b0" data-original="#c8effe" style="" class=""/><path d="m264.557 118.94c0 15.075-9.324 29.213-24.292 34.632-.068.029-.127.059-.195.078l-27.787 9.891c-19.166 6.825-40.226-3.183-47.051-22.349-1.455-4.081-2.148-8.26-2.148-12.361 0-15.143 9.402-29.33 24.487-34.7l27.777-9.891c19.166-6.825 40.236 3.173 47.061 22.339 1.454 4.081 2.148 8.26 2.148 12.361z" fill="#ffffff" data-original="#eaf6ff" style="" class=""/><path d="m433.624 398.426c-24.893 29.536-57.708 53.056-96.715 66.949-23.677 8.439-47.823 12.668-71.638 13.11-8.089.148-16.122-.147-24.1-.857-1.327-.12-2.644-.249-3.961-.396-3.418-.359-6.827-.811-10.208-1.327 4.606-21.033 19.623-39.274 41.411-47.031l48.68-17.338 58.252-20.756c8.946-3.188 18.121-4.275 27.002-3.529 11.267.939 22.055 4.836 31.277 11.175z" fill="#47a0b0" data-original="#c8effe" style="" class=""/><path d="m402.347 387.251c-25.731 34.769-61.725 62.518-105.541 78.124-18.389 6.55-37.063 10.576-55.636 12.253-1.327-.12-2.644-.249-3.961-.396-3.418-.359-6.817-.811-10.208-1.327 4.606-21.033 19.623-39.274 41.411-47.031l48.68-17.338 58.252-20.756c8.946-3.189 18.122-4.276 27.003-3.529z" fill="#ffffff" data-original="#eaf6ff" style="" class=""/><path d="m228.275 366.345 171.141-130.883s-27.016-30.13-50.166-13.037-66.967 53.023-66.967 53.023l-71.022-20.292-29.856 16.083 49.986 37.017-31.14 33.723-39.506-1.831-13.32 11.027 22.77 16.017c9.308 6.548 20.686 9.472 31.997 8.223l4.785-.528c7.744-.855 15.108-3.808 21.298-8.542z" fill="#47a0b0" data-original="#d3e1f5" style="" class=""/></g><g><path d="m475.371 181.383c-3.97 1.182-6.229 5.358-5.047 9.328 10.122 33.984 11.753 70.115 4.813 104.773l-54.085 19.26c-9.877 3.517-20.529 2.978-29.998-1.517-9.466-4.493-16.614-12.401-20.127-22.271-2.006-5.627-3.355-14.076-7.147-18.8l40.191-30.737c7.792-5.955-1.553-14.023-6.321-17.949l78.387-59.845c32.245-24.616 38.45-70.876 13.833-103.121-27.771-36.38-76.57-35.555-110.178-8.446-7.402-4.368-15.041-8.361-22.914-11.901-64.567-29.034-140.167-26.769-203.041 5.684-57.672 29.766-100.824 83.908-117.728 146.499-10.752 39.813-10.658 82.13.272 121.895l-7.383 5.637c-32.245 24.617-38.45 70.878-13.833 103.122 14.462 18.942 36.393 28.898 58.563 28.898 15.533 0 31.184-4.89 44.466-14.998 98.545 76.415 244.56 60.263 323.536-36.371 23.149-28.325 39.468-62.057 47.334-97.78 8.449-38.357 6.975-78.578-4.266-116.313-1.181-3.971-5.36-6.231-9.327-5.047zm-251.652 179.004c-13.588 10.391-35.392 10.391-49.21.672l-14.738-10.368 3.521-2.916 36.611 1.696c2.214.105 4.355-.778 5.856-2.404l31.14-33.724c2.984-3.23 2.487-8.498-1.046-11.115l-40.495-29.987 16.773-9.036 68.09 19.455c2.368.676 4.913.146 6.816-1.412.21-.172 10.386-8.511 23.42-18.988.006-.004.011-.01.017-.014 14.058-11.299 31.436-25.081 43.229-33.788 11.873-8.763 26.178-.028 34.101 6.442zm121.075-143.996c-9.688 7.153-23.045 17.644-35.307 27.428l-13.22-37.119c-4.878-13.704 2.498-29.207 16.178-34.073l127.24-45.315c6.93 9.867 13.054 20.338 18.268 31.25l-73.636 56.218c-11.963-5.901-26.408-8.072-39.523 1.611zm51.056-157.798c25.39-19.385 62.733-14.353 82.099 11.013 18.779 24.599 15.013 59.432-7.918 79.543-6.112-12.34-13.298-24.142-21.464-35.168-.061-.085-.124-.169-.189-.251-15.317-20.631-34.04-38.562-55.211-53.088zm-296.461 193.28.233.675c3.128 8.761 2.651 18.218-1.341 26.629-3.992 8.41-11.02 14.764-19.784 17.889l-28.557 10.167c-9.741-37.526-9.303-76.511 1.397-114.01 13.657-4.852 31.115-14.689 45.433-7.888 6.437 3.057 11.298 8.438 13.689 15.159l3.768 10.562c4.281 12.029-.577 25.449-11.552 31.91-3.074 1.809-4.448 5.535-3.286 8.907zm235.001 206.437c-31.197 11.12-64.807 15.068-97.721 11.315 5.847-15.661 18.198-27.967 34.26-33.687l106.933-38.095c14.349-5.112 30.405-4.204 44.103 2.456-23.896 26.069-53.99 46.049-87.575 58.011zm116.372-97.532c-5.528 9.724-11.841 19.05-18.796 27.814-17.976-9.961-39.779-11.778-59.139-4.878l-106.93 38.093c-21.309 7.587-37.469 24.34-44.341 45.553-32.884-6.134-64.295-19.888-91.094-39.905l34.899-26.644c3.293-2.514 3.924-7.22 1.41-10.512-2.514-3.293-7.221-3.926-10.512-1.41l-47.173 36.015c-25.672 19.598-62.5 14.655-82.099-11.013-19.597-25.67-14.657-62.499 11.013-82.098l3.031-2.314c.181.518.353 1.038.537 1.556 10.718 30.106 27.096 57.153 48.679 80.391 6.531 7.032 17.517-3.183 10.99-10.209-20.187-21.733-35.508-47.038-45.538-75.214-.517-1.451-1.016-2.906-1.501-4.363l29.334-10.444c12.54-4.471 22.591-13.558 28.301-25.586 4.974-10.478 6.133-22.091 3.413-33.145 13.605-10.943 19.117-29.57 13.111-46.443l-3.768-10.562c-3.733-10.492-11.329-18.899-21.386-23.675-15.263-7.247-31.203-2.741-45.831 3.369 20.155-52.676 60.934-96.466 112.083-120.248 57.324-26.654 124.48-26.722 181.965-.592 30.415 13.825 57.604 34.585 78.761 60.459l-122.767 43.722c-21.38 7.608-32.9 31.817-25.278 53.236l14.968 42.023c-7.167 5.778-13.136 10.635-16.53 13.404l-67.252-19.215c-1.877-.534-3.896-.319-5.617.609l-29.856 16.083c-4.736 2.55-5.232 9.428-.907 12.63l43.27 32.042-23.101 25.018-36.019-1.669c-5.168-.196-10.593 6.239-14.234 9.252-4.517 3.739-11.081 10.242-3.748 15.4l22.77 16.018c9.175 6.454 20.061 9.872 31.176 9.872 12.697 0 25.567-3.088 35.776-10.896l109.086-83.426c2.977-.208 10.132-2.874 11.812-1.496 1.405 1.152 2.413 6.769 3.069 8.609 4.855 13.643 14.738 24.577 27.825 30.789 12.934 6.138 27.968 6.899 41.459 2.097l44.833-15.964c-4.796 16.696-11.544 32.747-20.154 47.867z" fill="#273238" data-original="#000000" style="" class=""/><path d="m180.91 168.887c10.578 5.024 22.854 5.649 33.887 1.719l61.023-21.733c17.634-6.277 29.481-23.065 29.481-41.775 0-30.166-30.889-51.859-59.236-41.765l-61.01 21.733c-17.629 6.274-29.473 23.059-29.473 41.765.001 16.976 10.015 32.781 25.328 40.056zm9.176-67.691 61.013-21.734c18.769-6.684 39.203 7.684 39.203 27.635 0 12.38-7.842 23.489-19.513 27.645l-61.022 21.733c-18.818 6.7-39.184-7.689-39.184-27.645 0-12.377 7.837-23.481 19.503-27.634z" fill="#273238" data-original="#000000" style="" class=""/></g></g></g></svg>
