<?xml version="1.0" encoding="utf-8"?>
<!-- Generator: Adobe Illustrator 24.0.2, SVG Export Plug-In . SVG Version: 6.00 Build 0)  -->
<svg version="1.1" id="Layer_1" xmlns:svgjs="http://svgjs.com/svgjs"
	 xmlns="http://www.w3.org/2000/svg" xmlns:xlink="http://www.w3.org/1999/xlink" x="0px" y="0px" viewBox="0 0 512 512"
	 style="enable-background:new 0 0 512 512;" xml:space="preserve">
<style type="text/css">
	.st0{fill:#FFFFFF;}
	.st1{fill:#EDF1F0;}
	.st2{fill:#067FC8;}
	.st3{fill:#273238;}
</style>
<g>
	<g>
		<g>
			<path class="st0" d="M488.4,305.3c-5,22.6-13.3,44.2-24.7,64.2c-6.9,12.1-14.9,23.7-24,34.4c-25.2,29.9-58.5,53.8-98.1,67.9
				c-24,8.6-48.5,12.8-72.6,13.3c-8.2,0.2-16.3-0.1-24.4-0.9c-4.8-0.4-9.6-1-14.4-1.7c-33.4-5.2-65.2-17.7-93.1-36.4
				c-39.2-26.4-70.7-65.1-87.7-113c-17.1-48-17.2-97.8-3.5-143C66.2,123,117,66.1,188.1,40.8c18.7-6.6,37.6-10.7,56.4-12.4
				c79.3-7.1,157,27.9,204.2,91.6c13.2,17.7,23.9,37.7,31.7,59.6C495.3,221.5,497.3,264.9,488.4,305.3z"/>
			<path class="st1" d="M447.7,305.3c-5,22.6-13.3,44.2-24.7,64.2c-26.2,46-68.3,83.2-122.1,102.3c-18.6,6.6-37.6,10.7-56.4,12.4
				c-38.6-3.5-75.6-16.8-107.5-38.2c-39.2-26.4-70.7-65.1-87.7-113c-17.1-47.9-17.2-97.8-3.5-143C66.2,123,117,66.1,188.1,40.8
				c18.7-6.6,37.6-10.7,56.4-12.4C309,34.2,369,67.3,408,120c13.1,17.7,23.9,37.7,31.7,59.6C454.7,221.5,456.6,264.9,447.7,305.3
				L447.7,305.3z"/>
			<path class="st1" d="M488.4,305.3l-44.8,15.9l-14.1,5c-24.7,8.8-51.8-4.1-60.5-28.7l-6-16.9l-7.5,2.7c-18,6.4-37.8-3-44.3-21
				l-17.9-50.3c-6.4-18,3-37.8,21-44.3l101.8-36.3l32.6-11.6c13.1,17.7,23.9,37.7,31.7,59.6C495.3,221.5,497.3,264.9,488.4,305.3z"
				/>
			<path class="st0" d="M447.7,305.3c-1.2,5.4-2.6,10.7-4.1,15.9l-14.1,5c-24.7,8.8-51.8-4.1-60.5-28.7l-6-16.9l-7.5,2.7
				c-18,6.4-37.8-3-44.3-21l-17.9-50.3c-6.4-18,3-37.8,21-44.3l101.8-36.3c9.6,14.7,17.5,30.7,23.7,48
				C454.7,221.5,456.6,264.9,447.7,305.3z"/>
			<path class="st1" d="M108,252.9l0.2,0.6c8,22.3-3.7,46.9-26,54.9L60,316.3l-14.5,5.2c-13.2-44.3-12.3-89.7,0.3-131.3
				c0,0,0-0.1,0-0.1l6.9-2.5h0l22.1-7.9c18-6.4,37.9,3,44.3,21l3.8,10.7C128.6,227.4,122,244.7,108,252.9L108,252.9z"/>
			<path class="st0" d="M85.9,260.8l0.2,0.6c8,22.3-3.7,46.9-26,54.9l-14.5,5.2c-13.2-44.3-12.3-89.7,0.3-131.3c0,0,0-0.1,0-0.1
				l6.9-2.5h0c18-6.4,37.8,3,44.3,21l3.8,10.7C106.5,235.2,99.9,252.5,85.9,260.8z"/>
			<path class="st2" d="M302,108.6c0,15.4-9.5,29.8-24.8,35.2l-33.5,11.9c-0.1,0-0.1,0.1-0.2,0.1l-28.2,10
				c-19.4,6.9-40.8-3.2-47.7-22.7c-1.5-4.1-2.2-8.4-2.2-12.5c0-15.4,9.5-29.7,24.8-35.2l28.2-10l33.7-12
				c19.4-6.9,40.8,3.2,47.7,22.7C301.3,100.2,302,104.4,302,108.6L302,108.6z"/>
			<path class="st0" d="M268.3,120.6c0,15.3-9.5,29.6-24.6,35.1c-0.1,0-0.1,0.1-0.2,0.1l-28.2,10c-19.4,6.9-40.8-3.2-47.7-22.7
				c-1.5-4.1-2.2-8.4-2.2-12.5c0-15.4,9.5-29.7,24.8-35.2l28.2-10c19.4-6.9,40.8,3.2,47.7,22.7C267.6,112.2,268.3,116.4,268.3,120.6
				L268.3,120.6z"/>
			<path class="st2" d="M439.7,404c-25.2,29.9-58.5,53.8-98.1,67.9c-24,8.6-48.5,12.8-72.6,13.3c-8.2,0.2-16.3-0.1-24.4-0.9
				c-1.3-0.1-2.7-0.3-4-0.4c-3.5-0.4-6.9-0.8-10.4-1.3c4.7-21.3,19.9-39.8,42-47.7l49.4-17.6l59.1-21c9.1-3.2,18.4-4.3,27.4-3.6
				C419.4,393.6,430.3,397.6,439.7,404L439.7,404z"/>
			<path class="st0" d="M408,392.7c-26.1,35.3-62.6,63.4-107,79.2c-18.6,6.6-37.6,10.7-56.4,12.4c-1.3-0.1-2.7-0.3-4-0.4
				c-3.5-0.4-6.9-0.8-10.4-1.3c4.7-21.3,19.9-39.8,42-47.7l49.4-17.6l59.1-21C389.7,393,399,391.9,408,392.7L408,392.7z"/>
			<path class="st2" d="M231.5,371.5L405,238.8c0,0-27.4-30.6-50.9-13.2c-23.5,17.3-67.9,53.8-67.9,53.8l-72-20.6L183.9,275
				l50.7,37.5l-31.6,34.2l-40.1-1.9l-13.5,11.2l23.1,16.2c9.4,6.6,21,9.6,32.4,8.3l4.9-0.5C217.7,379.3,225.2,376.3,231.5,371.5z"/>
		</g>
		<g>
			<path class="st3" d="M482,183.9c-4,1.2-6.3,5.4-5.1,9.5c10.3,34.5,11.9,71.1,4.9,106.2l-54.8,19.5c-10,3.6-20.8,3-30.4-1.5
				c-9.6-4.6-16.8-12.6-20.4-22.6c-2-5.7-3.4-14.3-7.2-19.1l40.8-31.2c7.9-6-1.6-14.2-6.4-18.2l79.5-60.7c32.7-25,39-71.9,14-104.6
				c-28.2-36.9-77.6-36.1-111.7-8.6c-7.5-4.4-15.3-8.5-23.2-12.1c-65.5-29.4-142.1-27.1-205.9,5.8C97.4,76.7,53.7,131.6,36.5,195
				c-10.9,40.4-10.8,83.3,0.3,123.6l-7.5,5.7c-32.7,25-39,71.9-14,104.6c14.7,19.2,36.9,29.3,59.4,29.3c15.8,0,31.6-5,45.1-15.2
				c99.9,77.5,248,61.1,328.1-36.9c23.5-28.7,40-62.9,48-99.1c8.6-38.9,7.1-79.7-4.3-117.9C490.3,185,486,182.7,482,183.9L482,183.9
				z M226.8,365.4C213.1,376,191,376,177,366.1L162,355.6l3.6-3l37.1,1.7c2.2,0.1,4.4-0.8,5.9-2.4l31.6-34.2c3-3.3,2.5-8.6-1.1-11.3
				L198.1,276l17-9.2l69,19.7c2.4,0.7,5,0.1,6.9-1.4c0.2-0.2,10.5-8.6,23.7-19.3c0,0,0,0,0,0c14.3-11.5,31.9-25.4,43.8-34.3
				c12-8.9,26.5,0,34.6,6.5L226.8,365.4z M349.6,219.4c-9.8,7.3-23.4,17.9-35.8,27.8l-13.4-37.6c-4.9-13.9,2.5-29.6,16.4-34.5
				l129-45.9c7,10,13.2,20.6,18.5,31.7l-74.7,57C377.6,211.8,362.9,209.6,349.6,219.4L349.6,219.4z M401.4,59.4
				c25.7-19.7,63.6-14.6,83.2,11.2c19,24.9,15.2,60.3-8,80.7c-6.2-12.5-13.5-24.5-21.8-35.7c-0.1-0.1-0.1-0.2-0.2-0.3
				c-15.5-20.9-34.5-39.1-56-53.8L401.4,59.4z M100.8,255.4l0.2,0.7c3.2,8.9,2.7,18.5-1.4,27c-4,8.5-11.2,15-20.1,18.1l-29,10.3
				c-9.9-38.1-9.4-77.6,1.4-115.6c13.8-4.9,31.6-14.9,46.1-8c6.5,3.1,11.5,8.6,13.9,15.4l3.8,10.7c4.3,12.2-0.6,25.8-11.7,32.4
				C101,248.2,99.6,252,100.8,255.4z M339.1,464.7C307.4,476,273.4,480,240,476.2c5.9-15.9,18.5-28.4,34.7-34.2l108.4-38.6
				c14.5-5.2,30.8-4.3,44.7,2.5C403.6,432.3,373.1,452.6,339.1,464.7z M457.1,365.8c-5.6,9.9-12,19.3-19.1,28.2
				c-18.2-10.1-40.3-11.9-60-4.9l-108.4,38.6c-21.6,7.7-38,24.7-45,46.2c-33.3-6.2-65.2-20.2-92.4-40.5l35.4-27
				c3.3-2.5,4-7.3,1.4-10.7c-2.5-3.3-7.3-4-10.7-1.4l-47.8,36.5c-26,19.9-63.4,14.9-83.2-11.2c-19.9-26-14.9-63.4,11.2-83.2l3.1-2.3
				c0.2,0.5,0.4,1.1,0.5,1.6c10.9,30.5,27.5,58,49.4,81.5c6.6,7.1,17.8-3.2,11.1-10.4c-20.5-22-36-47.7-46.2-76.3
				c-0.5-1.5-1-2.9-1.5-4.4l29.7-10.6c12.7-4.5,22.9-13.7,28.7-25.9c5-10.6,6.2-22.4,3.5-33.6c13.8-11.1,19.4-30,13.3-47.1
				l-3.8-10.7c-3.8-10.6-11.5-19.2-21.7-24c-15.5-7.3-31.6-2.8-46.5,3.4C78.6,124.2,120,79.8,171.8,55.7
				c58.1-27,126.2-27.1,184.5-0.6c30.8,14,58.4,35.1,79.9,61.3l-124.5,44.3c-21.7,7.7-33.4,32.3-25.6,54l15.2,42.6
				c-7.3,5.9-13.3,10.8-16.8,13.6l-68.2-19.5c-1.9-0.5-4-0.3-5.7,0.6l-30.3,16.3c-4.8,2.6-5.3,9.6-0.9,12.8l43.9,32.5L199.9,339
				l-36.5-1.7c-5.2-0.2-10.7,6.3-14.4,9.4c-4.6,3.8-11.2,10.4-3.8,15.6l23.1,16.2c9.3,6.5,20.3,10,31.6,10c12.9,0,25.9-3.1,36.3-11
				l110.6-84.6c3-0.2,10.3-2.9,12-1.5c1.4,1.2,2.4,6.9,3.1,8.7c4.9,13.8,14.9,24.9,28.2,31.2c13.1,6.2,28.4,7,42,2.1l45.5-16.2
				C472.6,334.2,465.8,350.5,457.1,365.8L457.1,365.8z"/>
			<path class="st3" d="M183.4,171.2c10.7,5.1,23.2,5.7,34.4,1.7l61.9-22c17.9-6.4,29.9-23.4,29.9-42.4c0-30.6-31.3-52.6-60.1-42.3
				l-61.9,22c-17.9,6.4-29.9,23.4-29.9,42.3C157.8,147.8,167.9,163.9,183.4,171.2z M192.7,102.6l61.9-22c19-6.8,39.8,7.8,39.8,28
				c0,12.6-8,23.8-19.8,28l-61.9,22c-19.1,6.8-39.7-7.8-39.7-28C173,118.1,180.9,106.8,192.7,102.6L192.7,102.6z"/>
		</g>
	</g>
</g>
</svg>
