<?xml version="1.0" encoding="utf-8"?>
<!-- Generator: Adobe Illustrator 24.0.2, SVG Export Plug-In . SVG Version: 6.00 Build 0)  -->
<svg version="1.1" id="Layer_1" xmlns="http://www.w3.org/2000/svg" xmlns:xlink="http://www.w3.org/1999/xlink" x="0px" y="0px"
	 viewBox="0 0 488 488" style="enable-background:new 0 0 488 488;" xml:space="preserve">
<style type="text/css">
	.st0{fill:#EDF1F0;}
	.st1{fill:#FCA468;}
	.st2{fill:#46A0AE;}
	.st3{fill:#EDF2F0;}
	.st4{fill:#273238;}
</style>
<path class="st0" d="M204,428c-13.3,0-24-10.7-24-24v-8h-12v48h16c10.1,0,19.2-6.4,22.6-16H204z"/>
<path class="st1" d="M48,340v72c0,17.7,14.3,32,32,32h88v-48H96v-56"/>
<path class="st1" d="M48,340v72c0,17.7,14.3,32,32,32H8V332c0-26.5,21.5-48,48-48h32c26.5,0,48,21.5,48,48v64H96v-56"/>
<path class="st0" d="M96,260l-48,16v-24h48V260z"/>
<path class="st0" d="M64,220H48v16h16c4.4,0,8-3.6,8-8v-16C72,216.4,68.4,220,64,220z"/>
<path class="st0" d="M72,172h56v16H72V172z"/>
<path class="st2" d="M432,340v72c0,17.7-14.3,32-32,32h-88v-48h72v-56"/>
<path class="st3" d="M304,428c-13.3,0-24-10.7-24-24c0-0.6,0-1.3,0-1.9c-7.4,6.6-10,17.2-6.5,26.5c3.6,9.3,12.5,15.5,22.5,15.4h16
	v-16H304z"/>
<path class="st2" d="M432,340v72c0,17.7-14.3,32-32,32h72V332c0-26.5-21.5-48-48-48h-32c-26.5,0-48,21.5-48,48v64h40v-56"/>
<path class="st3" d="M432,260l-48,16v-24h48V260z"/>
<path class="st3" d="M416,212c-8.8,0-16-7.2-16-16v-24h-48v24h40v24c0,8.8,7.2,16,16,16h16c8.4,0,16.7-2.3,24-6.5v-20.3
	c-5.1,1.8-10.5,2.8-16,2.8H416z"/>
<path class="st0" d="M168.6,12H152c-8.8,0-16,7.2-16,16v16L88,92h168c13.3,0,24-10.7,24-24h-48C199.8,68,172.6,44,168.6,12z"/>
<path class="st3" d="M264,276c-35.3,0-64-28.7-64-64v-24h-8c-8.8,0-16,7.2-16,16v80c0,8.8,7.2,16,16,16h48l40,48v-48h8
	c8.8,0,16-7.2,16-16v-8H264z"/>
<g>
	<path class="st4" d="M456,236v-21.5c19.5-9.3,32-28.9,32-50.5v-8c0-30.9-25.1-56-56-56h-80c-11.3-0.1-22.1,4.7-29.8,13.1
		s-11.3,19.6-10.2,30.9c2.1,17.3,15,31.3,32,34.9V220c0,19,13.4,35.4,32,39.2v19.1c-23.7,7.1-40,28.9-40,53.7v56h-40
		c-17.7,0-32,14.3-32,32c0,5.6,1.6,11.2,4.5,16h-57c2.9-4.8,4.5-10.4,4.5-16c0-17.7-14.3-32-32-32h-40v-56c0-24.8-16.3-46.6-40-53.7
		v-19.1c18.6-3.8,32-20.2,32-39.2v-41.1c14.1-3.6,24-16.3,24-30.9v-24c0-4.4-3.6-8-8-8H64c-26.5,0-48,21.5-48,48v32
		c0,14.6,9.9,27.2,24,30.9v51.4C16.3,285.4,0,307.2,0,332v144c0,4.4,3.6,8,8,8h464c4.4,0,8-3.6,8-8V332c0-24.8-16.3-46.6-40-53.7
		v-19.8C449.6,255.2,456,246.1,456,236z M328,142.4c-0.6-6.7,1.7-13.4,6.2-18.4c4.5-5.1,11-8,17.8-8h80c22.1,0,40,17.9,40,40v8
		c-0.1,17.9-12.1,33.6-29.4,38.4l-3.4,0.9c-2.4,0.4-4.8,0.7-7.3,0.7h-16c-4.4,0-8-3.6-8-8v-24c0-4.4-3.6-8-8-8h-46.6
		C340.6,164.3,329.7,155,328,142.4z M360,220v-40h32v16c0,13.3,10.7,24,24,24h16c2.5,0,4.9-0.2,7.4-0.6h0.6V236c0,4.4-3.6,8-8,8h-48
		C370.7,244,360,233.3,360,220z M280,420c0-8.8,7.2-16,16-16h8v32h-8C287.2,436,280,428.8,280,420z M200,420c0,8.8-7.2,16-16,16h-8
		v-32h8C192.8,404,200,411.2,200,420z M120,220c0,13.3-10.7,24-24,24H56v-16h8c8.8,0,16-7.2,16-16v-32h40V220z M32,196v-32
		c0-17.7,14.3-32,32-32h80v16c0,8.8-7.2,16-16,16H72c-4.4,0-8,3.6-8,8v40H48C39.2,212,32,204.8,32,196z M56,260h32v16H56V260z
		 M16,332c0-22.1,17.9-40,40-40h32c22.1,0,40,17.9,40,40v56h-24v-48c0-4.4-3.6-8-8-8s-8,3.6-8,8v56c0,4.4,3.6,8,8,8h64v32H80
		c-13.3,0-24-10.7-24-24v-72c0-4.4-3.6-8-8-8s-8,3.6-8,8v72c0,8.7,2.8,17.1,8,24H16V332z M464,468H16v-16h448V468z M464,332v104h-32
		c5.2-6.9,8-15.3,8-24v-72c0-4.4-3.6-8-8-8s-8,3.6-8,8v72c0,13.3-10.7,24-24,24h-80v-32h64c4.4,0,8-3.6,8-8v-56c0-4.4-3.6-8-8-8
		s-8,3.6-8,8v48h-24v-56c0-22.1,17.9-40,40-40h32C446.1,292,464,309.9,464,332z M392,276v-16h32v16H392z"/>
	<path class="st4" d="M88,100h168c17.7,0,32-14.3,32-32V28c0-13.3-10.7-24-24-24H152c-13.3,0-24,10.7-24,24v12.7L82.3,86.3
		c-2.3,2.3-2.9,5.7-1.7,8.7C81.9,98,84.8,100,88,100z M141.7,49.7c1.5-1.5,2.3-3.6,2.3-5.7V28c0-4.4,3.6-8,8-8h112c4.4,0,8,3.6,8,8
		v40c0,8.8-7.2,16-16,16H107.3L141.7,49.7z"/>
	<path class="st1" d="M200,44h-32c-4.4,0-8,3.6-8,8s3.6,8,8,8h32c4.4,0,8-3.6,8-8S204.4,44,200,44z"/>
	<path class="st1" d="M248,44h-16c-4.4,0-8,3.6-8,8s3.6,8,8,8h16c4.4,0,8-3.6,8-8S252.4,44,248,44z"/>
	<path class="st4" d="M192,180c-13.3,0-24,10.7-24,24v80c0,13.3,10.7,24,24,24h44.2l37.6,45.1c2.2,2.6,5.7,3.6,8.9,2.4
		c3.2-1.1,5.3-4.2,5.3-7.5v-40c13.3,0,24-10.7,24-24v-80c0-13.3-10.7-24-24-24H192z M296,204v80c0,4.4-3.6,8-8,8h-8
		c-4.4,0-8,3.6-8,8v25.9l-25.8-31c-1.5-1.8-3.8-2.9-6.2-2.9h-48c-4.4,0-8-3.6-8-8v-80c0-4.4,3.6-8,8-8h96
		C292.4,196,296,199.6,296,204z"/>
	<path class="st2" d="M208,228h24c4.4,0,8-3.6,8-8s-3.6-8-8-8h-24c-4.4,0-8,3.6-8,8S203.6,228,208,228z"/>
	<path class="st2" d="M264,260h-56c-4.4,0-8,3.6-8,8s3.6,8,8,8h56c4.4,0,8-3.6,8-8S268.4,260,264,260z"/>
	<path class="st2" d="M272,228h-16c-4.4,0-8,3.6-8,8s3.6,8,8,8h16c4.4,0,8-3.6,8-8S276.4,228,272,228z"/>
</g>
</svg>
