<?xml version="1.0" encoding="utf-8"?>
<!-- Generator: Adobe Illustrator 24.0.2, SVG Export Plug-In . SVG Version: 6.00 Build 0)  -->
<svg version="1.1" id="Layer_1" xmlns="http://www.w3.org/2000/svg" xmlns:xlink="http://www.w3.org/1999/xlink" x="0px" y="0px"
	 viewBox="0 0 488 480" style="enable-background:new 0 0 488 480;" xml:space="preserve">
<style type="text/css">
	.st0{fill:#EDF1F0;}
	.st1{fill:#FF9A00;}
	.st2{fill:#067FC8;}
	.st3{fill:#EDF2F0;}
	.st4{fill:#273238;}
</style>
<title>talk</title>
<path class="st0" d="M281.4,424c3.4,9.6,12.4,16,22.6,16h16v-48h-12v8c0.1,13.2-10.6,23.9-23.8,24c-0.1,0-0.1,0-0.2,0H281.4z"/>
<path class="st1" d="M392,336v56h-72v48h88c17.7,0,32-14.3,32-32v-72"/>
<path class="st1" d="M392,336v56h-40v-64c0-26.5,21.5-48,48-48h32c26.5,0,48,21.5,48,48v112h-72c17.7,0,32-14.3,32-32v-72"/>
<path class="st0" d="M392,248h48v24l-48-16V248z"/>
<path class="st0" d="M416,208v16c0,4.4,3.6,8,8,8h16v-16h-16C419.6,216,416,212.4,416,208z"/>
<path class="st0" d="M416,184h-56v-16h56V184z"/>
<path class="st2" d="M104,336v56h72v48H88c-17.7,0-32-14.3-32-32v-72"/>
<path class="st3" d="M176,424v16h16c10,0.1,19-6.1,22.5-15.4c3.5-9.3,0.9-19.8-6.5-26.5v1.9c0.1,13.2-10.6,23.9-23.8,24
	c-0.1,0-0.1,0-0.2,0H176z"/>
<path class="st2" d="M104,336v56h40v-64c0-26.5-21.5-48-48-48H64c-26.5,0-48,21.5-48,48v112h72c-17.7,0-32-14.3-32-32v-72"/>
<path class="st3" d="M56,248h48v24l-48-16V248z"/>
<path class="st3" d="M56,208c-5.5,0-10.9-1-16-2.8v20.3c7.3,4.2,15.6,6.5,24,6.5h16c8.8,0,16-7.2,16-16v-24h40v-24H88v24
	c0,8.8-7.2,16-16,16H56z"/>
<path class="st0" d="M256,64h-48c-0.1,13.2,10.6,23.9,23.8,24c0.1,0,0.1,0,0.2,0h168l-48-48V24c0-8.8-7.2-16-16-16h-16.6
	C315.4,40,288.2,64,256,64z"/>
<path class="st3" d="M184,272v8c0,8.8,7.2,16,16,16h8v48l40-48h48c8.8,0,16-7.2,16-16v-80c0-8.8-7.2-16-16-16h-8v24
	c-0.1,35.3-28.7,63.9-64,64H184z"/>
<path class="st4" d="M48,254.5v19.8C24.3,281.4,8,303.2,8,328v144c0,4.4,3.6,8,8,8h464c4.4,0,8-3.6,8-8V328
	c0-24.8-16.3-46.6-40-53.7v-51.4c14.1-3.6,24-16.3,24-30.9v-32c0-26.5-21.5-48-48-48h-88c-4.4,0-8,3.6-8,8v24
	c0,14.6,9.9,27.3,24,30.9V216c0,19,13.4,35.4,32,39.2v19.1c-23.7,7.1-40,28.9-40,53.7v56h-40c-17.7,0-32,14.3-32,32
	c0,5.6,1.6,11.2,4.5,16h-57c2.9-4.8,4.5-10.4,4.5-16c0-17.7-14.3-32-32-32h-40v-56c0-24.8-16.3-46.6-40-53.7v-19.1
	c18.6-3.8,32-20.2,32-39.2v-41.1c17-3.6,29.9-17.6,32-34.9c2.2-22-13.8-41.6-35.8-43.8c-1.4-0.1-2.8-0.2-4.2-0.2H56
	c-30.9,0-56,25.1-56,56v8c0,21.6,12.5,41.2,32,50.5V232C32,242.1,38.4,251.2,48,254.5z M134.7,160H88.1c-4.4,0-8,3.6-8,8v24
	c0,4.4-3.6,8-8,8h-16c-2.4,0-4.9-0.3-7.3-0.7l-3.4-0.9C28.1,193.6,16.1,177.9,16,160v-8c0-22.1,17.9-40,40-40h80
	c6.8,0,13.3,2.9,17.8,8c4.5,5,6.8,11.7,6.2,18.4C158.3,151,147.4,160.3,134.7,160z M104,240H56c-4.4,0-8-3.6-8-8v-16.6h0.6
	c2.4,0.4,4.9,0.6,7.4,0.6h16c13.2,0.1,23.9-10.6,24-23.8c0-0.1,0-0.1,0-0.2v-16h32v40c0.1,13.2-10.6,23.9-23.8,24
	C104.1,240,104.1,240,104,240z M192,432h-8v-32h8c8.8,0,16,7.2,16,16S200.8,432,192,432z M304,400h8v32h-8c-8.8,0-16-7.2-16-16
	S295.2,400,304,400z M368,176h40v32c0,8.8,7.2,16,16,16h8v16h-40c-13.2,0.1-23.9-10.6-24-23.8c0-0.1,0-0.1,0-0.2V176z M440,208h-16
	v-40c0-4.4-3.6-8-8-8h-56c-8.8,0-16-7.2-16-16v-16h80c17.7,0,32,14.3,32,32v32C456,200.8,448.8,208,440,208z M432,272h-32v-16h32
	V272z M472,432h-32c5.2-6.9,8-15.3,8-24v-72c0-4.4-3.6-8-8-8s-8,3.6-8,8v72c0.1,13.2-10.6,23.9-23.8,24c-0.1,0-0.1,0-0.2,0h-80v-32
	h64c4.4,0,8-3.6,8-8v-56c0-4.4-3.6-8-8-8s-8,3.6-8,8v48h-24v-56c0-22.1,17.9-40,40-40h32c22.1,0,40,17.9,40,40V432z M24,448h448v16
	H24V448z M64,288h32c22.1,0,40,17.9,40,40v56h-24v-48c0-4.4-3.6-8-8-8s-8,3.6-8,8v56c0,4.4,3.6,8,8,8h64v32H88
	c-13.2,0.1-23.9-10.6-24-23.8c0-0.1,0-0.1,0-0.2v-72c0-4.4-3.6-8-8-8s-8,3.6-8,8v72c0,8.7,2.8,17.1,8,24H24V328
	C24,305.9,41.9,288,64,288z M64,272v-16h32v16H64z"/>
<path class="st4" d="M407.4,91c1.2-3,0.6-6.4-1.7-8.7L360,36.7V24c0.1-13.2-10.6-23.9-23.8-24c-0.1,0-0.1,0-0.2,0H224
	c-13.2-0.1-23.9,10.6-24,23.8c0,0.1,0,0.1,0,0.2v40c0,17.7,14.3,32,32,32h168C403.2,95.9,406.1,94,407.4,91z M380.7,80H232
	c-8.8,0-16-7.2-16-16V24c0-4.4,3.6-8,8-8h112c4.4,0,8,3.6,8,8v16c0,2.1,0.8,4.2,2.3,5.7L380.7,80z"/>
<path class="st1" d="M280,48c0,4.4,3.6,8,8,8h32c4.4,0,8-3.6,8-8s-3.6-8-8-8h-32C283.6,40,280,43.6,280,48z"/>
<path class="st1" d="M232,48c0,4.4,3.6,8,8,8h16c4.4,0,8-3.6,8-8s-3.6-8-8-8h-16C235.6,40,232,43.6,232,48z"/>
<path class="st4" d="M200,176c-13.2-0.1-23.9,10.6-24,23.8c0,0.1,0,0.1,0,0.2v80c-0.1,13.2,10.6,23.9,23.8,24c0.1,0,0.1,0,0.2,0v40
	c0,4.4,3.5,8,8,8c2.4,0,4.7-1.1,6.2-2.9l37.6-45.1H296c13.2,0.1,23.9-10.6,24-23.8c0-0.1,0-0.1,0-0.2v-80
	c0.1-13.2-10.6-23.9-23.8-24c-0.1,0-0.1,0-0.2,0H200z M200,192h96c4.4,0,8,3.6,8,8v80c0,4.4-3.6,8-8,8h-48c-2.4,0-4.7,1.1-6.2,2.9
	l-25.8,31V296c0-4.4-3.6-8-8-8h-8c-4.4,0-8-3.6-8-8v-80C192,195.6,195.6,192,200,192z"/>
<path class="st2" d="M288,216c0-4.4-3.6-8-8-8h-24c-4.4,0-8,3.6-8,8s3.6,8,8,8h24C284.4,224,288,220.4,288,216z"/>
<path class="st2" d="M216,264c0,4.4,3.6,8,8,8h56c4.4,0,8-3.6,8-8s-3.6-8-8-8h-56C219.6,256,216,259.6,216,264z"/>
<path class="st2" d="M208,232c0,4.4,3.6,8,8,8h16c4.4,0,8-3.6,8-8s-3.6-8-8-8h-16C211.6,224,208,227.6,208,232z"/>
</svg>
