<?xml version="1.0" encoding="utf-8"?>
<!-- Generator: Adobe Illustrator 24.0.2, SVG Export Plug-In . SVG Version: 6.00 Build 0)  -->
<svg version="1.1" id="Layer_1" xmlns:svgjs="http://svgjs.com/svgjs"
	 xmlns="http://www.w3.org/2000/svg" xmlns:xlink="http://www.w3.org/1999/xlink" x="0px" y="0px" viewBox="0 0 512 512"
	 style="enable-background:new 0 0 512 512;" xml:space="preserve">
<style type="text/css">
	.st0{fill:#EDF1F0;}
	.st1{fill:#FFFFFF;}
	.st2{fill:#273238;}
	.st3{fill:#067FC8;}
</style>
<g>
	<path class="st0" d="M107.3,372v79.3c45.2,2,32.1,10,110.7,45.3c10,3.9,33.1,10.4,57.8-1c0,0,0,0,0,0l154.4-55.3
		c5-2.3,30.4-16.1,20.4-41.7c-11.7-27.3-41.8-15.9-44.3-15.1l-80.6,22.3"/>
	<g>
		<path class="st1" d="M198.5,405.2l89.7,28.4c15.7,4.5,32-4.6,36.4-20.3l0,0c4.5-15.7-4.6-32-22.6-38.6l-79.6-27
			c0,0-17-27.8-57.5-27.8c-25.6,0-47.6,20.7-57.7,38.7v36.1"/>
	</g>
	<path class="st2" d="M162.8,403.9c-0.6,0-1.3-0.1-1.9-0.2c-0.6-0.1-1.3-0.3-1.9-0.6c-0.6-0.3-1.2-0.6-1.7-0.9
		c-0.6-0.4-1.1-0.8-1.5-1.2s-0.9-1-1.2-1.5c-0.4-0.5-0.7-1.1-0.9-1.7c-0.3-0.6-0.4-1.2-0.6-1.9c-0.1-0.6-0.2-1.3-0.2-2
		c0-0.6,0.1-1.3,0.2-2c0.1-0.6,0.3-1.3,0.6-1.9c0.3-0.6,0.6-1.2,0.9-1.7c0.4-0.5,0.8-1.1,1.2-1.5s1-0.9,1.5-1.2
		c0.5-0.4,1.1-0.7,1.7-0.9c0.6-0.3,1.2-0.5,1.9-0.6c1.3-0.3,2.6-0.3,3.9,0c0.6,0.1,1.3,0.3,1.9,0.6c0.6,0.3,1.2,0.6,1.7,0.9
		c0.6,0.4,1.1,0.8,1.5,1.2s0.9,1,1.2,1.5c0.4,0.5,0.7,1.1,0.9,1.7c0.3,0.6,0.4,1.2,0.6,1.9s0.2,1.3,0.2,2c0,0.6-0.1,1.3-0.2,2
		c-0.1,0.6-0.3,1.3-0.6,1.9c-0.3,0.6-0.6,1.2-0.9,1.7c-0.4,0.5-0.8,1.1-1.2,1.5s-1,0.9-1.5,1.2c-0.5,0.4-1.1,0.7-1.7,0.9
		c-0.6,0.3-1.2,0.5-1.9,0.6C164.1,403.8,163.4,403.9,162.8,403.9z"/>
	<rect x="69.5" y="357.4" class="st1" width="37.9" height="107.4"/>
	<rect x="10" y="357.4" class="st3" width="59.5" height="126.1"/>
	<path class="st2" d="M460,395c0-0.1-0.1-0.2-0.1-0.3c-9.2-21.5-30.8-29.5-56.3-20.8l-69.7,19.3c-4-12.2-14.1-22.6-28.3-27.9
		c-0.1,0-0.2-0.1-0.3-0.1l-76.6-26c-6.4-8.2-26.3-29.3-63.7-29.3c-26.1,0-49.2,17.9-62.5,37.5H10c-5.5,0-10,4.5-10,10v126.1
		c0,5.5,4.5,10,10,10h59.5c5.5,0,10-4.5,10-10v-8.6h27.9c5.5,0,10-4.5,10-10v-2.9c16.3,1.4,21.6,4.5,36.5,13.1
		c11.5,6.6,28.8,16.6,60.1,30.7c0.1,0.1,0.3,0.1,0.4,0.2c6,2.4,17.7,6.1,32.2,6.1c10.1,0,21.4-1.8,33.1-7.1l154-55.1
		c0.3-0.1,0.5-0.2,0.8-0.3C449.2,442.6,471.1,423.6,460,395z M59.5,473.5H20V367.4h39.5V473.5z M97.3,454.8H79.5v-87.4h17.9V454.8z
		 M426.5,431.1l-153.9,55.1c-0.1,0-0.3,0.1-0.5,0.2c-0.1,0.1-0.3,0.1-0.4,0.2c-21.4,9.9-41.8,4-49.8,0.8
		c-30.2-13.6-46.3-22.9-58.1-29.7c-16.4-9.4-24.2-14-46.5-15.8v-80.5c9.5-15.5,27.9-31.4,47.7-31.4c34,0,48.4,22.1,49,23
		c1.2,2,3.1,3.5,5.3,4.2l79.5,27c12.7,4.8,19.4,15.6,16.3,26.5c-1.4,5-4.7,9.2-9.3,11.7c-4.5,2.5-9.7,3.1-14.7,1.8l-89.6-28.4
		c-5.3-1.7-10.9,1.2-12.6,6.5c-1.7,5.3,1.2,10.9,6.5,12.6l89.7,28.4c0.1,0,0.2,0.1,0.3,0.1c3.6,1,7.2,1.5,10.9,1.5
		c6.6,0,13.2-1.7,19.2-5c9.2-5.1,15.9-13.5,18.8-23.7c0.2-0.8,0.4-1.6,0.6-2.4l75.1-20.8c10.8-3.7,25.1-5,31.4,9.6
		C448,419.5,430.9,429,426.5,431.1z"/>
	<polyline class="st1" points="239.9,98.8 151.1,10 39.7,121.4 230,311.7 335.1,206.6 	"/>
	<path class="st3" d="M187.3,114L187.3,114C187.3,114,187.3,114,187.3,114c-10.9,0.7-21.6,5.2-30,13.6c-18.4,18.4-18.4,48.1,0,66.5
		s48.1,18.4,66.5,0c8.9-8.9,13.5-20.4,13.8-32.1"/>
	<path class="st0" d="M404.7,155.3V76c-45.2-2-32.1-10-110.7-45.3c-10-3.9-33.1-10.4-57.9,1c0,0,0,0,0,0l-46.6,16.7l48.1,48.1"/>
	<g>
		<path class="st1" d="M39.7,121.4l37.8-37.8c20.8,20.8,20.8,54.7,0,75.5L39.7,121.4z"/>
		<path class="st1" d="M192.3,273.9c20.8-20.8,54.7-20.8,75.5,0L230,311.7L192.3,273.9z"/>
		<path class="st1" d="M113.3,47.8L151.1,10l37.8,37.8C168,68.6,134.2,68.6,113.3,47.8z"/>
		<path class="st1" d="M291.2,182c-6.8,18.9-2.7,40.9,12.4,56l31.5-31.5"/>
	</g>
	<g>
		<path class="st1" d="M313.5,122.2l-89.7-28.4c-15.7-4.5-32,4.6-36.4,20.3l0,0c-4.5,15.7,4.6,32,22.6,38.6l79.7,27l0,0
			c0,0,17,27.8,57.5,27.8c25.6,0,47.6-20.7,57.7-38.7v-36.1"/>
	</g>
	<path class="st2" d="M349.3,143.5c-0.6,0-1.3-0.1-2-0.2c-0.6-0.1-1.3-0.3-1.9-0.6c-0.6-0.3-1.2-0.6-1.7-0.9
		c-0.5-0.4-1.1-0.8-1.5-1.2s-0.9-1-1.2-1.5c-0.4-0.5-0.7-1.1-0.9-1.7c-0.3-0.6-0.5-1.2-0.6-1.9c-0.1-0.6-0.2-1.3-0.2-1.9
		s0.1-1.3,0.2-1.9c0.1-0.6,0.3-1.3,0.6-1.9c0.3-0.6,0.6-1.2,0.9-1.7c0.4-0.6,0.8-1.1,1.2-1.5s1-0.9,1.5-1.2c0.5-0.4,1.1-0.7,1.7-0.9
		c0.6-0.3,1.2-0.4,1.9-0.6c1.3-0.3,2.6-0.3,3.9,0c0.6,0.1,1.3,0.3,1.9,0.6c0.6,0.3,1.2,0.6,1.7,0.9c0.5,0.4,1.1,0.8,1.5,1.2
		s0.9,1,1.2,1.5c0.4,0.5,0.7,1.1,0.9,1.7c0.3,0.6,0.5,1.2,0.6,1.9c0.1,0.6,0.2,1.3,0.2,1.9s-0.1,1.3-0.2,1.9s-0.3,1.3-0.6,1.9
		c-0.3,0.6-0.5,1.2-0.9,1.7c-0.4,0.6-0.8,1.1-1.2,1.5s-1,0.9-1.5,1.2c-0.5,0.4-1.1,0.7-1.7,0.9c-0.6,0.3-1.2,0.4-1.9,0.6
		C350.6,143.4,349.9,143.5,349.3,143.5z"/>
	<rect x="404.7" y="62.5" class="st1" width="37.9" height="107.4"/>
	<rect x="442.5" y="43.9" class="st3" width="59.5" height="126.1"/>
	<path class="st2" d="M502,33.9h-59.5c-5.5,0-10,4.5-10,10v8.6h-27.9c-5.5,0-10,4.5-10,10v2.9c-16.3-1.4-21.6-4.5-36.5-13.1
		c-11.5-6.6-28.8-16.6-60.1-30.7c-0.1-0.1-0.3-0.1-0.4-0.2c-10.2-4-36.8-11.9-65.3,1l-40.2,14.4L158.2,3C154.3-1,147.9-1,144,3
		L32.7,114.3c-3.6,3.6-4.3,9.8,0,14.1l190.3,190.3c3,3,10.2,4,14.1,0l101.7-101.7c2.6,0.2,5.4,0.4,8.2,0.4
		c26.1,0,49.2-17.9,62.5-37.5H502c5.5,0,10-4.5,10-10V43.9C512,38.4,507.5,33.9,502,33.9z M176.4,126.6c1.8,15.4,12.9,29.1,30,35.4
		c0.1,0,0.2,0.1,0.3,0.1l20,6.8c-1.5,6.8-4.9,13.1-10,18.1c-14.4,14.4-37.9,14.4-52.3,0c-14.4-14.4-14.4-37.9,0-52.3
		C167.9,131.2,172,128.5,176.4,126.6z M196.5,87.6c-7.2,4-12.8,10-16.3,17.2c-11.3,2.1-21.7,7.6-29.9,15.7
		c-22.2,22.2-22.2,58.4,0,80.6c11.1,11.1,25.7,16.7,40.3,16.7c14.6,0,29.2-5.6,40.3-16.7c7.2-7.2,12.3-16.1,14.8-25.8l33.8,11.5
		c-3.8,17.6,0.1,36.1,10.6,50.7l-22.8,22.8c-22.1-16-52.3-16-74.4,0L91.1,158.6c7.8-10.7,12-23.6,12-37.2c0-13.6-4.2-26.5-12-37.2
		l22.8-22.8c10.7,7.8,23.6,12,37.2,12c13.6,0,26.5-4.2,37.2-12L209.9,83C205.2,83.7,200.7,85.2,196.5,87.6z M304.5,223.1
		c-3.9-6.3-6-13.5-6.4-20.8c4.8,3.5,10.6,6.9,17.6,9.5L304.5,223.1z M151.1,24.2L173.9,47c-6.8,4.2-14.6,6.4-22.8,6.4
		c-8.2,0-16-2.2-22.8-6.4L151.1,24.2z M76.7,98.6c4.2,6.8,6.4,14.6,6.4,22.8s-2.2,16-6.4,22.8l-22.8-22.8L76.7,98.6z M230,297.5
		l-22.8-22.8c13.9-8.6,31.7-8.6,45.6,0L230,297.5z M347,197.4c-3.7,0-7.2-0.3-10.4-0.7c0,0,0,0,0,0c-21.6-3.1-33.2-15.4-37-20.3
		c-0.2-0.3-1.1-1.4-1.2-1.6c-1.2-2.1-3.1-3.8-5.5-4.6l-79.5-27c-12.7-4.8-19.4-15.6-16.3-26.5c0,0,0,0,0,0c0,0,0,0,0,0
		c1.4-5,4.7-9.1,9.2-11.7c4.5-2.5,9.7-3.1,14.7-1.8l89.6,28.4c5.3,1.7,10.9-1.2,12.6-6.5s-1.2-10.9-6.5-12.6L245.2,90l-0.6-0.6
		c0,0,0,0,0,0l-36.9-36.9l31.7-11.4c0.1,0,0.2-0.1,0.3-0.1c0,0,0.1,0,0.1,0c0.1-0.1,0.3-0.1,0.4-0.2c21.4-9.9,41.8-4,49.8-0.8
		c30.2,13.6,46.3,22.9,58.1,29.7c16.4,9.4,24.2,14,46.5,15.8V166C385.2,181.5,366.8,197.4,347,197.4z M414.7,72.5h17.9V160h-17.9
		V72.5z M492,160h-39.5V53.9H492V160z"/>
</g>
</svg>
