<?xml version="1.0" encoding="utf-8"?>
<!-- Generator: Adobe Illustrator 24.0.2, SVG Export Plug-In . SVG Version: 6.00 Build 0)  -->
<svg version="1.1" id="Layer_1" xmlns:svgjs="http://svgjs.com/svgjs"
	 xmlns="http://www.w3.org/2000/svg" xmlns:xlink="http://www.w3.org/1999/xlink" x="0px" y="0px" viewBox="0 0 512 512"
	 style="enable-background:new 0 0 512 512;" xml:space="preserve">
<style type="text/css">
	.st0{fill:#FFFFFF;}
	.st1{fill:#EDF1F0;}
	.st2{fill:#067FC8;}
	.st3{fill:#231F20;}
</style>
<g>
	<g id="Send_package">
		<path class="st0" d="M300,353c-2.6-0.7-5.4-0.6-8,0.1l-127.4,34.1c-8.1,2.2-14.4,8.4-16.8,16.5l-85.4-49.3
			c-11.5-6.6-26.2-2.7-32.8,8.8c-6.6,11.5-2.7,26.2,8.8,32.8l141.8,81.9c2.4,1.4,5.2,2.1,8,2.1h135.9c2.5,0,4.9-0.6,7.2-1.7L360,464
			v-96L300,353z"/>
		<path class="st1" d="M40,88h112l16-64H72L40,88z"/>
		<path class="st1" d="M328,88l-32-64h-96l16,64H328z"/>
		<path class="st2" d="M424,344h-64v24v96v24h64v-16V360V344z"/>
		<path class="st1" d="M424,360h64v112h-64V360z"/>
		<path class="st1" d="M40,88h288v224H40V88z"/>
		<path class="st0" d="M184,168l32,16V88h-64v96L184,168z"/>
		<path class="st0" d="M216,88l-16-64h-32l-16,64H216z"/>
		<path class="st2" d="M312,88v144c0,26.5-21.5,48-48,48l0,0H40v32h288V88H312z"/>
		<path class="st0" d="M424,360h24v112h-24V360z"/>
		<g>
			<path class="st3" d="M488,352h-56v-8c0-4.4-3.6-8-8-8h-64c-4.4,0-8,3.6-8,8v13.8l-50-12.5c-3.9-1-8.1-0.9-12,0.1l-127.4,34.1
				c-7.4,2-13.8,6.6-18.1,13l-78-45c-15.3-8.8-34.9-3.6-43.7,11.7s-3.6,34.9,11.7,43.7l141.8,81.9c3.6,2.1,7.8,3.2,12,3.2h135.9
				c3.7,0,7.4-0.9,10.7-2.5l17-8.5V488c0,4.4,3.6,8,8,8h64c4.4,0,8-3.6,8-8v-8h56c4.4,0,8-3.6,8-8V360C496,355.6,492.4,352,488,352
				L488,352z M327.8,471.2c-1.1,0.5-2.3,0.8-3.6,0.8H188.3c-1.4,0-2.8-0.4-4-1.1L42.5,389.1c-7.6-4.5-10.2-14.2-5.8-21.9
				c4.5-7.5,14.1-10.1,21.8-5.8l80.6,46.5c-1.5,17.5,11.5,32.9,29.1,34.4c3.7,0.3,7.4,0,11-1l95.4-25.6c4.3-1.2,6.8-5.6,5.6-9.8
				c-1.2-4.2-5.5-6.7-9.7-5.6L175,425.9c-8.5,2.5-17.4-2.4-19.8-10.9s2.4-17.4,10.9-19.8c0.2-0.1,0.4-0.1,0.6-0.2l127.4-34.2
				c1.3-0.3,2.7-0.3,4,0l53.9,13.4V459L327.8,471.2z M416,480h-48V352h48V480z M480,464h-48v-96h48V464z"/>
			<path class="st3" d="M335.2,84.4l-32-64c-1.4-2.7-4.2-4.4-7.2-4.4H72c-3,0-5.8,1.7-7.2,4.4l-32,64c-0.4,1.2-0.7,2.4-0.8,3.6v224
				c0,4.4,3.6,8,8,8h288c4.4,0,8-3.6,8-8V88C335.9,86.8,335.6,85.6,335.2,84.4z M315.1,80h-92.8l-12-48H291L315.1,80z M160,96h48
				v75.1l-20.4-10.2c-2.3-1.1-4.9-1.1-7.2,0L160,171.1L160,96z M193.8,32l12,48h-43.5l12-48H193.8z M76.9,32h80.8l-12,48H52.9
				L76.9,32z M320,304H48V96h96v88c0,4.4,3.6,8,8,8c1.2,0,2.5-0.3,3.6-0.8l28.4-14.2l28.4,14.3c4,2,8.8,0.4,10.7-3.6
				c0.6-1.1,0.9-2.4,0.8-3.6V96h96V304z"/>
		</g>
	</g>
</g>
</svg>
