<?xml version="1.0"?>
<svg xmlns="http://www.w3.org/2000/svg" xmlns:xlink="http://www.w3.org/1999/xlink" xmlns:svgjs="http://svgjs.com/svgjs" version="1.1" width="512" height="512" x="0" y="0" viewBox="0 0 504.998 504.998" style="enable-background:new 0 0 512 512" xml:space="preserve" class=""><g><g xmlns="http://www.w3.org/2000/svg"><g><path d="m333.084 47.867v409.262c0 22.293-18.075 40.368-40.368 40.368h-208.071c-22.293 0-40.368-18.075-40.368-40.368v-409.262c0-22.293 18.075-40.368 40.368-40.368h208.071c22.293 0 40.368 18.075 40.368 40.368z" fill="#ffffff" data-original="#7190f7" style="" class=""/><path d="m333.088 47.866v409.265c0 22.296-18.082 40.367-40.377 40.367h-208.067c-22.296 0-40.367-18.072-40.367-40.367v-409.265c0-22.296 18.072-40.367 40.367-40.367h208.067c22.296 0 40.377 18.072 40.377 40.367z" fill="#edf1f0" data-original="#3c87d0" style="" class=""/><path d="m306.548 47.866v409.265c0 22.296-18.082 40.367-40.367 40.367h-181.537c-22.296 0-40.367-18.072-40.367-40.367v-409.265c0-22.296 18.072-40.367 40.367-40.367h181.537c22.285 0 40.367 18.072 40.367 40.367z" fill="#47a0b0" data-original="#5f99d7" style="" class=""/><path d="m44.277 60.498h288.811v350.462h-288.811z" fill="#edf1f0" data-original="#fedba6" style="" class=""/><path d="m44.277 60.498h262.261v350.462h-262.261z" fill="#ffffff" data-original="#ffefd2" style="" class=""/><path d="m268.723 60.498v64.993c0 22.863-9.735 44.612-26.429 59.867-2.33 2.127-4.802 4.123-7.395 5.987l-88.099 63.129c-.152.111-.304.223-.456.334-4.173-2.462-8.327-4.984-12.45-7.557-45.483-28.394-76.116-56.079-89.619-69.237v-117.516z" fill="#ffffff" data-original="#f4d902" style="" class=""/><path d="m242.295 60.498v124.86c-2.33 2.127-4.802 4.123-7.395 5.987l-88.099 63.129c-.152.111-.304.223-.456.334-4.173-2.462-8.327-4.984-12.45-7.557-45.483-28.394-76.116-56.079-89.619-69.237v-117.516z" fill="#ffffff" data-original="#fef056" style="" class=""/><path d="m333.088 358.234v52.726h-227.698v-14.78c0-39.253 16.269-76.652 44.277-103.415 28.637 15.63 58.419 29.002 88.889 39.922 22.296 7.992 44.987 14.658 67.981 19.996 8.814 2.056 17.657 3.9 26.551 5.551z" fill="#ffffff" data-original="#0ab69f" style="" class=""/><path d="m306.538 352.683v58.277h-201.148v-14.78c0-39.253 16.269-76.652 44.277-103.415 28.637 15.63 58.419 29.002 88.889 39.922 22.297 7.992 44.987 14.658 67.982 19.996z" fill="#ffffff" data-original="#5de1c4" style="" class=""/><path d="m218.294 470.455h-59.222c-5.451 0-9.87-4.419-9.87-9.87v-11.629c0-5.451 4.419-9.87 9.87-9.87h59.222c5.451 0 9.87 4.419 9.87 9.87v11.629c0 5.451-4.419 9.87-9.87 9.87z" fill="#edf1f0" data-original="#3c87d0" style="" class=""/><path d="m137.846 60.498c-4.599 0-9.066.577-13.321 1.671-23.136 5.927-40.225 26.906-40.225 51.875 0 23.177 21.931 70.828 40.013 90.338 4.984 5.389 9.674 8.631 13.533 8.631 16.765 0 53.536-69.399 53.536-98.968s-23.967-53.547-53.536-53.547zm-18.933 53.546c0-10.454 8.479-18.933 18.933-18.933s18.923 8.479 18.923 18.933-8.469 18.933-18.923 18.933-18.933-8.478-18.933-18.933z" fill="#edf1f0" data-original="#e41f2d" style="" class=""/><path d="m124.525 62.17c-23.136 5.926-40.225 26.905-40.225 51.874 0 23.177 21.931 70.828 40.013 90.338 17.849-19.51 40.438-67.161 40.438-90.338 0-24.969-17.089-45.948-40.226-51.874zm13.321 70.807c-10.454 0-18.933-8.479-18.933-18.933s8.479-18.933 18.933-18.933 18.923 8.479 18.923 18.933c0 10.455-8.469 18.933-18.923 18.933z" fill="#ffffff" data-original="#fd4755" style="" class=""/><g fill="#eaf6ff"><path d="m249.827 303.402c-24.933-8.891-49.389-19.524-73.1-31.769l76.442-54.797c29.378-21.049 46.923-55.198 46.923-91.347v-64.988h-31.369v64.987c0 26.057-12.645 50.676-33.824 65.852l-88.102 63.137c-.151.108-.303.216-.454.335-4.175-2.466-8.329-4.987-12.45-7.561-45.484-28.394-76.117-56.074-89.617-69.238v42.488c17.177 14.711 41.288 33.478 71.985 52.721 1.774 1.114 3.548 2.217 5.333 3.299-30.211 32.061-47.572 74.873-47.572 119.655v14.786h31.369v-14.786c0-39.254 16.268-76.647 44.273-103.408 28.643 15.63 58.421 29 88.892 39.914 30.839 11.055 62.445 19.589 94.527 25.549v-31.931c-28.231-5.548-56.062-13.196-83.256-22.898z" fill="#edf1f0" data-original="#eaf6ff" style="" class=""/><path d="m440.094 358.493h-182.727l-32.45 31.369v-76.723c0-11.392 9.235-20.627 20.627-20.627h194.55c11.392 0 20.627 9.235 20.627 20.627v24.727c0 11.392-9.235 20.627-20.627 20.627z" fill="#edf1f0" data-original="#eaf6ff" style="" class=""/></g></g><g><path d="m164.271 114.045c0-14.573-11.856-26.429-26.429-26.429s-26.43 11.856-26.43 26.429 11.856 26.429 26.43 26.429 26.429-11.856 26.429-26.429zm-37.859 0c0-6.302 5.127-11.429 11.43-11.429s11.429 5.127 11.429 11.429-5.127 11.429-11.429 11.429-11.43-5.127-11.43-11.429z" fill="#273238" data-original="#000000" style="" class=""/><path d="m193.548 377.229h-49.757c-4.142 0-7.5 3.358-7.5 7.5s3.358 7.5 7.5 7.5h49.757c4.142 0 7.5-3.358 7.5-7.5s-3.358-7.5-7.5-7.5z" fill="#273238" data-original="#000000" style="" class=""/><path d="m312.604 324.962c0 4.142 3.358 7.5 7.5 7.5h102.759c4.142 0 7.5-3.358 7.5-7.5s-3.358-7.5-7.5-7.5h-102.759c-4.143 0-7.5 3.358-7.5 7.5z" fill="#273238" data-original="#000000" style="" class=""/><path d="m259.53 317.462c-4.142 0-7.5 3.358-7.5 7.5s3.358 7.5 7.5 7.5h23.797c4.142 0 7.5-3.358 7.5-7.5s-3.358-7.5-7.5-7.5z" fill="#273238" data-original="#000000" style="" class=""/><path d="m440.094 285.012h-23.346c-4.142 0-7.5 3.358-7.5 7.5s3.358 7.5 7.5 7.5h23.346c7.238 0 13.127 5.889 13.127 13.127v24.727c0 7.238-5.889 13.127-13.127 13.127h-107.006-.005-75.717c-1.945 0-3.814.756-5.213 2.107l-19.737 19.08v-44.573c0-10.255-2.32-27.596 13.127-27.596h137.833c4.142 0 7.5-3.358 7.5-7.5s-3.358-7.5-7.5-7.5h-42.789l-.005-237.144c.001-26.393-21.472-47.867-47.866-47.867h-208.071c-26.395 0-47.868 21.474-47.868 47.868v283.361c0 4.142 3.358 7.5 7.5 7.5s7.5-3.358 7.5-7.5v-94.763c18.198 14.715 37.718 28.708 58.268 41.705-28.133 32.968-43.521 74.523-43.521 118.006v7.283h-14.747v-36.836c0-4.142-3.358-7.5-7.5-7.5s-7.5 3.358-7.5 7.5v90.505c0 26.395 21.474 47.868 47.868 47.868h208.071c26.395 0 47.868-21.474 47.868-47.868l.005-91.136h99.505c15.51 0 28.127-12.618 28.127-28.127v-24.726c0-15.51-12.617-28.128-28.127-28.128zm-179.695 80.982h65.185v37.467h-212.692v-7.283c0-34.988 13.828-69 38.112-94.162 21.518 11.496 43.717 21.769 66.413 30.72v57.127c0 6.571 8.102 9.848 12.713 5.393zm-14.855-80.982c-.485 0-.966.012-1.445.037-4.423.225-8.577 1.482-12.234 3.526-13.742-5.494-27.375-11.542-40.692-18.068l66.365-47.573c31.343-22.457 50.055-58.885 50.055-97.444v-57.49h17.991v217.013h-80.04zm-193.767-217.012h46.057c-12.873 11.2-21.035 27.682-21.035 46.045 0 18.125 11.287 45.852 20.952 64.088 10.248 19.336 25.522 42.385 40.091 42.385 14.009 0 29.303-23.031 39.667-42.352 10.333-19.264 21.375-46.225 21.375-64.121 0-18.363-8.162-34.845-21.035-46.045h83.375v57.489c0 23.646-11.474 45.985-30.692 59.756l-84.573 60.607c-2.746-1.652-5.455-3.313-8.094-4.962-42.153-26.314-71.316-51.905-86.088-66.059v-106.831zm58.894 102.477c-11.288-21.464-18.872-44.142-18.872-56.432 0-25.388 20.655-46.043 46.043-46.043s46.042 20.655 46.042 46.043c0 11.941-7.603 34.351-18.918 55.763-13.426 25.404-24.196 35.09-27.173 35.703-2.974-.372-13.729-9.567-27.122-35.034zm-26.026-155.477h208.071c18.123 0 32.868 14.745 32.868 32.868v5.132h-273.807v-5.131c0-18.124 14.744-32.869 32.868-32.869zm-3.122 381.178c0-42.685 16.169-83.353 45.53-114.511 6.176-6.554-1.891-11.71-6.808-14.797-24.471-15.339-47.49-32.094-68.469-49.832v-21.766c16.855 15.113 43.179 36.516 78.143 58.342 5.297 3.309 14.655 12.14 21.055 7.1l88.294-63.275c23.141-16.581 36.956-43.478 36.956-71.949v-57.488h16.369v57.487c0 33.735-16.371 65.604-43.792 85.252l-76.442 54.797c-2.122 1.521-3.3 4.036-3.11 6.64.189 2.604 1.719 4.922 4.039 6.12 15.369 7.938 31.234 15.281 47.282 21.889-2.72 5.227-3.152 10.616-3.152 16.388-21.935-8.897-43.381-19.049-64.159-30.388-2.866-1.563-6.414-1.094-8.774 1.161-29.609 28.294-46.591 67.961-46.591 108.831v7.283h-16.371zm211.193 93.82h-208.071c-18.124 0-32.868-14.745-32.868-32.868v-38.669l273.807.003v38.666c-.001 18.123-14.745 32.868-32.868 32.868z" fill="#273238" data-original="#000000" style="" class=""/><path d="m109.885 41.032c4.388 0 7.945-3.557 7.945-7.945s-3.557-7.945-7.945-7.945-7.945 3.557-7.945 7.945 3.557 7.945 7.945 7.945z" fill="#273238" data-original="#000000" style="" class=""/><path d="m148.118 40.96h81.125c4.142 0 7.5-3.358 7.5-7.5s-3.358-7.5-7.5-7.5h-81.125c-4.142 0-7.5 3.358-7.5 7.5s3.358 7.5 7.5 7.5z" fill="#273238" data-original="#000000" style="" class=""/><path d="m218.294 431.588h-59.223c-9.578 0-17.37 7.792-17.37 17.37v11.629c0 9.578 7.792 17.37 17.37 17.37h59.223c9.578 0 17.37-7.792 17.37-17.37v-11.629c0-9.578-7.792-17.37-17.37-17.37zm2.37 28.998c0 1.307-1.063 2.37-2.37 2.37h-59.223c-1.307 0-2.37-1.063-2.37-2.37v-11.629c0-1.307 1.063-2.37 2.37-2.37h59.223c1.307 0 2.37 1.063 2.37 2.37z" fill="#273238" data-original="#000000" style="" class=""/></g></g></g></svg>
