<?xml version="1.0" encoding="utf-8"?>
<!-- Generator: Adobe Illustrator 24.0.2, SVG Export Plug-In . SVG Version: 6.00 Build 0)  -->
<svg version="1.1" id="Capa_1" xmlns="http://www.w3.org/2000/svg" xmlns:xlink="http://www.w3.org/1999/xlink" x="0px" y="0px"
	 viewBox="0 0 427.8 512" style="enable-background:new 0 0 427.8 512;" xml:space="preserve">
<style type="text/css">
	.st0{fill:#EAECF0;}
	.st1{fill:#067FC8;}
	.st2{fill:#273238;}
	.st3{fill:#FFFFFF;}
</style>
<title>دریافت پیشنهاد</title>
<polyline class="st0" points="43.2,124.6 43.2,77.4 10,77.4 10,420.6 43.2,420.6 43.2,383.4 "/>
<path class="st1" d="M163.5,265.5H47.6v85h91.1l35.6-44.1C168.4,293.5,164.8,279.6,163.5,265.5z"/>
<path class="st0" d="M290.4,126.6C220,126.6,163,183.6,163,254c0,18.1,3.8,35.9,11.3,52.4l-35.6,44.1h68.6
	c53.3,45.9,133.7,40,179.7-13.3s40-133.7-13.3-179.7C350.5,137.5,321,126.6,290.4,126.6L290.4,126.6z"/>
<path class="st2" d="M202.4,264l-2-0.2c-0.6-0.1-1.2-0.3-1.8-0.6c-0.6-0.2-1.2-0.5-1.8-0.9l-1.5-1.2c-0.5-0.5-0.9-1-1.2-1.6
	c-0.4-0.5-0.7-1.1-1-1.7c-0.2-0.6-0.4-1.3-0.5-1.9c-0.2-0.6-0.2-1.3-0.2-1.9c0-0.7,0-1.3,0.2-2c0.1-0.6,0.3-1.2,0.5-1.8
	c0.3-0.6,0.6-1.2,1-1.8c0.3-0.5,0.7-1.1,1.2-1.5l1.5-1.2l1.8-0.9l1.8-0.6c1.3-0.3,2.6-0.3,3.9,0c0.7,0.1,1.3,0.3,1.9,0.6
	c0.6,0.2,1.2,0.5,1.7,0.9c0.6,0.3,1.1,0.7,1.5,1.2l1.3,1.5c0.3,0.6,0.6,1.2,0.9,1.8c0.2,0.6,0.4,1.2,0.6,1.8c0.1,0.7,0.2,1.3,0.2,2
	c0,0.6-0.1,1.3-0.2,1.9c-0.1,0.7-0.3,1.3-0.6,1.9c-0.2,0.6-0.5,1.2-0.9,1.7c-0.4,0.6-0.8,1.1-1.3,1.6l-1.5,1.2
	c-0.5,0.4-1.1,0.7-1.7,0.9c-0.6,0.3-1.2,0.5-1.9,0.6L202.4,264z"/>
<path class="st3" d="M10,420.6h281.6v64.5c0,9.3-7.6,16.9-16.9,16.9c0,0,0,0,0,0H26.9c-9.3,0-16.9-7.6-16.9-16.9V420.6z"/>
<path class="st3" d="M291.6,77.4H10V26.9C10,17.6,17.6,10,26.9,10l0,0h247.8c9.3,0,16.9,7.6,16.9,16.9L291.6,77.4z"/>
<path class="st2" d="M301.6,117.1V26.9C301.5,12.1,289.5,0.1,274.7,0H26.9C12.1,0.1,0.1,12.1,0,26.9v458.2
	c0.1,14.8,12.1,26.8,26.9,26.9h247.8c14.8-0.1,26.8-12.1,26.9-26.9v-94.2c70.5-5.7,126.2-64.9,126.2-136.9S372.1,122.8,301.6,117.1z
	 M20,26.9c0-3.8,3.1-6.9,6.9-6.9l0,0h247.8c3.8,0,6.9,3.1,6.9,6.9v40.5H20V26.9z M20,87.4h261.6v29.5c-15,1-29.7,4.4-43.5,10.1H76.4
	c0.7,6.5,0.1,13.5,0,20h128c-21,16.8-36.6,39.5-44.8,65.1H70.4c-1.3,6.6-2.7,13.3-4,20h88.4c-1.2,7.2-1.8,14.6-1.8,21.9v1.5H47.6
	c-5.5-0.1-9.9,4.3-10,9.8c0,0.1,0,0.1,0,0.2v85c-0.1,5.5,4.3,9.9,9.8,10c0.1,0,0.1,0,0.2,0h156.1c22.1,18.1,49.4,28.8,77.9,30.6
	v19.5H20V87.4z M162.7,304.8l-28.8,35.7H57.6v-65h97.1C156.2,285.5,158.9,295.4,162.7,304.8z M281.6,485.1c0,3.8-3.1,6.9-6.9,6.9
	H26.9c-3.8,0-6.9-3.1-6.9-6.9v-54.5h261.6V485.1z M290.4,371.4c-28.1,0-55.3-10.1-76.6-28.4c-1.8-1.6-4.1-2.5-6.5-2.5h-47.7
	l22.4-27.8c2.4-2.9,2.9-6.9,1.4-10.4c-6.9-15.2-10.4-31.6-10.4-48.3c0-64.8,52.6-117.4,117.4-117.4S407.8,189.2,407.8,254
	S355.2,371.4,290.4,371.4L290.4,371.4L290.4,371.4z"/>
<path class="st2" d="M170.8,471.3h-40c-5.5,0-10-4.5-10-10s4.5-10,10-10h40c5.5,0,10,4.5,10,10S176.3,471.3,170.8,471.3z"/>
<path class="st2" d="M219.8,53.7l-1.9-0.2c-0.7-0.1-1.3-0.3-1.9-0.6c-0.6-0.2-1.2-0.5-1.7-0.9l-1.5-1.2c-0.5-0.5-0.9-1-1.3-1.6
	l-0.9-1.7l-0.6-1.9c-0.1-0.6-0.2-1.3-0.2-1.9c0-0.7,0.1-1.3,0.2-2l0.6-1.8l0.9-1.8l1.3-1.5c0.4-0.5,0.9-0.9,1.5-1.2
	c0.5-0.4,1.1-0.7,1.7-0.9c0.6-0.3,1.2-0.5,1.9-0.6c1.3-0.3,2.6-0.3,3.9,0c1.3,0.3,2.5,0.8,3.6,1.5c0.5,0.3,1.1,0.7,1.5,1.2
	c1.9,1.9,2.9,4.4,2.9,7.1c0,0.6,0,1.3-0.2,1.9c-0.1,0.6-0.3,1.3-0.5,1.9l-0.9,1.7c-0.4,0.6-0.8,1.1-1.3,1.6l-1.5,1.2
	c-1.1,0.7-2.3,1.2-3.6,1.5L219.8,53.7z"/>
<path class="st2" d="M180,53.7H81.8c-5.5,0-10-4.5-10-10s4.5-10,10-10H180c5.5,0,10,4.5,10,10S185.5,53.7,180,53.7z"/>
<path class="st0" d="M208.3,222.4c17.4-45,68-67.3,113-49.8s67.3,68,49.8,113c-17.4,45-68,67.3-113,49.8
	c-9.3-3.6-17.9-8.8-25.4-15.3"/>
<path class="st2" d="M289.6,351.3c-23.3,0-45.8-8.4-63.4-23.6c-4.5-3.2-5.5-9.5-2.3-14c3.2-4.5,9.5-5.5,14-2.3
	c0.5,0.3,0.9,0.7,1.3,1.1c32.3,27.9,81.1,24.3,109-8.1s24.3-81.1-8.1-109s-81.1-24.3-109,8.1c-5.8,6.7-10.3,14.3-13.5,22.5
	c-2.2,5-8.1,7.3-13.2,5.1c-4.7-2.1-7.1-7.5-5.4-12.4c19.4-50.1,75.8-75,125.9-55.5s75,75.8,55.5,125.9
	C365.9,326.7,329.8,351.3,289.6,351.3z"/>
<path class="st2" d="M286.1,294.8c-13.2-0.5-23.9-7.6-23.9-14.9c0-3.9,3.3-9.6,7.4-9.6s8.4,6.8,16.5,8.2V260c-10.1-4-22-8.9-22-23.6
	s10.4-21.5,22-23.2V210c0-1.6,1.8-3.1,4.2-3.1s4.2,1.5,4.2,3.1v2.9c6.8,0.2,19.7,2,19.7,9.9c0,3.1-2,9.4-6.9,9.4s-5.7-3.7-12.8-4.2
	v16.7c10,3.9,21.6,9.2,21.6,24.7s-8.8,22.8-21.6,24.9v3.3c0,1.6-2.1,3.1-4.2,3.1s-4.2-1.5-4.2-3.1L286.1,294.8L286.1,294.8z
	 M287.2,241.9v-13.6c-4.9,1-7,3.7-7,6.4S283.1,240.1,287.2,241.9L287.2,241.9z M293.4,263.1v15.3c3.7-0.9,6.7-3.1,6.7-7.2
	S297.3,265,293.4,263.1L293.4,263.1z"/>
<path class="st3" d="M158.3,255.5c3.2-80.1,41.6-128.6,123.3-138.6l-234.5,2.7l-2.4,125.3"/>
</svg>
