<?xml version="1.0" encoding="utf-8"?>
<!-- Generator: Adobe Illustrator 24.0.2, SVG Export Plug-In . SVG Version: 6.00 Build 0)  -->
<svg version="1.1" id="Capa_1" xmlns="http://www.w3.org/2000/svg" xmlns:xlink="http://www.w3.org/1999/xlink" x="0px" y="0px"
	 viewBox="0 0 427.8 512" style="enable-background:new 0 0 427.8 512;" xml:space="preserve">
<style type="text/css">
	.st0{fill:#EAECF0;}
	.st1{fill:#067FC8;}
	.st2{fill:#273238;}
	.st3{fill:#FFFFFF;}
</style>
<title>دریافت پیشنهاد</title>
<polyline class="st0" points="38.3,168.8 38.3,127 8.9,127 8.9,431 38.3,431 38.3,398.1 "/>
<path class="st1" d="M144.8,293.6H42.2v75.3h80.7l31.5-39.1C149.2,318.4,146,306.1,144.8,293.6z"/>
<path class="st0" d="M257.3,170.6c-62.4,0-112.9,50.5-112.9,112.9c0,16,3.4,31.8,10,46.4l-31.5,39.1h60.8
	c47.2,40.7,118.4,35.4,159.2-11.8s35.4-118.4-11.8-159.2C310.5,180.2,284.4,170.6,257.3,170.6L257.3,170.6z"/>
<path class="st2" d="M179.3,292.3l-1.8-0.2c-0.5-0.1-1.1-0.3-1.6-0.5c-0.5-0.2-1.1-0.4-1.6-0.8l-1.3-1.1c-0.4-0.4-0.8-0.9-1.1-1.4
	c-0.4-0.4-0.6-1-0.9-1.5c-0.2-0.5-0.4-1.2-0.4-1.7c-0.2-0.5-0.2-1.2-0.2-1.7c0-0.6,0-1.2,0.2-1.8c0.1-0.5,0.3-1.1,0.4-1.6
	c0.3-0.5,0.5-1.1,0.9-1.6c0.3-0.4,0.6-1,1.1-1.3l1.3-1.1l1.6-0.8l1.6-0.5c1.2-0.3,2.3-0.3,3.5,0c0.6,0.1,1.2,0.3,1.7,0.5
	c0.5,0.2,1.1,0.4,1.5,0.8c0.5,0.3,1,0.6,1.3,1.1l1.2,1.3c0.3,0.5,0.5,1.1,0.8,1.6c0.2,0.5,0.4,1.1,0.5,1.6c0.1,0.6,0.2,1.2,0.2,1.8
	c0,0.5-0.1,1.2-0.2,1.7c-0.1,0.6-0.3,1.2-0.5,1.7c-0.2,0.5-0.4,1.1-0.8,1.5c-0.4,0.5-0.7,1-1.2,1.4l-1.3,1.1c-0.4,0.4-1,0.6-1.5,0.8
	c-0.5,0.3-1.1,0.4-1.7,0.5L179.3,292.3z"/>
<path class="st3" d="M8.9,431h249.5v57.1c0,8.2-6.7,15-15,15l0,0H23.8c-8.2,0-15-6.7-15-15V431z"/>
<path class="st3" d="M258.3,127H8.9V82.2c0-8.2,6.7-15,15-15l0,0h219.5c8.2,0,15,6.7,15,15V127z"/>
<path class="st2" d="M267.2,162.1V82.2c-0.1-13.1-10.7-23.7-23.8-23.8H23.8C10.7,58.5,0.1,69.1,0,82.2v405.9
	c0.1,13.1,10.7,23.7,23.8,23.8h219.5c13.1-0.1,23.7-10.7,23.8-23.8v-83.5c62.5-5,111.8-57.5,111.8-121.3S329.7,167.2,267.2,162.1z
	 M17.7,82.2c0-3.4,2.7-6.1,6.1-6.1l0,0h219.5c3.4,0,6.1,2.7,6.1,6.1v35.9H17.7V82.2z M17.7,135.8h231.8V162
	c-13.3,0.9-26.3,3.9-38.5,8.9H67.7c0.6,5.8,0.1,12,0,17.7h113.4c-18.6,14.9-32.4,35-39.7,57.7h-79c-1.2,5.8-2.4,11.8-3.5,17.7h78.3
	c-1.1,6.4-1.6,12.9-1.6,19.4v1.3H42.2c-4.9-0.1-8.8,3.8-8.9,8.7c0,0.1,0,0.1,0,0.2v75.3c-0.1,4.9,3.8,8.8,8.7,8.9c0.1,0,0.1,0,0.2,0
	h138.3c19.6,16,43.8,25.5,69,27.1v17.3H17.7V135.8z M144.1,328.4l-25.5,31.6H51v-57.6h86C138.4,311.3,140.8,320.1,144.1,328.4z
	 M249.5,488.2c0,3.4-2.7,6.1-6.1,6.1H23.8c-3.4,0-6.1-2.7-6.1-6.1v-48.3h231.8V488.2z M257.3,387.4c-24.9,0-49-8.9-67.9-25.2
	c-1.6-1.4-3.6-2.2-5.8-2.2h-42.3l19.8-24.6c2.1-2.6,2.6-6.1,1.2-9.2c-6.1-13.5-9.2-28-9.2-42.8c0-57.4,46.6-104,104-104
	s104,46.6,104,104S314.7,387.4,257.3,387.4L257.3,387.4L257.3,387.4z"/>
<path class="st2" d="M151.3,475.9h-35.4c-4.9,0-8.9-4-8.9-8.9c0-4.9,4-8.9,8.9-8.9h35.4c4.9,0,8.9,4,8.9,8.9
	C160.2,472,156.2,475.9,151.3,475.9z"/>
<path class="st2" d="M194.7,106l-1.7-0.2c-0.6-0.1-1.2-0.3-1.7-0.5c-0.5-0.2-1.1-0.4-1.5-0.8l-1.3-1.1c-0.4-0.4-0.8-0.9-1.2-1.4
	l-0.8-1.5l-0.5-1.7c-0.1-0.5-0.2-1.2-0.2-1.7c0-0.6,0.1-1.2,0.2-1.8l0.5-1.6l0.8-1.6l1.2-1.3c0.4-0.4,0.8-0.8,1.3-1.1
	c0.4-0.4,1-0.6,1.5-0.8c0.5-0.3,1.1-0.4,1.7-0.5c1.2-0.3,2.3-0.3,3.5,0s2.2,0.7,3.2,1.3c0.4,0.3,1,0.6,1.3,1.1
	c1.7,1.7,2.6,3.9,2.6,6.3c0,0.5,0,1.2-0.2,1.7c-0.1,0.5-0.3,1.2-0.4,1.7l-0.8,1.5c-0.4,0.5-0.7,1-1.2,1.4l-1.3,1.1
	c-1,0.6-2,1.1-3.2,1.3L194.7,106z"/>
<path class="st2" d="M159.5,106h-87c-4.9,0-8.9-4-8.9-8.9s4-8.9,8.9-8.9h87c4.9,0,8.9,4,8.9,8.9S164.3,106,159.5,106z"/>
<path class="st0" d="M184.5,255.4c15.4-39.9,60.2-59.6,100.1-44.1s59.6,60.2,44.1,100.1c-15.4,39.9-60.2,59.6-100.1,44.1
	c-8.2-3.2-15.9-7.8-22.5-13.6"/>
<path class="st2" d="M256.6,369.6c-20.6,0-40.6-7.4-56.2-20.9c-4-2.8-4.9-8.4-2-12.4c2.8-4,8.4-4.9,12.4-2c0.4,0.3,0.8,0.6,1.2,1
	c28.6,24.7,71.8,21.5,96.6-7.2c24.7-28.7,21.5-71.8-7.2-96.6c-28.7-24.7-71.8-21.5-96.6,7.2c-5.1,5.9-9.1,12.7-12,19.9
	c-1.9,4.4-7.2,6.5-11.7,4.5c-4.2-1.9-6.3-6.6-4.8-11c17.2-44.4,67.2-66.4,111.5-49.2s66.4,67.2,49.2,111.5
	C324.2,347.8,292.2,369.6,256.6,369.6z"/>
<path class="st2" d="M253.5,319.6c-11.7-0.4-21.2-6.7-21.2-13.2c0-3.5,2.9-8.5,6.6-8.5s7.4,6,14.6,7.3v-16.4
	c-8.9-3.5-19.5-7.9-19.5-20.9c0-13,9.2-19,19.5-20.6v-2.8c0-1.4,1.6-2.7,3.7-2.7c2.1,0,3.7,1.3,3.7,2.7v2.6c6,0.2,17.5,1.8,17.5,8.8
	c0,2.7-1.8,8.3-6.1,8.3s-5-3.3-11.3-3.7v14.8c8.9,3.5,19.1,8.2,19.1,21.9s-7.8,20.2-19.1,22.1v2.9c0,1.4-1.9,2.7-3.7,2.7
	c-1.9,0-3.7-1.3-3.7-2.7L253.5,319.6L253.5,319.6z M254.4,272.7v-12c-4.3,0.9-6.2,3.3-6.2,5.7C248.2,268.7,250.8,271.1,254.4,272.7
	L254.4,272.7z M259.9,291.5V305c3.3-0.8,5.9-2.7,5.9-6.4C265.9,295,263.4,293.2,259.9,291.5L259.9,291.5z"/>
<path class="st3" d="M140.2,284.8c2.8-71,36.9-113.9,109.2-122.8l-207.8,2.4l-2.1,111"/>
</svg>
