<?xml version="1.0" encoding="iso-8859-1"?>
<!-- Generator: Adobe Illustrator 19.0.0, SVG Export Plug-In . SVG Version: 6.00 Build 0)  -->
<svg version="1.1" id="Capa_1" xmlns="http://www.w3.org/2000/svg" xmlns:xlink="http://www.w3.org/1999/xlink" x="0px" y="0px"
	 viewBox="0 0 187.793 187.793" style="enable-background:new 0 0 187.793 187.793;" xml:space="preserve">
<path style="fill:#83D816;" d="M58.027,68.297L7.555,153.468c-1.828,3.086,0.396,6.989,3.982,6.989l121.583-3.413l51.2-88.747l0,0
	c0-7.54-5.791-13.653-12.935-13.653H85.333C74.59,54.643,64.474,59.702,58.027,68.297L58.027,68.297z"/>
<path d="M11.631,163.928c-3.045,0-5.673-1.529-7.134-4.089c-1.459-2.562-1.434-5.606,0.068-8.143l50.473-85.171
	c0.065-0.106,0.135-0.212,0.21-0.312c7.064-9.421,18.311-15.043,30.085-15.043h86.052c9.049,0,16.408,7.683,16.408,17.126
	c0,0.609-0.16,1.208-0.464,1.737l-51.2,88.747c-0.602,1.044-1.705,1.702-2.912,1.736L11.636,163.93
	C11.634,163.928,11.633,163.928,11.631,163.928z M60.918,70.235l-50.374,85.004c-0.297,0.502-0.133,0.944-0.009,1.162
	c0.125,0.217,0.42,0.584,1.004,0.584l119.543-3.359l49.731-86.199c-0.411-5.209-4.482-9.31-9.426-9.31H85.335
	C75.796,58.116,66.683,62.644,60.918,70.235z"/>
<path style="fill:#FBAD4A;" d="M58.027,34.163l-51.26,86.501c-1.48,2.499,0.321,5.659,3.224,5.659H133.12l51.2-92.16l0,0
	c0-7.54-5.791-13.653-12.935-13.653H85.333C74.59,20.51,64.474,25.568,58.027,34.163L58.027,34.163z"/>
<path d="M135.129,129.737H9.991c-2.606,0-4.932-1.352-6.222-3.616c-1.29-2.263-1.266-4.953,0.061-7.195l51.466-86.81
	c7.052-9.404,18.282-15.019,30.037-15.019h86.052c9.015,0,16.348,7.656,16.348,17.067v0.886L135.129,129.737z M60.867,36.066
	L9.704,122.405c-0.032,0.055-0.099,0.167-0.003,0.336c0.096,0.169,0.227,0.169,0.29,0.169h121.12l49.763-89.574
	c-0.393-5.26-4.5-9.412-9.491-9.412H85.332C75.776,23.923,66.644,28.46,60.867,36.066z"/>
<path style="fill:#FEDA38;" d="M66.56,139.977H17.067c-7.54,0-13.653-6.113-13.653-13.653l0,0c0-7.54,6.113-13.653,13.653-13.653
	h102.4c7.54,0,13.653,6.113,13.653,13.653l0,0c0,7.54-6.113,13.653-13.653,13.653H98.418"/>
<path d="M119.467,143.39H98.418v-6.827h21.048c5.647,0,10.24-4.593,10.24-10.24c0-5.647-4.593-10.24-10.24-10.24h-102.4
	c-5.647,0-10.24,4.593-10.24,10.24c0,5.647,4.593,10.24,10.24,10.24H66.56v6.827H17.067C7.656,143.39,0,135.734,0,126.323
	s7.656-17.067,17.067-17.067h102.4c9.411,0,17.067,7.656,17.067,17.067S128.877,143.39,119.467,143.39z"/>
<path d="M95.573,129.737H17.067c-1.884,0-3.413-1.529-3.413-3.413c0-1.884,1.529-3.413,3.413-3.413h78.507
	c1.884,0,3.413,1.529,3.413,3.413C98.987,128.207,97.459,129.737,95.573,129.737z"/>
<path style="fill:#85D839;" d="M98.417,139.977h21.05c7.54,0,13.653,6.113,13.653,13.653l0,0c0,7.54-6.113,13.653-13.653,13.653
	h-102.4c-7.54,0-13.653-6.113-13.653-13.653l0,0c0-7.54,6.113-13.653,13.653-13.653h24.462H66.56"/>
<path d="M119.467,170.697h-102.4C7.656,170.697,0,163.04,0,153.63c0-9.411,7.656-17.067,17.067-17.067H66.56
	c1.884,0,3.413,1.529,3.413,3.413c0,1.884-1.529,3.413-3.413,3.413H17.067c-5.647,0-10.24,4.593-10.24,10.24
	s4.593,10.24,10.24,10.24h102.4c5.647,0,10.24-4.593,10.24-10.24s-4.593-10.24-10.24-10.24h-21.05c-1.884,0-3.413-1.529-3.413-3.413
	c0-1.884,1.529-3.413,3.413-3.413h21.05c9.411,0,17.067,7.656,17.067,17.067C136.533,163.04,128.877,170.697,119.467,170.697z"/>
<path d="M119.467,157.043H40.96c-1.884,0-3.413-1.529-3.413-3.413s1.529-3.413,3.413-3.413h78.507c1.884,0,3.413,1.529,3.413,3.413
	S121.353,157.043,119.467,157.043z"/>
<g>
</g>
<g>
</g>
<g>
</g>
<g>
</g>
<g>
</g>
<g>
</g>
<g>
</g>
<g>
</g>
<g>
</g>
<g>
</g>
<g>
</g>
<g>
</g>
<g>
</g>
<g>
</g>
<g>
</g>
</svg>
