<?xml version="1.0" encoding="iso-8859-1"?>
<!-- Generator: Adobe Illustrator 19.0.0, SVG Export Plug-In . SVG Version: 6.00 Build 0)  -->
<svg version="1.1" id="Capa_1" xmlns="http://www.w3.org/2000/svg" xmlns:xlink="http://www.w3.org/1999/xlink" x="0px" y="0px"
	 viewBox="0 0 215.04 215.04" style="enable-background:new 0 0 215.04 215.04;" xml:space="preserve">
<polygon style="fill:#2ABBE9;" points="121.173,20.48 93.867,20.48 90.453,3.413 124.587,3.413 "/>
<path d="M121.173,23.893H93.867c-1.626,0-3.028-1.149-3.347-2.743L87.106,4.084c-0.201-1.004,0.058-2.043,0.707-2.833
	C88.462,0.459,89.429,0,90.453,0h34.133c1.024,0,1.992,0.459,2.64,1.249c0.649,0.79,0.908,1.83,0.707,2.833l-3.413,17.067
	C124.201,22.745,122.8,23.893,121.173,23.893z M96.666,17.067h21.71l2.048-10.24H94.618L96.666,17.067z"/>
<polygon style="fill:#2ABBE9;" points="131.413,187.733 107.783,211.627 83.627,187.733 93.867,20.48 121.173,20.48 "/>
<path d="M107.781,215.04c-0.898,0-1.761-0.355-2.4-0.986L81.227,190.16c-0.7-0.691-1.067-1.654-1.007-2.635L90.46,20.272
	c0.109-1.802,1.603-3.205,3.407-3.205h27.307c1.804,0,3.297,1.403,3.407,3.205l10.24,167.253c0.06,0.969-0.297,1.918-0.98,2.608
	l-23.632,23.893c-0.637,0.643-1.504,1.009-2.408,1.014C107.795,215.04,107.788,215.04,107.781,215.04z M87.129,186.397
	l20.627,20.403l20.159-20.381l-9.952-162.526H97.077L87.129,186.397z"/>
<rect x="84.086" y="42.672" transform="matrix(-0.7071 0.7071 -0.7071 -0.7071 213.2124 3.8545)" width="43.444" height="6.827"/>
<path d="M90.453,98.987c-0.874,0-1.746-0.333-2.413-1c-1.333-1.333-1.333-3.494,0-4.826l30.72-30.72
	c1.333-1.333,3.494-1.333,4.826,0s1.333,3.494,0,4.826l-30.72,30.72C92.199,98.654,91.327,98.987,90.453,98.987z"/>
<rect x="79.262" y="110.932" transform="matrix(-0.7071 0.7071 -0.7071 -0.7071 261.4821 120.3806)" width="53.094" height="6.827"/>
<rect x="74.431" y="145.056" transform="matrix(-0.7071 0.7071 -0.7071 -0.7071 285.6092 178.6362)" width="62.754" height="6.827"/>
<path d="M93.867,197.973c-0.874,0-1.746-0.333-2.413-1c-1.333-1.333-1.333-3.494,0-4.826l34.133-34.133
	c1.333-1.333,3.494-1.333,4.826,0c1.333,1.333,1.333,3.494,0,4.826L96.28,196.973C95.613,197.641,94.74,197.973,93.867,197.973z"/>
<g>
</g>
<g>
</g>
<g>
</g>
<g>
</g>
<g>
</g>
<g>
</g>
<g>
</g>
<g>
</g>
<g>
</g>
<g>
</g>
<g>
</g>
<g>
</g>
<g>
</g>
<g>
</g>
<g>
</g>
</svg>
