<?xml version="1.0" encoding="iso-8859-1"?>
<!-- Generator: Adobe Illustrator 19.0.0, SVG Export Plug-In . SVG Version: 6.00 Build 0)  -->
<svg version="1.1" id="Capa_1" xmlns="http://www.w3.org/2000/svg" xmlns:xlink="http://www.w3.org/1999/xlink" x="0px" y="0px"
	 viewBox="0 0 215.047 215.047" style="enable-background:new 0 0 215.047 215.047;" xml:space="preserve">
<path style="fill:#FFDD95;" d="M196.857,88.818l-67.48-0.119l13.095-22.257c2.872-4.881,4.393-10.441,4.403-16.106l0.017-9.393
	c0.014-7.54-6.088-13.664-13.629-13.677c-7.54-0.014-13.664,6.088-13.677,13.628l0,0c-0.012,6.438-3.089,12.483-8.286,16.282
	L80.157,79.928c-6.275,4.584-10.356,11.464-11.511,19.029H37.548v75.093h31.14c1.855,7.753,8.777,13.542,17.103,13.556l97.239,0.174
	c8.177,0.015,14.816-6.601,14.829-14.778l13.776-69.356C211.649,95.473,205.032,88.834,196.857,88.818z"/>
<path d="M183.055,191.194c-0.012,0-0.024,0-0.036,0L85.78,191.02c-8.823-0.014-16.538-5.468-19.608-13.556H37.547
	c-1.884,0-3.413-1.529-3.413-3.413V98.958c0-1.884,1.529-3.413,3.413-3.413h28.297c1.814-7.404,6.108-13.85,12.298-18.372
	l31.143-22.753c4.303-3.145,6.876-8.204,6.886-13.532c0.009-4.559,1.79-8.841,5.019-12.058c3.222-3.21,7.499-4.977,12.046-4.977
	c0.01,0,0.02,0,0.032,0c4.559,0.009,8.842,1.79,12.059,5.019s4.985,7.516,4.977,12.076l-0.017,9.395
	c-0.012,6.265-1.696,12.43-4.874,17.83l-10.074,17.121l61.525,0.109l0,0c10.045,0.019,18.202,8.206,18.183,18.249
	c0,0.22-0.022,0.442-0.065,0.659l-13.715,69.045C201.062,183.233,192.966,191.194,183.055,191.194z M40.96,170.638h27.727
	c1.58,0,2.951,1.084,3.319,2.618c1.538,6.431,7.207,10.928,13.786,10.938l97.241,0.174c0.007,0,0.014,0,0.02,0
	c6.272,0,11.378-5.094,11.39-11.37c0-0.22,0.022-0.442,0.065-0.659l13.708-69.009c-0.155-6.137-5.19-11.087-11.366-11.098
	l-67.48-0.119c-1.224-0.002-2.352-0.659-2.958-1.722c-0.606-1.062-0.597-2.369,0.024-3.424l13.095-22.257
	c2.563-4.355,3.924-9.327,3.932-14.38l0.017-9.395c0.005-2.736-1.055-5.306-2.987-7.245c-1.93-1.937-4.5-3.007-7.236-3.012
	c-0.005,0-0.012,0-0.019,0c-2.729,0-5.294,1.06-7.226,2.987c-1.937,1.93-3.007,4.5-3.012,7.235
	c-0.014,7.494-3.635,14.609-9.685,19.029L82.171,82.683c-5.506,4.021-9.11,9.986-10.151,16.788
	c-0.253,1.666-1.686,2.896-3.374,2.896H40.962v68.27H40.96z"/>
<path d="M208.213,119.438h-20.48c-1.884,0-3.413-1.529-3.413-3.413c0-1.884,1.529-3.413,3.413-3.413h20.48
	c1.884,0,3.413,1.529,3.413,3.413C211.627,117.909,210.099,119.438,208.213,119.438z"/>
<path d="M201.387,143.331H184.32c-1.884,0-3.413-1.529-3.413-3.413c0-1.884,1.529-3.413,3.413-3.413h17.067
	c1.884,0,3.413,1.529,3.413,3.413C204.8,141.802,203.273,143.331,201.387,143.331z"/>
<path d="M197.973,167.224H174.08c-1.884,0-3.413-1.529-3.413-3.413s1.529-3.413,3.413-3.413h23.893c1.884,0,3.413,1.529,3.413,3.413
	S199.859,167.224,197.973,167.224z"/>
<rect x="3.413" y="92.129" style="fill:#2ABBE9;" width="34.133" height="92.16"/>
<path d="M37.547,187.704H3.413c-1.884,0-3.413-1.529-3.413-3.413v-92.16c0-1.884,1.529-3.413,3.413-3.413h34.133
	c1.884,0,3.413,1.529,3.413,3.413v92.16C40.96,186.175,39.433,187.704,37.547,187.704z M6.827,180.878h27.307V95.544H6.827V180.878z
	"/>
<g>
</g>
<g>
</g>
<g>
</g>
<g>
</g>
<g>
</g>
<g>
</g>
<g>
</g>
<g>
</g>
<g>
</g>
<g>
</g>
<g>
</g>
<g>
</g>
<g>
</g>
<g>
</g>
<g>
</g>
</svg>
