<?xml version="1.0" encoding="iso-8859-1"?>
<!-- Generator: Adobe Illustrator 19.0.0, SVG Export Plug-In . SVG Version: 6.00 Build 0)  -->
<svg version="1.1" id="Capa_1" xmlns="http://www.w3.org/2000/svg" xmlns:xlink="http://www.w3.org/1999/xlink" x="0px" y="0px"
	 viewBox="0 0 196.948 196.948" style="enable-background:new 0 0 196.948 196.948;" xml:space="preserve">
<path style="fill:#84D839;" d="M122.584,26.938c-3.82-4.058-10.269-4.058-14.089,0L60.927,77.481v106.38
	c0,5.342,4.332,9.673,9.673,9.673h89.88c5.342,0,9.673-4.332,9.673-9.673V77.481L122.584,26.938z M115.54,63.828
	c-5.656,0-10.24-4.584-10.24-10.24s4.584-10.24,10.24-10.24c5.656,0,10.24,4.584,10.24,10.24S121.196,63.828,115.54,63.828z"/>
<path d="M160.48,196.948h-89.88c-7.218,0-13.087-5.871-13.087-13.087V77.481c0-0.869,0.331-1.707,0.928-2.34l47.568-50.543
	c2.463-2.616,5.938-4.118,9.53-4.118c0,0,0,0,0.002,0c3.593,0,7.066,1.502,9.527,4.118l47.57,50.543
	c0.597,0.633,0.928,1.469,0.928,2.34v106.38C173.567,191.077,167.698,196.948,160.48,196.948z M64.34,78.834v105.027
	c0,3.451,2.809,6.26,6.26,6.26h89.88c3.451,0,6.26-2.809,6.26-6.26V78.834l-46.641-49.556l0,0c-1.195-1.27-2.813-1.969-4.559-1.969
	l0,0c-1.744,0-3.364,0.7-4.56,1.969L64.34,78.834z M115.54,67.241c-7.528,0-13.653-6.125-13.653-13.653s6.125-13.653,13.653-13.653
	s13.653,6.125,13.653,13.653C129.194,61.116,123.069,67.241,115.54,67.241z M115.54,46.761c-3.765,0-6.827,3.062-6.827,6.827
	c0,3.765,3.062,6.827,6.827,6.827c3.765,0,6.827-3.062,6.827-6.827C122.367,49.823,119.305,46.761,115.54,46.761z"/>
<path style="fill:#2ABBE9;" d="M88.451,6.458c-3.82-4.058-10.269-4.058-14.089,0L26.794,57.001v106.38
	c0,5.342,4.332,9.673,9.673,9.673h89.88c5.342,0,9.673-4.332,9.673-9.673V57.001L88.451,6.458z M81.407,43.348
	c-5.656,0-10.24-4.584-10.24-10.24s4.584-10.24,10.24-10.24c5.656,0,10.24,4.584,10.24,10.24S87.063,43.348,81.407,43.348z"/>
<path d="M126.347,176.468h-89.88c-7.218,0-13.087-5.871-13.087-13.087V57.001c0-0.869,0.331-1.707,0.928-2.34L71.877,4.118
	C74.34,1.502,77.815,0,81.407,0c0,0,0,0,0.002,0c3.593,0,7.066,1.502,9.527,4.118l47.57,50.543c0.597,0.633,0.928,1.469,0.928,2.34
	v106.38C139.434,170.597,133.565,176.468,126.347,176.468z M30.207,58.354v105.027c0,3.451,2.809,6.26,6.26,6.26h89.88
	c3.451,0,6.26-2.809,6.26-6.26V58.354L85.966,8.798l0,0c-1.195-1.27-2.813-1.969-4.559-1.969l0,0c-1.744,0-3.364,0.7-4.56,1.969
	L30.207,58.354z M81.407,46.761c-7.528,0-13.653-6.125-13.653-13.653s6.125-13.653,13.653-13.653S95.06,25.58,95.06,33.108
	S88.935,46.761,81.407,46.761z M81.407,26.281c-3.765,0-6.827,3.062-6.827,6.827c0,3.765,3.062,6.827,6.827,6.827
	c3.765,0,6.827-3.062,6.827-6.827C88.234,29.343,85.172,26.281,81.407,26.281z"/>
<path d="M112.127,94.548H43.86c-1.884,0-3.413-1.529-3.413-3.413c0-1.884,1.529-3.413,3.413-3.413h68.267
	c1.884,0,3.413,1.529,3.413,3.413C115.54,93.018,114.011,94.548,112.127,94.548z"/>
<path d="M74.58,108.201H43.86c-1.884,0-3.413-1.529-3.413-3.413c0-1.884,1.529-3.413,3.413-3.413h30.72
	c1.884,0,3.413,1.529,3.413,3.413C77.994,106.672,76.465,108.201,74.58,108.201z"/>
<path d="M74.58,152.574H43.86c-1.884,0-3.413-1.529-3.413-3.413s1.529-3.413,3.413-3.413h30.72c1.884,0,3.413,1.529,3.413,3.413
	S76.465,152.574,74.58,152.574z"/>
<path d="M149.674,118.441H136.02c-1.884,0-3.413-1.529-3.413-3.413c0-1.884,1.529-3.413,3.413-3.413h13.653
	c1.884,0,3.413,1.529,3.413,3.413C153.087,116.912,151.558,118.441,149.674,118.441z"/>
<path d="M149.674,132.094H136.02c-1.884,0-3.413-1.529-3.413-3.413s1.529-3.413,3.413-3.413h13.653c1.884,0,3.413,1.529,3.413,3.413
	S151.558,132.094,149.674,132.094z"/>
<g>
</g>
<g>
</g>
<g>
</g>
<g>
</g>
<g>
</g>
<g>
</g>
<g>
</g>
<g>
</g>
<g>
</g>
<g>
</g>
<g>
</g>
<g>
</g>
<g>
</g>
<g>
</g>
<g>
</g>
</svg>
