<?xml version="1.0" encoding="iso-8859-1"?>
<!-- Generator: Adobe Illustrator 19.0.0, SVG Export Plug-In . SVG Version: 6.00 Build 0)  -->
<svg version="1.1" id="Capa_1" xmlns="http://www.w3.org/2000/svg" xmlns:xlink="http://www.w3.org/1999/xlink" x="0px" y="0px"
	 viewBox="0 0 198.089 198.089" style="enable-background:new 0 0 198.089 198.089;" xml:space="preserve">
<path style="fill:#9DFB45;" d="M122.938,3.471c0,13.196-10.697,23.893-23.893,23.893S75.151,16.667,75.151,3.471H47.845v191.147
	h27.307c0-13.196,10.697-23.893,23.893-23.893s23.893,10.697,23.893,23.893h27.307V3.471H122.938z"/>
<path d="M150.245,198.089h-27.307c-1.918,0-3.471-1.555-3.471-3.471c0-11.261-9.161-20.422-20.422-20.422
	s-20.422,9.161-20.422,20.422c0,1.918-1.555,3.471-3.471,3.471H47.845c-1.918,0-3.471-1.555-3.471-3.471V3.471
	C44.373,1.553,45.928,0,47.845,0h27.307c1.918,0,3.471,1.555,3.471,3.471c0,11.261,9.161,20.422,20.422,20.422
	s20.422-9.161,20.422-20.422c0-1.918,1.555-3.471,3.471-3.471h27.307c1.918,0,3.471,1.555,3.471,3.471v191.147
	C153.716,196.536,152.163,198.089,150.245,198.089z M126.191,191.147h20.582V6.943h-20.582
	c-1.712,13.455-13.232,23.893-27.146,23.893S73.61,20.398,71.898,6.943H51.316v184.204h20.582
	c1.712-13.455,13.232-23.893,27.146-23.893S124.479,177.691,126.191,191.147z"/>
<path d="M67.756,64.969H60.93c-1.918,0-3.471-1.555-3.471-3.471c0-1.917,1.555-3.471,3.471-3.471h6.827
	c1.918,0,3.471,1.555,3.471,3.471C71.228,63.415,69.673,64.969,67.756,64.969z"/>
<path d="M85.391,64.969h-6.827c-1.918,0-3.471-1.555-3.471-3.471c0-1.917,1.555-3.471,3.471-3.471h6.827
	c1.918,0,3.471,1.555,3.471,3.471C88.863,63.415,87.31,64.969,85.391,64.969z"/>
<path d="M103.026,64.969H96.2c-1.918,0-3.471-1.555-3.471-3.471c0-1.917,1.555-3.471,3.471-3.471h6.827
	c1.918,0,3.471,1.555,3.471,3.471C106.498,63.415,104.945,64.969,103.026,64.969z"/>
<path d="M120.663,64.969h-6.827c-1.918,0-3.471-1.555-3.471-3.471c0-1.917,1.555-3.471,3.471-3.471h6.827
	c1.918,0,3.471,1.555,3.471,3.471C124.134,63.415,122.58,64.969,120.663,64.969z"/>
<path d="M138.298,64.969h-6.827c-1.918,0-3.471-1.555-3.471-3.471c0-1.917,1.555-3.471,3.471-3.471h6.827
	c1.918,0,3.471,1.555,3.471,3.471C141.769,63.415,140.216,64.969,138.298,64.969z"/>
<path d="M112.698,88.863h-51.2c-1.918,0-3.471-1.555-3.471-3.471s1.555-3.471,3.471-3.471h51.2c1.918,0,3.471,1.555,3.471,3.471
	S114.616,88.863,112.698,88.863z"/>
<path d="M129.765,102.516H61.498c-1.918,0-3.471-1.555-3.471-3.471c0-1.917,1.555-3.471,3.471-3.471h68.267
	c1.918,0,3.471,1.555,3.471,3.471C133.236,100.961,131.683,102.516,129.765,102.516z"/>
<path d="M112.698,116.169h-51.2c-1.918,0-3.471-1.555-3.471-3.471s1.555-3.471,3.471-3.471h51.2c1.918,0,3.471,1.555,3.471,3.471
	S114.616,116.169,112.698,116.169z"/>
<path d="M95.631,129.823H61.498c-1.918,0-3.471-1.555-3.471-3.471s1.555-3.471,3.471-3.471h34.133c1.918,0,3.471,1.555,3.471,3.471
	S97.55,129.823,95.631,129.823z"/>
<g>
</g>
<g>
</g>
<g>
</g>
<g>
</g>
<g>
</g>
<g>
</g>
<g>
</g>
<g>
</g>
<g>
</g>
<g>
</g>
<g>
</g>
<g>
</g>
<g>
</g>
<g>
</g>
<g>
</g>
</svg>
