<?xml version="1.0" encoding="iso-8859-1"?>
<!-- Generator: Adobe Illustrator 19.0.0, SVG Export Plug-In . SVG Version: 6.00 Build 0)  -->
<svg version="1.1" id="Capa_1" xmlns="http://www.w3.org/2000/svg" xmlns:xlink="http://www.w3.org/1999/xlink" x="0px" y="0px"
	 viewBox="0 0 198.093 198.093" style="enable-background:new 0 0 198.093 198.093;" xml:space="preserve">
<path style="fill:#FBAD4A;" d="M194.62,20.541h-34.133h-3.413h-30.956c0.14,1.121,0.236,2.255,0.236,3.413
	c0,15.08-12.225,27.307-27.307,27.307S71.74,39.034,71.74,23.954c0-1.159,0.096-2.292,0.236-3.413H41.02h-3.413H3.473v37.547
	l34.133,9.31v110.157h122.88V67.397l34.133-9.31V20.541z"/>
<path d="M160.486,181.027H37.606c-1.918,0-3.473-1.555-3.473-3.473V70.051L2.56,61.439C1.05,61.026,0,59.654,0,58.087V20.541
	c0-1.918,1.555-3.473,3.473-3.473h68.502c0.997,0,1.944,0.427,2.604,1.174c0.659,0.748,0.966,1.743,0.843,2.731
	c-0.142,1.143-0.21,2.092-0.21,2.983c0,13.141,10.692,23.834,23.834,23.834s23.834-10.694,23.834-23.835
	c0-0.891-0.067-1.84-0.21-2.983c-0.123-0.988,0.183-1.981,0.843-2.731c0.66-0.748,1.608-1.174,2.604-1.174h68.502
	c1.918,0,3.473,1.555,3.473,3.473v37.547c0,1.567-1.048,2.939-2.56,3.352l-31.573,8.612v107.505
	C163.959,179.472,162.405,181.027,160.486,181.027z M41.079,174.081h115.934V67.397c0-1.567,1.048-2.939,2.56-3.352l31.573-8.612
	v-31.42h-61.321c-0.032,16.945-13.827,30.72-30.78,30.72s-30.749-13.775-30.78-30.72H6.946v31.42l31.573,8.612
	c1.51,0.413,2.56,1.785,2.56,3.352L41.079,174.081L41.079,174.081z"/>
<polygon style="fill:#9DFB45;" points="75.153,105.874 47.846,105.874 47.846,68.327 61.5,51.261 75.153,68.327 "/>
<path d="M75.153,109.345H47.846c-1.918,0-3.471-1.555-3.471-3.471V68.327c0-0.788,0.268-1.553,0.761-2.169L58.79,49.091
	c1.316-1.647,4.105-1.647,5.422,0l13.653,17.067c0.493,0.614,0.761,1.381,0.761,2.169v37.547
	C78.624,107.791,77.071,109.345,75.153,109.345z M51.318,102.403h20.364V69.546L61.5,56.817L51.318,69.546V102.403z"/>
<path d="M61.5,58.087c-1.884,0-3.413-1.529-3.413-3.413V20.541c0-1.884,1.529-3.413,3.413-3.413c1.884,0,3.413,1.529,3.413,3.413
	v34.133C64.913,56.558,63.384,58.087,61.5,58.087z"/>
<path d="M160.486,81.981c-1.884,0-3.413-1.529-3.413-3.413V51.261c0-1.884,1.529-3.413,3.413-3.413c1.884,0,3.413,1.529,3.413,3.413
	v27.307C163.9,80.451,162.371,81.981,160.486,81.981z"/>
<path d="M37.606,92.221c-1.884,0-3.413-1.529-3.413-3.413V51.261c0-1.884,1.529-3.413,3.413-3.413s3.413,1.529,3.413,3.413v37.547
	C41.02,90.691,39.491,92.221,37.606,92.221z"/>
<path d="M143.42,78.627H112.7c-1.918,0-3.473-1.555-3.473-3.473c0-1.918,1.555-3.473,3.473-3.473h30.72
	c1.918,0,3.473,1.555,3.473,3.473C146.893,77.072,145.338,78.627,143.42,78.627z"/>
<g>
</g>
<g>
</g>
<g>
</g>
<g>
</g>
<g>
</g>
<g>
</g>
<g>
</g>
<g>
</g>
<g>
</g>
<g>
</g>
<g>
</g>
<g>
</g>
<g>
</g>
<g>
</g>
<g>
</g>
</svg>
