<?xml version="1.0" encoding="iso-8859-1"?>
<!-- Generator: Adobe Illustrator 19.0.0, SVG Export Plug-In . SVG Version: 6.00 Build 0)  -->
<svg version="1.1" id="Capa_1" xmlns="http://www.w3.org/2000/svg" xmlns:xlink="http://www.w3.org/1999/xlink" x="0px" y="0px"
	 viewBox="0 0 184.318 184.318" style="enable-background:new 0 0 184.318 184.318;" xml:space="preserve">
<path style="fill:#DDDDDD;" d="M133.147,180.905h-81.98c-3.755,0-6.798-3.043-6.798-6.798v-163.9c0-3.755,3.043-6.798,6.798-6.798
	h81.98c3.755,0,6.798,3.043,6.798,6.798v163.9C139.945,177.862,136.902,180.905,133.147,180.905z"/>
<path d="M133.149,184.318h-81.98c-5.63,0-10.209-4.581-10.209-10.209v-163.9C40.96,4.579,45.541,0,51.169,0h81.98
	c5.63,0,10.209,4.581,10.209,10.209v163.9C143.358,179.738,138.778,184.318,133.149,184.318z M51.168,6.825
	c-1.865,0-3.383,1.517-3.383,3.383v163.9c0,1.865,1.519,3.383,3.383,3.383h81.98c1.865,0,3.383-1.517,3.383-3.383v-163.9
	c0-1.865-1.519-3.383-3.383-3.383L51.168,6.825L51.168,6.825z"/>
<rect x="54.612" y="13.652" style="fill:#FBAD4A;" width="75.093" height="133.12"/>
<path d="M129.705,150.185H54.612c-1.884,0-3.413-1.529-3.413-3.413V13.652c0-1.884,1.529-3.413,3.413-3.413h75.093
	c1.884,0,3.413,1.529,3.413,3.413v133.12C133.118,148.656,131.589,150.185,129.705,150.185z M58.025,143.358h68.267V17.065H58.025
	V143.358z"/>
<circle style="fill:#DDDDDD;" cx="92.158" cy="163.838" r="6.827"/>
<path d="M92.158,174.078c-5.647,0-10.24-4.593-10.24-10.24s4.593-10.24,10.24-10.24s10.24,4.593,10.24,10.24
	S97.806,174.078,92.158,174.078z M92.158,160.425c-1.882,0-3.413,1.531-3.413,3.413s1.531,3.413,3.413,3.413
	s3.413-1.531,3.413-3.413S94.041,160.425,92.158,160.425z"/>
<path d="M116.052,44.372h-20.48c-1.884,0-3.413-1.529-3.413-3.413c0-1.884,1.529-3.413,3.413-3.413h20.48
	c1.884,0,3.413,1.529,3.413,3.413C119.465,42.842,117.936,44.372,116.052,44.372z"/>
<path d="M75.092,54.612c-0.667,0-1.326-0.195-1.893-0.573l-10.24-6.827c-1.568-1.046-1.992-3.164-0.947-4.733
	c1.045-1.568,3.164-1.993,4.733-0.947l6.825,4.55l8.625-20.122c0.741-1.734,2.744-2.538,4.482-1.794
	c1.732,0.742,2.534,2.749,1.792,4.482l-10.24,23.893c-0.398,0.932-1.191,1.638-2.164,1.927
	C75.745,54.566,75.418,54.612,75.092,54.612z"/>
<path d="M116.052,85.332h-20.48c-1.884,0-3.413-1.529-3.413-3.413c0-1.884,1.529-3.413,3.413-3.413h20.48
	c1.884,0,3.413,1.529,3.413,3.413C119.465,83.802,117.936,85.332,116.052,85.332z"/>
<path d="M75.092,95.572c-0.667,0-1.326-0.195-1.893-0.573l-10.24-6.827c-1.568-1.046-1.992-3.164-0.947-4.733
	c1.045-1.568,3.164-1.995,4.733-0.947l6.825,4.55l8.625-20.122c0.741-1.734,2.744-2.536,4.482-1.794
	c1.732,0.742,2.534,2.749,1.792,4.482l-10.24,23.893c-0.398,0.932-1.191,1.638-2.164,1.927
	C75.745,95.526,75.418,95.572,75.092,95.572z"/>
<path d="M116.052,126.292h-20.48c-1.884,0-3.413-1.529-3.413-3.413c0-1.884,1.529-3.413,3.413-3.413h20.48
	c1.884,0,3.413,1.529,3.413,3.413C119.465,124.762,117.936,126.292,116.052,126.292z"/>
<path d="M75.092,136.532c-0.667,0-1.326-0.195-1.893-0.573l-10.24-6.827c-1.568-1.046-1.992-3.164-0.947-4.733
	c1.044-1.568,3.164-1.995,4.733-0.947l6.825,4.55l8.625-20.122c0.741-1.734,2.744-2.538,4.482-1.794
	c1.732,0.742,2.534,2.749,1.792,4.482l-10.24,23.893c-0.398,0.932-1.191,1.638-2.164,1.927
	C75.745,136.486,75.418,136.532,75.092,136.532z"/>
<g>
</g>
<g>
</g>
<g>
</g>
<g>
</g>
<g>
</g>
<g>
</g>
<g>
</g>
<g>
</g>
<g>
</g>
<g>
</g>
<g>
</g>
<g>
</g>
<g>
</g>
<g>
</g>
<g>
</g>
</svg>
