<?xml version="1.0" encoding="iso-8859-1"?>
<!-- Generator: Adobe Illustrator 19.0.0, SVG Export Plug-In . SVG Version: 6.00 Build 0)  -->
<svg version="1.1" id="Capa_1" xmlns="http://www.w3.org/2000/svg" xmlns:xlink="http://www.w3.org/1999/xlink" x="0px" y="0px"
	 viewBox="0 0 197.973 197.973" style="enable-background:new 0 0 197.973 197.973;" xml:space="preserve">
<path style="fill:#777777;" d="M170.667,147.627H23.893V81.411c0-7.26,5.885-13.145,13.145-13.145h120.484
	c7.26,0,13.145,5.885,13.145,13.145V147.627z"/>
<path d="M170.667,151.04H23.893c-1.884,0-3.413-1.529-3.413-3.413V81.411c0-9.131,7.429-16.558,16.558-16.558h120.484
	c9.131,0,16.558,7.429,16.558,16.558v66.215C174.08,149.511,172.551,151.04,170.667,151.04z M27.307,144.213h139.947V81.411
	c0-5.367-4.366-9.731-9.731-9.731H37.038c-5.367,0-9.731,4.366-9.731,9.731V144.213z"/>
<path style="fill:#DDDDDD;" d="M157.522,170.667H37.038c-7.26,0-13.145-5.885-13.145-13.145v-10.749h146.773v10.749
	C170.667,164.782,164.782,170.667,157.522,170.667z"/>
<path d="M157.522,174.08H37.038c-9.131,0-16.558-7.429-16.558-16.558v-10.749c0-1.884,1.529-3.413,3.413-3.413h146.773
	c1.884,0,3.413,1.529,3.413,3.413v10.749C174.08,166.651,166.651,174.08,157.522,174.08z M27.307,150.187v7.335
	c0,5.367,4.366,9.731,9.731,9.731h120.484c5.367,0,9.731-4.366,9.731-9.731v-7.335H27.307z"/>
<polygon style="fill:#DDDDDD;" points="119.04,191.147 75.52,191.147 88.17,170.667 106.39,170.667 "/>
<path d="M119.04,194.56H75.52c-1.239,0-2.379-0.671-2.982-1.749c-0.602-1.082-0.573-2.403,0.079-3.456l12.65-20.48
	c0.621-1.007,1.72-1.62,2.903-1.62h18.22c1.183,0,2.282,0.613,2.903,1.62l12.65,20.48c0.652,1.053,0.679,2.376,0.079,3.456
	C121.419,193.889,120.279,194.56,119.04,194.56z M81.64,187.733h31.28l-8.433-13.653H90.074L81.64,187.733z"/>
<path d="M132.267,138.667c-0.874,0-1.746-0.333-2.413-1c-1.333-1.333-1.333-3.494,0-4.826l21.76-21.76
	c1.333-1.333,3.494-1.333,4.826,0s1.333,3.494,0,4.826l-21.76,21.76C134.013,138.334,133.14,138.667,132.267,138.667z"/>
<path d="M148.907,137.387c-0.874,0-1.746-0.333-2.413-1c-1.333-1.333-1.333-3.494,0-4.826l7.68-7.68
	c1.333-1.333,3.494-1.333,4.826,0s1.333,3.494,0,4.826l-7.68,7.68C150.653,137.054,149.78,137.387,148.907,137.387z"/>
<path d="M134.4,194.56H57.6c-1.884,0-3.413-1.529-3.413-3.413c0-1.884,1.529-3.413,3.413-3.413h76.8
	c1.884,0,3.413,1.529,3.413,3.413C137.813,193.031,136.284,194.56,134.4,194.56z"/>
<path style="fill:#DDDDDD;" d="M44.373,75.093L44.373,75.093c-7.54,0-13.653-6.113-13.653-13.653V6.827h27.307V61.44
	C58.027,68.98,51.913,75.093,44.373,75.093z"/>
<path d="M44.373,78.507c-9.411,0-17.067-7.656-17.067-17.067V6.827c0-1.884,1.529-3.413,3.413-3.413h27.307
	c1.884,0,3.413,1.529,3.413,3.413V61.44C61.44,70.851,53.784,78.507,44.373,78.507z M34.133,10.24v51.2
	c0,5.647,4.593,10.24,10.24,10.24s10.24-4.593,10.24-10.24v-51.2H34.133z"/>
<path style="fill:#ED5481;" d="M71.68,75.093L71.68,75.093c-7.54,0-13.653-6.113-13.653-13.653V6.827h27.307V61.44
	C85.333,68.98,79.22,75.093,71.68,75.093z"/>
<path d="M71.68,78.507c-9.411,0-17.067-7.656-17.067-17.067V6.827c0-1.884,1.529-3.413,3.413-3.413h27.307
	c1.884,0,3.413,1.529,3.413,3.413V61.44C88.747,70.851,81.091,78.507,71.68,78.507z M61.44,10.24v51.2
	c0,5.647,4.593,10.24,10.24,10.24s10.24-4.593,10.24-10.24v-51.2H61.44z"/>
<path style="fill:#ED5481;" d="M17.067,75.093L17.067,75.093c-7.54,0-13.653-6.113-13.653-13.653L10.24,6.827h20.48V61.44
	C30.72,68.98,24.607,75.093,17.067,75.093z"/>
<path d="M17.067,78.507C7.656,78.507,0,70.851,0,61.44c0-0.142,0.009-0.283,0.027-0.423L6.854,6.403
	c0.213-1.708,1.664-2.99,3.386-2.99h20.48c1.884,0,3.413,1.529,3.413,3.413V61.44C34.133,70.851,26.477,78.507,17.067,78.507z
	 M6.828,61.638c0.104,5.555,4.657,10.042,10.238,10.042c5.647,0,10.24-4.593,10.24-10.24v-51.2H13.254L6.828,61.638z"/>
<path style="fill:#DDDDDD;" d="M98.987,75.093L98.987,75.093c-7.54,0-13.653-6.113-13.653-13.653V6.827h27.307V61.44
	C112.64,68.98,106.527,75.093,98.987,75.093z"/>
<path d="M98.987,78.507c-9.411,0-17.067-7.656-17.067-17.067V6.827c0-1.884,1.529-3.413,3.413-3.413h27.307
	c1.884,0,3.413,1.529,3.413,3.413V61.44C116.053,70.851,108.397,78.507,98.987,78.507z M88.747,10.24v51.2
	c0,5.647,4.593,10.24,10.24,10.24s10.24-4.593,10.24-10.24v-51.2H88.747z"/>
<path style="fill:#ED5481;" d="M126.293,75.093L126.293,75.093c-7.54,0-13.653-6.113-13.653-13.653V6.827h27.307V61.44
	C139.947,68.98,133.833,75.093,126.293,75.093z"/>
<path d="M126.293,78.507c-9.411,0-17.067-7.656-17.067-17.067V6.827c0-1.884,1.529-3.413,3.413-3.413h27.307
	c1.884,0,3.413,1.529,3.413,3.413V61.44C143.36,70.851,135.704,78.507,126.293,78.507z M116.053,10.24v51.2
	c0,5.647,4.593,10.24,10.24,10.24s10.24-4.593,10.24-10.24v-51.2H116.053z"/>
<path style="fill:#ED5481;" d="M180.907,75.093L180.907,75.093c-7.54,0-13.653-6.113-13.653-13.653V6.827h20.48l6.827,54.613
	C194.56,68.98,188.447,75.093,180.907,75.093z"/>
<path d="M180.907,78.507c-9.411,0-17.067-7.656-17.067-17.067V6.827c0-1.884,1.529-3.413,3.413-3.413h20.48
	c1.722,0,3.173,1.282,3.386,2.99l6.827,54.613c0.019,0.14,0.027,0.282,0.027,0.423C197.973,70.851,190.317,78.507,180.907,78.507z
	 M170.667,10.24v51.2c0,5.647,4.593,10.24,10.24,10.24c5.581,0,10.134-4.487,10.238-10.042l-6.426-51.398H170.667z"/>
<path style="fill:#DDDDDD;" d="M153.6,75.093L153.6,75.093c-7.54,0-13.653-6.113-13.653-13.653V6.827h27.307V61.44
	C167.253,68.98,161.14,75.093,153.6,75.093z"/>
<path d="M153.6,78.507c-9.411,0-17.067-7.656-17.067-17.067V6.827c0-1.884,1.529-3.413,3.413-3.413h27.307
	c1.884,0,3.413,1.529,3.413,3.413V61.44C170.667,70.851,163.011,78.507,153.6,78.507z M143.36,10.24v51.2
	c0,5.647,4.593,10.24,10.24,10.24s10.24-4.593,10.24-10.24v-51.2H143.36z"/>
<g>
</g>
<g>
</g>
<g>
</g>
<g>
</g>
<g>
</g>
<g>
</g>
<g>
</g>
<g>
</g>
<g>
</g>
<g>
</g>
<g>
</g>
<g>
</g>
<g>
</g>
<g>
</g>
<g>
</g>
</svg>
