<?xml version="1.0" encoding="iso-8859-1"?>
<!-- Generator: Adobe Illustrator 19.0.0, SVG Export Plug-In . SVG Version: 6.00 Build 0)  -->
<svg version="1.1" id="Capa_1" xmlns="http://www.w3.org/2000/svg" xmlns:xlink="http://www.w3.org/1999/xlink" x="0px" y="0px"
	 viewBox="0 0 204.798 204.798" style="enable-background:new 0 0 204.798 204.798;" xml:space="preserve">
<path style="fill:#FBAD4A;" d="M175.706,195.602H29.094c-6.642,0-12.027-5.385-12.027-12.027v-86.96h170.667v86.96
	C187.733,190.217,182.349,195.602,175.706,195.602z"/>
<path d="M175.706,199.075H29.094c-8.547,0-15.5-6.953-15.5-15.5v-86.96c0-1.918,1.555-3.473,3.473-3.473h170.667
	c1.918,0,3.473,1.555,3.473,3.473v86.96C191.206,192.122,184.253,199.075,175.706,199.075z M20.54,100.088v83.487
	c0,4.716,3.838,8.554,8.554,8.554h146.613c4.716,0,8.554-3.838,8.554-8.554v-83.487H20.54z"/>
<path style="fill:#FEDA38;" d="M196.002,96.615H8.798c-2.975,0-5.385-2.412-5.385-5.385V74.695c0-2.975,2.412-5.385,5.385-5.385H196
	c2.975,0,5.385,2.412,5.385,5.385v16.536C201.387,94.204,198.975,96.615,196.002,96.615z"/>
<path d="M196.002,100.029H8.798C3.946,100.029,0,96.083,0,91.231V74.695c0-4.852,3.946-8.798,8.798-8.798H196
	c4.852,0,8.798,3.946,8.798,8.798v16.536C204.8,96.083,200.854,100.029,196.002,100.029z M8.798,72.722
	c-1.087,0-1.971,0.884-1.971,1.971v16.536c0,1.087,0.884,1.971,1.971,1.971H196c1.087,0,1.971-0.884,1.971-1.971V74.693
	c0-1.087-0.884-1.971-1.971-1.971H8.798z"/>
<path style="fill:#777777;" d="M40.511,12.135L40.511,12.135c-3.999,3.999-3.999,10.482,0,14.481l55.088,55.088
	c3.999,3.999,10.482,3.999,14.481,0l0,0c3.999-3.999,3.999-10.482,0-14.481L54.992,12.135C50.993,8.137,44.51,8.137,40.511,12.135z"
	/>
<path d="M102.839,88.111c-3.497,0-6.992-1.331-9.655-3.992L38.096,29.03c-5.323-5.323-5.323-13.984,0-19.308l0,0
	c2.579-2.579,6.007-3.999,9.655-3.999s7.076,1.42,9.655,3.999l55.088,55.088c2.579,2.579,3.999,6.007,3.999,9.655
	c0,3.647-1.42,7.076-3.999,9.655C109.831,86.78,106.336,88.111,102.839,88.111z M42.924,14.548c-2.662,2.662-2.662,6.994,0,9.655
	l55.088,55.088c2.662,2.661,6.994,2.661,9.655,0c1.289-1.289,1.999-3.004,1.999-4.826c0-1.824-0.71-3.538-1.999-4.826L52.579,14.548
	c-1.289-1.289-3.004-1.999-4.828-1.999C45.928,12.55,44.213,13.26,42.924,14.548L42.924,14.548z"/>
<circle style="fill:#ED5481;" cx="42.667" cy="118.8" r="8.533"/>
<path d="M42.667,130.749c-6.588,0-11.947-5.359-11.947-11.947c0-6.588,5.359-11.947,11.947-11.947s11.947,5.359,11.947,11.947
	C54.613,125.39,49.254,130.749,42.667,130.749z M42.667,113.682c-2.823,0-5.12,2.297-5.12,5.12s2.297,5.12,5.12,5.12
	s5.12-2.297,5.12-5.12S45.489,113.682,42.667,113.682z"/>
<circle style="fill:#ED5481;" cx="76.8" cy="118.8" r="8.533"/>
<path d="M76.8,130.749c-6.588,0-11.947-5.359-11.947-11.947c0-6.588,5.359-11.947,11.947-11.947c6.588,0,11.947,5.359,11.947,11.947
	C88.747,125.39,83.388,130.749,76.8,130.749z M76.8,113.682c-2.823,0-5.12,2.297-5.12,5.12s2.297,5.12,5.12,5.12
	s5.12-2.297,5.12-5.12S79.623,113.682,76.8,113.682z"/>
<circle style="fill:#ED5481;" cx="128" cy="118.8" r="8.533"/>
<path d="M128,130.749c-6.588,0-11.947-5.359-11.947-11.947c0-6.588,5.359-11.947,11.947-11.947c6.588,0,11.947,5.359,11.947,11.947
	C139.947,125.39,134.588,130.749,128,130.749z M128,113.682c-2.823,0-5.12,2.297-5.12,5.12s2.297,5.12,5.12,5.12
	c2.823,0,5.12-2.297,5.12-5.12S130.823,113.682,128,113.682z"/>
<circle style="fill:#ED5481;" cx="162.133" cy="118.8" r="8.533"/>
<path d="M162.133,130.749c-6.588,0-11.947-5.359-11.947-11.947c0-6.588,5.359-11.947,11.947-11.947
	c6.588,0,11.947,5.359,11.947,11.947C174.08,125.39,168.721,130.749,162.133,130.749z M162.133,113.682
	c-2.823,0-5.12,2.297-5.12,5.12s2.297,5.12,5.12,5.12c2.823,0,5.12-2.297,5.12-5.12S164.956,113.682,162.133,113.682z"/>
<circle style="fill:#ED5481;" cx="42.667" cy="146.107" r="8.533"/>
<path d="M42.667,158.055c-6.588,0-11.947-5.359-11.947-11.947c0-6.588,5.359-11.947,11.947-11.947s11.947,5.359,11.947,11.947
	C54.613,152.696,49.254,158.055,42.667,158.055z M42.667,140.989c-2.823,0-5.12,2.297-5.12,5.12c0,2.823,2.297,5.12,5.12,5.12
	s5.12-2.297,5.12-5.12C47.787,143.286,45.489,140.989,42.667,140.989z"/>
<circle style="fill:#ED5481;" cx="76.8" cy="146.107" r="8.533"/>
<path d="M76.8,158.055c-6.588,0-11.947-5.359-11.947-11.947c0-6.588,5.359-11.947,11.947-11.947c6.588,0,11.947,5.359,11.947,11.947
	C88.747,152.696,83.388,158.055,76.8,158.055z M76.8,140.989c-2.823,0-5.12,2.297-5.12,5.12c0,2.823,2.297,5.12,5.12,5.12
	s5.12-2.297,5.12-5.12C81.92,143.286,79.623,140.989,76.8,140.989z"/>
<circle style="fill:#ED5481;" cx="128" cy="146.107" r="8.533"/>
<path d="M128,158.055c-6.588,0-11.947-5.359-11.947-11.947c0-6.588,5.359-11.947,11.947-11.947c6.588,0,11.947,5.359,11.947,11.947
	C139.947,152.696,134.588,158.055,128,158.055z M128,140.989c-2.823,0-5.12,2.297-5.12,5.12c0,2.823,2.297,5.12,5.12,5.12
	c2.823,0,5.12-2.297,5.12-5.12C133.12,143.286,130.823,140.989,128,140.989z"/>
<circle style="fill:#ED5481;" cx="162.133" cy="146.107" r="8.533"/>
<path d="M162.133,158.055c-6.588,0-11.947-5.359-11.947-11.947c0-6.588,5.359-11.947,11.947-11.947
	c6.588,0,11.947,5.359,11.947,11.947C174.08,152.696,168.721,158.055,162.133,158.055z M162.133,140.989
	c-2.823,0-5.12,2.297-5.12,5.12c0,2.823,2.297,5.12,5.12,5.12c2.823,0,5.12-2.297,5.12-5.12
	C167.253,143.286,164.956,140.989,162.133,140.989z"/>
<circle style="fill:#ED5481;" cx="42.667" cy="173.414" r="8.533"/>
<path d="M42.667,185.362c-6.588,0-11.947-5.359-11.947-11.947s5.359-11.947,11.947-11.947s11.947,5.359,11.947,11.947
	S49.254,185.362,42.667,185.362z M42.667,168.295c-2.823,0-5.12,2.297-5.12,5.12c0,2.823,2.297,5.12,5.12,5.12s5.12-2.297,5.12-5.12
	C47.787,170.592,45.489,168.295,42.667,168.295z"/>
<circle style="fill:#ED5481;" cx="76.8" cy="173.414" r="8.533"/>
<path d="M76.8,185.362c-6.588,0-11.947-5.359-11.947-11.947s5.359-11.947,11.947-11.947c6.588,0,11.947,5.359,11.947,11.947
	S83.388,185.362,76.8,185.362z M76.8,168.295c-2.823,0-5.12,2.297-5.12,5.12c0,2.823,2.297,5.12,5.12,5.12s5.12-2.297,5.12-5.12
	C81.92,170.592,79.623,168.295,76.8,168.295z"/>
<circle style="fill:#ED5481;" cx="128" cy="173.414" r="8.533"/>
<path d="M128,185.362c-6.588,0-11.947-5.359-11.947-11.947s5.359-11.947,11.947-11.947c6.588,0,11.947,5.359,11.947,11.947
	S134.588,185.362,128,185.362z M128,168.295c-2.823,0-5.12,2.297-5.12,5.12c0,2.823,2.297,5.12,5.12,5.12
	c2.823,0,5.12-2.297,5.12-5.12C133.12,170.592,130.823,168.295,128,168.295z"/>
<circle style="fill:#ED5481;" cx="162.133" cy="173.414" r="8.533"/>
<path d="M162.133,185.362c-6.588,0-11.947-5.359-11.947-11.947s5.359-11.947,11.947-11.947c6.588,0,11.947,5.359,11.947,11.947
	S168.721,185.362,162.133,185.362z M162.133,168.295c-2.823,0-5.12,2.297-5.12,5.12c0,2.823,2.297,5.12,5.12,5.12
	c2.823,0,5.12-2.297,5.12-5.12C167.253,170.592,164.956,168.295,162.133,168.295z"/>
<g>
</g>
<g>
</g>
<g>
</g>
<g>
</g>
<g>
</g>
<g>
</g>
<g>
</g>
<g>
</g>
<g>
</g>
<g>
</g>
<g>
</g>
<g>
</g>
<g>
</g>
<g>
</g>
<g>
</g>
</svg>
