<?xml version="1.0" encoding="iso-8859-1"?>
<!-- Generator: Adobe Illustrator 19.0.0, SVG Export Plug-In . SVG Version: 6.00 Build 0)  -->
<svg version="1.1" id="Capa_1" xmlns="http://www.w3.org/2000/svg" xmlns:xlink="http://www.w3.org/1999/xlink" x="0px" y="0px"
	 viewBox="0 0 194.561 194.561" style="enable-background:new 0 0 194.561 194.561;" xml:space="preserve">
<path style="fill:#DDDDDD;" d="M157.878,191.148H36.684c-6.12,0-11.083-4.961-11.083-11.083V28.151
	c0-6.12,4.961-11.083,11.083-11.083h121.194c6.12,0,11.083,4.961,11.083,11.083v151.914
	C168.961,186.187,163.999,191.148,157.878,191.148z"/>
<path d="M157.878,194.561H36.684c-7.994,0-14.496-6.504-14.496-14.496V28.151c0-7.994,6.504-14.496,14.496-14.496h121.194
	c7.994,0,14.496,6.504,14.496,14.496v151.914C172.374,188.057,165.87,194.561,157.878,194.561z M36.684,20.481
	c-4.231,0-7.67,3.441-7.67,7.67v151.914c0,4.231,3.441,7.67,7.67,7.67h121.194c4.231,0,7.67-3.441,7.67-7.67V28.151
	c0-4.231-3.441-7.67-7.67-7.67L36.684,20.481L36.684,20.481z"/>
<polygon style="fill:#777777;" points="96.868,39.255 137.415,3.415 56.321,3.415 "/>
<path d="M96.868,42.668c-0.809,0-1.615-0.285-2.26-0.857L54.061,5.971c-1.063-0.939-1.435-2.439-0.932-3.765
	c0.502-1.326,1.773-2.205,3.191-2.205h81.094c1.418,0,2.69,0.879,3.191,2.205c0.503,1.326,0.131,2.826-0.932,3.765l-40.547,35.84
	C98.482,42.383,97.675,42.668,96.868,42.668z M65.335,6.828L96.868,34.7l31.531-27.872H65.335z"/>
<path d="M97.281,194.561c-1.884,0-3.413-1.529-3.413-3.413v-153.6c0-1.884,1.529-3.413,3.413-3.413c1.884,0,3.413,1.529,3.413,3.413
	v153.6C100.694,193.032,99.165,194.561,97.281,194.561z"/>
<path d="M110.934,194.561c-1.884,0-3.413-1.529-3.413-3.413v-153.6c0-1.884,1.529-3.413,3.413-3.413
	c1.884,0,3.413,1.529,3.413,3.413v153.6C114.347,193.032,112.818,194.561,110.934,194.561z"/>
<polygon style="fill:#FFFFFF;" points="91.606,29.17 78.34,49.042 41.401,24.381 56.321,3.415 "/>
<path d="M78.337,52.454c-0.652,0-1.311-0.184-1.891-0.575l-36.939-24.66c-0.768-0.512-1.295-1.314-1.461-2.222
	c-0.167-0.906,0.039-1.843,0.575-2.596L53.539,1.435c0.531-0.744,1.333-1.244,2.236-1.391c0.896-0.143,1.823,0.075,2.558,0.613
	L93.62,26.412c1.478,1.079,1.843,3.13,0.826,4.652L81.18,50.937C80.523,51.922,79.439,52.454,78.337,52.454z M46.222,23.495
	l31.176,20.813l9.554-14.312L57.101,8.207L46.222,23.495z"/>
<polygon style="fill:#FFFFFF;" points="102.841,29.17 116.109,49.042 153.046,24.381 138.128,3.415 "/>
<path d="M116.112,52.454c-1.103,0-2.185-0.532-2.842-1.519l-13.266-19.872c-1.017-1.522-0.652-3.574,0.826-4.652l35.285-25.755
	c0.736-0.538,1.662-0.754,2.558-0.613c0.899,0.147,1.705,0.649,2.236,1.391L155.83,22.4c0.534,0.751,0.742,1.688,0.575,2.596
	c-0.167,0.908-0.693,1.71-1.461,2.222l-36.939,24.66C117.423,52.27,116.764,52.454,116.112,52.454z M107.498,29.996l9.554,14.312
	l31.176-20.813L137.35,8.209L107.498,29.996z"/>
<rect x="42.667" y="85.335" style="fill:#DDDDDD;" width="37.547" height="23.893"/>
<path d="M80.214,112.641H42.667c-1.884,0-3.413-1.529-3.413-3.413V85.335c0-1.884,1.529-3.413,3.413-3.413h37.547
	c1.884,0,3.413,1.529,3.413,3.413v23.893C83.627,111.112,82.098,112.641,80.214,112.641z M46.081,105.815h30.72V88.748h-30.72
	V105.815z"/>
<rect x="42.667" y="75.095" style="fill:#FFFFFF;" width="37.547" height="10.24"/>
<path d="M80.214,88.748H42.667c-1.884,0-3.413-1.529-3.413-3.413v-10.24c0-1.884,1.529-3.413,3.413-3.413h37.547
	c1.884,0,3.413,1.529,3.413,3.413v10.24C83.627,87.219,82.098,88.748,80.214,88.748z M46.081,81.921h30.72v-3.413h-30.72V81.921z"/>
<g>
</g>
<g>
</g>
<g>
</g>
<g>
</g>
<g>
</g>
<g>
</g>
<g>
</g>
<g>
</g>
<g>
</g>
<g>
</g>
<g>
</g>
<g>
</g>
<g>
</g>
<g>
</g>
<g>
</g>
</svg>
