<?xml version="1.0" encoding="iso-8859-1"?>
<!-- Generator: Adobe Illustrator 19.0.0, SVG Export Plug-In . SVG Version: 6.00 Build 0)  -->
<svg version="1.1" id="Capa_1" xmlns="http://www.w3.org/2000/svg" xmlns:xlink="http://www.w3.org/1999/xlink" x="0px" y="0px"
	 viewBox="0 0 194.621 194.621" style="enable-background:new 0 0 194.621 194.621;" xml:space="preserve">
<path style="fill:#ED5481;" d="M157.908,191.147H36.715c-6.12,0-11.083-4.961-11.083-11.083V28.15
	c0-6.12,4.961-11.083,11.083-11.083h121.194c6.12,0,11.083,4.961,11.083,11.083v151.914
	C168.992,186.185,164.03,191.147,157.908,191.147z"/>
<path d="M157.908,194.621H36.713c-8.026,0-14.556-6.53-14.556-14.556V28.151c0-8.026,6.53-14.556,14.556-14.556h121.196
	c8.026,0,14.556,6.53,14.556,14.556v151.914C172.465,188.09,165.935,194.621,157.908,194.621z M36.715,20.541
	c-4.195,0-7.608,3.413-7.608,7.61v151.914c0,4.197,3.413,7.61,7.608,7.61H157.91c4.195,0,7.608-3.413,7.608-7.61V28.151
	c0-4.197-3.413-7.61-7.608-7.61H36.715z"/>
<polygon style="fill:#777777;" points="96.899,39.253 137.446,3.413 56.352,3.413 "/>
<path d="M96.899,42.667c-0.807,0-1.615-0.285-2.261-0.857L54.09,5.97c-1.063-0.939-1.434-2.439-0.932-3.765S54.932,0,56.352,0
	h81.094c1.42,0,2.69,0.879,3.193,2.205c0.503,1.326,0.131,2.826-0.932,3.765L99.16,41.81C98.513,42.382,97.706,42.667,96.899,42.667
	z M65.368,6.827l31.531,27.872l31.532-27.872H65.368z"/>
<path d="M97.312,194.56c-1.884,0-3.413-1.529-3.413-3.413v-153.6c0-1.884,1.529-3.413,3.413-3.413c1.884,0,3.413,1.529,3.413,3.413
	v153.6C100.725,193.033,99.196,194.56,97.312,194.56z"/>
<circle style="fill:#FFFFFF;" cx="97.312" cy="71.677" r="6.827"/>
<path d="M97.312,81.92c-5.647,0-10.24-4.593-10.24-10.24c0-5.647,4.593-10.24,10.24-10.24s10.24,4.593,10.24,10.24
	C107.552,77.327,102.959,81.92,97.312,81.92z M97.312,68.267c-1.882,0-3.413,1.531-3.413,3.413c0,1.882,1.531,3.413,3.413,3.413
	s3.413-1.531,3.413-3.413C100.725,69.798,99.194,68.267,97.312,68.267z"/>
<circle style="fill:#FFFFFF;" cx="97.312" cy="109.223" r="6.827"/>
<path d="M97.312,119.467c-5.647,0-10.24-4.593-10.24-10.24s4.593-10.24,10.24-10.24s10.24,4.593,10.24,10.24
	S102.959,119.467,97.312,119.467z M97.312,105.813c-1.882,0-3.413,1.531-3.413,3.413c0,1.882,1.531,3.413,3.413,3.413
	s3.413-1.531,3.413-3.413C100.725,107.344,99.194,105.813,97.312,105.813z"/>
<circle style="fill:#FFFFFF;" cx="97.312" cy="146.77" r="6.827"/>
<path d="M97.312,157.013c-5.647,0-10.24-4.593-10.24-10.24s4.593-10.24,10.24-10.24s10.24,4.593,10.24,10.24
	S102.959,157.013,97.312,157.013z M97.312,143.36c-1.882,0-3.413,1.531-3.413,3.413c0,1.882,1.531,3.413,3.413,3.413
	s3.413-1.531,3.413-3.413C100.725,144.891,99.194,143.36,97.312,143.36z"/>
<polygon style="fill:#ED5481;" points="91.637,29.169 78.371,49.041 41.432,24.38 56.352,3.413 "/>
<path d="M78.368,52.454c-0.65,0-1.309-0.184-1.891-0.575L39.537,27.22c-0.768-0.512-1.295-1.314-1.461-2.222
	c-0.167-0.906,0.041-1.843,0.575-2.596l14.92-20.966c0.529-0.744,1.333-1.244,2.234-1.391c0.901-0.143,1.821,0.075,2.56,0.613
	l35.285,25.755c1.478,1.079,1.843,3.13,0.826,4.652L81.211,50.937C80.552,51.92,79.47,52.454,78.368,52.454z M46.253,23.494
	l31.176,20.813l9.554-14.312L57.132,8.206L46.253,23.494z"/>
<polygon style="fill:#ED5481;" points="102.872,29.169 116.14,49.041 153.077,24.38 138.159,3.413 "/>
<path d="M116.143,52.454c-1.102,0-2.185-0.532-2.843-1.519l-13.266-19.872c-1.015-1.522-0.65-3.574,0.826-4.652l35.285-25.755
	c0.737-0.538,1.662-0.754,2.56-0.613c0.901,0.147,1.707,0.649,2.234,1.391l14.92,20.966c0.534,0.751,0.744,1.688,0.575,2.596
	c-0.167,0.908-0.695,1.71-1.461,2.222l-36.939,24.66C117.452,52.268,116.793,52.454,116.143,52.454z M107.529,29.996l9.554,14.312
	l31.176-20.813L137.381,8.209L107.529,29.996z"/>
<g>
</g>
<g>
</g>
<g>
</g>
<g>
</g>
<g>
</g>
<g>
</g>
<g>
</g>
<g>
</g>
<g>
</g>
<g>
</g>
<g>
</g>
<g>
</g>
<g>
</g>
<g>
</g>
<g>
</g>
</svg>
