<?xml version="1.0" encoding="iso-8859-1"?>
<!-- Generator: Adobe Illustrator 19.0.0, SVG Export Plug-In . SVG Version: 6.00 Build 0)  -->
<svg version="1.1" id="Capa_1" xmlns="http://www.w3.org/2000/svg" xmlns:xlink="http://www.w3.org/1999/xlink" x="0px" y="0px"
	 viewBox="0 0 197.973 197.973" style="enable-background:new 0 0 197.973 197.973;" xml:space="preserve">
<path d="M194.56,174.08H3.413c-1.884,0-3.413-1.529-3.413-3.413V27.307c0-1.884,1.529-3.413,3.413-3.413H194.56
	c1.884,0,3.413,1.529,3.413,3.413v143.36C197.973,172.551,196.444,174.08,194.56,174.08z M6.827,167.253h184.32V30.72H6.827V167.253
	z"/>
<rect x="13.653" y="78.507" style="fill:#777777;" width="13.653" height="81.92"/>
<path d="M27.307,163.84H13.653c-1.884,0-3.413-1.529-3.413-3.413v-81.92c0-1.884,1.529-3.413,3.413-3.413h13.653
	c1.884,0,3.413,1.529,3.413,3.413v81.92C30.72,162.311,29.191,163.84,27.307,163.84z M17.067,157.013h6.827V81.92h-6.827V157.013z"
	/>
<rect x="92.16" y="78.507" style="fill:#777777;" width="13.653" height="81.92"/>
<path d="M105.813,163.84H92.16c-1.884,0-3.413-1.529-3.413-3.413v-81.92c0-1.884,1.529-3.413,3.413-3.413h13.653
	c1.884,0,3.413,1.529,3.413,3.413v81.92C109.227,162.311,107.698,163.84,105.813,163.84z M95.573,157.013h6.827V81.92h-6.827
	V157.013z"/>
<rect x="146.773" y="78.507" style="fill:#777777;" width="13.653" height="81.92"/>
<path d="M160.427,163.84h-13.653c-1.884,0-3.413-1.529-3.413-3.413v-81.92c0-1.884,1.529-3.413,3.413-3.413h13.653
	c1.884,0,3.413,1.529,3.413,3.413v81.92C163.84,162.311,162.311,163.84,160.427,163.84z M150.187,157.013h6.827V81.92h-6.827
	V157.013z"/>
<rect x="170.667" y="78.507" style="fill:#777777;" width="13.653" height="81.92"/>
<path d="M184.32,163.84h-13.653c-1.884,0-3.413-1.529-3.413-3.413v-81.92c0-1.884,1.529-3.413,3.413-3.413h13.653
	c1.884,0,3.413,1.529,3.413,3.413v81.92C187.733,162.311,186.204,163.84,184.32,163.84z M174.08,157.013h6.827V81.92h-6.827V157.013
	z"/>
<rect x="58.027" y="78.507" style="fill:#777777;" width="13.653" height="81.92"/>
<path d="M71.68,163.84H58.027c-1.884,0-3.413-1.529-3.413-3.413v-81.92c0-1.884,1.529-3.413,3.413-3.413H71.68
	c1.884,0,3.413,1.529,3.413,3.413v81.92C75.093,162.311,73.564,163.84,71.68,163.84z M61.44,157.013h6.827V81.92H61.44V157.013z"/>
<rect x="78.507" y="75.093" width="6.827" height="88.747"/>
<rect x="34.133" y="75.093" width="6.827" height="88.747"/>
<rect x="44.373" y="75.093" width="6.827" height="88.747"/>
<rect x="112.64" y="75.093" width="6.827" height="88.747"/>
<rect x="122.88" y="75.093" width="6.827" height="88.747"/>
<rect x="133.12" y="75.093" width="6.827" height="88.747"/>
<path d="M36.968,41.704H25.395l-1.167,7.793c0.7-0.094,1.353-0.186,2.473-0.186c2.333,0,4.666,0.514,6.533,1.633
	c2.381,1.353,4.34,3.966,4.34,7.793c0,5.927-4.714,10.359-11.293,10.359c-3.313,0-6.113-0.934-7.561-1.867l1.027-3.127
	c1.26,0.748,3.734,1.679,6.487,1.679c3.874,0,7.187-2.521,7.187-6.579c-0.046-3.92-2.661-6.721-8.726-6.721
	c-1.727,0-3.081,0.186-4.2,0.326l1.959-14.56h14.513L36.968,41.704L36.968,41.704z"/>
<path d="M55.492,68.584v-8.26H41.399v-2.707L54.932,38.25h4.434v18.854h4.246v3.22h-4.246v8.26H55.492z M55.492,57.103V46.976
	c0-1.587,0.046-3.173,0.14-4.76h-0.14c-0.934,1.773-1.679,3.081-2.521,4.48l-7.421,10.313v0.094H55.492z"/>
<path d="M84.842,41.704H73.269l-1.167,7.793c0.7-0.094,1.353-0.186,2.473-0.186c2.333,0,4.666,0.514,6.533,1.633
	c2.381,1.353,4.34,3.966,4.34,7.793c0,5.927-4.714,10.359-11.293,10.359c-3.313,0-6.113-0.934-7.561-1.867l1.027-3.127
	c1.26,0.748,3.734,1.679,6.487,1.679c3.874,0,7.187-2.521,7.187-6.579c-0.046-3.92-2.661-6.721-8.726-6.721
	c-1.727,0-3.081,0.186-4.2,0.326l1.959-14.56h14.513L84.842,41.704L84.842,41.704z"/>
<path d="M91.651,63.87c1.167,0.748,3.874,1.913,6.721,1.913c5.274,0,6.907-3.36,6.861-5.879c-0.046-4.246-3.874-6.067-7.84-6.067
	h-2.287v-3.081h2.287c2.987,0,6.767-1.539,6.767-5.134c0-2.427-1.539-4.574-5.32-4.574c-2.427,0-4.76,1.073-6.067,2.007
	l-1.073-2.987c1.587-1.167,4.666-2.333,7.933-2.333c5.973,0,8.68,3.546,8.68,7.233c0,3.127-1.867,5.787-5.6,7.141v0.094
	c3.734,0.748,6.767,3.546,6.767,7.793c0,4.854-3.78,9.1-11.059,9.1c-3.407,0-6.393-1.073-7.887-2.053L91.651,63.87z"/>
<path d="M127.302,68.584v-8.26h-14.094v-2.707l13.534-19.367h4.434v18.854h4.246v3.22h-4.246v8.26H127.302z M127.302,57.103V46.976
	c0-1.587,0.046-3.173,0.14-4.76h-0.14c-0.934,1.773-1.679,3.081-2.521,4.48l-7.421,10.313v0.094H127.302z"/>
<path d="M156.652,41.704h-11.573l-1.167,7.793c0.7-0.094,1.353-0.186,2.473-0.186c2.333,0,4.666,0.514,6.533,1.633
	c2.381,1.353,4.34,3.966,4.34,7.793c0,5.927-4.714,10.359-11.293,10.359c-3.313,0-6.113-0.934-7.561-1.867l1.027-3.127
	c1.26,0.748,3.734,1.679,6.487,1.679c3.874,0,7.187-2.521,7.187-6.579c-0.046-3.92-2.661-6.721-8.726-6.721
	c-1.727,0-3.081,0.186-4.2,0.326l1.959-14.56h14.513L156.652,41.704L156.652,41.704z"/>
<path d="M163.461,63.87c1.167,0.748,3.874,1.913,6.721,1.913c5.274,0,6.907-3.36,6.861-5.879c-0.046-4.246-3.874-6.067-7.84-6.067
	h-2.287v-3.081h2.287c2.987,0,6.767-1.539,6.767-5.134c0-2.427-1.539-4.574-5.32-4.574c-2.427,0-4.76,1.073-6.067,2.007
	l-1.073-2.987c1.587-1.167,4.666-2.333,7.933-2.333c5.973,0,8.68,3.546,8.68,7.233c0,3.127-1.867,5.787-5.6,7.141v0.094
	c3.734,0.748,6.767,3.546,6.767,7.793c0,4.854-3.78,9.1-11.059,9.1c-3.407,0-6.393-1.073-7.887-2.053L163.461,63.87z"/>
<g>
</g>
<g>
</g>
<g>
</g>
<g>
</g>
<g>
</g>
<g>
</g>
<g>
</g>
<g>
</g>
<g>
</g>
<g>
</g>
<g>
</g>
<g>
</g>
<g>
</g>
<g>
</g>
<g>
</g>
</svg>
