<?xml version="1.0" encoding="iso-8859-1"?>
<!-- Generator: Adobe Illustrator 19.0.0, SVG Export Plug-In . SVG Version: 6.00 Build 0)  -->
<svg version="1.1" id="Capa_1" xmlns="http://www.w3.org/2000/svg" xmlns:xlink="http://www.w3.org/1999/xlink" x="0px" y="0px"
	 viewBox="0 0 211.627 211.627" style="enable-background:new 0 0 211.627 211.627;" xml:space="preserve">
<rect x="3.413" y="113.118" style="fill:#85D839;" width="204.8" height="81.92"/>
<path d="M208.213,198.453H3.413c-1.884,0-3.413-1.529-3.413-3.413v-81.92c0-1.884,1.529-3.413,3.413-3.413h204.8
	c1.884,0,3.413,1.529,3.413,3.413v81.92C211.627,196.924,210.098,198.453,208.213,198.453z M6.827,191.626H204.8v-75.093H6.827
	V191.626z"/>
<path style="fill:#9DFB46;" d="M105.813,181.386c15.082,0,27.307-12.225,27.307-27.307c0-15.082-12.225-27.307-27.307-27.307
	V181.386z"/>
<path d="M105.813,184.8H102.4v-61.44h3.413c16.939,0,30.72,13.781,30.72,30.72S122.752,184.8,105.813,184.8z M109.227,130.429v47.3
	c11.563-1.662,20.48-11.633,20.48-23.649C129.707,142.063,120.789,132.091,109.227,130.429z"/>
<path d="M208.213,137.013c-13.175,0-23.893-10.718-23.893-23.893c0-1.884,1.529-3.413,3.413-3.413s3.413,1.529,3.413,3.413
	c0,9.411,7.656,17.067,17.067,17.067c1.884,0,3.413,1.529,3.413,3.413S210.098,137.013,208.213,137.013z"/>
<path d="M187.733,198.453c-1.884,0-3.413-1.529-3.413-3.413c0-13.175,10.718-23.893,23.893-23.893c1.884,0,3.413,1.529,3.413,3.413
	c0,1.884-1.529,3.413-3.413,3.413c-9.411,0-17.067,7.656-17.067,17.067C191.147,196.924,189.618,198.453,187.733,198.453z"/>
<path d="M3.413,137.013C1.529,137.013,0,135.484,0,133.6s1.529-3.413,3.413-3.413c9.411,0,17.067-7.656,17.067-17.067
	c0-1.884,1.529-3.413,3.413-3.413s3.413,1.529,3.413,3.413C27.307,126.293,16.589,137.013,3.413,137.013z"/>
<path d="M23.893,198.453c-1.884,0-3.413-1.529-3.413-3.413c0-9.411-7.656-17.067-17.067-17.067c-1.884,0-3.413-1.529-3.413-3.413
	c0-1.884,1.529-3.413,3.413-3.413c13.175,0,23.893,10.718,23.893,23.893C27.307,196.924,25.777,198.453,23.893,198.453z"/>
<circle style="fill:#9DFB46;" cx="105.813" cy="154.078" r="27.307"/>
<path d="M105.813,184.8c-16.939,0-30.72-13.781-30.72-30.72s13.781-30.72,30.72-30.72s30.72,13.781,30.72,30.72
	S122.752,184.8,105.813,184.8z M105.813,130.186c-13.175,0-23.893,10.718-23.893,23.893c0,13.175,10.718,23.893,23.893,23.893
	s23.893-10.718,23.893-23.893C129.707,140.904,118.989,130.186,105.813,130.186z"/>
<polygon points="199.255,61.17 184.32,49.224 169.385,61.17 165.122,55.84 184.32,40.48 203.518,55.84 "/>
<rect x="133.12" y="20.958" width="6.827" height="61.44"/>
<rect x="180.907" y="44.851" width="6.827" height="51.2"/>
<polygon points="151.468,33.864 136.533,21.917 121.598,33.864 117.335,28.534 136.533,13.174 155.732,28.534 "/>
<g>
</g>
<g>
</g>
<g>
</g>
<g>
</g>
<g>
</g>
<g>
</g>
<g>
</g>
<g>
</g>
<g>
</g>
<g>
</g>
<g>
</g>
<g>
</g>
<g>
</g>
<g>
</g>
<g>
</g>
</svg>
