<?xml version="1.0" encoding="iso-8859-1"?>
<!-- Generator: Adobe Illustrator 19.0.0, SVG Export Plug-In . SVG Version: 6.00 Build 0)  -->
<svg version="1.1" id="Capa_1" xmlns="http://www.w3.org/2000/svg" xmlns:xlink="http://www.w3.org/1999/xlink" x="0px" y="0px"
	 viewBox="0 0 191.205 191.205" style="enable-background:new 0 0 191.205 191.205;" xml:space="preserve">
<path style="fill:#83D816;" d="M163.868,119.467c0,37.702-30.565,68.267-68.267,68.267l0,0l0,0
	c-37.702,0-68.267-30.565-68.267-68.267V20.48L95.864,3.414l68.004,17.067V119.467z"/>
<path d="M95.602,191.147c-39.525,0-71.68-32.155-71.68-71.68V20.48c0-1.567,1.068-2.934,2.589-3.313L95.038,0.101
	c0.544-0.135,1.111-0.135,1.657,0.002l68.006,17.067c1.517,0.381,2.582,1.746,2.582,3.311v98.987
	C167.282,158.992,135.126,191.147,95.602,191.147z M30.748,23.148v96.319c0,35.76,29.094,64.853,64.853,64.853
	s64.853-29.094,64.853-64.853V23.143L95.859,6.931L30.748,23.148z"/>
<path style="fill:#9DFB45;" d="M143.388,113.272c0,27.928-21.395,50.569-47.787,50.569l0,0l0,0
	c-26.392,0-47.787-22.641-47.787-50.569V39.948l47.971-12.641l47.602,12.641V113.272z"/>
<path d="M95.602,167.254c-28.232,0-51.2-24.216-51.2-53.98V39.948c0-1.55,1.044-2.906,2.543-3.301l47.969-12.641
	c0.572-0.152,1.172-0.15,1.746,0.002l47.604,12.641c1.495,0.398,2.536,1.751,2.536,3.299v73.324
	C146.802,143.038,123.833,167.254,95.602,167.254z M51.228,42.578v70.694c0,26.001,19.905,47.153,44.373,47.153
	s44.373-21.154,44.373-47.153V42.573L95.781,30.838L51.228,42.578z"/>
<path d="M95.602,30.72c-1.884,0-3.413-1.529-3.413-3.413V6.827c0-1.884,1.529-3.413,3.413-3.413c1.884,0,3.413,1.529,3.413,3.413
	v20.48C99.015,29.191,97.486,30.72,95.602,30.72z"/>
<path d="M95.602,191.205c-1.917,0-3.471-1.555-3.471-3.471V163.84c0-1.918,1.555-3.471,3.471-3.471s3.471,1.555,3.471,3.471v23.893
	C99.073,189.652,97.518,191.205,95.602,191.205z"/>
<path style="fill:#FFFFFF;" d="M92.146,129.777c-0.906,0-1.823-0.179-2.707-0.56l-23.854-10.31
	c-3.459-1.497-5.053-5.513-3.557-8.977c1.497-3.459,5.513-5.047,8.977-3.557l18.063,7.806l27.807-52.519
	c1.763-3.33,5.897-4.61,9.226-2.84c3.333,1.763,4.603,5.897,2.84,9.226l-30.759,58.097
	C96.965,128.444,94.602,129.777,92.146,129.777z"/>
<path d="M92.146,133.19c-1.398,0-2.763-0.282-4.055-0.838l-23.859-10.312c-5.181-2.241-7.574-8.282-5.335-13.464
	c2.239-5.175,8.279-7.566,13.459-5.338l15.174,6.559l26.332-49.734c1.282-2.422,3.432-4.197,6.052-5.002
	c2.616-0.802,5.383-0.536,7.793,0.746c2.413,1.277,4.186,3.42,4.992,6.036c0.806,2.615,0.543,5.385-0.737,7.801l-30.759,58.097
	C99.419,131.101,95.951,133.19,92.146,133.19z M68.303,109.229c-1.321,0-2.586,0.77-3.142,2.057
	c-0.748,1.727,0.051,3.741,1.778,4.489l23.854,10.31c1.597,0.691,3.562-0.005,4.372-1.536l30.759-58.098
	c0.427-0.806,0.514-1.729,0.246-2.599c-0.268-0.87-0.858-1.585-1.666-2.012c-0.804-0.428-1.719-0.515-2.594-0.249
	c-0.876,0.268-1.592,0.862-2.021,1.671l-27.807,52.519c-0.833,1.575-2.737,2.241-4.371,1.536l-18.063-7.806
	C69.211,109.317,68.756,109.229,68.303,109.229z"/>
<g>
</g>
<g>
</g>
<g>
</g>
<g>
</g>
<g>
</g>
<g>
</g>
<g>
</g>
<g>
</g>
<g>
</g>
<g>
</g>
<g>
</g>
<g>
</g>
<g>
</g>
<g>
</g>
<g>
</g>
</svg>
