<?xml version="1.0" encoding="iso-8859-1"?>
<!-- Generator: Adobe Illustrator 19.0.0, SVG Export Plug-In . SVG Version: 6.00 Build 0)  -->
<svg version="1.1" id="Capa_1" xmlns="http://www.w3.org/2000/svg" xmlns:xlink="http://www.w3.org/1999/xlink" x="0px" y="0px"
	 viewBox="0 0 204.923 204.923" style="enable-background:new 0 0 204.923 204.923;" xml:space="preserve">
<path d="M139.946,61.44c-1.884,0-3.413-1.529-3.413-3.413V30.72c0-13.175-10.718-23.893-23.893-23.893S88.746,17.545,88.746,30.72
	v27.307c0,1.884-1.529,3.413-3.413,3.413c-1.884,0-3.413-1.529-3.413-3.413V30.72C81.919,13.781,95.701,0,112.639,0
	s30.72,13.781,30.72,30.72v27.307C143.359,59.911,141.83,61.44,139.946,61.44z"/>
<polygon style="fill:#ED5481;" points="187.733,201.387 34.133,201.387 51.199,30.72 170.666,30.72 "/>
<path d="M187.733,204.923h-153.6c-0.998,0-1.952-0.422-2.623-1.164c-0.671-0.742-0.997-1.732-0.896-2.726L47.68,30.367
	c0.179-1.809,1.702-3.186,3.519-3.186h119.467c1.818,0,3.34,1.377,3.519,3.186l17.067,170.667c0.101,0.993-0.225,1.983-0.896,2.726
	S188.731,204.923,187.733,204.923z M38.041,197.85h145.783L167.466,34.258H54.401L38.041,197.85z"/>
<polygon style="fill:#FBAD4A;" points="170.666,201.387 17.066,201.387 34.133,30.72 153.599,30.72 "/>
<path d="M170.666,204.8h-153.6c-0.964,0-1.884-0.408-2.531-1.123c-0.647-0.715-0.961-1.671-0.865-2.63L30.737,30.38
	c0.176-1.744,1.644-3.074,3.396-3.074h119.467c1.753,0,3.222,1.329,3.396,3.074l17.067,170.667c0.096,0.959-0.218,1.915-0.865,2.63
	C172.549,204.392,171.63,204.8,170.666,204.8z M20.838,197.973h146.057L150.51,34.133H37.222L20.838,197.973z"/>
<path d="M122.879,61.44c-1.884,0-3.413-1.529-3.413-3.413V30.72c0-13.175-10.718-23.893-23.893-23.893S71.679,17.545,71.679,30.72
	v27.307c0,1.884-1.529,3.413-3.413,3.413c-1.884,0-3.413-1.529-3.413-3.413V30.72C64.853,13.781,78.634,0,95.573,0
	s30.72,13.781,30.72,30.72v27.307C126.293,59.911,124.764,61.44,122.879,61.44z"/>
<circle style="fill:#DDDDDD;" cx="81.913" cy="112.633" r="27.307"/>
<path d="M81.919,143.36c-16.939,0-30.72-13.781-30.72-30.72s13.781-30.72,30.72-30.72s30.72,13.781,30.72,30.72
	S98.858,143.36,81.919,143.36z M81.919,88.747c-13.175,0-23.893,10.718-23.893,23.893s10.718,23.893,23.893,23.893
	s23.893-10.718,23.893-23.893S95.095,88.747,81.919,88.747z"/>
<path d="M136.533,170.667c-0.874,0-1.748-0.333-2.413-1l-32.427-32.427c-1.333-1.333-1.333-3.494,0-4.826
	c1.331-1.333,3.495-1.333,4.826,0l32.427,32.427c1.333,1.333,1.333,3.494,0,4.826C138.28,170.334,137.407,170.667,136.533,170.667z"
	/>
<g>
</g>
<g>
</g>
<g>
</g>
<g>
</g>
<g>
</g>
<g>
</g>
<g>
</g>
<g>
</g>
<g>
</g>
<g>
</g>
<g>
</g>
<g>
</g>
<g>
</g>
<g>
</g>
<g>
</g>
</svg>
