<?xml version="1.0" encoding="iso-8859-1"?>
<!-- Generator: Adobe Illustrator 19.0.0, SVG Export Plug-In . SVG Version: 6.00 Build 0)  -->
<svg version="1.1" id="Capa_1" xmlns="http://www.w3.org/2000/svg" xmlns:xlink="http://www.w3.org/1999/xlink" x="0px" y="0px"
	 viewBox="0 0 197.973 197.973" style="enable-background:new 0 0 197.973 197.973;" xml:space="preserve">
<path d="M131.311,62.43V57.26c-2.97-0.053-6.042-0.973-7.834-2.253l1.229-3.43c1.843,1.227,4.506,2.2,7.371,2.2
	c3.635,0,6.093-2.099,6.093-5.016c0-2.816-1.997-4.557-5.786-6.093c-5.224-2.046-8.448-4.403-8.448-8.856
	c0-4.25,3.022-7.473,7.731-8.243V20.4h3.173v4.966c3.072,0.101,5.171,0.92,6.656,1.79l-1.28,3.379
	c-1.075-0.613-3.174-1.741-6.451-1.741c-3.942,0-5.427,2.353-5.427,4.403c0,2.661,1.894,3.994,6.349,5.837
	c5.274,2.15,7.936,4.809,7.936,9.366c0,4.047-2.816,7.834-8.09,8.707v5.323h-3.222V62.43z"/>
<path d="M107.418,62.43V57.26c-2.97-0.053-6.042-0.973-7.834-2.253l1.229-3.43c1.843,1.227,4.506,2.2,7.371,2.2
	c3.635,0,6.093-2.099,6.093-5.016c0-2.816-1.997-4.557-5.786-6.093c-5.224-2.046-8.448-4.403-8.448-8.856
	c0-4.25,3.022-7.473,7.731-8.243V20.4h3.173v4.966c3.072,0.101,5.171,0.92,6.656,1.79l-1.28,3.379
	c-1.075-0.613-3.174-1.741-6.451-1.741c-3.942,0-5.427,2.353-5.427,4.403c0,2.661,1.894,3.994,6.349,5.837
	c5.274,2.15,7.936,4.809,7.936,9.366c0,4.047-2.816,7.834-8.09,8.707v5.323h-3.222V62.43z"/>
<path style="fill:#DDDDDD;" d="M131.813,126.45l-24.136,24.136L42.51,85.419c-13.329-13.329-13.329-34.942,0-48.271l0,0
	L131.813,126.45z"/>
<path d="M107.677,153.999c-0.905,0-1.773-0.36-2.413-1L40.096,87.83C33.005,80.741,29.1,71.311,29.1,61.281
	s3.905-19.458,10.996-26.551c1.333-1.333,3.494-1.333,4.826,0l89.303,89.303c1.333,1.333,1.333,3.494,0,4.826l-24.137,24.137
	C109.45,153.639,108.582,153.999,107.677,153.999z M42.641,42.105c-4.352,5.427-6.716,12.122-6.716,19.178
	c0,8.206,3.195,15.92,8.996,21.722l62.754,62.756l19.309-19.309L42.641,42.105z"/>
<path d="M184.32,85.333h-6.827c-1.884,0-3.413-1.529-3.413-3.413c0-1.884,1.529-3.413,3.413-3.413h3.413v-3.413
	c0-1.884,1.529-3.413,3.413-3.413s3.413,1.529,3.413,3.413v6.827C187.733,83.804,186.204,85.333,184.32,85.333z"/>
<path d="M164.978,85.333h-12.515c-1.884,0-3.413-1.529-3.413-3.413c0-1.884,1.529-3.413,3.413-3.413h12.515
	c1.884,0,3.413,1.529,3.413,3.413C168.392,83.804,166.863,85.333,164.978,85.333z M139.947,85.333h-12.515
	c-1.884,0-3.413-1.529-3.413-3.413c0-1.884,1.529-3.413,3.413-3.413h12.515c1.884,0,3.413,1.529,3.413,3.413
	C143.36,83.804,141.831,85.333,139.947,85.333z M114.917,85.333H102.4c-1.884,0-3.413-1.529-3.413-3.413
	c0-1.884,1.529-3.413,3.413-3.413h12.517c1.884,0,3.413,1.529,3.413,3.413C118.33,83.804,116.801,85.333,114.917,85.333z
	 M89.885,85.333H77.37c-1.884,0-3.413-1.529-3.413-3.413c0-1.884,1.529-3.413,3.413-3.413h12.515c1.884,0,3.413,1.529,3.413,3.413
	C93.298,83.804,91.769,85.333,89.885,85.333z"/>
<path d="M64.853,85.333h-6.827c-1.884,0-3.413-1.529-3.413-3.413v-6.827c0-1.884,1.529-3.413,3.413-3.413
	c1.884,0,3.413,1.529,3.413,3.413v3.413h3.413c1.884,0,3.413,1.529,3.413,3.413C68.267,83.804,66.738,85.333,64.853,85.333z"/>
<path d="M58.027,65.536c-1.884,0-3.413-1.529-3.413-3.413V49.152c0-1.884,1.529-3.413,3.413-3.413c1.884,0,3.413,1.529,3.413,3.413
	v12.971C61.44,64.009,59.911,65.536,58.027,65.536z M58.027,39.595c-1.884,0-3.413-1.529-3.413-3.413V23.211
	c0-1.884,1.529-3.413,3.413-3.413c1.884,0,3.413,1.529,3.413,3.413v12.971C61.44,38.067,59.911,39.595,58.027,39.595z"/>
<path d="M58.027,13.653c-1.884,0-3.413-1.529-3.413-3.413V3.413C54.613,1.529,56.143,0,58.027,0h6.827
	c1.884,0,3.413,1.529,3.413,3.413s-1.529,3.413-3.413,3.413H61.44v3.413C61.44,12.124,59.911,13.653,58.027,13.653z"/>
<path d="M164.977,6.827h-12.515c-1.884,0-3.413-1.529-3.413-3.413S150.577,0,152.462,0h12.515c1.884,0,3.413,1.529,3.413,3.413
	S166.863,6.827,164.977,6.827z M139.947,6.827H127.43c-1.884,0-3.413-1.529-3.413-3.413S125.546,0,127.43,0h12.517
	c1.884,0,3.413,1.529,3.413,3.413S141.831,6.827,139.947,6.827z M114.915,6.827H102.4c-1.884,0-3.413-1.529-3.413-3.413
	S100.516,0,102.4,0h12.515c1.884,0,3.413,1.529,3.413,3.413S116.801,6.827,114.915,6.827z M89.883,6.827H77.368
	c-1.884,0-3.413-1.529-3.413-3.413S75.484,0,77.368,0h12.515c1.884,0,3.413,1.529,3.413,3.413S91.769,6.827,89.883,6.827z"/>
<path d="M184.32,13.653c-1.884,0-3.413-1.529-3.413-3.413V6.827h-3.413c-1.884,0-3.413-1.529-3.413-3.413S175.609,0,177.493,0h6.827
	c1.884,0,3.413,1.529,3.413,3.413v6.827C187.733,12.124,186.204,13.653,184.32,13.653z"/>
<path d="M184.32,65.534c-1.884,0-3.413-1.529-3.413-3.413V49.15c0-1.884,1.529-3.413,3.413-3.413s3.413,1.529,3.413,3.413v12.971
	C187.733,64.007,186.204,65.534,184.32,65.534z M184.32,39.593c-1.884,0-3.413-1.529-3.413-3.413V23.209
	c0-1.884,1.529-3.413,3.413-3.413s3.413,1.529,3.413,3.413V36.18C187.733,38.065,186.204,39.593,184.32,39.593z"/>
<path style="fill:#DDDDDD;" d="M59.819,126.45l24.136,24.136l65.167-65.167c13.329-13.329,13.329-34.942,0-48.271l0,0L59.819,126.45
	z"/>
<path d="M83.954,153.999c-0.905,0-1.773-0.36-2.413-1l-24.137-24.137c-1.333-1.333-1.333-3.494,0-4.826l89.303-89.303
	c1.333-1.333,3.494-1.333,4.826,0c7.091,7.091,10.996,16.521,10.996,26.551c0,10.03-3.905,19.458-10.996,26.549l-65.167,65.169
	C85.728,153.639,84.861,153.999,83.954,153.999z M64.645,126.45l19.309,19.309l62.754-62.756c5.801-5.801,8.996-13.517,8.996-21.722
	c0-7.057-2.364-13.752-6.716-19.178L64.645,126.45z"/>
<circle style="fill:#DDDDDD;" cx="93.867" cy="114.347" r="5.12"/>
<path d="M93.867,122.88c-4.705,0-8.533-3.828-8.533-8.533c0-4.705,3.828-8.533,8.533-8.533s8.533,3.828,8.533,8.533
	C102.4,119.052,98.572,122.88,93.867,122.88z M93.867,112.64c-0.942,0-1.707,0.765-1.707,1.707c0,0.942,0.765,1.707,1.707,1.707
	s1.707-0.765,1.707-1.707C95.573,113.405,94.809,112.64,93.867,112.64z"/>
<path style="fill:#EC5582;" d="M47.787,126.293c-18.852,0-34.133,15.281-34.133,34.133s15.281,34.133,34.133,34.133
	s34.133-15.281,34.133-34.133S66.639,126.293,47.787,126.293z M47.787,180.907c-11.31,0-20.48-9.17-20.48-20.48
	c0-11.31,9.17-20.48,20.48-20.48s20.48,9.17,20.48,20.48C68.267,171.737,59.097,180.907,47.787,180.907z"/>
<path d="M47.787,197.973c-20.704,0-37.547-16.843-37.547-37.547s16.843-37.547,37.547-37.547s37.547,16.843,37.547,37.547
	S68.49,197.973,47.787,197.973z M47.787,129.707c-16.939,0-30.72,13.781-30.72,30.72s13.781,30.72,30.72,30.72
	s30.72-13.781,30.72-30.72S64.725,129.707,47.787,129.707z M47.787,184.32c-13.175,0-23.893-10.718-23.893-23.893
	c0-13.175,10.718-23.893,23.893-23.893s23.893,10.718,23.893,23.893C71.68,173.602,60.962,184.32,47.787,184.32z M47.787,143.36
	c-9.411,0-17.067,7.656-17.067,17.067c0,9.411,7.656,17.067,17.067,17.067s17.067-7.656,17.067-17.067
	C64.853,151.016,57.197,143.36,47.787,143.36z"/>
<path style="fill:#EC5582;" d="M143.36,126.293c-18.852,0-34.133,15.281-34.133,34.133s15.281,34.133,34.133,34.133
	s34.133-15.281,34.133-34.133S162.212,126.293,143.36,126.293z M143.36,180.907c-11.31,0-20.48-9.17-20.48-20.48
	c0-11.31,9.17-20.48,20.48-20.48s20.48,9.17,20.48,20.48C163.84,171.737,154.67,180.907,143.36,180.907z"/>
<path d="M143.36,197.973c-20.704,0-37.547-16.843-37.547-37.547s16.843-37.547,37.547-37.547s37.547,16.843,37.547,37.547
	S164.064,197.973,143.36,197.973z M143.36,129.707c-16.939,0-30.72,13.781-30.72,30.72s13.781,30.72,30.72,30.72
	s30.72-13.781,30.72-30.72S160.299,129.707,143.36,129.707z M143.36,184.32c-13.175,0-23.893-10.718-23.893-23.893
	c0-13.175,10.718-23.893,23.893-23.893c13.175,0,23.893,10.718,23.893,23.893C167.253,173.602,156.535,184.32,143.36,184.32z
	 M143.36,143.36c-9.411,0-17.067,7.656-17.067,17.067c0,9.411,7.656,17.067,17.067,17.067c9.411,0,17.067-7.656,17.067-17.067
	C160.427,151.016,152.771,143.36,143.36,143.36z"/>
<g>
</g>
<g>
</g>
<g>
</g>
<g>
</g>
<g>
</g>
<g>
</g>
<g>
</g>
<g>
</g>
<g>
</g>
<g>
</g>
<g>
</g>
<g>
</g>
<g>
</g>
<g>
</g>
<g>
</g>
</svg>
