<?xml version="1.0" encoding="iso-8859-1"?>
<!-- Generator: Adobe Illustrator 19.0.0, SVG Export Plug-In . SVG Version: 6.00 Build 0)  -->
<svg version="1.1" id="Capa_1" xmlns="http://www.w3.org/2000/svg" xmlns:xlink="http://www.w3.org/1999/xlink" x="0px" y="0px"
	 viewBox="0 0 191.147 191.147" style="enable-background:new 0 0 191.147 191.147;" xml:space="preserve">
<path style="fill:#EE5281;" d="M105.081,3.9c-3.127-0.321-6.298-0.486-9.508-0.486c-50.898,0-92.16,41.262-92.16,92.16
	s41.262,92.16,92.16,92.16s92.16-41.262,92.16-92.16c0-6.943-0.792-13.698-2.248-20.204L105.081,3.9z"/>
<path d="M95.573,191.147C42.873,191.147,0,148.273,0,95.573S42.873,0,95.573,0c3.27,0,6.584,0.171,9.854,0.505l1.096,0.111
	l0.824,0.732l81.227,72.202l0.242,1.075c1.546,6.912,2.33,13.961,2.33,20.948C191.147,148.273,148.273,191.147,95.573,191.147z
	 M95.573,6.827c-48.935,0-88.747,39.811-88.747,88.747s39.811,88.747,88.747,88.747s88.747-39.811,88.747-88.747
	c0-6.127-0.65-12.308-1.934-18.391l-78.742-69.99C100.96,6.948,98.249,6.827,95.573,6.827z"/>
<path d="M31.2,91.75c-0.227-0.333-0.346-0.717-0.357-1.15s0.09-0.823,0.314-1.161c0.29-0.44,0.689-0.724,1.203-0.85
	c0.51-0.13,1-0.039,1.459,0.263c0.259,0.174,0.473,0.387,0.643,0.643c1.683,2.63,3.886,4.837,6.607,6.624
	c4.533,2.976,7.777,2.976,9.737,0c0.51-0.78,0.647-1.616,0.403-2.521c-0.244-0.899-0.693-1.78-1.353-2.64
	c-0.657-0.86-1.644-2.017-2.951-3.466c-1.743-1.927-3.096-3.567-4.057-4.924c-0.966-1.353-1.58-2.843-1.85-4.466
	s0.147-3.277,1.253-4.963c0.973-1.473,2.243-2.56,3.809-3.253c1.57-0.696,3.343-0.903,5.33-0.62c1.98,0.283,4.04,1.123,6.163,2.521
	c2.85,1.87,5.147,3.994,6.893,6.364c0.553,0.737,0.577,1.49,0.063,2.266c-0.27,0.416-0.66,0.696-1.167,0.85
	c-0.507,0.147-0.99,0.07-1.459-0.237c-0.154-0.104-0.326-0.29-0.521-0.563c-1.56-2.028-3.417-3.746-5.567-5.159
	c-2.05-1.347-3.963-2.05-5.76-2.113c-1.794-0.067-3.147,0.601-4.067,2c-0.613,0.934-0.807,1.889-0.58,2.874
	c0.224,0.983,0.689,1.937,1.399,2.867c0.703,0.927,1.727,2.091,3.07,3.494c1.724,1.836,3.053,3.413,3.987,4.733
	c0.934,1.316,1.507,2.787,1.717,4.41c0.217,1.623-0.256,3.316-1.413,5.081c-0.954,1.451-2.224,2.48-3.809,3.087
	c-1.587,0.609-3.347,0.744-5.27,0.403c-1.934-0.34-3.879-1.154-5.85-2.447C35.934,97.529,33.256,94.88,31.2,91.75z"/>
<path d="M53.736,108.223c-0.104-0.55,0.007-1.07,0.329-1.563c0.137-0.207,0.37-0.423,0.703-0.65l25.283-16.887
	c0.51-0.329,1.053-0.521,1.626-0.57c0.57-0.053,1.13,0.101,1.673,0.457l0.387,0.256c0.546,0.357,0.91,0.807,1.087,1.353
	c0.179,0.543,0.22,1.116,0.123,1.72l-5.46,29.906c-0.077,0.396-0.179,0.7-0.317,0.906c-0.323,0.493-0.756,0.8-1.304,0.923
	c-0.543,0.126-1.077,0.017-1.597-0.323c-0.36-0.237-0.626-0.553-0.797-0.944c-0.171-0.391-0.22-0.804-0.157-1.244l1.457-7.723
	l-13.213-8.68l-6.509,4.403c-0.377,0.234-0.78,0.353-1.203,0.35c-0.427,0-0.823-0.119-1.183-0.36
	C54.147,109.216,53.84,108.773,53.736,108.223z M67.04,102.833l10.493,6.893l3.053-16.08L67.04,102.833z"/>
<path d="M85.053,128.213c-0.16-0.794-0.02-1.527,0.42-2.203l15.167-23.086c0.323-0.49,0.77-0.8,1.336-0.93
	c0.563-0.126,1.094-0.034,1.587,0.294c0.493,0.323,0.8,0.773,0.916,1.353c0.123,0.58,0.02,1.116-0.304,1.609l-14.45,21.997
	l12.71,8.351c0.49,0.323,0.794,0.773,0.916,1.353c0.119,0.58,0.017,1.116-0.307,1.606c-0.323,0.493-0.766,0.797-1.34,0.903
	c-0.573,0.104-1.103-0.007-1.594-0.326l-13.8-9.066C85.641,129.626,85.221,129.007,85.053,128.213z"/>
<path d="M107.09,142.993c-0.116-0.56-0.017-1.087,0.307-1.577l15.5-23.593c0.323-0.49,0.77-0.804,1.34-0.93
	c0.563-0.13,1.091-0.034,1.584,0.294l15.587,10.237c0.466,0.307,0.753,0.727,0.867,1.263c0.109,0.536,0.014,1.039-0.294,1.507
	c-0.307,0.468-0.724,0.748-1.249,0.847c-0.531,0.097-1.027-0.007-1.493-0.314l-13.797-9.061l-5.644,8.586l12.397,8.143
	c0.466,0.307,0.753,0.727,0.867,1.266c0.113,0.536,0.017,1.036-0.29,1.504c-0.307,0.468-0.724,0.748-1.253,0.847
	c-0.531,0.097-1.027-0.007-1.493-0.314l-12.397-8.141l-5.666,8.627l13.797,9.061c0.466,0.311,0.753,0.73,0.867,1.266
	c0.109,0.536,0.01,1.039-0.297,1.504c-0.307,0.466-0.72,0.749-1.246,0.85c-0.532,0.097-1.027-0.007-1.493-0.314l-15.587-10.24
	C107.506,143.99,107.203,143.549,107.09,142.993z"/>
<path d="M139.465,91.116c-5.84,0-11.878-1.618-16.99-4.779c-10.745-6.641-16.662-19.118-16.662-35.137
	c0-33.132-3.28-46.829-3.313-46.966l6.625-1.65c0.143,0.575,3.516,14.455,3.516,48.614c0,17.386,7.299,25.545,13.425,29.331
	c8.064,4.985,17.161,4.47,22.595,1.749c14.479-7.238,35.338-3.876,36.222-3.727l-1.12,6.733c-0.196-0.031-19.569-3.142-32.048,3.099
	C148.055,90.214,143.816,91.116,139.465,91.116z"/>
<g>
</g>
<g>
</g>
<g>
</g>
<g>
</g>
<g>
</g>
<g>
</g>
<g>
</g>
<g>
</g>
<g>
</g>
<g>
</g>
<g>
</g>
<g>
</g>
<g>
</g>
<g>
</g>
<g>
</g>
</svg>
