<?xml version="1.0" encoding="iso-8859-1"?>
<!-- Generator: Adobe Illustrator 19.0.0, SVG Export Plug-In . SVG Version: 6.00 Build 0)  -->
<svg version="1.1" id="Capa_1" xmlns="http://www.w3.org/2000/svg" xmlns:xlink="http://www.w3.org/1999/xlink" x="0px" y="0px"
	 viewBox="0 0 201.387 201.387" style="enable-background:new 0 0 201.387 201.387;" xml:space="preserve">
<path style="fill:#EE5281;" d="M197.973,124.587H3.413V31.918c0-7.26,5.885-13.145,13.145-13.145h168.271
	c7.26,0,13.145,5.885,13.145,13.145V124.587z"/>
<path d="M201.387,128H0V31.918C0,22.787,7.429,15.36,16.558,15.36h168.271c9.131,0,16.558,7.429,16.558,16.558V128z M6.827,121.173
	H194.56V31.918c0-5.367-4.366-9.731-9.731-9.731H16.558c-5.367,0-9.731,4.366-9.731,9.731V121.173z"/>
<path style="fill:#DDDDDD;" d="M184.829,155.307H16.558c-7.26,0-13.145-5.885-13.145-13.145v-17.575h194.56v17.575
	C197.973,149.422,192.089,155.307,184.829,155.307z"/>
<path d="M184.829,158.72H16.558C7.427,158.72,0,151.291,0,142.162v-17.575c0-1.884,1.529-3.413,3.413-3.413h194.56
	c1.884,0,3.413,1.529,3.413,3.413v17.575C201.387,151.291,193.958,158.72,184.829,158.72z M6.827,128v14.162
	c0,5.367,4.366,9.731,9.731,9.731h168.271c5.367,0,9.731-4.366,9.731-9.731V128H6.827z"/>
<path d="M100.693,148.48c-4.705,0-8.533-3.828-8.533-8.533s3.828-8.533,8.533-8.533s8.533,3.828,8.533,8.533
	S105.399,148.48,100.693,148.48z M100.693,138.24c-0.942,0-1.707,0.765-1.707,1.707s0.765,1.707,1.707,1.707
	s1.707-0.765,1.707-1.707S101.635,138.24,100.693,138.24z"/>
<polygon style="fill:#DDDDDD;" points="129.707,182.613 71.68,182.613 88.545,155.307 112.841,155.307 "/>
<path d="M129.707,186.027H71.68c-1.239,0-2.379-0.671-2.982-1.749c-0.602-1.082-0.573-2.403,0.079-3.456l16.867-27.307
	c0.621-1.007,1.72-1.62,2.903-1.62h24.293c1.183,0,2.282,0.613,2.903,1.62l16.867,27.307c0.652,1.053,0.679,2.376,0.079,3.456
	C132.086,185.356,130.946,186.027,129.707,186.027z M77.8,179.2h45.786l-12.65-20.48H90.45L77.8,179.2z"/>
<path d="M49.937,71.571c0.22,1.024,0.717,1.874,1.49,2.55c0.766,0.676,1.72,1.256,2.854,1.731c1.133,0.48,2.393,0.893,3.773,1.244
	c1.384,0.353,2.801,0.717,4.253,1.094c1.454,0.374,2.883,0.804,4.294,1.287c1.413,0.483,2.71,1.091,3.9,1.823
	c1.186,0.737,2.21,1.633,3.063,2.697c0.857,1.063,1.451,2.367,1.78,3.9c0.3,1.396,0.35,2.727,0.154,3.994
	c-0.196,1.266-0.59,2.447-1.171,3.55c-0.584,1.101-1.333,2.12-2.249,3.063c-0.916,0.944-1.944,1.783-3.084,2.517
	c-1.14,0.73-2.367,1.364-3.68,1.896c-1.314,0.536-2.661,0.954-4.04,1.249c-1.94,0.416-3.874,0.587-5.806,0.51
	c-1.934-0.08-3.714-0.444-5.347-1.087c-1.633-0.647-3.033-1.597-4.204-2.847c-1.171-1.246-1.963-2.833-2.377-4.756
	c-0.213-0.99-0.247-1.896-0.087-2.72c0.154-0.819,0.413-1.533,0.78-2.14c0.364-0.604,0.797-1.097,1.3-1.473
	c0.503-0.375,0.993-0.613,1.476-0.717c0.493-0.106,0.94-0.06,1.333,0.137c0.391,0.2,0.65,0.587,0.773,1.161
	c0.056,0.263,0.087,0.55,0.09,0.857c0.003,0.307,0.01,0.64,0.02,1.007c0.003,0.36,0.027,0.759,0.056,1.193
	c0.031,0.43,0.097,0.896,0.203,1.389c0.237,1.087,0.686,1.97,1.353,2.657c0.664,0.683,1.459,1.19,2.393,1.527
	c0.93,0.336,1.954,0.51,3.074,0.527c1.123,0.024,2.256-0.09,3.4-0.336c1.35-0.294,2.664-0.748,3.944-1.364
	c1.28-0.613,2.382-1.36,3.316-2.227c0.934-0.86,1.633-1.826,2.103-2.893c0.466-1.067,0.573-2.196,0.317-3.389
	c-0.237-1.101-0.749-2.021-1.533-2.756c-0.787-0.741-1.746-1.374-2.893-1.9c-1.14-0.524-2.413-0.973-3.806-1.353
	c-1.399-0.381-2.819-0.763-4.267-1.15c-1.444-0.384-2.874-0.811-4.287-1.273c-1.413-0.466-2.703-1.039-3.874-1.71
	c-1.174-0.674-2.176-1.49-3.007-2.454c-0.829-0.966-1.396-2.147-1.7-3.54c-0.28-1.307-0.244-2.661,0.109-4.057
	c0.353-1.403,1.053-2.739,2.103-4.017c1.043-1.273,2.444-2.423,4.2-3.453c1.753-1.027,3.903-1.816,6.439-2.364
	c1.613-0.346,3.243-0.447,4.89-0.3c1.65,0.147,3.169,0.532,4.574,1.157c1.396,0.626,2.596,1.466,3.599,2.533
	c1.004,1.063,1.664,2.347,1.983,3.833c0.189,0.887,0.234,1.819,0.133,2.819c-0.101,0.997-0.381,2.07-0.826,3.22
	c-0.444,1.116-0.993,1.997-1.661,2.633c-0.667,0.64-1.311,1.027-1.93,1.161c-0.466,0.101-0.874,0.046-1.227-0.16
	c-0.353-0.206-0.587-0.58-0.703-1.126c-0.087-0.399-0.101-0.899-0.027-1.49c0.067-0.587,0.253-1.29,0.553-2.097
	c0.276-0.77,0.451-1.48,0.527-2.12c0.073-0.64,0.056-1.213-0.053-1.724c-0.174-0.79-0.532-1.44-1.091-1.944
	c-0.558-0.503-1.256-0.874-2.094-1.116c-0.843-0.241-1.812-0.346-2.913-0.317c-1.103,0.027-2.284,0.177-3.543,0.447
	c-1.393,0.3-2.574,0.724-3.536,1.263c-0.963,0.536-1.737,1.133-2.316,1.787c-0.584,0.654-0.973,1.323-1.174,2.017
	C49.843,70.32,49.807,70.967,49.937,71.571z"/>
<path d="M105.726,85.431c-0.249,0.58-0.601,1.27-1.05,2.074c-0.454,0.8-0.983,1.594-1.597,2.364c-0.613,0.773-1.3,1.463-2.06,2.07
	c-0.763,0.606-1.57,1.004-2.423,1.186c-1.031,0.224-1.959,0.08-2.787-0.427c-0.829-0.503-1.63-1.323-2.396-2.456
	c-0.283,0.507-0.65,1.046-1.102,1.609c-0.451,0.563-0.959,1.097-1.529,1.597c-0.573,0.5-1.186,0.94-1.84,1.323
	c-0.654,0.381-1.333,0.647-2.033,0.797c-0.748,0.16-1.504,0.167-2.273,0.014c-0.773-0.154-1.493-0.457-2.157-0.91
	c-0.671-0.457-1.249-1.056-1.753-1.811s-0.864-1.64-1.087-2.673c-0.249-1.161-0.346-2.386-0.28-3.676
	c0.063-1.29,0.287-2.724,0.667-4.291c0.377-1.567,0.85-2.959,1.417-4.163c0.563-1.207,1.234-2.294,2-3.27
	c0.77-0.976,1.626-1.801,2.567-2.48c0.937-0.679,1.944-1.137,3.021-1.37c0.36-0.077,0.657-0.063,0.889,0.031
	c0.234,0.097,0.433,0.22,0.606,0.377c0.171,0.15,0.336,0.297,0.5,0.444c0.164,0.147,0.343,0.237,0.55,0.273
	c0.203,0.043,0.406,0.05,0.604,0.031c0.203-0.017,0.403-0.05,0.606-0.094c0.171-0.036,0.343-0.077,0.524-0.123
	c0.179-0.05,0.353-0.09,0.524-0.126c0.234-0.049,0.461-0.073,0.671-0.067c0.213-0.003,0.416,0.063,0.606,0.186
	c0.189,0.126,0.353,0.317,0.5,0.577c0.147,0.266,0.273,0.643,0.377,1.126c0.16,0.741,0.259,1.58,0.3,2.517
	c0.036,0.937,0.063,1.906,0.067,2.896c0.003,0.99,0.007,2.116,0.014,3.389c0.003,1.266,0.101,2.316,0.276,3.15
	c0.154,0.71,0.34,1.249,0.56,1.623c0.217,0.374,0.543,0.51,0.976,0.416c0.323-0.07,0.65-0.224,0.973-0.461
	c0.321-0.237,0.637-0.531,0.944-0.867c0.307-0.343,0.609-0.713,0.903-1.126c0.29-0.41,0.563-0.823,0.814-1.249
	c0.58-0.993,1.147-2.099,1.696-3.308L105.726,85.431z M85.373,87.914c0.087,0.396,0.2,0.777,0.333,1.147
	c0.14,0.36,0.307,0.676,0.51,0.944c0.203,0.268,0.444,0.463,0.717,0.601c0.27,0.13,0.587,0.164,0.944,0.084
	c0.573-0.123,1.039-0.486,1.399-1.091c0.357-0.597,0.633-1.283,0.823-2.06c0.189-0.78,0.311-1.563,0.36-2.357
	c0.046-0.794,0.046-1.451,0-1.963l0.106-7.933c-0.64,0.137-1.224,0.427-1.76,0.87c-0.539,0.444-1.017,0.993-1.434,1.654
	c-0.42,0.65-0.78,1.37-1.08,2.161c-0.3,0.787-0.56,1.737-0.777,2.843c-0.213,1.109-0.329,2.067-0.34,2.877
	C85.163,86.49,85.229,87.233,85.373,87.914z"/>
<path d="M110.276,90.484c-0.836,0.179-1.69-0.017-2.563-0.587c-0.877-0.57-1.713-1.406-2.507-2.517
	c-0.8-1.103-1.521-2.43-2.169-3.977c-0.65-1.543-1.164-3.203-1.543-4.977c-0.329-1.521-0.543-3.596-0.643-6.236
	c-0.101-2.637-0.15-3.953-0.15-3.953s0.063-1.343,0.193-4.026c0.13-2.686,0.374-4.871,0.724-6.547
	c0.35-1.679,0.783-3.273,1.294-4.777s1.101-2.843,1.763-4.023c0.664-1.183,1.413-2.154,2.246-2.927
	c0.833-0.77,1.743-1.263,2.731-1.473c0.717-0.157,1.343-0.147,1.87,0.027c0.524,0.171,0.969,0.454,1.333,0.843
	c0.367,0.393,0.664,0.864,0.893,1.41c0.234,0.546,0.413,1.113,0.539,1.703c0.314,1.466,0.462,2.997,0.447,4.593
	c-0.024,1.594-0.16,3.224-0.416,4.886c-0.256,1.662-0.604,3.35-1.046,5.06c-0.444,1.714-0.92,3.417-1.427,5.12
	c-0.514,1.7-1.033,3.379-1.563,5.036c-0.527,1.657-1,3.263-1.41,4.823c-0.043,0.174-0.084,0.396-0.113,0.667
	c-0.034,0.266-0.056,0.553-0.07,0.86c-0.014,0.307-0.027,0.633-0.034,0.976c-0.007,0.343,0,0.679,0.02,1l0.07,0.329
	c0.087,0.406,0.217,0.794,0.384,1.161c0.167,0.36,0.346,0.686,0.539,0.966c0.186,0.273,0.374,0.49,0.553,0.64
	c0.177,0.147,0.329,0.21,0.454,0.183c0.304-0.063,0.633-0.207,0.997-0.413c0.364-0.207,0.737-0.466,1.13-0.773
	c0.391-0.3,0.787-0.64,1.186-1.017c0.403-0.374,0.79-0.748,1.157-1.12c0.857-0.87,1.743-1.857,2.654-2.953l3.11,4.463
	c-1.217,1.249-2.441,2.396-3.673,3.43c-0.539,0.444-1.101,0.881-1.679,1.323c-0.584,0.44-1.176,0.85-1.78,1.227
	c-0.604,0.377-1.2,0.707-1.794,0.98C111.387,90.173,110.821,90.366,110.276,90.484z M106.32,72.04
	c0.433-1.406,0.874-2.973,1.319-4.704c0.451-1.734,0.847-3.507,1.186-5.316c0.343-1.811,0.594-3.593,0.753-5.354
	c0.157-1.76,0.154-3.367-0.017-4.823c-0.097-0.454-0.189-0.836-0.28-1.15c-0.094-0.321-0.196-0.466-0.317-0.44
	c-0.427,0.094-0.819,0.486-1.186,1.179c-0.367,0.696-0.686,1.603-0.959,2.714c-0.273,1.113-0.51,2.874-0.707,5.287
	c-0.193,2.41-0.294,3.62-0.294,3.62s0.02,1.097,0.053,3.29C105.911,68.533,106.061,70.434,106.32,72.04z"/>
<path d="M125.43,87.217c-1.447,0.314-2.77,0.317-3.977,0.014c-1.2-0.304-2.26-0.826-3.18-1.58c-0.92-0.754-1.69-1.69-2.307-2.797
	c-0.62-1.116-1.07-2.326-1.353-3.637c-0.183-0.86-0.247-1.913-0.177-3.169s0.177-2.382,0.326-3.379
	c0.15-0.99,0.396-1.959,0.741-2.906c0.343-0.951,0.8-1.816,1.367-2.599c0.563-0.787,1.241-1.459,2.029-2.028
	c0.794-0.56,1.72-0.959,2.787-1.186c0.867-0.189,1.707-0.224,2.51-0.104c0.807,0.116,1.536,0.37,2.2,0.753
	c0.657,0.384,1.22,0.899,1.683,1.546c0.466,0.643,0.794,1.41,0.983,2.29c0.203,0.94,0.113,2.063-0.263,3.367
	c-0.381,1.3-0.896,2.463-1.556,3.48c-0.657,1.014-1.497,1.973-2.514,2.874c-1.017,0.903-2.164,1.679-3.437,2.333
	c0.321,0.36,0.623,0.654,0.91,0.881c0.283,0.224,0.556,0.384,0.823,0.483c0.266,0.104,0.536,0.154,0.807,0.164
	c0.27,0.007,0.553-0.027,0.85-0.09c0.93-0.2,1.87-0.594,2.823-1.179c0.954-0.584,1.86-1.256,2.72-2.014
	c0.857-0.756,1.65-1.553,2.381-2.382c0.73-0.829,1.333-1.601,1.816-2.307l3.661,2.403c-1.053,1.742-2.227,3.347-3.519,4.794
	c-0.563,0.623-1.179,1.246-1.847,1.877c-0.671,0.63-1.386,1.213-2.154,1.756c-0.77,0.536-1.584,1.017-2.444,1.43
	C127.256,86.707,126.363,87.016,125.43,87.217z M119.936,76.807c0.56-0.119,1.14-0.393,1.743-0.817
	c0.601-0.423,1.137-0.916,1.609-1.48c0.473-0.563,0.903-1.277,1.287-2.137c0.384-0.857,0.527-1.529,0.423-2.017
	c-0.147-0.679-0.399-1.213-0.749-1.601c-0.353-0.384-0.717-0.536-1.091-0.457c-0.667,0.147-1.213,0.391-1.637,0.737
	c-0.423,0.343-0.749,0.748-0.99,1.196c-0.234,0.461-0.393,0.957-0.483,1.487c-0.09,0.536-0.183,1.2-0.283,1.98
	c-0.101,0.787-0.113,1.41-0.043,1.889C119.793,76.066,119.866,76.471,119.936,76.807z"/>
<path d="M132.603,76.479c0.707-0.937,1.277-1.717,1.714-2.336c0.433-0.62,0.85-1.319,1.249-2.099
	c0.396-0.783,0.713-1.423,0.937-1.917c0.227-0.493,0.497-1.073,0.804-1.746c0.311-0.674,0.683-1.497,1.123-2.47
	c0.44-0.969,1.021-2.196,1.743-3.663c0.14-0.323,0.307-0.643,0.497-0.963c0.193-0.321,0.416-0.62,0.671-0.896
	c0.259-0.276,0.556-0.524,0.889-0.734c0.336-0.213,0.73-0.364,1.179-0.461c0.744-0.164,1.336-0.207,1.777-0.126
	c0.437,0.077,0.773,0.21,1.014,0.41c0.237,0.193,0.396,0.413,0.483,0.671c0.09,0.249,0.15,0.469,0.189,0.66
	c0.08,0.374,0.027,0.826-0.174,1.34c-0.196,0.521-0.427,1.027-0.693,1.527c-0.263,0.5-0.521,0.963-0.759,1.381
	c-0.241,0.427-0.367,0.727-0.377,0.91c0.104,0.486,0.237,0.916,0.391,1.307c0.16,0.384,0.34,0.753,0.539,1.113
	c0.2,0.36,0.413,0.741,0.633,1.143c0.22,0.399,0.447,0.874,0.686,1.413c0.237,0.536,0.42,1.314,0.546,2.319
	c0.126,1.004,0.3,2.007,0.517,3.011c0.476-0.493,1.004-0.966,1.58-1.41c0.577-0.447,1.183-0.903,1.807-1.386
	c0.63-0.48,1.266-0.997,1.917-1.56c0.654-0.553,1.287-1.193,1.913-1.92l1.157,5.26c-0.807,0.923-1.777,1.84-2.903,2.739
	c-1.126,0.903-2.34,1.741-3.63,2.521c-1.29,0.777-2.616,1.459-3.977,2.043c-1.357,0.584-2.673,1.01-3.944,1.283
	c-0.916,0.196-1.787,0.3-2.613,0.307c-0.826,0.007-1.577-0.097-2.246-0.317c-0.674-0.22-1.256-0.57-1.749-1.056
	c-0.493-0.483-0.867-1.116-1.116-1.9c-0.203,0.094-0.41,0.174-0.62,0.23c-0.203,0.063-0.41,0.116-0.609,0.16
	c-0.247,0.053-0.48,0.094-0.703,0.123c-0.22,0.034-0.42,0.014-0.597-0.056c-0.174-0.067-0.333-0.203-0.476-0.41
	c-0.143-0.21-0.259-0.527-0.35-0.951c-0.08-0.374-0.063-0.744,0.053-1.106c0.113-0.36,0.273-0.689,0.466-0.997
	c0.193-0.304,0.393-0.577,0.604-0.818C132.347,76.807,132.504,76.617,132.603,76.479z M136.153,78.863
	c0.186-0.039,0.42,0.034,0.693,0.22c0.276,0.189,0.594,0.391,0.947,0.609c0.357,0.22,0.753,0.406,1.19,0.556
	c0.44,0.15,0.91,0.174,1.403,0.067c0.606-0.13,1.087-0.343,1.434-0.63c0.353-0.29,0.609-0.626,0.77-1.017
	c0.157-0.384,0.237-0.817,0.234-1.28c-0.003-0.466-0.056-0.944-0.16-1.43c-0.094-0.423-0.213-0.847-0.364-1.273
	c-0.147-0.43-0.253-0.976-0.326-1.644c-0.07-0.664-0.193-1.164-0.374-1.49c-0.174-0.333-0.329-0.616-0.461-0.85L136.153,78.863z"/>
<polygon style="fill:#83D816;" points="28.88,30.478 31.732,39.253 40.96,39.253 33.495,44.677 36.347,53.453 28.88,48.029 
	21.415,53.453 24.267,44.677 16.802,39.253 26.028,39.253 "/>
<path d="M36.347,56.866c-0.703,0-1.408-0.217-2.007-0.652l-5.46-3.966l-5.458,3.966c-1.196,0.87-2.816,0.87-4.014,0
	s-1.696-2.41-1.241-3.816l2.086-6.419l-5.458-3.965c-1.196-0.87-1.696-2.41-1.241-3.816s1.77-2.359,3.248-2.359h6.748l2.084-6.419
	c0.457-1.405,1.768-2.359,3.246-2.359s2.79,0.952,3.246,2.359l2.086,6.419h6.748c1.478,0,2.79,0.952,3.246,2.359
	c0.456,1.406-0.043,2.947-1.241,3.816l-5.458,3.965l2.086,6.419c0.457,1.406-0.043,2.947-1.241,3.816
	C37.755,56.649,37.05,56.866,36.347,56.866z M28.88,44.617c0.408,0,0.817,0.073,1.205,0.22c-0.038-0.828,0.227-1.644,0.744-2.292
	c-0.799-0.218-1.492-0.724-1.949-1.413c-0.456,0.689-1.149,1.195-1.947,1.413c0.517,0.647,0.782,1.463,0.744,2.29
	C28.063,44.691,28.472,44.617,28.88,44.617z"/>
<path d="M151.893,116.053c-0.874,0-1.746-0.333-2.413-1c-1.333-1.333-1.333-3.494,0-4.826l29.013-29.013
	c1.333-1.333,3.494-1.333,4.826,0s1.333,3.494,0,4.826l-29.013,29.013C153.639,115.721,152.767,116.053,151.893,116.053z"/>
<path d="M174.08,114.347c-0.874,0-1.746-0.333-2.413-1c-1.333-1.333-1.333-3.494,0-4.826l10.24-10.24
	c1.333-1.333,3.494-1.333,4.826,0s1.333,3.494,0,4.826l-10.24,10.24C175.826,114.014,174.954,114.347,174.08,114.347z"/>
<path d="M153.6,186.027H51.2c-1.884,0-3.413-1.529-3.413-3.413c0-1.884,1.529-3.413,3.413-3.413h102.4
	c1.884,0,3.413,1.529,3.413,3.413C157.013,184.497,155.484,186.027,153.6,186.027z"/>
<g>
</g>
<g>
</g>
<g>
</g>
<g>
</g>
<g>
</g>
<g>
</g>
<g>
</g>
<g>
</g>
<g>
</g>
<g>
</g>
<g>
</g>
<g>
</g>
<g>
</g>
<g>
</g>
<g>
</g>
</svg>
