<?xml version="1.0" encoding="iso-8859-1"?>
<!-- Generator: Adobe Illustrator 19.0.0, SVG Export Plug-In . SVG Version: 6.00 Build 0)  -->
<svg version="1.1" id="Capa_1" xmlns="http://www.w3.org/2000/svg" xmlns:xlink="http://www.w3.org/1999/xlink" x="0px" y="0px"
	 viewBox="0 0 203.24 203.24" style="enable-background:new 0 0 203.24 203.24;" xml:space="preserve">
<path style="fill:#FBAD4A;" d="M108.126,9.229L108.126,9.229c2.19-7.538,13.303-5.941,13.281,1.91l0,0
	c-0.019,6.782,8.834,9.382,12.484,3.666l0,0c4.226-6.615,14.438-1.952,12.204,5.574l0,0c-1.929,6.502,5.833,11.491,10.947,7.035l0,0
	c5.919-5.158,14.403,2.195,10.141,8.786l0,0c-3.683,5.695,2.36,12.669,8.521,9.834l0,0c7.13-3.282,13.201,6.164,7.253,11.288l0,0
	c-5.139,4.427-1.306,12.82,5.405,11.836l0,0c7.767-1.14,10.93,9.634,3.78,12.873l0,0c-6.178,2.801-4.864,11.933,1.852,12.88l0,0
	c7.774,1.096,7.774,12.322,0,13.418l0,0c-6.716,0.945-8.03,10.08-1.852,12.88l0,0c7.149,3.241,3.987,14.013-3.78,12.873l0,0
	c-6.711-0.985-10.544,7.409-5.405,11.836l0,0c5.948,5.123-0.123,14.568-7.253,11.288l0,0c-6.161-2.835-12.204,4.139-8.521,9.834l0,0
	c4.263,6.591-4.222,13.943-10.141,8.786l0,0c-5.113-4.456-12.875,0.532-10.947,7.035l0,0c2.232,7.526-7.98,12.189-12.204,5.574l0,0
	c-3.651-5.716-12.505-3.116-12.484,3.666l0,0c0.022,7.851-11.09,9.448-13.281,1.91l0,0c-1.893-6.513-11.119-6.513-13.012,0l0,0
	c-2.19,7.538-13.303,5.941-13.281-1.91l0,0c0.019-6.782-8.834-9.382-12.484-3.666l0,0c-4.226,6.615-14.438,1.952-12.204-5.574l0,0
	c1.929-6.502-5.833-11.491-10.947-7.035l0,0c-5.919,5.158-14.403-2.195-10.141-8.786l0,0c3.683-5.695-2.36-12.669-8.521-9.834l0,0
	c-7.13,3.282-13.201-6.164-7.253-11.288l0,0c5.139-4.427,1.306-12.82-5.405-11.836l0,0c-7.767,1.14-10.929-9.634-3.78-12.873l0,0
	c6.178-2.801,4.864-11.933-1.852-12.88l0,0c-7.774-1.096-7.774-12.322,0-13.418l0,0c6.716-0.945,8.03-10.08,1.852-12.88l0,0
	c-7.149-3.241-3.987-14.013,3.78-12.873l0,0c6.711,0.985,10.544-7.409,5.405-11.836l0,0c-5.948-5.123,0.123-14.568,7.253-11.288l0,0
	c6.161,2.835,12.204-4.139,8.521-9.834l0,0c-4.263-6.591,4.222-13.943,10.141-8.786l0,0c5.113,4.456,12.875-0.532,10.947-7.035l0,0
	c-2.232-7.526,7.98-12.189,12.204-5.574l0,0c3.651,5.716,12.505,3.116,12.484-3.666l0,0c-0.022-7.851,11.09-9.448,13.281-1.91l0,0
	C97.007,15.742,106.233,15.742,108.126,9.229z"/>
<path d="M88.719,202.316c-0.512,0-1.033-0.036-1.562-0.111c-5.159-0.744-8.753-4.902-8.738-10.115
	c0.007-2.342-1.847-3.067-2.415-3.236c-0.567-0.162-2.521-0.555-3.78,1.417c-2.806,4.395-8.074,5.953-12.819,3.784
	c-4.741-2.166-7.018-7.168-5.536-12.165c0.667-2.244-0.906-3.465-1.405-3.785c-0.498-0.319-2.258-1.242-4.026,0.295
	c-3.929,3.424-9.424,3.432-13.367,0.019c-3.939-3.413-4.714-8.854-1.884-13.232c1.273-1.968,0.106-3.582-0.282-4.028
	c-0.387-0.449-1.818-1.831-3.946-0.852c-4.734,2.178-10.011,0.638-12.829-3.748c-2.818-4.384-2.029-9.824,1.92-13.227
	c1.775-1.529,1.109-3.403,0.864-3.944c-0.247-0.538-1.231-2.277-3.546-1.93c-5.163,0.765-9.786-2.208-11.254-7.209
	c-1.468-5.004,0.821-9.998,5.571-12.15c2.133-0.966,2.024-2.954,1.94-3.54c-0.084-0.587-0.539-2.524-2.859-2.852
	C3.606,110.981,0,106.833,0,101.62c0-5.214,3.604-9.361,8.767-10.088c2.318-0.326,2.773-2.265,2.859-2.852
	c0.084-0.585,0.193-2.574-1.94-3.54c-4.748-2.152-7.038-7.148-5.571-12.15c1.468-5.002,6.091-7.977,11.255-7.209
	c2.313,0.341,3.299-1.391,3.545-1.93c0.246-0.539,0.911-2.415-0.864-3.944c-3.949-3.403-4.739-8.842-1.92-13.227
	s8.098-5.929,12.829-3.746c2.13,0.975,3.558-0.404,3.946-0.853c0.387-0.447,1.555-2.06,0.282-4.028
	c-2.83-4.376-2.057-9.818,1.884-13.232s9.436-3.405,13.367,0.019c1.765,1.538,3.528,0.613,4.026,0.295
	c0.498-0.321,2.072-1.539,1.405-3.784c-1.483-4.999,0.794-10.001,5.536-12.167c4.743-2.167,10.011-0.611,12.819,3.784
	c1.26,1.973,3.212,1.58,3.78,1.417c0.568-0.169,2.42-0.893,2.415-3.236c-0.015-5.214,3.579-9.371,8.738-10.115
	c5.166-0.734,9.779,2.237,11.233,7.243c0.654,2.248,2.637,2.423,3.229,2.423s2.574-0.176,3.229-2.423
	c1.454-5.007,6.065-7.975,11.233-7.243c5.159,0.744,8.753,4.902,8.738,10.115c-0.007,2.342,1.847,3.067,2.415,3.236
	c0.57,0.167,2.522,0.556,3.78-1.417c2.807-4.393,8.078-5.953,12.819-3.784c4.741,2.166,7.018,7.168,5.536,12.165
	c-0.667,2.244,0.906,3.465,1.405,3.785c0.498,0.319,2.26,1.244,4.026-0.295c3.929-3.424,9.426-3.432,13.367-0.019
	c3.939,3.413,4.714,8.854,1.884,13.232c-1.273,1.968-0.106,3.582,0.282,4.028c0.387,0.449,1.816,1.831,3.946,0.852
	c4.736-2.176,10.011-0.637,12.829,3.748c2.818,4.384,2.029,9.824-1.92,13.227c-1.775,1.529-1.109,3.403-0.864,3.944
	c0.246,0.536,1.219,2.265,3.546,1.93c5.161-0.768,9.786,2.207,11.254,7.209c1.468,5.004-0.821,9.998-5.571,12.15
	c-2.133,0.966-2.024,2.954-1.94,3.54c0.084,0.587,0.539,2.524,2.859,2.852c5.161,0.727,8.767,4.874,8.767,10.088
	c0,5.214-3.604,9.361-8.767,10.088c-2.318,0.326-2.773,2.265-2.859,2.852c-0.084,0.585-0.193,2.574,1.94,3.54
	c4.748,2.152,7.038,7.148,5.571,12.15c-1.468,5.001-6.093,7.974-11.255,7.209c-2.313-0.34-3.299,1.393-3.545,1.93
	c-0.246,0.539-0.911,2.415,0.864,3.944c3.949,3.403,4.739,8.842,1.92,13.227c-2.819,4.386-8.095,5.931-12.829,3.746
	c-2.132-0.975-3.558,0.406-3.946,0.853c-0.387,0.447-1.555,2.06-0.282,4.028c2.83,4.376,2.057,9.818-1.884,13.232
	s-9.436,3.405-13.367-0.019c-1.765-1.538-3.528-0.614-4.026-0.295c-0.498,0.319-2.072,1.539-1.405,3.784
	c1.483,4.999-0.794,10.001-5.536,12.167c-4.741,2.164-10.013,0.611-12.819-3.784c-1.26-1.973-3.212-1.582-3.78-1.417
	c-0.568,0.169-2.42,0.893-2.415,3.236c0.015,5.214-3.579,9.371-8.738,10.115c-5.161,0.737-9.779-2.239-11.233-7.243
	c-0.654-2.248-2.637-2.423-3.229-2.423c-0.592,0-2.574,0.176-3.229,2.423C97.085,199.456,93.228,202.316,88.719,202.316z
	 M74.935,181.867c0.985,0,1.99,0.143,2.993,0.437c4.46,1.311,7.332,5.158,7.318,9.805c-0.009,2.78,2.401,3.268,2.883,3.337
	c0.483,0.072,2.93,0.278,3.707-2.388c1.297-4.463,5.137-7.347,9.783-7.347c4.646,0,8.487,2.883,9.783,7.347
	c0.777,2.666,3.224,2.461,3.707,2.388c0.483-0.068,2.891-0.556,2.883-3.337c-0.014-4.647,2.859-8.496,7.318-9.805
	c4.46-1.304,8.955,0.379,11.457,4.294c1.495,2.343,3.787,1.449,4.229,1.248c0.444-0.203,2.618-1.35,1.826-4.018
	c-1.321-4.453,0.35-8.955,4.26-11.469c3.91-2.51,8.699-2.164,12.201,0.891c2.098,1.824,4.041,0.324,4.41,0.005
	c0.369-0.319,2.132-2.029,0.621-4.366c-2.524-3.903-2.188-8.694,0.855-12.206c3.043-3.511,7.736-4.524,11.959-2.584
	c2.528,1.171,3.97-0.824,4.233-1.236c0.263-0.41,1.473-2.55-0.633-4.364c-3.521-3.033-4.548-7.724-2.618-11.952
	c1.93-4.227,6.147-6.526,10.745-5.849c2.749,0.399,3.577-1.911,3.714-2.379c0.138-0.468,0.695-2.862-1.838-4.011
	c-4.233-1.918-6.54-6.13-5.878-10.728c0.66-4.599,4.062-7.992,8.663-8.639c2.755-0.389,2.893-2.84,2.893-3.328
	s-0.14-2.941-2.893-3.328c-4.601-0.649-8.003-4.04-8.663-8.639c-0.662-4.598,1.645-8.81,5.878-10.728
	c2.533-1.149,1.975-3.541,1.838-4.011c-0.138-0.466-0.961-2.78-3.712-2.379c-4.605,0.674-8.817-1.623-10.747-5.849
	c-1.93-4.227-0.903-8.919,2.618-11.952c2.106-1.812,0.896-3.953,0.633-4.364c-0.265-0.41-1.703-2.398-4.233-1.237
	c-4.219,1.947-8.916,0.928-11.959-2.582c-3.043-3.514-3.379-8.303-0.855-12.206c1.51-2.335-0.253-4.047-0.621-4.366
	c-0.369-0.321-2.314-1.819-4.41,0.005c-3.502,3.053-8.294,3.4-12.201,0.891c-3.91-2.514-5.583-7.014-4.26-11.471
	c0.79-2.666-1.382-3.811-1.826-4.016c-0.442-0.201-2.734-1.094-4.229,1.248c-2.502,3.917-7.001,5.594-11.457,4.294
	c-4.46-1.311-7.332-5.158-7.318-9.805c0.009-2.78-2.401-3.268-2.883-3.337c-0.485-0.073-2.93-0.28-3.707,2.388l0,0
	c-1.297,4.463-5.137,7.347-9.783,7.347c-4.646,0-8.487-2.883-9.783-7.347c-0.777-2.668-3.224-2.459-3.707-2.388
	c-0.483,0.068-2.891,0.556-2.883,3.337c0.014,4.647-2.859,8.496-7.318,9.805c-4.454,1.307-8.955-0.377-11.457-4.294
	c-1.495-2.342-3.787-1.451-4.229-1.248c-0.444,0.203-2.618,1.35-1.826,4.017c1.321,4.453-0.35,8.955-4.26,11.469
	c-3.91,2.509-8.702,2.161-12.201-0.891c-2.099-1.828-4.043-0.324-4.41-0.005c-0.369,0.319-2.132,2.029-0.621,4.366
	c2.524,3.903,2.188,8.694-0.855,12.206c-3.043,3.512-7.738,4.526-11.959,2.584c-2.524-1.167-3.97,0.824-4.233,1.236
	c-0.263,0.41-1.473,2.55,0.633,4.364c3.521,3.033,4.548,7.724,2.618,11.952c-1.93,4.227-6.149,6.528-10.745,5.849
	c-2.76-0.404-3.577,1.91-3.714,2.379c-0.138,0.468-0.695,2.862,1.838,4.011c4.233,1.918,6.54,6.13,5.878,10.728
	c-0.66,4.599-4.062,7.992-8.663,8.639c-2.755,0.389-2.893,2.84-2.893,3.328s0.14,2.941,2.893,3.328
	c4.601,0.649,8.003,4.04,8.663,8.639c0.662,4.598-1.645,8.81-5.878,10.728c-2.533,1.149-1.975,3.541-1.838,4.011
	c0.137,0.466,0.956,2.773,3.712,2.379c4.598-0.676,8.817,1.621,10.747,5.849c1.93,4.227,0.903,8.919-2.618,11.952
	c-2.106,1.812-0.896,3.953-0.633,4.364c0.265,0.41,1.703,2.396,4.233,1.237c4.221-1.949,8.916-0.93,11.959,2.582
	c3.043,3.514,3.379,8.303,0.855,12.206c-1.51,2.335,0.253,4.047,0.621,4.366c0.367,0.321,2.313,1.819,4.41-0.005
	c3.502-3.053,8.293-3.4,12.201-0.891c3.91,2.514,5.583,7.014,4.26,11.471c-0.79,2.666,1.382,3.811,1.826,4.016
	c0.442,0.2,2.734,1.096,4.229-1.248C68.41,183.562,71.547,181.867,74.935,181.867z M108.126,9.229h0.017H108.126z"/>
<path style="fill:#ED5481;" d="M106.03,39L106.03,39c1.485-5.11,9.016-4.026,9.001,1.294l0,0c-0.014,4.596,5.987,6.359,8.462,2.485
	l0,0c2.864-4.483,9.786-1.323,8.272,3.779l0,0c-1.307,4.407,3.954,7.788,7.419,4.768l0,0c4.011-3.495,9.762,1.488,6.873,5.955l0,0
	c-2.497,3.86,1.599,8.586,5.775,6.665l0,0c4.833-2.224,8.948,4.178,4.917,7.651l0,0c-3.483,3-0.884,8.689,3.664,8.021l0,0
	c5.263-0.771,7.409,6.53,2.562,8.726l0,0c-4.186,1.898-3.297,8.088,1.254,8.73l0,0c5.268,0.742,5.268,8.352,0,9.093l0,0
	c-4.552,0.642-5.443,6.832-1.254,8.73l0,0c4.845,2.196,2.702,9.498-2.562,8.726l0,0c-4.548-0.667-7.146,5.021-3.664,8.021l0,0
	c4.031,3.473-0.084,9.875-4.917,7.651l0,0c-4.176-1.922-8.272,2.806-5.775,6.665l0,0c2.889,4.468-2.862,9.452-6.873,5.955l0,0
	c-3.466-3.021-8.726,0.362-7.419,4.768l0,0c1.514,5.101-5.408,8.262-8.272,3.779l0,0c-2.475-3.874-8.475-2.113-8.462,2.485l0,0
	c0.015,5.32-7.516,6.403-9.001,1.294l0,0c-1.282-4.413-7.537-4.413-8.818,0l0,0c-1.485,5.11-9.016,4.026-9.001-1.294l0,0
	c0.014-4.596-5.987-6.359-8.462-2.485l0,0c-2.864,4.483-9.786,1.323-8.272-3.779l0,0c1.307-4.407-3.954-7.788-7.419-4.768l0,0
	c-4.011,3.495-9.762-1.488-6.873-5.955l0,0c2.497-3.86-1.599-8.586-5.775-6.665l0,0c-4.833,2.224-8.948-4.178-4.917-7.651l0,0
	c3.483-3,0.884-8.689-3.664-8.021l0,0c-5.263,0.771-7.409-6.53-2.562-8.726l0,0c4.186-1.898,3.297-8.088-1.254-8.73l0,0
	c-5.268-0.742-5.268-8.352,0-9.093l0,0c4.552-0.642,5.443-6.832,1.254-8.73l0,0c-4.845-2.196-2.702-9.498,2.562-8.726l0,0
	c4.548,0.667,7.146-5.021,3.664-8.021l0,0c-4.031-3.473,0.084-9.875,4.917-7.651l0,0c4.176,1.922,8.272-2.806,5.775-6.665l0,0
	c-2.889-4.468,2.862-9.452,6.873-5.955l0,0c3.466,3.021,8.726-0.362,7.419-4.768l0,0c-1.514-5.101,5.408-8.262,8.272-3.779l0,0
	c2.475,3.874,8.475,2.113,8.462-2.485l0,0c-0.015-5.32,7.516-6.403,9.001-1.294l0,0C98.493,43.416,104.747,43.416,106.03,39z"/>
<path d="M110.353,170.968c-3.543,0-6.576-2.246-7.601-5.779c-0.205-0.703-0.729-0.85-1.132-0.85c-0.403,0-0.927,0.147-1.132,0.85
	c-1.142,3.934-4.768,6.282-8.827,5.69c-4.053-0.584-6.878-3.85-6.866-7.946c0.002-0.732-0.459-1.021-0.847-1.135
	c-0.389-0.114-0.932-0.119-1.324,0.497c-2.205,3.451-6.347,4.673-10.073,2.973c-3.726-1.702-5.514-5.632-4.349-9.559
	c0.208-0.701-0.152-1.109-0.493-1.328c-0.338-0.217-0.857-0.375-1.411,0.104c-3.087,2.691-7.407,2.698-10.501,0.017
	c-3.096-2.683-3.705-6.958-1.481-10.399c0.398-0.613,0.166-1.106-0.097-1.411c-0.266-0.305-0.722-0.609-1.386-0.299
	c-3.719,1.712-7.863,0.502-10.08-2.944c-2.215-3.447-1.596-7.719,1.509-10.394c0.555-0.478,0.471-1.017,0.304-1.384
	c-0.167-0.367-0.517-0.785-1.244-0.676c-4.05,0.596-7.689-1.736-8.842-5.664c-1.154-3.929,0.645-7.856,4.376-9.545
	c0.666-0.304,0.737-0.841,0.679-1.242s-0.278-0.898-1.002-1c-4.053-0.57-6.886-3.828-6.886-7.924c0-4.096,2.833-7.356,6.89-7.927
	c0.724-0.102,0.944-0.601,1.002-1c0.058-0.399-0.014-0.939-0.679-1.242c-3.731-1.69-5.53-5.617-4.376-9.545
	c1.155-3.93,4.797-6.255,8.842-5.664c0.727,0.106,1.077-0.311,1.244-0.676c0.167-0.367,0.251-0.905-0.302-1.382
	c-3.104-2.674-3.724-6.948-1.509-10.395c2.215-3.446,6.361-4.657,10.081-2.942c0.659,0.302,1.118,0.005,1.384-0.3
	c0.263-0.305,0.495-0.799,0.099-1.411c-2.225-3.441-1.616-7.716,1.48-10.399c3.094-2.679,7.412-2.674,10.501,0.017
	c0.553,0.48,1.072,0.321,1.411,0.104c0.34-0.218,0.701-0.626,0.493-1.326c-1.166-3.929,0.623-7.857,4.349-9.561
	c3.726-1.7,7.866-0.478,10.073,2.971c0.394,0.62,0.94,0.609,1.324,0.498c0.387-0.114,0.85-0.403,0.847-1.135
	c-0.012-4.096,2.811-7.363,6.866-7.946c4.047-0.596,7.683,1.756,8.827,5.69c0.205,0.703,0.729,0.85,1.132,0.85
	c0.403,0,0.927-0.147,1.132-0.85l0,0c1.142-3.934,4.765-6.281,8.827-5.69c4.053,0.584,6.878,3.85,6.866,7.946
	c-0.002,0.732,0.459,1.021,0.847,1.135c0.387,0.114,0.932,0.119,1.324-0.497c2.205-3.451,6.349-4.675,10.073-2.973
	c3.726,1.702,5.514,5.632,4.349,9.559c-0.208,0.701,0.152,1.109,0.493,1.328c0.341,0.218,0.858,0.377,1.411-0.104
	c3.087-2.69,7.407-2.7,10.501-0.017c3.096,2.683,3.705,6.958,1.481,10.399c-0.398,0.613-0.166,1.106,0.097,1.411
	c0.266,0.305,0.72,0.606,1.386,0.299c3.722-1.71,7.866-0.5,10.08,2.944c2.215,3.447,1.596,7.719-1.509,10.394
	c-0.555,0.478-0.471,1.017-0.304,1.384c0.167,0.367,0.514,0.782,1.244,0.676c4.06-0.594,7.689,1.736,8.842,5.664
	c1.154,3.929-0.645,7.856-4.376,9.545c-0.666,0.304-0.737,0.841-0.679,1.242s0.278,0.898,1.002,1
	c4.048,0.572,6.881,3.83,6.881,7.927s-2.833,7.356-6.888,7.927c-0.724,0.102-0.944,0.601-1.002,1
	c-0.058,0.399,0.014,0.939,0.679,1.242c3.731,1.69,5.53,5.617,4.376,9.545c-1.154,3.932-4.794,6.257-8.842,5.664
	c-0.729-0.106-1.077,0.311-1.244,0.676c-0.167,0.367-0.251,0.905,0.302,1.382c3.104,2.674,3.724,6.948,1.509,10.395
	c-2.215,3.446-6.361,4.658-10.081,2.942c-0.662-0.304-1.118-0.005-1.384,0.3c-0.263,0.305-0.495,0.799-0.099,1.411
	c2.225,3.441,1.616,7.716-1.48,10.399c-3.096,2.678-7.414,2.673-10.501-0.017c-0.551-0.478-1.07-0.321-1.411-0.104
	c-0.34,0.218-0.701,0.626-0.493,1.326c1.166,3.929-0.623,7.857-4.349,9.561c-3.727,1.7-7.868,0.48-10.073-2.971
	c-0.394-0.62-0.937-0.604-1.324-0.498c-0.387,0.114-0.85,0.403-0.847,1.135c0.012,4.096-2.811,7.363-6.866,7.946
	C111.165,170.941,110.756,170.968,110.353,170.968z M101.62,157.515c3.594,0,6.685,2.318,7.687,5.77
	c0.189,0.654,0.626,0.93,1.3,0.84c0.672-0.097,1.012-0.492,1.01-1.171c-0.01-3.594,2.301-6.692,5.751-7.706
	c3.449-1.014,7.067,0.345,9.001,3.374c0.367,0.572,0.865,0.72,1.483,0.437c0.618-0.282,0.833-0.754,0.64-1.408
	c-1.022-3.446,0.321-7.067,3.345-9.01c3.026-1.944,6.878-1.664,9.588,0.698c0.512,0.447,1.033,0.447,1.546,0.003
	c0.514-0.445,0.587-0.959,0.217-1.531c-1.952-3.019-1.681-6.869,0.671-9.586c2.355-2.717,6.13-3.533,9.397-2.033
	c0.621,0.288,1.118,0.14,1.485-0.432s0.292-1.087-0.222-1.531c-2.724-2.345-3.55-6.118-2.057-9.388s4.886-5.127,8.443-4.594
	c0.667,0.085,1.109-0.181,1.302-0.835c0.191-0.652-0.026-1.123-0.643-1.405c-3.273-1.485-5.13-4.871-4.62-8.429
	s3.248-6.287,6.806-6.789c0.674-0.099,1.015-0.492,1.015-1.171s-0.341-1.072-1.014-1.167c-3.56-0.502-6.296-3.231-6.808-6.789
	c-0.512-3.558,1.345-6.944,4.62-8.429c0.62-0.282,0.836-0.753,0.643-1.405c-0.191-0.654-0.635-0.925-1.302-0.835
	c-3.558,0.529-6.951-1.324-8.443-4.594c-1.493-3.27-0.667-7.043,2.058-9.39c0.514-0.444,0.589-0.959,0.222-1.529
	c-0.367-0.57-0.865-0.717-1.483-0.433c-3.268,1.504-7.043,0.686-9.399-2.031c-2.352-2.717-2.623-6.569-0.671-9.586
	c0.369-0.572,0.295-1.087-0.218-1.531c-0.514-0.445-1.033-0.442-1.546,0.003c-2.708,2.362-6.56,2.644-9.588,0.698
	c-3.024-1.944-4.369-5.565-3.345-9.011c0.193-0.652-0.022-1.125-0.64-1.406c-0.618-0.283-1.12-0.137-1.483,0.439
	c-1.934,3.026-5.552,4.381-9.001,3.372c-3.449-1.014-5.76-4.11-5.751-7.706c0.002-0.678-0.338-1.073-1.01-1.171
	c-0.669-0.085-1.109,0.186-1.3,0.84c-1.002,3.451-4.091,5.77-7.687,5.77c-3.596,0-6.685-2.318-7.687-5.77
	c-0.189-0.654-0.631-0.93-1.3-0.84c-0.672,0.097-1.012,0.492-1.01,1.171c0.01,3.594-2.301,6.692-5.751,7.706
	c-3.451,1.01-7.067-0.345-9.001-3.374c-0.367-0.573-0.869-0.72-1.483-0.437c-0.618,0.282-0.833,0.754-0.64,1.408
	c1.022,3.446-0.321,7.067-3.345,9.009c-3.026,1.946-6.876,1.664-9.588-0.698c-0.512-0.445-1.033-0.449-1.546-0.003
	c-0.514,0.445-0.587,0.959-0.217,1.531c1.952,3.019,1.681,6.869-0.671,9.586c-2.353,2.719-6.13,3.538-9.397,2.033
	c-0.618-0.285-1.118-0.138-1.485,0.432c-0.367,0.572-0.292,1.087,0.222,1.531c2.724,2.345,3.55,6.118,2.057,9.388
	s-4.886,5.125-8.443,4.594c-0.671-0.09-1.111,0.181-1.302,0.835c-0.191,0.652,0.026,1.123,0.643,1.405
	c3.273,1.485,5.13,4.871,4.62,8.429c-0.51,3.558-3.248,6.287-6.806,6.789c-0.674,0.096-1.015,0.486-1.015,1.167
	c0,0.681,0.341,1.072,1.014,1.167c3.56,0.502,6.296,3.231,6.808,6.789c0.512,3.558-1.345,6.944-4.62,8.429
	c-0.62,0.282-0.836,0.753-0.643,1.405c0.191,0.654,0.631,0.92,1.302,0.835c3.555-0.532,6.95,1.324,8.443,4.594
	s0.667,7.043-2.058,9.39c-0.514,0.444-0.589,0.959-0.222,1.529c0.367,0.57,0.865,0.717,1.483,0.433
	c3.272-1.502,7.043-0.684,9.399,2.031c2.352,2.717,2.623,6.569,0.671,9.586c-0.369,0.572-0.295,1.087,0.218,1.531
	c0.514,0.444,1.033,0.444,1.546-0.003c2.708-2.362,6.562-2.642,9.588-0.698c3.024,1.944,4.369,5.565,3.345,9.011
	c-0.193,0.652,0.022,1.125,0.64,1.406c0.614,0.283,1.118,0.135,1.483-0.439c1.934-3.026,5.55-4.384,9.001-3.372
	c3.449,1.014,5.76,4.11,5.751,7.706c-0.002,0.678,0.338,1.073,1.01,1.171c0.676,0.096,1.109-0.186,1.3-0.84
	C94.935,159.832,98.026,157.515,101.62,157.515z"/>
<path d="M79.43,140.873c-0.597,0-1.203-0.157-1.753-0.486c-1.616-0.969-2.14-3.067-1.171-4.683l40.96-68.267
	c0.969-1.616,3.069-2.14,4.683-1.171c1.616,0.969,2.14,3.067,1.171,4.683l-40.96,68.267C81.72,140.283,80.59,140.873,79.43,140.873z
	"/>
<path d="M81.14,86.26c-6.588,0-11.947-5.361-11.947-11.947s5.359-11.947,11.947-11.947c6.588,0,11.947,5.361,11.947,11.947
	S87.728,86.26,81.14,86.26z M81.14,69.193c-2.823,0-5.12,2.297-5.12,5.12s2.297,5.12,5.12,5.12c2.823,0,5.12-2.297,5.12-5.12
	S83.963,69.193,81.14,69.193z"/>
<path d="M122.1,137.46c-6.588,0-11.947-5.361-11.947-11.947c0-6.586,5.359-11.947,11.947-11.947c6.588,0,11.947,5.361,11.947,11.947
	C134.047,132.099,128.688,137.46,122.1,137.46z M122.1,120.393c-2.823,0-5.12,2.297-5.12,5.12s2.297,5.12,5.12,5.12
	s5.12-2.297,5.12-5.12S124.923,120.393,122.1,120.393z"/>
<g>
</g>
<g>
</g>
<g>
</g>
<g>
</g>
<g>
</g>
<g>
</g>
<g>
</g>
<g>
</g>
<g>
</g>
<g>
</g>
<g>
</g>
<g>
</g>
<g>
</g>
<g>
</g>
<g>
</g>
</svg>
