<?xml version="1.0" encoding="iso-8859-1"?>
<!-- Generator: Adobe Illustrator 19.0.0, SVG Export Plug-In . SVG Version: 6.00 Build 0)  -->
<svg version="1.1" id="Capa_1" xmlns="http://www.w3.org/2000/svg" xmlns:xlink="http://www.w3.org/1999/xlink" x="0px" y="0px"
	 viewBox="0 0 201.506 201.506" style="enable-background:new 0 0 201.506 201.506;" xml:space="preserve">
<circle style="fill:#2A8EE6;" cx="100.753" cy="100.753" r="97.28"/>
<path d="M100.753,201.506C45.198,201.506,0,156.308,0,100.753S45.198,0,100.753,0s100.753,45.198,100.753,100.753
	S156.308,201.506,100.753,201.506z M100.753,6.946c-51.726,0-93.807,42.081-93.807,93.807s42.081,93.807,93.807,93.807
	s93.807-42.081,93.807-93.807S152.479,6.946,100.753,6.946z"/>
<path style="fill:#DDDDDD;" d="M185.477,52.966H74.324c-12.739,0-23.064,10.325-23.064,23.064v17.896h146.509
	C196.739,79.113,192.401,65.217,185.477,52.966z"/>
<path d="M197.769,97.34H51.26c-1.884,0-3.413-1.529-3.413-3.413V76.032c0-14.601,11.877-26.479,26.477-26.479h111.152
	c1.23,0,2.365,0.662,2.971,1.734c7.398,13.09,11.68,27.356,12.725,42.404c0.067,0.945-0.263,1.874-0.91,2.565
	C199.615,96.947,198.714,97.34,197.769,97.34z M54.673,90.513h139.366c-1.297-12.029-4.847-23.487-10.578-34.133H74.324
	c-10.836,0-19.651,8.815-19.651,19.652L54.673,90.513L54.673,90.513z"/>
<circle style="fill:#ED5481;" cx="73.446" cy="75.153" r="8.533"/>
<path d="M73.446,87.1c-6.588,0-11.947-5.361-11.947-11.947s5.359-11.947,11.947-11.947c6.588,0,11.947,5.361,11.947,11.947
	S80.034,87.1,73.446,87.1z M73.446,70.033c-2.823,0-5.12,2.297-5.12,5.12s2.297,5.12,5.12,5.12c2.823,0,5.12-2.297,5.12-5.12
	S76.269,70.033,73.446,70.033z"/>
<circle style="fill:#FEDA4F;" cx="100.753" cy="75.153" r="8.533"/>
<path d="M100.753,87.1c-6.588,0-11.947-5.361-11.947-11.947s5.359-11.947,11.947-11.947c6.588,0,11.947,5.361,11.947,11.947
	S107.341,87.1,100.753,87.1z M100.753,70.033c-2.823,0-5.12,2.297-5.12,5.12s2.297,5.12,5.12,5.12s5.12-2.297,5.12-5.12
	S103.576,70.033,100.753,70.033z"/>
<circle style="fill:#9DFB45;" cx="128.06" cy="75.153" r="8.533"/>
<path d="M128.06,87.158c-6.62,0-12.005-5.385-12.005-12.005s5.385-12.005,12.005-12.005c6.62,0,12.005,5.385,12.005,12.005
	S134.68,87.158,128.06,87.158z M128.06,70.091c-2.79,0-5.062,2.27-5.062,5.062c0,2.792,2.272,5.062,5.062,5.062
	c2.79,0,5.062-2.27,5.062-5.062C133.122,72.361,130.85,70.091,128.06,70.091z"/>
<path style="fill:#FFFFFF;" d="M51.26,184.496c14.502,8.59,31.416,13.537,49.493,13.537c53.726,0,97.28-43.554,97.28-97.28
	c0-2.297-0.108-4.569-0.265-6.827H51.26V184.496z"/>
<path d="M100.753,201.446c-18.039,0-35.755-4.845-51.232-14.013l-1.674-0.992V90.513h153.107l0.22,3.176
	c0.186,2.686,0.273,4.932,0.273,7.064C201.446,156.274,156.276,201.446,100.753,201.446z M54.673,182.528
	c14.022,7.917,29.911,12.092,46.08,12.092c51.758,0,93.867-42.109,93.867-93.867c0-1.084-0.026-2.203-0.075-3.413H54.673V182.528z"
	/>
<polyline style="fill:#FEDA38;" points="81.98,114.406 81.98,114.406 92.22,155.366 150.246,155.366 157.073,121.233 
	85.393,121.233 "/>
<path d="M150.246,158.78H92.22c-1.567,0-2.932-1.067-3.311-2.586l-10.24-40.96c-0.457-1.83,0.655-3.683,2.485-4.14
	c1.828-0.459,3.681,0.655,4.139,2.483l1.06,4.241h70.721c1.022,0,1.992,0.459,2.64,1.249c0.649,0.79,0.908,1.83,0.707,2.833
	l-6.827,34.133C153.274,157.631,151.873,158.78,150.246,158.78z M94.886,151.953h52.564l5.461-27.307H88.059L94.886,151.953z"/>
<g>
	<circle cx="105.873" cy="165.606" r="6.827"/>
	<circle cx="136.593" cy="165.606" r="6.827"/>
</g>
<path d="M153.66,141.713H88.806c-1.884,0-3.413-1.529-3.413-3.413s1.529-3.413,3.413-3.413h64.853c1.884,0,3.413,1.529,3.413,3.413
	S155.544,141.713,153.66,141.713z"/>
<path d="M81.98,117.82H71.74c-1.884,0-3.413-1.529-3.413-3.413c0-1.884,1.529-3.413,3.413-3.413h10.24
	c1.884,0,3.413,1.529,3.413,3.413C85.393,116.291,83.864,117.82,81.98,117.82z"/>
<g>
</g>
<g>
</g>
<g>
</g>
<g>
</g>
<g>
</g>
<g>
</g>
<g>
</g>
<g>
</g>
<g>
</g>
<g>
</g>
<g>
</g>
<g>
</g>
<g>
</g>
<g>
</g>
<g>
</g>
</svg>
