<?xml version="1.0" encoding="iso-8859-1"?>
<!-- Generator: Adobe Illustrator 19.0.0, SVG Export Plug-In . SVG Version: 6.00 Build 0)  -->
<svg version="1.1" id="Capa_1" xmlns="http://www.w3.org/2000/svg" xmlns:xlink="http://www.w3.org/1999/xlink" x="0px" y="0px"
	 viewBox="0 0 198.093 198.093" style="enable-background:new 0 0 198.093 198.093;" xml:space="preserve">
<circle style="fill:#FBAD4A;" cx="99.046" cy="99.046" r="95.573"/>
<path d="M99.046,198.093C44.431,198.093,0,153.661,0,99.046S44.431,0,99.046,0s99.046,44.431,99.046,99.046
	S153.661,198.093,99.046,198.093z M99.046,6.946c-50.784,0-92.1,41.317-92.1,92.1s41.315,92.1,92.1,92.1s92.1-41.317,92.1-92.1
	S149.83,6.946,99.046,6.946z"/>
<path d="M93.911,117.4c-0.915-0.874-1.36-1.906-1.338-3.099c0.067-3.35,0.719-6.281,1.959-8.789
	c1.241-2.509,2.676-4.589,4.313-6.236c1.633-1.647,3.814-3.519,6.538-5.63c2.874-2.176,4.997-4.074,6.369-5.687
	c1.372-1.613,2.08-3.463,2.12-5.55c0.159-8.117-5.091-12.283-15.746-12.489c-2.608-0.053-5.164,0.217-7.673,0.8
	c-2.509,0.587-4.743,1.457-6.704,2.606c-0.905,0.584-1.843,0.864-2.811,0.843c-1.191-0.024-2.225-0.49-3.101-1.403
	c-0.877-0.91-1.304-1.963-1.28-3.157c0.034-1.713,0.99-3.113,2.876-4.193c3.092-1.877,6.212-3.193,9.354-3.956
	c3.147-0.753,6.62-1.101,10.418-1.027c7.6,0.147,13.655,2.167,18.161,6.057c4.511,3.89,6.7,9.073,6.576,15.553
	c-0.056,2.906-0.626,5.449-1.712,7.627c-1.089,2.179-2.388,4.019-3.908,5.513c-1.522,1.497-3.528,3.193-6.025,5.081
	c-3.253,2.473-5.702,4.721-7.34,6.74c-1.644,2.017-2.492,4.516-2.548,7.494c-0.024,1.193-0.531,2.207-1.514,3.043
	c-0.986,0.836-2.15,1.246-3.49,1.22C95.991,118.729,94.826,118.277,93.911,117.4z M92.17,137.94
	c-1.277-1.329-1.898-2.927-1.862-4.791c0.034-1.787,0.715-3.316,2.045-4.593c1.328-1.28,2.888-1.903,4.675-1.867
	c1.862,0.034,3.434,0.72,4.714,2.046c1.277,1.33,1.9,2.886,1.867,4.673c-0.036,1.864-0.72,3.434-2.05,4.71
	c-1.33,1.283-2.925,1.9-4.787,1.867C94.985,139.95,93.449,139.269,92.17,137.94z"/>
<path d="M20.54,102.46c-1.884,0-3.413-1.529-3.413-3.413c0-45.172,36.75-81.92,81.92-81.92c1.884,0,3.413,1.529,3.413,3.413
	s-1.529,3.413-3.413,3.413c-41.407,0-75.093,33.686-75.093,75.093C23.953,100.931,22.424,102.46,20.54,102.46z"/>
<path d="M153.66,198.033h-47.787c-1.884,0-3.413-1.529-3.413-3.413c0-1.884,1.529-3.413,3.413-3.413h47.787
	c1.884,0,3.413,1.529,3.413,3.413C157.073,196.504,155.544,198.033,153.66,198.033z"/>
<g>
</g>
<g>
</g>
<g>
</g>
<g>
</g>
<g>
</g>
<g>
</g>
<g>
</g>
<g>
</g>
<g>
</g>
<g>
</g>
<g>
</g>
<g>
</g>
<g>
</g>
<g>
</g>
<g>
</g>
</svg>
