<?xml version="1.0" encoding="iso-8859-1"?>
<!-- Generator: Adobe Illustrator 19.0.0, SVG Export Plug-In . SVG Version: 6.00 Build 0)  -->
<svg version="1.1" id="Capa_1" xmlns="http://www.w3.org/2000/svg" xmlns:xlink="http://www.w3.org/1999/xlink" x="0px" y="0px"
	 viewBox="0 0 191.148 191.148" style="enable-background:new 0 0 191.148 191.148;" xml:space="preserve">
<path style="fill:#2ABBE9;" d="M176.973,187.735H14.176c-5.943,0-10.762-4.818-10.762-10.762V14.176
	C3.415,8.233,8.233,3.415,14.177,3.415h162.797c5.943,0,10.762,4.818,10.762,10.762v162.797
	C187.735,182.917,182.917,187.735,176.973,187.735z"/>
<path d="M176.973,191.148H14.176C6.359,191.148,0,184.789,0,176.973V14.176C0,6.359,6.359,0,14.176,0h162.797
	c7.817,0,14.176,6.359,14.176,14.176v162.797C191.148,184.789,184.789,191.148,176.973,191.148z M14.177,6.828
	c-4.052,0-7.349,3.297-7.349,7.349v162.797c0,4.052,3.297,7.349,7.349,7.349h162.797c4.052,0,7.349-3.297,7.349-7.349V14.177
	c0-4.052-3.297-7.349-7.349-7.349L14.177,6.828L14.177,6.828z"/>
<rect x="20.482" y="20.482" style="fill:#FBAD4A;" width="30.72" height="30.72"/>
<path d="M54.615,54.615H17.068V17.068h37.547V54.615z M23.895,47.788h23.893V23.895H23.895V47.788z"/>
<path d="M40.962,44.375h-10.24c-1.884,0-3.413-1.529-3.413-3.413v-10.24c0-1.884,1.529-3.413,3.413-3.413h10.24
	c1.884,0,3.413,1.529,3.413,3.413v10.24C44.375,42.846,42.846,44.375,40.962,44.375z M34.135,37.548h3.413v-3.413h-3.413V37.548z"/>
<rect x="20.482" y="64.855" style="fill:#2ABBE9;" width="10.24" height="10.24"/>
<path d="M30.722,78.508h-10.24c-1.884,0-3.413-1.529-3.413-3.413v-10.24c0-1.884,1.529-3.413,3.413-3.413h10.24
	c1.884,0,3.413,1.529,3.413,3.413v10.24C34.135,76.979,32.606,78.508,30.722,78.508z M23.895,71.682h3.413v-3.413h-3.413V71.682z"/>
<rect x="40.962" y="64.855" style="fill:#2ABBE9;" width="10.24" height="10.24"/>
<path d="M51.202,78.508h-10.24c-1.884,0-3.413-1.529-3.413-3.413v-10.24c0-1.884,1.529-3.413,3.413-3.413h10.24
	c1.884,0,3.413,1.529,3.413,3.413v10.24C54.615,76.979,53.086,78.508,51.202,78.508z M44.375,71.682h3.413v-3.413h-3.413V71.682z"/>
<rect x="20.482" y="81.922" style="fill:#2ABBE9;" width="10.24" height="10.24"/>
<path d="M30.722,95.575h-10.24c-1.884,0-3.413-1.529-3.413-3.413v-10.24c0-1.884,1.529-3.413,3.413-3.413h10.24
	c1.884,0,3.413,1.529,3.413,3.413v10.24C34.135,94.046,32.606,95.575,30.722,95.575z M23.895,88.748h3.413v-3.413h-3.413V88.748z"/>
<rect x="37.548" y="98.988" style="fill:#2ABBE9;" width="10.24" height="10.24"/>
<path d="M47.788,112.642h-10.24c-1.884,0-3.413-1.529-3.413-3.413v-10.24c0-1.884,1.529-3.413,3.413-3.413h10.24
	c1.884,0,3.413,1.529,3.413,3.413v10.24C51.202,111.113,49.673,112.642,47.788,112.642z M40.962,105.815h3.413v-3.413h-3.413
	V105.815z"/>
<rect x="139.948" y="20.482" style="fill:#FBAD4A;" width="30.72" height="30.72"/>
<path d="M174.082,54.615h-37.547V17.068h37.547V54.615z M143.362,47.788h23.893V23.895h-23.893V47.788z"/>
<rect x="20.482" y="139.948" style="fill:#FBAD4A;" width="30.72" height="30.72"/>
<path d="M54.615,174.082H17.068v-37.547h37.547V174.082z M23.895,167.255h23.893v-23.893H23.895V167.255z"/>
<rect x="37.548" y="116.055" style="fill:#2ABBE9;" width="10.24" height="10.24"/>
<path d="M47.788,129.708h-10.24c-1.884,0-3.413-1.529-3.413-3.413v-10.24c0-1.884,1.529-3.413,3.413-3.413h10.24
	c1.884,0,3.413,1.529,3.413,3.413v10.24C51.202,128.179,49.673,129.708,47.788,129.708z M40.962,122.882h3.413v-3.413h-3.413
	V122.882z"/>
<rect x="58.028" y="102.402" style="fill:#2ABBE9;" width="10.24" height="10.24"/>
<path d="M68.268,116.055h-10.24c-1.884,0-3.413-1.529-3.413-3.413v-10.24c0-1.884,1.529-3.413,3.413-3.413h10.24
	c1.884,0,3.413,1.529,3.413,3.413v10.24C71.682,114.526,70.153,116.055,68.268,116.055z M61.442,109.228h3.413v-3.413h-3.413
	V109.228z"/>
<rect x="78.508" y="102.402" style="fill:#2ABBE9;" width="10.24" height="10.24"/>
<path d="M88.748,116.055h-10.24c-1.884,0-3.413-1.529-3.413-3.413v-10.24c0-1.884,1.529-3.413,3.413-3.413h10.24
	c1.884,0,3.413,1.529,3.413,3.413v10.24C92.162,114.526,90.633,116.055,88.748,116.055z M81.922,109.228h3.413v-3.413h-3.413
	V109.228z"/>
<rect x="58.028" y="119.468" style="fill:#2ABBE9;" width="10.24" height="10.24"/>
<path d="M68.268,133.122h-10.24c-1.884,0-3.413-1.529-3.413-3.413v-10.24c0-1.884,1.529-3.413,3.413-3.413h10.24
	c1.884,0,3.413,1.529,3.413,3.413v10.24C71.682,131.593,70.153,133.122,68.268,133.122z M61.442,126.295h3.413v-3.413h-3.413
	V126.295z"/>
<rect x="75.095" y="136.535" style="fill:#2ABBE9;" width="10.24" height="10.24"/>
<path d="M85.335,150.188h-10.24c-1.884,0-3.413-1.529-3.413-3.413v-10.24c0-1.884,1.529-3.413,3.413-3.413h10.24
	c1.884,0,3.413,1.529,3.413,3.413v10.24C88.748,148.659,87.219,150.188,85.335,150.188z M78.508,143.362h3.413v-3.413h-3.413
	V143.362z"/>
<rect x="75.095" y="153.602" style="fill:#2ABBE9;" width="10.24" height="10.24"/>
<path d="M85.335,167.255h-10.24c-1.884,0-3.413-1.529-3.413-3.413v-10.24c0-1.884,1.529-3.413,3.413-3.413h10.24
	c1.884,0,3.413,1.529,3.413,3.413v10.24C88.748,165.726,87.219,167.255,85.335,167.255z M78.508,160.428h3.413v-3.413h-3.413
	V160.428z"/>
<rect x="88.748" y="23.895" style="fill:#2ABBE9;" width="10.24" height="10.24"/>
<path d="M98.988,37.548h-10.24c-1.884,0-3.413-1.529-3.413-3.413v-10.24c0-1.884,1.529-3.413,3.413-3.413h10.24
	c1.884,0,3.413,1.529,3.413,3.413v10.24C102.402,36.019,100.873,37.548,98.988,37.548z M92.162,30.722h3.413v-3.413h-3.413V30.722z"
	/>
<rect x="68.268" y="23.895" style="fill:#2ABBE9;" width="10.24" height="10.24"/>
<path d="M78.508,37.548h-10.24c-1.884,0-3.413-1.529-3.413-3.413v-10.24c0-1.884,1.529-3.413,3.413-3.413h10.24
	c1.884,0,3.413,1.529,3.413,3.413v10.24C81.922,36.019,80.393,37.548,78.508,37.548z M71.682,30.722h3.413v-3.413h-3.413V30.722z"/>
<rect x="88.748" y="40.962" style="fill:#2ABBE9;" width="10.24" height="10.24"/>
<path d="M98.988,54.615h-10.24c-1.884,0-3.413-1.529-3.413-3.413v-10.24c0-1.884,1.529-3.413,3.413-3.413h10.24
	c1.884,0,3.413,1.529,3.413,3.413v10.24C102.402,53.086,100.873,54.615,98.988,54.615z M92.162,47.788h3.413v-3.413h-3.413V47.788z"
	/>
<rect x="71.682" y="58.028" style="fill:#2ABBE9;" width="10.24" height="10.24"/>
<path d="M81.922,71.682h-10.24c-1.884,0-3.413-1.529-3.413-3.413v-10.24c0-1.884,1.529-3.413,3.413-3.413h10.24
	c1.884,0,3.413,1.529,3.413,3.413v10.24C85.335,70.153,83.806,71.682,81.922,71.682z M75.095,64.855h3.413v-3.413h-3.413V64.855z"/>
<rect x="71.682" y="75.095" style="fill:#2ABBE9;" width="10.24" height="10.24"/>
<path d="M81.922,88.748h-10.24c-1.884,0-3.413-1.529-3.413-3.413v-10.24c0-1.884,1.529-3.413,3.413-3.413h10.24
	c1.884,0,3.413,1.529,3.413,3.413v10.24C85.335,87.219,83.806,88.748,81.922,88.748z M75.095,81.922h3.413v-3.413h-3.413V81.922z"/>
<rect x="133.122" y="64.855" style="fill:#2ABBE9;" width="10.24" height="10.24"/>
<path d="M143.362,78.508h-10.24c-1.884,0-3.413-1.529-3.413-3.413v-10.24c0-1.884,1.529-3.413,3.413-3.413h10.24
	c1.884,0,3.413,1.529,3.413,3.413v10.24C146.775,76.979,145.246,78.508,143.362,78.508z M136.535,71.682h3.413v-3.413h-3.413V71.682
	z"/>
<rect x="109.228" y="23.895" style="fill:#2ABBE9;" width="10.24" height="10.24"/>
<path d="M119.468,37.548h-10.24c-1.884,0-3.413-1.529-3.413-3.413v-10.24c0-1.884,1.529-3.413,3.413-3.413h10.24
	c1.884,0,3.413,1.529,3.413,3.413v10.24C122.882,36.019,121.353,37.548,119.468,37.548z M112.642,30.722h3.413v-3.413h-3.413V30.722
	z"/>
<rect x="133.122" y="81.922" style="fill:#2ABBE9;" width="10.24" height="10.24"/>
<path d="M143.362,95.575h-10.24c-1.884,0-3.413-1.529-3.413-3.413v-10.24c0-1.884,1.529-3.413,3.413-3.413h10.24
	c1.884,0,3.413,1.529,3.413,3.413v10.24C146.775,94.046,145.246,95.575,143.362,95.575z M136.535,88.748h3.413v-3.413h-3.413V88.748
	z"/>
<rect x="160.428" y="64.855" style="fill:#2ABBE9;" width="10.24" height="10.24"/>
<path d="M170.668,78.508h-10.24c-1.884,0-3.413-1.529-3.413-3.413v-10.24c0-1.884,1.529-3.413,3.413-3.413h10.24
	c1.884,0,3.413,1.529,3.413,3.413v10.24C174.082,76.979,172.553,78.508,170.668,78.508z M163.842,71.682h3.413v-3.413h-3.413V71.682
	z"/>
<rect x="160.428" y="81.922" style="fill:#2ABBE9;" width="10.24" height="10.24"/>
<path d="M170.668,95.575h-10.24c-1.884,0-3.413-1.529-3.413-3.413v-10.24c0-1.884,1.529-3.413,3.413-3.413h10.24
	c1.884,0,3.413,1.529,3.413,3.413v10.24C174.082,94.046,172.553,95.575,170.668,95.575z M163.842,88.748h3.413v-3.413h-3.413V88.748
	z"/>
<rect x="112.642" y="58.028" style="fill:#2ABBE9;" width="10.24" height="10.24"/>
<path d="M122.882,71.682h-10.24c-1.884,0-3.413-1.529-3.413-3.413v-10.24c0-1.884,1.529-3.413,3.413-3.413h10.24
	c1.884,0,3.413,1.529,3.413,3.413v10.24C126.295,70.153,124.766,71.682,122.882,71.682z M116.055,64.855h3.413v-3.413h-3.413V64.855
	z"/>
<rect x="112.642" y="75.095" style="fill:#2ABBE9;" width="10.24" height="10.24"/>
<path d="M122.882,88.748h-10.24c-1.884,0-3.413-1.529-3.413-3.413v-10.24c0-1.884,1.529-3.413,3.413-3.413h10.24
	c1.884,0,3.413,1.529,3.413,3.413v10.24C126.295,87.219,124.766,88.748,122.882,88.748z M116.055,81.922h3.413v-3.413h-3.413V81.922
	z"/>
<rect x="143.362" y="112.642" style="fill:#2ABBE9;" width="10.24" height="10.24"/>
<path d="M153.602,126.295h-10.24c-1.884,0-3.413-1.529-3.413-3.413v-10.24c0-1.884,1.529-3.413,3.413-3.413h10.24
	c1.884,0,3.413,1.529,3.413,3.413v10.24C157.015,124.766,155.486,126.295,153.602,126.295z M146.775,119.468h3.413v-3.413h-3.413
	V119.468z"/>
<rect x="160.428" y="112.642" style="fill:#2ABBE9;" width="10.24" height="10.24"/>
<path d="M170.668,126.295h-10.24c-1.884,0-3.413-1.529-3.413-3.413v-10.24c0-1.884,1.529-3.413,3.413-3.413h10.24
	c1.884,0,3.413,1.529,3.413,3.413v10.24C174.082,124.766,172.553,126.295,170.668,126.295z M163.842,119.468h3.413v-3.413h-3.413
	V119.468z"/>
<rect x="143.362" y="129.708" style="fill:#2ABBE9;" width="10.24" height="10.24"/>
<path d="M153.602,143.362h-10.24c-1.884,0-3.413-1.529-3.413-3.413v-10.24c0-1.884,1.529-3.413,3.413-3.413h10.24
	c1.884,0,3.413,1.529,3.413,3.413v10.24C157.015,141.833,155.486,143.362,153.602,143.362z M146.775,136.535h3.413v-3.413h-3.413
	V136.535z"/>
<rect x="160.428" y="139.948" style="fill:#2ABBE9;" width="10.24" height="10.24"/>
<path d="M170.668,153.602h-10.24c-1.884,0-3.413-1.529-3.413-3.413v-10.24c0-1.884,1.529-3.413,3.413-3.413h10.24
	c1.884,0,3.413,1.529,3.413,3.413v10.24C174.082,152.073,172.553,153.602,170.668,153.602z M163.842,146.775h3.413v-3.413h-3.413
	V146.775z"/>
<rect x="160.428" y="157.015" style="fill:#2ABBE9;" width="10.24" height="10.24"/>
<path d="M170.668,170.668h-10.24c-1.884,0-3.413-1.529-3.413-3.413v-10.24c0-1.884,1.529-3.413,3.413-3.413h10.24
	c1.884,0,3.413,1.529,3.413,3.413v10.24C174.082,169.139,172.553,170.668,170.668,170.668z M163.842,163.842h3.413v-3.413h-3.413
	V163.842z"/>
<rect x="102.402" y="157.015" style="fill:#2ABBE9;" width="10.24" height="10.24"/>
<path d="M112.642,170.668h-10.24c-1.884,0-3.413-1.529-3.413-3.413v-10.24c0-1.884,1.529-3.413,3.413-3.413h10.24
	c1.884,0,3.413,1.529,3.413,3.413v10.24C116.055,169.139,114.526,170.668,112.642,170.668z M105.815,163.842h3.413v-3.413h-3.413
	V163.842z"/>
<rect x="122.882" y="157.015" style="fill:#2ABBE9;" width="10.24" height="10.24"/>
<path d="M133.122,170.668h-10.24c-1.884,0-3.413-1.529-3.413-3.413v-10.24c0-1.884,1.529-3.413,3.413-3.413h10.24
	c1.884,0,3.413,1.529,3.413,3.413v10.24C136.535,169.139,135.006,170.668,133.122,170.668z M126.295,163.842h3.413v-3.413h-3.413
	V163.842z"/>
<rect x="102.402" y="139.948" style="fill:#2ABBE9;" width="10.24" height="10.24"/>
<path d="M112.642,153.602h-10.24c-1.884,0-3.413-1.529-3.413-3.413v-10.24c0-1.884,1.529-3.413,3.413-3.413h10.24
	c1.884,0,3.413,1.529,3.413,3.413v10.24C116.055,152.073,114.526,153.602,112.642,153.602z M105.815,146.775h3.413v-3.413h-3.413
	V146.775z"/>
<rect x="119.468" y="122.882" style="fill:#2ABBE9;" width="10.24" height="10.24"/>
<path d="M129.708,136.535h-10.24c-1.884,0-3.413-1.529-3.413-3.413v-10.24c0-1.884,1.529-3.413,3.413-3.413h10.24
	c1.884,0,3.413,1.529,3.413,3.413v10.24C133.122,135.006,131.593,136.535,129.708,136.535z M122.882,129.708h3.413v-3.413h-3.413
	V129.708z"/>
<rect x="119.468" y="105.815" style="fill:#2ABBE9;" width="10.24" height="10.24"/>
<path d="M129.708,119.468h-10.24c-1.884,0-3.413-1.529-3.413-3.413v-10.24c0-1.884,1.529-3.413,3.413-3.413h10.24
	c1.884,0,3.413,1.529,3.413,3.413v10.24C133.122,117.939,131.593,119.468,129.708,119.468z M122.882,112.642h3.413v-3.413h-3.413
	V112.642z"/>
<g>
</g>
<g>
</g>
<g>
</g>
<g>
</g>
<g>
</g>
<g>
</g>
<g>
</g>
<g>
</g>
<g>
</g>
<g>
</g>
<g>
</g>
<g>
</g>
<g>
</g>
<g>
</g>
<g>
</g>
</svg>
