<?xml version="1.0" encoding="iso-8859-1"?>
<!-- Generator: Adobe Illustrator 19.0.0, SVG Export Plug-In . SVG Version: 6.00 Build 0)  -->
<svg version="1.1" id="Capa_1" xmlns="http://www.w3.org/2000/svg" xmlns:xlink="http://www.w3.org/1999/xlink" x="0px" y="0px"
	 viewBox="0 0 212.528 212.528" style="enable-background:new 0 0 212.528 212.528;" xml:space="preserve">
<polygon style="fill:#83D816;" points="181.357,170.667 31.171,170.667 14.104,61.44 198.424,61.44 "/>
<path d="M181.357,174.08H31.171c-1.681,0-3.113-1.225-3.372-2.886L10.732,61.967c-0.155-0.985,0.13-1.988,0.778-2.746
	c0.649-0.756,1.597-1.193,2.594-1.193h184.32c0.997,0,1.946,0.437,2.594,1.193c0.649,0.758,0.934,1.761,0.778,2.746L184.73,171.194
	C184.47,172.856,183.038,174.08,181.357,174.08z M34.092,167.253h144.343l16-102.4H18.092L34.092,167.253z"/>
<path d="M171.117,153.6c-1.884,0-3.413-1.529-3.413-3.413V81.92h-10.24v68.267c0,1.884-1.529,3.413-3.413,3.413
	s-3.413-1.529-3.413-3.413v-71.68c0-1.884,1.529-3.413,3.413-3.413h17.067c1.884,0,3.413,1.529,3.413,3.413v71.68
	C174.531,152.073,173.001,153.6,171.117,153.6z"/>
<path d="M133.571,153.6c-1.884,0-3.413-1.529-3.413-3.413V81.92h-10.24v68.267c0,1.884-1.529,3.413-3.413,3.413
	c-1.884,0-3.413-1.529-3.413-3.413v-71.68c0-1.884,1.529-3.413,3.413-3.413h17.067c1.884,0,3.413,1.529,3.413,3.413v71.68
	C136.984,152.073,135.455,153.6,133.571,153.6z"/>
<path d="M96.024,153.6c-1.884,0-3.413-1.529-3.413-3.413V81.92h-10.24v68.267c0,1.884-1.529,3.413-3.413,3.413
	c-1.884,0-3.413-1.529-3.413-3.413v-71.68c0-1.884,1.529-3.413,3.413-3.413h17.067c1.884,0,3.413,1.529,3.413,3.413v71.68
	C99.437,152.073,97.908,153.6,96.024,153.6z"/>
<path d="M58.477,153.6c-1.884,0-3.413-1.529-3.413-3.413V81.92h-10.24v68.267c0,1.884-1.529,3.413-3.413,3.413
	c-1.884,0-3.413-1.529-3.413-3.413v-71.68c0-1.884,1.529-3.413,3.413-3.413h17.067c1.884,0,3.413,1.529,3.413,3.413v71.68
	C61.891,152.073,60.361,153.6,58.477,153.6z"/>
<path style="fill:#F97DA3;" d="M37.031,117.081l84.907,84.907l17.816-17.816L54.847,99.265c-4.92-4.92-12.896-4.92-17.816,0l0,0
	C32.111,104.183,32.111,112.16,37.031,117.081z"/>
<path d="M121.94,205.401c-0.905,0-1.773-0.36-2.413-1L34.62,119.494c-6.243-6.243-6.243-16.399,0-22.644
	c3.023-3.024,7.043-4.69,11.32-4.69s8.298,1.666,11.322,4.69l84.907,84.907c1.333,1.333,1.333,3.494,0,4.826l-17.814,17.816
	C123.713,205.041,122.844,205.401,121.94,205.401z M45.938,98.987c-2.454,0-4.758,0.956-6.494,2.69
	c-3.582,3.582-3.582,9.409,0,12.989l82.493,82.493l12.988-12.989l-82.493-82.493C50.698,99.942,48.393,98.987,45.938,98.987z"/>
<polygon style="fill:#99783D;" points="146.881,209.113 121.938,201.987 139.754,184.17 "/>
<path d="M146.881,212.528c-0.314,0-0.628-0.043-0.939-0.131l-24.941-7.127c-1.162-0.331-2.062-1.254-2.367-2.425
	c-0.304-1.172,0.036-2.415,0.891-3.27l17.814-17.816c0.855-0.855,2.098-1.195,3.27-0.891c1.171,0.304,2.094,1.205,2.425,2.367
	l7.127,24.943c0.341,1.193,0.009,2.475-0.869,3.352C148.646,212.178,147.772,212.528,146.881,212.528z M128.454,200.3l13.457,3.845
	l-3.845-13.459L128.454,200.3z"/>
<path d="M121.94,191.147c-0.874,0-1.746-0.333-2.413-1l-76-75.998c-1.333-1.333-1.333-3.494,0-4.826
	c1.333-1.333,3.494-1.333,4.826,0l76,75.998c1.333,1.333,1.333,3.494,0,4.826C123.686,190.814,122.812,191.147,121.94,191.147z"/>
<rect x="3.864" y="44.38" style="fill:#83D816;" width="204.8" height="17.067"/>
<path d="M208.664,64.853H3.864c-1.884,0-3.413-1.529-3.413-3.413V44.373c0-1.884,1.529-3.413,3.413-3.413h204.8
	c1.884,0,3.413,1.529,3.413,3.413V61.44C212.077,63.326,210.548,64.853,208.664,64.853z M7.277,58.027h197.973v-10.24H7.277V58.027z
	"/>
<rect x="96.024" y="3.42" style="fill:#777777;" width="20.48" height="58.027"/>
<path d="M116.504,64.853h-20.48c-1.884,0-3.413-1.529-3.413-3.413V3.413C92.611,1.529,94.14,0,96.024,0h20.48
	c1.884,0,3.413,1.529,3.413,3.413V61.44C119.917,63.326,118.388,64.853,116.504,64.853z M99.437,58.027h13.653v-51.2H99.437V58.027z
	"/>
<g>
</g>
<g>
</g>
<g>
</g>
<g>
</g>
<g>
</g>
<g>
</g>
<g>
</g>
<g>
</g>
<g>
</g>
<g>
</g>
<g>
</g>
<g>
</g>
<g>
</g>
<g>
</g>
<g>
</g>
</svg>
