<?xml version="1.0" encoding="iso-8859-1"?>
<!-- Generator: Adobe Illustrator 19.0.0, SVG Export Plug-In . SVG Version: 6.00 Build 0)  -->
<svg version="1.1" id="Capa_1" xmlns="http://www.w3.org/2000/svg" xmlns:xlink="http://www.w3.org/1999/xlink" x="0px" y="0px"
	 viewBox="0 0 211.686 211.686" style="enable-background:new 0 0 211.686 211.686;" xml:space="preserve">
<path style="fill:#FBAD4A;" d="M113.132,117.79H9.866c-3.531,0-6.393-2.862-6.393-6.393V49.09c0-3.531,2.862-6.393,6.393-6.393
	h103.267c3.531,0,6.393,2.862,6.393,6.393v62.307C119.526,114.928,116.663,117.79,113.132,117.79z"/>
<path d="M113.132,121.263H9.866c-5.441,0-9.866-4.427-9.866-9.866V49.09c0-5.441,4.427-9.866,9.866-9.866h103.267
	c5.441,0,9.866,4.427,9.866,9.866v62.307C122.999,116.836,118.572,121.263,113.132,121.263z M9.866,46.17
	c-1.609,0-2.92,1.311-2.92,2.92v62.307c0,1.609,1.311,2.92,2.92,2.92h103.267c1.609,0,2.92-1.311,2.92-2.92V49.09
	c0-1.609-1.311-2.92-2.92-2.92H9.866z"/>
<rect x="3.476" y="59.763" style="fill:#DDDDDD;" width="116.053" height="20.48"/>
<path d="M119.526,83.716H3.473C1.555,83.716,0,82.162,0,80.243v-20.48c0-1.918,1.555-3.473,3.473-3.473h116.053
	c1.918,0,3.473,1.555,3.473,3.473v20.48C122.999,82.161,121.445,83.716,119.526,83.716z M6.946,76.77h109.107V63.236H6.946V76.77z"
	/>
<circle style="fill:#FEDA4F;" cx="174.143" cy="52.937" r="34.133"/>
<path d="M174.14,90.483c-20.704,0-37.547-16.843-37.547-37.547S153.436,15.39,174.14,15.39s37.547,16.843,37.547,37.547
	S194.842,90.483,174.14,90.483z M174.14,22.217c-16.939,0-30.72,13.781-30.72,30.72s13.781,30.72,30.72,30.72
	s30.72-13.781,30.72-30.72S191.077,22.217,174.14,22.217z"/>
<path style="fill:#FBAD4A;" d="M199.74,104.137h-51.2c-4.693,0-8.533-3.84-8.533-8.533l0,0c0-4.693,3.84-8.533,8.533-8.533h51.2
	c4.693,0,8.533,3.84,8.533,8.533l0,0C208.273,100.297,204.433,104.137,199.74,104.137z"/>
<path d="M199.74,107.55h-51.2c-6.586,0-11.947-5.361-11.947-11.947c0-6.586,5.361-11.947,11.947-11.947h51.2
	c6.586,0,11.947,5.361,11.947,11.947C211.686,102.189,206.326,107.55,199.74,107.55z M148.54,90.483c-2.823,0-5.12,2.297-5.12,5.12
	s2.297,5.12,5.12,5.12h51.2c2.823,0,5.12-2.297,5.12-5.12s-2.297-5.12-5.12-5.12H148.54z"/>
<path style="fill:#FBAD4A;" d="M199.74,138.27h-51.2c-4.693,0-8.533-3.84-8.533-8.533l0,0c0-4.693,3.84-8.533,8.533-8.533h51.2
	c4.693,0,8.533,3.84,8.533,8.533l0,0C208.273,134.43,204.433,138.27,199.74,138.27z"/>
<path d="M199.74,141.683h-51.2c-6.586,0-11.947-5.361-11.947-11.947c0-6.586,5.361-11.947,11.947-11.947h51.2
	c6.586,0,11.947,5.361,11.947,11.947C211.686,136.323,206.326,141.683,199.74,141.683z M148.54,124.617
	c-2.823,0-5.12,2.297-5.12,5.12c0,2.823,2.297,5.12,5.12,5.12h51.2c2.823,0,5.12-2.297,5.12-5.12c0-2.823-2.297-5.12-5.12-5.12
	H148.54z"/>
<path style="fill:#FEDA4F;" d="M199.74,121.203h-51.2c-4.693,0-8.533-3.84-8.533-8.533l0,0c0-4.693,3.84-8.533,8.533-8.533h51.2
	c4.693,0,8.533,3.84,8.533,8.533l0,0C208.273,117.363,204.433,121.203,199.74,121.203z"/>
<path d="M199.74,124.617h-51.2c-6.586,0-11.947-5.361-11.947-11.947c0-6.586,5.361-11.947,11.947-11.947h51.2
	c6.586,0,11.947,5.361,11.947,11.947C211.686,119.256,206.326,124.617,199.74,124.617z M148.54,107.55
	c-2.823,0-5.12,2.297-5.12,5.12c0,2.823,2.297,5.12,5.12,5.12h51.2c2.823,0,5.12-2.297,5.12-5.12c0-2.823-2.297-5.12-5.12-5.12
	H148.54z"/>
<path d="M172.331,74.406v-5.17c-2.97-0.053-6.042-0.973-7.834-2.253l1.229-3.43c1.843,1.227,4.506,2.2,7.371,2.2
	c3.635,0,6.093-2.099,6.093-5.016c0-2.816-1.997-4.557-5.786-6.093c-5.224-2.046-8.448-4.403-8.448-8.856
	c0-4.25,3.023-7.473,7.731-8.243v-5.169h3.173v4.966c3.072,0.101,5.171,0.92,6.656,1.79l-1.28,3.379
	c-1.075-0.613-3.174-1.741-6.451-1.741c-3.942,0-5.427,2.353-5.427,4.403c0,2.661,1.894,3.994,6.349,5.837
	c5.274,2.15,7.936,4.809,7.936,9.366c0,4.047-2.816,7.834-8.09,8.707v5.323h-3.222V74.406z"/>
<rect x="61.503" y="97.31" style="fill:#85D839;" width="109.227" height="81.92"/>
<path d="M170.726,182.643H61.5c-1.884,0-3.413-1.529-3.413-3.413V97.31c0-1.884,1.529-3.413,3.413-3.413h109.227
	c1.884,0,3.413,1.529,3.413,3.413v81.92C174.14,181.114,172.611,182.643,170.726,182.643z M64.913,175.817h102.4v-75.093h-102.4
	L64.913,175.817L64.913,175.817z"/>
<path style="fill:#9DFB46;" d="M61.5,165.577c15.082,0,27.307-12.225,27.307-27.307c0-15.082-12.225-27.307-27.307-27.307
	L61.5,165.577L61.5,165.577z"/>
<path d="M61.5,168.99h-3.413v-61.44H61.5c16.939,0,30.72,13.781,30.72,30.72S78.437,168.99,61.5,168.99z M64.913,114.621v47.3
	c11.563-1.662,20.48-11.633,20.48-23.649S76.476,116.281,64.913,114.621z"/>
<path style="fill:#85D839;" d="M150.246,97.31c0,11.31,9.17,20.48,20.48,20.48"/>
<path d="M170.726,121.203c-13.175,0-23.893-10.718-23.893-23.893c0-1.884,1.529-3.413,3.413-3.413c1.884,0,3.413,1.529,3.413,3.413
	c0,9.411,7.656,17.067,17.067,17.067c1.884,0,3.413,1.529,3.413,3.413C174.14,119.674,172.611,121.203,170.726,121.203z"/>
<path style="fill:#85D839;" d="M150.246,179.23c0-11.31,9.17-20.48,20.48-20.48"/>
<path d="M150.246,182.643c-1.884,0-3.413-1.529-3.413-3.413c0-13.175,10.718-23.893,23.893-23.893c1.884,0,3.413,1.529,3.413,3.413
	c0,1.884-1.529,3.413-3.413,3.413c-9.411,0-17.067,7.656-17.067,17.067C153.66,181.114,152.131,182.643,150.246,182.643z"/>
<polygon style="fill:#85D839;" points="163.9,192.883 163.9,179.23 61.5,179.23 "/>
<path d="M163.9,196.297c-0.15,0-0.3-0.01-0.452-0.031l-102.4-13.653c-1.782-0.237-3.074-1.816-2.954-3.61
	c0.119-1.794,1.609-3.186,3.407-3.186h102.4c1.884,0,3.413,1.529,3.413,3.413v13.653c0,0.983-0.425,1.92-1.166,2.569
	C165.521,196,164.721,196.297,163.9,196.297z M112.925,182.643l47.56,6.342v-6.342H112.925z"/>
<g>
</g>
<g>
</g>
<g>
</g>
<g>
</g>
<g>
</g>
<g>
</g>
<g>
</g>
<g>
</g>
<g>
</g>
<g>
</g>
<g>
</g>
<g>
</g>
<g>
</g>
<g>
</g>
<g>
</g>
</svg>
