<?xml version="1.0" encoding="iso-8859-1"?>
<!-- Generator: Adobe Illustrator 19.0.0, SVG Export Plug-In . SVG Version: 6.00 Build 0)  -->
<svg version="1.1" id="Capa_1" xmlns="http://www.w3.org/2000/svg" xmlns:xlink="http://www.w3.org/1999/xlink" x="0px" y="0px"
	 viewBox="0 0 204.8 204.8" style="enable-background:new 0 0 204.8 204.8;" xml:space="preserve">
<polygon style="fill:#ED5481;" points="59.282,177.493 34.195,177.493 51.262,30.72 "/>
<path d="M59.282,181.031H34.195c-1.009,0-1.971-0.432-2.642-1.184c-0.671-0.754-0.988-1.758-0.872-2.761L47.748,30.312
	c0.213-1.824,1.823-3.14,3.622-3.128c1.836,0.056,3.323,1.509,3.424,3.342l8.02,146.773c0.053,0.971-0.295,1.92-0.963,2.625
	C61.183,180.63,60.253,181.031,59.282,181.031z M38.169,173.955h17.377L49.991,72.281L38.169,173.955z"/>
<polygon style="fill:#ED5481;" points="170.729,201.387 51.262,201.387 34.195,177.493 170.729,177.493 "/>
<path d="M170.729,204.242H51.262c-0.923,0-1.787-0.445-2.324-1.196l-17.067-23.893c-0.621-0.87-0.705-2.016-0.215-2.966
	c0.49-0.952,1.469-1.55,2.54-1.55h136.533c1.577,0,2.855,1.278,2.855,2.855v23.893C173.584,202.964,172.306,204.242,170.729,204.242
	z M52.733,198.531h115.142V180.35H39.746L52.733,198.531z"/>
<rect x="51.269" y="30.72" style="fill:#FBAD4A;" width="119.467" height="170.667"/>
<path d="M170.729,204.8H51.262c-1.884,0-3.413-1.529-3.413-3.413V30.72c0-1.884,1.529-3.413,3.413-3.413h119.467
	c1.884,0,3.413,1.529,3.413,3.413v170.667C174.142,203.271,172.615,204.8,170.729,204.8z M54.675,197.973h112.64V34.133H54.675
	L54.675,197.973L54.675,197.973z"/>
<path d="M140.009,61.44c-1.884,0-3.413-1.529-3.413-3.413V30.72c0-13.175-10.718-23.893-23.893-23.893S88.809,17.545,88.809,30.72
	v27.307c0,1.884-1.529,3.413-3.413,3.413c-1.884,0-3.413-1.529-3.413-3.413V30.72C81.982,13.781,95.763,0,112.702,0
	s30.72,13.781,30.72,30.72v27.307C143.422,59.911,141.895,61.44,140.009,61.44z"/>
<g>
</g>
<g>
</g>
<g>
</g>
<g>
</g>
<g>
</g>
<g>
</g>
<g>
</g>
<g>
</g>
<g>
</g>
<g>
</g>
<g>
</g>
<g>
</g>
<g>
</g>
<g>
</g>
<g>
</g>
</svg>
