<?xml version="1.0" encoding="iso-8859-1"?>
<!-- Generator: Adobe Illustrator 19.0.0, SVG Export Plug-In . SVG Version: 6.00 Build 0)  -->
<svg version="1.1" id="Capa_1" xmlns="http://www.w3.org/2000/svg" xmlns:xlink="http://www.w3.org/1999/xlink" x="0px" y="0px"
	 viewBox="0 0 211.877 211.877" style="enable-background:new 0 0 211.877 211.877;" xml:space="preserve">
<path style="fill:#FBAD4A;" d="M113.09,21.273l5.494-12.634c3.389-7.793,15.029-5.32,14.954,3.18l-0.119,13.778
	c-0.06,6.82,8.044,10.426,13.071,5.82l10.158-9.308c6.265-5.741,15.892,1.253,12.368,8.987l-5.714,12.537
	c-2.828,6.205,3.106,12.797,9.574,10.633l13.066-4.372c8.059-2.697,14.008,7.61,7.644,13.24l-10.319,9.129
	c-5.108,4.519-2.367,12.954,4.422,13.607l13.715,1.321c8.458,0.814,9.702,12.65,1.597,15.205l-13.14,4.144
	c-6.504,2.051-7.431,10.871-1.495,14.23l11.991,6.784c7.397,4.185,3.719,15.502-4.724,14.541l-13.689-1.56
	c-6.775-0.771-11.209,6.909-7.154,12.39L182.986,164c5.055,6.832-2.908,15.674-10.23,11.361l-11.872-6.992
	c-5.876-3.461-13.051,1.753-11.575,8.41l2.982,13.452c1.84,8.296-9.032,13.136-13.967,6.219l-8.001-11.216
	c-3.959-5.552-12.636-3.707-13.995,2.975l-2.748,13.501c-1.695,8.327-13.594,8.327-15.288,0l-2.748-13.501
	c-1.36-6.682-10.035-8.527-13.995-2.975l-8.001,11.216c-4.936,6.919-15.805,2.079-13.967-6.219l2.982-13.452
	c1.476-6.658-5.7-11.872-11.575-8.41l-11.872,6.992c-7.322,4.313-15.285-4.531-10.23-11.361l8.195-11.076
	c4.057-5.482-0.379-13.164-7.154-12.39l-13.689,1.56c-8.443,0.963-12.121-10.356-4.724-14.541l11.991-6.784
	c5.936-3.359,5.007-12.179-1.495-14.23l-13.14-4.144c-8.105-2.555-6.861-14.391,1.597-15.205l13.715-1.321
	c6.787-0.654,9.528-9.09,4.422-13.607l-10.319-9.129c-6.364-5.63-0.415-15.937,7.644-13.24l13.066,4.372
	c6.467,2.164,12.402-4.427,9.574-10.633l-5.714-12.537c-3.524-7.733,6.103-14.727,12.368-8.987l10.158,9.308
	c5.028,4.606,13.131,1,13.071-5.82l-0.119-13.778C78.263,3.32,89.903,0.846,93.291,8.638l5.494,12.634
	C101.501,27.526,110.369,27.526,113.09,21.273z"/>
<path d="M105.935,211.366c-5.48,0-9.897-3.608-10.989-8.977L92.2,188.886c-0.358-1.765-1.625-3.041-3.386-3.417
	c-1.765-0.374-3.439,0.276-4.485,1.743l-8.001,11.216c-3.183,4.463-8.684,5.963-13.689,3.734c-5.007-2.229-7.574-7.322-6.388-12.672
	l2.983-13.452c0.391-1.76-0.249-3.442-1.705-4.5c-1.457-1.06-3.255-1.145-4.806-0.23l-11.872,6.994
	c-4.721,2.78-10.361,1.91-14.025-2.162c-3.666-4.074-3.941-9.769-0.679-14.172l8.195-11.076c1.072-1.449,1.174-3.244,0.273-4.803
	c-0.901-1.562-2.514-2.369-4.297-2.166l-13.689,1.56c-5.453,0.613-10.24-2.464-11.935-7.677c-1.693-5.212,0.374-10.527,5.142-13.227
	l11.994-6.786c1.567-0.887,2.389-2.485,2.202-4.275c-0.188-1.792-1.326-3.185-3.045-3.727l-13.14-4.144
	c-5.226-1.649-8.354-6.417-7.781-11.868c0.572-5.449,4.623-9.463,10.078-9.989l13.715-1.321c1.792-0.172,3.195-1.299,3.751-3.012
	c0.556-1.713,0.084-3.449-1.266-4.642l-10.319-9.131c-4.105-3.632-5.021-9.26-2.282-14.007s8.073-6.772,13.271-5.028l13.065,4.372
	c1.703,0.568,3.446,0.114,4.654-1.225c1.205-1.338,1.478-3.116,0.732-4.756l-5.714-12.537c-2.272-4.985-0.821-10.501,3.611-13.722
	c4.437-3.222,10.131-2.898,14.169,0.804l10.16,9.308c1.328,1.219,3.103,1.504,4.748,0.775c1.645-0.732,2.618-2.246,2.601-4.047
	l-0.119-13.778c-0.046-5.48,3.523-9.928,8.883-11.068c5.366-1.138,10.429,1.471,12.616,6.497l5.495,12.636
	c0.719,1.652,2.222,2.637,4.023,2.637s3.306-0.986,4.023-2.637l5.495-12.636c2.185-5.026,7.253-7.637,12.616-6.497
	c5.361,1.138,8.929,5.586,8.883,11.066l-0.119,13.778c-0.017,1.801,0.957,3.314,2.601,4.047c1.645,0.73,3.422,0.444,4.748-0.775
	l10.158-9.308c4.04-3.702,9.735-4.026,14.17-0.804c4.434,3.22,5.883,8.736,3.611,13.723l-5.714,12.537
	c-0.748,1.638-0.473,3.417,0.732,4.756c1.205,1.34,2.949,1.799,4.654,1.225l13.065-4.372c5.197-1.743,10.53,0.282,13.271,5.028
	c2.739,4.746,1.823,10.375-2.282,14.007l-10.319,9.131c-1.35,1.193-1.823,2.929-1.266,4.642c0.556,1.713,1.959,2.84,3.751,3.012
	l13.715,1.321c5.454,0.526,9.506,4.54,10.078,9.989c0.573,5.451-2.553,10.22-7.781,11.868l-13.14,4.144
	c-1.719,0.543-2.857,1.935-3.045,3.727c-0.188,1.79,0.635,3.389,2.202,4.275l11.993,6.786c4.77,2.7,6.837,8.015,5.144,13.227
	c-1.695,5.214-6.501,8.293-11.935,7.677l-13.689-1.56c-1.799-0.203-3.396,0.606-4.297,2.166c-0.901,1.56-0.799,3.355,0.273,4.803
	l8.195,11.078c3.26,4.403,2.987,10.098-0.679,14.172c-3.664,4.072-9.301,4.943-14.025,2.162l-11.872-6.994
	c-1.551-0.915-3.348-0.829-4.806,0.23c-1.458,1.058-2.096,2.739-1.705,4.5l2.982,13.452c1.186,5.35-1.381,10.443-6.386,12.672
	c-5.007,2.231-10.508,0.73-13.689-3.734l-8.001-11.216c-1.046-1.466-2.719-2.116-4.485-1.743c-1.761,0.375-3.028,1.652-3.386,3.417
	l-2.746,13.501C115.832,207.759,111.415,211.366,105.935,211.366z M87.824,178.537c0.794,0,1.601,0.084,2.406,0.254
	c4.437,0.944,7.753,4.291,8.658,8.735l2.746,13.501c0.527,2.589,2.567,3.512,4.301,3.512s3.773-0.923,4.301-3.514l2.746-13.5
	c0.905-4.444,4.222-7.791,8.658-8.735c4.439-0.942,8.829,0.768,11.46,4.458l8.001,11.216c1.536,2.152,3.777,2.164,5.357,1.459
	c1.584-0.705,3.072-2.377,2.5-4.958l-2.982-13.452c-0.983-4.427,0.686-8.834,4.355-11.5c3.668-2.666,8.376-2.891,12.283-0.59
	l11.872,6.994c2.277,1.341,4.328,0.442,5.489-0.845c1.161-1.289,1.838-3.422,0.266-5.545l-8.195-11.076
	c-2.698-3.645-2.964-8.349-0.698-12.276c2.27-3.929,6.484-6.047,10.982-5.536l13.689,1.56c2.609,0.294,4.134-1.355,4.668-3.002
	c0.536-1.649,0.288-3.874-2.012-5.175l-11.991-6.786c-3.946-2.232-6.105-6.42-5.63-10.931c0.473-4.511,3.454-8.16,7.781-9.525
	l13.14-4.144c2.522-0.795,3.227-2.92,3.045-4.644s-1.314-3.656-3.944-3.908l-13.715-1.321c-4.516-0.433-8.189-3.384-9.59-7.697
	c-1.401-4.313-0.162-8.859,3.236-11.865l10.319-9.131c1.98-1.751,1.758-3.978,0.893-5.478c-0.865-1.5-2.686-2.802-5.193-1.968
	l-13.065,4.372c-4.308,1.439-8.859,0.239-11.894-3.13c-3.034-3.369-3.751-8.026-1.872-12.155l5.714-12.537
	c1.097-2.406-0.01-4.35-1.411-5.369c-1.401-1.019-3.593-1.473-5.545,0.314l-10.156,9.308c-3.347,3.063-7.996,3.821-12.138,1.976
	c-4.142-1.845-6.692-5.808-6.651-10.342l0.119-13.778c0.024-2.644-1.78-3.97-3.476-4.33c-1.693-0.358-3.879,0.116-4.936,2.541
	l-5.495,12.636c-1.809,4.159-5.748,6.743-10.283,6.743c-4.535,0-8.475-2.584-10.283-6.743L90.157,9.997
	c-1.055-2.423-3.241-2.9-4.936-2.541c-1.696,0.36-3.5,1.686-3.476,4.332l0.119,13.776c0.039,4.535-2.509,8.497-6.651,10.342
	c-4.14,1.845-8.791,1.087-12.138-1.976l-10.158-9.308c-1.949-1.787-4.142-1.333-5.543-0.314c-1.401,1.019-2.509,2.963-1.411,5.369
	l5.714,12.537c1.881,4.128,1.162,8.784-1.874,12.155c-3.031,3.369-7.586,4.57-11.892,3.13l-13.065-4.372
	c-2.502-0.835-4.323,0.466-5.193,1.968c-0.865,1.5-1.087,3.729,0.893,5.478l10.319,9.131c3.396,3.005,4.637,7.55,3.236,11.865
	s-5.076,7.264-9.59,7.697l-13.715,1.321c-2.63,0.253-3.761,2.185-3.944,3.908c-0.183,1.724,0.524,3.849,3.045,4.644l13.14,4.144
	c4.325,1.364,7.306,5.014,7.781,9.525c0.474,4.511-1.683,8.699-5.63,10.931l-11.993,6.786c-2.299,1.302-2.546,3.526-2.01,5.175
	c0.534,1.649,2.033,3.308,4.668,3.002l13.689-1.56c4.516-0.515,8.713,1.608,10.982,5.536c2.266,3.927,2,8.632-0.698,12.278
	l-8.195,11.076c-1.572,2.123-0.893,4.256,0.266,5.545c1.159,1.287,3.214,2.186,5.489,0.845l11.872-6.994
	c3.907-2.302,8.614-2.075,12.283,0.59c3.668,2.666,5.338,7.074,4.355,11.5l-2.982,13.452c-0.572,2.582,0.916,4.253,2.5,4.958
	c1.582,0.705,3.821,0.691,5.357-1.459l8.001-11.216C80.924,180.23,84.256,178.537,87.824,178.537z"/>
<path style="fill:#FEDA38;" d="M104.229,38.07c-37.702,0-68.267,30.565-68.267,68.267s30.565,68.267,68.267,68.267
	s68.267-30.565,68.267-68.267S141.931,38.07,104.229,38.07z M104.229,164.363c-32.048,0-58.027-25.979-58.027-58.027
	S72.181,48.31,104.229,48.31s58.027,25.979,58.027,58.027S136.276,164.363,104.229,164.363z"/>
<path d="M104.229,178.016c-39.525,0-71.68-32.155-71.68-71.68s32.155-71.68,71.68-71.68s71.68,32.155,71.68,71.68
	S143.753,178.016,104.229,178.016z M104.229,41.483c-35.76,0-64.853,29.094-64.853,64.853s29.094,64.853,64.853,64.853
	s64.853-29.094,64.853-64.853S139.988,41.483,104.229,41.483z M104.229,167.776c-33.879,0-61.44-27.561-61.44-61.44
	s27.561-61.44,61.44-61.44s61.44,27.561,61.44,61.44S138.108,167.776,104.229,167.776z M104.229,51.723
	c-30.114,0-54.613,24.499-54.613,54.613s24.499,54.613,54.613,54.613s54.613-24.499,54.613-54.613S134.343,51.723,104.229,51.723z"
	/>
<path d="M84.442,121.737h-5.99l-14.7-23.817h-0.164l0.104,1.326c0.189,2.536,0.287,4.854,0.287,6.953v15.537h-4.437V91.847h5.927
	l14.66,23.697h0.123c-0.027-0.314-0.084-1.457-0.164-3.427c-0.084-1.97-0.123-3.507-0.123-4.61v-15.66h4.477L84.442,121.737
	L84.442,121.737z"/>
<path d="M109.243,121.737H92.337V91.847h16.906v4.13h-12.02v8.137h11.264v4.089H97.223v9.383h12.02V121.737z"/>
<path d="M143.282,121.737h-5.316l-5.07-17.826c-0.22-0.777-0.49-1.9-0.818-3.364c-0.329-1.466-0.527-2.483-0.594-3.057
	c-0.137,0.874-0.36,2.004-0.667,3.393c-0.307,1.389-0.56,2.427-0.766,3.106l-4.946,17.746h-5.316l-3.864-14.967l-3.924-14.923h4.987
	l4.273,17.42c0.667,2.794,1.147,5.26,1.43,7.4c0.15-1.161,0.377-2.454,0.676-3.883c0.3-1.434,0.573-2.591,0.817-3.476l4.867-17.459
	h4.844l4.99,17.539c0.476,1.623,0.98,4.05,1.514,7.281c0.203-1.951,0.693-4.43,1.469-7.443l4.253-17.377h4.949L143.282,121.737z"/>
<g>
</g>
<g>
</g>
<g>
</g>
<g>
</g>
<g>
</g>
<g>
</g>
<g>
</g>
<g>
</g>
<g>
</g>
<g>
</g>
<g>
</g>
<g>
</g>
<g>
</g>
<g>
</g>
<g>
</g>
</svg>
