<?xml version="1.0" encoding="iso-8859-1"?>
<!-- Generator: Adobe Illustrator 19.0.0, SVG Export Plug-In . SVG Version: 6.00 Build 0)  -->
<svg version="1.1" id="Capa_1" xmlns="http://www.w3.org/2000/svg" xmlns:xlink="http://www.w3.org/1999/xlink" x="0px" y="0px"
	 viewBox="0 0 211.627 211.627" style="enable-background:new 0 0 211.627 211.627;" xml:space="preserve">
<rect x="81.92" y="85.333" style="fill:#777777;" width="47.787" height="30.72"/>
<path d="M129.707,119.467H81.92c-1.884,0-3.413-1.529-3.413-3.413v-30.72c0-1.884,1.529-3.413,3.413-3.413h47.787
	c1.884,0,3.413,1.529,3.413,3.413v30.72C133.12,117.938,131.591,119.467,129.707,119.467z M85.333,112.64h40.96V88.747h-40.96
	V112.64z"/>
<rect x="102.4" y="112.64" width="6.827" height="17.067"/>
<rect x="95.573" y="122.88" width="20.48" height="6.827"/>
<rect x="160.427" y="85.333" style="fill:#777777;" width="47.787" height="30.72"/>
<path d="M208.213,119.467h-47.787c-1.884,0-3.413-1.529-3.413-3.413v-30.72c0-1.884,1.529-3.413,3.413-3.413h47.787
	c1.884,0,3.413,1.529,3.413,3.413v30.72C211.627,117.938,210.098,119.467,208.213,119.467z M163.84,112.64h40.96V88.747h-40.96
	V112.64z"/>
<rect x="180.907" y="112.64" width="6.827" height="17.067"/>
<rect x="174.08" y="122.88" width="20.48" height="6.827"/>
<rect x="3.413" y="85.333" style="fill:#777777;" width="47.787" height="30.72"/>
<path d="M51.2,119.467H3.413c-1.884,0-3.413-1.529-3.413-3.413v-30.72c0-1.884,1.529-3.413,3.413-3.413H51.2
	c1.884,0,3.413,1.529,3.413,3.413v30.72C54.613,117.938,53.084,119.467,51.2,119.467z M6.827,112.64h40.96V88.747H6.827V112.64z"/>
<rect x="23.893" y="112.64" width="6.827" height="17.067"/>
<rect x="17.067" y="122.88" width="20.48" height="6.827"/>
<rect x="81.92" y="10.24" style="fill:#777777;" width="47.787" height="30.72"/>
<path d="M129.707,44.373H81.92c-1.884,0-3.413-1.529-3.413-3.413V10.24c0-1.884,1.529-3.413,3.413-3.413h47.787
	c1.884,0,3.413,1.529,3.413,3.413v30.72C133.12,42.844,131.591,44.373,129.707,44.373z M85.333,37.547h40.96V13.653h-40.96V37.547z"
	/>
<rect x="102.4" y="37.547" width="6.827" height="17.067"/>
<rect x="95.573" y="47.787" width="20.48" height="6.827"/>
<rect x="81.92" y="160.427" style="fill:#777777;" width="47.787" height="30.72"/>
<path d="M129.707,194.56H81.92c-1.884,0-3.413-1.529-3.413-3.413v-30.72c0-1.884,1.529-3.413,3.413-3.413h47.787
	c1.884,0,3.413,1.529,3.413,3.413v30.72C133.12,193.031,131.591,194.56,129.707,194.56z M85.333,187.733h40.96V163.84h-40.96
	V187.733z"/>
<path d="M105.813,204.8c-1.884,0-3.413-1.529-3.413-3.413v-10.24c0-1.884,1.529-3.413,3.413-3.413c1.884,0,3.413,1.529,3.413,3.413
	v10.24C109.227,203.271,107.698,204.8,105.813,204.8z"/>
<path d="M112.64,204.8H98.987c-1.884,0-3.413-1.529-3.413-3.413s1.529-3.413,3.413-3.413h13.653c1.884,0,3.413,1.529,3.413,3.413
	S114.524,204.8,112.64,204.8z"/>
<rect x="102.4" y="58.027" width="6.827" height="20.48"/>
<rect x="102.4" y="133.12" width="6.827" height="20.48"/>
<rect x="136.533" y="98.987" width="17.067" height="6.827"/>
<rect x="58.027" y="98.987" width="17.067" height="6.827"/>
<g>
</g>
<g>
</g>
<g>
</g>
<g>
</g>
<g>
</g>
<g>
</g>
<g>
</g>
<g>
</g>
<g>
</g>
<g>
</g>
<g>
</g>
<g>
</g>
<g>
</g>
<g>
</g>
<g>
</g>
</svg>
