<?xml version="1.0" encoding="iso-8859-1"?>
<!-- Generator: Adobe Illustrator 19.0.0, SVG Export Plug-In . SVG Version: 6.00 Build 0)  -->
<svg version="1.1" id="Capa_1" xmlns="http://www.w3.org/2000/svg" xmlns:xlink="http://www.w3.org/1999/xlink" x="0px" y="0px"
	 viewBox="0 0 194.56 194.56" style="enable-background:new 0 0 194.56 194.56;" xml:space="preserve">
<rect x="3.413" y="85.333" style="fill:#85D839;" width="146.773" height="85.333"/>
<path d="M150.187,174.08H3.413c-1.884,0-3.413-1.529-3.413-3.413V85.333c0-1.884,1.529-3.413,3.413-3.413h146.773
	c1.884,0,3.413,1.529,3.413,3.413v85.333C153.6,172.551,152.071,174.08,150.187,174.08z M6.827,167.253h139.947V88.747H6.827
	V167.253z"/>
<rect x="3.413" y="170.667" style="fill:#2ABBE9;" width="146.773" height="13.653"/>
<path d="M150.187,187.733H3.413c-1.884,0-3.413-1.529-3.413-3.413v-13.653c0-1.884,1.529-3.413,3.413-3.413h146.773
	c1.884,0,3.413,1.529,3.413,3.413v13.653C153.6,186.204,152.071,187.733,150.187,187.733z M6.827,180.907h139.947v-6.827H6.827
	V180.907z"/>
<rect x="95.573" y="177.493" style="fill:#EE5281;" width="95.573" height="13.653"/>
<path d="M194.56,194.56H92.16v-20.48h102.4V194.56z M98.987,187.733h88.747v-6.827H98.987V187.733z"/>
<rect x="95.573" y="27.307" style="fill:#FBAD4A;" width="95.573" height="150.187"/>
<path d="M194.56,180.907H92.16V23.893h102.4V180.907z M98.987,174.08h88.747V30.72H98.987V174.08z"/>
<path d="M71.639,143.36h-6.743c-9.433,0-17.108-7.675-17.108-17.108V102.4c0-1.884,1.529-3.413,3.413-3.413
	c1.884,0,3.413,1.529,3.413,3.413v23.852c0,5.67,4.611,10.281,10.281,10.281h6.743c5.67,0,10.281-4.611,10.281-10.281V102.4
	c0-1.884,1.529-3.413,3.413-3.413c1.884,0,3.413,1.529,3.413,3.413v23.852C88.747,135.685,81.072,143.36,71.639,143.36z"/>
<path d="M160.427,44.373c-1.884,0-3.413-1.529-3.413-3.413V17.108c0-5.67-4.611-10.281-10.281-10.281h-6.743
	c-5.67,0-10.281,4.611-10.281,10.281V40.96c0,1.884-1.529,3.413-3.413,3.413c-1.884,0-3.413-1.529-3.413-3.413V17.108
	C122.88,7.675,130.555,0,139.988,0h6.743c9.434,0,17.109,7.675,17.109,17.108V40.96C163.84,42.844,162.311,44.373,160.427,44.373z"
	/>
<g>
</g>
<g>
</g>
<g>
</g>
<g>
</g>
<g>
</g>
<g>
</g>
<g>
</g>
<g>
</g>
<g>
</g>
<g>
</g>
<g>
</g>
<g>
</g>
<g>
</g>
<g>
</g>
<g>
</g>
</svg>
