<?xml version="1.0" encoding="iso-8859-1"?>
<!-- Generator: Adobe Illustrator 19.0.0, SVG Export Plug-In . SVG Version: 6.00 Build 0)  -->
<svg version="1.1" id="Capa_1" xmlns="http://www.w3.org/2000/svg" xmlns:xlink="http://www.w3.org/1999/xlink" x="0px" y="0px"
	 viewBox="0 0 184.318 184.318" style="enable-background:new 0 0 184.318 184.318;" xml:space="preserve">
<path style="fill:#DDDDDD;" d="M95.572,180.905h-81.98c-3.755,0-6.798-3.043-6.798-6.798v-163.9c0-3.755,3.043-6.798,6.798-6.798
	h81.98c3.755,0,6.798,3.043,6.798,6.798v163.9C102.368,177.862,99.325,180.905,95.572,180.905z"/>
<path d="M95.572,184.318h-81.98c-5.63,0-10.209-4.581-10.209-10.209v-163.9C3.383,4.579,7.964,0,13.593,0h81.98
	c5.63,0,10.209,4.581,10.209,10.209v163.9C105.782,179.738,101.203,184.318,95.572,184.318z M13.593,6.825
	c-1.865,0-3.383,1.517-3.383,3.383v163.9c0,1.865,1.519,3.383,3.383,3.383h81.98c1.865,0,3.383-1.517,3.383-3.383v-163.9
	c0-1.865-1.519-3.383-3.383-3.383L13.593,6.825L13.593,6.825z"/>
<rect x="17.032" y="13.652" style="fill:#2ABBE9;" width="75.093" height="133.12"/>
<path d="M92.128,150.185H17.035c-1.884,0-3.413-1.529-3.413-3.413V13.652c0-1.884,1.529-3.413,3.413-3.413h75.093
	c1.884,0,3.413,1.529,3.413,3.413v133.12C95.542,148.656,94.014,150.185,92.128,150.185z M20.448,143.358h68.267V17.065H20.448
	L20.448,143.358L20.448,143.358z"/>
<circle style="fill:#DDDDDD;" cx="54.578" cy="163.838" r="6.827"/>
<path d="M54.582,174.078c-5.647,0-10.24-4.593-10.24-10.24s4.593-10.24,10.24-10.24s10.24,4.593,10.24,10.24
	S60.229,174.078,54.582,174.078z M54.582,160.425c-1.882,0-3.413,1.531-3.413,3.413s1.531,3.413,3.413,3.413
	c1.882,0,3.413-1.531,3.413-3.413S56.464,160.425,54.582,160.425z"/>
<path style="fill:#FBAD4A;" d="M168.369,122.878H63.675c-5.023,0-9.093-4.07-9.093-9.093V56.878c0-5.023,4.07-9.093,9.093-9.093
	h104.694c5.023,0,9.093,4.07,9.093,9.093v56.907C177.462,118.808,173.391,122.878,168.369,122.878z"/>
<path d="M168.369,126.351H63.675c-6.931,0-12.566-5.637-12.566-12.566V56.878c0-6.929,5.637-12.566,12.566-12.566h104.694
	c6.931,0,12.566,5.637,12.566,12.566v56.907C180.937,120.714,175.299,126.351,168.369,126.351z M63.677,51.258
	c-3.098,0-5.62,2.522-5.62,5.62v56.907c0,3.098,2.522,5.62,5.62,5.62H168.37c3.098,0,5.62-2.522,5.62-5.62V56.878
	c0-3.098-2.522-5.62-5.62-5.62H63.677z"/>
<rect x="54.578" y="64.852" style="fill:#DDDDDD;" width="122.88" height="20.48"/>
<path d="M177.462,88.805H54.582c-1.918,0-3.473-1.555-3.473-3.473v-20.48c0-1.918,1.555-3.473,3.473-3.473h122.88
	c1.918,0,3.473,1.555,3.473,3.473v20.48C180.937,87.25,179.38,88.805,177.462,88.805z M58.057,81.859H173.99V68.325H58.057V81.859z"
	/>
<path d="M88.715,102.458h-20.48c-1.918,0-3.473-1.555-3.473-3.473s1.555-3.473,3.473-3.473h20.48c1.918,0,3.473,1.555,3.473,3.473
	S90.633,102.458,88.715,102.458z"/>
<path d="M133.088,102.458h-30.72c-1.918,0-3.473-1.555-3.473-3.473s1.555-3.473,3.473-3.473h30.72c1.918,0,3.473,1.555,3.473,3.473
	S135.007,102.458,133.088,102.458z"/>
<g>
</g>
<g>
</g>
<g>
</g>
<g>
</g>
<g>
</g>
<g>
</g>
<g>
</g>
<g>
</g>
<g>
</g>
<g>
</g>
<g>
</g>
<g>
</g>
<g>
</g>
<g>
</g>
<g>
</g>
</svg>
