<?xml version="1.0" encoding="iso-8859-1"?>
<!-- Generator: Adobe Illustrator 19.0.0, SVG Export Plug-In . SVG Version: 6.00 Build 0)  -->
<svg version="1.1" id="Capa_1" xmlns="http://www.w3.org/2000/svg" xmlns:xlink="http://www.w3.org/1999/xlink" x="0px" y="0px"
	 viewBox="0 0 204.8 204.8" style="enable-background:new 0 0 204.8 204.8;" xml:space="preserve">
<path d="M139.947,61.44c-1.884,0-3.413-1.529-3.413-3.413V30.72c0-13.175-10.718-23.893-23.893-23.893S88.747,17.545,88.747,30.72
	v27.307c0,1.884-1.529,3.413-3.413,3.413c-1.884,0-3.413-1.529-3.413-3.413V30.72C81.92,13.781,95.701,0,112.64,0
	s30.72,13.781,30.72,30.72v27.307C143.36,59.911,141.831,61.44,139.947,61.44z"/>
<polygon style="fill:#2A8EE6;" points="187.733,201.387 34.133,201.387 51.2,30.72 170.667,30.72 "/>
<path d="M187.733,204.8h-153.6c-0.964,0-1.884-0.408-2.531-1.123c-0.647-0.715-0.961-1.671-0.865-2.63L47.804,30.38
	c0.176-1.744,1.644-3.074,3.396-3.074h119.467c1.753,0,3.222,1.329,3.396,3.074l17.067,170.667c0.096,0.959-0.218,1.915-0.865,2.63
	C189.618,204.392,188.698,204.8,187.733,204.8z M37.905,197.973h146.057l-16.384-163.84H54.289L37.905,197.973z"/>
<polygon style="fill:#2ABBE9;" points="170.667,201.387 17.067,201.387 34.133,30.72 153.6,30.72 "/>
<path d="M170.667,204.8h-153.6c-0.964,0-1.884-0.408-2.531-1.123c-0.647-0.715-0.961-1.671-0.865-2.63L30.737,30.38
	c0.176-1.744,1.644-3.074,3.396-3.074H153.6c1.753,0,3.222,1.329,3.396,3.074l17.067,170.667c0.096,0.959-0.218,1.915-0.865,2.63
	C172.551,204.392,171.631,204.8,170.667,204.8z M20.838,197.973h146.057l-16.384-163.84H37.222L20.838,197.973z"/>
<path d="M122.88,61.44c-1.884,0-3.413-1.529-3.413-3.413V30.72c0-13.175-10.718-23.893-23.893-23.893S71.68,17.545,71.68,30.72
	v27.307c0,1.884-1.529,3.413-3.413,3.413c-1.884,0-3.413-1.529-3.413-3.413V30.72C64.853,13.781,78.635,0,95.573,0
	s30.72,13.781,30.72,30.72v27.307C126.293,59.911,124.764,61.44,122.88,61.44z"/>
<path style="fill:#ED5481;" d="M93.867,167.253l31.508-41.098c9.902-12.916,2.236-32.435-13.974-33.898
	c-0.715-0.065-1.44-0.097-2.174-0.097c-5.852,0-11.206,2.111-15.36,5.603c-4.154-3.492-9.508-5.603-15.36-5.603
	c-0.734,0-1.459,0.032-2.174,0.097c-16.21,1.463-23.876,20.982-13.974,33.898L93.867,167.253z"/>
<path d="M93.867,170.667c-1.062,0-2.062-0.493-2.708-1.336L59.65,128.232c-5.518-7.197-6.659-16.877-2.982-25.264
	c3.536-8.061,10.772-13.336,19.357-14.111c0.819-0.073,1.645-0.111,2.481-0.111c5.489,0,10.848,1.667,15.36,4.739
	c4.512-3.072,9.871-4.739,15.36-4.739c0.836,0,1.662,0.038,2.48,0.111c8.588,0.775,15.823,6.05,19.359,14.111
	c3.68,8.387,2.536,18.067-2.982,25.264L96.575,169.33C95.928,170.173,94.928,170.667,93.867,170.667z M78.507,95.573
	c-0.631,0-1.254,0.029-1.87,0.084c-6.067,0.548-11.196,4.304-13.716,10.052c-2.679,6.108-1.857,13.146,2.147,18.369l28.8,37.565
	l28.8-37.565c4.004-5.222,4.826-12.261,2.147-18.369c-2.521-5.748-7.649-9.504-13.718-10.054c-0.614-0.053-1.237-0.082-1.869-0.082
	c-4.804,0-9.481,1.707-13.164,4.803c-1.27,1.068-3.123,1.068-4.393,0C87.987,97.28,83.311,95.573,78.507,95.573z"/>
<g>
</g>
<g>
</g>
<g>
</g>
<g>
</g>
<g>
</g>
<g>
</g>
<g>
</g>
<g>
</g>
<g>
</g>
<g>
</g>
<g>
</g>
<g>
</g>
<g>
</g>
<g>
</g>
<g>
</g>
</svg>
