<?xml version="1.0" encoding="iso-8859-1"?>
<!-- Generator: Adobe Illustrator 19.0.0, SVG Export Plug-In . SVG Version: 6.00 Build 0)  -->
<svg version="1.1" id="Capa_1" xmlns="http://www.w3.org/2000/svg" xmlns:xlink="http://www.w3.org/1999/xlink" x="0px" y="0px"
	 viewBox="0 0 215.043 215.043" style="enable-background:new 0 0 215.043 215.043;" xml:space="preserve">
<path style="fill:#84D839;" d="M51.19,174.081c-3.43,0-6.386-2.582-6.774-6.074l-3.413-30.72c-0.416-3.746,2.284-7.122,6.03-7.538
	c3.707-0.425,7.12,2.282,7.537,6.031l3.413,30.72c0.416,3.746-2.284,7.122-6.03,7.538C51.697,174.068,51.444,174.081,51.19,174.081z
	"/>
<path d="M51.19,177.495c-5.221,0-9.59-3.917-10.167-9.11l-3.412-30.72c-0.304-2.717,0.471-5.391,2.179-7.526
	c1.708-2.135,4.147-3.478,6.864-3.78c2.686-0.305,5.359,0.461,7.503,2.171c2.15,1.713,3.5,4.156,3.802,6.876l3.413,30.72
	c0.625,5.612-3.434,10.684-9.045,11.307C51.946,177.474,51.569,177.495,51.19,177.495z M47.802,133.12
	c-0.126,0-0.253,0.007-0.381,0.022c-0.916,0.102-1.731,0.55-2.299,1.261c-0.57,0.712-0.828,1.603-0.729,2.509l3.413,30.72
	c0.208,1.86,1.884,3.227,3.77,3.016c1.869-0.208,3.22-1.898,3.014-3.768l-3.413-30.72c-0.102-0.903-0.553-1.717-1.273-2.292
	C49.292,133.377,48.556,133.12,47.802,133.12z"/>
<path style="fill:#84D839;" d="M210.116,53.744c-1.297-1.608-3.25-2.543-5.316-2.543H68.437c-3.77,0-6.827,3.057-6.827,6.827
	s3.057,6.827,6.827,6.827H196.33l-14.1,64.853H54.047l-6.287-72.272c-0.002-0.029-0.014-0.055-0.015-0.085
	c-0.002-0.026,0.002-0.051,0-0.077l-3.413-30.72c-0.384-3.458-3.304-6.074-6.784-6.074H10.24c-3.77,0-6.827,3.057-6.827,6.827
	s3.057,6.827,6.827,6.827h21.197l2.729,24.538l6.822,78.452c0.307,3.526,3.26,6.234,6.799,6.234h139.947
	c3.21,0,5.99-2.239,6.67-5.376l17.067-78.507C211.91,57.46,211.41,55.352,210.116,53.744z"/>
<path d="M187.733,146.775H47.787c-5.352,0-9.737-4.021-10.201-9.353L30.764,58.97l-2.382-21.422H10.24
	C4.593,37.548,0,32.955,0,27.308s4.593-10.24,10.24-10.24h27.307c5.226,0,9.6,3.917,10.177,9.11l3.412,30.72
	c0.005,0.034,0.009,0.068,0.01,0.104c0.003,0.015,0.005,0.032,0.007,0.046l6.025,69.246h122.301l12.617-58.027H68.437
	c-5.647,0-10.24-4.593-10.24-10.24s4.593-10.24,10.24-10.24H204.8c3.113,0,6.019,1.389,7.974,3.814c0.002,0,0.002,0.002,0.002,0.002
	c1.954,2.425,2.693,5.56,2.029,8.6l-17.067,78.505C196.727,143.382,192.519,146.775,187.733,146.775z M10.24,23.895
	c-1.882,0-3.413,1.531-3.413,3.413s1.531,3.413,3.413,3.413h21.197c1.741,0,3.2,1.307,3.391,3.036l2.729,24.538l6.83,78.534
	c0.155,1.778,1.616,3.118,3.4,3.118h139.947c1.596,0,2.997-1.13,3.333-2.686l17.068-78.508c0.22-1.014-0.026-2.058-0.676-2.865l0,0
	c-0.654-0.809-1.621-1.273-2.661-1.273H68.436c-1.882,0-3.413,1.531-3.413,3.413c0,1.882,1.531,3.413,3.413,3.413H196.33
	c1.033,0,2.01,0.468,2.659,1.271c0.647,0.804,0.896,1.857,0.676,2.867l-14.1,64.853c-0.34,1.568-1.731,2.688-3.335,2.688H54.047
	c-1.77,0-3.246-1.353-3.4-3.118L44.373,57.89c-0.01-0.056-0.017-0.111-0.022-0.162c-0.009-0.073-0.015-0.155-0.019-0.237
	l-3.395-30.56c-0.193-1.732-1.65-3.036-3.391-3.036L10.24,23.895L10.24,23.895z"/>
<path style="fill:#84D839;" d="M157.013,187.735H68.267c-3.77,0-6.827-3.057-6.827-6.827c0-3.77,3.057-6.827,6.827-6.827h88.747
	c3.77,0,6.827,3.057,6.827,6.827C163.84,184.678,160.783,187.735,157.013,187.735z"/>
<path d="M157.013,191.148H68.267c-5.647,0-10.24-4.593-10.24-10.24s4.593-10.24,10.24-10.24h88.747c5.647,0,10.24,4.593,10.24,10.24
	S162.661,191.148,157.013,191.148z M68.267,177.495c-1.882,0-3.413,1.531-3.413,3.413c0,1.882,1.531,3.413,3.413,3.413h88.747
	c1.882,0,3.413-1.531,3.413-3.413c0-1.882-1.531-3.413-3.413-3.413H68.267z"/>
<circle style="fill:#2ABBE9;" cx="54.615" cy="180.908" r="13.653"/>
<path d="M54.613,197.975c-9.411,0-17.067-7.656-17.067-17.067c0-9.411,7.656-17.067,17.067-17.067s17.067,7.656,17.067,17.067
	C71.68,190.319,64.024,197.975,54.613,197.975z M54.613,170.668c-5.647,0-10.24,4.593-10.24,10.24s4.593,10.24,10.24,10.24
	s10.24-4.593,10.24-10.24S60.261,170.668,54.613,170.668z"/>
<circle style="fill:#2ABBE9;" cx="170.668" cy="180.908" r="13.653"/>
<path d="M170.667,197.975c-9.411,0-17.067-7.656-17.067-17.067c0-9.411,7.656-17.067,17.067-17.067s17.067,7.656,17.067,17.067
	C187.733,190.319,180.077,197.975,170.667,197.975z M170.667,170.668c-5.647,0-10.24,4.593-10.24,10.24s4.593,10.24,10.24,10.24
	s10.24-4.593,10.24-10.24S176.314,170.668,170.667,170.668z"/>
<g>
</g>
<g>
</g>
<g>
</g>
<g>
</g>
<g>
</g>
<g>
</g>
<g>
</g>
<g>
</g>
<g>
</g>
<g>
</g>
<g>
</g>
<g>
</g>
<g>
</g>
<g>
</g>
<g>
</g>
</svg>
