<?xml version="1.0" encoding="iso-8859-1"?>
<!-- Generator: Adobe Illustrator 19.0.0, SVG Export Plug-In . SVG Version: 6.00 Build 0)  -->
<svg version="1.1" id="Capa_1" xmlns="http://www.w3.org/2000/svg" xmlns:xlink="http://www.w3.org/1999/xlink" x="0px" y="0px"
	 viewBox="0 0 215.04 215.04" style="enable-background:new 0 0 215.04 215.04;" xml:space="preserve">
<path style="fill:#DDDDDD;" d="M191.147,175.787H23.893c-11.31,0-20.48-9.17-20.48-20.48l0,0h208.213l0,0
	C211.627,166.617,202.457,175.787,191.147,175.787z"/>
<path d="M191.147,179.2H23.893C10.718,179.2,0,168.482,0,155.307c0-1.884,1.529-3.413,3.413-3.413h208.213
	c1.884,0,3.413,1.529,3.413,3.413C215.04,168.482,204.322,179.2,191.147,179.2z M7.17,158.72
	c1.585,7.781,8.482,13.653,16.724,13.653h167.253c8.241,0,15.138-5.873,16.724-13.653H7.17z"/>
<rect x="20.48" y="39.253" style="fill:#2ABBE9;" width="174.08" height="116.053"/>
<path d="M194.56,158.72H20.48c-1.884,0-3.413-1.529-3.413-3.413V39.253c0-1.884,1.529-3.413,3.413-3.413h174.08
	c1.884,0,3.413,1.529,3.413,3.413v116.053C197.973,157.191,196.444,158.72,194.56,158.72z M23.893,151.893h167.253V42.667H23.893
	V151.893z"/>
<polyline style="fill:#FEDA38;" points="68.267,73.387 68.267,73.387 78.507,114.347 136.533,114.347 143.36,80.213 71.68,80.213 
	"/>
<path d="M136.533,117.76H78.507c-1.567,0-2.932-1.067-3.311-2.586l-10.24-40.96c-0.457-1.828,0.655-3.681,2.483-4.139
	c1.826-0.454,3.681,0.654,4.14,2.485l1.06,4.241h70.721c1.024,0,1.992,0.459,2.64,1.249s0.908,1.831,0.707,2.833l-6.827,34.133
	C139.561,116.611,138.16,117.76,136.533,117.76z M81.172,110.933h52.564l5.461-27.307H74.346L81.172,110.933z"/>
<g>
	<circle cx="92.16" cy="124.587" r="6.827"/>
	<circle cx="122.88" cy="124.587" r="6.827"/>
</g>
<path d="M139.947,100.693H75.093c-1.884,0-3.413-1.529-3.413-3.413c0-1.884,1.529-3.413,3.413-3.413h64.853
	c1.884,0,3.413,1.529,3.413,3.413C143.36,99.164,141.831,100.693,139.947,100.693z"/>
<path d="M68.267,76.8h-10.24c-1.884,0-3.413-1.529-3.413-3.413c0-1.884,1.529-3.413,3.413-3.413h10.24
	c1.884,0,3.413,1.529,3.413,3.413C71.68,75.271,70.151,76.8,68.267,76.8z"/>
<path d="M30.72,69.973c-0.874,0-1.746-0.333-2.413-1c-1.333-1.333-1.333-3.494,0-4.826L41.96,50.493
	c1.333-1.333,3.494-1.333,4.826,0c1.333,1.333,1.333,3.494,0,4.826L33.133,68.973C32.466,69.641,31.594,69.973,30.72,69.973z"/>
<path d="M151.893,143.36c-0.874,0-1.746-0.333-2.413-1c-1.333-1.333-1.333-3.494,0-4.826l25.6-25.6c1.333-1.333,3.494-1.333,4.826,0
	s1.333,3.494,0,4.826l-25.6,25.6C153.639,143.027,152.767,143.36,151.893,143.36z"/>
<path d="M168.96,143.36c-0.874,0-1.746-0.333-2.413-1c-1.333-1.333-1.333-3.494,0-4.826L175.08,129c1.333-1.333,3.494-1.333,4.826,0
	s1.333,3.494,0,4.826l-8.533,8.533C170.706,143.027,169.834,143.36,168.96,143.36z"/>
<g>
</g>
<g>
</g>
<g>
</g>
<g>
</g>
<g>
</g>
<g>
</g>
<g>
</g>
<g>
</g>
<g>
</g>
<g>
</g>
<g>
</g>
<g>
</g>
<g>
</g>
<g>
</g>
<g>
</g>
</svg>
