<?xml version="1.0" encoding="iso-8859-1"?>
<!-- Generator: Adobe Illustrator 19.0.0, SVG Export Plug-In . SVG Version: 6.00 Build 0)  -->
<svg version="1.1" id="Capa_1" xmlns="http://www.w3.org/2000/svg" xmlns:xlink="http://www.w3.org/1999/xlink" x="0px" y="0px"
	 viewBox="0 0 184.32 184.32" style="enable-background:new 0 0 184.32 184.32;" xml:space="preserve">
<path style="fill:#DDDDDD;" d="M142.594,180.907H41.726c-7.963,0-14.42-6.456-14.42-14.42V17.833c0-7.963,6.456-14.42,14.42-14.42
	h100.867c7.963,0,14.42,6.456,14.42,14.42v148.654C157.013,174.45,150.557,180.907,142.594,180.907z"/>
<path d="M142.594,184.32H41.726c-9.834,0-17.833-8.001-17.833-17.833V17.833C23.893,8.001,31.894,0,41.726,0h100.867
	c9.834,0,17.833,8.001,17.833,17.833v148.654C160.427,176.319,152.426,184.32,142.594,184.32z M41.726,6.827
	c-6.069,0-11.006,4.937-11.006,11.006v148.654c0,6.069,4.939,11.006,11.006,11.006h100.867c6.069,0,11.006-4.937,11.006-11.006
	V17.833c0-6.069-4.939-11.006-11.006-11.006H41.726z"/>
<rect x="37.547" y="13.653" style="fill:#FBAD4A;" width="109.227" height="133.12"/>
<path d="M146.773,150.187H37.547c-1.884,0-3.413-1.529-3.413-3.413V13.653c0-1.884,1.529-3.413,3.413-3.413h109.227
	c1.884,0,3.413,1.529,3.413,3.413v133.12C150.187,148.658,148.658,150.187,146.773,150.187z M40.96,143.36h102.4V17.067H40.96
	V143.36z"/>
<circle style="fill:#DDDDDD;" cx="92.16" cy="163.84" r="6.827"/>
<path d="M92.16,174.08c-5.647,0-10.24-4.593-10.24-10.24c0-5.647,4.593-10.24,10.24-10.24s10.24,4.593,10.24,10.24
	C102.4,169.487,97.807,174.08,92.16,174.08z M92.16,160.427c-1.882,0-3.413,1.531-3.413,3.413c0,1.882,1.531,3.413,3.413,3.413
	c1.882,0,3.413-1.531,3.413-3.413C95.573,161.958,94.042,160.427,92.16,160.427z"/>
<path d="M116.053,44.373h-20.48c-1.884,0-3.413-1.529-3.413-3.413c0-1.884,1.529-3.413,3.413-3.413h20.48
	c1.884,0,3.413,1.529,3.413,3.413C119.467,42.844,117.938,44.373,116.053,44.373z"/>
<path d="M75.093,54.613c-0.667,0-1.326-0.195-1.893-0.573l-10.24-6.827c-1.568-1.046-1.992-3.164-0.947-4.733
	c1.046-1.567,3.164-1.995,4.733-0.947l6.825,4.55l8.625-20.122c0.741-1.734,2.746-2.536,4.482-1.794
	c1.732,0.742,2.534,2.749,1.792,4.482L78.23,52.543c-0.398,0.932-1.191,1.638-2.164,1.927
	C75.747,54.567,75.419,54.613,75.093,54.613z"/>
<path d="M116.053,85.333h-20.48c-1.884,0-3.413-1.529-3.413-3.413c0-1.884,1.529-3.413,3.413-3.413h20.48
	c1.884,0,3.413,1.529,3.413,3.413C119.467,83.804,117.938,85.333,116.053,85.333z"/>
<path d="M75.093,95.573c-0.667,0-1.326-0.195-1.893-0.573l-10.24-6.827c-1.568-1.046-1.992-3.164-0.947-4.733
	c1.046-1.568,3.164-1.995,4.733-0.947l6.825,4.55l8.625-20.122c0.741-1.734,2.746-2.538,4.482-1.794
	c1.732,0.742,2.534,2.749,1.792,4.482L78.23,93.503c-0.398,0.932-1.191,1.638-2.164,1.927
	C75.747,95.527,75.419,95.573,75.093,95.573z"/>
<path d="M116.053,126.293h-20.48c-1.884,0-3.413-1.529-3.413-3.413c0-1.884,1.529-3.413,3.413-3.413h20.48
	c1.884,0,3.413,1.529,3.413,3.413C119.467,124.764,117.938,126.293,116.053,126.293z"/>
<path d="M75.093,136.533c-0.667,0-1.326-0.195-1.893-0.573l-10.24-6.827c-1.568-1.046-1.992-3.164-0.947-4.733
	c1.046-1.568,3.164-1.993,4.733-0.947l6.825,4.55l8.625-20.122c0.741-1.734,2.746-2.536,4.482-1.794
	c1.732,0.742,2.534,2.749,1.792,4.482l-10.24,23.893c-0.398,0.932-1.191,1.638-2.164,1.927
	C75.747,136.487,75.419,136.533,75.093,136.533z"/>
<g>
</g>
<g>
</g>
<g>
</g>
<g>
</g>
<g>
</g>
<g>
</g>
<g>
</g>
<g>
</g>
<g>
</g>
<g>
</g>
<g>
</g>
<g>
</g>
<g>
</g>
<g>
</g>
<g>
</g>
</svg>
