<?xml version="1.0" encoding="iso-8859-1"?>
<!-- Generator: Adobe Illustrator 19.0.0, SVG Export Plug-In . SVG Version: 6.00 Build 0)  -->
<svg version="1.1" id="Capa_1" xmlns="http://www.w3.org/2000/svg" xmlns:xlink="http://www.w3.org/1999/xlink" x="0px" y="0px"
	 viewBox="0 0 184.32 184.32" style="enable-background:new 0 0 184.32 184.32;" xml:space="preserve">
<path style="fill:#DDDDDD;" d="M122.084,180.907H21.216c-7.963,0-14.42-6.456-14.42-14.42V17.833c0-7.963,6.456-14.42,14.42-14.42
	h100.867c7.963,0,14.42,6.456,14.42,14.42v148.654C136.503,174.45,130.049,180.907,122.084,180.907z"/>
<path d="M122.084,184.32H21.216c-9.834,0-17.833-8.001-17.833-17.833V17.833C3.383,7.999,11.384,0,21.216,0h100.867
	c9.834,0,17.833,8.001,17.833,17.833v148.654C139.917,176.319,131.918,184.32,122.084,184.32z M21.218,6.827
	c-6.069,0-11.006,4.937-11.006,11.006v148.654c0,6.069,4.939,11.006,11.006,11.006h100.867c6.069,0,11.006-4.937,11.006-11.006
	V17.833c0-6.069-4.939-11.006-11.006-11.006H21.218z"/>
<rect x="17.033" y="13.653" style="fill:#2ABBE9;" width="109.227" height="133.12"/>
<path d="M126.263,150.187H17.037c-1.884,0-3.413-1.529-3.413-3.413V13.653c0-1.884,1.529-3.413,3.413-3.413h109.227
	c1.884,0,3.413,1.529,3.413,3.413v133.12C129.677,148.658,128.149,150.187,126.263,150.187z M20.45,143.36h102.4V17.067H20.45
	L20.45,143.36L20.45,143.36z"/>
<circle style="fill:#DDDDDD;" cx="71.647" cy="163.84" r="6.827"/>
<path d="M71.65,174.08c-5.647,0-10.24-4.593-10.24-10.24c0-5.647,4.593-10.24,10.24-10.24s10.24,4.593,10.24,10.24
	C81.89,169.487,77.297,174.08,71.65,174.08z M71.65,160.427c-1.882,0-3.413,1.531-3.413,3.413c0,1.882,1.531,3.413,3.413,3.413
	s3.413-1.531,3.413-3.413C75.063,161.958,73.533,160.427,71.65,160.427z"/>
<path style="fill:#FBAD4A;" d="M168.37,119.467H63.677c-5.023,0-9.093-4.07-9.093-9.093V53.466c0-5.023,4.07-9.093,9.093-9.093
	H168.37c5.023,0,9.093,4.07,9.093,9.093v56.907C177.463,115.396,173.393,119.467,168.37,119.467z"/>
<path d="M168.37,122.94H63.677c-6.931,0-12.566-5.637-12.566-12.566V53.466c0-6.929,5.637-12.566,12.566-12.566H168.37
	c6.931,0,12.566,5.637,12.566,12.566v56.907C180.938,117.303,175.301,122.94,168.37,122.94z M63.678,47.846
	c-3.098,0-5.62,2.522-5.62,5.62v56.907c0,3.098,2.522,5.62,5.62,5.62h104.694c3.098,0,5.62-2.522,5.62-5.62V53.466
	c0-3.098-2.522-5.62-5.62-5.62L63.678,47.846L63.678,47.846z"/>
<rect x="54.58" y="61.44" style="fill:#DDDDDD;" width="122.88" height="20.48"/>
<path d="M177.463,85.393H54.583c-1.918,0-3.473-1.555-3.473-3.473V61.44c0-1.918,1.555-3.473,3.473-3.473h122.88
	c1.918,0,3.473,1.555,3.473,3.473v20.48C180.938,83.838,179.382,85.393,177.463,85.393z M58.058,78.447h115.934V64.913H58.058
	V78.447z"/>
<path d="M88.717,99.046h-20.48c-1.918,0-3.473-1.555-3.473-3.473c0-1.918,1.555-3.473,3.473-3.473h20.48
	c1.918,0,3.473,1.555,3.473,3.473C92.19,97.492,90.635,99.046,88.717,99.046z"/>
<path d="M133.09,99.046h-30.72c-1.918,0-3.473-1.555-3.473-3.473c0-1.918,1.555-3.473,3.473-3.473h30.72
	c1.918,0,3.473,1.555,3.473,3.473C136.563,97.492,135.008,99.046,133.09,99.046z"/>
<g>
</g>
<g>
</g>
<g>
</g>
<g>
</g>
<g>
</g>
<g>
</g>
<g>
</g>
<g>
</g>
<g>
</g>
<g>
</g>
<g>
</g>
<g>
</g>
<g>
</g>
<g>
</g>
<g>
</g>
</svg>
