<?xml version="1.0" encoding="iso-8859-1"?>
<!-- Generator: Adobe Illustrator 19.0.0, SVG Export Plug-In . SVG Version: 6.00 Build 0)  -->
<svg version="1.1" id="Capa_1" xmlns="http://www.w3.org/2000/svg" xmlns:xlink="http://www.w3.org/1999/xlink" x="0px" y="0px"
	 viewBox="0 0 218.453 218.453" style="enable-background:new 0 0 218.453 218.453;" xml:space="preserve">
<path style="fill:#FEDA38;" d="M170.835,215.04H47.619c-3.678,0-6.658-2.982-6.658-6.658V10.071c0-3.678,2.982-6.658,6.658-6.658
	h123.216c3.678,0,6.658,2.982,6.658,6.658v198.31C177.492,212.058,174.511,215.04,170.835,215.04z"/>
<path d="M170.835,218.453H47.619c-5.553,0-10.071-4.518-10.071-10.071V10.071C37.548,4.518,42.065,0,47.619,0h123.216
	c5.553,0,10.071,4.518,10.071,10.071v198.31C180.906,213.936,176.388,218.453,170.835,218.453z M47.617,6.827
	c-1.789,0-3.244,1.456-3.244,3.244v198.31c0,1.79,1.456,3.244,3.244,3.244h123.216c1.789,0,3.244-1.456,3.244-3.244V10.071
	c0-1.789-1.456-3.244-3.244-3.244H47.617z"/>
<path style="fill:#FFFFFF;" d="M170.835,197.973H47.619c-3.678,0-6.658-2.982-6.658-6.658V27.139c0-3.678,2.982-6.658,6.658-6.658
	h123.216c3.678,0,6.658,2.982,6.658,6.658v164.176C177.492,194.992,174.511,197.973,170.835,197.973z"/>
<path d="M170.835,201.387H47.619c-5.553,0-10.071-4.518-10.071-10.071V27.139c0-5.553,4.518-10.071,10.071-10.071h123.216
	c5.553,0,10.071,4.518,10.071,10.071v164.176C180.906,196.869,176.388,201.387,170.835,201.387z M47.617,23.893
	c-1.789,0-3.244,1.456-3.244,3.244v164.176c0,1.79,1.456,3.244,3.244,3.244h123.216c1.789,0,3.244-1.456,3.244-3.244V27.138
	c0-1.789-1.456-3.244-3.244-3.244L47.617,23.893L47.617,23.893z"/>
<rect x="51.199" y="78.507" style="fill:#FEDA38;" width="116.053" height="68.267"/>
<path d="M167.252,150.187H51.199c-1.884,0-3.413-1.529-3.413-3.413V78.507c0-1.884,1.529-3.413,3.413-3.413h116.053
	c1.884,0,3.413,1.529,3.413,3.413v68.267C170.666,148.658,169.137,150.187,167.252,150.187z M54.612,143.36h109.227V81.92H54.612
	V143.36z"/>
<path d="M81.919,150.187c-1.884,0-3.413-1.529-3.413-3.413V78.507c0-1.884,1.529-3.413,3.413-3.413c1.884,0,3.413,1.529,3.413,3.413
	v68.267C85.332,148.658,83.803,150.187,81.919,150.187z"/>
<path d="M109.226,150.187c-1.884,0-3.413-1.529-3.413-3.413V78.507c0-1.884,1.529-3.413,3.413-3.413
	c1.884,0,3.413,1.529,3.413,3.413v68.267C112.639,148.658,111.11,150.187,109.226,150.187z"/>
<path d="M116.052,68.267H51.199c-1.884,0-3.413-1.529-3.413-3.413c0-1.884,1.529-3.413,3.413-3.413h64.853
	c1.884,0,3.413,1.529,3.413,3.413C119.466,66.737,117.937,68.267,116.052,68.267z"/>
<path d="M95.572,170.667H51.199c-1.884,0-3.413-1.529-3.413-3.413c0-1.884,1.529-3.413,3.413-3.413h44.373
	c1.884,0,3.413,1.529,3.413,3.413C98.986,169.137,97.457,170.667,95.572,170.667z"/>
<path d="M71.679,184.32h-20.48c-1.884,0-3.413-1.529-3.413-3.413c0-1.884,1.529-3.413,3.413-3.413h20.48
	c1.884,0,3.413,1.529,3.413,3.413C75.092,182.791,73.563,184.32,71.679,184.32z"/>
<path d="M53.095,53.456V34.516h4.017v18.941H53.095z"/>
<path d="M78.683,53.456h-5.105l-8.238-14.327h-0.116c0.164,2.529,0.246,4.333,0.246,5.414v8.914h-3.589V34.516h5.065l8.226,14.186
	h0.092c-0.13-2.463-0.195-4.204-0.195-5.224v-8.963h3.615v18.942H78.683z"/>
<path d="M94.255,34.517h4.055l-6.438,18.941h-4.379l-6.426-18.941h4.055l3.564,11.271c0.198,0.667,0.403,1.44,0.614,2.326
	c0.212,0.884,0.343,1.5,0.394,1.847c0.096-0.797,0.418-2.186,0.971-4.173L94.255,34.517z"/>
<path d="M117.884,43.96c0,3.137-0.777,5.547-2.331,7.229c-1.555,1.683-3.784,2.526-6.685,2.526c-2.901,0-5.13-0.843-6.685-2.526
	c-1.555-1.683-2.331-4.103-2.331-7.257c0-3.151,0.78-5.557,2.338-7.219c1.558-1.662,3.794-2.493,6.705-2.493
	c2.91,0,5.137,0.836,6.678,2.514C117.114,38.407,117.884,40.817,117.884,43.96z M104.061,43.96c0,2.116,0.401,3.71,1.205,4.78
	c0.804,1.073,2.004,1.606,3.601,1.606c3.203,0,4.806-2.127,4.806-6.386c0-4.267-1.594-6.4-4.78-6.4
	c-1.599,0-2.804,0.539-3.615,1.613C104.468,40.25,104.061,41.844,104.061,43.96z"/>
<path d="M121.809,53.456V34.516h4.017v18.941H121.809z"/>
<path d="M138.637,37.586c-1.512,0-2.681,0.567-3.511,1.703c-0.829,1.137-1.244,2.72-1.244,4.75c0,4.224,1.584,6.333,4.753,6.333
	c1.33,0,2.942-0.333,4.833-0.997v3.367c-1.555,0.65-3.292,0.973-5.209,0.973c-2.755,0-4.864-0.836-6.321-2.507
	c-1.459-1.673-2.19-4.07-2.19-7.197c0-1.969,0.358-3.697,1.075-5.176c0.717-1.48,1.746-2.616,3.091-3.407
	c1.345-0.79,2.917-1.186,4.722-1.186c1.84,0,3.688,0.447,5.545,1.336l-1.295,3.263c-0.708-0.336-1.422-0.63-2.138-0.881
	C140.031,37.711,139.33,37.586,138.637,37.586z"/>
<path d="M158.407,53.456h-10.909V34.516h10.909v3.29h-6.892v4.161h6.414v3.29h-6.414v4.883h6.892V53.456z"/>
<g>
</g>
<g>
</g>
<g>
</g>
<g>
</g>
<g>
</g>
<g>
</g>
<g>
</g>
<g>
</g>
<g>
</g>
<g>
</g>
<g>
</g>
<g>
</g>
<g>
</g>
<g>
</g>
<g>
</g>
</svg>
