<?xml version="1.0" encoding="iso-8859-1"?>
<!-- Generator: Adobe Illustrator 19.0.0, SVG Export Plug-In . SVG Version: 6.00 Build 0)  -->
<svg version="1.1" id="Capa_1" xmlns="http://www.w3.org/2000/svg" xmlns:xlink="http://www.w3.org/1999/xlink" x="0px" y="0px"
	 viewBox="0 0 211.354 211.354" style="enable-background:new 0 0 211.354 211.354;" xml:space="preserve">
<rect x="3.413" y="18.773" style="fill:#85D839;" width="180.907" height="75.093"/>
<path d="M184.32,97.28H3.413C1.529,97.28,0,95.751,0,93.867V18.773c0-1.884,1.529-3.413,3.413-3.413H184.32
	c1.884,0,3.413,1.529,3.413,3.413v75.093C187.733,95.751,186.204,97.28,184.32,97.28z M6.827,90.453h174.08V22.187H6.827V90.453z"/>
<circle style="fill:#9DFB46;" cx="95.573" cy="56.32" r="27.307"/>
<path d="M95.573,87.04c-16.939,0-30.72-13.781-30.72-30.72S78.635,25.6,95.573,25.6s30.72,13.781,30.72,30.72
	S112.51,87.04,95.573,87.04z M95.573,32.427c-13.175,0-23.893,10.718-23.893,23.893s10.718,23.893,23.893,23.893
	s23.893-10.718,23.893-23.893S108.747,32.427,95.573,32.427z"/>
<path d="M93.766,77.79v-5.17c-2.973-0.053-6.043-0.973-7.834-2.253l1.227-3.43c1.843,1.227,4.507,2.2,7.373,2.2
	c3.633,0,6.093-2.099,6.093-5.016c0-2.816-2-4.557-5.787-6.093c-5.224-2.046-8.446-4.403-8.446-8.856
	c0-4.25,3.021-7.473,7.729-8.243V35.76h3.173v4.966c3.07,0.101,5.17,0.92,6.656,1.79l-1.28,3.379
	c-1.073-0.613-3.173-1.741-6.453-1.741c-3.941,0-5.427,2.353-5.427,4.403c0,2.661,1.896,3.994,6.35,5.837
	c5.274,2.15,7.936,4.809,7.936,9.366c0,4.047-2.816,7.834-8.09,8.707v5.323h-3.22V77.79z"/>
<path style="fill:#99783D;" d="M205.942,190.582L205.942,190.582c-2.666,2.666-6.989,2.666-9.655,0l-43.445-43.445l9.655-9.655
	l43.445,43.445C208.608,183.593,208.608,187.916,205.942,190.582z"/>
<path d="M201.114,195.994c-2.736,0-5.308-1.065-7.241-3l-43.443-43.445c-1.333-1.333-1.333-3.494,0-4.826l9.653-9.653
	c1.333-1.333,3.494-1.333,4.826,0l43.445,43.443c1.935,1.934,3,4.507,3,7.241c0,2.734-1.065,5.306-2.999,7.24l0,0
	C206.421,194.929,203.849,195.994,201.114,195.994z M157.669,147.135l41.03,41.032c1.29,1.29,3.54,1.29,4.826,0
	c0.002,0,0.002,0,0.002-0.002c0.645-0.643,1-1.5,1-2.411c0-0.911-0.355-1.77-1-2.415l-41.032-41.03L157.669,147.135z"/>
<path style="fill:#DDDDDD;" d="M78.508,110.44c-0.126,12.394,4.538,24.827,13.995,34.284c18.662,18.662,48.918,18.662,67.581,0
	c9.33-9.33,13.996-21.56,13.996-33.79"/>
<path d="M126.293,162.108c-13.114,0.002-26.221-4.989-36.204-14.971c-9.812-9.812-15.136-22.857-14.993-36.731
	c0.02-1.886,1.483-3.427,3.449-3.378c1.884,0.02,3.398,1.563,3.378,3.449c-0.125,12.025,4.49,23.332,12.993,31.834
	c17.3,17.3,45.454,17.3,62.754,0c8.381-8.38,12.996-19.523,12.996-31.377c0-1.884,1.529-3.413,3.413-3.413s3.413,1.529,3.413,3.413
	c0,13.677-5.327,26.535-14.996,36.204C152.516,157.116,139.402,162.108,126.293,162.108z"/>
<path style="fill:#85D839;" d="M174.08,110.933c0-12.23-4.666-24.46-13.996-33.79c-18.662-18.662-48.918-18.662-67.581,0
	c-9.206,9.206-13.87,21.233-13.995,33.297L174.08,110.933z"/>
<path d="M174.08,114.347c-0.007,0-0.012,0-0.019,0l-95.57-0.493c-0.908-0.005-1.777-0.372-2.413-1.019
	c-0.638-0.647-0.99-1.522-0.981-2.43C75.235,96.928,80.56,84.258,90.09,74.73c19.963-19.961,52.446-19.963,72.407,0
	c9.67,9.668,14.996,22.526,14.996,36.204c0,0.908-0.362,1.78-1.007,2.42C175.848,113.99,174.981,114.347,174.08,114.347z
	 M82.087,107.044l88.448,0.457c-0.802-10.561-5.299-20.378-12.867-27.945c-17.3-17.3-45.454-17.3-62.754,0
	C87.47,87.001,82.987,96.657,82.087,107.044z"/>
<path d="M95.573,100.693c-4.799,0-9.52-0.761-14.03-2.265c-1.789-0.597-2.756-2.528-2.161-4.316c0.596-1.789,2.529-2.76,4.316-2.161
	c3.814,1.27,7.808,1.915,11.873,1.915c17.652,0,32.708-12.003,36.613-29.189c0.418-1.838,2.239-2.987,4.086-2.572
	c1.838,0.418,2.99,2.246,2.572,4.086C134.228,86.504,116.434,100.693,95.573,100.693z"/>
<g>
</g>
<g>
</g>
<g>
</g>
<g>
</g>
<g>
</g>
<g>
</g>
<g>
</g>
<g>
</g>
<g>
</g>
<g>
</g>
<g>
</g>
<g>
</g>
<g>
</g>
<g>
</g>
<g>
</g>
</svg>
