<?xml version="1.0" encoding="iso-8859-1"?>
<!-- Generator: Adobe Illustrator 19.0.0, SVG Export Plug-In . SVG Version: 6.00 Build 0)  -->
<svg version="1.1" id="Capa_1" xmlns="http://www.w3.org/2000/svg" xmlns:xlink="http://www.w3.org/1999/xlink" x="0px" y="0px"
	 viewBox="0 0 204.8 204.8" style="enable-background:new 0 0 204.8 204.8;" xml:space="preserve">
<circle style="fill:#FEDA4F;" cx="85.23" cy="37.547" r="34.133"/>
<path d="M85.23,75.093c-20.704,0-37.547-16.843-37.547-37.547S64.527,0,85.23,0s37.547,16.843,37.547,37.547
	S105.934,75.093,85.23,75.093z M85.23,6.827c-16.939,0-30.72,13.781-30.72,30.72s13.781,30.72,30.72,30.72s30.72-13.781,30.72-30.72
	S102.171,6.827,85.23,6.827z"/>
<path style="fill:#FBAD4A;" d="M110.83,88.747h-51.2c-4.693,0-8.533-3.84-8.533-8.533l0,0c0-4.693,3.84-8.533,8.533-8.533h51.2
	c4.693,0,8.533,3.84,8.533,8.533l0,0C119.364,84.907,115.524,88.747,110.83,88.747z"/>
<path d="M110.83,92.16h-51.2c-6.588,0-11.947-5.361-11.947-11.947c0-6.586,5.359-11.947,11.947-11.947h51.2
	c6.588,0,11.947,5.361,11.947,11.947C122.777,86.799,117.418,92.16,110.83,92.16z M59.63,75.093c-2.823,0-5.12,2.297-5.12,5.12
	s2.297,5.12,5.12,5.12h51.2c2.823,0,5.12-2.297,5.12-5.12s-2.297-5.12-5.12-5.12H59.63z"/>
<path style="fill:#FBAD4A;" d="M110.83,122.88h-51.2c-4.693,0-8.533-3.84-8.533-8.533l0,0c0-4.693,3.84-8.533,8.533-8.533h51.2
	c4.693,0,8.533,3.84,8.533,8.533l0,0C119.364,119.04,115.524,122.88,110.83,122.88z"/>
<path d="M110.83,126.293h-51.2c-6.588,0-11.947-5.361-11.947-11.947c0-6.586,5.359-11.947,11.947-11.947h51.2
	c6.588,0,11.947,5.361,11.947,11.947C122.777,120.933,117.418,126.293,110.83,126.293z M59.63,109.227
	c-2.823,0-5.12,2.297-5.12,5.12s2.297,5.12,5.12,5.12h51.2c2.823,0,5.12-2.297,5.12-5.12s-2.297-5.12-5.12-5.12H59.63z"/>
<path style="fill:#FEDA4F;" d="M110.83,105.813h-51.2c-4.693,0-8.533-3.84-8.533-8.533l0,0c0-4.693,3.84-8.533,8.533-8.533h51.2
	c4.693,0,8.533,3.84,8.533,8.533l0,0C119.364,101.973,115.524,105.813,110.83,105.813z"/>
<path d="M110.83,109.227h-51.2c-6.588,0-11.947-5.361-11.947-11.947c0-6.586,5.359-11.947,11.947-11.947h51.2
	c6.588,0,11.947,5.361,11.947,11.947C122.777,103.866,117.418,109.227,110.83,109.227z M59.63,92.16c-2.823,0-5.12,2.297-5.12,5.12
	c0,2.823,2.297,5.12,5.12,5.12h51.2c2.823,0,5.12-2.297,5.12-5.12c0-2.823-2.297-5.12-5.12-5.12H59.63z"/>
<path d="M83.423,59.017v-5.169c-2.97-0.053-6.042-0.973-7.834-2.253l1.229-3.43c1.843,1.227,4.506,2.2,7.371,2.2
	c3.635,0,6.093-2.099,6.093-5.016c0-2.816-1.997-4.557-5.786-6.093c-5.224-2.046-8.448-4.403-8.448-8.856
	c0-4.25,3.022-7.473,7.731-8.243v-5.169h3.173v4.966c3.072,0.101,5.171,0.92,6.656,1.79l-1.28,3.379
	c-1.075-0.613-3.174-1.741-6.451-1.741c-3.942,0-5.427,2.353-5.427,4.403c0,2.661,1.894,3.994,6.349,5.837
	c5.274,2.15,7.936,4.809,7.936,9.366c0,4.047-2.816,7.834-8.09,8.707v5.323h-3.222V59.017z"/>
<path style="fill:#FFDD95;" d="M44.221,143.133c-4.306,2.587-5.717,8.144-3.113,12.481l15.732,26.18
	c1.662,2.767,5.251,3.661,8.016,1.999l10.586-6.361l-18.741-31.189C54.114,141.938,48.558,140.527,44.221,143.133z"/>
<path d="M61.863,188.039c-3.145,0-6.216-1.601-7.95-4.485l-15.73-26.182c-1.729-2.877-2.234-6.245-1.422-9.486
	c0.811-3.231,2.836-5.958,5.702-7.68l0,0c5.914-3.552,13.614-1.633,17.164,4.279l20.499,34.116l-13.512,8.119
	C65.126,187.614,63.484,188.039,61.863,188.039z M48.897,145.248c-0.997,0-2.004,0.261-2.918,0.812l0,0
	c-1.306,0.783-2.227,2.024-2.596,3.488c-0.369,1.466-0.137,2.997,0.65,4.306l15.73,26.182c0.689,1.147,2.183,1.519,3.333,0.829
	l7.66-4.601L53.775,148C52.712,146.231,50.827,145.248,48.897,145.248z"/>
<path style="fill:#FFDD95;" d="M162.181,154.26l-38.077-0.085c0,0-48.746-26.928-56.009-17.923
	c-7.264,9.004,19.413,21.874,19.413,21.874l-10.631,6.692l-34.97,0.633l-15.336-8.093c-4.444-2.345-9.986-0.623-12.329,3.758
	l0.384-0.717c-2.364,4.42-0.703,9.929,3.748,12.324l21.641,11.643l39.364,5.204c0,0,15.08,9.788,81.304-3.115"/>
<path d="M103.594,196.572c-16.109,0-23.016-2.558-25.295-3.7l-39.352-5.202l-22.19-11.938c-5.839-3.144-8.195-10.276-5.501-16.212
	l-0.024-0.014l0.384-0.717l0.024,0.012c3.437-5.533,10.673-7.554,16.526-4.461l14.56,7.683l33.138-0.601l4.84-3.048
	c-6.282-3.616-15.527-9.967-17.046-16.724c-0.614-2.731,0.002-5.338,1.78-7.543c2.871-3.553,9.409-6.252,34.731,4.589
	c11.373,4.871,21.902,10.486,24.813,12.064l37.209,0.085l-0.015,6.827l-38.953-0.089l-0.766-0.423
	c-0.121-0.067-12.225-6.733-25.015-12.206c-23.13-9.897-26.662-6.6-26.689-6.562c-0.466,0.579-0.587,1.07-0.433,1.756
	c1.021,4.547,11.535,11.45,18.674,14.899l5.547,2.679l-16.649,10.482l-36.799,0.667l-16.113-8.503
	c-2.657-1.398-5.944-0.502-7.52,1.999c-1.201,2.691-0.119,5.917,2.533,7.345l21.089,11.346l39.509,5.222l0.647,0.42
	c0.077,0.041,15.91,8.649,78.792-3.601l1.306,6.7C134.826,194.971,116.333,196.572,103.594,196.572z"/>
<rect x="160.546" y="143.292" style="fill:#595959;" width="30.701" height="58.095"/>
<path d="M191.24,204.8h-30.701c-1.884,0-3.413-1.529-3.413-3.413v-58.088c0-1.884,1.529-3.413,3.413-3.413h30.701
	c1.884,0,3.413,1.529,3.413,3.413v58.088C194.653,203.271,193.126,204.8,191.24,204.8z M163.952,197.973h23.875v-51.261h-23.875
	V197.973z"/>
<g>
</g>
<g>
</g>
<g>
</g>
<g>
</g>
<g>
</g>
<g>
</g>
<g>
</g>
<g>
</g>
<g>
</g>
<g>
</g>
<g>
</g>
<g>
</g>
<g>
</g>
<g>
</g>
<g>
</g>
</svg>
