<?xml version="1.0" encoding="iso-8859-1"?>
<!-- Generator: Adobe Illustrator 19.0.0, SVG Export Plug-In . SVG Version: 6.00 Build 0)  -->
<svg version="1.1" id="Capa_1" xmlns="http://www.w3.org/2000/svg" xmlns:xlink="http://www.w3.org/1999/xlink" x="0px" y="0px"
	 viewBox="0 0 212.609 212.609" style="enable-background:new 0 0 212.609 212.609;" xml:space="preserve">
<path style="fill:#EE5281;" d="M203.406,147.435l-90.274-53.898v-10.59c7.946-2.816,13.653-10.411,13.653-19.309
	c0-11.293-9.187-20.48-20.48-20.48s-20.48,9.187-20.48,20.48c0,3.77,3.057,6.827,6.827,6.827s6.827-3.057,6.827-6.827
	c0-3.763,3.062-6.827,6.827-6.827c3.765,0,6.827,3.063,6.827,6.827s-3.062,6.827-6.827,6.827c-3.77,0-6.827,3.057-6.827,6.827
	v16.246L9.206,147.435c-4.634,2.767-6.782,8.12-5.347,13.321c1.435,5.204,6.023,8.697,11.419,8.697h182.054
	c5.396,0,9.986-3.494,11.419-8.697C210.187,155.554,208.038,150.202,203.406,147.435z M27.686,152.301l78.619-46.94l78.621,46.94
	c1.64,0.98,0.945,3.497-0.964,3.497H28.65C26.739,155.798,26.046,153.281,27.686,152.301z"/>
<path d="M197.332,172.865H15.278c-6.951,0-12.863-4.502-14.711-11.203c-1.848-6.699,0.92-13.594,6.888-17.157L96.065,91.6V77.291
	c0-1.58,0.36-3.077,1-4.415c-1.336,0.642-2.833,1.002-4.413,1.002c-5.647,0-10.24-4.593-10.24-10.24
	c0-13.175,10.718-23.893,23.893-23.893s23.893,10.718,23.893,23.893c0,9.272-5.396,17.664-13.653,21.586v6.374l88.61,52.905
	c5.968,3.564,8.736,10.458,6.886,17.159C210.195,168.363,204.283,172.865,197.332,172.865z M106.305,53.398
	c5.647,0,10.24,4.593,10.24,10.24c0,5.647-4.593,10.24-10.24,10.24c-1.882,0-3.413,1.531-3.413,3.413v18.185l-91.936,54.888
	c-3.299,1.97-4.828,5.78-3.806,9.482c1.022,3.703,4.289,6.192,8.131,6.192h182.054c3.842,0,7.108-2.488,8.129-6.19
	c1.022-3.703-0.507-7.513-3.806-9.484l-91.938-54.888v-14.94l2.273-0.806c6.806-2.413,11.38-8.88,11.38-16.094
	c0-9.411-7.656-17.067-17.067-17.067s-17.067,7.656-17.067,17.067c0,1.882,1.531,3.413,3.413,3.413s3.413-1.531,3.413-3.413
	C96.065,57.991,100.66,53.398,106.305,53.398z M106.305,60.225c-1.882,0-3.413,1.531-3.413,3.413c0,1.58-0.36,3.077-1,4.415
	c1.336-0.642,2.835-1.002,4.413-1.002c1.882,0,3.413-1.531,3.413-3.413C109.719,61.756,108.188,60.225,106.305,60.225z
	 M183.962,159.211H28.65c-2.412,0-4.461-1.562-5.103-3.884c-0.642-2.324,0.319-4.719,2.388-5.955l0,0l80.37-47.986l80.37,47.985
	c2.07,1.237,3.031,3.63,2.389,5.955C188.423,157.65,186.372,159.211,183.962,159.211z M29.437,155.231L29.437,155.231
	L29.437,155.231L29.437,155.231z M34.205,152.385h144.201l-72.102-43.049L34.205,152.385z"/>
<g>
</g>
<g>
</g>
<g>
</g>
<g>
</g>
<g>
</g>
<g>
</g>
<g>
</g>
<g>
</g>
<g>
</g>
<g>
</g>
<g>
</g>
<g>
</g>
<g>
</g>
<g>
</g>
<g>
</g>
</svg>
