<?xml version="1.0" encoding="iso-8859-1"?>
<!-- Generator: Adobe Illustrator 19.0.0, SVG Export Plug-In . SVG Version: 6.00 Build 0)  -->
<svg version="1.1" id="Capa_1" xmlns="http://www.w3.org/2000/svg" xmlns:xlink="http://www.w3.org/1999/xlink" x="0px" y="0px"
	 viewBox="0 0 212.609 212.609" style="enable-background:new 0 0 212.609 212.609;" xml:space="preserve">
<path style="fill:#EE5281;" d="M203.406,116.715l-90.274-53.898v-10.59c7.946-2.816,13.653-10.411,13.653-19.309
	c0-11.293-9.187-20.48-20.48-20.48s-20.48,9.187-20.48,20.48c0,3.77,3.057,6.827,6.827,6.827s6.827-3.057,6.827-6.827
	c0-3.763,3.062-6.827,6.827-6.827c3.765,0,6.827,3.063,6.827,6.827s-3.062,6.827-6.827,6.827c-3.77,0-6.827,3.057-6.827,6.827
	v16.246L9.206,116.715c-4.634,2.767-6.782,8.12-5.347,13.321c1.435,5.204,6.023,8.697,11.419,8.697h182.054
	c5.396,0,9.986-3.494,11.419-8.697C210.187,124.834,208.038,119.482,203.406,116.715z M25.291,123.011l81.014-48.37l81.014,48.37
	c0.969,0.579,0.56,2.067-0.57,2.067H25.86C24.732,125.078,24.322,123.59,25.291,123.011z"/>
<path d="M197.332,142.145H15.278c-6.951,0-12.863-4.502-14.711-11.203c-1.848-6.699,0.92-13.594,6.888-17.157l88.61-52.905V46.571
	c0-1.58,0.36-3.077,1-4.415c-1.336,0.642-2.833,1.002-4.413,1.002c-5.647,0-10.24-4.593-10.24-10.24
	c0-13.175,10.718-23.893,23.893-23.893s23.893,10.718,23.893,23.893c0,9.272-5.396,17.664-13.653,21.586v6.374l88.61,52.905
	c5.968,3.564,8.736,10.458,6.886,17.159C210.195,137.643,204.283,142.145,197.332,142.145z M106.305,22.678
	c5.647,0,10.24,4.593,10.24,10.24s-4.593,10.24-10.24,10.24c-1.882,0-3.413,1.531-3.413,3.413v18.185l-91.936,54.888
	c-3.299,1.97-4.828,5.78-3.806,9.482c1.022,3.703,4.289,6.192,8.131,6.192h182.054c3.842,0,7.108-2.488,8.129-6.19
	c1.022-3.703-0.507-7.513-3.806-9.484l-91.938-54.888v-14.94l2.273-0.806c6.806-2.413,11.38-8.88,11.38-16.094
	c0-9.411-7.656-17.067-17.067-17.067s-17.067,7.656-17.067,17.067c0,1.882,1.531,3.413,3.413,3.413s3.413-1.531,3.413-3.413
	C96.065,27.271,100.66,22.678,106.305,22.678z M106.305,29.505c-1.882,0-3.413,1.531-3.413,3.413c0,1.58-0.36,3.077-1,4.415
	c1.336-0.642,2.835-1.002,4.413-1.002c1.882,0,3.413-1.531,3.413-3.413C109.719,31.036,108.188,29.505,106.305,29.505z
	 M186.749,128.491H25.86c-2.062,0-3.814-1.335-4.364-3.323c-0.548-1.988,0.275-4.033,2.045-5.088l82.765-49.415l82.765,49.415
	c1.77,1.053,2.591,3.098,2.043,5.086C190.565,127.157,188.811,128.491,186.749,128.491z M34.205,121.665h144.2l-72.1-43.049
	L34.205,121.665z"/>
<path style="fill:#2ABBE9;" d="M152.189,200.171H60.421c-6.707,0-12.143-5.437-12.143-12.143v-62.95h116.053v62.95
	C164.332,194.734,158.896,200.171,152.189,200.171z"/>
<path d="M152.189,203.585H60.421c-8.578,0-15.556-6.979-15.556-15.556v-66.364h122.88v66.364
	C167.745,196.606,160.767,203.585,152.189,203.585z M51.692,128.491v59.537c0,4.813,3.917,8.73,8.73,8.73h91.767
	c4.813,0,8.73-3.917,8.73-8.73v-59.537H51.692z"/>
<rect x="58.519" y="138.731" width="6.827" height="30.72"/>
<g>
</g>
<g>
</g>
<g>
</g>
<g>
</g>
<g>
</g>
<g>
</g>
<g>
</g>
<g>
</g>
<g>
</g>
<g>
</g>
<g>
</g>
<g>
</g>
<g>
</g>
<g>
</g>
<g>
</g>
</svg>
