<?xml version="1.0" encoding="iso-8859-1"?>
<!-- Generator: Adobe Illustrator 19.0.0, SVG Export Plug-In . SVG Version: 6.00 Build 0)  -->
<svg version="1.1" id="Capa_1" xmlns="http://www.w3.org/2000/svg" xmlns:xlink="http://www.w3.org/1999/xlink" x="0px" y="0px"
	 viewBox="0 0 211.627 211.627" style="enable-background:new 0 0 211.627 211.627;" xml:space="preserve">
<polygon style="fill:#83D816;" points="180.907,174.08 30.72,174.08 13.653,64.853 197.973,64.853 "/>
<path d="M180.907,177.493H30.72c-1.681,0-3.113-1.225-3.372-2.886L10.281,65.381c-0.155-0.985,0.13-1.988,0.778-2.746
	c0.649-0.758,1.597-1.195,2.594-1.195h184.32c0.997,0,1.946,0.437,2.594,1.193c0.649,0.758,0.934,1.761,0.778,2.746l-17.067,109.227
	C184.02,176.268,182.588,177.493,180.907,177.493z M33.642,170.667h144.343l16-102.4H17.642L33.642,170.667z"/>
<path d="M170.667,157.013c-1.884,0-3.413-1.529-3.413-3.413V85.333h-10.24V153.6c0,1.884-1.529,3.413-3.413,3.413
	s-3.413-1.529-3.413-3.413V81.92c0-1.884,1.529-3.413,3.413-3.413h17.067c1.884,0,3.413,1.529,3.413,3.413v71.68
	C174.08,155.484,172.551,157.013,170.667,157.013z"/>
<path d="M133.12,157.013c-1.884,0-3.413-1.529-3.413-3.413V85.333h-10.24V153.6c0,1.884-1.529,3.413-3.413,3.413
	c-1.884,0-3.413-1.529-3.413-3.413V81.92c0-1.884,1.529-3.413,3.413-3.413h17.067c1.884,0,3.413,1.529,3.413,3.413v71.68
	C136.533,155.484,135.004,157.013,133.12,157.013z"/>
<path d="M95.573,157.013c-1.884,0-3.413-1.529-3.413-3.413V85.333H81.92V153.6c0,1.884-1.529,3.413-3.413,3.413
	c-1.884,0-3.413-1.529-3.413-3.413V81.92c0-1.884,1.529-3.413,3.413-3.413h17.067c1.884,0,3.413,1.529,3.413,3.413v71.68
	C98.987,155.484,97.458,157.013,95.573,157.013z"/>
<path d="M58.027,157.013c-1.884,0-3.413-1.529-3.413-3.413V85.333h-10.24V153.6c0,1.884-1.529,3.413-3.413,3.413
	c-1.884,0-3.413-1.529-3.413-3.413V81.92c0-1.884,1.529-3.413,3.413-3.413h17.067c1.884,0,3.413,1.529,3.413,3.413v71.68
	C61.44,155.484,59.911,157.013,58.027,157.013z"/>
<rect x="3.413" y="47.787" style="fill:#83D816;" width="204.8" height="17.067"/>
<path d="M208.213,68.267H3.413C1.529,68.267,0,66.737,0,64.853V47.787c0-1.884,1.529-3.413,3.413-3.413h204.8
	c1.884,0,3.413,1.529,3.413,3.413v17.067C211.627,66.737,210.098,68.267,208.213,68.267z M6.827,61.44H204.8V51.2H6.827V61.44z"/>
<rect x="95.573" y="6.827" style="fill:#777777;" width="20.48" height="58.027"/>
<path d="M116.053,68.267h-20.48c-1.884,0-3.413-1.529-3.413-3.413V6.827c0-1.884,1.529-3.413,3.413-3.413h20.48
	c1.884,0,3.413,1.529,3.413,3.413v58.027C119.467,66.737,117.938,68.267,116.053,68.267z M98.987,61.44h13.653v-51.2H98.987V61.44z"
	/>
<circle style="fill:#EE5281;" cx="174.08" cy="170.667" r="34.133"/>
<path d="M174.08,208.213c-20.704,0-37.547-16.843-37.547-37.547s16.843-37.547,37.547-37.547s37.547,16.843,37.547,37.547
	S194.784,208.213,174.08,208.213z M174.08,139.947c-16.939,0-30.72,13.781-30.72,30.72s13.781,30.72,30.72,30.72
	s30.72-13.781,30.72-30.72S191.019,139.947,174.08,139.947z"/>
<rect x="153.6" y="167.253" width="40.96" height="6.827"/>
<g>
</g>
<g>
</g>
<g>
</g>
<g>
</g>
<g>
</g>
<g>
</g>
<g>
</g>
<g>
</g>
<g>
</g>
<g>
</g>
<g>
</g>
<g>
</g>
<g>
</g>
<g>
</g>
<g>
</g>
</svg>
