<?xml version="1.0" encoding="iso-8859-1"?>
<!-- Generator: Adobe Illustrator 19.0.0, SVG Export Plug-In . SVG Version: 6.00 Build 0)  -->
<svg version="1.1" id="Capa_1" xmlns="http://www.w3.org/2000/svg" xmlns:xlink="http://www.w3.org/1999/xlink" x="0px" y="0px"
	 viewBox="0 0 191.145 191.145" style="enable-background:new 0 0 191.145 191.145;" xml:space="preserve">
<path style="fill:#FFDD95;" d="M39.106,129.478c-4.306,2.587-5.717,8.144-3.113,12.481l15.732,26.18
	c1.662,2.767,5.251,3.661,8.016,1.999l10.586-6.361l-18.741-31.189C49,128.283,43.441,126.872,39.106,129.478z"/>
<path d="M56.749,174.391c-0.751,0-1.509-0.092-2.256-0.278c-2.398-0.599-4.42-2.096-5.693-4.214l-15.732-26.182
	c-3.553-5.912-1.632-13.612,4.28-17.164l0,0c5.908-3.548,13.612-1.635,17.166,4.277l20.499,34.118l-13.512,8.119
	C60.04,173.94,58.407,174.391,56.749,174.391z M43.782,131.593c-0.997,0-2.005,0.261-2.918,0.811l0,0
	c-2.686,1.615-3.558,5.111-1.946,7.796l15.73,26.18c0.335,0.556,0.865,0.949,1.495,1.104c0.633,0.162,1.285,0.06,1.838-0.273
	l7.661-4.603L48.66,134.344C47.597,132.576,45.712,131.593,43.782,131.593z"/>
<path style="fill:#FFDD95;" d="M157.066,140.605l-38.077-0.085c0,0-48.746-26.928-56.009-17.923s19.413,21.874,19.413,21.874
	l-10.631,6.692l-34.97,0.633l-15.336-8.093c-4.444-2.345-9.986-0.623-12.329,3.758l0.384-0.717
	c-2.364,4.42-0.703,9.929,3.748,12.324l21.641,11.643l39.364,5.204c0,0,15.08,9.788,81.304-3.115"/>
<path d="M98.479,182.917c-16.109,0-23.016-2.558-25.295-3.7l-39.354-5.202l-22.19-11.938c-5.84-3.144-8.197-10.276-5.501-16.213
	l-0.024-0.012l0.002-0.002l0.382-0.713l0.024,0.012c3.439-5.536,10.675-7.549,16.526-4.463l14.558,7.683l33.14-0.601l4.84-3.048
	c-6.282-3.616-15.527-9.969-17.044-16.725c-0.614-2.731,0.002-5.337,1.78-7.542c2.869-3.555,9.409-6.252,34.729,4.589
	c11.373,4.869,21.903,10.486,24.813,12.064l37.21,0.084l-0.017,6.827l-38.951-0.087l-0.766-0.425
	c-0.121-0.067-12.225-6.733-25.015-12.206c-23.129-9.897-26.658-6.598-26.689-6.562c-0.466,0.579-0.589,1.07-0.433,1.758
	c1.026,4.557,11.537,11.455,18.673,14.899l5.552,2.678l-16.654,10.484l-36.799,0.667l-16.111-8.503
	c-2.664-1.405-5.946-0.5-7.52,1.999c-1.201,2.691-0.119,5.917,2.533,7.345l21.088,11.346l39.509,5.222l0.647,0.42
	c0.079,0.041,15.908,8.651,78.792-3.601l1.307,6.7C129.711,181.316,111.218,182.917,98.479,182.917z"/>
<rect x="155.426" y="129.637" style="fill:#595959;" width="30.701" height="58.095"/>
<path d="M186.123,191.145h-30.701c-1.884,0-3.413-1.529-3.413-3.413v-58.088c0-1.884,1.529-3.413,3.413-3.413h30.701
	c1.884,0,3.413,1.529,3.413,3.413v58.088C189.537,189.616,188.009,191.145,186.123,191.145z M158.835,184.318h23.875v-51.261
	h-23.875V184.318z"/>
<polygon style="fill:#ED5481;" points="56.601,110.932 108.182,23.892 5.022,23.892 "/>
<path d="M56.603,114.345c-1.205,0-2.321-0.637-2.937-1.673L2.085,25.632c-0.625-1.055-0.637-2.364-0.029-3.43
	c0.606-1.065,1.739-1.724,2.964-1.724H108.18c1.227,0,2.359,0.659,2.964,1.724c0.608,1.067,0.597,2.376-0.029,3.43l-51.581,87.04
	C58.924,113.708,57.808,114.345,56.603,114.345z M11.013,27.305l45.59,76.931l45.588-76.931H11.013z"/>
<polygon style="fill:#ED5481;" points="107.422,23.892 5.022,23.892 15.615,3.412 96.829,3.412 "/>
<path d="M107.422,27.305H5.022c-1.191,0-2.297-0.621-2.915-1.638c-0.62-1.017-0.664-2.284-0.116-3.342l10.593-20.48
	C13.171,0.712,14.339,0,15.615,0h81.213c1.277,0,2.446,0.712,3.031,1.845l10.593,20.48c0.546,1.058,0.503,2.324-0.116,3.342
	C109.719,26.684,108.613,27.305,107.422,27.305z M10.63,20.478h91.184L94.752,6.825H17.692L10.63,20.478z"/>
<path d="M56.222,109.225c-1.884,0-3.413-1.529-3.413-3.413V58.025c0-1.884,1.529-3.413,3.413-3.413c1.884,0,3.413,1.529,3.413,3.413
	v47.787C59.635,107.696,58.106,109.225,56.222,109.225z"/>
<g>
</g>
<g>
</g>
<g>
</g>
<g>
</g>
<g>
</g>
<g>
</g>
<g>
</g>
<g>
</g>
<g>
</g>
<g>
</g>
<g>
</g>
<g>
</g>
<g>
</g>
<g>
</g>
<g>
</g>
</svg>
