<?xml version="1.0" encoding="iso-8859-1"?>
<!-- Generator: Adobe Illustrator 19.0.0, SVG Export Plug-In . SVG Version: 6.00 Build 0)  -->
<svg version="1.1" id="Capa_1" xmlns="http://www.w3.org/2000/svg" xmlns:xlink="http://www.w3.org/1999/xlink" x="0px" y="0px"
	 viewBox="0 0 187.928 187.928" style="enable-background:new 0 0 187.928 187.928;" xml:space="preserve">
<path style="fill:#FFDD95;" d="M37.497,124.457c-4.306,2.587-5.717,8.144-3.113,12.481l15.732,26.18
	c1.662,2.767,5.251,3.661,8.016,1.999l10.586-6.361l-18.741-31.189C47.391,123.262,41.832,121.851,37.497,124.457z"/>
<path d="M55.139,169.37c-0.751,0-1.509-0.092-2.256-0.278c-2.398-0.599-4.42-2.096-5.693-4.214l-15.732-26.182
	c-3.553-5.912-1.632-13.612,4.28-17.164l0,0c5.907-3.548,13.614-1.635,17.166,4.277l20.499,34.118l-13.512,8.119
	C58.431,168.919,56.798,169.37,55.139,169.37z M42.173,126.572c-0.997,0-2.005,0.261-2.918,0.811l0,0
	c-2.686,1.615-3.558,5.111-1.946,7.796l15.73,26.18c0.335,0.556,0.865,0.949,1.495,1.104c0.633,0.162,1.285,0.06,1.838-0.273
	l7.661-4.603l-16.983-28.264C45.988,127.555,44.104,126.572,42.173,126.572z"/>
<path style="fill:#FFDD95;" d="M155.457,135.584l-38.077-0.085c0,0-48.746-26.928-56.009-17.923s19.413,21.874,19.413,21.874
	l-10.631,6.692l-34.97,0.633l-15.336-8.093c-4.444-2.345-9.986-0.623-12.329,3.758l0.384-0.717
	c-2.364,4.42-0.703,9.929,3.748,12.324L33.29,165.69l39.364,5.204c0,0,15.08,9.788,81.302-3.115"/>
<path d="M96.87,177.896c-16.109,0-23.016-2.558-25.295-3.7l-39.354-5.202l-22.19-11.938c-5.84-3.144-8.197-10.276-5.501-16.213
	l-0.024-0.012l0.002-0.002l0.382-0.713l0.024,0.012c3.437-5.536,10.677-7.549,16.526-4.463l14.558,7.683l33.14-0.601l4.84-3.048
	c-6.282-3.616-15.527-9.969-17.044-16.725c-0.614-2.731,0.002-5.337,1.78-7.542c2.869-3.555,9.409-6.252,34.729,4.589
	c11.373,4.869,21.903,10.486,24.813,12.064l37.21,0.084l-0.017,6.827l-38.951-0.087l-0.766-0.425
	c-0.121-0.067-12.225-6.733-25.015-12.206c-23.129-9.897-26.658-6.598-26.689-6.562c-0.466,0.579-0.589,1.07-0.433,1.758
	c1.026,4.557,11.537,11.455,18.673,14.899l5.552,2.678l-16.654,10.484l-36.799,0.667l-16.111-8.503
	c-2.662-1.405-5.946-0.5-7.52,1.999c-1.201,2.691-0.119,5.917,2.533,7.346l21.088,11.346l39.509,5.222l0.647,0.42
	c0.077,0.041,15.908,8.651,78.792-3.601l1.307,6.7C128.102,176.295,109.609,177.896,96.87,177.896z"/>
<rect x="153.817" y="124.616" style="fill:#595959;" width="30.701" height="58.095"/>
<path d="M184.515,186.124h-30.701c-1.884,0-3.413-1.529-3.413-3.413v-58.088c0-1.884,1.529-3.413,3.413-3.413h30.701
	c1.884,0,3.413,1.529,3.413,3.413v58.088C187.928,184.595,186.4,186.124,184.515,186.124z M157.227,179.297h23.875v-51.261h-23.875
	V179.297z"/>
<circle style="fill:#85D839;" cx="51.195" cy="53.004" r="47.787"/>
<path d="M51.2,104.204c-28.232,0-51.2-22.968-51.2-51.2s22.968-51.2,51.2-51.2s51.2,22.968,51.2,51.2S79.432,104.204,51.2,104.204z
	 M51.2,8.631c-24.468,0-44.373,19.907-44.373,44.373S26.732,97.377,51.2,97.377s44.373-19.907,44.373-44.373
	S75.668,8.631,51.2,8.631z"/>
<circle style="fill:#9DFB46;" cx="51.195" cy="53.004" r="34.133"/>
<path d="M51.2,90.551c-20.704,0-37.547-16.843-37.547-37.547S30.496,15.457,51.2,15.457S88.747,32.3,88.747,53.004
	S71.904,90.551,51.2,90.551z M51.2,22.284c-16.939,0-30.72,13.781-30.72,30.72s13.781,30.72,30.72,30.72s30.72-13.781,30.72-30.72
	S68.139,22.284,51.2,22.284z"/>
<path d="M49.391,74.474v-5.17c-2.97-0.053-6.042-0.973-7.834-2.253l1.229-3.43c1.843,1.227,4.506,2.2,7.371,2.2
	c3.635,0,6.093-2.099,6.093-5.016c0-2.816-1.997-4.557-5.786-6.093c-5.224-2.046-8.448-4.403-8.448-8.856
	c0-4.25,3.023-7.473,7.731-8.243v-5.169h3.173v4.966c3.072,0.101,5.171,0.92,6.656,1.79l-1.28,3.379
	c-1.075-0.613-3.174-1.741-6.451-1.741c-3.942,0-5.427,2.353-5.427,4.403c0,2.661,1.894,3.994,6.349,5.837
	c5.274,2.15,7.936,4.809,7.936,9.366c0,4.047-2.816,7.834-8.09,8.707v5.323h-3.222V74.474z"/>
<rect x="47.782" y="18.871" width="6.827" height="6.827"/>
<rect x="47.782" y="80.311" width="6.827" height="6.827"/>
<rect x="17.062" y="49.591" width="10.24" height="6.827"/>
<g>
</g>
<g>
</g>
<g>
</g>
<g>
</g>
<g>
</g>
<g>
</g>
<g>
</g>
<g>
</g>
<g>
</g>
<g>
</g>
<g>
</g>
<g>
</g>
<g>
</g>
<g>
</g>
<g>
</g>
</svg>
