<?xml version="1.0" encoding="iso-8859-1"?>
<!-- Generator: Adobe Illustrator 19.0.0, SVG Export Plug-In . SVG Version: 6.00 Build 0)  -->
<svg version="1.1" id="Capa_1" xmlns="http://www.w3.org/2000/svg" xmlns:xlink="http://www.w3.org/1999/xlink" x="0px" y="0px"
	 viewBox="0 0 215.1 215.1" style="enable-background:new 0 0 215.1 215.1;" xml:space="preserve">
<path style="fill:#FBAD4A;" d="M205.233,126.353H101.966c-3.531,0-6.393-2.862-6.393-6.393V57.653c0-3.531,2.862-6.393,6.393-6.393
	h103.267c3.531,0,6.393,2.862,6.393,6.393v62.307C211.627,123.489,208.765,126.353,205.233,126.353z"/>
<path d="M205.233,129.826H101.966c-5.441,0-9.866-4.425-9.866-9.866V57.653c0-5.441,4.427-9.866,9.866-9.866h103.267
	c5.441,0,9.866,4.425,9.866,9.866v62.307C215.101,125.399,210.674,129.826,205.233,129.826z M101.968,54.733
	c-1.609,0-2.92,1.311-2.92,2.92v62.307c0,1.609,1.311,2.92,2.92,2.92h103.267c1.609,0,2.92-1.311,2.92-2.92V57.653
	c0-1.609-1.311-2.92-2.92-2.92L101.968,54.733L101.968,54.733z"/>
<rect x="95.57" y="68.33" style="fill:#DDDDDD;" width="116.053" height="20.48"/>
<path d="M211.627,92.279H95.573c-1.918,0-3.473-1.555-3.473-3.473v-20.48c0-1.918,1.555-3.473,3.473-3.473h116.053
	c1.918,0,3.473,1.555,3.473,3.473v20.48C215.101,90.725,213.545,92.279,211.627,92.279z M99.048,85.332h109.107V71.798H99.048
	V85.332z"/>
<path style="fill:#FFDD95;" d="M126.293,143.3l3.413-27.187h32.427c4.712,0,8.533-3.821,8.533-8.533s-3.821-8.533-8.533-8.533
	h-35.84h-17.067H81.457c-6.267,0-11.489,4.381-12.832,10.24H20.48v44.373h48.145c1.345,5.859,6.566,10.24,12.832,10.24h24.236
	C117.072,163.9,126.293,154.677,126.293,143.3z"/>
<path d="M105.694,167.313H81.459c-6.832,0-12.793-4.094-15.319-10.24H20.48c-1.884,0-3.413-1.529-3.413-3.413v-44.373
	c0-1.884,1.529-3.413,3.413-3.413h45.66c2.524-6.146,8.487-10.24,15.319-10.24h80.676c6.586,0,11.947,5.359,11.947,11.947
	c0,6.588-5.361,11.947-11.947,11.947h-29.414l-3.014,23.996C129.587,156.66,118.861,167.313,105.694,167.313z M23.893,150.246
	h44.732c1.592,0,2.971,1.099,3.326,2.65c1.027,4.468,4.936,7.59,9.506,7.59h24.235c9.477,0,17.186-7.709,17.186-17.186
	c0-0.142,0.009-0.285,0.027-0.425l3.413-27.187c0.215-1.707,1.667-2.988,3.386-2.988h32.427c2.823,0,5.12-2.297,5.12-5.12
	s-2.297-5.12-5.12-5.12H81.456c-4.572,0-8.48,3.121-9.506,7.59c-0.355,1.551-1.736,2.65-3.326,2.65H23.892v37.547H23.893z"/>
<path d="M129.707,119.526H112.64c-1.884,0-3.413-1.529-3.413-3.413c0-1.884,1.529-3.413,3.413-3.413h17.067
	c1.884,0,3.413,1.529,3.413,3.413C133.12,117.997,131.593,119.526,129.707,119.526z"/>
<path d="M126.293,133.18h-10.24c-1.884,0-3.413-1.529-3.413-3.413c0-1.884,1.529-3.413,3.413-3.413h10.24
	c1.884,0,3.413,1.529,3.413,3.413C129.707,131.651,128.179,133.18,126.293,133.18z"/>
<path d="M126.293,146.833h-10.24c-1.884,0-3.413-1.529-3.413-3.413c0-1.884,1.529-3.413,3.413-3.413h10.24
	c1.884,0,3.413,1.529,3.413,3.413C129.707,145.304,128.179,146.833,126.293,146.833z"/>
<rect x="3.413" y="99.05" style="fill:#26BBEC;" width="27.307" height="64.853"/>
<path d="M30.72,167.313H3.413C1.529,167.313,0,165.784,0,163.9V99.046c0-1.884,1.529-3.413,3.413-3.413H30.72
	c1.884,0,3.413,1.529,3.413,3.413V163.9C34.133,165.784,32.606,167.313,30.72,167.313z M6.827,160.486h20.48V102.46H6.827V160.486z"
	/>
<circle style="fill:#DDDDDD;" cx="17.063" cy="150.25" r="3.413"/>
<path d="M17.067,157.073c-3.765,0-6.827-3.062-6.827-6.827s3.062-6.827,6.827-6.827s6.827,3.062,6.827,6.827
	S20.832,157.073,17.067,157.073z M17.067,150.246h0.017H17.067z M17.067,150.246h0.017H17.067z M17.067,150.245h0.017H17.067z
	 M17.067,150.245h0.017H17.067z M17.067,150.243C17.067,150.245,17.067,150.245,17.067,150.243L17.067,150.243z M17.067,150.243
	h0.017H17.067z M17.067,150.243h0.017H17.067z M17.067,150.241h0.017H17.067z"/>
<g>
</g>
<g>
</g>
<g>
</g>
<g>
</g>
<g>
</g>
<g>
</g>
<g>
</g>
<g>
</g>
<g>
</g>
<g>
</g>
<g>
</g>
<g>
</g>
<g>
</g>
<g>
</g>
<g>
</g>
</svg>
