<?xml version="1.0" encoding="iso-8859-1"?>
<!-- Generator: Adobe Illustrator 19.0.0, SVG Export Plug-In . SVG Version: 6.00 Build 0)  -->
<svg version="1.1" id="Capa_1" xmlns="http://www.w3.org/2000/svg" xmlns:xlink="http://www.w3.org/1999/xlink" x="0px" y="0px"
	 viewBox="0 0 187.733 187.733" style="enable-background:new 0 0 187.733 187.733;" xml:space="preserve">
<rect x="3.413" y="11.947" style="fill:#85D839;" width="180.907" height="75.093"/>
<path d="M184.32,90.453H3.413C1.529,90.453,0,88.924,0,87.04V11.947c0-1.884,1.529-3.413,3.413-3.413H184.32
	c1.884,0,3.413,1.529,3.413,3.413V87.04C187.733,88.924,186.204,90.453,184.32,90.453z M6.827,83.627h174.08V15.36H6.827V83.627z"/>
<circle style="fill:#9DFB46;" cx="95.573" cy="49.493" r="27.307"/>
<path d="M95.573,80.213c-16.939,0-30.72-13.781-30.72-30.72s13.781-30.72,30.72-30.72s30.72,13.781,30.72,30.72
	S112.512,80.213,95.573,80.213z M95.573,25.6c-13.175,0-23.893,10.718-23.893,23.893s10.718,23.893,23.893,23.893
	s23.893-10.718,23.893-23.893S108.749,25.6,95.573,25.6z"/>
<path d="M93.766,70.963v-5.17c-2.973-0.053-6.043-0.973-7.834-2.253l1.227-3.43c1.843,1.227,4.507,2.2,7.373,2.2
	c3.633,0,6.093-2.099,6.093-5.016c0-2.816-2-4.557-5.787-6.093c-5.224-2.046-8.446-4.403-8.446-8.856
	c0-4.25,3.021-7.473,7.729-8.243v-5.169h3.173V33.9c3.07,0.101,5.17,0.92,6.656,1.79l-1.28,3.379
	c-1.073-0.613-3.173-1.741-6.453-1.741c-3.941,0-5.427,2.353-5.427,4.403c0,2.661,1.896,3.994,6.35,5.837
	c5.274,2.15,7.936,4.809,7.936,9.366c0,4.047-2.816,7.834-8.09,8.707v5.323h-3.22V70.963z"/>
<path style="fill:#FFDD95;" d="M156.894,69.973l-27.187-3.413V34.133c0-4.712-3.821-8.533-8.533-8.533
	c-4.712,0-8.533,3.821-8.533,8.533v35.84V87.04v27.769c0,6.267,4.381,11.489,10.24,12.832v48.145h44.373v-48.145
	c5.859-1.345,10.24-6.566,10.24-12.832V90.573C177.493,79.196,168.27,69.973,156.894,69.973z"/>
<path d="M167.253,179.2H122.88c-1.884,0-3.413-1.529-3.413-3.413v-45.66c-6.146-2.524-10.24-8.487-10.24-15.319V34.133
	c0-6.586,5.361-11.947,11.947-11.947c6.586,0,11.947,5.361,11.947,11.947v29.414l23.997,3.014
	c13.138,0.118,23.789,10.844,23.789,24.011v24.235c0,6.832-4.094,12.793-10.24,15.319v45.66
	C170.667,177.671,169.137,179.2,167.253,179.2z M126.293,172.373h37.547v-44.732c0-1.592,1.099-2.971,2.65-3.326
	c4.468-1.027,7.59-4.936,7.59-9.506V90.575c0-9.477-7.709-17.186-17.184-17.186c-0.142,0-0.283-0.009-0.425-0.027l-27.189-3.413
	c-1.708-0.217-2.988-1.667-2.988-3.388V34.133c0-2.823-2.297-5.12-5.12-5.12c-2.823,0-5.12,2.297-5.12,5.12v80.676
	c0,4.572,3.121,8.48,7.59,9.506c1.551,0.355,2.65,1.736,2.65,3.326V172.373z"/>
<path d="M129.707,87.04c-1.884,0-3.413-1.529-3.413-3.413V66.56c0-1.884,1.529-3.413,3.413-3.413c1.884,0,3.413,1.529,3.413,3.413
	v17.067C133.12,85.511,131.591,87.04,129.707,87.04z"/>
<path d="M143.36,83.627c-1.884,0-3.413-1.529-3.413-3.413v-10.24c0-1.884,1.529-3.413,3.413-3.413s3.413,1.529,3.413,3.413v10.24
	C146.773,82.098,145.244,83.627,143.36,83.627z"/>
<path d="M157.013,83.627c-1.884,0-3.413-1.529-3.413-3.413v-10.24c0-1.884,1.529-3.413,3.413-3.413s3.413,1.529,3.413,3.413v10.24
	C160.427,82.098,158.898,83.627,157.013,83.627z"/>
<g>
</g>
<g>
</g>
<g>
</g>
<g>
</g>
<g>
</g>
<g>
</g>
<g>
</g>
<g>
</g>
<g>
</g>
<g>
</g>
<g>
</g>
<g>
</g>
<g>
</g>
<g>
</g>
<g>
</g>
</svg>
