<?xml version="1.0" encoding="iso-8859-1"?>
<!-- Generator: Adobe Illustrator 19.0.0, SVG Export Plug-In . SVG Version: 6.00 Build 0)  -->
<svg version="1.1" id="Capa_1" xmlns="http://www.w3.org/2000/svg" xmlns:xlink="http://www.w3.org/1999/xlink" x="0px" y="0px"
	 viewBox="0 0 197.974 197.974" style="enable-background:new 0 0 197.974 197.974;" xml:space="preserve">
<circle style="fill:#595959;" cx="68.267" cy="165.547" r="17.067"/>
<path d="M68.267,186.027c-11.293,0-20.48-9.187-20.48-20.48c0-11.293,9.187-20.48,20.48-20.48c11.293,0,20.48,9.187,20.48,20.48
	C88.747,176.84,79.56,186.027,68.267,186.027z M68.267,151.894c-7.528,0-13.653,6.125-13.653,13.653
	c0,7.528,6.125,13.653,13.653,13.653c7.528,0,13.653-6.125,13.653-13.653C81.92,158.019,75.795,151.894,68.267,151.894z"/>
<ellipse style="fill:#595959;" cx="143.347" cy="165.552" rx="17.066" ry="17.066"/>
<path d="M143.35,186.027c-10.822,0-19.888-8.515-20.444-19.442c-0.572-11.278,8.137-20.92,19.415-21.494
	c11.269-0.577,20.919,8.137,21.494,19.415l0,0c0.572,11.278-8.137,20.92-19.415,21.494
	C144.048,186.019,143.696,186.027,143.35,186.027z M143.367,151.892c-0.232,0-0.464,0.005-0.7,0.019
	c-7.518,0.382-13.326,6.81-12.943,14.329c0.382,7.518,6.803,13.343,14.329,12.943c7.518-0.382,13.326-6.81,12.943-14.329
	C156.626,157.57,150.581,151.892,143.367,151.892z"/>
<path d="M160.427,138.24H54.613c-1.884,0-3.413-1.529-3.413-3.413s1.529-3.413,3.413-3.413h103.238l4.876-17.067H47.787
	c-1.567,0-2.932-1.067-3.311-2.586L21.228,18.774H3.413C1.529,18.774,0,17.245,0,15.36s1.529-3.413,3.413-3.413h20.48
	c1.567,0,2.932,1.067,3.311,2.586l23.248,92.988h116.801c1.07,0,2.08,0.502,2.726,1.357c0.645,0.855,0.852,1.963,0.556,2.993
	l-6.827,23.893C163.29,137.23,161.951,138.24,160.427,138.24z"/>
<path d="M170.667,104.107c-0.358,0-0.722-0.056-1.08-0.176c-1.789-0.597-2.755-2.529-2.159-4.318l22.397-67.186H44.373
	c-1.884,0-3.413-1.529-3.413-3.413s1.529-3.413,3.413-3.413H194.56c1.097,0,2.128,0.527,2.77,1.418
	c0.642,0.891,0.816,2.034,0.469,3.075l-23.893,71.68C173.428,103.203,172.095,104.107,170.667,104.107z"/>
<path d="M184.32,52.907H51.2c-1.884,0-3.413-1.529-3.413-3.413c0-1.884,1.529-3.413,3.413-3.413h133.12
	c1.884,0,3.413,1.529,3.413,3.413C187.733,51.378,186.204,52.907,184.32,52.907z"/>
<path d="M177.493,73.387H58.027c-1.884,0-3.413-1.529-3.413-3.413c0-1.884,1.529-3.413,3.413-3.413h119.467
	c1.884,0,3.413,1.529,3.413,3.413C180.907,71.858,179.378,73.387,177.493,73.387z"/>
<path d="M170.667,93.867H61.44c-1.884,0-3.413-1.529-3.413-3.413c0-1.884,1.529-3.413,3.413-3.413h109.227
	c1.884,0,3.413,1.529,3.413,3.413C174.08,92.338,172.551,93.867,170.667,93.867z"/>
<g>
</g>
<g>
</g>
<g>
</g>
<g>
</g>
<g>
</g>
<g>
</g>
<g>
</g>
<g>
</g>
<g>
</g>
<g>
</g>
<g>
</g>
<g>
</g>
<g>
</g>
<g>
</g>
<g>
</g>
</svg>
