<?xml version="1.0" encoding="iso-8859-1"?>
<!-- Generator: Adobe Illustrator 19.0.0, SVG Export Plug-In . SVG Version: 6.00 Build 0)  -->
<svg version="1.1" id="Capa_1" xmlns="http://www.w3.org/2000/svg" xmlns:xlink="http://www.w3.org/1999/xlink" x="0px" y="0px"
	 viewBox="0 0 201.425 201.425" style="enable-background:new 0 0 201.425 201.425;" xml:space="preserve">
<path style="fill:#FBAD4A;" d="M166.806,97.21l-15.785-6.49l30.503-74.187c1.792-4.359,6.779-6.439,11.138-4.647l0,0
	c4.359,1.792,6.439,6.779,4.647,11.138L166.806,97.21z"/>
<path d="M166.804,100.685c-0.44,0-0.887-0.084-1.319-0.263l-15.785-6.49c-0.853-0.35-1.529-1.024-1.884-1.876
	c-0.355-0.85-0.357-1.807-0.007-2.659l30.503-74.187c2.519-6.124,9.547-9.052,15.671-6.54c6.124,2.519,9.057,9.549,6.54,15.672
	L170.02,98.53C169.467,99.875,168.17,100.685,166.804,100.685z M155.554,88.829l9.359,3.849l29.182-70.975
	c1.062-2.58-0.176-5.543-2.756-6.605c-2.584-1.06-5.543,0.176-6.605,2.756L155.554,88.829z"/>
<path style="fill:#FBAD4A;" d="M136.086,97.21l-15.785-6.49l30.503-74.187c1.792-4.359,6.779-6.439,11.138-4.647l0,0
	c4.359,1.792,6.439,6.779,4.647,11.138L136.086,97.21z"/>
<path d="M136.084,100.685c-0.44,0-0.887-0.084-1.319-0.263l-15.785-6.49c-0.853-0.35-1.529-1.024-1.884-1.876
	c-0.355-0.85-0.357-1.807-0.007-2.659l30.503-74.187c2.519-6.124,9.547-9.052,15.671-6.54c6.124,2.519,9.057,9.549,6.54,15.672
	L139.3,98.53C138.747,99.875,137.45,100.685,136.084,100.685z M124.834,88.829l9.359,3.849l29.182-70.975
	c1.062-2.58-0.176-5.543-2.756-6.605c-2.582-1.06-5.543,0.176-6.605,2.756L124.834,88.829z"/>
<polygon style="fill:#DDDDDD;" points="180.907,134.846 40.96,134.846 34.133,56.339 197.973,56.339 "/>
<path d="M180.907,138.259H40.96c-1.772,0-3.248-1.353-3.401-3.118l-6.827-78.507c-0.082-0.954,0.239-1.898,0.886-2.603
	s1.56-1.106,2.516-1.106h163.84c1.033,0,2.01,0.468,2.657,1.271c0.649,0.804,0.898,1.857,0.678,2.867l-17.067,78.507
	C183.902,137.14,182.513,138.259,180.907,138.259z M44.09,131.433h134.067l15.582-71.68H37.857L44.09,131.433z"/>
<path d="M34.13,59.753c-1.717,0-3.195-1.29-3.388-3.036l-3.077-27.684H3.413C1.529,29.033,0,27.503,0,25.619
	s1.529-3.413,3.413-3.413H30.72c1.739,0,3.2,1.307,3.393,3.036l3.413,30.72c0.208,1.874-1.142,3.56-3.016,3.768
	C34.383,59.746,34.256,59.753,34.13,59.753z"/>
<path d="M44.37,168.979c-1.717,0-3.195-1.29-3.388-3.036l-3.413-30.72c-0.208-1.874,1.142-3.56,3.016-3.768
	c1.864-0.208,3.56,1.142,3.768,3.016l3.413,30.72c0.208,1.874-1.142,3.56-3.016,3.768C44.623,168.972,44.496,168.979,44.37,168.979z
	"/>
<circle style="fill:#2ABBE9;" cx="47.788" cy="179.219" r="13.653"/>
<path d="M47.787,196.286c-9.411,0-17.067-7.656-17.067-17.067c0-9.411,7.656-17.067,17.067-17.067s17.067,7.656,17.067,17.067
	C64.853,188.63,57.199,196.286,47.787,196.286z M47.787,168.979c-5.647,0-10.24,4.593-10.24,10.24s4.593,10.24,10.24,10.24
	s10.24-4.593,10.24-10.24S53.434,168.979,47.787,168.979z"/>
<circle style="fill:#2ABBE9;" cx="163.842" cy="179.219" r="13.653"/>
<path d="M163.84,196.286c-9.411,0-17.067-7.656-17.067-17.067c0-9.411,7.656-17.067,17.067-17.067
	c9.411,0,17.067,7.656,17.067,17.067C180.907,188.63,173.252,196.286,163.84,196.286z M163.84,168.979
	c-5.647,0-10.24,4.593-10.24,10.24s4.593,10.24,10.24,10.24c5.647,0,10.24-4.593,10.24-10.24S169.487,168.979,163.84,168.979z"/>
<path d="M150.187,182.633H61.44c-1.884,0-3.413-1.529-3.413-3.413s1.529-3.413,3.413-3.413h88.747c1.884,0,3.413,1.529,3.413,3.413
	S152.073,182.633,150.187,182.633z"/>
<rect x="51.202" y="29.033" style="fill:#84D839;" width="47.787" height="27.307"/>
<path d="M98.987,59.753H51.2c-1.884,0-3.413-1.529-3.413-3.413V29.033c0-1.884,1.529-3.413,3.413-3.413h47.787
	c1.884,0,3.413,1.529,3.413,3.413v27.307C102.4,58.223,100.873,59.753,98.987,59.753z M54.613,52.926h40.96v-20.48h-40.96V52.926z"
	/>
<path style="fill:#2ABBE9;" d="M112.64,56.339H88.747v-35.84c0-6.598,5.349-11.947,11.947-11.947l0,0
	c6.598,0,11.947,5.349,11.947,11.947V56.339z"/>
<path d="M112.64,59.753H88.747c-1.884,0-3.413-1.529-3.413-3.413v-35.84c0-8.468,6.892-15.36,15.36-15.36s15.36,6.892,15.36,15.36
	v35.84C116.053,58.223,114.526,59.753,112.64,59.753z M92.16,52.926h17.067V20.499c0-4.705-3.828-8.533-8.533-8.533
	s-8.533,3.828-8.533,8.533V52.926z"/>
<path style="fill:#ED5481;" d="M153.6,56.339c0-11.31-9.17-20.48-20.48-20.48c-11.31,0-20.48,9.17-20.48,20.48H153.6z"/>
<path d="M153.6,59.753h-40.96c-1.884,0-3.413-1.529-3.413-3.413c0-13.175,10.718-23.893,23.893-23.893
	c13.175,0,23.893,10.718,23.893,23.893C157.013,58.223,155.486,59.753,153.6,59.753z M116.396,52.926h33.449
	c-1.587-7.781-8.482-13.653-16.724-13.653S117.984,45.145,116.396,52.926z"/>
<g>
</g>
<g>
</g>
<g>
</g>
<g>
</g>
<g>
</g>
<g>
</g>
<g>
</g>
<g>
</g>
<g>
</g>
<g>
</g>
<g>
</g>
<g>
</g>
<g>
</g>
<g>
</g>
<g>
</g>
</svg>
