<?xml version="1.0" encoding="iso-8859-1"?>
<!-- Generator: Adobe Illustrator 19.0.0, SVG Export Plug-In . SVG Version: 6.00 Build 0)  -->
<svg version="1.1" id="Capa_1" xmlns="http://www.w3.org/2000/svg" xmlns:xlink="http://www.w3.org/1999/xlink" x="0px" y="0px"
	 viewBox="0 0 218.453 218.453" style="enable-background:new 0 0 218.453 218.453;" xml:space="preserve">
<path style="fill:#9DFB45;" d="M186.027,75.093h-153.6c-16.024,0-29.013-12.989-29.013-29.013l0,0
	c0-16.024,12.989-29.013,29.013-29.013h153.6c16.024,0,29.013,12.989,29.013,29.013l0,0
	C215.04,62.104,202.051,75.093,186.027,75.093z"/>
<path d="M186.027,78.507h-153.6C14.546,78.507,0,63.961,0,46.08s14.546-32.427,32.427-32.427h153.6
	c17.881,0,32.427,14.546,32.427,32.427S203.907,78.507,186.027,78.507z M32.427,20.48c-14.116,0-25.6,11.484-25.6,25.6
	s11.484,25.6,25.6,25.6h153.6c14.116,0,25.6-11.484,25.6-25.6s-11.484-25.6-25.6-25.6H32.427z"/>
<path d="M70.653,61.696h-5.106V30.203h17.773v4.35H70.653v9.844h11.87v4.372h-11.87L70.653,61.696L70.653,61.696z"/>
<path d="M94.177,49.116v12.58h-5.151V30.203h8.897c4.067,0,7.074,0.759,9.027,2.284c1.954,1.521,2.93,3.82,2.93,6.893
	c0,3.92-2.039,6.714-6.117,8.38l8.897,13.937H106.8l-7.54-12.58L94.177,49.116L94.177,49.116z M94.177,44.849h3.577
	c2.396,0,4.134-0.444,5.214-1.333c1.077-0.893,1.613-2.214,1.613-3.966c0-1.78-0.58-3.057-1.743-3.833
	c-1.162-0.777-2.917-1.164-5.257-1.164h-3.403v10.296H94.177z"/>
<path d="M135.043,61.696h-17.816V30.203h17.816v4.35h-12.667v8.573h11.87v4.309h-11.87v9.887h12.667V61.696z"/>
<path d="M159.667,61.696h-17.816V30.203h17.816v4.35H147v8.573h11.87v4.309H147v9.887h12.667V61.696z"/>
<path style="fill:#FFDD95;" d="M81.801,95.573L54.613,92.16V59.733c0-4.712-3.821-8.533-8.533-8.533s-8.533,3.821-8.533,8.533v35.84
	v17.067v27.769c0,6.267,4.381,11.489,10.24,12.832v48.145H92.16v-48.145c5.859-1.345,10.24-6.566,10.24-12.832v-24.236
	C102.4,104.796,93.177,95.573,81.801,95.573z"/>
<path d="M92.16,204.8H47.787c-1.884,0-3.413-1.529-3.413-3.413v-45.658c-6.146-2.526-10.24-8.487-10.24-15.319V59.733
	c0-6.588,5.361-11.947,11.947-11.947s11.947,5.359,11.947,11.947v29.414l23.997,3.012c13.138,0.119,23.789,10.844,23.789,24.011
	v24.236c0,6.832-4.094,12.793-10.24,15.319v45.66C95.573,203.271,94.044,204.8,92.16,204.8z M51.2,197.973h37.547v-44.732
	c0-1.591,1.099-2.971,2.65-3.326c4.468-1.026,7.59-4.936,7.59-9.506v-24.236c0-9.477-7.709-17.186-17.184-17.186
	c-0.142,0-0.283-0.009-0.425-0.027l-27.189-3.413C52.48,95.333,51.2,93.88,51.2,92.16V59.733c0-2.823-2.297-5.12-5.12-5.12
	s-5.12,2.297-5.12,5.12v80.676c0,4.572,3.121,8.48,7.59,9.506c1.551,0.355,2.65,1.736,2.65,3.326V197.973z"/>
<path d="M54.613,112.64c-1.884,0-3.413-1.529-3.413-3.413V92.16c0-1.884,1.529-3.413,3.413-3.413s3.413,1.529,3.413,3.413v17.067
	C58.027,111.111,56.497,112.64,54.613,112.64z"/>
<path d="M68.267,109.227c-1.884,0-3.413-1.529-3.413-3.413v-10.24c0-1.884,1.529-3.413,3.413-3.413s3.413,1.529,3.413,3.413v10.24
	C71.68,107.698,70.151,109.227,68.267,109.227z"/>
<path d="M81.92,109.227c-1.884,0-3.413-1.529-3.413-3.413v-10.24c0-1.884,1.529-3.413,3.413-3.413c1.884,0,3.413,1.529,3.413,3.413
	v10.24C85.333,107.698,83.804,109.227,81.92,109.227z"/>
<path d="M141.36,103.815c-0.874,0-1.746-0.333-2.413-1l-9.653-9.655c-1.333-1.333-1.333-3.494,0-4.828
	c1.333-1.331,3.494-1.333,4.826,0l9.653,9.655c1.333,1.333,1.333,3.494,0,4.828C143.107,103.48,142.234,103.815,141.36,103.815z"/>
<path d="M131.707,103.815c-0.874,0-1.746-0.333-2.413-0.998c-1.333-1.333-1.333-3.494,0-4.828l9.653-9.655
	c1.333-1.333,3.494-1.333,4.826,0s1.333,3.494,0,4.828l-9.653,9.655C133.453,103.48,132.581,103.815,131.707,103.815z"/>
<path d="M175.493,137.948c-0.874,0-1.746-0.333-2.413-1l-9.653-9.655c-1.333-1.333-1.333-3.494,0-4.828
	c1.333-1.331,3.494-1.333,4.826,0l9.653,9.655c1.333,1.333,1.333,3.494,0,4.828C177.241,137.614,176.367,137.948,175.493,137.948z"
	/>
<path d="M165.84,137.948c-0.874,0-1.746-0.333-2.413-0.998c-1.333-1.333-1.333-3.494,0-4.828l9.653-9.655
	c1.333-1.333,3.494-1.333,4.826,0s1.333,3.494,0,4.828l-9.653,9.655C167.586,137.614,166.714,137.948,165.84,137.948z"/>
<g>
</g>
<g>
</g>
<g>
</g>
<g>
</g>
<g>
</g>
<g>
</g>
<g>
</g>
<g>
</g>
<g>
</g>
<g>
</g>
<g>
</g>
<g>
</g>
<g>
</g>
<g>
</g>
<g>
</g>
</svg>
