<?xml version="1.0" encoding="iso-8859-1"?>
<!-- Generator: Adobe Illustrator 19.0.0, SVG Export Plug-In . SVG Version: 6.00 Build 0)  -->
<svg version="1.1" id="Capa_1" xmlns="http://www.w3.org/2000/svg" xmlns:xlink="http://www.w3.org/1999/xlink" x="0px" y="0px"
	 viewBox="0 0 201.387 201.387" style="enable-background:new 0 0 201.387 201.387;" xml:space="preserve">
<path style="fill:#DDDDDD;" d="M156.786,197.973H44.601c-2.953,0-5.347-2.394-5.347-5.347V56.549c0-2.953,2.394-5.347,5.347-5.347
	h112.184c2.953,0,5.347,2.394,5.347,5.347v136.078C162.132,195.579,159.738,197.973,156.786,197.973z"/>
<path d="M156.786,201.387H44.601c-4.832,0-8.76-3.93-8.76-8.762V56.549c0-4.832,3.93-8.762,8.76-8.762h112.184
	c4.832,0,8.76,3.93,8.76,8.762v136.076C165.546,197.456,161.615,201.387,156.786,201.387z M44.599,54.613
	c-1.067,0-1.934,0.869-1.934,1.935v136.076c0,1.067,0.867,1.935,1.934,1.935h112.184c1.067,0,1.934-0.869,1.934-1.935V56.549
	c0-1.067-0.867-1.935-1.934-1.935L44.599,54.613L44.599,54.613z"/>
<polygon style="fill:#FFFFFF;" points="59.732,23.895 59.732,68.267 141.652,68.267 141.652,3.413 80.212,3.413 "/>
<path d="M141.652,71.68h-81.92c-1.884,0-3.413-1.529-3.413-3.413V23.895c0-0.905,0.358-1.773,1-2.413L77.799,1
	c0.64-0.64,1.509-1,2.413-1h61.44c1.884,0,3.413,1.529,3.413,3.413v64.853C145.066,70.151,143.537,71.68,141.652,71.68z
	 M63.146,64.853h75.093V6.827H81.627L63.146,25.308V64.853z"/>
<path d="M80.212,27.307h-20.48c-1.884,0-3.413-1.529-3.413-3.413s1.529-3.413,3.413-3.413h17.067V3.413
	C76.799,1.529,78.328,0,80.212,0c1.884,0,3.413,1.529,3.413,3.413v20.48C83.626,25.777,82.097,27.307,80.212,27.307z"/>
<path d="M66.559,71.68H52.906c-1.884,0-3.413-1.529-3.413-3.413c0-1.884,1.529-3.413,3.413-3.413h13.653
	c1.884,0,3.413,1.529,3.413,3.413C69.972,70.151,68.443,71.68,66.559,71.68z"/>
<path d="M148.479,71.68h-13.653c-1.884,0-3.413-1.529-3.413-3.413c0-1.884,1.529-3.413,3.413-3.413h13.653
	c1.884,0,3.413,1.529,3.413,3.413C151.892,70.151,150.363,71.68,148.479,71.68z"/>
<rect x="59.732" y="85.333" style="fill:#2ABBE9;" width="78.507" height="20.48"/>
<path d="M138.239,109.227H59.732c-1.884,0-3.413-1.529-3.413-3.413v-20.48c0-1.884,1.529-3.413,3.413-3.413h78.507
	c1.884,0,3.413,1.529,3.413,3.413v20.48C141.652,107.698,140.123,109.227,138.239,109.227z M63.146,102.4h71.68V88.747h-71.68V102.4
	z"/>
<rect x="56.319" y="122.88" style="fill:#777777;" width="20.48" height="13.653"/>
<path d="M76.799,139.947h-20.48c-1.884,0-3.413-1.529-3.413-3.413V122.88c0-1.884,1.529-3.413,3.413-3.413h20.48
	c1.884,0,3.413,1.529,3.413,3.413v13.653C80.212,138.417,78.683,139.947,76.799,139.947z M59.732,133.12h13.653v-6.827H59.732
	V133.12z"/>
<rect x="121.172" y="122.88" style="fill:#777777;" width="20.48" height="13.653"/>
<path d="M141.652,139.947h-20.48c-1.884,0-3.413-1.529-3.413-3.413V122.88c0-1.884,1.529-3.413,3.413-3.413h20.48
	c1.884,0,3.413,1.529,3.413,3.413v13.653C145.066,138.417,143.537,139.947,141.652,139.947z M124.586,133.12h13.653v-6.827h-13.653
	V133.12z"/>
<rect x="90.452" y="122.88" style="fill:#777777;" width="17.067" height="13.653"/>
<path d="M107.519,139.947H90.452c-1.884,0-3.413-1.529-3.413-3.413V122.88c0-1.884,1.529-3.413,3.413-3.413h17.067
	c1.884,0,3.413,1.529,3.413,3.413v13.653C110.932,138.417,109.403,139.947,107.519,139.947z M93.866,133.12h10.24v-6.827h-10.24
	V133.12z"/>
<rect x="56.319" y="150.187" style="fill:#777777;" width="20.48" height="13.653"/>
<path d="M76.799,167.253h-20.48c-1.884,0-3.413-1.529-3.413-3.413v-13.653c0-1.884,1.529-3.413,3.413-3.413h20.48
	c1.884,0,3.413,1.529,3.413,3.413v13.653C80.212,165.724,78.683,167.253,76.799,167.253z M59.732,160.427h13.653V153.6H59.732
	V160.427z"/>
<rect x="90.452" y="150.187" style="fill:#777777;" width="51.2" height="13.653"/>
<path d="M141.652,167.253h-51.2c-1.884,0-3.413-1.529-3.413-3.413v-13.653c0-1.884,1.529-3.413,3.413-3.413h51.2
	c1.884,0,3.413,1.529,3.413,3.413v13.653C145.066,165.724,143.537,167.253,141.652,167.253z M93.866,160.427h44.373V153.6H93.866
	V160.427z"/>
<path d="M141.652,180.907H56.319c-1.884,0-3.413-1.529-3.413-3.413c0-1.884,1.529-3.413,3.413-3.413h85.333
	c1.884,0,3.413,1.529,3.413,3.413C145.066,179.378,143.537,180.907,141.652,180.907z"/>
<g>
</g>
<g>
</g>
<g>
</g>
<g>
</g>
<g>
</g>
<g>
</g>
<g>
</g>
<g>
</g>
<g>
</g>
<g>
</g>
<g>
</g>
<g>
</g>
<g>
</g>
<g>
</g>
<g>
</g>
</svg>
