<?xml version="1.0" encoding="iso-8859-1"?>
<!-- Generator: Adobe Illustrator 19.0.0, SVG Export Plug-In . SVG Version: 6.00 Build 0)  -->
<svg version="1.1" id="Capa_1" xmlns="http://www.w3.org/2000/svg" xmlns:xlink="http://www.w3.org/1999/xlink" x="0px" y="0px"
	 viewBox="0 0 218.453 218.453" style="enable-background:new 0 0 218.453 218.453;" xml:space="preserve">
<path style="fill:#DDDDDD;" d="M140.887,180.907H40.02c-7.963,0-14.42-6.456-14.42-14.42V17.833c0-7.963,6.456-14.42,14.42-14.42
	h100.867c7.963,0,14.42,6.456,14.42,14.42v148.654C155.307,174.45,148.85,180.907,140.887,180.907z"/>
<path d="M140.887,184.32H40.02c-9.832,0-17.833-8.001-17.833-17.833V17.833C22.187,8.001,30.188,0,40.02,0h100.867
	c9.832,0,17.833,8.001,17.833,17.833v148.654C158.72,176.319,150.719,184.32,140.887,184.32z M40.02,6.827
	c-6.069,0-11.006,4.937-11.006,11.006v148.654c0,6.069,4.939,11.006,11.006,11.006h100.867c6.069,0,11.006-4.937,11.006-11.006
	V17.833c0-6.069-4.939-11.006-11.006-11.006H40.02z"/>
<rect x="35.84" y="13.653" style="fill:#FBAD4A;" width="109.227" height="133.12"/>
<path d="M145.067,150.187H35.84c-1.884,0-3.413-1.529-3.413-3.413V13.653c0-1.884,1.529-3.413,3.413-3.413h109.227
	c1.884,0,3.413,1.529,3.413,3.413v133.12C148.48,148.658,146.951,150.187,145.067,150.187z M39.253,143.36h102.4V17.067h-102.4
	V143.36z"/>
<circle style="fill:#DDDDDD;" cx="90.453" cy="163.84" r="6.827"/>
<path d="M90.453,174.08c-5.647,0-10.24-4.593-10.24-10.24c0-5.647,4.593-10.24,10.24-10.24s10.24,4.593,10.24,10.24
	C100.693,169.487,96.101,174.08,90.453,174.08z M90.453,160.427c-1.882,0-3.413,1.531-3.413,3.413c0,1.882,1.531,3.413,3.413,3.413
	c1.882,0,3.413-1.531,3.413-3.413C93.867,161.958,92.336,160.427,90.453,160.427z"/>
<path style="fill:#FFDD95;" d="M172.254,109.227l-27.187-3.413V73.387c0-4.712-3.821-8.533-8.533-8.533S128,68.675,128,73.387v35.84
	v17.067v27.769c0,6.267,4.381,11.489,10.24,12.832v48.145h44.373v-48.145c5.859-1.345,10.24-6.566,10.24-12.832v-24.236
	C192.853,118.45,183.63,109.227,172.254,109.227z"/>
<path d="M182.613,218.453H138.24c-1.884,0-3.413-1.529-3.413-3.413v-45.658c-6.146-2.526-10.24-8.487-10.24-15.319V73.387
	c0-6.588,5.361-11.947,11.947-11.947s11.947,5.359,11.947,11.947v29.414l23.997,3.012c13.138,0.119,23.789,10.844,23.789,24.011
	v24.236c0,6.832-4.094,12.793-10.24,15.319v45.66C186.027,216.924,184.497,218.453,182.613,218.453z M141.653,211.627H179.2v-44.732
	c0-1.591,1.099-2.971,2.65-3.326c4.468-1.026,7.59-4.936,7.59-9.506v-24.236c0-9.477-7.709-17.186-17.184-17.186
	c-0.142,0-0.283-0.009-0.425-0.027l-27.189-3.413c-1.708-0.213-2.988-1.666-2.988-3.386V73.387c0-2.823-2.297-5.12-5.12-5.12
	c-2.823,0-5.12,2.297-5.12,5.12v80.676c0,4.572,3.121,8.48,7.59,9.506c1.551,0.355,2.65,1.736,2.65,3.326V211.627z"/>
<path d="M145.067,126.293c-1.884,0-3.413-1.529-3.413-3.413v-17.067c0-1.884,1.529-3.413,3.413-3.413
	c1.884,0,3.413,1.529,3.413,3.413v17.067C148.48,124.764,146.951,126.293,145.067,126.293z"/>
<path d="M158.72,122.88c-1.884,0-3.413-1.529-3.413-3.413v-10.24c0-1.884,1.529-3.413,3.413-3.413s3.413,1.529,3.413,3.413v10.24
	C162.133,121.351,160.604,122.88,158.72,122.88z"/>
<path d="M172.373,122.88c-1.884,0-3.413-1.529-3.413-3.413v-10.24c0-1.884,1.529-3.413,3.413-3.413s3.413,1.529,3.413,3.413v10.24
	C175.787,121.351,174.258,122.88,172.373,122.88z"/>
<path d="M114.347,44.373h-20.48c-1.884,0-3.413-1.529-3.413-3.413c0-1.884,1.529-3.413,3.413-3.413h20.48
	c1.884,0,3.413,1.529,3.413,3.413C117.76,42.844,116.231,44.373,114.347,44.373z"/>
<path d="M73.387,54.613c-0.667,0-1.326-0.195-1.893-0.573l-10.24-6.827c-1.568-1.046-1.992-3.164-0.947-4.733
	c1.044-1.568,3.162-1.995,4.733-0.947l6.825,4.55l8.625-20.122c0.741-1.734,2.744-2.536,4.482-1.794
	c1.732,0.742,2.534,2.749,1.792,4.482l-10.24,23.893c-0.398,0.932-1.191,1.638-2.164,1.927
	C74.04,54.567,73.713,54.613,73.387,54.613z"/>
<path d="M114.347,85.333h-20.48c-1.884,0-3.413-1.529-3.413-3.413c0-1.884,1.529-3.413,3.413-3.413h20.48
	c1.884,0,3.413,1.529,3.413,3.413C117.76,83.804,116.231,85.333,114.347,85.333z"/>
<path d="M73.387,95.573c-0.667,0-1.326-0.195-1.893-0.573l-10.24-6.827c-1.568-1.046-1.992-3.164-0.947-4.733
	c1.044-1.567,3.162-1.995,4.733-0.947l6.825,4.55l8.625-20.122c0.741-1.734,2.744-2.538,4.482-1.794
	c1.732,0.742,2.534,2.749,1.792,4.482l-10.24,23.893c-0.398,0.932-1.191,1.638-2.164,1.927
	C74.04,95.527,73.713,95.573,73.387,95.573z"/>
<path d="M114.347,126.293h-20.48c-1.884,0-3.413-1.529-3.413-3.413c0-1.884,1.529-3.413,3.413-3.413h20.48
	c1.884,0,3.413,1.529,3.413,3.413C117.76,124.764,116.231,126.293,114.347,126.293z"/>
<path d="M73.387,136.533c-0.667,0-1.326-0.195-1.893-0.573l-10.24-6.827c-1.568-1.046-1.992-3.164-0.947-4.733
	c1.044-1.568,3.162-1.993,4.733-0.947l6.825,4.55l8.625-20.122c0.741-1.734,2.744-2.536,4.482-1.794
	c1.732,0.742,2.534,2.749,1.792,4.482l-10.24,23.893c-0.398,0.932-1.191,1.638-2.164,1.927
	C74.04,136.487,73.713,136.533,73.387,136.533z"/>
<g>
</g>
<g>
</g>
<g>
</g>
<g>
</g>
<g>
</g>
<g>
</g>
<g>
</g>
<g>
</g>
<g>
</g>
<g>
</g>
<g>
</g>
<g>
</g>
<g>
</g>
<g>
</g>
<g>
</g>
</svg>
