<?xml version="1.0" encoding="iso-8859-1"?>
<!-- Generator: Adobe Illustrator 19.0.0, SVG Export Plug-In . SVG Version: 6.00 Build 0)  -->
<svg version="1.1" id="Capa_1" xmlns="http://www.w3.org/2000/svg" xmlns:xlink="http://www.w3.org/1999/xlink" x="0px" y="0px"
	 viewBox="0 0 204.8 204.8" style="enable-background:new 0 0 204.8 204.8;" xml:space="preserve">
<rect x="92.16" y="148.48" style="fill:#DDDDDD;" width="20.48" height="30.72"/>
<path d="M112.64,182.613H92.16c-1.884,0-3.413-1.529-3.413-3.413v-30.72c0-1.884,1.529-3.413,3.413-3.413h20.48
	c1.884,0,3.413,1.529,3.413,3.413v30.72C116.053,181.084,114.524,182.613,112.64,182.613z M95.573,175.787h13.653v-23.893H95.573
	V175.787z"/>
<path style="fill:#777777;" d="M191.543,155.307H13.257c-5.437,0-9.844-4.407-9.844-9.844V42.271c0-5.437,4.407-9.844,9.844-9.844
	h178.285c5.437,0,9.844,4.407,9.844,9.844v103.192C201.387,150.9,196.98,155.307,191.543,155.307z"/>
<path d="M191.543,158.72H13.257C5.948,158.72,0,152.772,0,145.463V42.271c0-7.31,5.948-13.257,13.257-13.257h178.285
	c7.31,0,13.257,5.948,13.257,13.257v103.192C204.8,152.772,198.852,158.72,191.543,158.72z M13.257,35.84
	c-3.546,0-6.431,2.884-6.431,6.431v103.192c0,3.546,2.884,6.431,6.431,6.431h178.285c3.546,0,6.431-2.884,6.431-6.431V42.271
	c0-3.546-2.884-6.431-6.431-6.431L13.257,35.84L13.257,35.84z"/>
<rect x="75.093" y="179.2" style="fill:#777777;" width="54.613" height="10.24"/>
<path d="M129.707,192.853H75.093c-1.884,0-3.413-1.529-3.413-3.413V179.2c0-1.884,1.529-3.413,3.413-3.413h54.613
	c1.884,0,3.413,1.529,3.413,3.413v10.24C133.12,191.324,131.591,192.853,129.707,192.853z M78.507,186.027h47.787v-3.413H78.507
	V186.027z"/>
<rect x="30.72" y="15.36" style="fill:#DDDDDD;" width="143.36" height="58.027"/>
<path d="M174.08,76.8H30.72c-1.884,0-3.413-1.529-3.413-3.413V15.36c0-1.884,1.529-3.413,3.413-3.413h143.36
	c1.884,0,3.413,1.529,3.413,3.413v58.027C177.493,75.271,175.964,76.8,174.08,76.8z M34.133,69.973h136.533v-51.2H34.133V69.973z"/>
<rect x="30.72" y="69.973" style="fill:#997843;" width="143.36" height="85.333"/>
<path d="M174.08,158.72H30.72c-1.884,0-3.413-1.529-3.413-3.413V69.973c0-1.884,1.529-3.413,3.413-3.413h143.36
	c1.884,0,3.413,1.529,3.413,3.413v85.333C177.493,157.191,175.964,158.72,174.08,158.72z M34.133,151.893h136.533V73.387H34.133
	V151.893z"/>
<circle style="fill:#DDDDDD;" cx="95.573" cy="39.253" r="10.24"/>
<path d="M95.573,52.907c-7.528,0-13.653-6.125-13.653-13.653S88.045,25.6,95.573,25.6s13.653,6.125,13.653,13.653
	S103.101,52.907,95.573,52.907z M95.573,32.427c-3.765,0-6.827,3.062-6.827,6.827s3.062,6.827,6.827,6.827
	c3.765,0,6.827-3.062,6.827-6.827S99.338,32.427,95.573,32.427z"/>
<path d="M112.64,59.733c-0.874,0-1.748-0.333-2.413-1l-8.533-8.533c-1.333-1.333-1.333-3.494,0-4.826
	c1.331-1.333,3.495-1.333,4.826,0l8.533,8.533c1.333,1.333,1.333,3.494,0,4.826C114.388,59.401,113.514,59.733,112.64,59.733z"/>
<polyline style="fill:#FEDA38;" points="68.267,83.627 68.267,83.627 78.507,124.587 136.533,124.587 143.36,90.453 71.68,90.453 
	"/>
<path d="M136.533,128H78.507c-1.567,0-2.932-1.067-3.311-2.586l-10.24-40.96c-0.457-1.828,0.655-3.681,2.485-4.139
	c1.823-0.452,3.681,0.654,4.139,2.485l1.06,4.241h70.721c1.022,0,1.992,0.459,2.64,1.249c0.649,0.79,0.908,1.831,0.707,2.833
	l-6.827,34.133C139.561,126.851,138.16,128,136.533,128z M81.172,121.173h52.564l5.461-27.307H74.346L81.172,121.173z"/>
<g>
	<circle cx="92.16" cy="134.827" r="6.827"/>
	<circle cx="122.88" cy="134.827" r="6.827"/>
</g>
<path d="M139.947,110.933H75.093c-1.884,0-3.413-1.529-3.413-3.413c0-1.884,1.529-3.413,3.413-3.413h64.853
	c1.884,0,3.413,1.529,3.413,3.413C143.36,109.404,141.831,110.933,139.947,110.933z"/>
<path d="M68.267,87.04h-10.24c-1.884,0-3.413-1.529-3.413-3.413c0-1.884,1.529-3.413,3.413-3.413h10.24
	c1.884,0,3.413,1.529,3.413,3.413C71.68,85.511,70.151,87.04,68.267,87.04z"/>
<g>
</g>
<g>
</g>
<g>
</g>
<g>
</g>
<g>
</g>
<g>
</g>
<g>
</g>
<g>
</g>
<g>
</g>
<g>
</g>
<g>
</g>
<g>
</g>
<g>
</g>
<g>
</g>
<g>
</g>
</svg>
