<?xml version="1.0" encoding="iso-8859-1"?>
<!-- Generator: Adobe Illustrator 19.0.0, SVG Export Plug-In . SVG Version: 6.00 Build 0)  -->
<svg version="1.1" id="Capa_1" xmlns="http://www.w3.org/2000/svg" xmlns:xlink="http://www.w3.org/1999/xlink" x="0px" y="0px"
	 viewBox="0 0 211.627 211.627" style="enable-background:new 0 0 211.627 211.627;" xml:space="preserve">
<path style="fill:#F97DA3;" d="M129.708,40.96c0-9.059,4.321-23.767,10.691-27.817l-0.86-9.73h-13.053
	c-4.134,4.077-11.832,6.827-20.671,6.827S89.277,7.491,85.143,3.413H72.091l-0.86,9.73C77.6,17.195,81.921,31.901,81.921,40.96
	c0,10.085-5.362,11.865-12.937,15.372l-6.985,89.974c-0.302,5.821,4.337,10.708,10.165,10.708h67.302
	c5.83,0,10.469-4.886,10.165-10.708l-6.985-89.974C135.072,52.825,129.708,51.045,129.708,40.96z"/>
<path d="M139.465,160.427H72.162c-3.765,0-7.265-1.504-9.858-4.233c-2.592-2.732-3.912-6.304-3.717-10.064l7.146-92.054l3.22-1.487
	c6.755-3.089,9.552-4.366,9.552-11.628c0-8.617-4.204-21.816-9.11-24.936l-1.751-1.113L68.966,0h17.579l0.997,0.983
	c3.656,3.604,10.656,5.844,18.275,5.844s14.619-2.239,18.275-5.844L125.086,0h17.577l1.319,14.909l-1.751,1.113
	c-4.907,3.12-9.108,16.319-9.108,24.936c0,7.262,2.796,8.54,9.55,11.628l3.222,1.487l7.142,91.965
	c0.201,3.849-1.12,7.422-3.712,10.153C146.73,158.923,143.23,160.427,139.465,160.427z M72.231,58.597l-6.83,87.974
	c-0.092,1.783,0.565,3.564,1.855,4.924c1.29,1.359,3.033,2.106,4.907,2.106h67.302c1.874,0,3.616-0.748,4.907-2.108
	c1.29-1.359,1.947-3.139,1.85-5.011l-6.827-87.885c-6.798-3.111-13.102-6.233-13.102-17.637c0-8.648,3.734-23.243,10.54-29.37
	l-0.42-4.763h-8.607c-5.076,4.296-13.158,6.827-21.99,6.827S88.9,11.122,83.826,6.827h-8.608l-0.422,4.763
	c6.806,6.127,10.54,20.722,10.54,29.37C85.334,52.366,79.03,55.485,72.231,58.597z"/>
<rect x="92.159" y="40.96" width="37.547" height="6.827"/>
<rect x="98.986" y="157.013" style="fill:#997843;" width="13.653" height="44.373"/>
<path d="M112.641,204.8H98.988c-1.884,0-3.413-1.529-3.413-3.413v-44.373c0-1.884,1.529-3.413,3.413-3.413h13.653
	c1.884,0,3.413,1.529,3.413,3.413v44.373C116.054,203.271,114.527,204.8,112.641,204.8z M102.401,197.973h6.827v-37.547h-6.827
	V197.973z"/>
<rect x="81.919" y="197.973" style="fill:#997843;" width="47.787" height="10.24"/>
<path d="M129.708,211.627H81.921c-1.884,0-3.413-1.529-3.413-3.413v-10.24c0-1.884,1.529-3.413,3.413-3.413h47.787
	c1.884,0,3.413,1.529,3.413,3.413v10.24C133.121,210.098,131.594,211.627,129.708,211.627z M85.334,204.8h40.96v-3.413h-40.96V204.8
	z"/>
<g>
</g>
<g>
</g>
<g>
</g>
<g>
</g>
<g>
</g>
<g>
</g>
<g>
</g>
<g>
</g>
<g>
</g>
<g>
</g>
<g>
</g>
<g>
</g>
<g>
</g>
<g>
</g>
<g>
</g>
</svg>
