<?xml version="1.0" encoding="iso-8859-1"?>
<!-- Generator: Adobe Illustrator 19.0.0, SVG Export Plug-In . SVG Version: 6.00 Build 0)  -->
<svg version="1.1" id="Capa_1" xmlns="http://www.w3.org/2000/svg" xmlns:xlink="http://www.w3.org/1999/xlink" x="0px" y="0px"
	 viewBox="0 0 211.627 211.627" style="enable-background:new 0 0 211.627 211.627;" xml:space="preserve">
<path style="fill:#F97DA3;" d="M129.708,40.96c0-9.059,4.321-23.767,10.691-27.817l-0.86-9.73h-13.053
	c-4.134,4.077-11.832,6.827-20.671,6.827S89.277,7.491,85.143,3.413H72.09l-0.86,9.73c6.368,4.05,10.691,18.758,10.691,27.817
	c0,10.085-5.362,11.865-12.937,15.372l-6.985,141.174c-0.302,5.821,4.337,10.708,10.165,10.708h67.302
	c5.83,0,10.469-4.886,10.165-10.708l-6.985-141.174C135.07,52.825,129.708,51.045,129.708,40.96z"/>
<path d="M139.465,211.627H72.162c-3.765,0-7.265-1.504-9.858-4.233c-2.592-2.732-3.912-6.304-3.717-10.064l7.086-143.227l3.28-1.514
	c6.755-3.089,9.552-4.366,9.552-11.628c0-8.617-4.204-21.816-9.11-24.936l-1.751-1.113L68.964,0h17.579l0.997,0.983
	c3.656,3.604,10.656,5.844,18.275,5.844s14.619-2.239,18.275-5.844L125.084,0h17.577l1.319,14.909l-1.751,1.113
	c-4.905,3.121-9.108,16.319-9.108,24.938c0,7.264,2.796,8.54,9.551,11.628l3.28,1.514l7.088,143.235
	c0.195,3.751-1.125,7.325-3.717,10.057C146.73,210.123,143.229,211.627,139.465,211.627z M72.29,58.569l-6.883,139.104
	c-0.097,1.881,0.56,3.661,1.85,5.019c1.29,1.359,3.033,2.106,4.907,2.106h67.302c1.874,0,3.616-0.748,4.907-2.108
	c1.29-1.359,1.947-3.139,1.85-5.011l-6.885-139.112c-6.777-3.101-13.044-6.236-13.044-17.608c0-8.648,3.734-23.243,10.54-29.37
	l-0.422-4.763h-8.607c-5.076,4.296-13.158,6.827-21.99,6.827s-16.916-2.531-21.99-6.827h-8.608l-0.422,4.763
	c6.804,6.127,10.539,20.722,10.539,29.37C85.334,52.332,79.066,55.467,72.29,58.569z"/>
<rect x="47.61" y="170.674" transform="matrix(-0.0996 0.995 -0.995 -0.0996 263.2933 109.9203)" width="68.606" height="6.826"/>
<rect x="80.116" y="187.742" transform="matrix(-0.0996 0.995 -0.995 -0.0996 297.1599 113.4112)" width="34.303" height="6.826"/>
<rect x="126.292" y="102.289" transform="matrix(-0.9978 0.0665 -0.0665 -0.9978 269.3384 298.2361)" width="6.827" height="102.623"/>
<rect x="92.161" y="40.96" width="37.547" height="6.827"/>
<g>
</g>
<g>
</g>
<g>
</g>
<g>
</g>
<g>
</g>
<g>
</g>
<g>
</g>
<g>
</g>
<g>
</g>
<g>
</g>
<g>
</g>
<g>
</g>
<g>
</g>
<g>
</g>
<g>
</g>
</svg>
