<?xml version="1.0" encoding="iso-8859-1"?>
<!-- Generator: Adobe Illustrator 19.0.0, SVG Export Plug-In . SVG Version: 6.00 Build 0)  -->
<svg version="1.1" id="Capa_1" xmlns="http://www.w3.org/2000/svg" xmlns:xlink="http://www.w3.org/1999/xlink" x="0px" y="0px"
	 viewBox="0 0 218.453 218.453" style="enable-background:new 0 0 218.453 218.453;" xml:space="preserve">
<path style="fill:#FBAD4A;" d="M186.027,75.093h-153.6c-16.024,0-29.013-12.989-29.013-29.013l0,0
	c0-16.024,12.989-29.013,29.013-29.013h153.6c16.024,0,29.013,12.989,29.013,29.013l0,0
	C215.04,62.104,202.051,75.093,186.027,75.093z"/>
<path d="M186.027,78.507h-153.6C14.546,78.507,0,63.961,0,46.08s14.546-32.427,32.427-32.427h153.6
	c17.881,0,32.427,14.546,32.427,32.427S203.907,78.507,186.027,78.507z M32.427,20.48c-14.116,0-25.6,11.484-25.6,25.6
	s11.484,25.6,25.6,25.6h153.6c14.116,0,25.6-11.484,25.6-25.6s-11.484-25.6-25.6-25.6H32.427z"/>
<path d="M40.87,47.756c0,3.57-0.99,6.299-2.973,8.187c-1.98,1.889-4.837,2.833-8.564,2.833h-6.05V37.152h6.687
	c3.441,0,6.117,0.927,8.03,2.78C39.912,41.786,40.87,44.397,40.87,47.756z M37.144,47.877c0-5.176-2.42-7.767-7.264-7.767h-3.06
	v15.693h2.514C34.54,55.803,37.144,53.159,37.144,47.877z"/>
<path d="M64.713,47.937c0,3.519-0.881,6.257-2.64,8.207c-1.76,1.954-4.253,2.93-7.477,2.93c-3.263,0-5.774-0.969-7.523-2.906
	c-1.749-1.937-2.623-4.69-2.623-8.26s0.881-6.31,2.64-8.223c1.76-1.913,4.27-2.871,7.537-2.871c3.214,0,5.697,0.969,7.453,2.913
	C63.833,41.67,64.713,44.407,64.713,47.937z M48.207,47.937c0,2.661,0.536,4.68,1.613,6.057c1.073,1.374,2.666,2.063,4.777,2.063
	c2.099,0,3.683-0.683,4.753-2.043c1.07-1.36,1.606-3.386,1.606-6.077c0-2.654-0.531-4.663-1.591-6.036
	c-1.06-1.37-2.64-2.053-4.739-2.053c-2.12,0-3.721,0.683-4.799,2.053C48.746,43.273,48.207,45.283,48.207,47.937z"/>
<path d="M89.306,58.776H85.46l-3.666-12.897c-0.157-0.563-0.357-1.374-0.594-2.434c-0.237-1.06-0.381-1.797-0.427-2.21
	c-0.101,0.63-0.259,1.451-0.48,2.454c-0.224,1.007-0.41,1.756-0.556,2.249l-3.581,12.836h-3.843l-2.797-10.827l-2.84-10.796h3.61
	l3.091,12.6c0.483,2.024,0.829,3.806,1.036,5.357c0.106-0.84,0.27-1.777,0.486-2.809c0.217-1.036,0.413-1.874,0.594-2.517
	l3.519-12.629h3.504l3.61,12.691c0.343,1.174,0.71,2.93,1.094,5.267c0.15-1.41,0.503-3.207,1.067-5.383l3.077-12.573h3.577
	L89.306,58.776z"/>
<path d="M116.018,58.776h-4.333l-10.636-17.231h-0.116l0.073,0.959c0.137,1.833,0.207,3.511,0.207,5.03v11.24h-3.21V37.151h4.291
	l10.604,17.143h0.09c-0.02-0.227-0.06-1.053-0.116-2.48c-0.06-1.423-0.09-2.536-0.09-3.333V37.151h3.239v21.625H116.018z"/>
<path d="M121.723,58.776V37.152h3.536v18.591h9.153v3.033H121.723z"/>
<path d="M157.339,47.937c0,3.519-0.881,6.257-2.64,8.207c-1.76,1.954-4.253,2.93-7.477,2.93c-3.263,0-5.774-0.969-7.523-2.906
	c-1.749-1.937-2.623-4.69-2.623-8.26s0.881-6.31,2.64-8.223c1.76-1.913,4.27-2.871,7.537-2.871c3.214,0,5.697,0.969,7.453,2.913
	C156.46,41.67,157.339,44.407,157.339,47.937z M140.834,47.937c0,2.661,0.536,4.68,1.613,6.057c1.073,1.374,2.666,2.063,4.777,2.063
	c2.099,0,3.683-0.683,4.753-2.043c1.07-1.36,1.606-3.386,1.606-6.077c0-2.654-0.531-4.663-1.591-6.036
	c-1.06-1.37-2.64-2.053-4.739-2.053c-2.12,0-3.721,0.683-4.799,2.053C141.373,43.273,140.834,45.283,140.834,47.937z"/>
<path d="M175.396,58.776l-2.161-6.004h-8.267l-2.116,6.004h-3.727l8.09-21.714h3.847l8.09,21.714H175.396z M172.303,49.727
	l-2.024-5.886c-0.15-0.396-0.353-1.017-0.616-1.864c-0.259-0.85-0.44-1.469-0.539-1.867c-0.263,1.213-0.654,2.54-1.167,3.98
	l-1.954,5.637H172.303z"/>
<path d="M199.593,47.756c0,3.57-0.99,6.299-2.973,8.187c-1.98,1.889-4.837,2.833-8.564,2.833h-6.05V37.152h6.687
	c3.441,0,6.117,0.927,8.03,2.78C198.636,41.786,199.593,44.397,199.593,47.756z M195.867,47.877c0-5.176-2.42-7.767-7.264-7.767
	h-3.06v15.693h2.514C193.263,55.803,195.867,53.159,195.867,47.877z"/>
<path style="fill:#FFDD95;" d="M81.801,95.573L54.613,92.16V59.733c0-4.712-3.821-8.533-8.533-8.533s-8.533,3.821-8.533,8.533v35.84
	v17.067v27.769c0,6.267,4.381,11.489,10.24,12.832v48.145H92.16v-48.145c5.859-1.345,10.24-6.566,10.24-12.832v-24.236
	C102.4,104.796,93.177,95.573,81.801,95.573z"/>
<path d="M92.16,204.8H47.787c-1.884,0-3.413-1.529-3.413-3.413v-45.658c-6.146-2.526-10.24-8.487-10.24-15.319V59.733
	c0-6.588,5.361-11.947,11.947-11.947s11.947,5.359,11.947,11.947v29.414l23.997,3.012c13.138,0.119,23.789,10.844,23.789,24.011
	v24.236c0,6.832-4.094,12.793-10.24,15.319v45.66C95.573,203.271,94.044,204.8,92.16,204.8z M51.2,197.973h37.547v-44.732
	c0-1.591,1.099-2.971,2.65-3.326c4.468-1.026,7.59-4.936,7.59-9.506v-24.236c0-9.477-7.709-17.186-17.184-17.186
	c-0.142,0-0.283-0.009-0.425-0.027l-27.189-3.413C52.48,95.333,51.2,93.88,51.2,92.16V59.733c0-2.823-2.297-5.12-5.12-5.12
	s-5.12,2.297-5.12,5.12v80.676c0,4.572,3.121,8.48,7.59,9.506c1.551,0.355,2.65,1.736,2.65,3.326V197.973z"/>
<path d="M54.613,112.64c-1.884,0-3.413-1.529-3.413-3.413V92.16c0-1.884,1.529-3.413,3.413-3.413s3.413,1.529,3.413,3.413v17.067
	C58.027,111.111,56.497,112.64,54.613,112.64z"/>
<path d="M68.267,109.227c-1.884,0-3.413-1.529-3.413-3.413v-10.24c0-1.884,1.529-3.413,3.413-3.413s3.413,1.529,3.413,3.413v10.24
	C71.68,107.698,70.151,109.227,68.267,109.227z"/>
<path d="M81.92,109.227c-1.884,0-3.413-1.529-3.413-3.413v-10.24c0-1.884,1.529-3.413,3.413-3.413c1.884,0,3.413,1.529,3.413,3.413
	v10.24C85.333,107.698,83.804,109.227,81.92,109.227z"/>
<path d="M134.533,107.228c-0.874,0-1.746-0.333-2.413-1l-9.653-9.655c-1.333-1.333-1.333-3.494,0-4.828
	c1.333-1.331,3.494-1.333,4.826,0l9.653,9.655c1.333,1.333,1.333,3.494,0,4.828C136.281,106.894,135.407,107.228,134.533,107.228z"
	/>
<path d="M124.88,107.228c-0.874,0-1.746-0.333-2.413-0.998c-1.333-1.333-1.333-3.494,0-4.828l9.653-9.655
	c1.333-1.333,3.494-1.333,4.826,0c1.333,1.333,1.333,3.494,0,4.828l-9.653,9.655C126.626,106.894,125.754,107.228,124.88,107.228z"
	/>
<path d="M199.386,144.775c-0.874,0-1.746-0.333-2.413-1l-9.653-9.655c-1.333-1.333-1.333-3.494,0-4.828
	c1.333-1.331,3.494-1.333,4.826,0l9.653,9.655c1.333,1.333,1.333,3.494,0,4.828C201.134,144.44,200.26,144.775,199.386,144.775z"/>
<path d="M189.734,144.775c-0.874,0-1.746-0.333-2.413-0.998c-1.333-1.333-1.333-3.494,0-4.828l9.653-9.655
	c1.333-1.333,3.494-1.333,4.826,0c1.333,1.333,1.333,3.494,0,4.828l-9.653,9.655C191.479,144.44,190.607,144.775,189.734,144.775z"
	/>
<g>
</g>
<g>
</g>
<g>
</g>
<g>
</g>
<g>
</g>
<g>
</g>
<g>
</g>
<g>
</g>
<g>
</g>
<g>
</g>
<g>
</g>
<g>
</g>
<g>
</g>
<g>
</g>
<g>
</g>
</svg>
