<?xml version="1.0" encoding="iso-8859-1"?>
<!-- Generator: Adobe Illustrator 19.0.0, SVG Export Plug-In . SVG Version: 6.00 Build 0)  -->
<svg version="1.1" id="Capa_1" xmlns="http://www.w3.org/2000/svg" xmlns:xlink="http://www.w3.org/1999/xlink" x="0px" y="0px"
	 viewBox="0 0 211.627 211.627" style="enable-background:new 0 0 211.627 211.627;" xml:space="preserve">
<rect x="3.413" y="64.853" style="fill:#85D839;" width="204.8" height="81.92"/>
<path d="M208.213,150.187H3.413c-1.884,0-3.413-1.529-3.413-3.413v-81.92c0-1.884,1.529-3.413,3.413-3.413h204.8
	c1.884,0,3.413,1.529,3.413,3.413v81.92C211.627,148.658,210.098,150.187,208.213,150.187z M6.827,143.36H204.8V68.267H6.827V143.36
	z"/>
<path style="fill:#9DFB46;" d="M105.813,133.12c15.082,0,27.307-12.225,27.307-27.307s-12.225-27.307-27.307-27.307V133.12z"/>
<path d="M105.813,136.533H102.4v-61.44h3.413c16.939,0,30.72,13.781,30.72,30.72S122.752,136.533,105.813,136.533z M109.227,82.164
	v47.3c11.563-1.662,20.48-11.633,20.48-23.649S120.789,83.825,109.227,82.164z"/>
<path d="M208.213,88.747c-13.175,0-23.893-10.718-23.893-23.893c0-1.884,1.529-3.413,3.413-3.413s3.413,1.529,3.413,3.413
	c0,9.411,7.656,17.067,17.067,17.067c1.884,0,3.413,1.529,3.413,3.413C211.627,87.217,210.098,88.747,208.213,88.747z"/>
<path d="M187.733,150.187c-1.884,0-3.413-1.529-3.413-3.413c0-13.175,10.718-23.893,23.893-23.893c1.884,0,3.413,1.529,3.413,3.413
	c0,1.884-1.529,3.413-3.413,3.413c-9.411,0-17.067,7.656-17.067,17.067C191.147,148.658,189.618,150.187,187.733,150.187z"/>
<path d="M3.413,88.747C1.529,88.747,0,87.217,0,85.333c0-1.884,1.529-3.413,3.413-3.413c9.411,0,17.067-7.656,17.067-17.067
	c0-1.884,1.529-3.413,3.413-3.413s3.413,1.529,3.413,3.413C27.307,78.029,16.589,88.747,3.413,88.747z"/>
<path d="M23.893,150.187c-1.884,0-3.413-1.529-3.413-3.413c0-9.411-7.656-17.067-17.067-17.067c-1.884,0-3.413-1.529-3.413-3.413
	c0-1.884,1.529-3.413,3.413-3.413c13.175,0,23.893,10.718,23.893,23.893C27.307,148.658,25.777,150.187,23.893,150.187z"/>
<circle style="fill:#9DFB46;" cx="105.813" cy="105.813" r="27.307"/>
<path d="M105.813,136.533c-16.939,0-30.72-13.781-30.72-30.72s13.781-30.72,30.72-30.72s30.72,13.781,30.72,30.72
	S122.752,136.533,105.813,136.533z M105.813,81.92c-13.175,0-23.893,10.718-23.893,23.893s10.718,23.893,23.893,23.893
	s23.893-10.718,23.893-23.893S118.989,81.92,105.813,81.92z"/>
<path d="M105.813,54.613c-1.884,0-3.413-1.529-3.413-3.413V34.133c0-1.884,1.529-3.413,3.413-3.413c1.884,0,3.413,1.529,3.413,3.413
	V51.2C109.227,53.084,107.698,54.613,105.813,54.613z"/>
<path d="M122.88,54.613c-0.874,0-1.748-0.333-2.413-1c-1.333-1.333-1.333-3.494,0-4.826l11.947-11.947
	c1.331-1.333,3.495-1.333,4.826,0c1.333,1.333,1.333,3.494,0,4.826l-11.947,11.947C124.628,54.281,123.754,54.613,122.88,54.613z"/>
<path d="M87.04,54.613c-0.874,0-1.748-0.333-2.413-1L72.68,41.667c-1.333-1.333-1.333-3.494,0-4.826
	c1.331-1.333,3.495-1.333,4.826,0l11.947,11.947c1.333,1.333,1.333,3.494,0,4.826C88.788,54.281,87.914,54.613,87.04,54.613z"/>
<path d="M105.813,180.907c-1.884,0-3.413-1.529-3.413-3.413v-17.067c0-1.884,1.529-3.413,3.413-3.413
	c1.884,0,3.413,1.529,3.413,3.413v17.067C109.227,179.378,107.698,180.907,105.813,180.907z"/>
<path d="M134.827,175.787c-0.874,0-1.748-0.333-2.413-1l-11.947-11.947c-1.333-1.333-1.333-3.494,0-4.826
	c1.331-1.333,3.495-1.333,4.826,0l11.947,11.947c1.333,1.333,1.333,3.494,0,4.826C136.574,175.454,135.7,175.787,134.827,175.787z"
	/>
<path d="M75.093,175.787c-0.874,0-1.748-0.333-2.413-1c-1.333-1.333-1.333-3.494,0-4.826l11.947-11.947
	c1.331-1.333,3.495-1.333,4.826,0c1.333,1.333,1.333,3.494,0,4.826l-11.947,11.947C76.841,175.454,75.967,175.787,75.093,175.787z"
	/>
<g>
</g>
<g>
</g>
<g>
</g>
<g>
</g>
<g>
</g>
<g>
</g>
<g>
</g>
<g>
</g>
<g>
</g>
<g>
</g>
<g>
</g>
<g>
</g>
<g>
</g>
<g>
</g>
<g>
</g>
</svg>
