<?xml version="1.0" encoding="iso-8859-1"?>
<!-- Generator: Adobe Illustrator 19.0.0, SVG Export Plug-In . SVG Version: 6.00 Build 0)  -->
<svg version="1.1" id="Capa_1" xmlns="http://www.w3.org/2000/svg" xmlns:xlink="http://www.w3.org/1999/xlink" x="0px" y="0px"
	 viewBox="0 0 215.04 215.04" style="enable-background:new 0 0 215.04 215.04;" xml:space="preserve">
<path style="fill:#777777;" d="M68.032,33.28l-21.364,76.172c-2.147,9.11,1.679,18.514,9.9,24.327l50.951,36.035l50.953-36.035
	c8.219-5.813,12.046-15.217,9.9-24.327L147.006,33.28H68.032z"/>
<path d="M107.519,173.227c-0.69,0-1.381-0.208-1.971-0.626l-50.953-36.035c-9.424-6.665-13.735-17.355-11.25-27.897l21.4-76.31
	c0.413-1.473,1.756-2.492,3.287-2.492h78.974c1.529,0,2.874,1.019,3.287,2.492l21.364,76.172c2.521,10.68-1.79,21.369-11.214,28.035
	L109.49,172.6C108.9,173.018,108.209,173.227,107.519,173.227z M70.619,36.693l-20.664,73.68
	c-1.797,7.639,1.478,15.594,8.583,20.618l48.981,34.642l48.981-34.642c7.105-5.024,10.382-12.979,8.547-20.756l-20.628-73.542
	H70.619z"/>
<path style="fill:#997843;" d="M179.199,211.627H35.839v-24.112c0-16.577,12.561-30.013,28.058-30.013l43.622-9.021l43.622,9.021
	c15.497,0,28.058,13.438,28.058,30.013V211.627z"/>
<path d="M179.199,215.04H35.839c-1.884,0-3.413-1.529-3.413-3.413v-24.112c0-18.306,13.923-33.22,31.111-33.425l43.291-8.953
	c0.457-0.094,0.927-0.094,1.384,0l43.291,8.953c17.188,0.205,31.111,15.119,31.111,33.425v24.112
	C182.612,213.511,181.083,215.04,179.199,215.04z M39.252,208.213h136.533v-20.698c0-14.667-11.056-26.6-24.644-26.6
	c-0.232,0-0.464-0.024-0.691-0.07l-42.931-8.88l-42.931,8.88c-0.227,0.046-0.459,0.07-0.691,0.07
	c-13.588,0-24.644,11.933-24.644,26.6V208.213z"/>
<path style="fill:#EAC583;" d="M124.586,152.747L124.586,152.747c-10.743,5.373-23.39,5.373-34.133,0l0,0V122.88h34.133V152.747z"/>
<path d="M107.519,160.166c-6.386,0-12.771-1.456-18.594-4.366c-1.155-0.579-1.886-1.76-1.886-3.053V122.88
	c0-1.884,1.529-3.413,3.413-3.413h34.133c1.884,0,3.413,1.529,3.413,3.413v29.867c0,1.294-0.73,2.475-1.886,3.053
	C120.29,158.71,113.905,160.166,107.519,160.166z M93.866,150.567c8.684,3.7,18.623,3.7,27.307,0v-24.274H93.866V150.567z
	 M124.586,152.747h0.017H124.586z"/>
<path style="fill:#FFDD95;" d="M120.432,129.707H94.605c-15.49,0-28.047-12.558-28.047-28.047V45.775
	c0-4.545,3.683-8.228,8.228-8.228h65.464c4.545,0,8.228,3.683,8.228,8.228v55.885C148.479,117.149,135.921,129.707,120.432,129.707z
	"/>
<path d="M120.432,133.12H94.605c-17.347,0-31.459-14.114-31.459-31.461V45.775c0-6.42,5.222-11.641,11.641-11.641h65.463
	c6.419,0,11.641,5.222,11.641,11.641v55.885C151.892,119.006,137.78,133.12,120.432,133.12z M74.787,40.96
	c-2.656,0-4.815,2.161-4.815,4.815v55.885c0,13.583,11.051,24.634,24.634,24.634h25.827c13.582,0,24.634-11.051,24.634-24.634
	V45.775c0-2.656-2.161-4.815-4.815-4.815H74.787z"/>
<rect x="124.586" y="180.907" style="fill:#FEDA38;" width="30.72" height="30.72"/>
<path d="M155.306,215.04h-30.72c-1.884,0-3.413-1.529-3.413-3.413v-30.72c0-1.884,1.529-3.413,3.413-3.413h30.72
	c1.884,0,3.413,1.529,3.413,3.413v30.72C158.719,213.511,157.19,215.04,155.306,215.04z M127.999,208.213h23.893V184.32h-23.893
	V208.213z"/>
<path style="fill:#997843;" d="M155.306,54.613c0-23.61-14.916-43.488-35.202-49.406c-4.009-1.169-8.23-1.794-12.585-1.794
	c-26.392,0-47.787,22.922-47.787,51.2H155.306z"/>
<path d="M155.306,58.027H59.732c-1.884,0-3.413-1.529-3.413-3.413C56.319,24.499,79.287,0,107.519,0c4.589,0,9.144,0.65,13.541,1.93
	c22.173,6.468,37.659,28.133,37.659,52.683C158.719,56.497,157.19,58.027,155.306,58.027z M63.257,51.2h88.521
	c-1.336-20.101-14.377-37.391-32.631-42.716c-3.77-1.099-7.683-1.657-11.628-1.657C84.117,6.827,64.888,26.438,63.257,51.2z"/>
<path style="fill:#FCAD3A;" d="M59.732,54.613c0,18.852,21.395,34.133,47.787,34.133s47.787-15.281,47.787-34.133H59.732z"/>
<path d="M107.519,92.16c-28.232,0-51.2-16.843-51.2-37.547c0-1.884,1.529-3.413,3.413-3.413h95.573c1.884,0,3.413,1.529,3.413,3.413
	C158.719,75.317,135.751,92.16,107.519,92.16z M63.419,58.027c2.459,15.338,21.299,27.307,44.1,27.307s41.641-11.969,44.1-27.307
	H63.419z"/>
<path style="fill:#997843;" d="M122.026,51.627c0,0,11.947-21.391-4.693-44.8"/>
<path d="M122.022,55.04c-0.563,0-1.135-0.138-1.661-0.433c-1.644-0.918-2.234-2.992-1.319-4.637
	c0.461-0.84,10.612-19.919-4.49-41.165c-1.092-1.536-0.732-3.668,0.804-4.76s3.668-0.73,4.76,0.804
	c17.686,24.881,5.422,47.491,4.891,48.444C124.381,54.41,123.219,55.04,122.022,55.04z"/>
<path style="fill:#997843;" d="M90.763,51.627c0,0-11.947-21.391,4.693-44.8"/>
<path d="M90.767,55.04c-1.196,0-2.359-0.63-2.983-1.748C87.252,52.34,74.988,29.73,92.675,4.849c1.092-1.533,3.224-1.893,4.76-0.804
	c1.536,1.092,1.896,3.224,0.804,4.76c-15.213,21.402-4.605,40.962-4.495,41.156c0.92,1.647,0.329,3.727-1.316,4.646
	C91.901,54.902,91.33,55.04,90.767,55.04z"/>
<path d="M107.519,122.283c-1.853,0-3.707-0.225-5.509-0.676c-0.154-0.038-0.304-0.087-0.451-0.147l-5.559-2.243
	c-1.748-0.705-2.594-2.693-1.888-4.442c0.705-1.749,2.695-2.596,4.442-1.888l5.328,2.15c2.382,0.56,4.884,0.56,7.269,0l5.328-2.15
	c1.746-0.708,3.738,0.138,4.442,1.888c0.707,1.748-0.14,3.736-1.888,4.442l-5.559,2.243c-0.147,0.06-0.297,0.108-0.451,0.147
	C111.226,122.059,109.373,122.283,107.519,122.283z"/>
<g>
</g>
<g>
</g>
<g>
</g>
<g>
</g>
<g>
</g>
<g>
</g>
<g>
</g>
<g>
</g>
<g>
</g>
<g>
</g>
<g>
</g>
<g>
</g>
<g>
</g>
<g>
</g>
<g>
</g>
</svg>
