<?xml version="1.0" encoding="iso-8859-1"?>
<!-- Generator: Adobe Illustrator 19.0.0, SVG Export Plug-In . SVG Version: 6.00 Build 0)  -->
<svg version="1.1" id="Capa_1" xmlns="http://www.w3.org/2000/svg" xmlns:xlink="http://www.w3.org/1999/xlink" x="0px" y="0px"
	 viewBox="0 0 215.04 215.04" style="enable-background:new 0 0 215.04 215.04;" xml:space="preserve">
<path d="M61.44,54.613H17.067c-1.884,0-3.413-1.529-3.413-3.413c0-1.884,1.529-3.413,3.413-3.413H61.44
	c1.884,0,3.413,1.529,3.413,3.413C64.853,53.084,63.324,54.613,61.44,54.613z"/>
<path d="M61.44,71.68H51.2c-1.884,0-3.413-1.529-3.413-3.413c0-1.884,1.529-3.413,3.413-3.413h10.24
	c1.884,0,3.413,1.529,3.413,3.413C64.853,70.151,63.324,71.68,61.44,71.68z"/>
<path d="M40.96,71.68H6.827c-1.884,0-3.413-1.529-3.413-3.413c0-1.884,1.529-3.413,3.413-3.413H40.96
	c1.884,0,3.413,1.529,3.413,3.413C44.373,70.151,42.844,71.68,40.96,71.68z"/>
<path d="M61.44,88.747H47.787c-1.884,0-3.413-1.529-3.413-3.413c0-1.884,1.529-3.413,3.413-3.413H61.44
	c1.884,0,3.413,1.529,3.413,3.413C64.853,87.217,63.324,88.747,61.44,88.747z"/>
<path style="fill:#777777;" d="M199.417,150.187H51.2v-23.893h160.427v11.684C211.627,144.72,206.16,150.187,199.417,150.187z"/>
<path d="M199.417,153.6H51.2c-1.884,0-3.413-1.529-3.413-3.413v-23.893c0-1.884,1.529-3.413,3.413-3.413h160.427
	c1.884,0,3.413,1.529,3.413,3.413v11.684C215.04,146.592,208.032,153.6,199.417,153.6z M54.613,146.773h144.804
	c4.85,0,8.796-3.946,8.796-8.796v-8.27h-153.6L54.613,146.773L54.613,146.773z"/>
<path style="fill:#FEDA38;" d="M153.6,71.68h24.231c18.664,0,33.795,15.131,33.795,33.795v20.818H153.6V71.68z"/>
<path d="M211.627,129.707H153.6c-1.884,0-3.413-1.529-3.413-3.413V71.68c0-1.884,1.529-3.413,3.413-3.413h24.231
	c20.518,0,37.209,16.691,37.209,37.209v20.818C215.04,128.178,213.511,129.707,211.627,129.707z M157.013,122.88h51.2v-17.405
	c0-16.751-13.629-30.382-30.382-30.382h-20.818V122.88z"/>
<path style="fill:#2ABBE9;" d="M201.387,105.813H163.84v-20.48h17.067C192.217,85.333,201.387,94.503,201.387,105.813
	L201.387,105.813z"/>
<path d="M201.387,109.227H163.84c-1.884,0-3.413-1.529-3.413-3.413v-20.48c0-1.884,1.529-3.413,3.413-3.413h17.067
	c13.175,0,23.893,10.718,23.893,23.893C204.8,107.698,203.271,109.227,201.387,109.227z M167.253,102.4h30.377
	c-1.587-7.781-8.482-13.653-16.724-13.653h-13.653V102.4z"/>
<circle style="fill:#777777;" cx="78.507" cy="150.187" r="13.653"/>
<path d="M78.507,167.253c-9.411,0-17.067-7.656-17.067-17.067c0-9.411,7.656-17.067,17.067-17.067
	c9.411,0,17.067,7.656,17.067,17.067C95.573,159.597,87.917,167.253,78.507,167.253z M78.507,139.947
	c-5.647,0-10.24,4.593-10.24,10.24s4.593,10.24,10.24,10.24s10.24-4.593,10.24-10.24S84.154,139.947,78.507,139.947z"/>
<circle style="fill:#777777;" cx="184.32" cy="150.187" r="13.653"/>
<path d="M184.32,167.253c-9.411,0-17.067-7.656-17.067-17.067c0-9.411,7.656-17.067,17.067-17.067
	c9.411,0,17.067,7.656,17.067,17.067C201.387,159.597,193.731,167.253,184.32,167.253z M184.32,139.947
	c-5.647,0-10.24,4.593-10.24,10.24s4.593,10.24,10.24,10.24s10.24-4.593,10.24-10.24S189.967,139.947,184.32,139.947z"/>
<path d="M211.627,167.253H3.413c-1.884,0-3.413-1.529-3.413-3.413c0-1.884,1.529-3.413,3.413-3.413h208.213
	c1.884,0,3.413,1.529,3.413,3.413C215.04,165.724,213.511,167.253,211.627,167.253z"/>
<rect x="112.64" y="58.027" style="fill:#997843;" width="27.307" height="68.267"/>
<path d="M139.947,129.707H112.64c-1.884,0-3.413-1.529-3.413-3.413V58.027c0-1.884,1.529-3.413,3.413-3.413h27.307
	c1.884,0,3.413,1.529,3.413,3.413v68.267C143.36,128.178,141.831,129.707,139.947,129.707z M116.053,122.88h20.48V61.44h-20.48
	V122.88z"/>
<rect x="71.68" y="88.747" style="fill:#997843;" width="27.307" height="37.547"/>
<path d="M98.987,129.707H71.68c-1.884,0-3.413-1.529-3.413-3.413V88.747c0-1.884,1.529-3.413,3.413-3.413h27.307
	c1.884,0,3.413,1.529,3.413,3.413v37.547C102.4,128.178,100.871,129.707,98.987,129.707z M75.093,122.88h20.48V92.16h-20.48V122.88z
	"/>
<rect x="95.573" y="71.68" style="fill:#997843;" width="27.307" height="54.613"/>
<path d="M122.88,129.707H95.573c-1.884,0-3.413-1.529-3.413-3.413V71.68c0-1.884,1.529-3.413,3.413-3.413h27.307
	c1.884,0,3.413,1.529,3.413,3.413v54.613C126.293,128.178,124.764,129.707,122.88,129.707z M98.987,122.88h20.48V75.093h-20.48
	V122.88z"/>
<g>
</g>
<g>
</g>
<g>
</g>
<g>
</g>
<g>
</g>
<g>
</g>
<g>
</g>
<g>
</g>
<g>
</g>
<g>
</g>
<g>
</g>
<g>
</g>
<g>
</g>
<g>
</g>
<g>
</g>
</svg>
