<?xml version="1.0" encoding="iso-8859-1"?>
<!-- Generator: Adobe Illustrator 19.0.0, SVG Export Plug-In . SVG Version: 6.00 Build 0)  -->
<svg version="1.1" id="Capa_1" xmlns="http://www.w3.org/2000/svg" xmlns:xlink="http://www.w3.org/1999/xlink" x="0px" y="0px"
	 viewBox="0 0 215.04 215.04" style="enable-background:new 0 0 215.04 215.04;" xml:space="preserve">
<path style="fill:#997843;" d="M192.854,211.627H22.188v-30.938c0-16.577,14.954-30.013,33.401-30.013l51.932-2.195l51.932,2.195
	c18.447,0,33.401,13.438,33.401,30.013V211.627z"/>
<path d="M192.854,215.04H22.188c-1.884,0-3.413-1.529-3.413-3.413v-30.938c0-18.432,16.515-33.427,36.815-33.427l51.787-2.191
	c0.097-0.003,0.191-0.003,0.288,0l51.932,2.195h0.005c20.154,0,36.664,14.993,36.664,33.423v30.938
	C196.268,213.511,194.738,215.04,192.854,215.04z M25.601,208.213h163.84v-27.525c0-14.667-13.452-26.6-29.988-26.6l-51.932-2.191
	l-51.787,2.188c-16.679,0.003-30.133,11.936-30.133,26.604V208.213z"/>
<path style="fill:#EAC583;" d="M134.828,152.747L134.828,152.747c-17.19,5.373-37.424,5.373-54.613,0l0,0V122.88h54.613V152.747z"/>
<path d="M107.521,160.162c-9.728,0-19.456-1.386-28.326-4.157c-1.425-0.445-2.394-1.765-2.394-3.258V122.88
	c0-1.884,1.529-3.413,3.413-3.413h54.613c1.884,0,3.413,1.529,3.413,3.413v29.867c0,1.493-0.969,2.813-2.394,3.258
	C126.977,158.775,117.249,160.162,107.521,160.162z M83.628,150.195c15.142,4.2,32.645,4.2,47.787,0v-23.902H83.628V150.195z
	 M134.828,152.747h0.017H134.828z"/>
<path style="fill:#FFDD95;" d="M132.971,136.533H82.069c-12.334,0-22.335-10.001-22.335-22.337V52.601
	c0-4.545,3.683-8.228,8.228-8.228h79.118c4.545,0,8.228,3.683,8.228,8.228v61.595C155.308,126.532,145.306,136.533,132.971,136.533z
	"/>
<path d="M132.972,139.947H82.071c-14.198,0-25.748-11.552-25.748-25.75V52.601c0-6.42,5.222-11.641,11.641-11.641h79.116
	c6.419,0,11.641,5.222,11.641,11.641v61.595C158.721,128.394,147.17,139.947,132.972,139.947z M67.962,47.787
	c-2.656,0-4.815,2.161-4.815,4.815v61.595c0,10.435,8.489,18.924,18.922,18.924h50.901c10.435,0,18.922-8.489,18.922-18.924V52.601
	c0-2.656-2.161-4.815-4.814-4.815H67.962z"/>
<rect x="141.654" y="180.907" style="fill:#FEDA38;" width="30.72" height="30.72"/>
<path d="M172.374,215.04h-30.72c-1.884,0-3.413-1.529-3.413-3.413v-30.72c0-1.884,1.529-3.413,3.413-3.413h30.72
	c1.884,0,3.413,1.529,3.413,3.413v30.72C175.788,213.511,174.258,215.04,172.374,215.04z M145.068,208.213h23.893V184.32h-23.893
	V208.213z"/>
<path style="fill:#997843;" d="M155.308,54.613c0-23.61-14.916-43.488-35.202-49.406c-4.009-1.169-8.23-1.794-12.585-1.794
	c-26.392,0-47.787,22.922-47.787,51.2H155.308z"/>
<path d="M155.308,58.027H59.734c-1.884,0-3.413-1.529-3.413-3.413C56.321,24.499,79.289,0,107.521,0c4.589,0,9.144,0.65,13.541,1.93
	c22.173,6.468,37.659,28.133,37.659,52.683C158.721,56.497,157.192,58.027,155.308,58.027z M63.258,51.2h88.521
	c-1.336-20.101-14.377-37.391-32.631-42.716c-3.77-1.099-7.683-1.657-11.628-1.657C84.119,6.827,64.89,26.438,63.258,51.2z"/>
<path style="fill:#FCAD3A;" d="M59.734,54.613c0,18.852,21.395,34.133,47.787,34.133s47.787-15.281,47.787-34.133H59.734z"/>
<path d="M107.521,92.16c-28.232,0-51.2-16.843-51.2-37.547c0-1.884,1.529-3.413,3.413-3.413h95.573c1.884,0,3.413,1.529,3.413,3.413
	C158.721,75.317,135.753,92.16,107.521,92.16z M63.421,58.027c2.459,15.338,21.299,27.307,44.1,27.307s41.641-11.969,44.1-27.307
	H63.421z"/>
<g>
	<path style="fill:#997843;" d="M122.028,51.627c0,0,11.947-21.391-4.693-44.8"/>
</g>
<path d="M122.024,55.04c-0.563,0-1.135-0.138-1.661-0.433c-1.644-0.918-2.234-2.992-1.319-4.637
	c0.461-0.84,10.612-19.919-4.49-41.165c-1.092-1.536-0.732-3.668,0.804-4.76c1.536-1.092,3.668-0.73,4.76,0.804
	c17.686,24.881,5.422,47.491,4.891,48.444C124.383,54.41,123.22,55.04,122.024,55.04z"/>
<path style="fill:#997843;" d="M90.765,51.627c0,0-11.947-21.391,4.693-44.8"/>
<path d="M90.768,55.04c-1.196,0-2.359-0.63-2.983-1.748C87.254,52.34,74.99,29.73,92.676,4.849c1.092-1.533,3.224-1.893,4.76-0.804
	c1.536,1.092,1.896,3.224,0.804,4.76c-15.213,21.402-4.605,40.962-4.495,41.156c0.92,1.647,0.329,3.727-1.316,4.646
	C91.903,54.902,91.331,55.04,90.768,55.04z"/>
<path d="M107.521,125.696c-1.853,0-3.707-0.225-5.509-0.676l-8.974-2.243c-1.828-0.459-2.941-2.311-2.483-4.14
	c0.457-1.828,2.311-2.944,4.14-2.483l8.972,2.243c2.522,0.631,5.187,0.63,7.706,0l8.972-2.243c1.83-0.459,3.681,0.655,4.14,2.483
	c0.457,1.83-0.655,3.681-2.483,4.14l-8.972,2.243C111.228,125.472,109.374,125.696,107.521,125.696z"/>
<g>
</g>
<g>
</g>
<g>
</g>
<g>
</g>
<g>
</g>
<g>
</g>
<g>
</g>
<g>
</g>
<g>
</g>
<g>
</g>
<g>
</g>
<g>
</g>
<g>
</g>
<g>
</g>
<g>
</g>
</svg>
