<?xml version="1.0" encoding="iso-8859-1"?>
<!-- Generator: Adobe Illustrator 19.0.0, SVG Export Plug-In . SVG Version: 6.00 Build 0)  -->
<svg version="1.1" id="Capa_1" xmlns="http://www.w3.org/2000/svg" xmlns:xlink="http://www.w3.org/1999/xlink" x="0px" y="0px"
	 viewBox="0 0 184.32 184.32" style="enable-background:new 0 0 184.32 184.32;" xml:space="preserve">
<rect x="51.2" y="67.635" style="fill:#DDDDDD;" width="129.707" height="105.813"/>
<path d="M180.907,176.865h-6.827c-1.884,0-3.413-1.529-3.413-3.413c0-1.884,1.529-3.413,3.413-3.413h3.413v-3.413
	c0-1.884,1.529-3.413,3.413-3.413c1.884,0,3.413,1.529,3.413,3.413v6.827C184.32,175.336,182.791,176.865,180.907,176.865z"/>
<path d="M161.184,176.865h-12.896c-1.884,0-3.413-1.529-3.413-3.413c0-1.884,1.529-3.413,3.413-3.413h12.896
	c1.884,0,3.413,1.529,3.413,3.413C164.598,175.336,163.07,176.865,161.184,176.865z M135.395,176.865h-12.894
	c-1.884,0-3.413-1.529-3.413-3.413c0-1.884,1.529-3.413,3.413-3.413h12.894c1.884,0,3.413,1.529,3.413,3.413
	C138.808,175.336,137.281,176.865,135.395,176.865z M109.606,176.865H96.71c-1.884,0-3.413-1.529-3.413-3.413
	c0-1.884,1.529-3.413,3.413-3.413h12.896c1.884,0,3.413,1.529,3.413,3.413C113.019,175.336,111.491,176.865,109.606,176.865z
	 M83.816,176.865H70.922c-1.884,0-3.413-1.529-3.413-3.413c0-1.884,1.529-3.413,3.413-3.413h12.894c1.884,0,3.413,1.529,3.413,3.413
	C87.229,175.336,85.7,176.865,83.816,176.865z"/>
<path d="M58.027,176.865H51.2c-1.884,0-3.413-1.529-3.413-3.413v-6.827c0-1.884,1.529-3.413,3.413-3.413
	c1.884,0,3.413,1.529,3.413,3.413v3.413h3.413c1.884,0,3.413,1.529,3.413,3.413C61.44,175.336,59.911,176.865,58.027,176.865z"/>
<path d="M51.2,156.871c-1.884,0-3.413-1.529-3.413-3.413v-13.165c0-1.884,1.529-3.413,3.413-3.413c1.884,0,3.413,1.529,3.413,3.413
	v13.165C54.613,155.342,53.084,156.871,51.2,156.871z M51.2,130.539c-1.884,0-3.413-1.529-3.413-3.413v-13.165
	c0-1.884,1.529-3.413,3.413-3.413c1.884,0,3.413,1.529,3.413,3.413v13.165C54.613,129.012,53.084,130.539,51.2,130.539z
	 M51.2,104.209c-1.884,0-3.413-1.529-3.413-3.413V87.63c0-1.884,1.529-3.413,3.413-3.413c1.884,0,3.413,1.529,3.413,3.413v13.165
	C54.613,102.68,53.084,104.209,51.2,104.209z"/>
<path d="M51.2,77.878c-1.884,0-3.413-1.529-3.413-3.413v-6.827c0-1.884,1.529-3.413,3.413-3.413h6.827
	c1.884,0,3.413,1.529,3.413,3.413c0,1.884-1.529,3.413-3.413,3.413h-3.413v3.413C54.613,76.349,53.084,77.878,51.2,77.878z"/>
<path d="M161.184,71.052h-12.894c-1.884,0-3.413-1.529-3.413-3.413c0-1.884,1.529-3.413,3.413-3.413h12.894
	c1.884,0,3.413,1.529,3.413,3.413C164.598,69.522,163.07,71.052,161.184,71.052z M135.395,71.052h-12.896
	c-1.884,0-3.413-1.529-3.413-3.413c0-1.884,1.529-3.413,3.413-3.413h12.896c1.884,0,3.413,1.529,3.413,3.413
	C138.808,69.522,137.281,71.052,135.395,71.052z M109.606,71.052H96.712c-1.884,0-3.413-1.529-3.413-3.413
	c0-1.884,1.529-3.413,3.413-3.413h12.894c1.884,0,3.413,1.529,3.413,3.413C113.019,69.522,111.491,71.052,109.606,71.052z
	 M83.816,71.052H70.921c-1.884,0-3.413-1.529-3.413-3.413c0-1.884,1.529-3.413,3.413-3.413h12.896c1.884,0,3.413,1.529,3.413,3.413
	C87.229,69.522,85.702,71.052,83.816,71.052z"/>
<path d="M180.907,77.878c-1.884,0-3.413-1.529-3.413-3.413v-3.413h-3.413c-1.884,0-3.413-1.529-3.413-3.413
	c0-1.884,1.529-3.413,3.413-3.413h6.827c1.884,0,3.413,1.529,3.413,3.413v6.827C184.32,76.349,182.791,77.878,180.907,77.878z"/>
<path d="M180.907,156.873c-1.884,0-3.413-1.529-3.413-3.413v-13.165c0-1.884,1.529-3.413,3.413-3.413
	c1.884,0,3.413,1.529,3.413,3.413v13.165C184.32,155.344,182.791,156.873,180.907,156.873z M180.907,130.541
	c-1.884,0-3.413-1.529-3.413-3.413v-13.165c0-1.884,1.529-3.413,3.413-3.413c1.884,0,3.413,1.529,3.413,3.413v13.165
	C184.32,129.013,182.791,130.541,180.907,130.541z M180.907,104.21c-1.884,0-3.413-1.529-3.413-3.413V87.632
	c0-1.884,1.529-3.413,3.413-3.413c1.884,0,3.413,1.529,3.413,3.413v13.165C184.32,102.681,182.791,104.21,180.907,104.21z"/>
<rect x="3.413" y="67.635" style="fill:#2ABBE9;" width="47.787" height="105.813"/>
<path d="M51.2,176.865h-6.827c-1.884,0-3.413-1.529-3.413-3.413c0-1.884,1.529-3.413,3.413-3.413h3.413v-3.413
	c0-1.884,1.529-3.413,3.413-3.413c1.884,0,3.413,1.529,3.413,3.413v6.827C54.613,175.336,53.084,176.865,51.2,176.865z"/>
<path d="M32.995,176.865H21.617c-1.884,0-3.413-1.529-3.413-3.413c0-1.884,1.529-3.413,3.413-3.413h11.378
	c1.884,0,3.413,1.529,3.413,3.413C36.408,175.336,34.881,176.865,32.995,176.865z"/>
<path d="M10.24,176.865H3.413c-1.884,0-3.413-1.529-3.413-3.413v-6.827c0-1.884,1.529-3.413,3.413-3.413s3.413,1.529,3.413,3.413
	v3.413h3.413c1.884,0,3.413,1.529,3.413,3.413C13.653,175.336,12.124,176.865,10.24,176.865z"/>
<path d="M3.413,156.871c-1.884,0-3.413-1.529-3.413-3.413v-13.165c0-1.884,1.529-3.413,3.413-3.413s3.413,1.529,3.413,3.413v13.165
	C6.827,155.342,5.297,156.871,3.413,156.871z M3.413,130.539c-1.884,0-3.413-1.529-3.413-3.413v-13.165
	c0-1.884,1.529-3.413,3.413-3.413s3.413,1.529,3.413,3.413v13.165C6.827,129.012,5.297,130.539,3.413,130.539z M3.413,104.209
	c-1.884,0-3.413-1.529-3.413-3.413V87.63c0-1.884,1.529-3.413,3.413-3.413s3.413,1.529,3.413,3.413v13.165
	C6.827,102.68,5.297,104.209,3.413,104.209z"/>
<path d="M3.413,77.878C1.529,77.878,0,76.349,0,74.465v-6.827c0-1.884,1.529-3.413,3.413-3.413h6.827
	c1.884,0,3.413,1.529,3.413,3.413c0,1.884-1.529,3.413-3.413,3.413H6.827v3.413C6.827,76.349,5.297,77.878,3.413,77.878z"/>
<path d="M32.995,71.052H21.617c-1.884,0-3.413-1.529-3.413-3.413c0-1.884,1.529-3.413,3.413-3.413h11.378
	c1.884,0,3.413,1.529,3.413,3.413C36.408,69.522,34.881,71.052,32.995,71.052z"/>
<path d="M51.2,77.878c-1.884,0-3.413-1.529-3.413-3.413v-3.413h-3.413c-1.884,0-3.413-1.529-3.413-3.413
	c0-1.884,1.529-3.413,3.413-3.413H51.2c1.884,0,3.413,1.529,3.413,3.413v6.827C54.613,76.349,53.084,77.878,51.2,77.878z"/>
<path d="M51.2,156.873c-1.884,0-3.413-1.529-3.413-3.413v-13.165c0-1.884,1.529-3.413,3.413-3.413c1.884,0,3.413,1.529,3.413,3.413
	v13.165C54.613,155.344,53.084,156.873,51.2,156.873z M51.2,130.541c-1.884,0-3.413-1.529-3.413-3.413v-13.165
	c0-1.884,1.529-3.413,3.413-3.413c1.884,0,3.413,1.529,3.413,3.413v13.165C54.613,129.013,53.084,130.541,51.2,130.541z
	 M51.2,104.21c-1.884,0-3.413-1.529-3.413-3.413V87.632c0-1.884,1.529-3.413,3.413-3.413c1.884,0,3.413,1.529,3.413,3.413v13.165
	C54.613,102.681,53.084,104.21,51.2,104.21z"/>
<path d="M116.816,150.464v-7.668c-4.405-0.079-8.962-1.444-11.619-3.342l1.823-5.088c2.734,1.819,6.682,3.263,10.935,3.263
	c5.391,0,9.039-3.115,9.039-7.441c0-4.178-2.961-6.758-8.581-9.039c-7.748-3.036-12.53-6.531-12.53-13.136
	c0-6.304,4.482-11.085,11.469-12.227V88.12h4.707v7.368c4.557,0.148,7.671,1.365,9.873,2.656l-1.898,5.014
	c-1.594-0.91-4.709-2.58-9.569-2.58c-5.847,0-8.049,3.49-8.049,6.531c0,3.946,2.811,5.924,9.416,8.658
	c7.822,3.19,11.773,7.134,11.773,13.894c0,6.002-4.178,11.619-12,12.914v7.897h-4.787V150.464z"/>
<path d="M39.129,52.727c-2.714,0-5.574-0.778-8.419-2.326c-4.669-2.538-8.817-6.929-11.675-12.358
	c-2.86-5.429-4.134-11.331-3.586-16.618c0.601-5.796,3.282-10.225,7.55-12.474c4.268-2.248,9.44-1.956,14.558,0.829
	c4.669,2.538,8.817,6.929,11.675,12.358l0,0c2.86,5.429,4.134,11.331,3.586,16.618c-0.601,5.796-3.282,10.225-7.55,12.474
	C43.372,52.229,41.296,52.727,39.129,52.727z M29.129,14.291c-0.983,0-1.99,0.195-2.949,0.7c-2.947,1.551-3.734,5.139-3.942,7.139
	c-0.41,3.959,0.597,8.484,2.835,12.733c2.239,4.25,5.398,7.641,8.897,9.542c1.766,0.961,5.168,2.338,8.115,0.787
	c2.947-1.551,3.734-5.139,3.942-7.139c0.41-3.959-0.597-8.484-2.835-12.733l0,0c-2.239-4.25-5.398-7.641-8.897-9.542
	C33.104,15.129,31.169,14.291,29.129,14.291z"/>
<path d="M63.271,52.727c-2.169,0-4.243-0.498-6.139-1.497c-4.268-2.248-6.951-6.678-7.55-12.474
	c-0.548-5.289,0.725-11.191,3.586-16.618c2.86-5.431,7.006-9.82,11.675-12.358c5.12-2.785,10.29-3.077,14.558-0.829
	c4.268,2.248,6.951,6.678,7.55,12.474c0.548,5.289-0.725,11.191-3.586,16.618c-2.86,5.431-7.006,9.82-11.675,12.358
	C68.845,51.949,65.985,52.727,63.271,52.727z M73.271,14.291c-2.039,0-3.977,0.838-5.168,1.487
	c-3.499,1.901-6.658,5.292-8.897,9.542l0,0c-2.239,4.25-3.244,8.774-2.835,12.733c0.208,2,0.995,5.586,3.942,7.139
	c2.949,1.551,6.349,0.176,8.115-0.787c3.499-1.901,6.658-5.292,8.897-9.542c2.239-4.25,3.244-8.774,2.835-12.733
	c-0.208-2-0.995-5.586-3.942-7.139C75.261,14.486,74.254,14.291,73.271,14.291z"/>
<rect x="10.178" y="65.928" transform="matrix(-0.333 0.9429 -0.9429 -0.333 119.9685 53.8208)" width="61.541" height="6.826"/>
<rect x="58.022" y="38.578" transform="matrix(-0.943 0.3328 -0.3328 -0.943 142.4487 114.2996)" width="6.827" height="61.543"/>
<g>
</g>
<g>
</g>
<g>
</g>
<g>
</g>
<g>
</g>
<g>
</g>
<g>
</g>
<g>
</g>
<g>
</g>
<g>
</g>
<g>
</g>
<g>
</g>
<g>
</g>
<g>
</g>
<g>
</g>
</svg>
