<?xml version="1.0" encoding="iso-8859-1"?>
<!-- Generator: Adobe Illustrator 19.0.0, SVG Export Plug-In . SVG Version: 6.00 Build 0)  -->
<svg version="1.1" id="Capa_1" xmlns="http://www.w3.org/2000/svg" xmlns:xlink="http://www.w3.org/1999/xlink" x="0px" y="0px"
	 viewBox="0 0 201.444 201.444" style="enable-background:new 0 0 201.444 201.444;" xml:space="preserve">
<circle style="fill:#FCAD3A;" cx="112.703" cy="99.015" r="27.307"/>
<path d="M112.697,129.735c-16.939,0-30.72-13.781-30.72-30.72s13.781-30.72,30.72-30.72s30.72,13.781,30.72,30.72
	S129.636,129.735,112.697,129.735z M112.697,75.122c-13.175,0-23.893,10.718-23.893,23.893s10.718,23.893,23.893,23.893
	s23.893-10.718,23.893-23.893S125.873,75.122,112.697,75.122z"/>
<path d="M146.039,123.296c0,7.197-2.676,13.066-8.033,17.609c-5.356,4.543-12.768,7.414-22.234,8.603v19.15h-6.574v-18.826
	c-4.978-0.106-10.4-0.717-16.27-1.826c-5.869-1.106-10.537-2.473-13.998-4.096v-8.359c4.058,1.951,8.914,3.599,14.566,4.949
	c5.652,1.353,10.887,2.029,15.701,2.029v-41.223c-7.846-2.381-13.66-4.76-17.447-7.141c-3.787-2.381-6.547-5.197-8.277-8.439
	c-1.734-3.246-2.596-7.197-2.596-11.849c0-6.707,2.555-12.346,7.668-16.92c5.111-4.57,11.994-7.397,20.652-8.48v-15.58h6.574v15.42
	c10.656,0.486,20.152,2.434,28.483,5.844l-2.678,7.303c-7.627-3.357-16.23-5.303-25.805-5.844v39.436
	c11.523,3.574,19.449,7.467,23.777,11.687C143.876,110.964,146.039,116.478,146.039,123.296z M89.722,73.876
	c0,4.654,1.541,8.47,4.625,11.443c3.084,2.976,8.033,5.49,14.85,7.547v-36.76c-6.438,0.867-11.293,2.92-14.566,6.166
	C91.357,65.519,89.722,69.386,89.722,73.876z M137.113,122.972c0-4.596-1.703-8.4-5.111-11.404c-3.408-3-8.818-5.582-16.23-7.747
	v38.221c6.6-0.703,11.807-2.731,15.621-6.086C135.205,132.603,137.113,128.276,137.113,122.972z"/>
<path d="M198.031,191.175H23.951c-1.884,0-3.413-1.529-3.413-3.413v-28.641c0-1.884,1.529-3.413,3.413-3.413
	s3.413,1.529,3.413,3.413v25.228h167.253V17.095H27.364v30.442c0,1.884-1.529,3.413-3.413,3.413s-3.413-1.529-3.413-3.413V13.682
	c0-1.884,1.529-3.413,3.413-3.413h174.08c1.884,0,3.413,1.529,3.413,3.413v174.08C201.444,189.646,199.915,191.175,198.031,191.175z
	"/>
<path d="M23.951,143.389c-1.884,0-3.413-1.529-3.413-3.413V95.602c0-1.884,1.529-3.413,3.413-3.413s3.413,1.529,3.413,3.413v44.373
	C27.364,141.86,25.835,143.389,23.951,143.389z"/>
<polygon style="fill:#9DFB45;" points="23.951,68.295 44.431,99.015 3.471,99.015 "/>
<path d="M44.431,102.487H3.471c-1.28,0-2.456-0.705-3.06-1.833c-0.604-1.13-0.538-2.499,0.172-3.564l20.48-30.72
	c0.643-0.966,1.727-1.546,2.888-1.546s2.244,0.58,2.888,1.546l20.48,30.72c0.712,1.065,0.777,2.435,0.172,3.564
	C46.887,101.782,45.711,102.487,44.431,102.487z M9.958,95.544h27.986L23.951,74.555L9.958,95.544z"/>
<g>
</g>
<g>
</g>
<g>
</g>
<g>
</g>
<g>
</g>
<g>
</g>
<g>
</g>
<g>
</g>
<g>
</g>
<g>
</g>
<g>
</g>
<g>
</g>
<g>
</g>
<g>
</g>
<g>
</g>
</svg>
