<?xml version="1.0" encoding="iso-8859-1"?>
<!-- Generator: Adobe Illustrator 19.0.0, SVG Export Plug-In . SVG Version: 6.00 Build 0)  -->
<svg version="1.1" id="Capa_1" xmlns="http://www.w3.org/2000/svg" xmlns:xlink="http://www.w3.org/1999/xlink" x="0px" y="0px"
	 viewBox="0 0 201.386 201.386" style="enable-background:new 0 0 201.386 201.386;" xml:space="preserve">
<circle style="fill:#FCAD3A;" cx="112.639" cy="98.986" r="27.307"/>
<path d="M112.639,129.706c-16.939,0-30.72-13.781-30.72-30.72s13.781-30.72,30.72-30.72s30.72,13.781,30.72,30.72
	S129.578,129.706,112.639,129.706z M112.639,75.093c-13.175,0-23.893,10.718-23.893,23.893s10.718,23.893,23.893,23.893
	s23.893-10.718,23.893-23.893S125.813,75.093,112.639,75.093z"/>
<path d="M145.981,123.267c0,7.197-2.676,13.066-8.033,17.609c-5.356,4.543-12.768,7.414-22.234,8.603v19.15h-6.574v-18.826
	c-4.978-0.106-10.4-0.717-16.27-1.826c-5.869-1.106-10.537-2.473-13.998-4.096v-8.359c4.058,1.951,8.914,3.599,14.566,4.949
	c5.652,1.353,10.887,2.029,15.701,2.029v-41.223c-7.846-2.381-13.66-4.76-17.447-7.141s-6.547-5.197-8.277-8.439
	c-1.734-3.246-2.596-7.197-2.596-11.849c0-6.707,2.555-12.346,7.668-16.92c5.111-4.57,11.994-7.397,20.652-8.48v-15.58h6.574v15.42
	c10.656,0.486,20.152,2.434,28.483,5.844l-2.678,7.303c-7.627-3.357-16.23-5.303-25.805-5.844v39.436
	c11.523,3.574,19.449,7.467,23.777,11.687S145.981,116.449,145.981,123.267z M89.664,73.847c0,4.654,1.541,8.47,4.625,11.443
	c3.084,2.976,8.033,5.49,14.85,7.547v-36.76c-6.438,0.867-11.293,2.92-14.566,6.166S89.664,69.357,89.664,73.847z M137.053,122.943
	c0-4.596-1.703-8.4-5.111-11.404c-3.408-3-8.818-5.583-16.23-7.747v38.221c6.6-0.703,11.807-2.731,15.621-6.086
	C135.147,132.574,137.053,128.247,137.053,122.943z"/>
<path d="M197.973,191.146H23.893c-1.884,0-3.413-1.529-3.413-3.413v-28.641c0-1.884,1.529-3.413,3.413-3.413
	s3.413,1.529,3.413,3.413v25.228h167.253V17.066H27.306v30.442c0,1.884-1.529,3.413-3.413,3.413s-3.413-1.529-3.413-3.413V13.653
	c0-1.884,1.529-3.413,3.413-3.413h174.08c1.884,0,3.413,1.529,3.413,3.413v174.08C201.386,189.617,199.857,191.146,197.973,191.146z
	"/>
<path d="M23.893,116.053c-1.884,0-3.413-1.529-3.413-3.413V68.266c0-1.884,1.529-3.413,3.413-3.413s3.413,1.529,3.413,3.413v44.373
	C27.306,114.524,25.777,116.053,23.893,116.053z"/>
<polygon style="fill:#ED5481;" points="23.893,139.946 44.373,109.226 3.413,109.226 "/>
<path d="M23.893,143.36L23.893,143.36c-1.142,0-2.207-0.57-2.84-1.521l-20.48-30.72c-0.698-1.048-0.763-2.394-0.169-3.504
	s1.749-1.802,3.009-1.802h40.96c1.26,0,2.417,0.693,3.009,1.802c0.594,1.109,0.529,2.456-0.169,3.504l-20.48,30.72
	C26.1,142.79,25.033,143.36,23.893,143.36z M9.791,112.64l14.102,21.154l14.102-21.154H9.791z"/>
<g>
</g>
<g>
</g>
<g>
</g>
<g>
</g>
<g>
</g>
<g>
</g>
<g>
</g>
<g>
</g>
<g>
</g>
<g>
</g>
<g>
</g>
<g>
</g>
<g>
</g>
<g>
</g>
<g>
</g>
</svg>
