<?xml version="1.0" encoding="iso-8859-1"?>
<!-- Generator: Adobe Illustrator 19.0.0, SVG Export Plug-In . SVG Version: 6.00 Build 0)  -->
<svg version="1.1" id="Capa_1" xmlns="http://www.w3.org/2000/svg" xmlns:xlink="http://www.w3.org/1999/xlink" x="0px" y="0px"
	 viewBox="0 0 197.973 197.973" style="enable-background:new 0 0 197.973 197.973;" xml:space="preserve">
<path style="fill:#2ABBE9;" d="M194.56,20.48h-34.133h-3.413h-30.956c0.14,1.121,0.236,2.255,0.236,3.413
	c0,15.08-12.225,27.307-27.307,27.307S71.68,38.973,71.68,23.893c0-1.159,0.096-2.292,0.236-3.413H40.96h-3.413H3.413v37.547
	l34.133,9.31v110.157h122.88V67.337l34.133-9.31V20.48z"/>
<path d="M160.427,180.907H37.547c-1.884,0-3.413-1.529-3.413-3.413V69.943L2.516,61.319C1.031,60.914,0,59.566,0,58.027V20.48
	c0-1.884,1.529-3.413,3.413-3.413h68.502c0.978,0,1.91,0.42,2.558,1.154c0.649,0.736,0.951,1.712,0.828,2.683
	c-0.142,1.14-0.208,2.091-0.208,2.99c0,13.175,10.718,23.893,23.893,23.893s23.893-10.718,23.893-23.893
	c0-0.889-0.067-1.84-0.21-2.99c-0.121-0.971,0.179-1.949,0.828-2.683c0.649-0.734,1.58-1.154,2.558-1.154h68.504
	c1.884,0,3.413,1.529,3.413,3.413v37.547c0,1.539-1.031,2.888-2.516,3.294l-31.618,8.622v107.551
	C163.84,179.378,162.311,180.907,160.427,180.907z M40.96,174.08h116.053V67.337c0-1.539,1.031-2.888,2.516-3.294l31.618-8.622
	V23.893h-61.44c0,16.939-13.781,30.72-30.72,30.72s-30.72-13.781-30.72-30.72H6.827v31.527l31.618,8.624
	c1.485,0.404,2.516,1.753,2.516,3.294V174.08z"/>
<path d="M160.427,81.92c-1.884,0-3.413-1.529-3.413-3.413V51.2c0-1.884,1.529-3.413,3.413-3.413c1.884,0,3.413,1.529,3.413,3.413
	v27.307C163.84,80.391,162.311,81.92,160.427,81.92z"/>
<path d="M37.547,92.16c-1.884,0-3.413-1.529-3.413-3.413V51.2c0-1.884,1.529-3.413,3.413-3.413c1.884,0,3.413,1.529,3.413,3.413
	v37.547C40.96,90.631,39.431,92.16,37.547,92.16z"/>
<path style="fill:#85D839;" d="M64.121,150.919c-3.77,0-6.827-3.057-6.827-6.827v-17.067c0-28.233,22.967-51.2,51.2-51.2
	c3.77,0,6.827,3.057,6.827,6.827c0,3.77-3.057,6.827-6.827,6.827c-20.704,0-37.547,16.843-37.547,37.547v17.067
	C70.948,147.862,67.891,150.919,64.121,150.919z"/>
<path d="M64.119,154.334c-5.647,0-10.24-4.593-10.24-10.24v-17.067c0-30.114,24.499-54.613,54.613-54.613
	c5.647,0,10.24,4.593,10.24,10.24s-4.593,10.24-10.24,10.24c-18.821,0-34.133,15.312-34.133,34.133v17.067
	C74.359,149.74,69.767,154.334,64.119,154.334z M108.493,79.241c-26.349,0-47.787,21.437-47.787,47.787v17.067
	c0,1.882,1.531,3.413,3.413,3.413c1.882,0,3.413-1.531,3.413-3.413v-17.067c0-22.584,18.376-40.96,40.96-40.96
	c1.882,0,3.413-1.531,3.413-3.413S110.375,79.241,108.493,79.241z"/>
<path style="fill:#85D839;" d="M135.552,77.251l-20.019-12.447c-4.238-2.635-9.721,0.413-9.721,5.402v24.893
	c0,4.99,5.484,8.037,9.721,5.402l20.019-12.447C139.556,85.565,139.556,79.739,135.552,77.251z"/>
<path d="M112.181,104.893c-1.625,0-3.253-0.415-4.755-1.249c-3.149-1.748-5.026-4.943-5.026-8.544V70.205
	c0-3.601,1.879-6.794,5.026-8.544c3.147-1.749,6.851-1.659,9.911,0.244l20.018,12.447h0.002c2.888,1.797,4.613,4.9,4.613,8.303
	c-0.002,3.401-1.727,6.504-4.615,8.298L117.335,103.4C115.736,104.395,113.961,104.893,112.181,104.893z M112.193,67.244
	c-0.657,0-1.183,0.236-1.451,0.384c-0.457,0.253-1.517,1.012-1.517,2.577v24.895c0,1.565,1.06,2.323,1.517,2.577
	c0.456,0.254,1.666,0.748,2.987-0.073l20.021-12.447c1.254-0.782,1.389-2.01,1.391-2.504c0-0.493-0.137-1.724-1.391-2.505
	l-20.019-12.447C113.183,67.362,112.655,67.244,112.193,67.244z"/>
<g>
</g>
<g>
</g>
<g>
</g>
<g>
</g>
<g>
</g>
<g>
</g>
<g>
</g>
<g>
</g>
<g>
</g>
<g>
</g>
<g>
</g>
<g>
</g>
<g>
</g>
<g>
</g>
<g>
</g>
</svg>
