<?xml version="1.0" encoding="iso-8859-1"?>
<!-- Generator: Adobe Illustrator 19.0.0, SVG Export Plug-In . SVG Version: 6.00 Build 0)  -->
<svg version="1.1" id="Capa_1" xmlns="http://www.w3.org/2000/svg" xmlns:xlink="http://www.w3.org/1999/xlink" x="0px" y="0px"
	 viewBox="0 0 208.213 208.213" style="enable-background:new 0 0 208.213 208.213;" xml:space="preserve">
<path style="fill:#DDDDDD;" d="M73.477,40.96c0-9.059,4.321-23.767,10.691-27.817l-0.86-9.73H70.255
	c-4.134,4.077-11.832,6.827-20.671,6.827S33.046,7.491,28.913,3.413H15.86L15,13.143C21.369,17.195,25.69,31.901,25.69,40.96
	c0,10.085-5.362,11.865-12.937,15.372L5.21,201.387h88.747L86.414,56.332C78.841,52.825,73.477,51.045,73.477,40.96z"/>
<path d="M97.553,204.8H1.616L9.453,54.098l3.273-1.51c6.755-3.089,9.552-4.366,9.552-11.628c0-8.617-4.204-21.816-9.11-24.936
	l-1.751-1.113L12.735,0h17.579l0.997,0.983c3.656,3.604,10.656,5.844,18.273,5.844s14.619-2.239,18.275-5.844L68.855,0h17.577
	l1.319,14.909l-1.751,1.113c-4.907,3.12-9.108,16.319-9.108,24.936c0,7.264,2.796,8.54,9.55,11.628l3.275,1.51L97.553,204.8z
	 M8.806,197.973h81.555l-7.25-139.401c-6.777-3.104-13.049-6.238-13.049-17.613c0-8.648,3.734-23.243,10.54-29.37l-0.42-4.763
	h-8.607c-5.076,4.296-13.158,6.827-21.99,6.827s-16.916-2.531-21.99-6.827h-8.608l-0.422,4.763
	c6.806,6.127,10.54,20.722,10.54,29.37c0,11.375-6.27,14.508-13.049,17.613L8.806,197.973z"/>
<rect x="35.925" y="40.96" width="37.547" height="6.827"/>
<path style="fill:#FFFFFF;" d="M186.117,58.027h-23.299h-2.671h-24.226c0.109,0.877,0.184,1.765,0.184,2.671
	c0,11.802-9.568,21.371-21.371,21.371s-21.371-9.568-21.371-21.371c0-0.906,0.075-1.794,0.184-2.671H69.321H66.65H39.344V87.41
	l27.307,7.286v86.211h95.573V94.696l23.893-7.286L186.117,58.027L186.117,58.027z"/>
<path d="M162.224,184.38H66.65c-1.918,0-3.473-1.555-3.473-3.473V97.365l-24.73-6.596c-1.521-0.406-2.577-1.783-2.577-3.357V58.027
	c0-1.918,1.555-3.473,3.473-3.473h54.204c0.995,0,1.944,0.427,2.603,1.174c0.66,0.748,0.966,1.741,0.845,2.731
	c-0.108,0.862-0.159,1.575-0.159,2.241c0,9.868,8.028,17.896,17.896,17.896s17.896-8.028,17.896-17.896
	c0-0.669-0.049-1.381-0.157-2.239c-0.125-0.988,0.183-1.983,0.841-2.731c0.66-0.748,1.608-1.174,2.604-1.174h50.198
	c1.918,0,3.473,1.555,3.473,3.473v29.385c0,1.529-0.998,2.877-2.459,3.323l-21.434,6.533v83.637
	C165.699,182.825,164.142,184.38,162.224,184.38z M70.125,177.434h88.627V94.696c0-1.529,0.998-2.877,2.459-3.323l21.434-6.533V61.5
	h-43.078c-0.425,13.331-11.401,24.042-24.832,24.042S90.33,74.83,89.906,61.5H42.82v23.243l24.73,6.596
	c1.521,0.406,2.577,1.783,2.577,3.357v82.738H70.125z"/>
<path d="M66.65,114.867c-1.884,0-3.413-1.529-3.413-3.413V82.068c0-1.884,1.529-3.413,3.413-3.413c1.884,0,3.413,1.529,3.413,3.413
	v29.385C70.064,113.338,68.536,114.867,66.65,114.867z"/>
<path d="M162.224,114.867c-1.884,0-3.413-1.529-3.413-3.413V82.068c0-1.884,1.529-3.413,3.413-3.413s3.413,1.529,3.413,3.413v29.385
	C165.637,113.338,164.11,114.867,162.224,114.867z"/>
<circle style="fill:#EE5281;" cx="165.632" cy="167.253" r="37.547"/>
<path d="M165.637,208.213c-22.586,0-40.96-18.376-40.96-40.96s18.374-40.96,40.96-40.96s40.96,18.376,40.96,40.96
	S188.223,208.213,165.637,208.213z M165.637,133.12c-18.821,0-34.133,15.312-34.133,34.133s15.312,34.133,34.133,34.133
	s34.133-15.312,34.133-34.133S184.458,133.12,165.637,133.12z"/>
<path d="M182.533,187.561c-0.874,0-1.748-0.333-2.413-1l-33.79-33.79c-1.333-1.333-1.333-3.494,0-4.826
	c1.331-1.333,3.495-1.333,4.826,0l33.79,33.79c1.333,1.333,1.333,3.494,0,4.826C184.281,187.228,183.407,187.561,182.533,187.561z"
	/>
<path d="M148.743,187.561c-0.874,0-1.748-0.333-2.413-1c-1.333-1.333-1.333-3.494,0-4.826l33.79-33.79
	c1.331-1.333,3.495-1.333,4.826,0c1.333,1.333,1.333,3.494,0,4.826l-33.79,33.79C150.49,187.228,149.617,187.561,148.743,187.561z"
	/>
<g>
</g>
<g>
</g>
<g>
</g>
<g>
</g>
<g>
</g>
<g>
</g>
<g>
</g>
<g>
</g>
<g>
</g>
<g>
</g>
<g>
</g>
<g>
</g>
<g>
</g>
<g>
</g>
<g>
</g>
</svg>
