<?xml version="1.0" encoding="iso-8859-1"?>
<!-- Generator: Adobe Illustrator 19.0.0, SVG Export Plug-In . SVG Version: 6.00 Build 0)  -->
<svg version="1.1" id="Capa_1" xmlns="http://www.w3.org/2000/svg" xmlns:xlink="http://www.w3.org/1999/xlink" x="0px" y="0px"
	 viewBox="0 0 208.213 208.213" style="enable-background:new 0 0 208.213 208.213;" xml:space="preserve">
<path style="fill:#DDDDDD;" d="M75.184,40.96c0-9.059,4.321-23.767,10.691-27.817l-0.86-9.73H71.962
	C67.828,7.491,60.129,10.24,51.29,10.24S34.753,7.491,30.619,3.413H17.567l-0.86,9.73c6.369,4.052,10.691,18.758,10.691,27.817
	c0,10.085-5.362,11.865-12.937,15.372L6.917,201.387h88.747L88.12,56.332C80.548,52.825,75.184,51.045,75.184,40.96z"/>
<path d="M99.26,204.8H3.323L11.16,54.098l3.275-1.51c6.755-3.089,9.551-4.366,9.551-11.628c0-8.619-4.204-21.816-9.11-24.936
	l-1.751-1.113L14.442,0H32.02l0.997,0.983c3.654,3.604,10.655,5.844,18.273,5.844c7.617,0,14.618-2.239,18.273-5.844L70.56,0h17.579
	l1.319,14.909l-1.751,1.113c-4.907,3.12-9.11,16.319-9.11,24.936c0,7.264,2.796,8.54,9.55,11.628l3.275,1.51L99.26,204.8z
	 M10.513,197.973H92.07L84.82,58.573C78.041,55.468,71.77,52.335,71.77,40.96c0-8.648,3.734-23.243,10.54-29.37l-0.422-4.763h-8.608
	c-5.076,4.296-13.158,6.827-21.99,6.827c-8.834,0-16.916-2.529-21.99-6.827h-8.608L20.27,11.59
	c6.804,6.127,10.54,20.722,10.54,29.37c0,11.375-6.27,14.508-13.049,17.613L10.513,197.973z"/>
<rect x="37.632" y="40.96" width="37.547" height="6.827"/>
<path style="fill:#FFFFFF;" d="M187.824,58.027h-23.299h-2.671h-24.226c0.109,0.877,0.184,1.765,0.184,2.671
	c0,11.802-9.568,21.371-21.371,21.371S95.07,72.501,95.07,60.698c0-0.906,0.075-1.794,0.184-2.671H71.028h-2.671H41.05V87.41
	l27.307,7.286v86.211h95.573V94.696l23.893-7.286L187.824,58.027L187.824,58.027z"/>
<path d="M163.93,184.38H68.357c-1.918,0-3.473-1.555-3.473-3.473V97.365l-24.728-6.596c-1.522-0.406-2.579-1.783-2.579-3.357V58.027
	c0-1.918,1.555-3.473,3.473-3.473h54.205c0.997,0,1.946,0.428,2.604,1.174c0.659,0.748,0.964,1.743,0.841,2.731
	c-0.108,0.86-0.159,1.572-0.159,2.239c0,9.868,8.028,17.896,17.896,17.896s17.896-8.028,17.896-17.896
	c0-0.666-0.049-1.379-0.159-2.244c-0.121-0.988,0.186-1.981,0.845-2.727c0.66-0.748,1.608-1.174,2.603-1.174h50.196
	c1.918,0,3.473,1.555,3.473,3.473V87.41c0,1.529-0.998,2.877-2.459,3.323L167.4,97.266v83.64
	C167.404,182.825,165.849,184.38,163.93,184.38z M71.83,177.434h88.627V94.696c0-1.529,0.998-2.877,2.459-3.323l21.434-6.533V61.5
	h-43.078c-0.425,13.331-11.402,24.042-24.832,24.042S92.034,74.83,91.609,61.5H44.524v23.243l24.728,6.596
	c1.522,0.406,2.579,1.783,2.579,3.357V177.434z"/>
<path d="M68.357,114.867c-1.884,0-3.413-1.529-3.413-3.413V82.068c0-1.884,1.529-3.413,3.413-3.413c1.884,0,3.413,1.529,3.413,3.413
	v29.385C71.77,113.338,70.243,114.867,68.357,114.867z"/>
<path d="M163.93,114.867c-1.884,0-3.413-1.529-3.413-3.413V82.068c0-1.884,1.529-3.413,3.413-3.413s3.413,1.529,3.413,3.413v29.385
	C167.344,113.338,165.816,114.867,163.93,114.867z"/>
<circle style="fill:#9BFC1D;" cx="163.925" cy="167.253" r="37.547"/>
<path d="M163.93,208.213c-22.584,0-40.96-18.376-40.96-40.96s18.376-40.96,40.96-40.96s40.96,18.376,40.96,40.96
	S186.516,208.213,163.93,208.213z M163.93,133.12c-18.821,0-34.133,15.312-34.133,34.133s15.312,34.133,34.133,34.133
	s34.133-15.312,34.133-34.133S182.753,133.12,163.93,133.12z"/>
<path style="fill:#EE5281;" d="M177.628,148.936c-4.204-1.649-9.25,0.307-13.517,4.632c-4.267-4.325-9.313-6.281-13.517-4.632
	c-6.815,2.674-8.83,13.785-4.502,24.818c3.886,9.906,14.232,15.357,18.019,15.642c3.787-0.285,14.135-5.736,18.019-15.642
	C186.458,162.72,184.443,151.608,177.628,148.936z"/>
<path d="M164.111,192.811c-0.087,0-0.172-0.003-0.258-0.01c-5.161-0.391-16.573-6.673-20.941-17.801
	c-5.093-12.983-2.266-25.829,6.434-29.242c4.574-1.795,9.926-0.58,14.764,3.232c4.837-3.811,10.192-5.023,14.763-3.234l0,0
	c4.439,1.742,7.472,5.948,8.542,11.843c0.963,5.301,0.215,11.482-2.106,17.399c-4.367,11.127-15.778,17.41-20.941,17.801
	C164.282,192.807,164.197,192.811,164.111,192.811z M153.742,151.767c-0.672,0-1.311,0.113-1.905,0.346
	c-4.332,1.7-6.453,10.493-2.569,20.393c3.319,8.465,12.131,13,14.841,13.454c2.71-0.454,11.522-4.989,14.841-13.454
	c1.838-4.685,2.475-9.675,1.746-13.689c-0.365-2.016-1.413-5.565-4.318-6.705l0,0c-2.734-1.075-6.409,0.372-9.841,3.85
	c-1.283,1.3-3.577,1.3-4.861,0C158.995,153.24,156.158,151.767,153.742,151.767z"/>
<g>
</g>
<g>
</g>
<g>
</g>
<g>
</g>
<g>
</g>
<g>
</g>
<g>
</g>
<g>
</g>
<g>
</g>
<g>
</g>
<g>
</g>
<g>
</g>
<g>
</g>
<g>
</g>
<g>
</g>
</svg>
