<?xml version="1.0" encoding="iso-8859-1"?>
<!-- Generator: Adobe Illustrator 19.0.0, SVG Export Plug-In . SVG Version: 6.00 Build 0)  -->
<svg version="1.1" id="Capa_1" xmlns="http://www.w3.org/2000/svg" xmlns:xlink="http://www.w3.org/1999/xlink" x="0px" y="0px"
	 viewBox="0 0 208.213 208.213" style="enable-background:new 0 0 208.213 208.213;" xml:space="preserve">
<path style="fill:#DDDDDD;" d="M75.184,40.96c0-9.059,4.321-23.767,10.691-27.817l-0.86-9.73H71.962
	C67.828,7.491,60.129,10.24,51.29,10.24S34.753,7.491,30.619,3.413H17.567l-0.86,9.73c6.369,4.052,10.691,18.758,10.691,27.817
	c0,10.085-5.362,11.865-12.937,15.372L6.917,201.387h88.747L88.12,56.332C80.548,52.825,75.184,51.045,75.184,40.96z"/>
<path d="M99.26,204.8H3.323L11.16,54.098l3.273-1.51c6.755-3.089,9.552-4.366,9.552-11.628c0-8.617-4.204-21.816-9.11-24.936
	l-1.751-1.113L14.442,0H32.02l0.997,0.983c3.656,3.604,10.656,5.844,18.273,5.844S65.91,4.588,69.565,0.983L70.562,0h17.577
	l1.319,14.909l-1.751,1.113c-4.907,3.12-9.108,16.319-9.108,24.936c0,7.264,2.796,8.54,9.55,11.628l3.275,1.51L99.26,204.8z
	 M10.513,197.973h81.555l-7.25-139.401c-6.777-3.104-13.049-6.238-13.049-17.613c0-8.648,3.734-23.243,10.54-29.37l-0.42-4.763
	h-8.607c-5.076,4.296-13.158,6.827-21.99,6.827s-16.916-2.531-21.99-6.827h-8.608l-0.422,4.763
	c6.806,6.127,10.54,20.722,10.54,29.37c0,11.375-6.27,14.508-13.049,17.613L10.513,197.973z"/>
<rect x="37.632" y="40.96" width="37.547" height="6.827"/>
<path style="fill:#FFFFFF;" d="M187.824,58.027h-23.299h-2.671h-24.226c0.109,0.877,0.184,1.765,0.184,2.671
	c0,11.802-9.568,21.371-21.371,21.371S95.07,72.501,95.07,60.698c0-0.906,0.075-1.794,0.184-2.671H71.028h-2.671H41.05V87.41
	l27.307,7.286v86.211h95.573V94.696l23.893-7.286L187.824,58.027L187.824,58.027z"/>
<path d="M163.93,184.38H68.357c-1.918,0-3.473-1.555-3.473-3.473V97.365l-24.73-6.596c-1.521-0.406-2.577-1.783-2.577-3.357V58.027
	c0-1.918,1.555-3.473,3.473-3.473h54.205c0.997,0,1.946,0.428,2.604,1.174c0.659,0.748,0.964,1.743,0.841,2.731
	c-0.108,0.86-0.159,1.572-0.159,2.239c0,9.868,8.028,17.896,17.896,17.896s17.896-8.028,17.896-17.896
	c0-0.666-0.049-1.379-0.159-2.244c-0.121-0.988,0.186-1.981,0.845-2.727c0.66-0.748,1.608-1.174,2.603-1.174h50.196
	c1.918,0,3.473,1.555,3.473,3.473V87.41c0,1.529-0.998,2.877-2.459,3.323L167.4,97.266v83.64
	C167.405,182.825,165.849,184.38,163.93,184.38z M71.832,177.434h88.627V94.696c0-1.529,0.998-2.877,2.459-3.323l21.434-6.533V61.5
	h-43.078c-0.425,13.331-11.402,24.042-24.832,24.042S92.037,74.83,91.612,61.5H44.527v23.243l24.73,6.596
	c1.521,0.406,2.577,1.783,2.577,3.357v82.738H71.832z"/>
<path d="M68.357,114.867c-1.884,0-3.413-1.529-3.413-3.413V82.068c0-1.884,1.529-3.413,3.413-3.413c1.884,0,3.413,1.529,3.413,3.413
	v29.385C71.77,113.338,70.243,114.867,68.357,114.867z"/>
<path d="M163.93,114.867c-1.884,0-3.413-1.529-3.413-3.413V82.068c0-1.884,1.529-3.413,3.413-3.413s3.413,1.529,3.413,3.413v29.385
	C167.344,113.338,165.816,114.867,163.93,114.867z"/>
<circle style="fill:#EE5281;" cx="163.925" cy="167.253" r="37.547"/>
<path d="M163.93,208.213c-22.584,0-40.96-18.376-40.96-40.96s18.376-40.96,40.96-40.96s40.96,18.376,40.96,40.96
	S186.516,208.213,163.93,208.213z M163.93,133.12c-18.821,0-34.133,15.312-34.133,34.133s15.312,34.133,34.133,34.133
	s34.133-15.312,34.133-34.133S182.753,133.12,163.93,133.12z"/>
<path style="fill:#FEDA38;" d="M168.161,145.229l2.908,8.953c0.55,1.69,2.123,2.831,3.898,2.831h9.414
	c3.97,0,5.622,5.081,2.41,7.415l-7.615,5.533c-1.437,1.044-2.038,2.895-1.488,4.582l2.908,8.953
	c1.227,3.777-3.096,6.917-6.308,4.582l-7.615-5.533c-1.437-1.044-3.383-1.044-4.818,0l-7.615,5.533
	c-3.212,2.333-7.535-0.806-6.308-4.582l2.908-8.953c0.55-1.69-0.053-3.54-1.488-4.582l-7.615-5.533
	c-3.212-2.333-1.562-7.415,2.41-7.415h9.414c1.775,0,3.35-1.143,3.898-2.831l2.908-8.953
	C161.592,141.452,166.934,141.452,168.161,145.229z"/>
<path d="M176.696,192.302c-1.536,0-3.074-0.488-4.415-1.461l-7.617-5.533c-0.242-0.177-0.565-0.176-0.807,0l-7.613,5.533
	c-2.685,1.947-6.151,1.946-8.832,0c-2.681-1.951-3.751-5.245-2.729-8.399l2.908-8.953c0.092-0.283-0.007-0.59-0.247-0.765
	l-7.619-5.533c-2.681-1.951-3.751-5.246-2.729-8.4c1.026-3.154,3.83-5.19,7.146-5.19h9.414c0.299,0,0.56-0.189,0.652-0.473
	l2.908-8.953c1.026-3.154,3.828-5.192,7.146-5.192s6.12,2.038,7.146,5.192l2.908,8.953c0.092,0.283,0.353,0.473,0.652,0.473h9.414
	c3.314,0,6.12,2.036,7.146,5.19c1.024,3.154-0.046,6.45-2.729,8.399l-7.617,5.535c-0.242,0.176-0.34,0.481-0.249,0.765l2.908,8.953
	c1.024,3.154-0.046,6.448-2.729,8.399C179.772,191.814,178.232,192.302,176.696,192.302z M144.145,160.427
	c-0.137,0-0.498,0-0.652,0.473c-0.155,0.474,0.138,0.686,0.249,0.768l7.617,5.531c2.64,1.918,3.736,5.292,2.729,8.399l-2.908,8.953
	c-0.041,0.128-0.154,0.471,0.249,0.765c0.406,0.297,0.695,0.08,0.806,0l7.615-5.533c2.645-1.917,6.193-1.918,8.832,0.002
	l7.617,5.531c0.109,0.08,0.399,0.297,0.806,0c0.401-0.294,0.29-0.637,0.249-0.765l-2.908-8.953c-1.009-3.106,0.089-6.48,2.731-8.399
	l7.615-5.533c0.109-0.08,0.403-0.292,0.249-0.766c-0.154-0.473-0.515-0.473-0.652-0.473h-9.414c-3.265,0-6.137-2.087-7.146-5.19
	l-2.908-8.953c-0.041-0.13-0.154-0.474-0.652-0.474c-0.498,0-0.609,0.345-0.652,0.474l-2.908,8.953
	c-1.009,3.103-3.879,5.19-7.146,5.19L144.145,160.427L144.145,160.427z"/>
<g>
</g>
<g>
</g>
<g>
</g>
<g>
</g>
<g>
</g>
<g>
</g>
<g>
</g>
<g>
</g>
<g>
</g>
<g>
</g>
<g>
</g>
<g>
</g>
<g>
</g>
<g>
</g>
<g>
</g>
</svg>
