<?xml version="1.0" encoding="iso-8859-1"?>
<!-- Generator: Adobe Illustrator 19.0.0, SVG Export Plug-In . SVG Version: 6.00 Build 0)  -->
<svg version="1.1" id="Capa_1" xmlns="http://www.w3.org/2000/svg" xmlns:xlink="http://www.w3.org/1999/xlink" x="0px" y="0px"
	 viewBox="0 0 197.973 197.973" style="enable-background:new 0 0 197.973 197.973;" xml:space="preserve">
<path style="fill:#DDDDDD;" d="M194.56,20.48h-34.133h-3.413h-30.956c0.14,1.121,0.236,2.255,0.236,3.413
	c0,15.08-12.225,27.307-27.307,27.307S71.68,38.973,71.68,23.893c0-1.159,0.096-2.292,0.236-3.413H40.96h-3.413H3.413v37.547
	l34.133,9.31v110.157h122.88V67.337l34.133-9.31V20.48z"/>
<path d="M160.427,180.907H37.547c-1.884,0-3.413-1.529-3.413-3.413V69.943L2.516,61.319C1.031,60.914,0,59.566,0,58.027V20.48
	c0-1.884,1.529-3.413,3.413-3.413h68.502c0.978,0,1.91,0.42,2.558,1.154c0.649,0.736,0.951,1.712,0.828,2.683
	c-0.142,1.14-0.208,2.091-0.208,2.99c0,13.175,10.718,23.893,23.893,23.893s23.893-10.718,23.893-23.893
	c0-0.889-0.067-1.84-0.21-2.99c-0.121-0.971,0.179-1.949,0.828-2.683c0.649-0.734,1.58-1.154,2.558-1.154h68.504
	c1.884,0,3.413,1.529,3.413,3.413v37.547c0,1.539-1.031,2.888-2.516,3.294l-31.618,8.622v107.551
	C163.84,179.378,162.311,180.907,160.427,180.907z M40.96,174.08h116.053V67.337c0-1.539,1.031-2.888,2.516-3.294l31.618-8.622
	V23.893h-61.44c0,16.939-13.781,30.72-30.72,30.72s-30.72-13.781-30.72-30.72H6.827v31.527l31.618,8.624
	c1.485,0.404,2.516,1.753,2.516,3.294V174.08z"/>
<path d="M160.427,81.92c-1.884,0-3.413-1.529-3.413-3.413V51.2c0-1.884,1.529-3.413,3.413-3.413c1.884,0,3.413,1.529,3.413,3.413
	v27.307C163.84,80.391,162.311,81.92,160.427,81.92z"/>
<path d="M37.547,92.16c-1.884,0-3.413-1.529-3.413-3.413V51.2c0-1.884,1.529-3.413,3.413-3.413c1.884,0,3.413,1.529,3.413,3.413
	v37.547C40.96,90.631,39.431,92.16,37.547,92.16z"/>
<path style="fill:#EE5281;" d="M142.256,72.784c0-3.77-3.057-6.827-6.827-6.827h-17.067c-28.233,0-51.2,22.967-51.2,51.2
	c0,3.77,3.057,6.827,6.827,6.827c3.77,0,6.827-3.057,6.827-6.827c0-20.704,16.843-37.547,37.547-37.547h17.067
	C139.199,79.611,142.256,76.554,142.256,72.784z"/>
<path d="M73.989,127.398c-5.647,0-10.24-4.593-10.24-10.24c0-30.114,24.499-54.613,54.613-54.613h17.067
	c5.647,0,10.24,4.593,10.24,10.24s-4.593,10.24-10.24,10.24h-17.067c-18.821,0-34.133,15.312-34.133,34.133
	C84.229,122.805,79.635,127.398,73.989,127.398z M118.362,69.371c-26.349,0-47.787,21.437-47.787,47.787
	c0,1.882,1.531,3.413,3.413,3.413c1.882,0,3.413-1.531,3.413-3.413c0-22.584,18.376-40.96,40.96-40.96h17.067
	c1.882,0,3.413-1.531,3.413-3.413c0-1.882-1.531-3.413-3.413-3.413H118.362z"/>
<path style="fill:#EE5281;" d="M68.586,145.792l-12.447-20.019c-2.635-4.238,0.413-9.721,5.402-9.721h24.893
	c4.99,0,8.037,5.484,5.403,9.721l-12.447,20.019C76.902,149.796,71.076,149.796,68.586,145.792z"/>
<path d="M73.989,152.211L73.989,152.211c-3.401-0.002-6.506-1.727-8.3-4.615l-12.447-20.019c-1.901-3.057-1.993-6.762-0.244-9.909
	c1.748-3.149,4.943-5.026,8.544-5.026h24.893c3.601,0,6.796,1.881,8.545,5.028c1.748,3.147,1.659,6.851-0.244,9.909L82.29,147.596
	C80.493,150.485,77.39,152.209,73.989,152.211z M61.542,119.467c-1.565,0-2.323,1.06-2.577,1.517
	c-0.253,0.456-0.753,1.659,0.073,2.987l12.447,20.021c0.782,1.254,2.01,1.389,2.504,1.391l0,0c0.493,0,1.724-0.137,2.505-1.393
	l12.447-20.017c0.826-1.33,0.326-2.531,0.073-2.988s-1.014-1.517-2.579-1.517H61.542z"/>
<g>
</g>
<g>
</g>
<g>
</g>
<g>
</g>
<g>
</g>
<g>
</g>
<g>
</g>
<g>
</g>
<g>
</g>
<g>
</g>
<g>
</g>
<g>
</g>
<g>
</g>
<g>
</g>
<g>
</g>
</svg>
