<?xml version="1.0" encoding="iso-8859-1"?>
<!-- Generator: Adobe Illustrator 19.0.0, SVG Export Plug-In . SVG Version: 6.00 Build 0)  -->
<svg version="1.1" id="Capa_1" xmlns="http://www.w3.org/2000/svg" xmlns:xlink="http://www.w3.org/1999/xlink" x="0px" y="0px"
	 viewBox="0 0 208.213 208.213" style="enable-background:new 0 0 208.213 208.213;" xml:space="preserve">
<path style="fill:#DDDDDD;" d="M75.184,40.96c0-9.059,4.321-23.767,10.691-27.817l-0.86-9.73H71.962
	C67.828,7.491,60.129,10.24,51.29,10.24S34.753,7.491,30.619,3.413H17.567l-0.86,9.73c6.369,4.052,10.691,18.758,10.691,27.817
	c0,10.085-5.362,11.865-12.937,15.372L6.917,201.387h88.747L88.12,56.332C80.548,52.825,75.184,51.045,75.184,40.96z"/>
<path d="M99.26,204.8H3.323L11.16,54.098l3.273-1.51c6.755-3.089,9.552-4.366,9.552-11.628c0-8.617-4.204-21.816-9.11-24.936
	l-1.751-1.113L14.442,0H32.02l0.997,0.983c3.656,3.604,10.656,5.844,18.273,5.844S65.91,4.588,69.565,0.983L70.562,0h17.577
	l1.319,14.909l-1.751,1.113c-4.907,3.12-9.108,16.319-9.108,24.936c0,7.264,2.796,8.54,9.55,11.628l3.275,1.51L99.26,204.8z
	 M10.513,197.973h81.555l-7.25-139.401c-6.777-3.104-13.049-6.238-13.049-17.613c0-8.648,3.734-23.243,10.54-29.37l-0.42-4.763
	h-8.607c-5.076,4.296-13.158,6.827-21.99,6.827s-16.916-2.531-21.99-6.827h-8.608l-0.422,4.763
	c6.806,6.127,10.54,20.722,10.54,29.37c0,11.375-6.27,14.508-13.049,17.613L10.513,197.973z"/>
<rect x="37.632" y="40.96" width="37.547" height="6.827"/>
<path style="fill:#FFFFFF;" d="M187.824,58.027h-23.299h-2.671h-24.226c0.109,0.877,0.184,1.765,0.184,2.671
	c0,11.802-9.568,21.371-21.371,21.371S95.07,72.501,95.07,60.698c0-0.906,0.075-1.794,0.184-2.671H71.028h-2.671H41.05V87.41
	l27.307,7.286v86.211h95.573V94.696l23.893-7.286L187.824,58.027L187.824,58.027z"/>
<path d="M163.93,184.38H68.357c-1.918,0-3.473-1.555-3.473-3.473V97.365l-24.73-6.596c-1.521-0.406-2.577-1.783-2.577-3.357V58.027
	c0-1.918,1.555-3.473,3.473-3.473h54.204c0.995,0,1.944,0.427,2.603,1.174c0.66,0.748,0.966,1.741,0.845,2.731
	c-0.108,0.862-0.159,1.575-0.159,2.241c0,9.868,8.028,17.896,17.896,17.896s17.896-8.028,17.896-17.896
	c0-0.669-0.049-1.381-0.157-2.239c-0.125-0.988,0.183-1.983,0.841-2.731c0.66-0.748,1.608-1.174,2.604-1.174h50.198
	c1.918,0,3.473,1.555,3.473,3.473v29.385c0,1.529-0.998,2.877-2.459,3.323l-21.434,6.533v83.637
	C167.405,182.825,165.849,184.38,163.93,184.38z M71.832,177.434h88.627V94.696c0-1.529,0.998-2.877,2.459-3.323l21.434-6.533V61.5
	h-43.078c-0.425,13.331-11.401,24.042-24.832,24.042S92.037,74.83,91.612,61.5H44.527v23.243l24.73,6.596
	c1.521,0.406,2.577,1.783,2.577,3.357v82.738H71.832z"/>
<path d="M68.357,114.867c-1.884,0-3.413-1.529-3.413-3.413V82.068c0-1.884,1.529-3.413,3.413-3.413c1.884,0,3.413,1.529,3.413,3.413
	v29.385C71.77,113.338,70.243,114.867,68.357,114.867z"/>
<path d="M163.93,114.867c-1.884,0-3.413-1.529-3.413-3.413V82.068c0-1.884,1.529-3.413,3.413-3.413s3.413,1.529,3.413,3.413v29.385
	C167.344,113.338,165.816,114.867,163.93,114.867z"/>
<circle style="fill:#9BFC1D;" cx="163.925" cy="167.253" r="37.547"/>
<path d="M163.93,208.213c-22.586,0-40.96-18.376-40.96-40.96s18.374-40.96,40.96-40.96s40.96,18.376,40.96,40.96
	S186.516,208.213,163.93,208.213z M163.93,133.12c-18.821,0-34.133,15.312-34.133,34.133s15.312,34.133,34.133,34.133
	s34.133-15.312,34.133-34.133S182.752,133.12,163.93,133.12z"/>
<polyline style="fill:#9BFC1D;" points="146.864,170.667 163.93,184.32 177.584,150.187 "/>
<path d="M163.93,187.733c-0.766,0-1.521-0.258-2.133-0.748l-17.067-13.653c-1.471-1.176-1.71-3.325-0.532-4.797
	c1.178-1.471,3.326-1.712,4.797-0.532l13.474,10.778l11.945-29.862c0.701-1.749,2.688-2.596,4.437-1.901
	c1.751,0.701,2.601,2.686,1.901,4.439L167.1,185.59c-0.401,1.004-1.254,1.756-2.299,2.031
	C164.514,187.698,164.222,187.733,163.93,187.733z"/>
<g>
</g>
<g>
</g>
<g>
</g>
<g>
</g>
<g>
</g>
<g>
</g>
<g>
</g>
<g>
</g>
<g>
</g>
<g>
</g>
<g>
</g>
<g>
</g>
<g>
</g>
<g>
</g>
<g>
</g>
</svg>
