<?xml version="1.0" encoding="iso-8859-1"?>
<!-- Generator: Adobe Illustrator 19.0.0, SVG Export Plug-In . SVG Version: 6.00 Build 0)  -->
<svg version="1.1" id="Capa_1" xmlns="http://www.w3.org/2000/svg" xmlns:xlink="http://www.w3.org/1999/xlink" x="0px" y="0px"
	 viewBox="0 0 208.213 208.213" style="enable-background:new 0 0 208.213 208.213;" xml:space="preserve">
<path style="fill:#DDDDDD;" d="M75.093,40.96c0-9.059,4.321-23.767,10.691-27.817l-0.86-9.73H71.871
	C67.737,7.491,60.039,10.24,51.2,10.24S34.662,7.491,30.529,3.413H17.476l-0.86,9.73c6.368,4.05,10.691,18.758,10.691,27.817
	c0,10.085-5.362,11.865-12.937,15.372L6.826,201.387h88.747L88.03,56.332C80.455,52.825,75.093,51.045,75.093,40.96z"/>
<path d="M95.573,204.8H6.826c-0.935,0-1.831-0.386-2.476-1.063c-0.643-0.678-0.981-1.592-0.932-2.526L10.96,56.156
	c0.065-1.265,0.826-2.388,1.975-2.92l1.406-0.647c6.755-3.089,9.552-4.366,9.552-11.628c0-8.617-4.204-21.816-9.11-24.936
	c-1.075-0.683-1.681-1.91-1.568-3.18l0.86-9.73C14.232,1.352,15.708,0,17.476,0h13.053c0.898,0,1.758,0.353,2.396,0.983
	C36.581,4.588,43.583,6.827,51.2,6.827s14.619-2.239,18.275-5.844C70.113,0.353,70.973,0,71.871,0h13.053
	c1.768,0,3.244,1.352,3.4,3.113l0.86,9.73c0.113,1.27-0.493,2.497-1.568,3.18c-4.905,3.122-9.108,16.319-9.108,24.938
	c0,7.264,2.796,8.54,9.55,11.628l1.408,0.647c1.149,0.532,1.91,1.655,1.975,2.92l7.543,145.055c0.05,0.935-0.288,1.848-0.932,2.526
	C97.404,204.414,96.508,204.8,95.573,204.8z M10.422,197.973h81.555l-7.25-139.401C77.95,55.468,71.68,52.335,71.68,40.96
	c0-8.648,3.734-23.243,10.54-29.37l-0.422-4.763h-8.607c-5.076,4.296-13.158,6.827-21.99,6.827s-16.916-2.531-21.99-6.827h-8.608
	l-0.422,4.763c6.804,6.127,10.539,20.722,10.539,29.37c0,11.375-6.27,14.508-13.049,17.613L10.422,197.973z"/>
<rect x="37.546" y="40.96" width="37.547" height="6.827"/>
<path style="fill:#FFFFFF;" d="M187.733,58.027h-23.299h-2.671h-24.226c0.109,0.877,0.184,1.765,0.184,2.671
	c0,11.802-9.568,21.371-21.371,21.371s-21.371-9.568-21.371-21.371c0-0.906,0.075-1.794,0.184-2.671H70.937h-2.671H40.96V87.41
	l27.307,7.286v86.211h95.573V94.696l23.893-7.286V58.027z"/>
<path d="M163.84,184.32H68.266c-1.884,0-3.413-1.529-3.413-3.413V97.318l-24.774-6.608c-1.493-0.398-2.533-1.751-2.533-3.299V58.027
	c0-1.884,1.529-3.413,3.413-3.413h54.204c0.98,0,1.911,0.42,2.558,1.154c0.649,0.734,0.951,1.71,0.829,2.681
	c-0.108,0.865-0.159,1.58-0.159,2.249c0,9.902,8.055,17.956,17.956,17.956s17.958-8.055,17.958-17.956
	c0-0.672-0.049-1.386-0.159-2.246c-0.121-0.971,0.179-1.949,0.828-2.683c0.647-0.736,1.58-1.155,2.56-1.155h50.198
	c1.884,0,3.413,1.529,3.413,3.413v29.385c0,1.502-0.981,2.826-2.418,3.265l-21.475,6.548v83.681
	C167.253,182.791,165.724,184.32,163.84,184.32z M71.68,177.493h88.747V94.696c0-1.502,0.981-2.826,2.418-3.265l21.475-6.548V61.44
	h-43.197c-0.393,13.326-11.354,24.042-24.774,24.042c-13.418,0-24.38-10.716-24.772-24.042H44.373v23.351l24.774,6.608
	c1.493,0.398,2.533,1.751,2.533,3.299V177.493z"/>
<path d="M68.266,114.867c-1.884,0-3.413-1.529-3.413-3.413V82.068c0-1.884,1.529-3.413,3.413-3.413c1.884,0,3.413,1.529,3.413,3.413
	v29.385C71.68,113.338,70.151,114.867,68.266,114.867z"/>
<path d="M163.84,114.867c-1.884,0-3.413-1.529-3.413-3.413V82.068c0-1.884,1.529-3.413,3.413-3.413c1.884,0,3.413,1.529,3.413,3.413
	v29.385C167.253,113.338,165.724,114.867,163.84,114.867z"/>
<circle style="fill:#83D816;" cx="163.84" cy="167.253" r="37.547"/>
<path d="M163.84,208.213c-22.586,0-40.96-18.376-40.96-40.96s18.374-40.96,40.96-40.96s40.96,18.376,40.96,40.96
	S186.426,208.213,163.84,208.213z M163.84,133.12c-18.821,0-34.133,15.312-34.133,34.133s15.312,34.133,34.133,34.133
	s34.133-15.312,34.133-34.133S182.661,133.12,163.84,133.12z"/>
<path d="M163.84,191.147c-1.884,0-3.413-1.529-3.413-3.413v-40.96c0-1.884,1.529-3.413,3.413-3.413c1.884,0,3.413,1.529,3.413,3.413
	v40.96C167.253,189.618,165.724,191.147,163.84,191.147z"/>
<path d="M184.32,170.667h-40.96c-1.884,0-3.413-1.529-3.413-3.413c0-1.884,1.529-3.413,3.413-3.413h40.96
	c1.884,0,3.413,1.529,3.413,3.413C187.733,169.137,186.204,170.667,184.32,170.667z"/>
<g>
</g>
<g>
</g>
<g>
</g>
<g>
</g>
<g>
</g>
<g>
</g>
<g>
</g>
<g>
</g>
<g>
</g>
<g>
</g>
<g>
</g>
<g>
</g>
<g>
</g>
<g>
</g>
<g>
</g>
</svg>
