<?xml version="1.0" encoding="iso-8859-1"?>
<!-- Generator: Adobe Illustrator 19.0.0, SVG Export Plug-In . SVG Version: 6.00 Build 0)  -->
<svg version="1.1" id="Capa_1" xmlns="http://www.w3.org/2000/svg" xmlns:xlink="http://www.w3.org/1999/xlink" x="0px" y="0px"
	 viewBox="0 0 187.733 187.733" style="enable-background:new 0 0 187.733 187.733;" xml:space="preserve">
<circle style="fill:#26BBEC;" cx="93.867" cy="92.16" r="88.747"/>
<path d="M93.867,184.32c-50.818,0-92.16-41.344-92.16-92.16S43.049,0,93.867,0s92.16,41.344,92.16,92.16
	S144.684,184.32,93.867,184.32z M93.867,6.827c-47.053,0-85.333,38.281-85.333,85.333s38.281,85.333,85.333,85.333
	S179.2,139.213,179.2,92.16S140.919,6.827,93.867,6.827z"/>
<polyline style="fill:#26BBEC;" points="29.013,139.947 15.36,184.32 76.8,160.427 "/>
<path d="M15.36,187.733c-0.848,0-1.683-0.317-2.326-0.913c-0.959-0.891-1.323-2.253-0.937-3.504l13.653-44.373
	c0.555-1.804,2.463-2.811,4.267-2.258c1.802,0.553,2.813,2.463,2.258,4.265l-11.58,37.632l54.866-21.337
	c1.754-0.686,3.734,0.184,4.419,1.946c0.683,1.756-0.186,3.734-1.944,4.419l-61.44,23.893
	C16.196,187.657,15.776,187.733,15.36,187.733z"/>
<path d="M80.196,85.333c-0.055,0-0.109-0.002-0.166-0.003c-1.884-0.09-3.337-1.69-3.246-3.574c0.01-0.207,0.015-0.418,0.015-0.628
	c0-7.091-5.77-12.861-12.861-12.861s-12.861,5.77-12.861,12.861c0,1.884-1.529,3.413-3.413,3.413c-1.884,0-3.413-1.529-3.413-3.413
	c0-10.856,8.832-19.688,19.688-19.688s19.688,8.832,19.688,19.688c0,0.321-0.009,0.638-0.024,0.956
	C83.517,83.91,82.007,85.333,80.196,85.333z"/>
<path d="M141.636,85.333c-0.055,0-0.109-0.002-0.166-0.003c-1.884-0.09-3.337-1.69-3.246-3.574c0.01-0.207,0.015-0.418,0.015-0.628
	c0-7.091-5.77-12.861-12.861-12.861s-12.861,5.77-12.861,12.861c0,1.884-1.529,3.413-3.413,3.413c-1.884,0-3.413-1.529-3.413-3.413
	c0-10.856,8.832-19.688,19.688-19.688s19.688,8.832,19.688,19.688c0,0.321-0.009,0.638-0.024,0.956
	C144.957,83.91,143.447,85.333,141.636,85.333z"/>
<path style="fill:#2A8EE6;" d="M49.493,102.4c0,24.506,19.867,44.373,44.373,44.373s44.373-19.867,44.373-44.373H49.493z"/>
<path d="M93.867,150.246c-26.383,0-47.846-21.463-47.846-47.846c0-1.918,1.555-3.473,3.473-3.473h88.747
	c1.918,0,3.473,1.555,3.473,3.473C141.713,128.783,120.25,150.246,93.867,150.246z M53.113,105.873
	c1.77,20.934,19.371,37.427,40.753,37.427s38.984-16.493,40.753-37.427H53.113z"/>
<g>
</g>
<g>
</g>
<g>
</g>
<g>
</g>
<g>
</g>
<g>
</g>
<g>
</g>
<g>
</g>
<g>
</g>
<g>
</g>
<g>
</g>
<g>
</g>
<g>
</g>
<g>
</g>
<g>
</g>
</svg>
