<?xml version="1.0" encoding="iso-8859-1"?>
<!-- Generator: Adobe Illustrator 19.0.0, SVG Export Plug-In . SVG Version: 6.00 Build 0)  -->
<svg version="1.1" id="Capa_1" xmlns="http://www.w3.org/2000/svg" xmlns:xlink="http://www.w3.org/1999/xlink" x="0px" y="0px"
	 viewBox="0 0 187.733 187.733" style="enable-background:new 0 0 187.733 187.733;" xml:space="preserve">
<path style="fill:#9DFB45;" d="M41.407,34.133c-17.213,0-31.167,13.954-31.167,31.169v81.471v3.413v34.133l24.823-34.133h111.261
	c17.213,0,31.167-13.954,31.167-31.169V34.133H41.407z"/>
<path d="M10.24,187.733c-0.352,0-0.708-0.055-1.055-0.167c-1.406-0.457-2.359-1.768-2.359-3.246V65.302
	c0-19.069,15.514-34.582,34.582-34.582h136.084c1.884,0,3.413,1.529,3.413,3.413v84.884c0,19.069-15.514,34.582-34.582,34.582
	H36.801L13,186.329C12.346,187.228,11.312,187.733,10.24,187.733z M41.409,37.547c-15.304,0-27.756,12.452-27.756,27.756v108.522
	l18.65-25.644c0.642-0.882,1.669-1.405,2.76-1.405h111.261c15.304,0,27.756-12.452,27.756-27.756V37.547H41.409z"/>
<path d="M75.09,129.707c-0.599,0-1.203-0.157-1.753-0.486c-1.616-0.969-2.14-3.067-1.171-4.683l40.96-68.267
	c0.969-1.618,3.065-2.142,4.683-1.171c1.616,0.969,2.14,3.067,1.171,4.683l-40.96,68.267C77.38,129.116,76.25,129.707,75.09,129.707
	z"/>
<path d="M76.8,75.093c-6.586,0-11.947-5.361-11.947-11.947S70.214,51.2,76.8,51.2s11.947,5.361,11.947,11.947
	S83.386,75.093,76.8,75.093z M76.8,58.027c-2.823,0-5.12,2.297-5.12,5.12s2.297,5.12,5.12,5.12s5.12-2.297,5.12-5.12
	S79.623,58.027,76.8,58.027z"/>
<path d="M117.76,126.293c-6.586,0-11.947-5.361-11.947-11.947c0-6.586,5.361-11.947,11.947-11.947s11.947,5.361,11.947,11.947
	C129.707,120.933,124.346,126.293,117.76,126.293z M117.76,109.227c-2.823,0-5.12,2.297-5.12,5.12s2.297,5.12,5.12,5.12
	s5.12-2.297,5.12-5.12S120.583,109.227,117.76,109.227z"/>
<path d="M58.027,153.6H23.893c-1.884,0-3.413-1.529-3.413-3.413c0-1.884,1.529-3.413,3.413-3.413h34.133
	c1.884,0,3.413,1.529,3.413,3.413C61.44,152.071,59.911,153.6,58.027,153.6z"/>
<circle style="fill:#9DFB45;" cx="97.28" cy="11.947" r="8.533"/>
<path d="M97.28,23.893c-6.586,0-11.947-5.361-11.947-11.947S90.694,0,97.28,0c6.586,0,11.947,5.361,11.947,11.947
	S103.866,23.893,97.28,23.893z M97.28,6.827c-2.823,0-5.12,2.297-5.12,5.12s2.297,5.12,5.12,5.12c2.823,0,5.12-2.297,5.12-5.12
	S100.103,6.827,97.28,6.827z"/>
<circle style="fill:#9DFB45;" cx="131.413" cy="11.947" r="8.533"/>
<path d="M131.413,23.893c-6.586,0-11.947-5.361-11.947-11.947S124.827,0,131.413,0c6.586,0,11.947,5.361,11.947,11.947
	S137.999,23.893,131.413,23.893z M131.413,6.827c-2.823,0-5.12,2.297-5.12,5.12s2.297,5.12,5.12,5.12c2.823,0,5.12-2.297,5.12-5.12
	S134.236,6.827,131.413,6.827z"/>
<circle style="fill:#9DFB45;" cx="165.547" cy="11.947" r="8.533"/>
<path d="M165.547,23.893c-6.586,0-11.947-5.361-11.947-11.947S158.961,0,165.547,0c6.586,0,11.947,5.361,11.947,11.947
	S172.133,23.893,165.547,23.893z M165.547,6.827c-2.823,0-5.12,2.297-5.12,5.12s2.297,5.12,5.12,5.12c2.823,0,5.12-2.297,5.12-5.12
	S168.37,6.827,165.547,6.827z"/>
<g>
</g>
<g>
</g>
<g>
</g>
<g>
</g>
<g>
</g>
<g>
</g>
<g>
</g>
<g>
</g>
<g>
</g>
<g>
</g>
<g>
</g>
<g>
</g>
<g>
</g>
<g>
</g>
<g>
</g>
</svg>
