<?xml version="1.0" encoding="iso-8859-1"?>
<!-- Generator: Adobe Illustrator 19.0.0, SVG Export Plug-In . SVG Version: 6.00 Build 0)  -->
<svg version="1.1" id="Capa_1" xmlns="http://www.w3.org/2000/svg" xmlns:xlink="http://www.w3.org/1999/xlink" x="0px" y="0px"
	 viewBox="0 0 204.86 204.86" style="enable-background:new 0 0 204.86 204.86;" xml:space="preserve">
<path style="fill:#FBAD4A;" d="M71.74,5.179c-37.702,0-68.267,30.565-68.267,68.267c0,18.54,7.415,35.328,19.412,47.63
	l-9.172,20.637l20.576-11.223c10.755,7.076,23.612,11.223,37.451,11.223c37.702,0,68.267-30.565,68.267-68.267
	S109.442,5.179,71.74,5.179z"/>
<path d="M13.715,145.185c-0.853,0-1.7-0.314-2.357-0.92c-1.096-1.009-1.423-2.603-0.819-3.963l8.233-18.524
	C6.647,108.516,0,91.447,0,73.447c0-39.559,32.181-71.74,71.74-71.74s71.74,32.181,71.74,71.74s-32.181,71.74-71.74,71.74
	c-13.321,0-26.271-3.681-37.588-10.665l-18.775,10.242C14.855,145.047,14.281,145.185,13.715,145.185z M34.287,127.014
	c0.667,0,1.331,0.191,1.91,0.572c10.592,6.968,22.881,10.651,35.541,10.651c35.727,0,64.794-29.066,64.794-64.794
	S107.465,8.65,71.738,8.65S6.944,37.717,6.944,73.444c0,16.964,6.543,33.021,18.425,45.204c0.993,1.019,1.265,2.536,0.688,3.835
	l-5.007,11.267l11.571-6.313C33.143,127.154,33.715,127.014,34.287,127.014z"/>
<circle style="fill:#9DFB45;" cx="44.436" cy="73.449" r="6.827"/>
<path d="M44.433,83.686c-5.647,0-10.24-4.593-10.24-10.24s4.593-10.24,10.24-10.24s10.24,4.593,10.24,10.24
	S50.079,83.686,44.433,83.686z M44.433,70.032c-1.882,0-3.413,1.531-3.413,3.413s1.531,3.413,3.413,3.413
	c1.882,0,3.413-1.531,3.413-3.413S46.314,70.032,44.433,70.032z"/>
<circle style="fill:#9DFB45;" cx="71.743" cy="73.449" r="6.827"/>
<path d="M71.74,83.686c-5.647,0-10.24-4.593-10.24-10.24s4.593-10.24,10.24-10.24s10.24,4.593,10.24,10.24
	S77.385,83.686,71.74,83.686z M71.74,70.032c-1.882,0-3.413,1.531-3.413,3.413s1.531,3.413,3.413,3.413s3.413-1.531,3.413-3.413
	S73.62,70.032,71.74,70.032z"/>
<circle style="fill:#9DFB45;" cx="99.05" cy="73.449" r="6.827"/>
<path d="M99.046,83.686c-5.647,0-10.24-4.593-10.24-10.24s4.593-10.24,10.24-10.24s10.24,4.593,10.24,10.24
	S104.692,83.686,99.046,83.686z M99.046,70.032c-1.882,0-3.413,1.531-3.413,3.413s1.531,3.413,3.413,3.413
	c1.882,0,3.413-1.531,3.413-3.413S100.927,70.032,99.046,70.032z"/>
<path style="fill:#F97DA3;" d="M133.18,63.206c37.702,0,68.267,30.565,68.267,68.267c0,18.54-7.415,35.328-19.412,47.63
	l9.172,20.637l-20.576-11.223c-10.755,7.076-23.612,11.223-37.451,11.223c-37.702,0-68.267-30.565-68.267-68.267
	S95.476,63.206,133.18,63.206z"/>
<path d="M191.206,203.152c-0.558,0-1.121-0.137-1.635-0.416l-18.807-10.259c-11.313,6.991-24.264,10.675-37.584,10.675
	c-39.525,0-71.68-32.155-71.68-71.68s32.155-71.68,71.68-71.68s71.68,32.155,71.68,71.68c0,17.997-6.653,35.065-18.784,48.321
	l8.248,18.558c0.596,1.336,0.271,2.905-0.806,3.896C192.874,202.843,192.044,203.152,191.206,203.152z M133.18,66.619
	c-35.76,0-64.853,29.094-64.853,64.853s29.094,64.853,64.853,64.853c12.672,0,24.974-3.686,35.574-10.662
	c1.056-0.691,2.403-0.748,3.512-0.145l11.73,6.398l-5.079-11.428c-0.568-1.277-0.3-2.77,0.676-3.77
	c11.892-12.196,18.442-28.266,18.442-45.247C198.033,95.711,168.94,66.619,133.18,66.619z"/>
<path d="M87.342,142.815c-0.307-0.137-0.556-0.353-0.759-0.654c-0.2-0.3-0.294-0.62-0.287-0.954c0.007-0.437,0.164-0.814,0.466-1.13
	c0.3-0.314,0.679-0.466,1.143-0.457c0.256,0.003,0.5,0.06,0.73,0.167c2.347,1.102,4.873,1.676,7.574,1.731
	c4.504,0.087,6.787-1.35,6.844-4.306c0.017-0.773-0.263-1.42-0.829-1.947c-0.57-0.527-1.273-0.944-2.12-1.256
	c-0.843-0.314-2.046-0.689-3.606-1.133c-2.074-0.58-3.75-1.133-5.026-1.664c-1.277-0.524-2.371-1.3-3.277-2.319
	c-0.903-1.021-1.343-2.371-1.311-4.043c0.031-1.466,0.44-2.79,1.23-3.973c0.797-1.183,1.956-2.106,3.473-2.787
	c1.521-0.679,3.333-0.997,5.446-0.957c2.83,0.056,5.383,0.531,7.656,1.423c0.71,0.27,1.063,0.794,1.05,1.56
	c-0.01,0.413-0.16,0.783-0.451,1.113c-0.287,0.329-0.664,0.49-1.126,0.48c-0.154-0.003-0.357-0.06-0.613-0.164
	c-1.993-0.737-4.06-1.123-6.197-1.167c-2.033-0.036-3.693,0.317-4.98,1.063c-1.29,0.748-1.947,1.812-1.973,3.203
	c-0.02,0.927,0.266,1.686,0.864,2.28c0.59,0.587,1.343,1.056,2.249,1.393c0.906,0.34,2.144,0.703,3.707,1.097
	c2.024,0.527,3.654,1.05,4.893,1.56c1.237,0.517,2.294,1.297,3.157,2.34c0.867,1.046,1.287,2.447,1.253,4.197
	c-0.031,1.44-0.466,2.724-1.314,3.85c-0.843,1.133-2.021,2.004-3.519,2.616c-1.507,0.616-3.239,0.906-5.193,0.867
	C93.225,144.781,90.175,144.105,87.342,142.815z"/>
<path d="M110.459,144.419c-0.317-0.34-0.469-0.753-0.461-1.241c0.003-0.207,0.073-0.463,0.21-0.77l10.293-23.043
	c0.217-0.461,0.514-0.833,0.893-1.123c0.377-0.29,0.836-0.427,1.377-0.416l0.384,0.007c0.539,0.01,0.993,0.167,1.364,0.469
	c0.367,0.304,0.65,0.69,0.847,1.157l9.393,23.427c0.123,0.311,0.179,0.57,0.178,0.777c-0.01,0.486-0.178,0.896-0.507,1.224
	c-0.326,0.329-0.749,0.49-1.263,0.48c-0.36-0.01-0.686-0.109-0.976-0.311c-0.294-0.2-0.517-0.466-0.664-0.804l-2.393-6.074
	l-13.123-0.253l-2.627,5.973c-0.16,0.329-0.391,0.59-0.686,0.777c-0.3,0.189-0.633,0.28-0.993,0.273
	C111.189,144.938,110.773,144.762,110.459,144.419z M117.426,134.751l10.419,0.2l-4.966-12.65L117.426,134.751z"/>
<path d="M141.309,144.615c-0.466-0.486-0.696-1.063-0.683-1.734l0.447-22.924c0.01-0.49,0.186-0.906,0.527-1.246
	c0.341-0.34,0.756-0.507,1.246-0.497c0.486,0.01,0.903,0.189,1.244,0.543c0.341,0.353,0.507,0.777,0.497,1.266l-0.423,21.844
	l12.626,0.247c0.486,0.007,0.903,0.189,1.241,0.543c0.34,0.357,0.507,0.777,0.497,1.266c-0.01,0.49-0.193,0.896-0.546,1.224
	c-0.35,0.329-0.773,0.486-1.26,0.48l-13.706-0.266C142.343,145.347,141.78,145.102,141.309,144.615z"/>
<path d="M163.326,145.252c-0.326-0.34-0.49-0.753-0.48-1.244l0.457-23.427c0.01-0.49,0.186-0.906,0.527-1.246
	s0.756-0.507,1.246-0.497l15.476,0.3c0.462,0.01,0.853,0.177,1.167,0.507c0.317,0.326,0.469,0.724,0.461,1.186
	c-0.007,0.463-0.178,0.843-0.503,1.143c-0.326,0.304-0.724,0.451-1.186,0.44l-13.703-0.263l-0.167,8.533l12.314,0.237
	c0.463,0.01,0.853,0.177,1.167,0.507c0.321,0.326,0.469,0.724,0.462,1.186c-0.01,0.462-0.177,0.847-0.507,1.147
	c-0.326,0.304-0.724,0.451-1.186,0.44l-12.314-0.237l-0.167,8.569l13.703,0.263c0.463,0.01,0.853,0.178,1.167,0.503
	c0.321,0.329,0.469,0.727,0.462,1.19c-0.01,0.462-0.177,0.843-0.507,1.147c-0.326,0.304-0.724,0.451-1.186,0.44l-15.479-0.3
	C164.062,145.769,163.652,145.595,163.326,145.252z"/>
<g>
</g>
<g>
</g>
<g>
</g>
<g>
</g>
<g>
</g>
<g>
</g>
<g>
</g>
<g>
</g>
<g>
</g>
<g>
</g>
<g>
</g>
<g>
</g>
<g>
</g>
<g>
</g>
<g>
</g>
</svg>
