<?xml version="1.0" encoding="iso-8859-1"?>
<!-- Generator: Adobe Illustrator 19.0.0, SVG Export Plug-In . SVG Version: 6.00 Build 0)  -->
<svg version="1.1" id="Capa_1" xmlns="http://www.w3.org/2000/svg" xmlns:xlink="http://www.w3.org/1999/xlink" x="0px" y="0px"
	 viewBox="0 0 204.86 204.86" style="enable-background:new 0 0 204.86 204.86;" xml:space="preserve">
<path style="fill:#FBAD4A;" d="M71.74,5.179c-37.702,0-68.267,30.565-68.267,68.267c0,18.54,7.415,35.328,19.412,47.63
	l-9.172,20.637l20.576-11.223c10.755,7.076,23.612,11.223,37.451,11.223c37.702,0,68.267-30.565,68.267-68.267
	S109.442,5.179,71.74,5.179z"/>
<path d="M13.715,145.185c-0.853,0-1.7-0.314-2.357-0.92c-1.096-1.009-1.423-2.603-0.819-3.963l8.233-18.524
	C6.647,108.516,0,91.447,0,73.447c0-39.559,32.181-71.74,71.74-71.74s71.74,32.181,71.74,71.74s-32.181,71.74-71.74,71.74
	c-13.321,0-26.271-3.681-37.588-10.665l-18.775,10.242C14.855,145.047,14.281,145.185,13.715,145.185z M34.287,127.014
	c0.667,0,1.331,0.191,1.91,0.572c10.592,6.968,22.881,10.651,35.541,10.651c35.727,0,64.794-29.066,64.794-64.794
	S107.465,8.65,71.738,8.65S6.944,37.717,6.944,73.444c0,16.964,6.543,33.021,18.425,45.204c0.993,1.019,1.265,2.536,0.688,3.835
	l-5.007,11.267l11.571-6.313C33.143,127.154,33.715,127.014,34.287,127.014z"/>
<circle style="fill:#9DFB45;" cx="44.436" cy="73.449" r="6.827"/>
<path d="M44.433,83.686c-5.647,0-10.24-4.593-10.24-10.24s4.593-10.24,10.24-10.24s10.24,4.593,10.24,10.24
	S50.079,83.686,44.433,83.686z M44.433,70.032c-1.882,0-3.413,1.531-3.413,3.413s1.531,3.413,3.413,3.413
	c1.882,0,3.413-1.531,3.413-3.413S46.314,70.032,44.433,70.032z"/>
<circle style="fill:#9DFB45;" cx="71.743" cy="73.449" r="6.827"/>
<path d="M71.74,83.686c-5.647,0-10.24-4.593-10.24-10.24s4.593-10.24,10.24-10.24s10.24,4.593,10.24,10.24
	S77.385,83.686,71.74,83.686z M71.74,70.032c-1.882,0-3.413,1.531-3.413,3.413s1.531,3.413,3.413,3.413s3.413-1.531,3.413-3.413
	S73.62,70.032,71.74,70.032z"/>
<circle style="fill:#9DFB45;" cx="99.05" cy="73.449" r="6.827"/>
<path d="M99.046,83.686c-5.647,0-10.24-4.593-10.24-10.24s4.593-10.24,10.24-10.24s10.24,4.593,10.24,10.24
	S104.692,83.686,99.046,83.686z M99.046,70.032c-1.882,0-3.413,1.531-3.413,3.413s1.531,3.413,3.413,3.413
	c1.882,0,3.413-1.531,3.413-3.413S100.927,70.032,99.046,70.032z"/>
<path style="fill:#9DFB45;" d="M133.18,63.206c37.702,0,68.267,30.565,68.267,68.267c0,18.54-7.415,35.328-19.412,47.63
	l9.172,20.637l-20.576-11.223c-10.755,7.076-23.612,11.223-37.451,11.223c-37.702,0-68.267-30.565-68.267-68.267
	S95.476,63.206,133.18,63.206z"/>
<path d="M191.206,203.152c-0.558,0-1.121-0.137-1.635-0.416l-18.807-10.259c-11.313,6.991-24.264,10.675-37.584,10.675
	c-39.525,0-71.68-32.155-71.68-71.68s32.155-71.68,71.68-71.68s71.68,32.155,71.68,71.68c0,17.997-6.653,35.065-18.784,48.321
	l8.248,18.558c0.596,1.336,0.271,2.905-0.806,3.896C192.874,202.843,192.044,203.152,191.206,203.152z M133.18,66.619
	c-35.76,0-64.853,29.094-64.853,64.853s29.094,64.853,64.853,64.853c12.672,0,24.974-3.686,35.574-10.662
	c1.056-0.691,2.405-0.748,3.512-0.145l11.73,6.398l-5.079-11.428c-0.568-1.277-0.3-2.77,0.676-3.77
	c11.892-12.196,18.442-28.266,18.442-45.247C198.033,95.711,168.94,66.619,133.18,66.619z"/>
<path d="M112.696,172.432c-0.599,0-1.203-0.157-1.753-0.486c-1.616-0.969-2.14-3.067-1.171-4.683l40.96-68.267
	c0.969-1.618,3.065-2.142,4.683-1.171c1.616,0.969,2.14,3.067,1.171,4.683l-40.96,68.267
	C114.985,171.842,113.855,172.432,112.696,172.432z"/>
<path d="M114.406,117.819c-6.586,0-11.947-5.361-11.947-11.947c0-6.586,5.361-11.947,11.947-11.947
	c6.586,0,11.947,5.361,11.947,11.947C126.353,112.458,120.992,117.819,114.406,117.819z M114.406,100.752
	c-2.823,0-5.12,2.297-5.12,5.12s2.297,5.12,5.12,5.12c2.823,0,5.12-2.297,5.12-5.12S117.229,100.752,114.406,100.752z"/>
<path d="M155.366,169.019c-6.586,0-11.947-5.361-11.947-11.947s5.361-11.947,11.947-11.947s11.947,5.361,11.947,11.947
	S161.952,169.019,155.366,169.019z M155.366,151.952c-2.823,0-5.12,2.297-5.12,5.12s2.297,5.12,5.12,5.12
	c2.823,0,5.12-2.297,5.12-5.12S158.189,151.952,155.366,151.952z"/>
<g>
</g>
<g>
</g>
<g>
</g>
<g>
</g>
<g>
</g>
<g>
</g>
<g>
</g>
<g>
</g>
<g>
</g>
<g>
</g>
<g>
</g>
<g>
</g>
<g>
</g>
<g>
</g>
<g>
</g>
</svg>
