<?xml version="1.0" encoding="iso-8859-1"?>
<!-- Generator: Adobe Illustrator 19.0.0, SVG Export Plug-In . SVG Version: 6.00 Build 0)  -->
<svg version="1.1" id="Capa_1" xmlns="http://www.w3.org/2000/svg" xmlns:xlink="http://www.w3.org/1999/xlink" x="0px" y="0px"
	 viewBox="0 0 201.387 201.387" style="enable-background:new 0 0 201.387 201.387;" xml:space="preserve">
<polygon style="fill:#FFDD95;" points="180.907,129.672 40.96,129.672 34.133,51.165 197.973,51.165 "/>
<path d="M180.907,133.085H40.96c-1.772,0-3.248-1.353-3.401-3.118L30.732,51.46c-0.082-0.954,0.239-1.898,0.886-2.603
	c0.647-0.705,1.56-1.106,2.516-1.106h163.84c1.033,0,2.01,0.468,2.657,1.271c0.649,0.804,0.898,1.857,0.678,2.867l-17.067,78.507
	C183.9,131.966,182.513,133.085,180.907,133.085z M44.088,126.259h134.067l15.582-71.68H37.856L44.088,126.259z"/>
<path d="M34.128,54.579c-1.717,0-3.195-1.29-3.388-3.036l-3.075-27.684H3.413C1.529,23.859,0,22.329,0,20.445
	s1.529-3.413,3.413-3.413H30.72c1.739,0,3.2,1.307,3.393,3.036l3.413,30.72c0.208,1.874-1.142,3.56-3.016,3.768
	C34.383,54.572,34.255,54.579,34.128,54.579z"/>
<path d="M44.368,163.805c-1.717,0-3.195-1.29-3.388-3.036l-3.413-30.72c-0.208-1.874,1.142-3.56,3.016-3.768
	c1.869-0.212,3.56,1.142,3.768,3.016l3.413,30.72c0.208,1.874-1.142,3.56-3.016,3.768C44.623,163.798,44.495,163.805,44.368,163.805
	z"/>
<circle style="fill:#2ABBE9;" cx="47.787" cy="174.045" r="13.653"/>
<path d="M47.787,191.112c-9.411,0-17.067-7.656-17.067-17.067c0-9.411,7.656-17.067,17.067-17.067s17.067,7.656,17.067,17.067
	C64.853,183.456,57.197,191.112,47.787,191.112z M47.787,163.805c-5.647,0-10.24,4.593-10.24,10.24s4.593,10.24,10.24,10.24
	s10.24-4.593,10.24-10.24S53.432,163.805,47.787,163.805z"/>
<circle style="fill:#2ABBE9;" cx="163.84" cy="174.045" r="13.653"/>
<path d="M163.84,191.112c-9.411,0-17.067-7.656-17.067-17.067c0-9.411,7.656-17.067,17.067-17.067
	c9.411,0,17.067,7.656,17.067,17.067C180.907,183.456,173.251,191.112,163.84,191.112z M163.84,163.805
	c-5.647,0-10.24,4.593-10.24,10.24s4.593,10.24,10.24,10.24c5.647,0,10.24-4.593,10.24-10.24S169.487,163.805,163.84,163.805z"/>
<path d="M150.187,177.459H61.44c-1.884,0-3.413-1.529-3.413-3.413c0-1.884,1.529-3.413,3.413-3.413h88.747
	c1.884,0,3.413,1.529,3.413,3.413C153.6,175.929,152.071,177.459,150.187,177.459z"/>
<polygon style="fill:#ED5481;" points="105.813,37.266 105.813,108.946 122.88,108.946 122.88,37.266 133.12,37.266 114.347,13.619 
	95.573,37.266 "/>
<path d="M122.878,112.359h-17.067c-1.884,0-3.413-1.529-3.413-3.413V40.679h-6.827c-1.311,0-2.504-0.749-3.074-1.929
	c-0.57-1.179-0.415-2.58,0.399-3.606l18.773-23.648c1.295-1.63,4.052-1.63,5.347,0l18.773,23.648
	c0.814,1.026,0.969,2.427,0.399,3.606c-0.568,1.179-1.763,1.929-3.074,1.929h-6.827v68.267
	C126.292,110.832,124.764,112.359,122.878,112.359z M109.225,105.533h10.24V37.266c0-1.884,1.529-3.413,3.413-3.413h3.173
	l-11.706-14.746l-11.706,14.746h3.171c1.884,0,3.413,1.529,3.413,3.413v68.267H109.225z"/>
<g>
</g>
<g>
</g>
<g>
</g>
<g>
</g>
<g>
</g>
<g>
</g>
<g>
</g>
<g>
</g>
<g>
</g>
<g>
</g>
<g>
</g>
<g>
</g>
<g>
</g>
<g>
</g>
<g>
</g>
</svg>
