<?xml version="1.0" encoding="iso-8859-1"?>
<!-- Generator: Adobe Illustrator 19.0.0, SVG Export Plug-In . SVG Version: 6.00 Build 0)  -->
<svg version="1.1" id="Capa_1" xmlns="http://www.w3.org/2000/svg" xmlns:xlink="http://www.w3.org/1999/xlink" x="0px" y="0px"
	 viewBox="0 0 201.387 201.387" style="enable-background:new 0 0 201.387 201.387;" xml:space="preserve">
<polygon style="fill:#DDDDDD;" points="180.907,135.708 40.96,135.708 34.133,57.201 197.973,57.201 "/>
<path d="M180.907,139.121H40.96c-1.772,0-3.248-1.353-3.401-3.118l-6.827-78.507c-0.082-0.952,0.239-1.896,0.886-2.601
	s1.56-1.106,2.516-1.106h163.84c1.033,0,2.01,0.466,2.659,1.271c0.647,0.804,0.896,1.859,0.676,2.867l-17.067,78.507
	C183.902,138.001,182.511,139.121,180.907,139.121z M44.09,132.294h134.065l15.584-71.68H37.857L44.09,132.294z"/>
<path d="M34.13,60.614c-1.717,0-3.195-1.29-3.388-3.036l-3.075-27.684H3.413C1.529,29.894,0,28.365,0,26.481
	s1.529-3.413,3.413-3.413H30.72c1.739,0,3.2,1.309,3.393,3.036l3.413,30.72c0.208,1.874-1.142,3.562-3.016,3.768
	C34.383,60.607,34.255,60.614,34.13,60.614z"/>
<path d="M44.37,169.841c-1.717,0-3.195-1.29-3.388-3.036l-3.413-30.72c-0.208-1.874,1.142-3.562,3.016-3.768
	c1.86-0.218,3.56,1.14,3.768,3.016l3.413,30.72c0.208,1.874-1.142,3.562-3.016,3.768C44.623,169.834,44.495,169.841,44.37,169.841z"
	/>
<circle style="fill:#2ABBE9;" cx="47.787" cy="180.088" r="13.653"/>
<path d="M47.787,197.148c-9.411,0-17.067-7.656-17.067-17.067s7.656-17.067,17.067-17.067s17.067,7.656,17.067,17.067
	S57.197,197.148,47.787,197.148z M47.787,169.841c-5.647,0-10.24,4.593-10.24,10.24s4.593,10.24,10.24,10.24
	s10.24-4.593,10.24-10.24S53.434,169.841,47.787,169.841z"/>
<circle style="fill:#2ABBE9;" cx="163.84" cy="180.088" r="13.653"/>
<path d="M163.84,197.148c-9.411,0-17.067-7.656-17.067-17.067s7.656-17.067,17.067-17.067c9.411,0,17.067,7.656,17.067,17.067
	S173.251,197.148,163.84,197.148z M163.84,169.841c-5.647,0-10.24,4.593-10.24,10.24s4.593,10.24,10.24,10.24
	c5.647,0,10.24-4.593,10.24-10.24S169.487,169.841,163.84,169.841z"/>
<path d="M150.187,183.494H61.44c-1.884,0-3.413-1.529-3.413-3.413s1.529-3.413,3.413-3.413h88.747c1.884,0,3.413,1.529,3.413,3.413
	S152.073,183.494,150.187,183.494z"/>
<path style="fill:#83D816;" d="M95.573,94.748c-3.77,0-6.827-3.057-6.827-6.827V70.854c0-28.233,22.967-51.2,51.2-51.2
	c3.77,0,6.827,3.057,6.827,6.827s-3.057,6.827-6.827,6.827c-20.704,0-37.547,16.843-37.547,37.547v17.067
	C102.4,91.691,99.343,94.748,95.573,94.748z"/>
<path d="M95.573,98.161c-5.647,0-10.24-4.593-10.24-10.24V70.854c0-30.114,24.499-54.613,54.613-54.613
	c5.647,0,10.24,4.593,10.24,10.24s-4.593,10.24-10.24,10.24c-18.821,0-34.133,15.312-34.133,34.133v17.067
	C105.813,93.568,101.221,98.161,95.573,98.161z M139.947,23.067c-26.349,0-47.787,21.437-47.787,47.787v17.067
	c0,1.882,1.531,3.413,3.413,3.413s3.413-1.531,3.413-3.413V70.854c0-22.584,18.376-40.96,40.96-40.96
	c1.882,0,3.413-1.531,3.413-3.413S141.829,23.067,139.947,23.067z"/>
<path style="fill:#83D816;" d="M167.117,21.079L147.098,8.633c-4.238-2.635-9.721,0.413-9.721,5.402v24.893
	c0,4.99,5.484,8.037,9.721,5.402l20.019-12.447C171.121,29.394,171.121,23.568,167.117,21.079z"/>
<path d="M143.747,48.722c-1.626,0-3.255-0.416-4.758-1.251c-3.147-1.749-5.024-4.943-5.024-8.544V14.034
	c0-3.601,1.881-6.794,5.026-8.545c3.149-1.748,6.856-1.659,9.911,0.244l20.019,12.447c2.888,1.797,4.613,4.9,4.613,8.303
	c-0.002,3.401-1.727,6.504-4.615,8.298l-20.018,12.448C147.302,48.222,145.527,48.722,143.747,48.722z M143.758,11.075
	c-0.659,0-1.183,0.234-1.452,0.382c-0.457,0.253-1.517,1.014-1.517,2.579v24.893c0,1.565,1.06,2.323,1.516,2.577
	c0.457,0.253,1.661,0.758,2.992-0.073l20.018-12.447c1.254-0.782,1.389-2.01,1.391-2.504c0-0.493-0.137-1.724-1.391-2.505
	L145.295,11.53C144.749,11.189,144.222,11.075,143.758,11.075z"/>
<g>
</g>
<g>
</g>
<g>
</g>
<g>
</g>
<g>
</g>
<g>
</g>
<g>
</g>
<g>
</g>
<g>
</g>
<g>
</g>
<g>
</g>
<g>
</g>
<g>
</g>
<g>
</g>
<g>
</g>
</svg>
