<?xml version="1.0" encoding="iso-8859-1"?>
<!-- Generator: Adobe Illustrator 19.0.0, SVG Export Plug-In . SVG Version: 6.00 Build 0)  -->
<svg version="1.1" id="Capa_1" xmlns="http://www.w3.org/2000/svg" xmlns:xlink="http://www.w3.org/1999/xlink" x="0px" y="0px"
	 viewBox="0 0 215.04 215.04" style="enable-background:new 0 0 215.04 215.04;" xml:space="preserve">
<polygon style="fill:#FFFFFF;" points="174.08,186.027 126.293,186.027 119.467,148.48 180.907,148.48 "/>
<path d="M174.08,189.44h-47.787c-1.65,0-3.063-1.179-3.359-2.802l-6.827-37.547c-0.181-0.995,0.089-2.021,0.737-2.797
	c0.649-0.778,1.608-1.227,2.621-1.227h61.44c1.012,0,1.971,0.449,2.621,1.227c0.649,0.777,0.918,1.802,0.737,2.797l-6.827,37.547
	C177.143,188.261,175.73,189.44,174.08,189.44z M129.142,182.613h42.09l5.584-30.72h-53.26L129.142,182.613z"/>
<path d="M184.32,199.68h-64.853c-1.884,0-3.413-1.529-3.413-3.413c0-1.884,1.529-3.413,3.413-3.413h62.094l9.661-45.088
	c0.338-1.574,1.729-2.698,3.338-2.698h17.067c1.884,0,3.413,1.529,3.413,3.413c0,1.884-1.529,3.413-3.413,3.413H197.32
	l-9.661,45.088C187.32,198.555,185.929,199.68,184.32,199.68z"/>
<path d="M139.943,189.44c-1.618,0-3.055-1.155-3.354-2.804l-6.827-37.547c-0.338-1.855,0.893-3.632,2.748-3.97
	c1.857-0.336,3.632,0.893,3.97,2.748l6.827,37.547c0.338,1.855-0.893,3.632-2.748,3.97
	C140.351,189.423,140.145,189.44,139.943,189.44z"/>
<path d="M150.187,189.44c-1.884,0-3.413-1.529-3.413-3.413V148.48c0-1.884,1.529-3.413,3.413-3.413c1.884,0,3.413,1.529,3.413,3.413
	v37.547C153.6,187.911,152.071,189.44,150.187,189.44z"/>
<path d="M160.43,189.44c-0.203,0-0.408-0.019-0.614-0.056c-1.853-0.338-3.086-2.115-2.748-3.97l6.827-37.547
	c0.338-1.855,2.118-3.087,3.97-2.748c1.853,0.338,3.086,2.115,2.748,3.97l-6.827,37.547
	C163.485,188.286,162.048,189.44,160.43,189.44z"/>
<circle cx="129.707" cy="203.093" r="6.827"/>
<circle cx="174.08" cy="203.093" r="6.827"/>
<path style="fill:#26BBEC;" d="M102.4,168.96c0-13.402,5.19-25.562,13.618-34.688l-27.271-1.152l-51.932,2.195
	c-18.447,0-33.401,13.438-33.401,30.013v30.938h106.929C105.339,188.358,102.4,179.011,102.4,168.96z"/>
<path d="M110.343,199.68H3.413c-1.884,0-3.413-1.529-3.413-3.413v-30.938c0-18.432,16.515-33.427,36.815-33.427l51.787-2.191
	c0.097-0.005,0.191-0.005,0.288,0l27.271,1.152c1.328,0.056,2.504,0.879,3.011,2.108c0.507,1.229,0.254,2.642-0.647,3.618
	c-8.195,8.876-12.711,20.372-12.711,32.372c0,9.004,2.563,17.816,7.414,25.482c0.666,1.051,0.707,2.383,0.106,3.471
	S111.587,199.68,110.343,199.68z M6.827,192.853h97.703c-3.64-7.438-5.543-15.592-5.543-23.893c0-11.38,3.548-22.362,10.103-31.565
	l-20.343-0.858l-51.787,2.188c-16.681,0.003-30.133,11.936-30.133,26.604V192.853z"/>
<path style="fill:#EAC583;" d="M116.053,137.387L116.053,137.387c-17.19,5.373-37.424,5.373-54.613,0l0,0V107.52h54.613V137.387z"/>
<path d="M88.747,144.802c-9.728,0-19.456-1.386-28.326-4.157c-1.425-0.445-2.394-1.765-2.394-3.258V107.52
	c0-1.884,1.529-3.413,3.413-3.413h54.613c1.884,0,3.413,1.529,3.413,3.413v29.867c0,1.493-0.969,2.813-2.394,3.258
	C108.203,143.416,98.475,144.802,88.747,144.802z M64.853,134.835c15.142,4.202,32.645,4.202,47.787,0v-23.902H64.853V134.835z
	 M116.053,137.387h0.017H116.053z"/>
<path style="fill:#FFDD95;" d="M114.196,121.173H63.295c-12.334,0-22.335-10.001-22.335-22.337V37.241
	c0-4.545,3.683-8.228,8.228-8.228h79.118c4.545,0,8.228,3.683,8.228,8.228v61.595C136.533,111.172,126.532,121.173,114.196,121.173z
	"/>
<path d="M114.198,124.587H63.297c-14.198,0-25.748-11.551-25.748-25.748V37.243c0-6.419,5.222-11.641,11.641-11.641h79.116
	c6.419,0,11.641,5.222,11.641,11.641v61.595C139.947,113.036,128.396,124.587,114.198,124.587z M49.188,32.427
	c-2.656,0-4.815,2.161-4.815,4.815v61.595c0,10.435,8.489,18.922,18.922,18.922h50.901c10.435,0,18.922-8.489,18.922-18.922V37.241
	c0-2.656-2.161-4.815-4.815-4.815H49.188z"/>
<path style="fill:#777777;" d="M123.44,52.907H40.96v-30.15c0-7.856,6.368-14.223,14.223-14.223h91.59v21.04
	C146.773,42.46,136.327,52.907,123.44,52.907z"/>
<path d="M123.44,56.32H40.96c-1.884,0-3.413-1.529-3.413-3.413v-30.15c0-9.725,7.912-17.637,17.637-17.637h91.59
	c1.884,0,3.413,1.529,3.413,3.413v21.04C150.187,44.322,138.189,56.32,123.44,56.32z M44.373,49.493h79.066
	c10.984,0,19.92-8.936,19.92-19.92V11.947H55.183c-5.961,0-10.81,4.849-10.81,10.81V49.493z"/>
<g>
</g>
<g>
</g>
<g>
</g>
<g>
</g>
<g>
</g>
<g>
</g>
<g>
</g>
<g>
</g>
<g>
</g>
<g>
</g>
<g>
</g>
<g>
</g>
<g>
</g>
<g>
</g>
<g>
</g>
</svg>
