<?xml version="1.0" encoding="iso-8859-1"?>
<!-- Generator: Adobe Illustrator 19.0.0, SVG Export Plug-In . SVG Version: 6.00 Build 0)  -->
<svg version="1.1" id="Capa_1" xmlns="http://www.w3.org/2000/svg" xmlns:xlink="http://www.w3.org/1999/xlink" x="0px" y="0px"
	 viewBox="0 0 201.388 201.388" style="enable-background:new 0 0 201.388 201.388;" xml:space="preserve">
<polygon style="fill:#DDDDDD;" points="180.907,129.707 40.96,129.707 34.133,51.201 197.973,51.201 "/>
<path d="M180.907,133.121H40.96c-1.77,0-3.246-1.353-3.4-3.118l-6.827-78.507c-0.084-0.952,0.239-1.896,0.884-2.601
	c0.647-0.705,1.56-1.106,2.517-1.106h163.84c1.033,0,2.01,0.466,2.659,1.271c0.647,0.804,0.896,1.859,0.676,2.867l-17.067,78.507
	C183.902,132.001,182.511,133.121,180.907,133.121z M44.09,126.294h134.065l15.584-71.68H37.857L44.09,126.294z"/>
<path d="M34.128,54.614c-1.715,0-3.193-1.29-3.386-3.036l-3.077-27.684H3.413C1.529,23.894,0,22.365,0,20.481
	s1.529-3.413,3.413-3.413H30.72c1.741,0,3.2,1.309,3.391,3.036l3.413,30.72c0.208,1.874-1.142,3.562-3.016,3.768
	C34.383,54.607,34.255,54.614,34.128,54.614z"/>
<path d="M44.368,163.841c-1.715,0-3.193-1.29-3.386-3.036l-3.413-30.72c-0.208-1.874,1.142-3.562,3.016-3.768
	c1.86-0.225,3.56,1.14,3.768,3.016l3.413,30.72c0.208,1.874-1.142,3.562-3.016,3.768C44.623,163.834,44.495,163.841,44.368,163.841z
	"/>
<circle style="fill:#777777;" cx="47.787" cy="174.081" r="13.653"/>
<path d="M47.787,191.147c-9.411,0-17.067-7.656-17.067-17.067s7.656-17.067,17.067-17.067s17.067,7.656,17.067,17.067
	S57.197,191.147,47.787,191.147z M47.787,163.841c-5.647,0-10.24,4.593-10.24,10.24s4.593,10.24,10.24,10.24
	s10.24-4.593,10.24-10.24S53.434,163.841,47.787,163.841z"/>
<circle style="fill:#777777;" cx="163.84" cy="174.081" r="13.653"/>
<path d="M163.84,191.147c-9.411,0-17.067-7.656-17.067-17.067s7.656-17.067,17.067-17.067c9.411,0,17.067,7.656,17.067,17.067
	S173.251,191.147,163.84,191.147z M163.84,163.841c-5.647,0-10.24,4.593-10.24,10.24s4.593,10.24,10.24,10.24
	c5.647,0,10.24-4.593,10.24-10.24S169.487,163.841,163.84,163.841z"/>
<path d="M150.187,177.494H61.44c-1.884,0-3.413-1.529-3.413-3.413s1.529-3.413,3.413-3.413h88.747c1.884,0,3.413,1.529,3.413,3.413
	S152.073,177.494,150.187,177.494z"/>
<circle style="fill:#9BFC1D;" cx="143.36" cy="51.201" r="37.547"/>
<path d="M143.36,92.161c-22.584,0-40.96-18.376-40.96-40.96s18.376-40.96,40.96-40.96s40.96,18.376,40.96,40.96
	S165.944,92.161,143.36,92.161z M143.36,17.067c-18.821,0-34.133,15.312-34.133,34.133s15.312,34.133,34.133,34.133
	s34.133-15.312,34.133-34.133S162.181,17.067,143.36,17.067z"/>
<path style="fill:#EE5281;" d="M157.058,32.883c-4.204-1.649-9.25,0.307-13.517,4.632c-4.267-4.325-9.313-6.281-13.517-4.632
	c-6.815,2.674-8.83,13.785-4.502,24.818c3.886,9.905,14.232,15.357,18.019,15.642c3.787-0.285,14.135-5.736,18.019-15.642
	C165.888,46.668,163.872,35.556,157.058,32.883z"/>
<path d="M143.541,76.758c-0.087,0-0.172-0.003-0.258-0.01c-5.161-0.391-16.573-6.673-20.941-17.801
	c-5.093-12.983-2.266-25.829,6.434-29.242c4.572-1.797,9.928-0.58,14.764,3.232c4.837-3.811,10.191-5.023,14.763-3.234l0,0
	c4.439,1.743,7.472,5.948,8.542,11.843c0.963,5.301,0.215,11.482-2.106,17.399c-4.367,11.127-15.778,17.41-20.941,17.801
	C143.712,76.755,143.626,76.758,143.541,76.758z M133.171,35.715c-0.672,0-1.311,0.113-1.905,0.346
	c-4.332,1.7-6.453,10.493-2.569,20.393c3.319,8.465,12.131,13,14.841,13.454c2.71-0.454,11.522-4.989,14.841-13.454
	c1.838-4.685,2.475-9.675,1.746-13.689c-0.365-2.016-1.413-5.565-4.318-6.705l0,0c-2.734-1.073-6.409,0.372-9.841,3.85
	c-1.283,1.3-3.577,1.3-4.861,0C138.423,37.187,135.586,35.715,133.171,35.715z"/>
<g>
</g>
<g>
</g>
<g>
</g>
<g>
</g>
<g>
</g>
<g>
</g>
<g>
</g>
<g>
</g>
<g>
</g>
<g>
</g>
<g>
</g>
<g>
</g>
<g>
</g>
<g>
</g>
<g>
</g>
</svg>
