<?xml version="1.0" encoding="iso-8859-1"?>
<!-- Generator: Adobe Illustrator 19.0.0, SVG Export Plug-In . SVG Version: 6.00 Build 0)  -->
<svg version="1.1" id="Capa_1" xmlns="http://www.w3.org/2000/svg" xmlns:xlink="http://www.w3.org/1999/xlink" x="0px" y="0px"
	 viewBox="0 0 204.8 204.8" style="enable-background:new 0 0 204.8 204.8;" xml:space="preserve">
<path style="fill:#777777;" d="M34.133,20.48L14.242,92.385c-2.147,9.11,1.679,18.514,9.9,24.327l50.951,36.035l50.953-36.035
	c8.219-5.813,12.046-15.217,9.9-24.327l-19.893-75.319L34.133,20.48z"/>
<path d="M75.093,156.16c-0.689,0-1.381-0.21-1.971-0.626L22.17,119.499c-9.424-6.665-13.735-17.353-11.25-27.895L30.843,19.57
	c0.394-1.428,1.667-2.439,3.147-2.5l81.92-3.413c1.62-0.099,3.034,0.988,3.442,2.538l19.891,75.319
	c2.507,10.631-1.804,21.32-11.228,27.984l-50.953,36.035C76.474,155.95,75.783,156.16,75.093,156.16z M36.76,23.788L17.531,93.297
	c-1.801,7.651,1.475,15.604,8.579,20.63l48.983,34.639l48.981-34.64c7.105-5.026,10.382-12.979,8.547-20.758l-19.168-72.576
	L36.76,23.788z"/>
<path style="fill:#EAC583;" d="M92.16,135.68L92.16,135.68c-10.743,5.373-23.39,5.373-34.133,0l0,0v-29.867H92.16V135.68z"/>
<path d="M75.093,143.099c-6.386,0-12.771-1.456-18.594-4.366c-1.155-0.579-1.886-1.761-1.886-3.053v-29.867
	c0-1.884,1.529-3.413,3.413-3.413H92.16c1.884,0,3.413,1.529,3.413,3.413v29.867c0,1.292-0.73,2.475-1.886,3.053
	C87.864,141.643,81.48,143.099,75.093,143.099z M61.44,133.501c8.684,3.702,18.623,3.702,27.307,0v-24.274H61.44V133.501z
	 M92.16,135.68h0.017H92.16z"/>
<path style="fill:#FFDD95;" d="M88.006,112.64H62.179c-15.49,0-28.047-12.558-28.047-28.047V28.708c0-4.545,3.683-8.228,8.228-8.228
	h65.464c4.545,0,8.228,3.683,8.228,8.228v55.885C116.053,100.082,103.496,112.64,88.006,112.64z"/>
<path d="M88.006,116.053H62.179c-17.347,0-31.459-14.112-31.459-31.461V28.708c0-6.419,5.222-11.641,11.641-11.641h65.463
	c6.419,0,11.641,5.222,11.641,11.641v55.885C119.467,101.941,105.354,116.053,88.006,116.053z M42.361,23.893
	c-2.656,0-4.815,2.161-4.815,4.815v55.885c0,13.582,11.051,24.634,24.634,24.634h25.827c13.582,0,24.634-11.051,24.634-24.634
	V28.708c0-2.656-2.161-4.815-4.814-4.815H42.361z"/>
<path style="fill:#777777;" d="M92.72,47.787H34.133v-30.15c0-7.856,6.368-14.223,14.223-14.223h67.697v21.04
	C116.053,37.34,105.607,47.787,92.72,47.787z"/>
<path d="M92.72,51.2H34.133c-1.884,0-3.413-1.529-3.413-3.413v-30.15C30.72,7.912,38.632,0,48.357,0h67.697
	c1.884,0,3.413,1.529,3.413,3.413v21.04C119.467,39.202,107.469,51.2,92.72,51.2z M37.547,44.373H92.72
	c10.984,0,19.92-8.936,19.92-19.92V6.827H48.357c-5.961,0-10.81,4.849-10.81,10.81V44.373z"/>
<polygon style="fill:#FFFFFF;" points="163.84,180.907 116.053,180.907 109.227,143.36 170.667,143.36 "/>
<path d="M163.84,184.32h-47.787c-1.65,0-3.063-1.179-3.359-2.802l-6.827-37.547c-0.181-0.995,0.089-2.021,0.737-2.797
	c0.649-0.778,1.608-1.227,2.621-1.227h61.44c1.012,0,1.971,0.449,2.621,1.227c0.649,0.777,0.918,1.802,0.737,2.797l-6.827,37.547
	C166.903,183.141,165.49,184.32,163.84,184.32z M118.902,177.493h42.09l5.584-30.72h-53.26L118.902,177.493z"/>
<path d="M174.08,194.56h-64.853c-1.884,0-3.413-1.529-3.413-3.413c0-1.884,1.529-3.413,3.413-3.413h62.094l9.661-45.088
	c0.338-1.574,1.729-2.698,3.338-2.698h17.067c1.884,0,3.413,1.529,3.413,3.413s-1.529,3.413-3.413,3.413H187.08l-9.661,45.088
	C177.08,193.435,175.689,194.56,174.08,194.56z"/>
<path d="M129.703,184.32c-1.618,0-3.055-1.155-3.354-2.804l-6.827-37.547c-0.338-1.855,0.893-3.632,2.748-3.97
	c1.855-0.336,3.632,0.893,3.97,2.748l6.827,37.547c0.338,1.855-0.893,3.632-2.748,3.97
	C130.111,184.303,129.905,184.32,129.703,184.32z"/>
<path d="M139.947,184.32c-1.884,0-3.413-1.529-3.413-3.413V143.36c0-1.884,1.529-3.413,3.413-3.413s3.413,1.529,3.413,3.413v37.547
	C143.36,182.791,141.831,184.32,139.947,184.32z"/>
<path d="M150.19,184.32c-0.203,0-0.408-0.019-0.614-0.056c-1.853-0.338-3.086-2.115-2.748-3.97l6.827-37.547
	c0.338-1.855,2.121-3.087,3.97-2.748c1.853,0.338,3.086,2.115,2.748,3.97l-6.827,37.547
	C153.245,183.166,151.808,184.32,150.19,184.32z"/>
<circle cx="119.467" cy="197.973" r="6.827"/>
<circle cx="163.84" cy="197.973" r="6.827"/>
<path style="fill:#FCAD3A;" d="M92.16,163.84c0-9.888,2.278-19.222,6.236-27.609l-23.303-4.818l-43.622,9.021
	c-15.497,0-28.058,13.438-28.058,30.013v24.112h96.481C94.966,185.416,92.16,174.957,92.16,163.84z"/>
<path d="M99.895,197.973H3.413c-1.884,0-3.413-1.529-3.413-3.413v-24.112c0-18.306,13.923-33.22,31.111-33.425l43.291-8.953
	c0.456-0.096,0.927-0.096,1.382,0l23.301,4.818c1.026,0.212,1.896,0.882,2.364,1.818c0.468,0.935,0.48,2.034,0.032,2.982
	c-3.92,8.31-5.908,17.109-5.908,26.153c0,10.144,2.533,20.207,7.325,29.1c0.57,1.058,0.541,2.338-0.073,3.369
	C102.211,197.34,101.096,197.973,99.895,197.973z M6.827,191.147h87.615c-3.738-8.573-5.695-17.91-5.695-27.307
	c0-8.637,1.628-17.067,4.842-25.117l-18.495-3.825l-42.931,8.878c-0.227,0.048-0.459,0.072-0.691,0.072
	c-13.588,0-24.644,11.933-24.644,26.6V191.147z"/>
<g>
</g>
<g>
</g>
<g>
</g>
<g>
</g>
<g>
</g>
<g>
</g>
<g>
</g>
<g>
</g>
<g>
</g>
<g>
</g>
<g>
</g>
<g>
</g>
<g>
</g>
<g>
</g>
<g>
</g>
</svg>
