<?xml version="1.0" encoding="iso-8859-1"?>
<!-- Generator: Adobe Illustrator 19.0.0, SVG Export Plug-In . SVG Version: 6.00 Build 0)  -->
<svg version="1.1" id="Capa_1" xmlns="http://www.w3.org/2000/svg" xmlns:xlink="http://www.w3.org/1999/xlink" x="0px" y="0px"
	 viewBox="0 0 201.388 201.388" style="enable-background:new 0 0 201.388 201.388;" xml:space="preserve">
<polygon style="fill:#DDDDDD;" points="180.907,129.707 40.96,129.707 34.133,51.201 197.973,51.201 "/>
<path d="M180.907,133.121H40.96c-1.77,0-3.246-1.353-3.4-3.118l-6.827-78.507c-0.084-0.952,0.239-1.896,0.884-2.601
	c0.647-0.705,1.56-1.106,2.517-1.106h163.84c1.033,0,2.01,0.466,2.659,1.271c0.647,0.804,0.896,1.859,0.676,2.867l-17.067,78.507
	C183.902,132.001,182.511,133.121,180.907,133.121z M44.09,126.294h134.065l15.584-71.68H37.857L44.09,126.294z"/>
<path d="M34.128,54.614c-1.715,0-3.193-1.29-3.386-3.036l-3.077-27.684H3.413C1.529,23.894,0,22.365,0,20.481
	s1.529-3.413,3.413-3.413H30.72c1.741,0,3.2,1.309,3.391,3.036l3.413,30.72c0.208,1.874-1.142,3.562-3.016,3.768
	C34.383,54.607,34.255,54.614,34.128,54.614z"/>
<path d="M44.368,163.841c-1.715,0-3.193-1.29-3.386-3.036l-3.413-30.72c-0.208-1.874,1.142-3.562,3.016-3.768
	c1.853-0.225,3.56,1.14,3.768,3.016l3.413,30.72c0.208,1.874-1.142,3.562-3.016,3.768C44.623,163.834,44.495,163.841,44.368,163.841
	z"/>
<circle style="fill:#777777;" cx="47.787" cy="174.081" r="13.653"/>
<path d="M47.787,191.147c-9.411,0-17.067-7.656-17.067-17.067s7.656-17.067,17.067-17.067s17.067,7.656,17.067,17.067
	S57.197,191.147,47.787,191.147z M47.787,163.841c-5.647,0-10.24,4.593-10.24,10.24s4.593,10.24,10.24,10.24
	s10.24-4.593,10.24-10.24S53.434,163.841,47.787,163.841z"/>
<circle style="fill:#777777;" cx="163.84" cy="174.081" r="13.653"/>
<path d="M163.84,191.147c-9.411,0-17.067-7.656-17.067-17.067s7.656-17.067,17.067-17.067c9.411,0,17.067,7.656,17.067,17.067
	S173.251,191.147,163.84,191.147z M163.84,163.841c-5.647,0-10.24,4.593-10.24,10.24s4.593,10.24,10.24,10.24
	c5.647,0,10.24-4.593,10.24-10.24S169.487,163.841,163.84,163.841z"/>
<path d="M150.187,177.494H61.44c-1.884,0-3.413-1.529-3.413-3.413s1.529-3.413,3.413-3.413h88.747c1.884,0,3.413,1.529,3.413,3.413
	S152.073,177.494,150.187,177.494z"/>
<circle style="fill:#EE5281;" cx="139.947" cy="51.201" r="37.547"/>
<path d="M139.947,92.161c-22.584,0-40.96-18.376-40.96-40.96s18.376-40.96,40.96-40.96s40.96,18.376,40.96,40.96
	S162.531,92.161,139.947,92.161z M139.947,17.067c-18.821,0-34.133,15.312-34.133,34.133s15.312,34.133,34.133,34.133
	s34.133-15.312,34.133-34.133S158.768,17.067,139.947,17.067z"/>
<path style="fill:#FEDA38;" d="M144.176,29.176l2.908,8.953c0.55,1.69,2.123,2.831,3.898,2.831h9.414c3.97,0,5.622,5.081,2.41,7.415
	l-7.615,5.533c-1.437,1.044-2.038,2.895-1.488,4.582l2.908,8.953c1.227,3.777-3.096,6.917-6.308,4.582l-7.615-5.533
	c-1.437-1.044-3.383-1.044-4.818,0l-7.615,5.533c-3.212,2.333-7.535-0.806-6.308-4.582l2.908-8.953
	c0.55-1.69-0.053-3.54-1.488-4.582l-7.615-5.533c-3.212-2.333-1.562-7.415,2.41-7.415h9.414c1.775,0,3.35-1.143,3.898-2.831
	l2.908-8.953C137.607,25.399,142.949,25.399,144.176,29.176z"/>
<path d="M152.713,76.25c-1.536,0-3.074-0.488-4.415-1.461l-7.617-5.533c-0.242-0.177-0.565-0.176-0.807,0l-7.613,5.533
	c-2.686,1.947-6.151,1.946-8.832,0c-2.681-1.951-3.751-5.245-2.729-8.399l2.908-8.953c0.092-0.283-0.007-0.591-0.247-0.765
	l-7.619-5.533c-2.681-1.951-3.751-5.246-2.729-8.4c1.026-3.154,3.83-5.19,7.146-5.19h9.414c0.299,0,0.56-0.189,0.652-0.473
	l2.908-8.953c1.026-3.154,3.828-5.192,7.146-5.192s6.12,2.038,7.146,5.192l2.908,8.953c0.092,0.283,0.353,0.473,0.652,0.473h9.414
	c3.314,0,6.12,2.036,7.146,5.19c1.024,3.154-0.046,6.449-2.729,8.399l-7.617,5.535c-0.242,0.176-0.34,0.481-0.249,0.765l2.908,8.953
	c1.024,3.154-0.046,6.448-2.729,8.399C155.786,75.761,154.249,76.25,152.713,76.25z M120.16,44.374c-0.137,0-0.498,0-0.652,0.473
	c-0.155,0.474,0.138,0.686,0.249,0.768l7.617,5.531c2.64,1.918,3.736,5.292,2.729,8.399l-2.908,8.953
	c-0.041,0.128-0.154,0.471,0.249,0.765c0.406,0.297,0.696,0.082,0.806,0l7.615-5.533c2.645-1.917,6.193-1.918,8.832,0.002
	l7.617,5.531c0.111,0.082,0.399,0.297,0.806,0c0.401-0.294,0.29-0.637,0.249-0.765l-2.908-8.953
	c-1.009-3.106,0.089-6.48,2.731-8.399l7.615-5.533c0.109-0.08,0.403-0.292,0.249-0.766c-0.154-0.473-0.515-0.473-0.652-0.473h-9.414
	c-3.265,0-6.137-2.087-7.146-5.19l-2.908-8.953c-0.041-0.13-0.154-0.474-0.652-0.474c-0.498,0-0.609,0.345-0.652,0.474l-2.908,8.953
	c-1.009,3.103-3.879,5.19-7.146,5.19H120.16z"/>
<g>
</g>
<g>
</g>
<g>
</g>
<g>
</g>
<g>
</g>
<g>
</g>
<g>
</g>
<g>
</g>
<g>
</g>
<g>
</g>
<g>
</g>
<g>
</g>
<g>
</g>
<g>
</g>
<g>
</g>
</svg>
