<?xml version="1.0" encoding="iso-8859-1"?>
<!-- Generator: Adobe Illustrator 19.0.0, SVG Export Plug-In . SVG Version: 6.00 Build 0)  -->
<svg version="1.1" id="Capa_1" xmlns="http://www.w3.org/2000/svg" xmlns:xlink="http://www.w3.org/1999/xlink" x="0px" y="0px"
	 viewBox="0 0 201.388 201.388" style="enable-background:new 0 0 201.388 201.388;" xml:space="preserve">
<polygon style="fill:#DDDDDD;" points="180.907,126.294 40.96,126.294 34.133,47.787 197.973,47.787 "/>
<path d="M180.907,129.707H40.96c-1.77,0-3.246-1.353-3.4-3.118l-6.827-78.507c-0.084-0.952,0.239-1.896,0.884-2.601
	c0.647-0.705,1.56-1.106,2.517-1.106h163.84c1.033,0,2.01,0.466,2.659,1.271c0.647,0.804,0.896,1.859,0.676,2.867l-17.067,78.507
	C183.902,128.588,182.511,129.707,180.907,129.707z M44.09,122.881h134.065l15.584-71.68H37.857L44.09,122.881z"/>
<path d="M34.128,51.201c-1.715,0-3.193-1.29-3.386-3.036l-3.077-27.684H3.413C1.529,20.481,0,18.952,0,17.067
	s1.529-3.413,3.413-3.413H30.72c1.741,0,3.2,1.309,3.391,3.036l3.413,30.72c0.208,1.874-1.142,3.562-3.016,3.768
	C34.383,51.194,34.255,51.201,34.128,51.201z"/>
<path d="M44.368,160.427c-1.715,0-3.193-1.29-3.386-3.036l-3.413-30.72c-0.208-1.874,1.142-3.562,3.016-3.768
	c1.86-0.217,3.56,1.138,3.768,3.016l3.413,30.72c0.208,1.874-1.142,3.562-3.016,3.768C44.623,160.421,44.495,160.427,44.368,160.427
	z"/>
<circle style="fill:#2ABBE9;" cx="47.787" cy="170.667" r="13.653"/>
<path d="M47.787,187.734c-9.411,0-17.067-7.656-17.067-17.067c0-9.411,7.656-17.067,17.067-17.067s17.067,7.656,17.067,17.067
	C64.853,180.078,57.197,187.734,47.787,187.734z M47.787,160.427c-5.647,0-10.24,4.593-10.24,10.24s4.593,10.24,10.24,10.24
	s10.24-4.593,10.24-10.24S53.434,160.427,47.787,160.427z"/>
<circle style="fill:#2ABBE9;" cx="163.84" cy="170.667" r="13.653"/>
<path d="M163.84,187.734c-9.411,0-17.067-7.656-17.067-17.067c0-9.411,7.656-17.067,17.067-17.067
	c9.411,0,17.067,7.656,17.067,17.067C180.907,180.078,173.251,187.734,163.84,187.734z M163.84,160.427
	c-5.647,0-10.24,4.593-10.24,10.24s4.593,10.24,10.24,10.24c5.647,0,10.24-4.593,10.24-10.24S169.487,160.427,163.84,160.427z"/>
<path d="M150.187,174.081H61.44c-1.884,0-3.413-1.529-3.413-3.413c0-1.884,1.529-3.413,3.413-3.413h88.747
	c1.884,0,3.413,1.529,3.413,3.413C153.6,172.552,152.073,174.081,150.187,174.081z"/>
<path style="fill:#EE5281;" d="M172.976,24.998c0-3.77-3.057-6.827-6.827-6.827h-17.067c-28.233,0-51.2,22.967-51.2,51.2
	c0,3.77,3.057,6.827,6.827,6.827c3.77,0,6.827-3.057,6.827-6.827c0-20.704,16.843-37.547,37.547-37.547h17.067
	C169.919,31.825,172.976,28.768,172.976,24.998z"/>
<path d="M104.709,79.612c-5.647,0-10.24-4.593-10.24-10.24c0-30.114,24.499-54.613,54.613-54.613h17.067
	c5.647,0,10.24,4.593,10.24,10.24s-4.593,10.24-10.24,10.24h-17.067c-18.821,0-34.133,15.312-34.133,34.133
	C114.949,75.019,110.355,79.612,104.709,79.612z M149.082,21.585c-26.349,0-47.787,21.437-47.787,47.787
	c0,1.882,1.531,3.413,3.413,3.413c1.882,0,3.413-1.531,3.413-3.413c0-22.584,18.376-40.96,40.96-40.96h17.067
	c1.882,0,3.413-1.531,3.413-3.413s-1.531-3.413-3.413-3.413H149.082z"/>
<path style="fill:#EE5281;" d="M99.306,96.542L86.859,76.523c-2.635-4.238,0.413-9.721,5.402-9.721h24.893
	c4.99,0,8.037,5.484,5.402,9.721l-12.447,20.019C107.622,100.546,101.796,100.546,99.306,96.542z"/>
<path d="M104.709,102.959L104.709,102.959c-3.401-0.002-6.506-1.727-8.3-4.615L83.963,78.325c-1.901-3.057-1.993-6.762-0.244-9.909
	c1.748-3.149,4.942-5.026,8.544-5.026h24.893c3.601,0,6.796,1.881,8.545,5.028c1.748,3.147,1.659,6.851-0.244,9.909L113.01,98.344
	C111.213,101.233,108.11,102.957,104.709,102.959z M92.262,70.216c-1.565,0-2.323,1.06-2.577,1.517
	c-0.253,0.456-0.753,1.659,0.073,2.987l12.447,20.021c0.782,1.254,2.01,1.389,2.504,1.391l0,0c0.493,0,1.724-0.137,2.505-1.393
	l12.447-20.018c0.826-1.33,0.326-2.531,0.073-2.988c-0.253-0.457-1.012-1.517-2.579-1.517H92.262z"/>
<g>
</g>
<g>
</g>
<g>
</g>
<g>
</g>
<g>
</g>
<g>
</g>
<g>
</g>
<g>
</g>
<g>
</g>
<g>
</g>
<g>
</g>
<g>
</g>
<g>
</g>
<g>
</g>
<g>
</g>
</svg>
