<?xml version="1.0" encoding="iso-8859-1"?>
<!-- Generator: Adobe Illustrator 19.0.0, SVG Export Plug-In . SVG Version: 6.00 Build 0)  -->
<svg version="1.1" id="Capa_1" xmlns="http://www.w3.org/2000/svg" xmlns:xlink="http://www.w3.org/1999/xlink" x="0px" y="0px"
	 viewBox="0 0 201.388 201.388" style="enable-background:new 0 0 201.388 201.388;" xml:space="preserve">
<polygon style="fill:#DDDDDD;" points="180.907,129.707 40.96,129.707 34.133,51.201 197.973,51.201 "/>
<path d="M180.907,133.121H40.96c-1.77,0-3.246-1.353-3.4-3.118l-6.827-78.507c-0.084-0.952,0.239-1.896,0.884-2.601
	c0.647-0.705,1.56-1.106,2.517-1.106h163.84c1.033,0,2.01,0.466,2.659,1.271c0.647,0.804,0.896,1.859,0.676,2.867l-17.067,78.507
	C183.902,132.001,182.511,133.121,180.907,133.121z M44.09,126.294h134.065l15.584-71.68H37.857L44.09,126.294z"/>
<path d="M34.128,54.614c-1.715,0-3.193-1.29-3.386-3.036l-3.077-27.684H3.413C1.529,23.894,0,22.365,0,20.481
	s1.529-3.413,3.413-3.413H30.72c1.741,0,3.2,1.309,3.391,3.036l3.413,30.72c0.208,1.874-1.142,3.562-3.016,3.768
	C34.383,54.607,34.255,54.614,34.128,54.614z"/>
<path d="M44.368,163.841c-1.715,0-3.193-1.29-3.386-3.036l-3.413-30.72c-0.208-1.874,1.142-3.562,3.016-3.768
	c1.876-0.225,3.56,1.14,3.768,3.016l3.413,30.72c0.208,1.874-1.142,3.562-3.016,3.768C44.623,163.834,44.495,163.841,44.368,163.841
	z"/>
<circle style="fill:#777777;" cx="47.787" cy="174.081" r="13.653"/>
<path d="M47.787,191.147c-9.411,0-17.067-7.656-17.067-17.067s7.656-17.067,17.067-17.067s17.067,7.656,17.067,17.067
	S57.197,191.147,47.787,191.147z M47.787,163.841c-5.647,0-10.24,4.593-10.24,10.24s4.593,10.24,10.24,10.24
	s10.24-4.593,10.24-10.24S53.434,163.841,47.787,163.841z"/>
<circle style="fill:#777777;" cx="163.84" cy="174.081" r="13.653"/>
<path d="M163.84,191.147c-9.411,0-17.067-7.656-17.067-17.067s7.656-17.067,17.067-17.067c9.411,0,17.067,7.656,17.067,17.067
	S173.251,191.147,163.84,191.147z M163.84,163.841c-5.647,0-10.24,4.593-10.24,10.24s4.593,10.24,10.24,10.24
	c5.647,0,10.24-4.593,10.24-10.24S169.487,163.841,163.84,163.841z"/>
<path d="M150.187,177.494H61.44c-1.884,0-3.413-1.529-3.413-3.413s1.529-3.413,3.413-3.413h88.747c1.884,0,3.413,1.529,3.413,3.413
	S152.073,177.494,150.187,177.494z"/>
<circle style="fill:#9BFC1D;" cx="139.947" cy="51.201" r="37.547"/>
<path d="M139.947,92.161c-22.584,0-40.96-18.376-40.96-40.96s18.376-40.96,40.96-40.96s40.96,18.376,40.96,40.96
	S162.531,92.161,139.947,92.161z M139.947,17.067c-18.821,0-34.133,15.312-34.133,34.133s15.312,34.133,34.133,34.133
	s34.133-15.312,34.133-34.133S158.768,17.067,139.947,17.067z"/>
<polyline style="fill:#9BFC1D;" points="122.88,54.614 139.947,68.267 153.6,34.134 "/>
<path d="M139.947,71.681c-0.766,0-1.521-0.258-2.132-0.748L120.748,57.28c-1.473-1.176-1.712-3.325-0.532-4.797
	c1.178-1.475,3.328-1.708,4.797-0.532l13.476,10.778l11.943-29.862c0.701-1.748,2.681-2.599,4.439-1.901
	c1.749,0.701,2.601,2.686,1.901,4.439l-13.653,34.133c-0.401,1.004-1.254,1.756-2.301,2.031
	C140.53,71.645,140.237,71.681,139.947,71.681z"/>
<g>
</g>
<g>
</g>
<g>
</g>
<g>
</g>
<g>
</g>
<g>
</g>
<g>
</g>
<g>
</g>
<g>
</g>
<g>
</g>
<g>
</g>
<g>
</g>
<g>
</g>
<g>
</g>
<g>
</g>
</svg>
