<?xml version="1.0" encoding="iso-8859-1"?>
<!-- Generator: Adobe Illustrator 19.0.0, SVG Export Plug-In . SVG Version: 6.00 Build 0)  -->
<svg version="1.1" id="Capa_1" xmlns="http://www.w3.org/2000/svg" xmlns:xlink="http://www.w3.org/1999/xlink" x="0px" y="0px"
	 viewBox="0 0 201.387 201.387" style="enable-background:new 0 0 201.387 201.387;" xml:space="preserve">
<polygon style="fill:#DDDDDD;" points="180.907,129.707 40.96,129.707 34.133,51.2 197.973,51.2 "/>
<path d="M180.907,133.12H40.96c-1.772,0-3.248-1.353-3.401-3.118l-6.827-78.507c-0.082-0.952,0.239-1.896,0.886-2.601
	c0.647-0.705,1.558-1.108,2.516-1.108h163.84c1.033,0,2.01,0.466,2.659,1.271c0.647,0.804,0.896,1.859,0.676,2.867l-17.067,78.507
	C183.902,132,182.511,133.12,180.907,133.12z M44.09,126.293h134.065l15.584-71.68H37.857L44.09,126.293z"/>
<path d="M34.13,54.613c-1.717,0-3.195-1.29-3.388-3.036l-3.077-27.684H3.413C1.529,23.893,0,22.364,0,20.48s1.529-3.413,3.413-3.413
	H30.72c1.739,0,3.2,1.309,3.393,3.036l3.413,30.72c0.208,1.874-1.142,3.562-3.016,3.768C34.383,54.606,34.255,54.613,34.13,54.613z"
	/>
<path d="M44.37,163.84c-1.717,0-3.195-1.29-3.388-3.036l-3.413-30.72c-0.208-1.874,1.142-3.562,3.016-3.768
	c1.86-0.218,3.56,1.14,3.768,3.016l3.413,30.72c0.208,1.874-1.142,3.562-3.016,3.768C44.623,163.833,44.495,163.84,44.37,163.84z"/>
<circle style="fill:#777777;" cx="47.787" cy="174.08" r="13.653"/>
<path d="M47.787,191.147c-9.411,0-17.067-7.656-17.067-17.067c0-9.411,7.656-17.067,17.067-17.067s17.067,7.656,17.067,17.067
	C64.853,183.491,57.197,191.147,47.787,191.147z M47.787,163.84c-5.647,0-10.24,4.593-10.24,10.24s4.593,10.24,10.24,10.24
	s10.24-4.593,10.24-10.24S53.434,163.84,47.787,163.84z"/>
<circle style="fill:#777777;" cx="163.84" cy="174.08" r="13.653"/>
<path d="M163.84,191.147c-9.411,0-17.067-7.656-17.067-17.067c0-9.411,7.656-17.067,17.067-17.067
	c9.411,0,17.067,7.656,17.067,17.067C180.907,183.491,173.251,191.147,163.84,191.147z M163.84,163.84
	c-5.647,0-10.24,4.593-10.24,10.24s4.593,10.24,10.24,10.24c5.647,0,10.24-4.593,10.24-10.24S169.487,163.84,163.84,163.84z"/>
<path d="M150.187,177.493H61.44c-1.884,0-3.413-1.529-3.413-3.413c0-1.884,1.529-3.413,3.413-3.413h88.747
	c1.884,0,3.413,1.529,3.413,3.413C153.6,175.964,152.073,177.493,150.187,177.493z"/>
<circle style="fill:#83D816;" cx="143.36" cy="51.2" r="37.547"/>
<path d="M143.36,92.16c-22.584,0-40.96-18.376-40.96-40.96s18.376-40.96,40.96-40.96s40.96,18.376,40.96,40.96
	S165.944,92.16,143.36,92.16z M143.36,17.067c-18.821,0-34.133,15.312-34.133,34.133s15.312,34.133,34.133,34.133
	s34.133-15.312,34.133-34.133S162.181,17.067,143.36,17.067z"/>
<path d="M143.36,75.093c-1.884,0-3.413-1.529-3.413-3.413V30.72c0-1.884,1.529-3.413,3.413-3.413s3.413,1.529,3.413,3.413v40.96
	C146.773,73.564,145.246,75.093,143.36,75.093z"/>
<path d="M163.84,54.613h-40.96c-1.884,0-3.413-1.529-3.413-3.413c0-1.884,1.529-3.413,3.413-3.413h40.96
	c1.884,0,3.413,1.529,3.413,3.413C167.253,53.084,165.726,54.613,163.84,54.613z"/>
<g>
</g>
<g>
</g>
<g>
</g>
<g>
</g>
<g>
</g>
<g>
</g>
<g>
</g>
<g>
</g>
<g>
</g>
<g>
</g>
<g>
</g>
<g>
</g>
<g>
</g>
<g>
</g>
<g>
</g>
</svg>
