<?xml version="1.0" encoding="iso-8859-1"?>
<!-- Generator: Adobe Illustrator 19.0.0, SVG Export Plug-In . SVG Version: 6.00 Build 0)  -->
<svg version="1.1" id="Capa_1" xmlns="http://www.w3.org/2000/svg" xmlns:xlink="http://www.w3.org/1999/xlink" x="0px" y="0px"
	 viewBox="0 0 201.388 201.388" style="enable-background:new 0 0 201.388 201.388;" xml:space="preserve">
<polygon style="fill:#DDDDDD;" points="180.907,126.294 40.96,126.294 34.133,47.787 197.973,47.787 "/>
<path d="M180.907,129.707H40.96c-1.77,0-3.246-1.353-3.4-3.118l-6.827-78.507c-0.084-0.954,0.239-1.898,0.884-2.603
	c0.647-0.705,1.56-1.106,2.517-1.106h163.84c1.033,0,2.01,0.468,2.659,1.271c0.647,0.804,0.896,1.857,0.676,2.867l-17.067,78.507
	C183.902,128.588,182.511,129.707,180.907,129.707z M44.09,122.881h134.065l15.584-71.68H37.857L44.09,122.881z"/>
<path d="M34.128,51.201c-1.715,0-3.193-1.29-3.386-3.036l-3.077-27.684H3.413C1.529,20.481,0,18.952,0,17.067
	s1.529-3.413,3.413-3.413H30.72c1.741,0,3.2,1.307,3.391,3.036l3.413,30.72c0.208,1.874-1.142,3.56-3.016,3.768
	C34.383,51.194,34.255,51.201,34.128,51.201z"/>
<path d="M44.368,160.427c-1.715,0-3.193-1.29-3.386-3.036l-3.413-30.72c-0.208-1.874,1.142-3.56,3.016-3.768
	c1.865-0.21,3.56,1.14,3.768,3.016l3.413,30.72c0.208,1.874-1.142,3.56-3.016,3.768C44.623,160.421,44.495,160.427,44.368,160.427z"
	/>
<circle style="fill:#2ABBE9;" cx="47.787" cy="170.667" r="13.653"/>
<path d="M47.787,187.734c-9.411,0-17.067-7.656-17.067-17.067c0-9.411,7.656-17.067,17.067-17.067s17.067,7.656,17.067,17.067
	C64.853,180.078,57.197,187.734,47.787,187.734z M47.787,160.427c-5.647,0-10.24,4.593-10.24,10.24s4.593,10.24,10.24,10.24
	s10.24-4.593,10.24-10.24S53.434,160.427,47.787,160.427z"/>
<circle style="fill:#2ABBE9;" cx="163.84" cy="170.667" r="13.653"/>
<path d="M163.84,187.734c-9.411,0-17.067-7.656-17.067-17.067c0-9.411,7.656-17.067,17.067-17.067
	c9.411,0,17.067,7.656,17.067,17.067C180.907,180.078,173.251,187.734,163.84,187.734z M163.84,160.427
	c-5.647,0-10.24,4.593-10.24,10.24s4.593,10.24,10.24,10.24c5.647,0,10.24-4.593,10.24-10.24S169.487,160.427,163.84,160.427z"/>
<path d="M150.187,174.081H61.44c-1.884,0-3.413-1.529-3.413-3.413c0-1.884,1.529-3.413,3.413-3.413h88.747
	c1.884,0,3.413,1.529,3.413,3.413C153.6,172.552,152.073,174.081,150.187,174.081z"/>
<g>
</g>
<g>
</g>
<g>
</g>
<g>
</g>
<g>
</g>
<g>
</g>
<g>
</g>
<g>
</g>
<g>
</g>
<g>
</g>
<g>
</g>
<g>
</g>
<g>
</g>
<g>
</g>
<g>
</g>
</svg>
