<?xml version="1.0" encoding="iso-8859-1"?>
<!-- Generator: Adobe Illustrator 19.0.0, SVG Export Plug-In . SVG Version: 6.00 Build 0)  -->
<svg version="1.1" id="Capa_1" xmlns="http://www.w3.org/2000/svg" xmlns:xlink="http://www.w3.org/1999/xlink" x="0px" y="0px"
	 viewBox="0 0 208.335 208.335" style="enable-background:new 0 0 208.335 208.335;" xml:space="preserve">
<path style="fill:#FBAD4A;" d="M195.016,165.608H13.317c-5.436,0-9.844-4.407-9.844-9.844V52.57c0-5.436,4.407-9.844,9.844-9.844
	h181.7c5.436,0,9.844,4.407,9.844,9.844v103.194C204.86,161.201,200.453,165.608,195.016,165.608z"/>
<path d="M195.016,169.081H13.317C5.973,169.081,0,163.108,0,155.764V52.57c0-7.344,5.973-13.317,13.317-13.317h181.7
	c7.344,0,13.317,5.973,13.317,13.317v103.194C208.333,163.108,202.359,169.081,195.016,169.081z M13.317,46.201
	c-3.512,0-6.369,2.857-6.369,6.369v103.194c0,3.512,2.857,6.369,6.369,6.369h181.7c3.512,0,6.369-2.857,6.369-6.369V52.57
	c0-3.512-2.857-6.369-6.369-6.369L13.317,46.201L13.317,46.201z"/>
<rect x="3.473" y="63.208" style="fill:#DDDDDD;" width="201.387" height="30.72"/>
<path d="M204.86,97.341H3.473c-1.884,0-3.413-1.529-3.413-3.413v-30.72c0-1.884,1.529-3.413,3.413-3.413H204.86
	c1.884,0,3.413,1.529,3.413,3.413v30.72C208.273,95.812,206.744,97.341,204.86,97.341z M6.886,90.515h194.56V66.621H6.886V90.515z"
	/>
<circle style="fill:#ED5481;" cx="140.006" cy="134.888" r="17.067"/>
<path d="M140.006,155.368c-11.293,0-20.48-9.187-20.48-20.48c0-11.293,9.187-20.48,20.48-20.48s20.48,9.187,20.48,20.48
	C160.486,146.181,151.299,155.368,140.006,155.368z M140.006,121.235c-7.528,0-13.653,6.125-13.653,13.653
	c0,7.528,6.125,13.653,13.653,13.653c7.528,0,13.653-6.125,13.653-13.653C153.66,127.36,147.535,121.235,140.006,121.235z"/>
<circle style="fill:#84D839;" cx="163.9" cy="134.888" r="17.067"/>
<path d="M163.9,155.368c-11.293,0-20.48-9.187-20.48-20.48c0-11.293,9.187-20.48,20.48-20.48c11.293,0,20.48,9.187,20.48,20.48
	C184.38,146.181,175.193,155.368,163.9,155.368z M163.9,121.235c-7.528,0-13.653,6.125-13.653,13.653
	c0,7.528,6.125,13.653,13.653,13.653c7.528,0,13.653-6.125,13.653-13.653C177.553,127.36,171.428,121.235,163.9,121.235z"/>
<g>
</g>
<g>
</g>
<g>
</g>
<g>
</g>
<g>
</g>
<g>
</g>
<g>
</g>
<g>
</g>
<g>
</g>
<g>
</g>
<g>
</g>
<g>
</g>
<g>
</g>
<g>
</g>
<g>
</g>
</svg>
