<?xml version="1.0" encoding="iso-8859-1"?>
<!-- Generator: Adobe Illustrator 19.0.0, SVG Export Plug-In . SVG Version: 6.00 Build 0)  -->
<svg version="1.1" id="Capa_1" xmlns="http://www.w3.org/2000/svg" xmlns:xlink="http://www.w3.org/1999/xlink" x="0px" y="0px"
	 viewBox="0 0 208.333 208.333" style="enable-background:new 0 0 208.333 208.333;" xml:space="preserve">
<path style="fill:#FBAD4A;" d="M184.813,141.713H81.546c-3.531,0-6.393-2.862-6.393-6.393l13.653-62.307
	c0-3.531,2.862-6.393,6.393-6.393h103.267c3.531,0,6.393,2.862,6.393,6.393l-13.653,62.307
	C191.206,138.851,188.344,141.713,184.813,141.713z"/>
<path d="M184.813,145.186H81.546c-5.441,0-9.866-4.427-9.866-9.866c0-0.249,0.027-0.5,0.08-0.744l13.582-61.978
	c0.218-5.25,4.557-9.452,9.858-9.452h103.267c5.441,0,9.866,4.427,9.866,9.866c0,0.249-0.027,0.5-0.08,0.744l-13.582,61.978
	C194.452,140.984,190.114,145.186,184.813,145.186z M78.643,135.625c0.152,1.466,1.396,2.615,2.903,2.615h103.267
	c1.609,0,2.92-1.311,2.92-2.92c0-0.249,0.027-0.5,0.08-0.744l13.556-61.868c-0.152-1.466-1.396-2.615-2.903-2.615H95.2
	c-1.609,0-2.92,1.311-2.92,2.92c0,0.249-0.027,0.5-0.08,0.744L78.643,135.625z"/>
<polygon style="fill:#DDDDDD;" points="81.98,104.166 198.033,104.166 202.522,83.686 86.468,83.686 "/>
<path d="M198.033,107.639H81.98c-1.051,0-2.046-0.476-2.707-1.295s-0.911-1.894-0.686-2.922l4.489-20.48
	c0.35-1.596,1.761-2.731,3.393-2.731h116.053c1.051,0,2.046,0.476,2.707,1.295c0.66,0.819,0.911,1.894,0.686,2.922l-4.489,20.48
	C201.076,106.505,199.665,107.639,198.033,107.639z M86.296,100.693h108.942l2.966-13.534H89.262L86.296,100.693z"/>
<path d="M75.153,73.506H47.846c-1.918,0-3.473-1.555-3.473-3.473c0-1.918,1.555-3.473,3.473-3.473h27.307
	c1.918,0,3.473,1.555,3.473,3.473C78.626,71.951,77.071,73.506,75.153,73.506z"/>
<path d="M112.7,56.439H64.913c-1.918,0-3.473-1.555-3.473-3.473s1.555-3.473,3.473-3.473H112.7c1.918,0,3.473,1.555,3.473,3.473
	S114.618,56.439,112.7,56.439z"/>
<path d="M167.313,158.839h-47.787c-1.918,0-3.473-1.555-3.473-3.473s1.555-3.473,3.473-3.473h47.787
	c1.918,0,3.473,1.555,3.473,3.473S169.231,158.839,167.313,158.839z"/>
<path d="M105.873,158.839H20.54c-1.918,0-3.473-1.555-3.473-3.473s1.555-3.473,3.473-3.473h85.333c1.918,0,3.473,1.555,3.473,3.473
	S107.791,158.839,105.873,158.839z"/>
<path d="M47.846,56.439H34.193c-1.918,0-3.473-1.555-3.473-3.473s1.555-3.473,3.473-3.473h13.653c1.918,0,3.473,1.555,3.473,3.473
	S49.765,56.439,47.846,56.439z"/>
<path d="M71.74,93.986H54.673c-1.918,0-3.473-1.555-3.473-3.473c0-1.918,1.555-3.473,3.473-3.473H71.74
	c1.918,0,3.473,1.555,3.473,3.473C75.213,92.431,73.658,93.986,71.74,93.986z"/>
<path d="M34.193,73.506H3.473C1.555,73.506,0,71.951,0,70.033c0-1.918,1.555-3.473,3.473-3.473h30.72
	c1.918,0,3.473,1.555,3.473,3.473C37.666,71.951,36.111,73.506,34.193,73.506z"/>
<g>
</g>
<g>
</g>
<g>
</g>
<g>
</g>
<g>
</g>
<g>
</g>
<g>
</g>
<g>
</g>
<g>
</g>
<g>
</g>
<g>
</g>
<g>
</g>
<g>
</g>
<g>
</g>
<g>
</g>
</svg>
