<?xml version="1.0" encoding="iso-8859-1"?>
<!-- Generator: Adobe Illustrator 19.0.0, SVG Export Plug-In . SVG Version: 6.00 Build 0)  -->
<svg version="1.1" id="Capa_1" xmlns="http://www.w3.org/2000/svg" xmlns:xlink="http://www.w3.org/1999/xlink" x="0px" y="0px"
	 viewBox="0 0 194.561 194.561" style="enable-background:new 0 0 194.561 194.561;" xml:space="preserve">
<path style="fill:#FBAD4A;" d="M177.89,170.667H6.827V47.787H177.89c5.436,0,9.844,4.407,9.844,9.844v103.194
	C187.734,166.261,183.327,170.667,177.89,170.667z"/>
<path d="M177.89,174.14H6.827c-1.918,0-3.473-1.555-3.473-3.473V47.787c0-1.918,1.555-3.473,3.473-3.473H177.89
	c7.344,0,13.317,5.973,13.317,13.317v103.194C191.207,168.167,185.233,174.14,177.89,174.14z M10.3,167.194h167.59
	c3.512,0,6.369-2.859,6.369-6.369V57.631c0-3.512-2.859-6.369-6.369-6.369H10.3V167.194z"/>
<rect x="6.827" y="68.267" style="fill:#DDDDDD;" width="180.907" height="30.72"/>
<path d="M187.734,102.401H6.827c-1.884,0-3.413-1.529-3.413-3.413v-30.72c0-1.884,1.529-3.413,3.413-3.413h180.907
	c1.884,0,3.413,1.529,3.413,3.413v30.72C191.147,100.873,189.618,102.401,187.734,102.401z M10.24,95.574h174.08V71.681H10.24
	V95.574z"/>
<circle style="fill:#ED5481;" cx="122.88" cy="139.947" r="17.067"/>
<path d="M122.88,160.427c-11.293,0-20.48-9.187-20.48-20.48c0-11.293,9.187-20.48,20.48-20.48s20.48,9.187,20.48,20.48
	C143.36,151.24,134.173,160.427,122.88,160.427z M122.88,126.294c-7.528,0-13.653,6.125-13.653,13.653
	c0,7.528,6.125,13.653,13.653,13.653s13.653-6.125,13.653-13.653C136.534,132.419,130.408,126.294,122.88,126.294z"/>
<circle style="fill:#84D839;" cx="146.774" cy="139.947" r="17.067"/>
<path d="M146.774,160.427c-11.293,0-20.48-9.187-20.48-20.48c0-11.293,9.187-20.48,20.48-20.48c11.293,0,20.48,9.187,20.48,20.48
	C167.254,151.24,158.067,160.427,146.774,160.427z M146.774,126.294c-7.528,0-13.653,6.125-13.653,13.653
	c0,7.528,6.125,13.653,13.653,13.653c7.528,0,13.653-6.125,13.653-13.653C160.427,132.419,154.302,126.294,146.774,126.294z"/>
<path d="M6.827,194.561c-1.884,0-3.413-1.529-3.413-3.413V23.894c0-1.884,1.529-3.413,3.413-3.413s3.413,1.529,3.413,3.413v167.253
	C10.24,193.033,8.711,194.561,6.827,194.561z"/>
<path d="M116.054,20.481H47.787c-1.884,0-3.413-1.529-3.413-3.413c0-1.884,1.529-3.413,3.413-3.413h68.267
	c1.884,0,3.413,1.529,3.413,3.413C119.467,18.951,117.938,20.481,116.054,20.481z"/>
<path d="M112.637,34.134c-0.712,0-1.43-0.222-2.045-0.683c-1.509-1.13-1.812-3.27-0.681-4.779l8.704-11.605l-8.704-11.605
	c-1.132-1.509-0.826-3.649,0.681-4.779c1.514-1.135,3.649-0.821,4.779,0.681l10.24,13.653c0.911,1.213,0.911,2.883,0,4.096
	l-10.24,13.653C114.7,33.663,113.675,34.134,112.637,34.134z"/>
<g>
</g>
<g>
</g>
<g>
</g>
<g>
</g>
<g>
</g>
<g>
</g>
<g>
</g>
<g>
</g>
<g>
</g>
<g>
</g>
<g>
</g>
<g>
</g>
<g>
</g>
<g>
</g>
<g>
</g>
</svg>
