<?xml version="1.0" encoding="iso-8859-1"?>
<!-- Generator: Adobe Illustrator 19.0.0, SVG Export Plug-In . SVG Version: 6.00 Build 0)  -->
<svg version="1.1" id="Capa_1" xmlns="http://www.w3.org/2000/svg" xmlns:xlink="http://www.w3.org/1999/xlink" x="0px" y="0px"
	 viewBox="0 0 194.56 194.56" style="enable-background:new 0 0 194.56 194.56;" xml:space="preserve">
<path style="fill:#FBAD4A;" d="M177.889,170.666H6.827V47.786h171.063c5.436,0,9.844,4.407,9.844,9.844v103.194
	C187.733,166.26,183.327,170.666,177.889,170.666z"/>
<path d="M177.889,174.139H6.827c-1.918,0-3.473-1.555-3.473-3.473V47.786c0-1.918,1.555-3.473,3.473-3.473h171.063
	c7.344,0,13.317,5.973,13.317,13.317v103.194C191.206,168.166,185.233,174.139,177.889,174.139z M10.3,167.193h167.59
	c3.512,0,6.369-2.859,6.369-6.369V57.63c0-3.512-2.857-6.369-6.369-6.369H10.3V167.193z"/>
<rect x="6.827" y="68.266" style="fill:#DDDDDD;" width="180.907" height="30.72"/>
<path d="M187.733,102.4H6.827c-1.884,0-3.413-1.529-3.413-3.413v-30.72c0-1.884,1.529-3.413,3.413-3.413h180.907
	c1.884,0,3.413,1.529,3.413,3.413v30.72C191.147,100.872,189.617,102.4,187.733,102.4z M10.24,95.573h174.08V71.68H10.24V95.573z"/>
<circle style="fill:#ED5481;" cx="122.88" cy="139.946" r="17.067"/>
<path d="M122.88,160.426c-11.293,0-20.48-9.187-20.48-20.48c0-11.293,9.187-20.48,20.48-20.48s20.48,9.187,20.48,20.48
	C143.36,151.239,134.173,160.426,122.88,160.426z M122.88,126.293c-7.528,0-13.653,6.125-13.653,13.653
	c0,7.528,6.125,13.653,13.653,13.653s13.653-6.125,13.653-13.653C136.533,132.418,130.408,126.293,122.88,126.293z"/>
<circle style="fill:#84D839;" cx="146.773" cy="139.946" r="17.067"/>
<path d="M146.773,160.426c-11.293,0-20.48-9.187-20.48-20.48c0-11.293,9.187-20.48,20.48-20.48s20.48,9.187,20.48,20.48
	C167.253,151.239,158.066,160.426,146.773,160.426z M146.773,126.293c-7.528,0-13.653,6.125-13.653,13.653
	c0,7.528,6.125,13.653,13.653,13.653s13.653-6.125,13.653-13.653C160.427,132.418,154.301,126.293,146.773,126.293z"/>
<path d="M6.827,194.56c-1.884,0-3.413-1.529-3.413-3.413V23.893c0-1.884,1.529-3.413,3.413-3.413s3.413,1.529,3.413,3.413v167.253
	C10.24,193.032,8.711,194.56,6.827,194.56z"/>
<path d="M122.88,20.48H54.613c-1.884,0-3.413-1.529-3.413-3.413s1.529-3.413,3.413-3.413h68.267c1.884,0,3.413,1.529,3.413,3.413
	S124.764,20.48,122.88,20.48z"/>
<path d="M58.028,34.133c-1.038,0-2.062-0.471-2.734-1.365l-10.24-13.653c-0.91-1.213-0.91-2.883,0-4.096l10.24-13.653
	c1.132-1.507,3.272-1.814,4.779-0.681c1.507,1.13,1.812,3.27,0.683,4.779l-8.704,11.605l8.704,11.605
	c1.132,1.509,0.824,3.649-0.683,4.779C59.46,33.911,58.742,34.133,58.028,34.133z"/>
<g>
</g>
<g>
</g>
<g>
</g>
<g>
</g>
<g>
</g>
<g>
</g>
<g>
</g>
<g>
</g>
<g>
</g>
<g>
</g>
<g>
</g>
<g>
</g>
<g>
</g>
<g>
</g>
<g>
</g>
</svg>
