<?xml version="1.0" encoding="iso-8859-1"?>
<!-- Generator: Adobe Illustrator 19.0.0, SVG Export Plug-In . SVG Version: 6.00 Build 0)  -->
<svg version="1.1" id="Capa_1" xmlns="http://www.w3.org/2000/svg" xmlns:xlink="http://www.w3.org/1999/xlink" x="0px" y="0px"
	 viewBox="0 0 208.215 208.215" style="enable-background:new 0 0 208.215 208.215;" xml:space="preserve">
<path style="fill:#2ABBE9;" d="M194.956,165.548H13.257c-5.436,0-9.844-4.407-9.844-9.844V52.511c0-5.436,4.407-9.844,9.844-9.844
	h181.7c5.436,0,9.844,4.407,9.844,9.844v103.194C204.8,161.142,200.393,165.548,194.956,165.548z"/>
<path d="M194.956,168.962H13.257C5.948,168.962,0,163.016,0,155.704V52.511c0-7.31,5.946-13.257,13.257-13.257h181.7
	c7.31,0,13.257,5.946,13.257,13.257v103.194C208.213,163.016,202.267,168.962,194.956,168.962z M13.257,46.082
	c-3.546,0-6.431,2.884-6.431,6.431v103.194c0,3.546,2.884,6.431,6.431,6.431h181.7c3.545,0,6.431-2.884,6.431-6.431V52.512
	c0-3.546-2.884-6.431-6.431-6.431L13.257,46.082L13.257,46.082z"/>
<path d="M44.373,110.935H17.067c-1.884,0-3.413-1.529-3.413-3.413c0-1.884,1.529-3.413,3.413-3.413h27.307
	c1.884,0,3.413,1.529,3.413,3.413C47.787,109.406,46.257,110.935,44.373,110.935z"/>
<path d="M71.68,128.002H17.067c-1.884,0-3.413-1.529-3.413-3.413c0-1.884,1.529-3.413,3.413-3.413H71.68
	c1.884,0,3.413,1.529,3.413,3.413C75.093,126.473,73.564,128.002,71.68,128.002z"/>
<path d="M109.227,128.002h-20.48c-1.884,0-3.413-1.529-3.413-3.413c0-1.884,1.529-3.413,3.413-3.413h20.48
	c1.884,0,3.413,1.529,3.413,3.413C112.64,126.473,111.111,128.002,109.227,128.002z"/>
<path d="M27.307,145.068h-10.24c-1.884,0-3.413-1.529-3.413-3.413c0-1.884,1.529-3.413,3.413-3.413h10.24
	c1.884,0,3.413,1.529,3.413,3.413C30.72,143.539,29.191,145.068,27.307,145.068z"/>
<path d="M68.267,145.068H51.2c-1.884,0-3.413-1.529-3.413-3.413c0-1.884,1.529-3.413,3.413-3.413h17.067
	c1.884,0,3.413,1.529,3.413,3.413C71.68,143.539,70.151,145.068,68.267,145.068z"/>
<path d="M85.333,110.935H58.027c-1.884,0-3.413-1.529-3.413-3.413c0-1.884,1.529-3.413,3.413-3.413h27.307
	c1.884,0,3.413,1.529,3.413,3.413C88.747,109.406,87.217,110.935,85.333,110.935z"/>
<path d="M126.293,110.935H98.987c-1.884,0-3.413-1.529-3.413-3.413c0-1.884,1.529-3.413,3.413-3.413h27.307
	c1.884,0,3.413,1.529,3.413,3.413C129.707,109.406,128.178,110.935,126.293,110.935z"/>
<path d="M34.13,151.895c-0.65,0-1.309-0.184-1.889-0.573c-1.568-1.046-1.992-3.164-0.947-4.733l6.827-10.24
	c1.046-1.568,3.166-1.992,4.733-0.947c1.568,1.046,1.992,3.164,0.947,4.733l-6.827,10.24
	C36.316,151.363,35.234,151.895,34.13,151.895z"/>
<path style="fill:#FCAD3A;" d="M49.514,87.042H22.168c-2.816,0-5.1-2.284-5.1-5.1V64.836c0-2.816,2.284-5.1,5.1-5.1h27.346
	c2.816,0,5.1,2.284,5.1,5.1v17.106C54.613,84.758,52.33,87.042,49.514,87.042z"/>
<path d="M49.514,90.455H22.168c-4.693,0-8.513-3.82-8.513-8.513V64.836c0-4.693,3.82-8.513,8.513-8.513h27.346
	c4.693,0,8.513,3.82,8.513,8.513v17.106C58.027,86.636,54.207,90.455,49.514,90.455z M22.166,63.148
	c-0.93,0-1.686,0.756-1.686,1.686V81.94c0,0.93,0.756,1.686,1.686,1.686h27.346c0.93,0,1.686-0.756,1.686-1.686V64.835
	c0-0.93-0.756-1.686-1.686-1.686H22.166z"/>
<path d="M40.96,87.042c-1.884,0-3.413-1.529-3.413-3.413v-20.48c0-1.884,1.529-3.413,3.413-3.413c1.884,0,3.413,1.529,3.413,3.413
	v20.48C44.373,85.513,42.844,87.042,40.96,87.042z"/>
<path d="M37.547,76.802H20.48c-1.884,0-3.413-1.529-3.413-3.413c0-1.884,1.529-3.413,3.413-3.413h17.067
	c1.884,0,3.413,1.529,3.413,3.413C40.96,75.273,39.431,76.802,37.547,76.802z"/>
<g>
</g>
<g>
</g>
<g>
</g>
<g>
</g>
<g>
</g>
<g>
</g>
<g>
</g>
<g>
</g>
<g>
</g>
<g>
</g>
<g>
</g>
<g>
</g>
<g>
</g>
<g>
</g>
<g>
</g>
</svg>
