<?xml version="1.0" encoding="iso-8859-1"?>
<!-- Generator: Adobe Illustrator 19.0.0, SVG Export Plug-In . SVG Version: 6.00 Build 0)  -->
<svg version="1.1" id="Capa_1" xmlns="http://www.w3.org/2000/svg" xmlns:xlink="http://www.w3.org/1999/xlink" x="0px" y="0px"
	 viewBox="0 0 201.387 201.387" style="enable-background:new 0 0 201.387 201.387;" xml:space="preserve">
<path style="fill:#85D839;" d="M197.973,124.587H3.413V31.918c0-7.26,5.885-13.145,13.145-13.145h168.271
	c7.26,0,13.145,5.885,13.145,13.145V124.587z"/>
<path d="M197.973,128H3.413C1.529,128,0,126.471,0,124.587V31.918C0,22.787,7.429,15.36,16.558,15.36h168.271
	c9.131,0,16.558,7.429,16.558,16.558v92.669C201.387,126.471,199.857,128,197.973,128z M6.827,121.173H194.56V31.918
	c0-5.367-4.366-9.731-9.731-9.731H16.558c-5.367,0-9.731,4.366-9.731,9.731V121.173z"/>
<path style="fill:#DDDDDD;" d="M184.829,155.307H16.558c-7.26,0-13.145-5.885-13.145-13.145v-17.575h194.56v17.575
	C197.973,149.422,192.089,155.307,184.829,155.307z"/>
<path d="M184.829,158.72H16.558C7.427,158.72,0,151.291,0,142.162v-17.575c0-1.884,1.529-3.413,3.413-3.413h194.56
	c1.884,0,3.413,1.529,3.413,3.413v17.575C201.387,151.291,193.958,158.72,184.829,158.72z M6.827,128v14.162
	c0,5.367,4.366,9.731,9.731,9.731h168.271c5.367,0,9.731-4.366,9.731-9.731V128H6.827z"/>
<path d="M100.693,148.48c-4.705,0-8.533-3.828-8.533-8.533s3.828-8.533,8.533-8.533s8.533,3.828,8.533,8.533
	S105.399,148.48,100.693,148.48z M100.693,138.24c-0.942,0-1.707,0.765-1.707,1.707s0.765,1.707,1.707,1.707
	s1.707-0.765,1.707-1.707S101.635,138.24,100.693,138.24z"/>
<polygon style="fill:#DDDDDD;" points="129.707,182.613 71.68,182.613 88.545,155.307 112.841,155.307 "/>
<path d="M129.707,186.027H71.68c-1.239,0-2.379-0.671-2.982-1.749c-0.602-1.082-0.573-2.403,0.079-3.456l16.867-27.307
	c0.621-1.007,1.72-1.62,2.903-1.62h24.293c1.183,0,2.282,0.613,2.903,1.62l16.867,27.307c0.652,1.053,0.679,2.376,0.079,3.456
	C132.086,185.356,130.946,186.027,129.707,186.027z M77.8,179.2h45.786l-12.65-20.48H90.45L77.8,179.2z"/>
<path d="M151.893,116.053c-0.874,0-1.746-0.333-2.413-1c-1.333-1.333-1.333-3.494,0-4.826l29.013-29.013
	c1.333-1.333,3.494-1.333,4.826,0s1.333,3.494,0,4.826l-29.013,29.013C153.639,115.721,152.767,116.053,151.893,116.053z"/>
<path d="M174.08,114.347c-0.874,0-1.746-0.333-2.413-1c-1.333-1.333-1.333-3.494,0-4.826l10.24-10.24
	c1.333-1.333,3.494-1.333,4.826,0s1.333,3.494,0,4.826l-10.24,10.24C175.826,114.014,174.954,114.347,174.08,114.347z"/>
<path d="M150.187,186.027h-102.4c-1.884,0-3.413-1.529-3.413-3.413c0-1.884,1.529-3.413,3.413-3.413h102.4
	c1.884,0,3.413,1.529,3.413,3.413C153.6,184.497,152.071,186.027,150.187,186.027z"/>
<polygon style="fill:#FFFFFF;" points="108.57,96.623 144.36,171.03 156.428,144.481 182.977,132.413 "/>
<path d="M144.36,174.444c-1.311,0-2.507-0.749-3.077-1.934l-35.791-74.407c-0.628-1.307-0.362-2.869,0.664-3.893
	c1.024-1.026,2.58-1.292,3.893-0.664l74.407,35.791c1.193,0.575,1.947,1.789,1.934,3.113c-0.015,1.324-0.795,2.522-2,3.07
	l-25.383,11.54l-11.54,25.383c-0.548,1.205-1.744,1.985-3.07,2C144.386,174.444,144.372,174.444,144.36,174.444z M115.869,103.922
	l28.406,59.052l9.049-19.905c0.34-0.749,0.944-1.353,1.693-1.693l19.905-9.049L115.869,103.922z"/>
<path d="M184.977,176.444c-0.874,0-1.746-0.333-2.413-1l-26.134-26.134c-1.333-1.333-1.333-3.494,0-4.826s3.494-1.333,4.826,0
	l26.134,26.134c1.333,1.333,1.333,3.494,0,4.826C186.723,176.109,185.849,176.444,184.977,176.444z"/>
<path style="fill:#EE5281;" d="M75.093,110.933h-40.96l5.809-47.474c0.28-2.12,2.429-3.726,4.989-3.726h19.362
	c2.56,0,4.709,1.604,4.989,3.726L75.093,110.933z"/>
<path d="M78.95,114.347H30.276l6.279-51.304c0.509-3.847,4.108-6.723,8.376-6.723h19.364c4.268,0,7.868,2.877,8.371,6.692
	L78.95,114.347z M37.99,107.52h33.246l-5.342-43.646c-0.026-0.195-0.608-0.727-1.601-0.727H44.93c-0.992,0-1.575,0.532-1.604,0.758
	L37.99,107.52z"/>
<rect x="44.373" y="35.84" style="fill:#EE5281;" width="20.48" height="23.893"/>
<path d="M68.267,63.147H40.96v-30.72h27.307V63.147z M47.787,56.32H61.44V39.253H47.787V56.32z"/>
<path d="M44.373,42.667c-1.884,0-3.413-1.529-3.413-3.413v-10.24c0-1.884,1.529-3.413,3.413-3.413c1.884,0,3.413,1.529,3.413,3.413
	v10.24C47.787,41.137,46.257,42.667,44.373,42.667z"/>
<path d="M64.853,42.667c-1.884,0-3.413-1.529-3.413-3.413v-10.24c0-1.884,1.529-3.413,3.413-3.413c1.884,0,3.413,1.529,3.413,3.413
	v10.24C68.267,41.137,66.738,42.667,64.853,42.667z"/>
<g>
</g>
<g>
</g>
<g>
</g>
<g>
</g>
<g>
</g>
<g>
</g>
<g>
</g>
<g>
</g>
<g>
</g>
<g>
</g>
<g>
</g>
<g>
</g>
<g>
</g>
<g>
</g>
<g>
</g>
</svg>
