<?xml version="1.0" encoding="iso-8859-1"?>
<!-- Generator: Adobe Illustrator 19.0.0, SVG Export Plug-In . SVG Version: 6.00 Build 0)  -->
<svg version="1.1" id="Capa_1" xmlns="http://www.w3.org/2000/svg" xmlns:xlink="http://www.w3.org/1999/xlink" x="0px" y="0px"
	 viewBox="0 0 201.387 201.387" style="enable-background:new 0 0 201.387 201.387;" xml:space="preserve">
<path style="fill:#85D839;" d="M197.973,124.587H3.413V31.918c0-7.26,5.885-13.145,13.145-13.145h168.271
	c7.26,0,13.145,5.885,13.145,13.145V124.587z"/>
<path d="M197.973,128H3.413C1.529,128,0,126.471,0,124.587V31.918C0,22.787,7.429,15.36,16.558,15.36h168.271
	c9.131,0,16.558,7.429,16.558,16.558v92.669C201.387,126.471,199.857,128,197.973,128z M6.827,121.173H194.56V31.918
	c0-5.367-4.366-9.731-9.731-9.731H16.558c-5.367,0-9.731,4.366-9.731,9.731V121.173z"/>
<path style="fill:#DDDDDD;" d="M184.829,155.307H16.558c-7.26,0-13.145-5.885-13.145-13.145v-17.575h194.56v17.575
	C197.973,149.422,192.089,155.307,184.829,155.307z"/>
<path d="M184.829,158.72H16.558C7.427,158.72,0,151.291,0,142.162v-17.575c0-1.884,1.529-3.413,3.413-3.413h194.56
	c1.884,0,3.413,1.529,3.413,3.413v17.575C201.387,151.291,193.958,158.72,184.829,158.72z M6.827,128v14.162
	c0,5.367,4.366,9.731,9.731,9.731h168.271c5.367,0,9.731-4.366,9.731-9.731V128H6.827z"/>
<path d="M100.693,148.48c-4.705,0-8.533-3.828-8.533-8.533s3.828-8.533,8.533-8.533s8.533,3.828,8.533,8.533
	S105.399,148.48,100.693,148.48z M100.693,138.24c-0.942,0-1.707,0.765-1.707,1.707s0.765,1.707,1.707,1.707
	s1.707-0.765,1.707-1.707S101.635,138.24,100.693,138.24z"/>
<polygon style="fill:#DDDDDD;" points="129.707,182.613 71.68,182.613 88.545,155.307 112.841,155.307 "/>
<path d="M129.707,186.027H71.68c-1.239,0-2.379-0.671-2.982-1.749c-0.602-1.082-0.573-2.403,0.079-3.456l16.867-27.307
	c0.621-1.007,1.72-1.62,2.903-1.62h24.293c1.183,0,2.282,0.613,2.903,1.62l16.867,27.307c0.652,1.053,0.679,2.376,0.079,3.456
	C132.086,185.356,130.946,186.027,129.707,186.027z M77.8,179.2h45.786l-12.65-20.48H90.45L77.8,179.2z"/>
<path d="M151.893,116.053c-0.874,0-1.746-0.333-2.413-1c-1.333-1.333-1.333-3.494,0-4.826l29.013-29.013
	c1.333-1.333,3.494-1.333,4.826,0s1.333,3.494,0,4.826l-29.013,29.013C153.639,115.721,152.767,116.053,151.893,116.053z"/>
<path d="M174.08,114.347c-0.874,0-1.746-0.333-2.413-1c-1.333-1.333-1.333-3.494,0-4.826l10.24-10.24
	c1.333-1.333,3.494-1.333,4.826,0s1.333,3.494,0,4.826l-10.24,10.24C175.826,114.014,174.954,114.347,174.08,114.347z"/>
<path d="M150.187,186.027h-102.4c-1.884,0-3.413-1.529-3.413-3.413c0-1.884,1.529-3.413,3.413-3.413h102.4
	c1.884,0,3.413,1.529,3.413,3.413C153.6,184.497,152.071,186.027,150.187,186.027z"/>
<polygon style="fill:#FFFFFF;" points="108.57,96.623 144.36,171.03 156.428,144.481 182.977,132.413 "/>
<path d="M144.36,174.444c-1.311,0-2.507-0.749-3.077-1.934l-35.791-74.407c-0.628-1.307-0.362-2.869,0.664-3.893
	c1.026-1.024,2.58-1.292,3.893-0.664l74.407,35.791c1.193,0.575,1.947,1.789,1.934,3.113c-0.015,1.324-0.795,2.522-2,3.07
	l-25.383,11.54l-11.54,25.383c-0.548,1.205-1.744,1.985-3.07,2C144.386,174.444,144.372,174.444,144.36,174.444z M115.869,103.922
	l28.406,59.052l9.049-19.905c0.34-0.749,0.944-1.353,1.693-1.693l19.905-9.049L115.869,103.922z"/>
<path d="M184.977,176.444c-0.874,0-1.746-0.333-2.413-1l-26.134-26.134c-1.333-1.333-1.333-3.494,0-4.826s3.494-1.333,4.826,0
	l26.134,26.134c1.333,1.333,1.333,3.494,0,4.826C186.723,176.109,185.849,176.444,184.977,176.444z"/>
<path style="fill:#FBAD4A;" d="M78.095,39.253C76.539,46.089,70.451,51.2,63.147,51.2s-13.394-5.111-14.949-11.947H34.133v68.267
	H92.16V39.253H78.095z"/>
<path d="M92.16,110.993H34.133c-1.918,0-3.473-1.555-3.473-3.473V39.253c0-1.918,1.555-3.473,3.473-3.473h14.063
	c1.621,0,3.026,1.121,3.386,2.702c1.241,5.443,5.996,9.245,11.563,9.245s10.324-3.802,11.561-9.243
	c0.36-1.582,1.765-2.703,3.386-2.703H92.16c1.918,0,3.473,1.555,3.473,3.473v68.267C95.633,109.438,94.078,110.993,92.16,110.993z
	 M37.606,104.047h51.081V42.726h-8.032c-2.782,7.154-9.631,11.947-17.509,11.947c-7.876,0-14.727-4.792-17.51-11.947h-8.03
	L37.606,104.047L37.606,104.047z"/>
<polygon style="fill:#FBAD4A;" points="34.133,63.147 17.067,59.733 17.067,39.253 34.133,39.253 "/>
<path d="M34.133,66.62c-0.227,0-0.456-0.022-0.681-0.067L16.386,63.14c-1.623-0.324-2.792-1.749-2.792-3.407v-20.48
	c0-1.918,1.555-3.473,3.473-3.473h17.067c1.918,0,3.473,1.555,3.473,3.473v23.893c0,1.039-0.466,2.028-1.271,2.686
	C35.71,66.347,34.93,66.62,34.133,66.62z M20.54,56.885l10.121,2.026V42.728H20.54V56.885z"/>
<polygon style="fill:#FBAD4A;" points="109.227,59.733 92.16,63.147 92.16,39.253 109.227,39.253 "/>
<path d="M92.16,66.62c-0.797,0-1.577-0.273-2.202-0.787c-0.806-0.66-1.271-1.647-1.271-2.686V39.253
	c0-1.918,1.555-3.473,3.473-3.473h17.067c1.918,0,3.473,1.555,3.473,3.473v20.48c0,1.657-1.169,3.082-2.792,3.407l-17.067,3.413
	C92.616,66.598,92.387,66.62,92.16,66.62z M109.227,59.733h0.017H109.227z M95.633,42.726v16.183l10.121-2.026V42.725H95.633V42.726
	z"/>
<g>
</g>
<g>
</g>
<g>
</g>
<g>
</g>
<g>
</g>
<g>
</g>
<g>
</g>
<g>
</g>
<g>
</g>
<g>
</g>
<g>
</g>
<g>
</g>
<g>
</g>
<g>
</g>
<g>
</g>
</svg>
