<?xml version="1.0" encoding="iso-8859-1"?>
<!-- Generator: Adobe Illustrator 19.0.0, SVG Export Plug-In . SVG Version: 6.00 Build 0)  -->
<svg version="1.1" id="Capa_1" xmlns="http://www.w3.org/2000/svg" xmlns:xlink="http://www.w3.org/1999/xlink" x="0px" y="0px"
	 viewBox="0 0 218.453 218.453" style="enable-background:new 0 0 218.453 218.453;" xml:space="preserve">
<path style="fill:#85D839;" d="M186.027,75.093h-153.6c-16.024,0-29.013-12.989-29.013-29.013l0,0
	c0-16.024,12.989-29.013,29.013-29.013h153.6c16.024,0,29.013,12.989,29.013,29.013l0,0
	C215.04,62.104,202.051,75.093,186.027,75.093z"/>
<path d="M186.027,78.507h-153.6C14.546,78.507,0,63.961,0,46.08s14.546-32.427,32.427-32.427h153.6
	c17.881,0,32.427,14.546,32.427,32.427S203.907,78.507,186.027,78.507z M32.427,20.48c-14.116,0-25.6,11.484-25.6,25.6
	s11.484,25.6,25.6,25.6h153.6c14.116,0,25.6-11.484,25.6-25.6s-11.484-25.6-25.6-25.6H32.427z"/>
<path d="M69.456,30.467h10.467c4.857,0,8.366,0.71,10.527,2.123c2.164,1.417,3.246,3.651,3.246,6.704
	c0,2.06-0.532,3.773-1.594,5.137c-1.06,1.367-2.591,2.231-4.584,2.584v0.241c2.476,0.466,4.297,1.386,5.463,2.76
	c1.167,1.377,1.749,3.236,1.749,5.583c0,3.169-1.106,5.651-3.316,7.439c-2.21,1.794-5.287,2.69-9.226,2.69H69.454v-35.26H69.456z
	 M75.223,45.034h5.547c2.41,0,4.169-0.381,5.28-1.143c1.111-0.763,1.664-2.063,1.664-3.896c0-1.657-0.597-2.854-1.797-3.593
	c-1.196-0.741-3.096-1.109-5.704-1.109h-4.99L75.223,45.034L75.223,45.034z M75.223,49.713V60.88h6.124
	c2.413,0,4.233-0.463,5.463-1.386c1.23-0.927,1.843-2.383,1.843-4.376c0-1.833-0.626-3.193-1.881-4.077
	c-1.254-0.884-3.161-1.326-5.717-1.326h-5.832V49.713z"/>
<path d="M129.703,30.467v22.816c0,2.603-0.56,4.883-1.676,6.837c-1.116,1.954-2.734,3.456-4.847,4.511
	c-2.116,1.053-4.644,1.58-7.586,1.58c-4.372,0-7.774-1.161-10.201-3.473c-2.43-2.316-3.644-5.501-3.644-9.551V30.469h5.791v22.31
	c0,2.91,0.674,5.057,2.024,6.439c1.353,1.381,3.427,2.074,6.222,2.074c5.434,0,8.153-2.854,8.153-8.564v-22.26H129.703z"/>
<path d="M148.68,46.553l8.347-16.087h6.27L151.55,52.052v13.674h-5.787V52.246l-11.698-21.78h6.27L148.68,46.553z"/>
<path style="fill:#FFDD95;" d="M81.801,95.573L54.613,92.16V59.733c0-4.712-3.821-8.533-8.533-8.533s-8.533,3.821-8.533,8.533v35.84
	v17.067v27.769c0,6.267,4.381,11.489,10.24,12.832v48.145H92.16v-48.145c5.859-1.345,10.24-6.566,10.24-12.832v-24.236
	C102.4,104.796,93.177,95.573,81.801,95.573z"/>
<path d="M92.16,204.8H47.787c-1.884,0-3.413-1.529-3.413-3.413v-45.658c-6.146-2.526-10.24-8.487-10.24-15.319V59.733
	c0-6.588,5.361-11.947,11.947-11.947s11.947,5.359,11.947,11.947v29.414l23.997,3.012c13.138,0.119,23.789,10.844,23.789,24.011
	v24.236c0,6.832-4.094,12.793-10.24,15.319v45.66C95.573,203.271,94.044,204.8,92.16,204.8z M51.2,197.973h37.547v-44.732
	c0-1.591,1.099-2.971,2.65-3.326c4.468-1.026,7.59-4.936,7.59-9.506v-24.236c0-9.477-7.709-17.186-17.184-17.186
	c-0.142,0-0.283-0.009-0.425-0.027l-27.189-3.413C52.48,95.333,51.2,93.88,51.2,92.16V59.733c0-2.823-2.297-5.12-5.12-5.12
	s-5.12,2.297-5.12,5.12v80.676c0,4.572,3.121,8.48,7.59,9.506c1.551,0.355,2.65,1.736,2.65,3.326V197.973z"/>
<path d="M54.613,112.64c-1.884,0-3.413-1.529-3.413-3.413V92.16c0-1.884,1.529-3.413,3.413-3.413s3.413,1.529,3.413,3.413v17.067
	C58.027,111.111,56.497,112.64,54.613,112.64z"/>
<path d="M68.267,109.227c-1.884,0-3.413-1.529-3.413-3.413v-10.24c0-1.884,1.529-3.413,3.413-3.413s3.413,1.529,3.413,3.413v10.24
	C71.68,107.698,70.151,109.227,68.267,109.227z"/>
<path d="M81.92,109.227c-1.884,0-3.413-1.529-3.413-3.413v-10.24c0-1.884,1.529-3.413,3.413-3.413c1.884,0,3.413,1.529,3.413,3.413
	v10.24C85.333,107.698,83.804,109.227,81.92,109.227z"/>
<path d="M185.733,107.228c-0.874,0-1.746-0.333-2.413-1l-9.653-9.655c-1.333-1.333-1.333-3.494,0-4.828
	c1.333-1.331,3.494-1.333,4.826,0l9.653,9.655c1.333,1.333,1.333,3.494,0,4.828C187.481,106.894,186.607,107.228,185.733,107.228z"
	/>
<path d="M176.08,107.228c-0.874,0-1.746-0.333-2.413-0.998c-1.333-1.333-1.333-3.494,0-4.828l9.653-9.655
	c1.333-1.333,3.494-1.333,4.826,0s1.333,3.494,0,4.828l-9.653,9.655C177.826,106.894,176.954,107.228,176.08,107.228z"/>
<path d="M134.533,124.295c-0.874,0-1.746-0.333-2.413-1l-9.653-9.655c-1.333-1.333-1.333-3.494,0-4.828
	c1.333-1.331,3.494-1.333,4.826,0l9.653,9.655c1.333,1.333,1.333,3.494,0,4.828C136.281,123.96,135.407,124.295,134.533,124.295z"/>
<path d="M124.88,124.295c-0.874,0-1.746-0.333-2.413-0.998c-1.333-1.333-1.333-3.494,0-4.828l9.653-9.655
	c1.333-1.333,3.494-1.333,4.826,0c1.333,1.333,1.333,3.494,0,4.828l-9.653,9.655C126.626,123.96,125.754,124.295,124.88,124.295z"/>
<g>
</g>
<g>
</g>
<g>
</g>
<g>
</g>
<g>
</g>
<g>
</g>
<g>
</g>
<g>
</g>
<g>
</g>
<g>
</g>
<g>
</g>
<g>
</g>
<g>
</g>
<g>
</g>
<g>
</g>
</svg>
