<?xml version="1.0" encoding="iso-8859-1"?>
<!-- Generator: Adobe Illustrator 19.0.0, SVG Export Plug-In . SVG Version: 6.00 Build 0)  -->
<svg version="1.1" id="Capa_1" xmlns="http://www.w3.org/2000/svg" xmlns:xlink="http://www.w3.org/1999/xlink" x="0px" y="0px"
	 viewBox="0 0 201.387 201.387" style="enable-background:new 0 0 201.387 201.387;" xml:space="preserve">
<path style="fill:#85D839;" d="M197.973,124.587H3.413V31.918c0-7.26,5.885-13.145,13.145-13.145h168.271
	c7.26,0,13.145,5.885,13.145,13.145V124.587z"/>
<path d="M197.973,128H3.413C1.529,128,0,126.471,0,124.587V31.918C0,22.787,7.429,15.36,16.558,15.36h168.271
	c9.131,0,16.558,7.429,16.558,16.558v92.669C201.387,126.471,199.857,128,197.973,128z M6.827,121.173H194.56V31.918
	c0-5.367-4.366-9.731-9.731-9.731H16.558c-5.367,0-9.731,4.366-9.731,9.731V121.173z"/>
<path style="fill:#DDDDDD;" d="M184.829,155.307H16.558c-7.26,0-13.145-5.885-13.145-13.145v-17.575h194.56v17.575
	C197.973,149.422,192.089,155.307,184.829,155.307z"/>
<path d="M184.829,158.72H16.558C7.427,158.72,0,151.291,0,142.162v-17.575c0-1.884,1.529-3.413,3.413-3.413h194.56
	c1.884,0,3.413,1.529,3.413,3.413v17.575C201.387,151.291,193.958,158.72,184.829,158.72z M6.827,128v14.162
	c0,5.367,4.366,9.731,9.731,9.731h168.271c5.367,0,9.731-4.366,9.731-9.731V128H6.827z"/>
<path d="M100.693,148.48c-4.705,0-8.533-3.828-8.533-8.533s3.828-8.533,8.533-8.533s8.533,3.828,8.533,8.533
	S105.399,148.48,100.693,148.48z M100.693,138.24c-0.942,0-1.707,0.765-1.707,1.707s0.765,1.707,1.707,1.707
	s1.707-0.765,1.707-1.707S101.635,138.24,100.693,138.24z"/>
<polygon style="fill:#DDDDDD;" points="129.707,182.613 71.68,182.613 88.545,155.307 112.841,155.307 "/>
<path d="M129.707,186.027H71.68c-1.239,0-2.379-0.671-2.982-1.749c-0.602-1.082-0.573-2.403,0.079-3.456l16.867-27.307
	c0.621-1.007,1.72-1.62,2.903-1.62h24.293c1.183,0,2.282,0.613,2.903,1.62l16.867,27.307c0.652,1.053,0.679,2.376,0.079,3.456
	C132.086,185.356,130.946,186.027,129.707,186.027z M77.8,179.2h45.786l-12.65-20.48H90.45L77.8,179.2z"/>
<path d="M151.893,116.053c-0.874,0-1.746-0.333-2.413-1c-1.333-1.333-1.333-3.494,0-4.826l29.013-29.013
	c1.333-1.333,3.494-1.333,4.826,0s1.333,3.494,0,4.826l-29.013,29.013C153.639,115.721,152.767,116.053,151.893,116.053z"/>
<path d="M174.08,114.347c-0.874,0-1.746-0.333-2.413-1c-1.333-1.333-1.333-3.494,0-4.826l10.24-10.24
	c1.333-1.333,3.494-1.333,4.826,0s1.333,3.494,0,4.826l-10.24,10.24C175.826,114.014,174.954,114.347,174.08,114.347z"/>
<path d="M150.187,186.027h-102.4c-1.884,0-3.413-1.529-3.413-3.413c0-1.884,1.529-3.413,3.413-3.413h102.4
	c1.884,0,3.413,1.529,3.413,3.413C153.6,184.497,152.071,186.027,150.187,186.027z"/>
<polygon style="fill:#FFFFFF;" points="108.57,96.623 144.36,171.03 156.428,144.481 182.977,132.413 "/>
<path d="M144.36,174.444c-1.311,0-2.507-0.749-3.077-1.934l-35.791-74.407c-0.628-1.307-0.362-2.869,0.664-3.893
	c1.024-1.026,2.58-1.292,3.893-0.664l74.407,35.791c1.193,0.575,1.947,1.789,1.934,3.113c-0.015,1.324-0.795,2.522-2,3.07
	l-25.383,11.54l-11.54,25.383c-0.548,1.205-1.744,1.985-3.07,2C144.386,174.444,144.372,174.444,144.36,174.444z M115.869,103.922
	l28.406,59.052l9.049-19.905c0.34-0.749,0.944-1.353,1.693-1.693l19.905-9.049L115.869,103.922z"/>
<path d="M184.977,176.444c-0.874,0-1.746-0.333-2.413-1l-26.134-26.134c-1.333-1.333-1.333-3.494,0-4.826s3.494-1.333,4.826,0
	l26.134,26.134c1.333,1.333,1.333,3.494,0,4.826C186.723,176.109,185.849,176.444,184.977,176.444z"/>
<path d="M55.803,49.241H66.27c4.857,0,8.366,0.71,10.527,2.123c2.164,1.417,3.246,3.651,3.246,6.704c0,2.06-0.532,3.773-1.594,5.137
	c-1.06,1.367-2.591,2.231-4.584,2.584v0.241c2.476,0.466,4.297,1.386,5.463,2.76c1.167,1.377,1.749,3.236,1.749,5.583
	c0,3.169-1.106,5.651-3.316,7.439c-2.21,1.794-5.287,2.69-9.226,2.69H55.801v-35.26H55.803z M61.57,63.807h5.547
	c2.41,0,4.169-0.381,5.28-1.143c1.111-0.763,1.664-2.063,1.664-3.896c0-1.657-0.597-2.854-1.797-3.593
	c-1.196-0.741-3.096-1.109-5.704-1.109h-4.99V63.807z M61.57,68.487v11.167h6.124c2.413,0,4.233-0.463,5.463-1.386
	c1.23-0.927,1.843-2.382,1.843-4.376c0-1.833-0.626-3.193-1.881-4.077c-1.254-0.884-3.161-1.326-5.717-1.326H61.57V68.487z"/>
<path d="M116.05,49.241v22.816c0,2.603-0.56,4.883-1.676,6.837c-1.116,1.954-2.734,3.456-4.847,4.511
	c-2.116,1.053-4.644,1.58-7.586,1.58c-4.372,0-7.774-1.161-10.201-3.473c-2.43-2.316-3.644-5.501-3.644-9.55V49.242h5.791v22.31
	c0,2.91,0.674,5.057,2.024,6.439c1.353,1.381,3.427,2.074,6.223,2.074c5.434,0,8.153-2.854,8.153-8.564v-22.26L116.05,49.241
	L116.05,49.241z"/>
<path d="M135.026,65.326l8.347-16.087h6.27l-11.747,21.586v13.674h-5.787V71.02l-11.698-21.78h6.27L135.026,65.326z"/>
<g>
</g>
<g>
</g>
<g>
</g>
<g>
</g>
<g>
</g>
<g>
</g>
<g>
</g>
<g>
</g>
<g>
</g>
<g>
</g>
<g>
</g>
<g>
</g>
<g>
</g>
<g>
</g>
<g>
</g>
</svg>
