<?xml version="1.0" encoding="iso-8859-1"?>
<!-- Generator: Adobe Illustrator 19.0.0, SVG Export Plug-In . SVG Version: 6.00 Build 0)  -->
<svg version="1.1" id="Capa_1" xmlns="http://www.w3.org/2000/svg" xmlns:xlink="http://www.w3.org/1999/xlink" x="0px" y="0px"
	 viewBox="0 0 198.093 198.093" style="enable-background:new 0 0 198.093 198.093;" xml:space="preserve">
<circle style="fill:#FBAD4A;" cx="99.046" cy="99.046" r="95.573"/>
<path d="M99.046,198.093C44.431,198.093,0,153.661,0,99.046S44.431,0,99.046,0s99.046,44.431,99.046,99.046
	S153.661,198.093,99.046,198.093z M99.046,6.946c-50.784,0-92.1,41.317-92.1,92.1s41.317,92.1,92.1,92.1s92.1-41.317,92.1-92.1
	S149.83,6.946,99.046,6.946z"/>
<path d="M13.713,102.519c-1.918,0-3.473-1.555-3.473-3.473c0-48.968,39.839-88.806,88.806-88.806c1.918,0,3.473,1.555,3.473,3.473
	s-1.555,3.473-3.473,3.473c-45.138,0-81.86,36.722-81.86,81.86C17.186,100.965,15.631,102.519,13.713,102.519z"/>
<circle style="fill:#FEDA38;" cx="99.046" cy="99.046" r="58.027"/>
<path d="M99.046,160.486c-33.879,0-61.44-27.561-61.44-61.44s27.561-61.44,61.44-61.44s61.44,27.561,61.44,61.44
	S132.925,160.486,99.046,160.486z M99.046,44.433c-30.114,0-54.613,24.499-54.613,54.613s24.499,54.613,54.613,54.613
	s54.613-24.499,54.613-54.613S129.161,44.433,99.046,44.433z"/>
<circle style="fill:#777777;" cx="78.566" cy="119.526" r="6.827"/>
<path d="M78.566,129.766c-5.647,0-10.24-4.593-10.24-10.24c0-5.647,4.593-10.24,10.24-10.24s10.24,4.593,10.24,10.24
	C88.806,125.174,84.214,129.766,78.566,129.766z M78.566,116.113c-1.882,0-3.413,1.531-3.413,3.413c0,1.882,1.531,3.413,3.413,3.413
	s3.413-1.531,3.413-3.413C81.98,117.644,80.449,116.113,78.566,116.113z"/>
<circle style="fill:#777777;" cx="119.526" cy="119.526" r="6.827"/>
<path d="M119.526,129.766c-5.647,0-10.24-4.593-10.24-10.24c0-5.647,4.593-10.24,10.24-10.24c5.647,0,10.24,4.593,10.24,10.24
	C129.766,125.174,125.174,129.766,119.526,129.766z M119.526,116.113c-1.882,0-3.413,1.531-3.413,3.413
	c0,1.882,1.531,3.413,3.413,3.413c1.882,0,3.413-1.531,3.413-3.413C122.94,117.644,121.409,116.113,119.526,116.113z"/>
<circle style="fill:#777777;" cx="78.566" cy="78.566" r="6.827"/>
<path d="M78.566,88.806c-5.647,0-10.24-4.593-10.24-10.24s4.593-10.24,10.24-10.24s10.24,4.593,10.24,10.24
	S84.214,88.806,78.566,88.806z M78.566,75.153c-1.882,0-3.413,1.531-3.413,3.413s1.531,3.413,3.413,3.413s3.413-1.531,3.413-3.413
	S80.449,75.153,78.566,75.153z"/>
<circle style="fill:#777777;" cx="119.526" cy="78.566" r="6.827"/>
<path d="M119.526,88.806c-5.647,0-10.24-4.593-10.24-10.24s4.593-10.24,10.24-10.24c5.647,0,10.24,4.593,10.24,10.24
	S125.174,88.806,119.526,88.806z M119.526,75.153c-1.882,0-3.413,1.531-3.413,3.413s1.531,3.413,3.413,3.413
	c1.882,0,3.413-1.531,3.413-3.413S121.409,75.153,119.526,75.153z"/>
<path d="M194.62,198.093h-6.827c-9.443,0-17.126-7.683-17.126-17.126V92.22c0-5.613-4.567-10.18-10.18-10.18h-40.96
	c-1.918,0-3.473-1.555-3.473-3.473c0-1.918,1.555-3.473,3.473-3.473h40.96c9.443,0,17.126,7.683,17.126,17.126v88.747
	c0,5.613,4.567,10.18,10.18,10.18h6.827c1.918,0,3.473,1.555,3.473,3.473C198.093,196.538,196.538,198.093,194.62,198.093z"/>
<g>
</g>
<g>
</g>
<g>
</g>
<g>
</g>
<g>
</g>
<g>
</g>
<g>
</g>
<g>
</g>
<g>
</g>
<g>
</g>
<g>
</g>
<g>
</g>
<g>
</g>
<g>
</g>
<g>
</g>
</svg>
