<?xml version="1.0" encoding="iso-8859-1"?>
<!-- Generator: Adobe Illustrator 19.0.0, SVG Export Plug-In . SVG Version: 6.00 Build 0)  -->
<svg version="1.1" id="Capa_1" xmlns="http://www.w3.org/2000/svg" xmlns:xlink="http://www.w3.org/1999/xlink" x="0px" y="0px"
	 viewBox="0 0 215.04 215.04" style="enable-background:new 0 0 215.04 215.04;" xml:space="preserve">
<path style="fill:#8C6B3B;" d="M187.827,153.6H27.214c-10.318,0-18.681-8.363-18.681-18.679V47.787h197.973v87.134
	C206.507,145.237,198.144,153.6,187.827,153.6z"/>
<path d="M187.827,157.013H27.214c-12.184,0-22.094-9.911-22.094-22.093V47.787c0-1.884,1.529-3.413,3.413-3.413h197.973
	c1.884,0,3.413,1.529,3.413,3.413v87.134C209.92,147.103,200.008,157.013,187.827,157.013z M11.947,51.2v83.721
	c0,8.419,6.849,15.266,15.266,15.266h160.613c8.419,0,15.266-6.849,15.266-15.266V51.2H11.947z"/>
<path style="fill:#997843;" d="M8.533,45.218V23.893h197.973v21.325c0,12.73-10.319,23.049-23.049,23.049H31.582
	C18.852,68.267,8.533,57.948,8.533,45.218z"/>
<path d="M183.458,71.68H31.582c-14.59,0-26.462-11.872-26.462-26.462V23.893c0-1.884,1.529-3.413,3.413-3.413h197.973
	c1.884,0,3.413,1.529,3.413,3.413v21.325C209.92,59.808,198.05,71.68,183.458,71.68z M11.947,27.307v17.911
	c0,10.827,8.808,19.635,19.635,19.635h151.876c10.827,0,19.635-8.808,19.635-19.635V27.307H11.947z"/>
<path d="M138.24,27.307H76.8c-1.884,0-3.413-1.529-3.413-3.413V15.85c0-8.74,7.11-15.85,15.85-15.85h36.567
	c8.74,0,15.85,7.11,15.85,15.85v8.044C141.653,25.777,140.124,27.307,138.24,27.307z M80.213,20.48h54.613v-4.63
	c0-4.975-4.048-9.023-9.023-9.023H89.236c-4.975,0-9.023,4.048-9.023,9.023V20.48z"/>
<path style="fill:#FBAD4A;" d="M66.56,88.747L66.56,88.747c-5.656,0-10.24-4.584-10.24-10.24V54.613H76.8v23.893
	C76.8,84.163,72.216,88.747,66.56,88.747z"/>
<path d="M66.56,92.16c-7.528,0-13.653-6.125-13.653-13.653V54.613c0-1.884,1.529-3.413,3.413-3.413H76.8
	c1.884,0,3.413,1.529,3.413,3.413v23.893C80.213,86.035,74.088,92.16,66.56,92.16z M59.733,58.027v20.48
	c0,3.765,3.062,6.827,6.827,6.827c3.765,0,6.827-3.062,6.827-6.827v-20.48H59.733z"/>
<circle style="fill:#85D839;" cx="143.36" cy="155.307" r="56.32"/>
<path d="M143.36,215.04c-32.937,0-59.733-26.796-59.733-59.733s26.796-59.733,59.733-59.733s59.733,26.796,59.733,59.733
	S176.297,215.04,143.36,215.04z M143.36,102.4c-29.174,0-52.907,23.735-52.907,52.907c0,29.174,23.733,52.907,52.907,52.907
	s52.907-23.733,52.907-52.907C196.267,126.135,172.534,102.4,143.36,102.4z"/>
<path style="fill:#FBAD4A;" d="M151.893,88.747L151.893,88.747c-5.656,0-10.24-4.584-10.24-10.24V54.613h20.48v23.893
	C162.133,84.163,157.549,88.747,151.893,88.747z"/>
<path d="M151.893,92.16c-7.528,0-13.653-6.125-13.653-13.653V54.613c0-1.884,1.529-3.413,3.413-3.413h20.48
	c1.884,0,3.413,1.529,3.413,3.413v23.893C165.547,86.035,159.421,92.16,151.893,92.16z M145.067,58.027v20.48
	c0,3.765,3.062,6.827,6.827,6.827s6.827-3.062,6.827-6.827v-20.48H145.067z"/>
<polyline style="fill:#FEDA38;" points="110.933,133.12 110.933,133.12 121.173,174.08 179.2,174.08 186.027,139.947 
	114.347,139.947 "/>
<path d="M179.2,177.493h-58.027c-1.567,0-2.932-1.067-3.311-2.586l-10.24-40.96c-0.457-1.828,0.655-3.681,2.483-4.139
	c1.828-0.452,3.681,0.654,4.14,2.485l1.06,4.241h70.721c1.024,0,1.992,0.459,2.64,1.249c0.649,0.79,0.908,1.831,0.707,2.833
	l-6.827,34.133C182.228,176.345,180.826,177.493,179.2,177.493z M123.839,170.667h52.564l5.461-27.307h-64.852L123.839,170.667z"/>
<g>
	<circle cx="134.827" cy="184.32" r="6.827"/>
	<circle cx="165.547" cy="184.32" r="6.827"/>
</g>
<path d="M182.613,160.427H117.76c-1.884,0-3.413-1.529-3.413-3.413s1.529-3.413,3.413-3.413h64.853c1.884,0,3.413,1.529,3.413,3.413
	S184.497,160.427,182.613,160.427z"/>
<path d="M110.933,136.533h-10.24c-1.884,0-3.413-1.529-3.413-3.413c0-1.884,1.529-3.413,3.413-3.413h10.24
	c1.884,0,3.413,1.529,3.413,3.413C114.347,135.004,112.818,136.533,110.933,136.533z"/>
<g>
</g>
<g>
</g>
<g>
</g>
<g>
</g>
<g>
</g>
<g>
</g>
<g>
</g>
<g>
</g>
<g>
</g>
<g>
</g>
<g>
</g>
<g>
</g>
<g>
</g>
<g>
</g>
<g>
</g>
</svg>
