<?xml version="1.0" encoding="iso-8859-1"?>
<!-- Generator: Adobe Illustrator 19.0.0, SVG Export Plug-In . SVG Version: 6.00 Build 0)  -->
<svg version="1.1" id="Capa_1" xmlns="http://www.w3.org/2000/svg" xmlns:xlink="http://www.w3.org/1999/xlink" x="0px" y="0px"
	 viewBox="0 0 191.147 191.147" style="enable-background:new 0 0 191.147 191.147;" xml:space="preserve">
<path style="fill:#777777;" d="M78.507,167.253h-10.24c-35.818,0-64.853-29.036-64.853-64.853V84.255h34.195
	c22.588,0,40.899,18.311,40.899,40.899V167.253z"/>
<path d="M78.507,170.667h-10.24C30.624,170.667,0,140.042,0,102.4V84.255c0-1.884,1.529-3.413,3.413-3.413h34.195
	c24.433,0,44.312,19.878,44.312,44.312v42.1C81.92,169.137,80.391,170.667,78.507,170.667z M6.827,87.668V102.4
	c0,33.879,27.561,61.44,61.44,61.44h6.827v-38.687c0-20.669-16.816-37.485-37.485-37.485H6.827z"/>
<path style="fill:#777777;" d="M112.64,167.253h10.24c35.818,0,64.853-29.036,64.853-64.853V84.255h-34.195
	c-22.588,0-40.899,18.311-40.899,40.899V167.253z"/>
<path d="M122.88,170.667h-10.24c-1.884,0-3.413-1.529-3.413-3.413v-42.1c0-24.433,19.878-44.312,44.312-44.312h34.195
	c1.884,0,3.413,1.529,3.413,3.413V102.4C191.147,140.042,160.522,170.667,122.88,170.667z M116.053,163.84h6.827
	c33.879,0,61.44-27.561,61.44-61.44V87.668h-30.781c-20.669,0-37.485,16.816-37.485,37.485V163.84z"/>
<path d="M78.51,165.547c-1.253,0-2.458-0.69-3.057-1.886c-0.843-1.686-0.16-3.736,1.527-4.581l34.133-17.067
	c1.69-0.847,3.738-0.159,4.581,1.527c0.843,1.686,0.16,3.736-1.527,4.581l-34.133,17.067
	C79.543,165.432,79.022,165.547,78.51,165.547z"/>
<path d="M112.637,165.547c-0.512,0-1.033-0.114-1.524-0.36L76.979,148.12c-1.686-0.843-2.371-2.893-1.527-4.581
	c0.841-1.684,2.889-2.374,4.581-1.527l34.133,17.067c1.686,0.843,2.371,2.893,1.527,4.581
	C115.094,164.857,113.889,165.547,112.637,165.547z"/>
<path d="M10.24,85.333c-1.884,0-3.413-1.529-3.413-3.413V23.893c0-1.884,1.529-3.413,3.413-3.413s3.413,1.529,3.413,3.413V81.92
	C13.653,83.804,12.124,85.333,10.24,85.333z"/>
<path d="M180.907,85.333c-1.884,0-3.413-1.529-3.413-3.413V23.893c0-1.884,1.529-3.413,3.413-3.413c1.884,0,3.413,1.529,3.413,3.413
	V81.92C184.32,83.804,182.791,85.333,180.907,85.333z"/>
<g>
</g>
<g>
</g>
<g>
</g>
<g>
</g>
<g>
</g>
<g>
</g>
<g>
</g>
<g>
</g>
<g>
</g>
<g>
</g>
<g>
</g>
<g>
</g>
<g>
</g>
<g>
</g>
<g>
</g>
</svg>
