<?xml version="1.0" encoding="iso-8859-1"?>
<!-- Generator: Adobe Illustrator 19.0.0, SVG Export Plug-In . SVG Version: 6.00 Build 0)  -->
<svg version="1.1" id="Capa_1" xmlns="http://www.w3.org/2000/svg" xmlns:xlink="http://www.w3.org/1999/xlink" x="0px" y="0px"
	 viewBox="0 0 218.453 218.453" style="enable-background:new 0 0 218.453 218.453;" xml:space="preserve">
<rect x="16.981" y="63.147" style="fill:#997843;" width="105.899" height="88.747"/>
<path d="M122.88,155.307H16.988c-1.884,0-3.413-1.529-3.413-3.413V63.147c0-1.884,1.529-3.413,3.413-3.413H122.88
	c1.884,0,3.413,1.529,3.413,3.413v88.747C126.293,153.777,124.764,155.307,122.88,155.307z M20.401,148.48h99.065V66.56H20.401
	V148.48z"/>
<path style="fill:#997843;" d="M117.948,42.667H21.92c-6.451,0-11.68,5.229-11.68,11.68V66.56h119.386V54.347
	C129.626,47.896,124.397,42.667,117.948,42.667z"/>
<path d="M129.628,69.973H10.24c-1.884,0-3.413-1.529-3.413-3.413V54.347c0-8.322,6.77-15.094,15.094-15.094h96.027
	c8.322,0,15.094,6.772,15.094,15.094V66.56C133.041,68.444,131.512,69.973,129.628,69.973z M13.653,63.147h112.562v-8.8
	c0-4.559-3.709-8.267-8.267-8.267H21.92c-4.559,0-8.267,3.709-8.267,8.267V63.147z"/>
<rect x="78.421" y="63.147" style="fill:#8C6B3B;" width="119.552" height="88.747"/>
<path d="M197.973,155.307H78.428c-1.884,0-3.413-1.529-3.413-3.413V63.147c0-1.884,1.529-3.413,3.413-3.413h119.545
	c1.884,0,3.413,1.529,3.413,3.413v88.747C201.387,153.777,199.857,155.307,197.973,155.307z M81.841,148.48H194.56V66.56H81.842
	L81.841,148.48L81.841,148.48z"/>
<path style="fill:#8C6B3B;" d="M189.706,32.427H83.36c-6.451,0-11.68,5.229-11.68,11.68V66.56h129.707V44.107
	C201.387,37.656,196.157,32.427,189.706,32.427z"/>
<path d="M201.387,69.973H71.68c-1.884,0-3.413-1.529-3.413-3.413V44.107c0-8.322,6.77-15.094,15.094-15.094h106.346
	c8.322,0,15.094,6.772,15.094,15.094V66.56C204.8,68.444,203.271,69.973,201.387,69.973z M75.093,63.147h122.88v-19.04
	c0-4.559-3.709-8.267-8.267-8.267H83.36c-4.559,0-8.267,3.709-8.267,8.267L75.093,63.147L75.093,63.147z"/>
<polygon style="fill:#ED5481;" points="184.32,107.52 167.253,97.28 150.187,107.52 150.187,66.56 184.32,66.56 "/>
<path d="M184.32,110.933c-0.608,0-1.215-0.162-1.756-0.486l-15.31-9.187l-15.311,9.187c-1.055,0.635-2.369,0.652-3.437,0.043
	c-1.07-0.604-1.732-1.741-1.732-2.97V66.56c0-1.884,1.529-3.413,3.413-3.413h34.133c1.884,0,3.413,1.529,3.413,3.413v40.96
	c0,1.23-0.662,2.365-1.732,2.97C185.481,110.787,184.899,110.933,184.32,110.933z M167.253,93.867c0.608,0,1.215,0.162,1.756,0.486
	l11.897,7.139V69.973H153.6v31.519l11.897-7.139C166.038,94.029,166.646,93.867,167.253,93.867z"/>
<polygon style="fill:#ED5481;" points="61.44,100.693 47.787,92.16 34.133,100.693 34.133,66.56 61.44,66.56 "/>
<path d="M61.44,104.107c-0.63,0-1.256-0.174-1.809-0.519l-11.844-7.404l-11.844,7.404c-1.051,0.659-2.377,0.695-3.465,0.09
	c-1.085-0.602-1.758-1.744-1.758-2.985V66.56c0-1.884,1.529-3.413,3.413-3.413H61.44c1.884,0,3.413,1.529,3.413,3.413v34.133
	c0,1.241-0.674,2.382-1.758,2.985C62.578,103.965,62.008,104.107,61.44,104.107z M47.787,88.747c0.628,0,1.256,0.174,1.809,0.519
	l8.431,5.27V69.973h-20.48v24.562l8.431-5.27C46.531,88.921,47.159,88.747,47.787,88.747z"/>
<rect x="3.413" y="151.893" style="fill:#FBAD4A;" width="211.627" height="10.24"/>
<path d="M215.04,165.547H3.413c-1.884,0-3.413-1.529-3.413-3.413v-10.24c0-1.884,1.529-3.413,3.413-3.413H215.04
	c1.884,0,3.413,1.529,3.413,3.413v10.24C218.453,164.018,216.924,165.547,215.04,165.547z M6.827,158.72h204.8v-3.413H6.827V158.72z
	"/>
<rect x="3.413" y="162.133" style="fill:#FBAD4A;" width="34.133" height="23.893"/>
<path d="M37.547,189.44H3.413c-1.884,0-3.413-1.529-3.413-3.413v-23.893c0-1.884,1.529-3.413,3.413-3.413h34.133
	c1.884,0,3.413,1.529,3.413,3.413v23.893C40.96,187.911,39.431,189.44,37.547,189.44z M6.827,182.613h27.307v-17.067H6.827V182.613z
	"/>
<rect x="180.907" y="162.133" style="fill:#FBAD4A;" width="34.133" height="23.893"/>
<path d="M215.04,189.44h-34.133c-1.884,0-3.413-1.529-3.413-3.413v-23.893c0-1.884,1.529-3.413,3.413-3.413h34.133
	c1.884,0,3.413,1.529,3.413,3.413v23.893C218.453,187.911,216.924,189.44,215.04,189.44z M184.32,182.613h27.307v-17.067H184.32
	V182.613z"/>
<g>
</g>
<g>
</g>
<g>
</g>
<g>
</g>
<g>
</g>
<g>
</g>
<g>
</g>
<g>
</g>
<g>
</g>
<g>
</g>
<g>
</g>
<g>
</g>
<g>
</g>
<g>
</g>
<g>
</g>
</svg>
