<?xml version="1.0" encoding="iso-8859-1"?>
<!-- Generator: Adobe Illustrator 19.0.0, SVG Export Plug-In . SVG Version: 6.00 Build 0)  -->
<svg version="1.1" id="Capa_1" xmlns="http://www.w3.org/2000/svg" xmlns:xlink="http://www.w3.org/1999/xlink" x="0px" y="0px"
	 viewBox="0 0 218.454 218.454" style="enable-background:new 0 0 218.454 218.454;" xml:space="preserve">
<polygon style="fill:#8C6B3B;" points="197.618,139.947 54.755,139.947 47.787,61.44 215.04,61.44 "/>
<path d="M197.618,143.36H54.755c-1.768,0-3.243-1.35-3.4-3.111l-6.968-78.507c-0.085-0.954,0.236-1.9,0.882-2.606
	c0.647-0.707,1.56-1.109,2.517-1.109H215.04c1.034,0,2.016,0.469,2.662,1.277c0.649,0.809,0.894,1.865,0.671,2.877l-17.422,78.507
	C200.603,142.249,199.219,143.36,197.618,143.36z M57.88,136.534h136.999l15.906-71.68H51.516L57.88,136.534z"/>
<polygon style="fill:#FEDA38;" points="180.907,139.947 40.96,139.947 34.133,61.44 197.973,61.44 "/>
<path d="M180.907,143.36H40.96c-1.772,0-3.248-1.353-3.401-3.118l-6.827-78.507c-0.082-0.952,0.239-1.896,0.886-2.601
	s1.56-1.108,2.516-1.108h163.84c1.033,0,2.01,0.466,2.659,1.271c0.647,0.804,0.896,1.859,0.676,2.867l-17.067,78.507
	C183.902,142.241,182.511,143.36,180.907,143.36z M44.09,136.534h134.065l15.584-71.68H37.857L44.09,136.534z"/>
<path d="M34.13,64.854c-1.717,0-3.195-1.29-3.388-3.036l-3.077-27.684H3.413C1.529,34.134,0,32.604,0,30.72
	c0-1.884,1.529-3.413,3.413-3.413H30.72c1.739,0,3.2,1.309,3.393,3.036l3.413,30.72c0.208,1.874-1.142,3.562-3.016,3.768
	C34.383,64.847,34.255,64.854,34.13,64.854z"/>
<path d="M61.437,174.08c-1.717,0-3.195-1.29-3.388-3.036l-3.413-30.72c-0.208-1.874,1.142-3.562,3.016-3.768
	c1.86-0.229,3.56,1.14,3.768,3.016l3.413,30.72c0.208,1.874-1.142,3.562-3.016,3.768C61.689,174.073,61.561,174.08,61.437,174.08z"
	/>
<circle style="fill:#2A8EE6;" cx="64.853" cy="184.32" r="13.653"/>
<path d="M64.853,201.387c-9.411,0-17.067-7.656-17.067-17.067s7.656-17.067,17.067-17.067c9.411,0,17.067,7.656,17.067,17.067
	S74.264,201.387,64.853,201.387z M64.853,174.08c-5.647,0-10.24,4.593-10.24,10.24s4.593,10.24,10.24,10.24
	c5.647,0,10.24-4.593,10.24-10.24S70.501,174.08,64.853,174.08z"/>
<circle style="fill:#2A8EE6;" cx="180.907" cy="184.32" r="13.653"/>
<path d="M180.907,201.387c-9.411,0-17.067-7.656-17.067-17.067s7.656-17.067,17.067-17.067c9.411,0,17.067,7.656,17.067,17.067
	S190.317,201.387,180.907,201.387z M180.907,174.08c-5.647,0-10.24,4.593-10.24,10.24s4.593,10.24,10.24,10.24
	s10.24-4.593,10.24-10.24S186.554,174.08,180.907,174.08z"/>
<path d="M167.253,187.734H78.507c-1.884,0-3.413-1.529-3.413-3.413s1.529-3.413,3.413-3.413h88.747c1.884,0,3.413,1.529,3.413,3.413
	S169.139,187.734,167.253,187.734z"/>
<path d="M44.37,174.08c-1.717,0-3.195-1.29-3.388-3.036l-3.413-30.72c-0.208-1.874,1.142-3.562,3.016-3.768
	c1.869-0.229,3.56,1.14,3.768,3.016l3.413,30.72c0.208,1.874-1.142,3.562-3.016,3.768C44.623,174.073,44.495,174.08,44.37,174.08z"
	/>
<circle style="fill:#26BBEC;" cx="47.787" cy="184.32" r="13.653"/>
<path d="M47.787,201.387c-9.411,0-17.067-7.656-17.067-17.067s7.656-17.067,17.067-17.067s17.067,7.656,17.067,17.067
	S57.197,201.387,47.787,201.387z M47.787,174.08c-5.647,0-10.24,4.593-10.24,10.24s4.593,10.24,10.24,10.24s10.24-4.593,10.24-10.24
	S53.434,174.08,47.787,174.08z"/>
<circle style="fill:#26BBEC;" cx="163.84" cy="184.32" r="13.653"/>
<path d="M163.84,201.387c-9.411,0-17.067-7.656-17.067-17.067s7.656-17.067,17.067-17.067c9.411,0,17.067,7.656,17.067,17.067
	S173.251,201.387,163.84,201.387z M163.84,174.08c-5.647,0-10.24,4.593-10.24,10.24s4.593,10.24,10.24,10.24
	c5.647,0,10.24-4.593,10.24-10.24S169.487,174.08,163.84,174.08z"/>
<path d="M150.187,187.734H61.44c-1.884,0-3.413-1.529-3.413-3.413s1.529-3.413,3.413-3.413h88.747c1.884,0,3.413,1.529,3.413,3.413
	S152.073,187.734,150.187,187.734z"/>
<path d="M163.843,139.947c-0.201,0-0.406-0.019-0.613-0.055c-1.855-0.336-3.086-2.115-2.748-3.968l13.653-75.093
	c0.338-1.853,2.103-3.081,3.968-2.748c1.855,0.336,3.086,2.115,2.748,3.968l-13.653,75.093
	C166.898,138.792,165.461,139.947,163.843,139.947z"/>
<path d="M143.365,143.36c-0.148,0-0.297-0.009-0.447-0.029c-1.869-0.244-3.186-1.956-2.944-3.826l10.24-78.507
	c0.246-1.872,1.976-3.191,3.826-2.944c1.869,0.244,3.186,1.956,2.944,3.826l-10.24,78.507
	C146.521,142.109,145.053,143.36,143.365,143.36z"/>
<path d="M61.437,143.36c-1.69,0-3.156-1.251-3.381-2.971l-10.24-78.507c-0.244-1.871,1.073-3.584,2.944-3.826
	c1.886-0.247,3.582,1.075,3.826,2.944l10.24,78.507c0.244,1.87-1.073,3.584-2.944,3.826C61.732,143.352,61.583,143.36,61.437,143.36
	z"/>
<path d="M122.883,143.36c-0.099,0-0.198-0.003-0.299-0.014c-1.879-0.164-3.268-1.818-3.104-3.695l6.827-78.507
	c0.162-1.879,1.807-3.292,3.695-3.104c1.879,0.164,3.268,1.818,3.104,3.695l-6.827,78.507
	C126.126,142.021,124.634,143.36,122.883,143.36z"/>
<path d="M81.917,143.36c-1.751,0-3.241-1.34-3.396-3.118l-6.827-78.507c-0.164-1.877,1.227-3.531,3.104-3.695
	c1.879-0.196,3.533,1.227,3.697,3.104l6.827,78.507c0.164,1.877-1.227,3.531-3.104,3.695
	C82.115,143.357,82.016,143.36,81.917,143.36z"/>
<path d="M102.4,143.36c-1.884,0-3.413-1.529-3.413-3.413V61.44c0-1.884,1.529-3.413,3.413-3.413c1.884,0,3.413,1.529,3.413,3.413
	v78.507C105.813,141.831,104.286,143.36,102.4,143.36z"/>
<path d="M191.147,85.334h-153.6c-1.884,0-3.413-1.529-3.413-3.413c0-1.884,1.529-3.413,3.413-3.413h153.6
	c1.884,0,3.413,1.529,3.413,3.413C194.56,83.804,193.033,85.334,191.147,85.334z"/>
<path d="M187.733,105.814H37.547c-1.884,0-3.413-1.529-3.413-3.413c0-1.884,1.529-3.413,3.413-3.413h150.187
	c1.884,0,3.413,1.529,3.413,3.413C191.147,104.284,189.619,105.814,187.733,105.814z"/>
<path d="M184.32,126.294H40.96c-1.884,0-3.413-1.529-3.413-3.413c0-1.884,1.529-3.413,3.413-3.413h143.36
	c1.884,0,3.413,1.529,3.413,3.413C187.733,124.764,186.206,126.294,184.32,126.294z"/>
<path d="M122.88,40.96c-1.884,0-3.413-1.529-3.413-3.413V20.48c0-1.884,1.529-3.413,3.413-3.413c1.884,0,3.413,1.529,3.413,3.413
	v17.067C126.293,39.431,124.766,40.96,122.88,40.96z"/>
<path d="M153.6,44.374c-0.874,0-1.746-0.333-2.413-1c-1.333-1.333-1.333-3.494,0-4.826l13.653-13.653
	c1.333-1.333,3.494-1.333,4.826,0c1.333,1.333,1.333,3.494,0,4.826l-13.653,13.653C155.346,44.041,154.474,44.374,153.6,44.374z"/>
<path d="M92.16,44.374c-0.874,0-1.748-0.333-2.413-1L76.093,29.72c-1.333-1.333-1.333-3.494,0-4.826
	c1.331-1.333,3.495-1.333,4.826,0l13.653,13.653c1.333,1.333,1.333,3.494,0,4.826C93.908,44.041,93.034,44.374,92.16,44.374z"/>
<g>
</g>
<g>
</g>
<g>
</g>
<g>
</g>
<g>
</g>
<g>
</g>
<g>
</g>
<g>
</g>
<g>
</g>
<g>
</g>
<g>
</g>
<g>
</g>
<g>
</g>
<g>
</g>
<g>
</g>
</svg>
