<?xml version="1.0" encoding="iso-8859-1"?>
<!-- Generator: Adobe Illustrator 19.0.0, SVG Export Plug-In . SVG Version: 6.00 Build 0)  -->
<svg version="1.1" id="Capa_1" xmlns="http://www.w3.org/2000/svg" xmlns:xlink="http://www.w3.org/1999/xlink" x="0px" y="0px"
	 viewBox="0 0 201.387 201.387" style="enable-background:new 0 0 201.387 201.387;" xml:space="preserve">
<polygon style="fill:#FFDD95;" points="180.907,129.81 40.96,129.81 34.133,51.303 197.973,51.303 "/>
<path d="M180.907,133.223H40.96c-1.772,0-3.248-1.353-3.401-3.118l-6.827-78.507c-0.082-0.954,0.239-1.898,0.886-2.603
	s1.56-1.106,2.516-1.106h163.84c1.033,0,2.01,0.468,2.657,1.271c0.649,0.804,0.898,1.857,0.678,2.867l-17.067,78.507
	C183.9,132.104,182.513,133.223,180.907,133.223z M44.088,126.397h134.067l15.582-71.68H37.856L44.088,126.397z"/>
<path d="M34.128,54.717c-1.717,0-3.195-1.29-3.388-3.036l-3.075-27.684H3.413C1.529,23.997,0,22.467,0,20.583
	c0-1.884,1.529-3.413,3.413-3.413H30.72c1.739,0,3.2,1.307,3.393,3.036l3.413,30.72c0.208,1.874-1.142,3.56-3.016,3.768
	C34.383,54.71,34.255,54.717,34.128,54.717z"/>
<path d="M44.368,163.943c-1.717,0-3.195-1.29-3.388-3.036l-3.413-30.72c-0.208-1.874,1.142-3.56,3.016-3.768
	c1.871-0.212,3.56,1.142,3.768,3.016l3.413,30.72c0.208,1.874-1.142,3.56-3.016,3.768C44.623,163.936,44.495,163.943,44.368,163.943
	z"/>
<circle style="fill:#2ABBE9;" cx="47.787" cy="174.181" r="13.653"/>
<path d="M47.787,191.25c-9.411,0-17.067-7.656-17.067-17.067s7.656-17.067,17.067-17.067s17.067,7.656,17.067,17.067
	S57.197,191.25,47.787,191.25z M47.787,163.943c-5.647,0-10.24,4.593-10.24,10.24s4.593,10.24,10.24,10.24s10.24-4.593,10.24-10.24
	S53.432,163.943,47.787,163.943z"/>
<circle style="fill:#2ABBE9;" cx="163.84" cy="174.181" r="13.653"/>
<path d="M163.84,191.25c-9.411,0-17.067-7.656-17.067-17.067s7.656-17.067,17.067-17.067c9.411,0,17.067,7.656,17.067,17.067
	S173.251,191.25,163.84,191.25z M163.84,163.943c-5.647,0-10.24,4.593-10.24,10.24s4.593,10.24,10.24,10.24
	c5.647,0,10.24-4.593,10.24-10.24S169.487,163.943,163.84,163.943z"/>
<path d="M150.187,177.597H61.44c-1.884,0-3.413-1.529-3.413-3.413s1.529-3.413,3.413-3.413h88.747c1.884,0,3.413,1.529,3.413,3.413
	S152.071,177.597,150.187,177.597z"/>
<polygon style="fill:#84D839;" points="122.88,85.437 122.88,13.757 105.813,13.757 105.813,85.437 95.573,85.437 114.347,109.084 
	133.12,85.437 "/>
<path d="M114.347,112.704c-1.104,0-2.149-0.503-2.836-1.369L92.737,87.688c-0.864-1.087-1.029-2.574-0.425-3.825
	c0.604-1.251,1.87-2.046,3.26-2.046h6.62v-68.06c0-1.999,1.621-3.62,3.62-3.62h17.067c1.999,0,3.62,1.621,3.62,3.62v68.06h6.622
	c1.389,0,2.656,0.794,3.26,2.046c0.604,1.251,0.439,2.738-0.425,3.825l-18.773,23.648
	C116.495,112.2,115.451,112.704,114.347,112.704z M103.069,89.056l11.276,14.206l11.276-14.206h-2.741
	c-1.999,0-3.62-1.621-3.62-3.62v-68.06h-9.827v68.06c0,1.999-1.621,3.62-3.62,3.62H103.069z"/>
<g>
</g>
<g>
</g>
<g>
</g>
<g>
</g>
<g>
</g>
<g>
</g>
<g>
</g>
<g>
</g>
<g>
</g>
<g>
</g>
<g>
</g>
<g>
</g>
<g>
</g>
<g>
</g>
<g>
</g>
</svg>
