<?xml version="1.0" encoding="iso-8859-1"?>
<!-- Generator: Adobe Illustrator 19.0.0, SVG Export Plug-In . SVG Version: 6.00 Build 0)  -->
<svg version="1.1" id="Capa_1" xmlns="http://www.w3.org/2000/svg" xmlns:xlink="http://www.w3.org/1999/xlink" x="0px" y="0px"
	 viewBox="0 0 204.8 204.8" style="enable-background:new 0 0 204.8 204.8;" xml:space="preserve">
<path style="fill:#2ABBE9;" d="M199.68,143.36H5.12V50.691c0-7.26,5.885-13.145,13.145-13.145h168.271
	c7.26,0,13.145,5.885,13.145,13.145V143.36z"/>
<path d="M199.68,146.773H5.12c-1.884,0-3.413-1.529-3.413-3.413V50.691c0-9.131,7.429-16.558,16.558-16.558h168.271
	c9.131,0,16.558,7.429,16.558,16.558v92.669C203.093,145.244,201.564,146.773,199.68,146.773z M8.533,139.947h187.733V50.691
	c0-5.367-4.366-9.731-9.731-9.731H18.265c-5.367,0-9.731,4.366-9.731,9.731V139.947z"/>
<path style="fill:#DDDDDD;" d="M186.535,174.08H18.265c-7.26,0-13.145-5.885-13.145-13.145V143.36h194.56v17.575
	C199.68,168.195,193.795,174.08,186.535,174.08z"/>
<path d="M186.535,177.493H18.265c-9.131,0-16.558-7.429-16.558-16.558V143.36c0-1.884,1.529-3.413,3.413-3.413h194.56
	c1.884,0,3.413,1.529,3.413,3.413v17.575C203.093,170.064,195.664,177.493,186.535,177.493z M8.533,146.773v14.162
	c0,5.367,4.366,9.731,9.731,9.731h168.271c5.367,0,9.731-4.366,9.731-9.731v-14.162H8.533z"/>
<path d="M102.4,167.253c-4.705,0-8.533-3.828-8.533-8.533c0-4.705,3.828-8.533,8.533-8.533s8.533,3.828,8.533,8.533
	C110.933,163.425,107.105,167.253,102.4,167.253z M102.4,157.013c-0.942,0-1.707,0.765-1.707,1.707c0,0.942,0.765,1.707,1.707,1.707
	s1.707-0.765,1.707-1.707C104.107,157.778,103.342,157.013,102.4,157.013z"/>
<polygon style="fill:#DDDDDD;" points="131.413,201.387 73.387,201.387 90.252,174.08 114.548,174.08 "/>
<path d="M131.413,204.8H73.387c-1.239,0-2.379-0.671-2.982-1.749c-0.602-1.082-0.573-2.403,0.079-3.456l16.867-27.307
	c0.621-1.007,1.72-1.62,2.903-1.62h24.293c1.183,0,2.282,0.613,2.903,1.62l16.867,27.307c0.652,1.053,0.679,2.376,0.079,3.456
	C133.792,204.129,132.652,204.8,131.413,204.8z M79.507,197.973h45.786l-12.65-20.48H92.157L79.507,197.973z"/>
<circle style="fill:#FEDA4F;" cx="69.973" cy="92.16" r="34.133"/>
<path d="M69.973,129.707c-20.704,0-37.547-16.843-37.547-37.547S49.27,54.613,69.973,54.613S107.52,71.456,107.52,92.16
	S90.677,129.707,69.973,129.707z M69.973,61.44c-16.939,0-30.72,13.781-30.72,30.72s13.781,30.72,30.72,30.72
	s30.72-13.781,30.72-30.72S86.912,61.44,69.973,61.44z"/>
<path d="M68.164,113.63v-5.17c-2.97-0.053-6.042-0.973-7.834-2.253l1.229-3.43c1.843,1.227,4.506,2.2,7.371,2.2
	c3.635,0,6.093-2.099,6.093-5.016c0-2.816-1.997-4.557-5.786-6.093c-5.224-2.046-8.448-4.403-8.448-8.856
	c0-4.25,3.023-7.473,7.731-8.243V71.6h3.173v4.966c3.072,0.101,5.171,0.92,6.656,1.79l-1.28,3.379
	c-1.075-0.613-3.174-1.741-6.451-1.741c-3.942,0-5.427,2.353-5.427,4.403c0,2.661,1.894,3.994,6.349,5.837
	c5.274,2.15,7.936,4.809,7.936,9.366c0,4.047-2.816,7.834-8.09,8.707v5.323h-3.222V113.63z"/>
<circle style="fill:#FEDA4F;" cx="145.067" cy="37.547" r="34.133"/>
<path d="M145.067,75.093c-20.704,0-37.547-16.843-37.547-37.547S124.363,0,145.067,0s37.547,16.843,37.547,37.547
	S165.77,75.093,145.067,75.093z M145.067,6.827c-16.939,0-30.72,13.781-30.72,30.72s13.781,30.72,30.72,30.72
	s30.72-13.781,30.72-30.72S162.005,6.827,145.067,6.827z"/>
<path d="M143.258,59.017v-5.169c-2.97-0.053-6.042-0.973-7.834-2.253l1.229-3.43c1.843,1.227,4.506,2.2,7.371,2.2
	c3.635,0,6.093-2.099,6.093-5.016c0-2.816-1.997-4.557-5.786-6.093c-5.224-2.046-8.448-4.403-8.448-8.856
	c0-4.25,3.022-7.473,7.731-8.243v-5.169h3.173v4.966c3.072,0.101,5.171,0.92,6.656,1.79l-1.28,3.379
	c-1.075-0.613-3.174-1.741-6.451-1.741c-3.942,0-5.427,2.353-5.427,4.403c0,2.661,1.894,3.994,6.349,5.837
	c5.274,2.15,7.936,4.809,7.936,9.366c0,4.047-2.816,7.834-8.09,8.707v5.323h-3.222V59.017z"/>
<path d="M153.6,134.827c-0.874,0-1.746-0.333-2.413-1c-1.333-1.333-1.333-3.494,0-4.826L180.2,99.987
	c1.333-1.333,3.494-1.333,4.826,0s1.333,3.494,0,4.826l-29.013,29.013C155.346,134.494,154.474,134.827,153.6,134.827z"/>
<path d="M175.787,133.12c-0.874,0-1.746-0.333-2.413-1c-1.333-1.333-1.333-3.494,0-4.826l10.24-10.24
	c1.333-1.333,3.494-1.333,4.826,0c1.333,1.333,1.333,3.494,0,4.826l-10.24,10.24C177.533,132.787,176.66,133.12,175.787,133.12z"/>
<path d="M151.893,204.8h-102.4c-1.884,0-3.413-1.529-3.413-3.413s1.529-3.413,3.413-3.413h102.4c1.884,0,3.413,1.529,3.413,3.413
	S153.777,204.8,151.893,204.8z"/>
<g>
</g>
<g>
</g>
<g>
</g>
<g>
</g>
<g>
</g>
<g>
</g>
<g>
</g>
<g>
</g>
<g>
</g>
<g>
</g>
<g>
</g>
<g>
</g>
<g>
</g>
<g>
</g>
<g>
</g>
</svg>
