<?xml version="1.0" encoding="iso-8859-1"?>
<!-- Generator: Adobe Illustrator 19.0.0, SVG Export Plug-In . SVG Version: 6.00 Build 0)  -->
<svg version="1.1" id="Capa_1" xmlns="http://www.w3.org/2000/svg" xmlns:xlink="http://www.w3.org/1999/xlink" x="0px" y="0px"
	 viewBox="0 0 208.215 208.215" style="enable-background:new 0 0 208.215 208.215;" xml:space="preserve">
<path style="fill:#DDDDDD;" d="M194.956,189.471H13.257c-5.436,0-9.844-4.407-9.844-9.844V76.433c0-5.436,4.407-9.844,9.844-9.844
	h181.7c5.436,0,9.844,4.407,9.844,9.844v103.194C204.8,185.064,200.393,189.471,194.956,189.471z"/>
<path d="M194.956,192.884H13.257C5.948,192.884,0,186.938,0,179.627V76.433c0-7.31,5.946-13.257,13.257-13.257h181.7
	c7.31,0,13.257,5.946,13.257,13.257v103.194C208.213,186.938,202.267,192.884,194.956,192.884z M13.257,70.004
	c-3.545,0-6.431,2.884-6.431,6.431v103.194c0,3.545,2.884,6.431,6.431,6.431h181.7c3.545,0,6.431-2.884,6.431-6.431V76.435
	c0-3.545-2.884-6.431-6.431-6.431H13.257z"/>
<path d="M44.373,134.857H17.067c-1.884,0-3.413-1.529-3.413-3.413c0-1.884,1.529-3.413,3.413-3.413h27.307
	c1.884,0,3.413,1.529,3.413,3.413C47.787,133.328,46.257,134.857,44.373,134.857z"/>
<path d="M71.68,151.924H17.067c-1.884,0-3.413-1.529-3.413-3.413c0-1.884,1.529-3.413,3.413-3.413H71.68
	c1.884,0,3.413,1.529,3.413,3.413C75.093,150.395,73.564,151.924,71.68,151.924z"/>
<path d="M109.227,151.924h-20.48c-1.884,0-3.413-1.529-3.413-3.413c0-1.884,1.529-3.413,3.413-3.413h20.48
	c1.884,0,3.413,1.529,3.413,3.413C112.64,150.395,111.111,151.924,109.227,151.924z"/>
<path d="M27.307,168.991h-10.24c-1.884,0-3.413-1.529-3.413-3.413c0-1.884,1.529-3.413,3.413-3.413h10.24
	c1.884,0,3.413,1.529,3.413,3.413C30.72,167.462,29.191,168.991,27.307,168.991z"/>
<path d="M68.267,168.991H51.2c-1.884,0-3.413-1.529-3.413-3.413c0-1.884,1.529-3.413,3.413-3.413h17.067
	c1.884,0,3.413,1.529,3.413,3.413C71.68,167.462,70.151,168.991,68.267,168.991z"/>
<path d="M85.333,134.857H58.027c-1.884,0-3.413-1.529-3.413-3.413c0-1.884,1.529-3.413,3.413-3.413h27.307
	c1.884,0,3.413,1.529,3.413,3.413C88.747,133.328,87.217,134.857,85.333,134.857z"/>
<path d="M126.293,134.857H98.987c-1.884,0-3.413-1.529-3.413-3.413c0-1.884,1.529-3.413,3.413-3.413h27.307
	c1.884,0,3.413,1.529,3.413,3.413C129.707,133.328,128.178,134.857,126.293,134.857z"/>
<path d="M34.13,175.817c-0.65,0-1.309-0.184-1.889-0.573c-1.568-1.044-1.992-3.164-0.947-4.733l6.827-10.24
	c1.044-1.568,3.164-1.995,4.733-0.947c1.568,1.044,1.992,3.164,0.947,4.733l-6.827,10.24
	C36.314,175.285,35.234,175.817,34.13,175.817z"/>
<path style="fill:#FCAD3A;" d="M49.514,110.964H22.168c-2.816,0-5.1-2.284-5.1-5.1V88.759c0-2.816,2.284-5.1,5.1-5.1h27.346
	c2.816,0,5.1,2.284,5.1,5.1v17.106C54.613,108.681,52.33,110.964,49.514,110.964z"/>
<path d="M49.514,114.377H22.168c-4.695,0-8.513-3.818-8.513-8.513V88.759c0-4.695,3.818-8.513,8.513-8.513h27.346
	c4.695,0,8.513,3.818,8.513,8.513v17.106C58.027,110.56,54.209,114.377,49.514,114.377z M22.166,87.071
	c-0.93,0-1.686,0.756-1.686,1.686v17.106c0,0.93,0.756,1.686,1.686,1.686h27.346c0.93,0,1.686-0.756,1.686-1.686V88.757
	c0-0.93-0.756-1.686-1.686-1.686H22.166z"/>
<path d="M40.96,110.964c-1.884,0-3.413-1.529-3.413-3.413v-20.48c0-1.884,1.529-3.413,3.413-3.413c1.884,0,3.413,1.529,3.413,3.413
	v20.48C44.373,109.437,42.844,110.964,40.96,110.964z"/>
<path d="M37.547,100.724H20.48c-1.884,0-3.413-1.529-3.413-3.413c0-1.884,1.529-3.413,3.413-3.413h17.067
	c1.884,0,3.413,1.529,3.413,3.413C40.96,99.195,39.431,100.724,37.547,100.724z"/>
<path style="fill:#9DFB45;" d="M168.506,104.137h-43.465c-4.963,0-8.987-4.024-8.987-8.987V51.685c0-4.963,4.024-8.987,8.987-8.987
	h43.465c4.963,0,8.987,4.024,8.987,8.987V95.15C177.493,100.113,173.469,104.137,168.506,104.137z"/>
<path d="M168.504,107.609h-43.464c-6.869,0-12.46-5.589-12.46-12.46V51.685c0-6.869,5.589-12.46,12.46-12.46h43.464
	c6.869,0,12.46,5.589,12.46,12.46v43.464C180.965,102.019,175.375,107.609,168.504,107.609z M125.042,46.169
	c-3.041,0-5.516,2.475-5.516,5.516v43.464c0,3.041,2.475,5.516,5.516,5.516h43.464c3.041,0,5.516-2.475,5.516-5.516V51.685
	c0-3.041-2.475-5.516-5.516-5.516H125.042z"/>
<path d="M157.013,66.591c0-5.654-4.584-10.24-10.24-10.24c-5.656,0-10.24,4.586-10.24,10.24c0,4.451,2.859,8.202,6.827,9.614v14.28
	h6.827v-14.28C154.155,74.793,157.013,71.042,157.013,66.591z"/>
<path d="M163.84,46.169h-34.133c-1.917,0-3.471-1.555-3.471-3.471v-8.282c0-10.523,8.561-19.084,19.084-19.084h2.91
	c10.523,0,19.084,8.561,19.084,19.084v8.282C167.311,44.614,165.757,46.169,163.84,46.169z M133.178,39.226h27.191v-4.809
	c0-6.694-5.446-12.14-12.14-12.14h-2.91c-6.694,0-12.14,5.446-12.14,12.14v4.809H133.178z"/>
<g>
</g>
<g>
</g>
<g>
</g>
<g>
</g>
<g>
</g>
<g>
</g>
<g>
</g>
<g>
</g>
<g>
</g>
<g>
</g>
<g>
</g>
<g>
</g>
<g>
</g>
<g>
</g>
<g>
</g>
</svg>
