<?xml version="1.0" encoding="iso-8859-1"?>
<!-- Generator: Adobe Illustrator 19.0.0, SVG Export Plug-In . SVG Version: 6.00 Build 0)  -->
<svg version="1.1" id="Capa_1" xmlns="http://www.w3.org/2000/svg" xmlns:xlink="http://www.w3.org/1999/xlink" x="0px" y="0px"
	 viewBox="0 0 167.253 167.253" style="enable-background:new 0 0 167.253 167.253;" xml:space="preserve">
<rect x="10.24" y="44.373" style="fill:#997843;" width="146.773" height="112.64"/>
<path d="M157.013,160.427H10.24c-1.884,0-3.413-1.529-3.413-3.413V44.373c0-1.884,1.529-3.413,3.413-3.413h146.773
	c1.884,0,3.413,1.529,3.413,3.413v112.64C160.427,158.898,158.898,160.427,157.013,160.427z M13.653,153.6H153.6V47.787H13.653
	V153.6z"/>
<rect x="27.307" y="105.813" style="fill:#FEDA38;" width="61.44" height="37.547"/>
<path d="M88.747,146.773h-61.44c-1.884,0-3.413-1.529-3.413-3.413v-37.547c0-1.884,1.529-3.413,3.413-3.413h61.44
	c1.884,0,3.413,1.529,3.413,3.413v37.547C92.16,145.244,90.631,146.773,88.747,146.773z M30.72,139.947h54.613v-30.72H30.72V139.947
	z"/>
<path style="fill:#8C6B3B;" d="M152.16,10.24H15.094c-6.451,0-11.68,5.229-11.68,11.68v22.453H163.84V21.92
	C163.84,15.469,158.611,10.24,152.16,10.24z"/>
<path d="M163.84,47.787H3.413C1.529,47.787,0,46.257,0,44.373V21.92C0,13.597,6.77,6.827,15.094,6.827H152.16
	c8.322,0,15.094,6.77,15.094,15.094v22.453C167.253,46.257,165.724,47.787,163.84,47.787z M6.827,40.96h153.6V21.92
	c0-4.559-3.709-8.267-8.267-8.267H15.094c-4.559,0-8.267,3.709-8.267,8.267L6.827,40.96L6.827,40.96z"/>
<polygon style="fill:#ED5481;" points="136.533,85.333 119.467,75.093 102.4,85.333 102.4,44.373 136.533,44.373 "/>
<path d="M136.533,88.747c-0.608,0-1.215-0.162-1.756-0.486l-15.31-9.187l-15.31,9.187c-1.055,0.635-2.369,0.65-3.437,0.043
	c-1.07-0.604-1.732-1.741-1.732-2.97v-40.96c0-1.884,1.529-3.413,3.413-3.413h34.133c1.884,0,3.413,1.529,3.413,3.413v40.96
	c0,1.23-0.662,2.365-1.732,2.97C137.694,88.6,137.112,88.747,136.533,88.747z M119.467,71.68c0.608,0,1.215,0.162,1.756,0.486
	l11.897,7.139V47.787h-27.307v31.519l11.897-7.139C118.252,71.842,118.859,71.68,119.467,71.68z"/>
<path d="M75.093,122.88H37.547c-1.884,0-3.413-1.529-3.413-3.413c0-1.884,1.529-3.413,3.413-3.413h37.547
	c1.884,0,3.413,1.529,3.413,3.413C78.507,121.351,76.978,122.88,75.093,122.88z"/>
<path d="M54.613,133.12H37.547c-1.884,0-3.413-1.529-3.413-3.413c0-1.884,1.529-3.413,3.413-3.413h17.067
	c1.884,0,3.413,1.529,3.413,3.413C58.027,131.591,56.498,133.12,54.613,133.12z"/>
<g>
</g>
<g>
</g>
<g>
</g>
<g>
</g>
<g>
</g>
<g>
</g>
<g>
</g>
<g>
</g>
<g>
</g>
<g>
</g>
<g>
</g>
<g>
</g>
<g>
</g>
<g>
</g>
<g>
</g>
</svg>
