<svg xmlns="http://www.w3.org/2000/svg" viewBox="0 0 410.2 368.9"><defs><style>.cls-1{fill:#edf2f0;}.cls-2{fill:#c6ff00;}.cls-3{fill:#e3e5e4;}.cls-4{fill:#c4c4c4;}.cls-14,.cls-5{opacity:0.2;}.cls-6{fill:#d8d8d8;}.cls-12,.cls-7{fill:#263238;}.cls-8,.cls-9{fill:#46a0ae;}.cls-11,.cls-12,.cls-13,.cls-9{stroke:#263238;stroke-linecap:round;stroke-linejoin:round;}.cls-10{opacity:0.1;}.cls-11{fill:none;}.cls-13,.cls-14{fill:#fff;}</style></defs><title>درباره ماـ فروشگاه</title><g id="Background_Simple" data-name="Background Simple"><g id="background-simple--inject-1"><path class="cls-1" d="M74.4,206.6c-12.2,33.6-12.9,69,9.2,99.3,32,43.9,86.5,42.7,128.8,56.5,22.1,7.2,35.9,26.9,55,38.9,59.2,37.2,141.7-9.3,168.8-66C490.3,222.4,374.6,82.2,261,69.6c-33.5-3.7-68,6.4-96.1,24.6C125.7,119.4,90.3,162.6,74.4,206.6Z" transform="translate(-51.4 -68.9)"/></g></g><g id="Shape"><ellipse class="cls-1" cx="188" cy="346.6" rx="184.9" ry="22.3"/><g id="Plants--inject-125"><path class="cls-2" d="M409.9,318.3c1.6-1.3,3.3-3.5,3.2-6s-1.9-4.7-4.1-4.6-5.5,5.5-6,8.6c0,.3-.2,4.5-.2,4.5S408.1,319.9,409.9,318.3Z" transform="translate(-51.4 -68.9)"/><path class="cls-3" d="M412,395c.5.3,4.9,3.2,7.2,3.5s4.6,0,6-1.9a4.8,4.8,0,0,0-.8-6.2c-2.6-2.2-7.7-.3-9.8,1.5-.2.1-1.6,1.7-2.3,2.5l1.3-2.5c.6-1.2,1.4-2.5,2.1-3.8l1.1-1.9,1.3-1.8,2-2.7c1.1,1,4.4,3.8,6.4,4.4s4.7.8,6.3-.7a4.6,4.6,0,0,0,0-6.2c-2.3-2.6-7.7-1.7-10.1-.3,0,.1-.5.4-1,.8l2.1-2.5c2-2.3,4.2-4.6,6.4-6.9l1.3-1.4c.9.8,4.6,3.9,6.6,4.5s4.7.8,6.3-.7a4.6,4.6,0,0,0,0-6.2c-2.3-2.6-7.7-1.7-10.1-.3a9.4,9.4,0,0,1-1.2,1l3.4-3.9a59.7,59.7,0,0,0,5.2-7.2c.4.3,4.5,4,6.8,4.7s4.7.8,6.3-.8a4.6,4.6,0,0,0,0-6.2c-2.3-2.6-7.7-1.6-10-.2l-2.9,2.2h.1a50.7,50.7,0,0,0,3.8-8.2,72.4,72.4,0,0,0,2.5-7.9c.6-2.5,1.1-4.9,1.5-7s.4-2.1.5-3.1h0a37.9,37.9,0,0,0,2.2-3.6c1.3-2.6,2.3-8.8.1-11.5a3.2,3.2,0,0,0-5.4-.2c-1.4,1.8-1.3,4.8-.8,7.2s3.1,6.7,3.8,7.8-.4,2.1-.6,3.3-1,4.4-1.7,6.8l-.6,2.1c.1-1.3.3-3,.3-3.2,0-3.2-1.6-9.4-4.6-10.9s-4.1.4-4.5,2.8.8,5.1,2.2,7.2,5.4,4.6,6.3,5.2-1,3-1.6,4.6a49.8,49.8,0,0,1-4,8h-.1c.2-1.2.7-3.6.7-3.8.3-3.1-.8-9.5-3.6-11.2s-4.2-.2-4.9,2.1.4,5.3,1.6,7.4,5.8,5.9,6,6.1c-1.6,2.3-3.4,4.6-5.2,6.8s-2.9,3.1-4.4,4.6c.2-.8.9-3.9.9-4.1.2-3.1-.8-9.5-3.6-11.3s-4.2-.1-4.9,2.2.4,5.2,1.5,7.2,5.6,5.8,6,6.1l-2,2.1-6.6,6.7-2.1,2.5c.2-1.2.7-3.4.7-3.6.2-3.1-.8-9.5-3.6-11.3s-4.2-.1-4.9,2.2.3,5.2,1.5,7.3,4.8,5,5.8,5.9c-1.2,1.3-2.3,2.7-3.4,4.1s-.9,1.3-1.3,1.9l-1.2,1.9-2.2,3.8-1,1.8c.4-1.1,1.1-3,1.1-3.1.7-3,.5-9.4-2.1-11.6a4.1,4.1,0,0,0-1.1-.7,3.2,3.2,0,0,0-4.1,1.9l-.3.8a15.2,15.2,0,0,0-3.9,6.4c0,.2-.4,2.5-.5,3.7a30.3,30.3,0,0,1-.2-3.1c-.1-1.5-.2-3.1-.2-4.7v-4.8l.3-3.7c1.4.2,5.2.5,7.1-.2s4.1-2.4,4.6-4.7-.8-5-3-5.6-6.7,3.5-7.9,6.3c0,.1-.2.7-.4,1.4.1-1.2.2-2.4.4-3.6.5-3.4,1.1-6.8,1.7-10.3l.3-2.1c1.1.1,5.4.5,7.3-.2s4.1-2.3,4.6-4.7-.8-5-3-5.6-6.8,3.5-7.9,6.3a7.5,7.5,0,0,0-.5,1.6c.3-1.9.5-3.7.8-5.6a80.6,80.6,0,0,0,.6-9.8c.4,0,5.4.7,7.5-.2s4.1-2.3,4.5-4.7-.7-4.9-2.9-5.5-6.8,3.5-7.9,6.2c-.1.2-.9,2.9-1.2,3.8h0a54.1,54.1,0,0,0-.9-9.8c-.5-2.9-1.1-5.7-1.9-8.6s-1.4-5-2.1-7.1-.8-2.2-1.1-3.2h0v-4.5c-.2-3.2-2.4-9.3-5.4-10.4s-4.1.9-4.3,3.4,1.3,5.1,2.8,6.9,5.7,4,6.7,4.5.7,2.1,1.1,3.3,1.4,4.5,2,7.1c.2.8.3,1.5.5,2.2-.5-1.1-1.2-2.8-1.3-2.9-1.5-2.9-5.8-7.4-8.8-6.8s-3,3-2.2,5.4,3.1,4.1,5.2,5,6.4.7,7.4.6c.3,1.7.7,3.4.9,5.1a63.5,63.5,0,0,1,.8,9.7H404c-.4-1.2-1.2-3.6-1.2-3.8-1.3-2.9-5.2-7.9-8.2-7.7s-3.3,2.6-2.8,5,2.8,4.5,4.7,5.6,7.4,1.6,7.6,1.6a74.3,74.3,0,0,1-.7,9.4l-1.2,6.9c-.2-.8-1.2-4-1.3-4.2-1.3-3-5.2-8-8.2-7.8s-3.3,2.6-2.8,5.1,2.8,4.4,4.7,5.5,7.2,1.6,7.6,1.6l-.6,3.1c-.6,3.4-1.3,6.9-1.9,10.3-.2,1.1-.3,2.3-.5,3.5-.3-1.2-1.1-3.5-1.1-3.6-1.3-3-5.2-8-8.2-7.8s-3.4,2.6-2.8,5,2.8,4.5,4.7,5.6,6.1,1.5,7.3,1.5l-.6,5.9c0,.9-.1,1.7-.1,2.5v2.5c0,1.6.1,3.2.1,4.8s.1,1.5.1,2.3c-.2-1.3-.6-3.4-.6-3.5-.9-3.1-4.2-8.7-7.2-9s-3.7,1.9-3.5,4.4,2.2,4.8,4,6.2,6.8,2.7,7.4,2.9c0,1.9.2,3.7.3,5.4.3,4.9.7,9.1,1.1,12.2h2.1c-.5-3.1-1-7.3-1.4-12.2-.1-1.5-.3-3.2-.4-4.9.6,0,5-.2,7.1-1.3a42.3,42.3,0,0,0,3.4,4c-.9,1.5-1.6,3-2.4,4.4-1.9,3.9-3.5,7.3-4.7,10h2.4c1-2.5,2.3-5.5,4-8.8Z" transform="translate(-51.4 -68.9)"/><path class="cls-4" d="M460.9,342.1a4.8,4.8,0,0,0-1.3-6.2c-2.8-1.8-7.6.8-9.5,2.9l-2.4,3.4c.1,0,5.2,2.6,7.6,2.6S459.8,344.1,460.9,342.1Z" transform="translate(-51.4 -68.9)"/><path class="cls-5" d="M409.9,318.3c1.6-1.3,3.3-3.5,3.2-6s-1.9-4.7-4.1-4.6-5.5,5.5-6,8.6c0,.3-.2,4.5-.2,4.5S408.1,319.9,409.9,318.3Z" transform="translate(-51.4 -68.9)"/></g><g id="Plants--inject-125-2" data-name="Plants--inject-125"><path class="cls-2" d="M102.9,323.4a7.9,7.9,0,0,1-3.1-6c.1-2.5,1.8-4.8,4-4.7s5.6,5.6,6,8.7a36.2,36.2,0,0,1,.2,4.5S104.8,325,102.9,323.4Z" transform="translate(-51.4 -68.9)"/><path class="cls-3" d="M100.9,400c-.6.4-4.9,3.2-7.2,3.5s-4.7,0-6-1.8a4.8,4.8,0,0,1,.8-6.3c2.6-2.1,7.7-.2,9.8,1.6l2.3,2.5L99.3,397l-2.1-3.8L96,391.3l-1.2-1.8-2-2.7c-1.1,1-4.4,3.8-6.4,4.4s-4.7.8-6.3-.8a4.6,4.6,0,0,1,0-6.2c2.3-2.6,7.7-1.6,10-.2l1.1.8-2.1-2.5c-2-2.3-4.2-4.6-6.4-6.9l-1.3-1.5c-1,.9-4.6,4-6.6,4.6s-4.7.8-6.3-.8a4.6,4.6,0,0,1,0-6.2c2.3-2.6,7.7-1.6,10-.2l1.3.9c-1.2-1.2-2.3-2.5-3.4-3.8a64.8,64.8,0,0,1-5.3-7.3c-.3.3-4.5,4-6.7,4.7s-4.7.8-6.3-.7a4.6,4.6,0,0,1,0-6.2c2.3-2.6,7.7-1.7,10-.3l2.9,2.2h-.1a68.1,68.1,0,0,1-3.9-8.2c-.9-2.6-1.7-5.3-2.4-8s-1.1-4.8-1.5-6.9-.4-2.2-.5-3.2h0a35.4,35.4,0,0,1-2.3-3.5c-1.2-2.7-2.2-8.8,0-11.6a2.7,2.7,0,0,1,.7-.8,3.4,3.4,0,0,1,4.7.7c1.3,1.7,1.3,4.8.8,7.2s-3.1,6.7-3.8,7.8.4,2,.6,3.2.9,4.4,1.6,6.9c.2.7.5,1.3.7,2-.2-1.2-.3-3-.3-3.1,0-3.2,1.6-9.5,4.5-10.9s4.1.4,4.6,2.7-.8,5.2-2.2,7.2-5.4,4.7-6.3,5.3a26.9,26.9,0,0,0,1.6,4.5,46,46,0,0,0,4,8h.1c-.2-1.1-.7-3.5-.7-3.7-.3-3.1.7-9.5,3.6-11.3s4.2-.1,4.8,2.2-.3,5.2-1.5,7.3-5.8,6-6,6.1a58.2,58.2,0,0,0,5.2,6.8l4.3,4.7c-.2-.8-.8-3.9-.8-4.2-.3-3.1.8-9.5,3.6-11.2s4.2-.1,4.9,2.1-.4,5.2-1.6,7.3-5.6,5.8-5.9,6.1l2,2,6.6,6.8,2.1,2.4c-.2-1.2-.7-3.3-.7-3.5-.3-3.1.8-9.5,3.6-11.3s4.2-.1,4.9,2.1-.4,5.2-1.6,7.3-4.7,5.1-5.7,5.9q1.8,2.1,3.3,4.2a12.7,12.7,0,0,1,1.3,1.9l1.2,1.9c.8,1.3,1.6,2.5,2.2,3.7l1.1,1.9a24.3,24.3,0,0,1-1.1-3.2c-.7-2.9-.5-9.4,2.1-11.6a2.1,2.1,0,0,1,1-.6,3.3,3.3,0,0,1,4.2,1.9,1.9,1.9,0,0,1,.2.8,13.3,13.3,0,0,1,3.9,6.4,28.1,28.1,0,0,1,.6,3.7c.1-1,.1-2,.2-3.1s.1-3.1.2-4.7v-2.4c0-.9-.1-1.7-.1-2.5a21.9,21.9,0,0,0-.3-3.6c-1.3.1-5.2.5-7.1-.2s-4.1-2.4-4.5-4.7.7-5,2.9-5.6,6.8,3.5,8,6.2c0,.1.2.7.4,1.5-.1-1.2-.3-2.4-.4-3.6-.5-3.4-1.1-6.8-1.7-10.3a15.5,15.5,0,0,0-.4-2.1c-1.1.1-5.3.5-7.2-.2s-4.1-2.4-4.6-4.7.8-5,3-5.6,6.7,3.5,7.9,6.2c0,.1.3.9.5,1.7-.3-1.9-.6-3.8-.8-5.6a81.8,81.8,0,0,1-.6-9.8c-.4,0-5.4.6-7.5-.2s-4.1-2.4-4.6-4.7.8-5,3-5.6,6.8,3.5,7.9,6.3a32.9,32.9,0,0,1,1.1,3.8h0a63.8,63.8,0,0,1,1-9.8,82,82,0,0,1,1.8-8.6c.7-2.7,1.5-5.1,2.2-7.2l1.1-3.1H114v-4.6c.3-3.1,2.5-9.3,5.5-10.3s4,.9,4.3,3.3-1.3,5.1-2.9,7-5.6,3.9-6.6,4.5-.7,2-1.1,3.2-1.4,4.6-2,7.2a17.4,17.4,0,0,0-.5,2.2c.5-1.2,1.2-2.8,1.2-3,1.5-2.8,5.9-7.3,8.8-6.7s3.1,3,2.3,5.4-3.1,4.1-5.2,5-6.5.7-7.4.6a38.6,38.6,0,0,0-.9,5.1,62.4,62.4,0,0,0-.8,9.7h.2c.3-1.2,1.1-3.6,1.2-3.8,1.3-3,5.2-8,8.2-7.7s3.3,2.5,2.7,5-2.8,4.4-4.7,5.5-7.4,1.6-7.6,1.6c.1,3.2.4,6.3.8,9.4s.7,4.6,1.1,7c.3-.9,1.3-4.1,1.4-4.3,1.3-2.9,5.2-7.9,8.2-7.7s3.3,2.5,2.7,5-2.8,4.5-4.7,5.6-7.1,1.5-7.5,1.5.3,2.1.5,3.2c.7,3.4,1.4,6.8,1.9,10.2.2,1.2.4,2.4.5,3.6.4-1.3,1.1-3.5,1.2-3.7,1.3-2.9,5.2-8,8.2-7.7s3.3,2.5,2.7,5-2.8,4.5-4.7,5.6-6.1,1.4-7.3,1.5a59,59,0,0,1,.6,5.9,20.9,20.9,0,0,1,.1,2.5v2.4c0,1.7,0,3.3-.1,4.8s-.1,1.6-.1,2.3c.3-1.3.6-3.3.7-3.5.9-3.1,4.1-8.6,7.2-8.9s3.7,1.8,3.4,4.4-2.2,4.8-4,6.2-6.7,2.7-7.3,2.8l-.3,5.5c-.3,4.8-.8,9-1.1,12.1h-2.1c.5-3,.9-7.2,1.4-12.1.1-1.6.2-3.2.4-4.9-.6,0-5.1-.3-7.1-1.4a43.5,43.5,0,0,1-3.4,4.1l2.3,4.4c2,3.9,3.6,7.3,4.7,9.9h-2.3c-1.1-2.4-2.4-5.4-4-8.7C102.1,402.6,101.4,401.2,100.9,400Z" transform="translate(-51.4 -68.9)"/><path class="cls-6" d="M51.9,347.2a4.9,4.9,0,0,1,1.4-6.2c2.8-1.8,7.6.8,9.5,2.8l2.3,3.4s-5.1,2.7-7.5,2.7S53,349.2,51.9,347.2Z" transform="translate(-51.4 -68.9)"/><path class="cls-5" d="M102.9,323.4a7.9,7.9,0,0,1-3.1-6c.1-2.5,1.8-4.8,4-4.7s5.6,5.6,6,8.7a36.2,36.2,0,0,1,.2,4.5S104.8,325,102.9,323.4Z" transform="translate(-51.4 -68.9)"/></g></g><g id="Bag_2" data-name="Bag 2"><path class="cls-7" d="M199.3,140.2a28.5,28.5,0,1,0-35.5,27.6l6.8,11.9,6.5-11.6A28.4,28.4,0,0,0,199.3,140.2Z" transform="translate(-51.4 -68.9)"/><path class="cls-8" d="M173.5,155.1v4.7h-4.2v-4.5a20.4,20.4,0,0,1-10.4-3.4l2.3-5.1a17,17,0,0,0,8.1,3v-7.1c-4.6-1.1-9.9-2.7-9.9-8.7,0-4.4,3.3-8.2,9.9-9v-4.7h4.2v4.6a20,20,0,0,1,8.6,2.6l-2.1,5.2a16.7,16.7,0,0,0-6.5-2.2v7.1c4.7,1.1,9.8,2.7,9.8,8.6C183.4,150.5,180.1,154.3,173.5,155.1Zm-4.2-18.6v-5.9c-2.2.5-3.1,1.7-3.1,3.1s1.3,2.2,3.1,2.8Zm7.3,10.1c0-1.4-1.3-2.2-3.1-2.8v5.8c2.1-.5,3.1-1.6,3.1-3Z" transform="translate(-51.4 -68.9)"/><g id="character-2--inject-1"><polygon class="cls-9" points="59.4 143.8 74.8 358.2 235.3 339.5 190.2 135 59.4 143.8"/><polygon class="cls-9" points="59.4 143.8 36.3 347.2 74.8 358.2 59.4 143.8"/></g><polygon class="cls-10" points="74.8 358.2 59.4 143.8 36.3 347.2 74.8 358.2"/><path class="cls-11" d="M155.9,224s9.1,38.8,34.5,42.5,32.9-51.4,32.9-51.4" transform="translate(-51.4 -68.9)"/><circle class="cls-7" cx="104.6" cy="154.1" r="4.8"/></g><g id="Phone"><g id="Device--inject-1"><rect class="cls-12" x="197.7" y="59.2" width="161.5" height="291.11" rx="9.8"/><rect class="cls-13" x="190.2" y="59.2" width="161.5" height="291.11" rx="9.8"/><path class="cls-7" d="M333.5,145.5H313.4a2.1,2.1,0,0,1-2.1-2.1h0a2.1,2.1,0,0,1,2.1-2.1h20.1a2.2,2.2,0,0,1,2.1,2.1h0a2.2,2.2,0,0,1-2.1,2.1Z" transform="translate(-51.4 -68.9)"/><path class="cls-7" d="M392.9,145.8V393.2H251.8V145.7h33.4l3.8,3.1a7.1,7.1,0,0,0,4.6,1.7h59.1a7.2,7.2,0,0,0,4.8-1.8l3.4-2.9Z" transform="translate(-51.4 -68.9)"/><path class="cls-11" d="M392.9,393.2H251.8V145.7h33.4l3.8,3.1a7.1,7.1,0,0,0,4.6,1.7h59.1a7.2,7.2,0,0,0,4.8-1.8l3.4-2.9h32Z" transform="translate(-51.4 -68.9)"/><path class="cls-7" d="M326.8,400.8a3.2,3.2,0,1,0-3.2,3.2h0a3.2,3.2,0,0,0,3.2-3.2Z" transform="translate(-51.4 -68.9)"/></g><polygon class="cls-14" points="341.5 195.6 341.5 227.3 244.5 324.3 212.8 324.3 341.5 195.6"/><polygon class="cls-14" points="341.5 93 341.5 145.1 200.4 286.2 200.4 234.2 341.5 93"/></g><g id="Bag_1" data-name="Bag 1"><g id="character-2--inject-1-2" data-name="character-2--inject-1"><polygon class="cls-9" points="121.6 245.2 129.9 361.3 216.9 351.2 192.4 240.4 121.6 245.2"/><polygon class="cls-9" points="121.6 245.2 109.1 355.4 129.9 361.3 121.6 245.2"/></g><polygon class="cls-10" points="129.9 361.3 121.4 246.6 109.1 355.4 129.9 361.3"/><path class="cls-11" d="M198.6,319.6s6.7,20.2,20.4,21.1,11.8-23.4,11.8-23.4" transform="translate(-51.4 -68.9)"/><path class="cls-7" d="M200.4,319.6a1.8,1.8,0,0,1-1.8,1.8,1.8,1.8,0,0,1,0-3.6A1.8,1.8,0,0,1,200.4,319.6Z" transform="translate(-51.4 -68.9)"/><path class="cls-7" d="M232.3,317.3a1.8,1.8,0,1,1-1.8-1.8A1.8,1.8,0,0,1,232.3,317.3Z" transform="translate(-51.4 -68.9)"/></g></svg>