<svg xmlns="http://www.w3.org/2000/svg" xmlns:xlink="http://www.w3.org/1999/xlink" viewBox="0 0 399.2 324.5"><defs><style>.cls-1,.cls-11{fill:#fff;}.cls-1,.cls-14,.cls-2,.cls-6,.cls-8,.cls-9{stroke:#263238;}.cls-1,.cls-10,.cls-14,.cls-2,.cls-22,.cls-6,.cls-7,.cls-8,.cls-9{stroke-linecap:round;stroke-linejoin:round;}.cls-2,.cls-3{fill:#edf2f0;}.cls-4{opacity:0.5;}.cls-5{fill:#fdfffe;}.cls-6{fill:#263238;}.cls-10,.cls-22,.cls-7,.cls-9{fill:none;}.cls-10,.cls-7{stroke:#fff;}.cls-7{stroke-width:2px;}.cls-8{fill:#46a0ae;}.cls-10{stroke-width:0.75px;}.cls-12{clip-path:url(#clip-path);}.cls-13{clip-path:url(#clip-path-2);}.cls-14{fill:#a9aaa9;}.cls-15{clip-path:url(#clip-path-3);}.cls-16{fill:#c6ff00;}.cls-17{clip-path:url(#clip-path-4);}.cls-18{fill:#222220;}.cls-19{clip-path:url(#clip-path-5);}.cls-20{clip-path:url(#clip-path-6);}.cls-21{clip-path:url(#clip-path-7);}.cls-22{stroke:#edf2f0;}</style><clipPath id="clip-path" transform="translate(-51.4 -89.4)"><path class="cls-1" d="M351.3,219.6s-9-1.7-13.4.8-30,21.5-30,21.5l-21.8-16.5v10.7s15.1,18.1,19.5,19.3,35.5-15.9,35.5-15.9-1.2,16.7.8,20.3,11.7,6.7,19.5,10.1,16.1,12.9,20.9,15.1,8.7,1.6,12.1-7.9-.8-15.7-2-18.3a223.6,223.6,0,0,0-15.9-25.4C369.7,224.2,351.3,219.6,351.3,219.6Z"/></clipPath><clipPath id="clip-path-2" transform="translate(-51.4 -89.4)"><path class="cls-1" d="M148.8,211.3s-5-1.7-14.3,7.3-18.6,18-24.5,28.1-8.6,25-9.3,34a15.4,15.4,0,0,0,20,15.6c7.1-2.1,30.4-33.7,34.1-38.6s7.4-11.2,7.4-11.2,19.5,18.3,26.6,21.5,18.2,1,18.2,1l.5-12s-10.4-1.8-11.3-2.3-15.9-17.5-23.7-26.9-13.1-15.2-17-16.6A8.2,8.2,0,0,0,148.8,211.3Z"/></clipPath><clipPath id="clip-path-3" transform="translate(-51.4 -89.4)"><path class="cls-1" d="M151.6,205.9s-3.7,4.4-6.4,7-3.8,2.7-3.8,7.8,2.1,18.4,5.3,19.1,16.2-18.6,16.2-18.6l-4.6-17.6S153.4,203.4,151.6,205.9Z"/></clipPath><clipPath id="clip-path-4" transform="translate(-51.4 -89.4)"><path class="cls-1" d="M182,192.8c.8,2.1.9,4.5.9,7.6s-1,6.5-.5,8.1,3.2,3.7,2.5,5.3-4.8,2.5-4.8,3a54.4,54.4,0,0,1-4.6,9.9c-1.8,2.9-6,1.6-12.2-.9s-7.1-7-7.8-10,.5-13.7.9-21.3c.2-4,1-6.9,5-8.7a16.7,16.7,0,0,1,15.9,1.6A11.7,11.7,0,0,1,182,192.8Z"/></clipPath><clipPath id="clip-path-5" transform="translate(-51.4 -89.4)"><path class="cls-1" d="M110.9,257.9s21.1,38.2,25.9,46,9.7,8.5,12.5,8.5,61.2-8,61.2-8V300s-29-1.4-37.3-3.2-20.7-2.5-20.7-2.5-11.5-33.6-16.1-40.1a19.3,19.3,0,0,0-11.3-7.8"/></clipPath><clipPath id="clip-path-6" transform="translate(-51.4 -89.4)"><path class="cls-2" d="M359.2,243.3l-28.8,33L288.1,289l-13.9-1.2c-2.6-.2-4.6,1.8-6.2,3.4s-5.6,3.1-4.8,4.3,2.2.6,4.8-.2l4.4-1.2-10.9,10.2c-2.2,2.2-1.8,3.4-.4,3.4s9.1-7,9.1-7a54.9,54.9,0,0,0-3.8,5c-1.4,2.2-3.4,4.1-2,4.5s7.2-5.1,7.2-5.1l2.8-1.8s-4.6,5.2-3.6,5.9,5.4-3.9,5.4-3.9,7.3-2.4,9.3-4.8,3.2-4,3.2-4,22.8-4.3,31.2-5.7,18.4-2.6,22-5.8,32.2-30.4,33.6-34"/></clipPath><clipPath id="clip-path-7" transform="translate(-51.4 -89.4)"><path class="cls-1" d="M329.2,185.9a21.7,21.7,0,0,0-1.8,10.3c.6,5.2.8,7.9-.2,9.3s-2.6.8-2.4,3.4,3.4,3.6,3.4,3.6,4.4,8.7,6,10.5,3.9,1,5.7.2l5.4-2.6s4.6,12,6.8,14.9,4.1-1,4.7-4.3,1-10.4,0-12.9-3.8-8.6-3.8-8.6,5.8-.8,9.4-8.7-4-18.1-15.1-20.5S330.4,183.1,329.2,185.9Z"/></clipPath></defs><title>ادم_درباره_ما</title><g id="Background_Simple" data-name="Background Simple"><path class="cls-3" d="M391,151.6S349.7,97.3,270.2,90.1s-101.4,45.2-128.9,72S56.2,208.6,51.8,273.4s30.6,97.6,79.5,96.3,63.8,9.8,105.1,32.1,110.2,13.1,142.7-20.3,57-49.8,63.9-112S391,151.6,391,151.6Z" transform="translate(-51.4 -89.4)"/></g><g id="Layer_6" data-name="Layer 6"><g class="cls-4"><path class="cls-5" d="M180,157.4h20.3v78.1l.3.2a83.5,83.5,0,0,1,13.8-12.8,74.3,74.3,0,0,1,16.6-9.2,4.5,4.5,0,0,1-3.5-3.3,4.7,4.7,0,0,0-.6-.9,7.1,7.1,0,0,1-1.1-7.6c1.9-4.7,4-9.4,6-14.1a7.5,7.5,0,0,1,7.8-4.5,1.6,1.6,0,0,0,1.8-1.1c1.2-3.1,2.5-6.2,3.9-9.2.1-.4.6-.6.9-.9l1.3-1.3c.9-.8.5-1.9.6-3a3.2,3.2,0,0,1,.1-1.4c.8-3.4,1.6-6.7,2.5-10a2.7,2.7,0,0,1,.6-1.2c1.9-2.4,3.8-4.8,5.9-7.1a21.2,21.2,0,0,1,3.9-3.4,5.1,5.1,0,0,0,2.3-4c.1-.4-.2-.8-.3-1.3l-.4-.4c-2-2-2.4-3.7-1.4-5.7a5.2,5.2,0,0,1,5.8-2.7,7.2,7.2,0,0,1,4.9,2.8c-.9,1.1-.6,4.5.5,6.4-1.6.2-1.5,1.6-1.7,2.6s-.7,1.9-2.5,1.3l-.8-.3c.1.4.1.8.3.9,2.4,2.1,3.1,5.1,4.1,7.9.4,1.1.6,2.3,1,3.4a14.9,14.9,0,0,0,1.8,3c1.1,1.5,2.5,2.8,3.5,4.2s2.3,4,3.6,5.8a5.1,5.1,0,0,1,1.7,3.4c0,.7-1,2.5-1.7,2.6s-.9-.2-1.1-.9a9.2,9.2,0,0,0-.8-2.7c-.1-.2-.6-.3-.9-.5a7.5,7.5,0,0,1-1.7-1c-1.3-1.1-2.5-2.4-3.7-3.6l-.3.2c.4,1.4.8,2.9,1.3,4.4a2,2,0,0,1-.5,2.3,1.9,1.9,0,0,0-.3,1.3c.7,5.2,1.5,10.4,2.3,15.6.2,1.2.1,2.1-1.1,2.6s-3,2.5-2.5,5,.5,5.7,1.1,8.5c.2.9,1.5,1.7,2.4,2.3a8.4,8.4,0,0,0,2.7.8c.8.2,1.5.5,1.7,1.5s.6.5.9.6a70.7,70.7,0,0,1,27.6,14.6c14.1,11.8,24.6,26.1,28.6,44.2,7.2,32.4-1.3,60.1-26.1,82.3a73.5,73.5,0,0,1-39.8,18.3c-25.4,3.5-47.6-3.5-66.2-21.2-10.6-10-18.5-21.7-22.5-35.8a70.4,70.4,0,0,1-2.9-19.9V157.4ZM317.4,290a57.9,57.9,0,0,0-57.8-57.9c-32,0-58.1,25.9-58.1,57.5S227.2,348,259.4,348A57.8,57.8,0,0,0,317.4,290Zm-66.6-90.4c.5-.5.8-1,1.3-1.2l12-7.2a3.1,3.1,0,0,0,1.7-3.5c-.8-4.5-2-9-3-13.4a2.2,2.2,0,0,0-1.5-1.7,1.4,1.4,0,0,1-.5-1c-.4-3.7-.7-7.5-1-11.2-.1-1.6-.3-3.2-.4-5.2a17.9,17.9,0,0,0-2.4,2.7c-.7,1.3-.8,2.9-1.4,4.2s-2.2,4.6-3.4,6.9a18.2,18.2,0,0,1-1.5,2.3c-.5.7-.9,1.8-1.5,2.1-2.2.9-2.8,2.8-3.5,4.6l-2.1,4.7-.6,1.5c3.8,2.9,4.7,6.1,2.8,10.4l-4.3,10.2c-1.1,2.5-2,5.2-4.9,6.7l13.8-2.8a16.1,16.1,0,0,1-2.6-7c-.1-1.3.3-2,1.6-2.1Zm14.8-1.5-1.3.7-9.2,5.4c-.4.3-1.2.3-1.3.7s-1,2.4-.3,3.6h13.4C266.5,205,266,201.6,265.6,198.1Z" transform="translate(-51.4 -89.4)"/><path class="cls-5" d="M265.6,198.1c.4,3.5.9,6.9,1.3,10.4H253.5c-.7-1.2-.3-2.4.3-3.6s.9-.4,1.3-.7l9.2-5.4Z" transform="translate(-51.4 -89.4)"/><path class="cls-5" d="M296.4,248.6l-3.2-.3c-.8,0-1.2-.3-1.3-1.1s-.1-2.4-.2-3.6h.4l.9.6c12.7,9.5,20.4,22,22.7,37.7.5,3.2.5,6.4.7,9.6a1.3,1.3,0,0,1-.4.9c-.2.1-.7-.1-.9-.3-2.3-2.7-5.5-3.1-8.7-3.5a11.3,11.3,0,0,1-5.4-1.6c0,1,.6,1.8,2.1,2.5a32.5,32.5,0,0,0,4,1.5c.9.4,1.2.8.8,1.8a8.2,8.2,0,0,1-4.3,4.1c-1.5.8-3.2,1.3-4.7,2.1s-.5.7-.7,1a3.6,3.6,0,0,0,1.1.4l2.8-.7c.7-.2,1,.1.9.7a3.2,3.2,0,0,1-.4,1.6c-1.7,2.4-3.5,4.8-5.1,7.3s-2.6,3.8-1.7,6.4a1.9,1.9,0,0,1-.3,1.6c-.8,1.4-1.7,2.8-2.6,4.2a1.8,1.8,0,0,0-.5.7c-.3,2.6-2.1,4.4-3.4,6.4s-3.2,2.5-5.1,3.1a1.4,1.4,0,0,1-1.8-1.1,50.3,50.3,0,0,0-2.4-7.5,7.6,7.6,0,0,1-.3-5.9c.6-1.8-.3-3.4-.9-5a6.1,6.1,0,0,0-.7-1.4,3.9,3.9,0,0,1-.5-3.6c.3-1-.2-1.2-1-1.6-2.8-1.5-5.6-.2-8.4-.1a2.5,2.5,0,0,1-2.2-.6l-3.8-3.5a3.7,3.7,0,0,1-.5-1.1c-.6-2.6-1.2-5.2-.1-7.9a7.7,7.7,0,0,1,3.1-3.8.5.5,0,0,0,.3-.3c-.1-1.6,1.2-2.4,1.9-3.5s.7-1.3-.2-2-1.4-1.3-1.3-1.9a11.9,11.9,0,0,1,1.5-3.5c.1-.2.6-.2.9-.3l2.2-.3c-.2-.7-.4-1.4-.6-1.9a9.1,9.1,0,0,0-1.1-1.6l4.1-2.1-.2-.5c-1.5-.3-2.7.7-4.2,1.5.3-1.5-.2-3,.9-4.2s0-.9-.2-1a2,2,0,0,1-.6-2.6c.1-.3.4-.7.6-.7s.6.3.9.5.1.2.1.3c0,2.1,1.9,3.4,2.4,5.4a3,3,0,0,0,1.4-.7c1.5-1.9,3.6-2,5.6-2.3h.7c2-.3,1.9-.4,2.5-2.3a3.3,3.3,0,0,1,2.5-2.7v-.4a9.7,9.7,0,0,0-1.9-.8,1.5,1.5,0,0,1-1.4-1.8,16.6,16.6,0,0,0,.4-3.3c-.3.3-.8.6-1,1.1s-1.4,3.2-.6,5.2-1.1,3.9-2.8,4.1l-.6-1.2c-.5-.8-.8-1.6-2-1s-.8-.2-.9-.4a16.5,16.5,0,0,1-.6-3.2,1.3,1.3,0,0,1,.9-1,3.1,3.1,0,0,0,2.1-2.3,33.7,33.7,0,0,0,1-3.4c.6-2.3,3.9-4.8,6.3-4.4h.6c.7,1.6,2.4,1.5,3.6,2.3l1.6,1a3,3,0,0,0,1.3.1l2-1.1,3.8-2.4Zm-14.2,37.8c.4-2,.4-2,2.4-1.6l1.4.2a26.7,26.7,0,0,0,4,.1c1.2-.2,2.2-2,1.9-3.3-2.5.2-2.5.2-4.7-1.3l-2.8-1.6-.3.3c.3.3.5.7.9.9s.9,1.1.3,1.5-1.8.1-2.3-.4a11.4,11.4,0,0,0-1.5-1.6,14,14,0,0,1-1.4,2.2.9.9,0,0,1-1.6.2c-.6-.6-.4-1.1.3-1.5s.8-1.2-.2-1.8l-1.9-.8c-1.2-.5-3.5-.3-4,.4l-3.2,4.7c2.2-1.4,4.6-1.4,7-1.3s1.5.3,1.4,1.5a2.6,2.6,0,0,0,.3,1.4C279.5,285.3,280.9,285.8,282.2,286.4Zm9.9,1.6a2.6,2.6,0,0,0,.4,2.7c.8,1.7,1.6,3.3,2.5,4.9a20.2,20.2,0,0,0,2,2.6C297.4,296.2,293.5,288.7,292.1,288Z" transform="translate(-51.4 -89.4)"/><path class="cls-5" d="M231.5,240.7c-.1.4,0,.6-.1.7-1.6,2.4-2.6,5.4-5.6,6.7a.8.8,0,0,0,0,1.5c.5.2,1.5.2,1.7-.1s3.5-2.6,4.1-5,1.4-1.9,2.2-2.9a1.1,1.1,0,0,1,.8-.1,27.5,27.5,0,0,1,2.7.7c-3.5,1.8-4.7,4.7-4.8,8.3,1.6-1,2.7-2.1,2.2-4.1a1.8,1.8,0,0,1,.8-2.1l2.1-1.6c1.1-.6,2.1.2,2.9.7s.6,1.2.5,1.8a1.7,1.7,0,0,0,.6,2,2.7,2.7,0,0,1,.5,3.4,2.8,2.8,0,0,0,0,2c.3.9.3,1.6-.5,2.1a7.8,7.8,0,0,1-1.8.5,2.1,2.1,0,0,0,.1.6c.7,1.2-.1,2-.9,2.7s-1.1.5-1.5-.2a2.7,2.7,0,0,0-.7-.8,2.4,2.4,0,0,1-.4-3.3l.9-1c.8-1.2,1.3-2.5.5-3.9s-.8-.6-1.3-.8a1.8,1.8,0,0,0-.6.8c-.6,1.3-1.1,2.7-1.7,4s-.5.5-.8.6h-1.5l.9,2.5-2.8.7-.3-.3,1.1-3.1-1.3.8a26.4,26.4,0,0,0-2.9,1.5,6.7,6.7,0,0,0-1.5,1.4,5,5,0,0,0,0,6.1c.9,1.4,1.6,2.9,2.6,4.6,0-2,1.4-2.7,2.6-3.6s.7-1.4.2-1.8l1.7-4c.5-1.2.9-1.3,1.9-.6l1,.7c.8.5,1.3,1.1.7,2.1s-.3.9-.5,1.3l.4.3,2.6-2.2c.2,1.2.3,2.4.6,3.5a28.1,28.1,0,0,1,.8,7.1.8.8,0,0,0,.5.8c1,.3,1,1,.8,1.7s-.7.7-1.2.8a2.1,2.1,0,0,1-2.7-.9l.8-2.3-4.7.4,2.3,2.3c1,1.1.9,1.7-.5,2.1l-4.4,1.3a2.3,2.3,0,0,0-1,.7c-.4.6-.8,1.4-1.4,1.7s-1.8,1.7-2.6,2.7-2,2.6-3.1,3.8a4.3,4.3,0,0,1-.9,1,1.6,1.6,0,0,0-.1,2.2,3.9,3.9,0,0,1,.6,1.9c.1.3-.2.7-.4,1s-.6-.3-.8-.6-.5-1.1-.8-1.6a4.6,4.6,0,0,0-1.1-1.6c-1.1-.9-2.3-.6-3,.8l-2.1-.3a2.4,2.4,0,0,0-2.7,1.7c-.6,1.8-1,3.5-.2,5.4a2.2,2.2,0,0,0,2.2,1.3,1.6,1.6,0,0,0,1.8-.9,8.3,8.3,0,0,1,2.1-1.6l.4.3a11.3,11.3,0,0,1-.8,2.4c-.6,1.2-.4,1.6,1.1,1.6h1.5a28.4,28.4,0,0,0,.6,3.1c.3,1.3.7,1.4,2,1.3a5.6,5.6,0,0,0,4.3-1.6,1.2,1.2,0,0,1,1-.2,43.4,43.4,0,0,1,6.1,1.1c.9.2,1.5,1.2,2.4,1.8a22.4,22.4,0,0,0,2.7,1.3c.6.3,1.3.5,1.6,1,1.5,2,3.9,2.6,5.9,3.7s3.1,1.7,4.6,2.7a2.2,2.2,0,0,1,.6,1.8q-.6,4.5-1.5,9a2.4,2.4,0,0,1-.7,1.3c-2.1,1.4-2.9,3.6-3.2,6s-.2,1.7-1.5,2.5c.7,2.5-.4,4.8-.9,7.2a1.4,1.4,0,0,0,.5,1.7c.5.5.6,1.4.9,2l-.3.3-3.6-1.1a1.2,1.2,0,0,1-.5-.5l-2.7-5.3a15.1,15.1,0,0,1-.9-1.8l-.6-2.2c-.3-.9-.5-1.9-.9-2.8s-1.5-4.4-2.2-6.7a5.2,5.2,0,0,0-2.7-3.3c-1.8-1.2-3.8-2.3-4.9-4.4a2.8,2.8,0,0,0-.9-1,5.7,5.7,0,0,1-.9-6.8,3.2,3.2,0,0,0-.1-3.9c-.2-.2-.7-.6-.8-.5-1.7,1-2.6-.5-3.7-1.3s-2.2-2-3.5-2.6-3.3-1-4.9-1.6l-4.1-2a1.1,1.1,0,0,1-.6-.7l-2.7-5.4c-.9-2-.6-4-.4-6,2-19,11.1-33.5,27.2-43.7A5.2,5.2,0,0,1,231.5,240.7Z" transform="translate(-51.4 -89.4)"/><path class="cls-5" d="M260.4,233l6.6,1.1c.9.2.9.9.3,1.5-2.2,1.9-2.7,4.6-3.2,7.2s-.6,3.2-2.1,4.3a1.4,1.4,0,0,0-.4,1.2c.6,2.3.3,3.2-1.7,4.5a13.1,13.1,0,0,1-2.7,1.2,12.7,12.7,0,0,0-5.5,3.2,18.7,18.7,0,0,0-2.4,3.8c-.5,1-.8,1.1-1.6.4s-1.3-3-1.4-4.6a14.9,14.9,0,0,1,.2-2.1,3.5,3.5,0,0,1,1.1-2.7,1.3,1.3,0,0,0,.6-1.9,3.1,3.1,0,0,1,.2-2.1,1.8,1.8,0,0,1,.4-.9c1.1-2.1.8-3.5-1.2-4.9a2.6,2.6,0,0,1-.8-3.2,7.6,7.6,0,0,1,1.2-1.9,3.8,3.8,0,0,1,1.9-.9c.7-.1,1.3-.2,1.5-1.2a1.7,1.7,0,0,1,1.8-1.5C255.3,233.5,257.4,233.2,260.4,233Z" transform="translate(-51.4 -89.4)"/><path class="cls-5" d="M251.1,234c-.1.1-.2.3-.4.4-3,.7-4.9,2.9-6.5,5.4a1.8,1.8,0,0,1-3.2-.3,2.5,2.5,0,0,1,.2-1.7,8.3,8.3,0,0,1,.9-1.6l-.3-.4,9.2-2.1Z" transform="translate(-51.4 -89.4)"/><path class="cls-5" d="M301.3,316.4a13.7,13.7,0,0,1-.5,2.8c-.5,1.5-1.2,3-1.8,4.6s-.9,1.2-1.7.8a1.5,1.5,0,0,1-.7-2.1l.3-.8c.8-2.2,2.9-3.5,4-5.5Z" transform="translate(-51.4 -89.4)"/><path class="cls-5" d="M219,294.2c1.3-1,6,.3,6.3,2a3.5,3.5,0,0,1-3.2-.8A16.6,16.6,0,0,0,219,294.2Z" transform="translate(-51.4 -89.4)"/><path class="cls-5" d="M235.3,238.3l2.5-.6a22.3,22.3,0,0,1-.4,2.3c-.1.2-.5.4-.7.6Z" transform="translate(-51.4 -89.4)"/><path class="cls-5" d="M229.1,297.3a18.8,18.8,0,0,1-3.1.4c-.3,0-.6-.3-.9-.5a5,5,0,0,1,.7-.8A2.8,2.8,0,0,1,229.1,297.3Z" transform="translate(-51.4 -89.4)"/><path class="cls-5" d="M282.2,286.4c-1.3-.6-2.7-1.1-4-1.8a2.6,2.6,0,0,1-.3-1.4c.1-1.2-.4-1.5-1.4-1.5s-4.8-.1-7,1.3l3.2-4.7c.5-.7,2.8-.9,4-.4l1.9.8c1,.6,1.1,1.2.2,1.8s-.9.9-.3,1.5a.9.9,0,0,0,1.6-.2,14,14,0,0,0,1.4-2.2,11.4,11.4,0,0,1,1.5,1.6c.5.5,1.7.9,2.3.4s.3-1.1-.3-1.5-.6-.6-.9-.9l.3-.3,2.8,1.6c2.2,1.5,2.2,1.5,4.7,1.3.3,1.3-.7,3.1-1.9,3.3a26.7,26.7,0,0,1-4-.1l-1.4-.2C282.6,284.4,282.6,284.4,282.2,286.4Z" transform="translate(-51.4 -89.4)"/><path class="cls-5" d="M292.1,288c1.4.7,5.3,8.2,4.9,10.2a20.2,20.2,0,0,1-2-2.6c-.9-1.6-1.7-3.2-2.5-4.9A2.6,2.6,0,0,1,292.1,288Z" transform="translate(-51.4 -89.4)"/></g></g><g id="Device_1" data-name="Device 1"><path class="cls-1" d="M131.3,166.6l26.8,183.8c.4,2.5-62,24.9-64.4,25.6l-5.4.3c-3.6.1-6.1-1.4-6.5-4.4L56.2,177.1a3.9,3.9,0,0,1,3.3-4.4l67.5-9.4A3.8,3.8,0,0,1,131.3,166.6Z" transform="translate(-51.4 -89.4)"/><path class="cls-6" d="M139,165.6l26.8,183.8a4.9,4.9,0,0,1-3.5,5.5L95.9,375.3a5,5,0,0,1-6.4-4.1L63.8,176.1a3.9,3.9,0,0,1,3.3-4.4l67.5-9.4A3.9,3.9,0,0,1,139,165.6Z" transform="translate(-51.4 -89.4)"/><line class="cls-7" x1="71.5" y1="267" x2="86.3" y2="262.1"/><polygon class="cls-8" points="82.4 81 22 91.3 45.1 268.9 106.8 249.7 82.4 81"/></g><g id="Device_2" data-name="Device 2"><path class="cls-1" d="M374.9,166.6,348.1,350.4c-.3,2.5,62.1,24.9,64.5,25.6l5.4.3c3.6.1,6.1-1.4,6.5-4.4l25.6-194.8a3.9,3.9,0,0,0-3.3-4.4l-67.5-9.4A4,4,0,0,0,374.9,166.6Z" transform="translate(-51.4 -89.4)"/><path class="cls-6" d="M367.3,165.6,340.5,349.4a4.9,4.9,0,0,0,3.4,5.5l66.5,20.4a4.9,4.9,0,0,0,6.3-4.1l25.7-195.1a3.9,3.9,0,0,0-3.3-4.4l-67.4-9.4A3.9,3.9,0,0,0,367.3,165.6Z" transform="translate(-51.4 -89.4)"/><line class="cls-7" x1="314.4" y1="260.7" x2="328.5" y2="265.2"/><polygon class="cls-8" points="321.1 81 381.5 91.3 358.3 268.9 296.7 249.7 321.1 81"/></g><g id="Photo"><path class="cls-9" d="M100.6,254c3.5-4.6,8.1-7.3,13.1-7.3,11,0,19.9,13.1,19.9,29.2,0,13.7-6.5,25.2-15.2,28.3" transform="translate(-51.4 -89.4)"/><path class="cls-9" d="M96.1,262.4a31.7,31.7,0,0,1,2.5-5.6" transform="translate(-51.4 -89.4)"/><path class="cls-9" d="M113.7,305.1c-11,0-19.9-13.1-19.9-29.2a37,37,0,0,1,1.3-10.2" transform="translate(-51.4 -89.4)"/><path class="cls-9" d="M398.8,251c-3.5-4.6-8.1-7.3-13.1-7.3-11,0-19.9,13.1-19.9,29.2,0,13.7,6.4,25.2,15.1,28.3" transform="translate(-51.4 -89.4)"/><path class="cls-9" d="M403.3,259.4a31.7,31.7,0,0,0-2.5-5.6" transform="translate(-51.4 -89.4)"/><path class="cls-9" d="M385.7,302.1c11,0,19.9-13.1,19.9-29.2a41.3,41.3,0,0,0-1.3-10.2" transform="translate(-51.4 -89.4)"/><path class="cls-6" d="M362.8,175.5s8.3-11.9,21.6-8.1,20.1,12.9,19.1,22.4-3.4,20.7,3.2,23.1,16.5-1,22,6.7,7.6,19.5-.2,29.6-25.2,12.6-38.3,4.8-22.3-17.9-22.5-32.4,4-21.2,3-29.4-3.2-8.9-3.2-8.9Z" transform="translate(-51.4 -89.4)"/><path class="cls-10" d="M382.3,188c3.3,7.2-2.5,22.6-3,28.8-1.3,16.8,5.4,31.3,23.9,34.3s25.9-12.1,23.9-19.5c-1.4-5.2-9.4-3.7-10.1,3.4s6,3.3,6.4,2" transform="translate(-51.4 -89.4)"/><path class="cls-10" d="M365.2,184.5s7.5-3.7,14.3.5" transform="translate(-51.4 -89.4)"/><path class="cls-10" d="M410,240.7a15.3,15.3,0,0,0,3.3-1.4" transform="translate(-51.4 -89.4)"/><path class="cls-10" d="M362.9,183.2s10.7-8.4,22.8-5.4,12.8,19.5,8.4,29.6-6.4,22.5,1,30.3a13.1,13.1,0,0,0,10.8,3.8" transform="translate(-51.4 -89.4)"/><path class="cls-11" d="M351.3,219.6s-9-1.7-13.4.8-30,21.5-30,21.5l-21.8-16.5v10.7s15.1,18.1,19.5,19.3,35.5-15.9,35.5-15.9-1.2,16.7.8,20.3,11.7,6.7,19.5,10.1,16.1,12.9,20.9,15.1,8.7,1.6,12.1-7.9-.8-15.7-2-18.3a223.6,223.6,0,0,0-15.9-25.4C369.7,224.2,351.3,219.6,351.3,219.6Z" transform="translate(-51.4 -89.4)"/><g class="cls-12"><path class="cls-3" d="M382.2,275.6c-2.9-3.5,1.6-8,5.1-10.8s-15.7-.7-16.7-2.3,4.2-4.5,7.1-7-8.5,2.8-15.1-1-10.5-2.5-10.5-2.5,7-9.6,8.6-15.4-.9-6.7-.9-6.7l-1.9-8.2c-3.8-1.4-6.6-2.1-6.6-2.1s-9-1.7-13.4.8-30,21.5-30,21.5l-21.8-16.5v10.7s15.1,18.1,19.5,19.3,35.5-15.9,35.5-15.9-1.2,16.7.8,20.3,11.7,6.7,19.5,10.1,16.1,12.9,20.9,15.1,7.2,1.7,10.2-3.5C389.3,279.6,384,277.9,382.2,275.6Z" transform="translate(-51.4 -89.4)"/></g><path class="cls-9" d="M351.3,219.6s-9-1.7-13.4.8-30,21.5-30,21.5l-21.8-16.5v10.7s15.1,18.1,19.5,19.3,35.5-15.9,35.5-15.9-1.2,16.7.8,20.3,11.7,6.7,19.5,10.1,16.1,12.9,20.9,15.1,8.7,1.6,12.1-7.9-.8-15.7-2-18.3a223.6,223.6,0,0,0-15.9-25.4C369.7,224.2,351.3,219.6,351.3,219.6Z" transform="translate(-51.4 -89.4)"/><path class="cls-9" d="M369.2,258.3s8-.5,13.5-3.5" transform="translate(-51.4 -89.4)"/><path class="cls-9" d="M366.7,260.3s11,1.5,19.5,0" transform="translate(-51.4 -89.4)"/><polyline class="cls-9" points="279.8 142.9 289.7 150.1 272.3 145.4"/><path class="cls-6" d="M347.8,221.5s-1.7,8.2,1,13.7,6.8,6.8,9.9,2.7,3.7-14-1.7-16.7S348.8,220.2,347.8,221.5Z" transform="translate(-51.4 -89.4)"/><path class="cls-11" d="M148.8,211.3s-5-1.7-14.3,7.3-18.6,18-24.5,28.1-8.6,25-9.3,34a15.4,15.4,0,0,0,20,15.6c7.1-2.1,30.4-33.7,34.1-38.6s7.4-11.2,7.4-11.2,19.5,18.3,26.6,21.5,18.2,1,18.2,1l.5-12s-10.4-1.8-11.3-2.3-15.9-17.5-23.7-26.9-13.1-15.2-17-16.6A8.2,8.2,0,0,0,148.8,211.3Z" transform="translate(-51.4 -89.4)"/><g class="cls-13"><path class="cls-3" d="M172.5,227.8c-5.7-6.8-10-11.7-13.4-14.5h-.8c-10.8,2.1-17,21.4-17,21.4s-.6,9.7-1.5,13.8-9.4-8.5-9.4-5.2,6.2,9.1,7.1,10.2-2.7-.8-4.4-1.4-6.8,14.6-8.5,17.6-21.8,10.2-20.3,12.3,12.9-2.6,12.9-2.6-2.9,3.8-9.7,7.3a10.8,10.8,0,0,0-4,3.6,15.2,15.2,0,0,0,17.2,5.9c7.1-2.1,30.4-33.7,34.1-38.6s7.4-11.2,7.4-11.2,19.5,18.3,26.6,21.5,18.2,1,18.2,1l.5-12s-10.4-1.8-11.3-2.3S180.3,237.2,172.5,227.8Z" transform="translate(-51.4 -89.4)"/></g><path class="cls-9" d="M148.8,211.3s-5-1.7-14.3,7.3-18.6,18-24.5,28.1-8.6,25-9.3,34a15.4,15.4,0,0,0,20,15.6c7.1-2.1,30.4-33.7,34.1-38.6s7.4-11.2,7.4-11.2,19.5,18.3,26.6,21.5,18.2,1,18.2,1l.5-12s-10.4-1.8-11.3-2.3-15.9-17.5-23.7-26.9-13.1-15.2-17-16.6A8.2,8.2,0,0,0,148.8,211.3Z" transform="translate(-51.4 -89.4)"/><path class="cls-9" d="M109.2,268.3a10.3,10.3,0,0,0,10-1" transform="translate(-51.4 -89.4)"/><path class="cls-9" d="M104.2,275.8s13,.5,19-7.5" transform="translate(-51.4 -89.4)"/><polyline class="cls-9" points="123.3 150.4 110.8 157.1 126.8 155.4"/><path class="cls-6" d="M146.8,209.7s-9.2,4.7-9.5,8.5a36.2,36.2,0,0,0,1.4,16.6c2.4,6.8,6.7,11.5,8.8,11.2s7.8-6.1,8.4-19.4S152.6,209.7,146.8,209.7Z" transform="translate(-51.4 -89.4)"/><polyline class="cls-14" points="248.7 109.7 248.7 209.6 151.1 209.6 151.1 109.7"/><rect class="cls-1" x="153.5" y="111.4" width="92.8" height="96.5"/><path class="cls-1" d="M261.9,194.7s-1.8-1.1-2.8.3-2.5,3.7-2,5,2.3-1.1,3.4-2.3A4.4,4.4,0,0,0,261.9,194.7Z" transform="translate(-51.4 -89.4)"/><path class="cls-1" d="M264.7,194.1a1.7,1.7,0,0,0-2.8.6c-1,2.1-.5,7,.4,7.6s1.4.3,2.1-2.3S265.5,196.2,264.7,194.1Z" transform="translate(-51.4 -89.4)"/><path class="cls-1" d="M267.6,193.9a1.8,1.8,0,0,0-2.9.6c-1,2.1-.5,7.1.4,7.6s1.4.3,2.1-2.3S268.3,196.1,267.6,193.9Z" transform="translate(-51.4 -89.4)"/><path class="cls-1" d="M270.4,193.8s-1.8-1.6-2.8.5-.6,7.1.3,7.6,1.4.4,2.2-2.3S271.1,195.9,270.4,193.8Z" transform="translate(-51.4 -89.4)"/><line class="cls-1" x1="224.8" y1="215.9" x2="228.5" y2="213"/><path class="cls-11" d="M151.6,205.9s-3.7,4.4-6.4,7-3.8,2.7-3.8,7.8,2.1,18.4,5.3,19.1,16.2-18.6,16.2-18.6l-4.6-17.6S153.4,203.4,151.6,205.9Z" transform="translate(-51.4 -89.4)"/><g class="cls-15"><path class="cls-16" d="M154.2,220.5c-1.1,7.7-4.5,12.6-9.1,17.8.5.8,1,1.4,1.6,1.5,3.2.7,16.2-18.6,16.2-18.6l-3.1-11.8-2.4-2.1A61.6,61.6,0,0,0,154.2,220.5Z" transform="translate(-51.4 -89.4)"/><path class="cls-3" d="M154.2,220.5c-1.1,7.7-4.5,12.6-9.1,17.8.5.8,1,1.4,1.6,1.5,3.2.7,16.2-18.6,16.2-18.6l-3.1-11.8-2.4-2.1A61.6,61.6,0,0,0,154.2,220.5Z" transform="translate(-51.4 -89.4)"/></g><path class="cls-9" d="M151.6,205.9s-3.7,4.4-6.4,7-3.8,2.7-3.8,7.8,2.1,18.4,5.3,19.1,16.2-18.6,16.2-18.6l-4.6-17.6S153.4,203.4,151.6,205.9Z" transform="translate(-51.4 -89.4)"/><path class="cls-11" d="M182,192.8c.8,2.1.9,4.5.9,7.6s-1,6.5-.5,8.1,3.2,3.7,2.5,5.3-4.8,2.5-4.8,3a54.4,54.4,0,0,1-4.6,9.9c-1.8,2.9-6,1.6-12.2-.9s-7.1-7-7.8-10,.5-13.7.9-21.3c.2-4,1-6.9,5-8.7a16.7,16.7,0,0,1,15.9,1.6A11.7,11.7,0,0,1,182,192.8Z" transform="translate(-51.4 -89.4)"/><g class="cls-17"><path class="cls-3" d="M182.9,200.4c0-3.1-.1-5.5-.9-7.6a11.7,11.7,0,0,0-4.7-5.4,16.7,16.7,0,0,0-12.7-2.6l.8,6.9a25.4,25.4,0,0,1,8.8,3.8c4.1,3,4.4,6.3,3.5,11.5s1.5,7-.9,12.3-2,6.7-7,6.7-10.3-4.7-12.7-7.9l-1.5-2.1a21.3,21.3,0,0,0,1,3.5l1,1.9a11.1,11.1,0,0,0,5.7,4.4c6.2,2.5,10.4,3.8,12.2.9a54.4,54.4,0,0,0,4.6-9.9c0-.5,4.1-1.4,4.8-3s-2-3.7-2.5-5.3S182.9,203.9,182.9,200.4Z" transform="translate(-51.4 -89.4)"/></g><path class="cls-9" d="M182,192.8c.8,2.1.9,4.5.9,7.6s-1,6.5-.5,8.1,3.2,3.7,2.5,5.3-4.8,2.5-4.8,3a54.4,54.4,0,0,1-4.6,9.9c-1.8,2.9-6,1.6-12.2-.9s-7.1-7-7.8-10,.5-13.7.9-21.3c.2-4,1-6.9,5-8.7a16.7,16.7,0,0,1,15.9,1.6A11.7,11.7,0,0,1,182,192.8Z" transform="translate(-51.4 -89.4)"/><path class="cls-18" d="M178.6,207.1c-.1,1.2-.5,2.1-1,2.1s-.8-1-.8-2.2.6-2.2,1-2.2S178.7,205.8,178.6,207.1Z" transform="translate(-51.4 -89.4)"/><path class="cls-9" d="M169.1,214.7s.6,3.2,4.8,3.5" transform="translate(-51.4 -89.4)"/><path class="cls-9" d="M175,202.3a4.4,4.4,0,0,1,5.3-1" transform="translate(-51.4 -89.4)"/><path class="cls-6" d="M155.7,203.4s2.8,1.4,3.3-.7.3-3.4,1.7-3.9,6.5-1.1,5.8-4.3-2.1-3.7.2-4.7,6.3,1.2,12.5,4,12.2,0,14.3-3.7.9-15-7.2-15c-5.4,0-6.7,2-7.9,2.5s-10.7-4.8-20.8-2.7-12.4,16.5-10.9,20.9S149.1,208.7,155.7,203.4Z" transform="translate(-51.4 -89.4)"/><path class="cls-10" d="M188.1,189.8a4.9,4.9,0,0,1-3.5,1.8c-6.4.7-12.8-4.7-18.8-6.7s-15.8.6-18.9,6.7c0,0,5.4-5.1,13.8-1.4" transform="translate(-51.4 -89.4)"/><path class="cls-10" d="M189,182.8a12.8,12.8,0,0,1,.2,4.2" transform="translate(-51.4 -89.4)"/><path class="cls-1" d="M157.1,205.7s-1.6-7.5-3.7-8.5-5.1-.9-5.5,4.6,2.7,8.1,4.2,8.5,4.1-1.1,4.1-1.1" transform="translate(-51.4 -89.4)"/><path class="cls-1" d="M210.5,300l8.9-6.4a7.6,7.6,0,0,1,7.8-.9,78.9,78.9,0,0,0,7.9,2.3c.5,0,.2,1.3-1.4,1.8s-4.1.2-5.8,0a6.3,6.3,0,0,0-3.4.7s8.1,1.4,10.3,2.1,5.1,2,4.2,2.8a8.2,8.2,0,0,1-2.6,2c-.8.2-2-.7-4.3.3a29.9,29.9,0,0,1-9.4,2.5c-2.3,0-12.2-2.8-12.2-2.8Z" transform="translate(-51.4 -89.4)"/><path class="cls-11" d="M110.9,257.9s21.1,38.2,25.9,46,9.7,8.5,12.5,8.5,61.2-8,61.2-8V300s-29-1.4-37.3-3.2-20.7-2.5-20.7-2.5-11.5-33.6-16.1-40.1a19.3,19.3,0,0,0-11.3-7.8" transform="translate(-51.4 -89.4)"/><g class="cls-19"><path class="cls-3" d="M152.5,294.3s-11.5-33.6-16.1-40.1l-.9-1.2c1.1,3.7,3.8,13.7,5.5,19.1s4.7,10.3,2.9,10.9-14-12.9-12.3-7.6,16.7,16.4,16.7,17.6-6.7,1.7-3.5,3.5,9.1,1.2,9.1,1.2-8.2,4.1-5.6,4.9,10.3-4.6,11.8-4.6,32.2,4.7,44.6,7.2l5.8-.8V300s-29-1.4-37.3-3.2S152.5,294.3,152.5,294.3Z" transform="translate(-51.4 -89.4)"/></g><path class="cls-9" d="M110.9,257.9s21.1,38.2,25.9,46,9.7,8.5,12.5,8.5,61.2-8,61.2-8V300s-29-1.4-37.3-3.2-20.7-2.5-20.7-2.5-11.5-33.6-16.1-40.1a19.3,19.3,0,0,0-11.3-7.8" transform="translate(-51.4 -89.4)"/><path class="cls-3" d="M359.2,243.3l-28.8,33L288.1,289l-13.9-1.2c-2.6-.2-4.6,1.8-6.2,3.4s-5.6,3.1-4.8,4.3,2.2.6,4.8-.2l4.4-1.2-10.9,10.2c-2.2,2.2-1.8,3.4-.4,3.4s9.1-7,9.1-7a54.9,54.9,0,0,0-3.8,5c-1.4,2.2-3.4,4.1-2,4.5s7.2-5.1,7.2-5.1l2.8-1.8s-4.6,5.2-3.6,5.9,5.4-3.9,5.4-3.9,7.3-2.4,9.3-4.8,3.2-4,3.2-4,22.8-4.3,31.2-5.7,18.4-2.6,22-5.8,32.2-30.4,33.6-34" transform="translate(-51.4 -89.4)"/><g class="cls-20"><path class="cls-3" d="M341.9,269.2c-1.1-.2,5-10,9.3-16.7l-20.8,23.8L288.1,289l-8.9-.8.3,1.5,3.8,6.7S327.5,282,329.4,282s1.9.7,4.1,1.3.4-2.6.4-2.6a46.5,46.5,0,0,0,8.9-1.9c3.5-1.3-8.3-.9-6.4-1.9s19.5-10.9,23.4-17.6S343.5,269.6,341.9,269.2Z" transform="translate(-51.4 -89.4)"/></g><path class="cls-9" d="M359.2,243.3l-28.8,33L288.1,289l-13.9-1.2c-2.6-.2-4.6,1.8-6.2,3.4s-5.6,3.1-4.8,4.3,2.2.6,4.8-.2l4.4-1.2-10.9,10.2c-2.2,2.2-1.8,3.4-.4,3.4s9.1-7,9.1-7a54.9,54.9,0,0,0-3.8,5c-1.4,2.2-3.4,4.1-2,4.5s7.2-5.1,7.2-5.1l2.8-1.8s-4.6,5.2-3.6,5.9,5.4-3.9,5.4-3.9,7.3-2.4,9.3-4.8,3.2-4,3.2-4,22.8-4.3,31.2-5.7,18.4-2.6,22-5.8,32.2-30.4,33.6-34" transform="translate(-51.4 -89.4)"/><path class="cls-1" d="M268,291.2c-1.6,1.6-5.6,3.1-4.8,4.3s2.2.6,4.8-.2l4.4-1.2-10.9,10.2c-2.2,2.2-1.8,3.4-.4,3.4s9.1-7,9.1-7a54.9,54.9,0,0,0-3.8,5c-1.4,2.2-3.4,4.1-2,4.5s7.2-5.1,7.2-5.1l2.8-1.8s-4.6,5.2-3.6,5.9,5.4-3.9,5.4-3.9,7.3-2.4,9.3-4.8,3.2-4,3.2-4l-.6-7.5-13.9-1.2C271.6,287.6,269.6,289.6,268,291.2Z" transform="translate(-51.4 -89.4)"/><path class="cls-11" d="M329.2,185.9a21.7,21.7,0,0,0-1.8,10.3c.6,5.2.8,7.9-.2,9.3s-2.6.8-2.4,3.4,3.4,3.6,3.4,3.6,4.4,8.7,6,10.5,3.9,1,5.7.2l5.4-2.6s4.6,12,6.8,14.9,4.1-1,4.7-4.3,1-10.4,0-12.9-3.8-8.6-3.8-8.6,5.8-.8,9.4-8.7-4-18.1-15.1-20.5S330.4,183.1,329.2,185.9Z" transform="translate(-51.4 -89.4)"/><g class="cls-21"><path class="cls-3" d="M350.2,211s-1.9,5.5-2.9,6.7-9,4.5-12.2,2.6-4.8-7.7-4.4-12.5-1.6-10.2,2.5-12.4,11.9-.7,11.9-.7l8.6-3.5-19.2-5.8s-2.8,1-6.1,2.5a20.3,20.3,0,0,0-1,8.3c.6,5.2.8,7.9-.2,9.3s-2.6.8-2.4,3.4,3.4,3.6,3.4,3.6,4.4,8.7,6,10.5,3.9,1,5.7.2l5.4-2.6s4.6,12,6.8,14.9c1.1,1.3,2.1,1.1,2.8.3C353.5,227.6,350.2,211,350.2,211Z" transform="translate(-51.4 -89.4)"/></g><path class="cls-9" d="M329.2,185.9a21.7,21.7,0,0,0-1.8,10.3c.6,5.2.8,7.9-.2,9.3s-2.6.8-2.4,3.4,3.4,3.6,3.4,3.6,4.4,8.7,6,10.5,3.9,1,5.7.2l5.4-2.6s4.6,12,6.8,14.9,4.1-1,4.7-4.3,1-10.4,0-12.9-3.8-8.6-3.8-8.6,5.8-.8,9.4-8.7-4-18.1-15.1-20.5S330.4,183.1,329.2,185.9Z" transform="translate(-51.4 -89.4)"/><ellipse class="cls-18" cx="280.7" cy="114.2" rx="0.7" ry="1.8"/><path class="cls-9" d="M330.6,199s2.8-2.8,4.4,1.4" transform="translate(-51.4 -89.4)"/><path class="cls-9" d="M333,215.5s5.3-.2,6.1-4.6" transform="translate(-51.4 -89.4)"/><path class="cls-6" d="M354.3,198.9a3.3,3.3,0,0,0-3.7,2.3c-.4,1.3-1.3,2.8-3.1,2.7s-2.8-5.7-4-8.1-5.2-2.4-12.5-3-12.9-.6-12.3-9.9,6.5-15.7,10.5-14.7,2.8,5.2,2.8,5.2,12.9-6.2,23.8-3.2,13.5,13.3,13.1,23-5.3,15.3-8.5,16.7-5.6,3.6-7,3.2-2.1-3.6-.8-4.6,4.8-5.5,3.8-8.1A2.7,2.7,0,0,0,354.3,198.9Z" transform="translate(-51.4 -89.4)"/><path class="cls-10" d="M326.9,183.2s-3.7,7.4,4.7,7.7,18.8-5.4,26.5-3,8.5,9.4,6.4,14.1" transform="translate(-51.4 -89.4)"/><path class="cls-10" d="M341,182.2s21.5-8.4,24.9,4" transform="translate(-51.4 -89.4)"/></g><g id="Layer_7" data-name="Layer 7"><path class="cls-3" d="M239.4,233.4h3.4v13.1h0a15.1,15.1,0,0,1,2.3-2.1,11.2,11.2,0,0,1,2.8-1.6c-.3-.1-.5-.2-.6-.5s0-.1-.1-.2a1.1,1.1,0,0,1-.1-1.2,24.4,24.4,0,0,1,1-2.4,1.3,1.3,0,0,1,1.3-.8c.1.1.2,0,.3-.1l.6-1.6h.2a.2.2,0,0,1,.2-.2,1.1,1.1,0,0,0,.1-.5v-.3l.4-1.6a.3.3,0,0,1,.1-.2l1-1.2.6-.6a.8.8,0,0,0,.4-.7v-.2h-.1c-.3-.4-.4-.7-.2-1s.5-.5,1-.5l.8.5c-.2.2-.1.8.1,1.1s-.3.2-.3.4-.1.3-.4.2h-.1a3.7,3.7,0,0,1,.7,1.4,1.1,1.1,0,0,0,.1.5l.3.5.6.7.6,1a.7.7,0,0,1,.3.6c0,.1-.2.4-.3.4l-.2-.2a.6.6,0,0,0-.1-.4h-.2l-.2-.2c-.3-.1-.5-.4-.7-.6h0c.1.2.1.5.2.7s0,.3-.1.4v.2a20.2,20.2,0,0,0,.4,2.6c0,.2,0,.4-.2.5s-.5.4-.4.8a6.6,6.6,0,0,0,.1,1.4l.4.4h.5c.1.1.2.1.3.3h.1a11.3,11.3,0,0,1,4.6,2.4,13.5,13.5,0,0,1,4.8,7.4,13.3,13.3,0,0,1-4.4,13.7,11.6,11.6,0,0,1-6.6,3.1,13.1,13.1,0,0,1-11.1-3.5,14.4,14.4,0,0,1-3.7-6,12.6,12.6,0,0,1-.5-3.3V233.4Zm23,22.2a9.7,9.7,0,1,0-9.7,9.7A9.7,9.7,0,0,0,262.4,255.6Zm-11.2-15.1.2-.2,2.1-1.2c.2-.2.3-.4.2-.6a18.9,18.9,0,0,0-.5-2.3l-.2-.2v-.2c-.1-.6-.1-1.2-.2-1.9v-.8c-.2.1-.4.2-.4.4l-.3.7a6.1,6.1,0,0,1-.5,1.2l-.3.3c-.1.2-.1.3-.2.4s-.5.5-.6.8l-.4.8a.3.3,0,0,1-.1.2,1.2,1.2,0,0,1,.5,1.7c-.2.6-.5,1.2-.7,1.7a2,2,0,0,1-.8,1.2l2.3-.5a4.3,4.3,0,0,1-.5-1.2.3.3,0,0,1,.3-.3Zm2.5-.3h-.2l-1.6.9c0,.1-.1.1-.2.2a.6.6,0,0,0,0,.6h2.2Z" transform="translate(-51.4 -89.4)"/><path class="cls-3" d="M253.7,240.2l.2,1.8h-2.2a.6.6,0,0,1,0-.6c.1-.1.2-.1.2-.2l1.6-.9Z" transform="translate(-51.4 -89.4)"/><path class="cls-3" d="M258.8,248.7h-.5c-.1,0-.2,0-.2-.2v-.6h.2a9.5,9.5,0,0,1,3.8,6.3,8.6,8.6,0,0,1,.1,1.6v.2H262a2.8,2.8,0,0,0-1.5-.6l-.9-.2c0,.1.1.3.4.4l.6.2c.2.1.2.2.2.3a1.2,1.2,0,0,1-.7.7,2,2,0,0,0-.8.4h.5c.1-.1.2,0,.2.1a.4.4,0,0,0-.1.3l-.9,1.2a1.2,1.2,0,0,0-.3,1c.1.1,0,.2,0,.3a4.3,4.3,0,0,1-.4.7h-.1a2.9,2.9,0,0,1-.6,1.1,1.4,1.4,0,0,1-.8.5c-.2.1-.3,0-.3-.2a5.6,5.6,0,0,1-.4-1.2,1.2,1.2,0,0,1-.1-1,1.1,1.1,0,0,0-.1-.8l-.2-.3a.6.6,0,0,1,0-.6l-.2-.2c-.5-.3-.9-.1-1.4,0s-.3,0-.4-.2l-.6-.5v-.2a1.9,1.9,0,0,1,0-1.3,1.8,1.8,0,0,1,.5-.7h.1c-.1-.3.1-.4.3-.6s.1-.2-.1-.3a.8.8,0,0,1-.2-.4c0-.2.2-.4.3-.6h.5a.8.8,0,0,1-.1-.4l-.2-.2.7-.4h0c-.3,0-.5.2-.8.3s0-.5.2-.7v-.2a.2.2,0,0,1-.1-.4c0-.1,0-.1.1-.1h.1c0,.3.4.6.4.9h.3a1.1,1.1,0,0,1,.9-.4h.1c.4-.1.3-.1.4-.4a.8.8,0,0,1,.5-.5h0l-.3-.2c-.2,0-.3-.1-.3-.2a1.3,1.3,0,0,0,.1-.6l-.2.2a1.1,1.1,0,0,0-.1.8.6.6,0,0,1-.4.7l-.2-.2c0-.1-.1-.2-.3-.1h-.1a1.1,1.1,0,0,1-.1-.5v-.2a.8.8,0,0,0,.4-.4c0-.2.1-.4.1-.6s.7-.8,1.1-.7h.1c.1.3.4.3.6.4l.3.2h.2l.3-.2.6-.4Zm-2.3,6.3c0-.4,0-.4.4-.3h.2a.9.9,0,0,0,.7,0c.2,0,.3-.3.3-.5l-.8-.2-.5-.3h.1c.2.1.2.2.1.3h-.4l-.2-.3-.3.4c0,.1-.1.1-.2,0s-.1-.1,0-.2.1-.2,0-.3l-.3-.2h-.7a3.5,3.5,0,0,0-.5.8,2,2,0,0,1,1.1-.2c.2,0,.3,0,.3.2v.3Zm1.6.2a.4.4,0,0,0,.1.5l.4.8a.8.8,0,0,0,.4.4A4,4,0,0,0,258.1,255.2Z" transform="translate(-51.4 -89.4)"/><path class="cls-3" d="M248,247.3v.2c-.3.4-.4.9-.9,1.1s-.2.2-.1.2h.3c.3-.3.6-.4.7-.8l.4-.5h.6a1.4,1.4,0,0,0-.8,1.4c.2-.2.4-.4.3-.7a.4.4,0,0,1,.2-.4l.3-.2a.4.4,0,0,1,.5.1c.1,0,.1.2.1.3a.4.4,0,0,0,.1.3.5.5,0,0,1,.1.6.2.2,0,0,0,0,.3c0,.2,0,.3-.1.4h-.3c.1.2,0,.3-.1.4H249c0-.1-.1-.1-.1-.2s-.2-.3-.1-.5l.2-.2a.7.7,0,0,0,.1-.6l-.3-.2v.2c-.1.2-.1.4-.2.6h-.4v.5h-.5l.2-.5h-.2l-.5.3-.3.2a1.1,1.1,0,0,0,0,1.1l.5.7c0-.3.2-.4.4-.6a.2.2,0,0,0,0-.3l.3-.7q.2-.3.3,0h.2c.1,0,.2.1.1.3s0,.2-.1.2h.1l.4-.4a1.3,1.3,0,0,1,.1.6,5,5,0,0,1,.2,1.2h.1a.4.4,0,0,1,.1.3h-.2c-.2.1-.4.1-.5-.1l.2-.4h-.8c.1.1.3.2.4.4s.1.2-.1.3l-.7.2h-.2c-.1.1-.1.3-.2.3a.8.8,0,0,0-.5.5l-.5.6v.2c-.1.1-.2.2-.1.3s.1.2.1.4h-.2a.4.4,0,0,0-.1-.3l-.2-.2c-.2-.2-.4-.1-.5.1h-.3c-.3,0-.4,0-.5.3a1.4,1.4,0,0,0,0,.9l.3.2c.2,0,.3,0,.4-.2s.2-.2.3-.2h.1c-.1.1-.1.3-.2.4s0,.3.2.3h.3a.9.9,0,0,0,.1.5c0,.2.1.2.3.2a.9.9,0,0,0,.7-.3h.2l1,.2c.2,0,.3.2.4.3l.5.2.2.2a5.3,5.3,0,0,0,1,.6l.8.4a.4.4,0,0,1,.1.3l-.3,1.5a.4.4,0,0,1-.1.3,1.2,1.2,0,0,0-.5,1c-.1.2-.1.3-.3.4a2.5,2.5,0,0,1-.1,1.2c-.1.1,0,.2.1.3s.1.2.1.3h0l-.6-.2a.1.1,0,0,1-.1-.1l-.5-.9c0-.1-.1-.2-.1-.3s-.1-.2-.1-.4-.1-.3-.2-.4l-.3-1.1a1,1,0,0,0-.5-.6,2.7,2.7,0,0,1-.8-.7.2.2,0,0,0-.2-.2,1.1,1.1,0,0,1-.1-1.1.8.8,0,0,0,0-.7h-.2c-.2.2-.4-.1-.6-.2l-.6-.4-.8-.3-.7-.3h-.1l-.4-.9a2.1,2.1,0,0,1-.1-1.1,9.6,9.6,0,0,1,4.6-7.3Z" transform="translate(-51.4 -89.4)"/><path class="cls-3" d="M252.8,246l1.1.2c.2.1.2.2.1.3a1.7,1.7,0,0,0-.6,1.2c0,.3,0,.5-.3.7v.2c.1.4.1.5-.3.8l-.4.2a1.6,1.6,0,0,0-.9.5l-.4.6c-.1.2-.1.2-.3.1a1.1,1.1,0,0,1-.2-.8v-.3c0-.2,0-.4.2-.5s.2-.1.1-.3,0-.2,0-.3v-.2a.5.5,0,0,0-.2-.8.3.3,0,0,1-.1-.5.5.5,0,0,1,.2-.4h.3c.1,0,.2,0,.2-.2s.1-.3.3-.3Z" transform="translate(-51.4 -89.4)"/><path class="cls-3" d="M251.3,246.2h-.1a1.9,1.9,0,0,0-1.1.9c-.1.2-.4.2-.5-.1v-.2l.2-.3h-.1l1.6-.3Z" transform="translate(-51.4 -89.4)"/><path class="cls-3" d="M259.7,260a.6.6,0,0,0-.1.4l-.3.8-.3.2c-.1-.1-.2-.3-.1-.4h0a7.1,7.1,0,0,1,.7-.9Z" transform="translate(-51.4 -89.4)"/><path class="cls-3" d="M245.9,256.3a.9.9,0,0,1,1.1.3h-.6Z" transform="translate(-51.4 -89.4)"/><path class="cls-3" d="M248.6,246.9h.5a.8.8,0,0,0-.1.4.1.1,0,0,1-.1.1Z" transform="translate(-51.4 -89.4)"/><path class="cls-3" d="M247.6,256.8h-.7v-.2C247.2,256.6,247.5,256.6,247.6,256.8Z" transform="translate(-51.4 -89.4)"/><path class="cls-3" d="M256.5,255l-.7-.3v-.3c0-.2-.1-.2-.3-.2a2,2,0,0,0-1.1.2,3.5,3.5,0,0,1,.5-.8h.7l.3.2c.1.1.2.2,0,.3s-.1.1,0,.2.2.1.2,0l.3-.4.2.3h.4c.1-.1.1-.2-.1-.3h-.1l.5.3.8.2c0,.2-.1.5-.3.5a.9.9,0,0,1-.7,0h-.2C256.5,254.6,256.5,254.6,256.5,255Z" transform="translate(-51.4 -89.4)"/><path class="cls-3" d="M258.1,255.2a4,4,0,0,1,.9,1.7.8.8,0,0,1-.4-.4l-.4-.8A.4.4,0,0,1,258.1,255.2Z" transform="translate(-51.4 -89.4)"/></g><g id="Layer_8" data-name="Layer 8"><circle class="cls-22" cx="200.4" cy="159.6" r="25"/></g></svg>