<svg id="Layer_1" data-name="Layer 1" xmlns="http://www.w3.org/2000/svg" xmlns:xlink="http://www.w3.org/1999/xlink" viewBox="0 0 399.2 324.6"><defs><style>.cls-1,.cls-10,.cls-11,.cls-23,.cls-7{fill:none;}.cls-2{fill:#edf2f0;}.cls-3{opacity:0.5;}.cls-4{fill:#fdfffe;}.cls-12,.cls-5{fill:#fff;}.cls-10,.cls-15,.cls-5,.cls-6,.cls-8,.cls-9{stroke:#263238;}.cls-10,.cls-11,.cls-15,.cls-23,.cls-5,.cls-6,.cls-7,.cls-8,.cls-9{stroke-linecap:round;stroke-linejoin:round;}.cls-6{fill:#263238;}.cls-11,.cls-7{stroke:#fff;}.cls-7{stroke-width:2px;}.cls-8{fill:#067fc8;}.cls-9{fill:#ff9a00;}.cls-11{stroke-width:0.75px;}.cls-13{clip-path:url(#clip-path);}.cls-14{clip-path:url(#clip-path-2);}.cls-15{fill:#a9aaa9;}.cls-16{clip-path:url(#clip-path-3);}.cls-17{fill:#c6ff00;}.cls-18{clip-path:url(#clip-path-4);}.cls-19{fill:#222220;}.cls-20{clip-path:url(#clip-path-5);}.cls-21{clip-path:url(#clip-path-6);}.cls-22{clip-path:url(#clip-path-7);}.cls-23{stroke:#edf2f0;}</style><clipPath id="clip-path" transform="translate(0 0)"><path class="cls-1" d="M299.9,130.2s-9-1.7-13.4.8-30,21.5-30,21.5L234.7,136v10.7s15.1,18.1,19.5,19.3,35.5-15.9,35.5-15.9-1.2,16.7.8,20.3,11.7,6.7,19.5,10.1,16.1,12.9,20.9,15.1,8.7,1.6,12.1-7.9-.8-15.7-2-18.3A215.8,215.8,0,0,0,325.1,144C318.3,134.8,299.9,130.2,299.9,130.2Z"/></clipPath><clipPath id="clip-path-2" transform="translate(0 0)"><path class="cls-1" d="M97.4,121.9s-5-1.7-14.3,7.3-18.6,18-24.5,28.1-8.6,25-9.3,34a15.4,15.4,0,0,0,14.4,16.3h.1a14.6,14.6,0,0,0,5.5-.7c7.1-2.1,30.4-33.7,34.1-38.6s7.4-11.2,7.4-11.2,19.5,18.3,26.6,21.5,18.2,1,18.2,1l.5-12s-10.4-1.8-11.3-2.3-15.9-17.5-23.7-26.9-13.1-15.2-17-16.6A8.2,8.2,0,0,0,97.4,121.9Z"/></clipPath><clipPath id="clip-path-3" transform="translate(0 0)"><path class="cls-1" d="M100.2,116.5s-3.7,4.4-6.4,7-3.8,2.7-3.8,7.8,2.1,18.4,5.3,19.1,16.2-18.6,16.2-18.6l-4.6-17.6S102,114,100.2,116.5Z"/></clipPath><clipPath id="clip-path-4" transform="translate(0 0)"><path class="cls-1" d="M130.6,103.4c.8,2.1.9,4.5.9,7.6s-1,6.5-.5,8.1,3.2,3.7,2.5,5.3-4.8,2.5-4.8,3a49.6,49.6,0,0,1-4.6,9.9c-1.8,2.9-6,1.6-12.2-.9s-7.1-7-7.8-10,.5-13.7.9-21.3c.2-4,1-6.9,5-8.7A16.7,16.7,0,0,1,125.9,98,12.3,12.3,0,0,1,130.6,103.4Z"/></clipPath><clipPath id="clip-path-5" transform="translate(0 0)"><path class="cls-1" d="M59.5,168.5s21.1,38.2,25.9,46,9.7,8.5,12.5,8.5,61.2-8,61.2-8v-4.4s-29-1.4-37.3-3.2-20.7-2.5-20.7-2.5S89.6,171.3,85,164.8A19.2,19.2,0,0,0,73.7,157"/></clipPath><clipPath id="clip-path-6" transform="translate(0 0)"><path class="cls-1" d="M307.8,153.9l-28.8,33-42.3,12.7-13.9-1.2c-2.6-.2-4.6,1.8-6.2,3.4s-5.6,3.1-4.8,4.3,2.2.6,4.8-.2l4.4-1.2-10.9,10.2c-2.2,2.2-1.8,3.4-.4,3.4s9.1-7,9.1-7a59.9,59.9,0,0,0-3.8,5c-1.4,2.2-3.4,4.1-2,4.5s7.2-5.1,7.2-5.1l2.8-1.8s-4.6,5.2-3.6,5.9,5.4-3.9,5.4-3.9,7.3-2.4,9.3-4.8l3.2-4s22.8-4.3,31.2-5.7,18.4-2.6,22-5.8,32.2-30.4,33.6-34"/></clipPath><clipPath id="clip-path-7" transform="translate(0 0)"><path class="cls-1" d="M277.8,96.5a22.7,22.7,0,0,0-1.8,10.3c.6,5.2.8,7.9-.2,9.3s-2.6.8-2.4,3.4,3.4,3.6,3.4,3.6,4.4,8.7,6,10.5,3.9,1,5.7.2l5.4-2.6s4.6,12,6.8,14.9,4.1-1,4.7-4.3,1-10.4,0-12.9-3.8-8.6-3.8-8.6,5.8-.8,9.4-8.7-4-18.1-15.1-20.5S279,93.7,277.8,96.5Z"/></clipPath></defs><title>Purchase and shared post</title><g id="Background_Simple" data-name="Background Simple"><path class="cls-2" d="M339.6,62.2S298.3,7.9,218.8.7,117.4,45.9,89.9,72.7,4.8,119.2.4,184,31,281.6,79.9,280.3s63.8,9.8,105.1,32.1,110.2,13.1,142.7-20.3,57-49.8,63.9-112S339.6,62.2,339.6,62.2Z" transform="translate(0 0)"/></g><g id="Layer_6" data-name="Layer 6"><g class="cls-3"><path class="cls-4" d="M128.6,68h20.3v78.1l.3.2A79.7,79.7,0,0,1,163,133.5a71,71,0,0,1,16.6-9.2,4.4,4.4,0,0,1-3.5-3.3l-.6-.9a7.1,7.1,0,0,1-1.1-7.6c1.9-4.7,4-9.4,6-14.1a7.5,7.5,0,0,1,7.8-4.5,1.6,1.6,0,0,0,1.8-1.1c1.2-3.1,2.5-6.2,3.9-9.2.1-.4.6-.6.9-.9l1.3-1.3c.9-.8.5-1.9.6-3a3.3,3.3,0,0,1,.1-1.4c.8-3.4,1.6-6.7,2.5-10a2.7,2.7,0,0,1,.6-1.2c1.9-2.4,3.8-4.8,5.9-7.1a25,25,0,0,1,3.9-3.4,5.1,5.1,0,0,0,2.3-4c.1-.4-.2-.8-.3-1.3l-.4-.4c-2-2-2.4-3.7-1.4-5.7a5.3,5.3,0,0,1,5.8-2.7,6.9,6.9,0,0,1,4.9,2.8c-.9,1.1-.6,4.5.5,6.4-1.6.2-1.5,1.6-1.7,2.6s-.7,1.9-2.5,1.3l-.8-.3c.1.4.1.8.3.9,2.4,2.1,3.1,5.1,4.1,7.9.4,1.1.6,2.3,1,3.4a14.9,14.9,0,0,0,1.8,3c1.1,1.5,2.5,2.8,3.5,4.2s2.3,4,3.6,5.8a5.1,5.1,0,0,1,1.7,3.4c0,.7-1,2.5-1.7,2.6s-.9-.2-1.1-.9a9.2,9.2,0,0,0-.8-2.7c-.1-.2-.6-.3-.9-.5a9.5,9.5,0,0,1-1.7-1c-1.3-1.1-2.5-2.4-3.7-3.6l-.3.2c.4,1.4.8,2.9,1.3,4.4a2.2,2.2,0,0,1-.5,2.3,1.5,1.5,0,0,0-.3,1.3c.7,5.2,1.5,10.4,2.3,15.6.2,1.2.1,2.1-1.1,2.6a4.7,4.7,0,0,0-2.5,5c.5,2.5.5,5.7,1.1,8.5.2.9,1.5,1.7,2.4,2.3a8.4,8.4,0,0,0,2.7.8c.8.2,1.5.5,1.7,1.5s.6.5.9.6a69.4,69.4,0,0,1,27.6,14.6c14.1,11.8,24.6,26.1,28.6,44.2,7.2,32.4-1.3,60.1-26.1,82.3A73.5,73.5,0,0,1,220.2,281c-25.4,3.5-47.6-3.5-66.2-21.2-10.6-10-18.5-21.7-22.5-35.8a71,71,0,0,1-2.9-19.9ZM266,200.6a58,58,0,0,0-57.8-57.9c-32,0-58.1,25.9-58.1,57.5s25.7,58.4,57.9,58.4A57.8,57.8,0,0,0,266,201h0Zm-66.6-90.4c.5-.5.8-1,1.3-1.2l12-7.2a3.2,3.2,0,0,0,1.7-3.5c-.8-4.5-2-9-3-13.4a2,2,0,0,0-1.5-1.7,1.2,1.2,0,0,1-.5-1c-.4-3.7-.7-7.5-1-11.2-.1-1.6-.3-3.2-.4-5.2a15.5,15.5,0,0,0-2.4,2.7c-.7,1.3-.8,2.9-1.4,4.2s-2.2,4.6-3.4,6.9a11.4,11.4,0,0,1-1.5,2.3c-.5.7-.9,1.8-1.5,2.1-2.2.9-2.8,2.8-3.5,4.6l-2.1,4.7-.6,1.5c3.8,2.9,4.7,6.1,2.8,10.4l-4.3,10.2c-1.1,2.5-2,5.2-4.9,6.7l13.8-2.8a16.1,16.1,0,0,1-2.6-7c-.1-1.3.3-2,1.6-2.1Zm14.8-1.5-1.3.7-9.2,5.4c-.4.3-1.2.3-1.3.7s-1,2.4-.3,3.6h13.4c-.4-3.5-.9-6.9-1.3-10.4Z" transform="translate(0 0)"/><path class="cls-4" d="M214.2,108.7c.4,3.5.9,6.9,1.3,10.4H202.1c-.7-1.2-.3-2.4.3-3.6s.9-.4,1.3-.7l9.2-5.4Z" transform="translate(0 0)"/><path class="cls-4" d="M245,159.2l-3.2-.3c-.8,0-1.2-.3-1.3-1.1s-.1-2.4-.2-3.6h.4l.9.6c12.7,9.5,20.4,22,22.7,37.7.5,3.2.5,6.4.7,9.6a1.5,1.5,0,0,1-.4.9c-.2.1-.7-.1-.9-.3-2.3-2.7-5.5-3.1-8.7-3.5a11.3,11.3,0,0,1-5.4-1.6c0,1,.6,1.8,2.1,2.5a27.4,27.4,0,0,0,4,1.5c.9.4,1.2.8.8,1.8a8.2,8.2,0,0,1-4.3,4.1c-1.5.8-3.2,1.3-4.7,2.1s-.5.7-.7,1l1.1.4,2.8-.7c.7-.2,1,.1.9.7a2.9,2.9,0,0,1-.4,1.6c-1.7,2.4-3.5,4.8-5.1,7.3s-2.6,3.8-1.7,6.4a2.2,2.2,0,0,1-.3,1.6c-.8,1.4-1.7,2.8-2.6,4.2a1.8,1.8,0,0,0-.5.7c-.3,2.6-2.1,4.4-3.4,6.4s-3.2,2.5-5.1,3.1a1.6,1.6,0,0,1-1.8-.9v-.2a46.9,46.9,0,0,0-2.4-7.5,7.6,7.6,0,0,1-.3-5.9c.6-1.8-.3-3.4-.9-5a6.1,6.1,0,0,0-.7-1.4,4.2,4.2,0,0,1-.5-3.6c.3-1-.2-1.2-1-1.6-2.8-1.5-5.6-.2-8.4-.1a2.5,2.5,0,0,1-2.2-.6l-3.8-3.5a3.7,3.7,0,0,1-.5-1.1c-.6-2.6-1.2-5.2-.1-7.9a7.7,7.7,0,0,1,3.1-3.8l.3-.3c-.1-1.6,1.2-2.4,1.9-3.5s.7-1.3-.2-2-1.4-1.3-1.3-1.9a11.9,11.9,0,0,1,1.5-3.5c.1-.2.6-.2.9-.3l2.2-.3c-.2-.7-.4-1.4-.6-1.9a9.1,9.1,0,0,0-1.1-1.6l4.1-2.1-.2-.5c-1.5-.3-2.7.7-4.2,1.5.3-1.5-.2-3,.9-4.2s0-.9-.2-1a2,2,0,0,1-.6-2.6c.1-.3.4-.7.6-.7l.9.5c.3.2.1.2.1.3,0,2.1,1.9,3.4,2.4,5.4a2.7,2.7,0,0,0,1.4-.7c1.5-1.9,3.6-2,5.6-2.3h.7c2-.3,1.9-.4,2.5-2.3a3.3,3.3,0,0,1,2.5-2.7v-.4l-1.9-.8a1.4,1.4,0,0,1-1.4-1.4v-.4a18.6,18.6,0,0,0,.4-3.3c-.3.3-.8.6-1,1.1s-1.4,3.2-.6,5.2-1.1,3.9-2.8,4.1l-.6-1.2c-.5-.8-.8-1.6-2-1s-.8-.2-.9-.4a16.5,16.5,0,0,1-.6-3.2,1.2,1.2,0,0,1,.9-1,2.9,2.9,0,0,0,2.1-2.3,33.7,33.7,0,0,0,1-3.4c.6-2.3,3.9-4.8,6.3-4.4h.6c.7,1.6,2.4,1.5,3.6,2.3l1.6,1a2.9,2.9,0,0,0,1.3.1l2-1.1,3.8-2.4ZM230.8,197c.4-2,.4-2,2.4-1.6l1.4.2a26.7,26.7,0,0,0,4,.1c1.2-.2,2.2-2,1.9-3.3-2.5.2-2.5.2-4.7-1.3l-2.8-1.6-.3.3c.3.3.5.7.9.9s.9,1.1.3,1.5a2.1,2.1,0,0,1-2.3-.4,7.5,7.5,0,0,0-1.5-1.6,16.4,16.4,0,0,1-1.4,2.2.9.9,0,0,1-1.6.2c-.6-.6-.4-1.1.3-1.5s.8-1.2-.2-1.8l-1.9-.8c-1.2-.5-3.5-.3-4,.4l-3.2,4.7c2.2-1.4,4.6-1.4,7-1.3s1.5.3,1.4,1.5a3.2,3.2,0,0,0,.3,1.4c1.3.7,2.7,1.2,4,1.8Zm9.9,1.6a2.7,2.7,0,0,0,.4,2.7c.8,1.7,1.6,3.3,2.5,4.9a25.6,25.6,0,0,0,2,2.6C246,206.8,242.1,199.3,240.7,198.6Z" transform="translate(0 0)"/><path class="cls-4" d="M180.1,151.3c-.1.4,0,.6-.1.7-1.6,2.4-2.6,5.4-5.6,6.7a.9.9,0,0,0-.5,1,1.2,1.2,0,0,0,.5.5c.5.2,1.5.2,1.7-.1s3.5-2.6,4.1-5,1.4-1.9,2.2-2.9a1.1,1.1,0,0,1,.8-.1l2.7.7c-3.5,1.8-4.7,4.7-4.8,8.3,1.6-1,2.7-2.1,2.2-4.1a1.8,1.8,0,0,1,.8-2.1l2.1-1.6c1.1-.6,2.1.2,2.9.7s.6,1.2.5,1.8a1.9,1.9,0,0,0,.6,2,2.6,2.6,0,0,1,.5,3.4,3.4,3.4,0,0,0,0,2c.3.9.3,1.6-.5,2.1l-1.8.5a1.3,1.3,0,0,0,.1.6c.7,1.2-.1,2-.9,2.7s-1.1.5-1.5-.2a2.7,2.7,0,0,0-.7-.8,2.4,2.4,0,0,1-.4-3.3l.9-1c.8-1.2,1.3-2.5.5-3.9s-.8-.6-1.3-.8a1.6,1.6,0,0,0-.6.8c-.6,1.3-1.1,2.7-1.7,4s-.5.5-.8.6h-1.5l.9,2.5-2.8.7-.3-.3,1.1-3.1-1.3.8a15.9,15.9,0,0,0-2.9,1.5,6.7,6.7,0,0,0-1.5,1.4,5,5,0,0,0,0,6.1c.9,1.4,1.6,2.9,2.6,4.6,0-2,1.4-2.7,2.6-3.6s.7-1.4.2-1.8l1.7-4c.5-1.2.9-1.3,1.9-.6l1,.7c.8.5,1.3,1.1.7,2.1s-.3.9-.5,1.3l.4.3,2.6-2.2c.2,1.2.3,2.4.6,3.5a28.1,28.1,0,0,1,.8,7.1,1,1,0,0,0,.5.8c1,.3,1,1,.8,1.7s-.7.7-1.2.8a2.1,2.1,0,0,1-2.7-.9l.8-2.3-4.7.4,2.3,2.3c1,1.1.9,1.7-.5,2.1l-4.4,1.3a2.3,2.3,0,0,0-1,.7c-.4.6-.8,1.4-1.4,1.7a13.3,13.3,0,0,0-2.6,2.7c-.8,1-2,2.6-3.1,3.8a2.8,2.8,0,0,1-.9,1,1.6,1.6,0,0,0-.1,2.2,3.3,3.3,0,0,1,.6,1.9c.1.3-.2.7-.4,1s-.6-.3-.8-.6-.5-1.1-.8-1.6a3.6,3.6,0,0,0-1.1-1.6c-1.1-.9-2.3-.6-3,.8l-2.1-.3a2.4,2.4,0,0,0-2.7,1.7c-.6,1.8-1,3.5-.2,5.4a2.2,2.2,0,0,0,2.2,1.3,1.6,1.6,0,0,0,1.8-.9,8.3,8.3,0,0,1,2.1-1.6l.4.3a11.3,11.3,0,0,1-.8,2.4c-.6,1.2-.4,1.6,1.1,1.6h1.5a17,17,0,0,0,.6,3.1c.3,1.3.7,1.4,2,1.3a5.6,5.6,0,0,0,4.3-1.6,1.2,1.2,0,0,1,1-.2,41,41,0,0,1,6.1,1.1c.9.2,1.5,1.2,2.4,1.8l2.7,1.3c.6.3,1.3.5,1.6,1,1.5,2,3.9,2.6,5.9,3.7s3.1,1.7,4.6,2.7a2,2,0,0,1,.6,1.8q-.6,4.5-1.5,9a2.1,2.1,0,0,1-.7,1.3c-2.1,1.4-2.9,3.6-3.2,6s-.2,1.7-1.5,2.5c.7,2.5-.4,4.8-.9,7.2a1.4,1.4,0,0,0,.5,1.7c.5.5.6,1.4.9,2l-.3.3-3.6-1.1a1.2,1.2,0,0,1-.5-.5l-2.7-5.3-.9-1.8-.6-2.2c-.3-.9-.5-1.9-.9-2.8s-1.5-4.4-2.2-6.7a5.5,5.5,0,0,0-2.7-3.3c-1.8-1.2-3.8-2.3-4.9-4.4a2.8,2.8,0,0,0-.9-1,5.7,5.7,0,0,1-.9-6.8,3.2,3.2,0,0,0-.1-3.9c-.2-.2-.7-.6-.8-.5-1.7,1-2.6-.5-3.7-1.3a28.8,28.8,0,0,0-3.5-2.6c-1.3-.6-3.3-1-4.9-1.6l-4.1-2a1.1,1.1,0,0,1-.6-.7l-2.7-5.4c-.9-2-.6-4-.4-6,2-19,11.1-33.5,27.2-43.7Z" transform="translate(0 0)"/><path class="cls-4" d="M209,143.6l6.6,1.1c.9.2.9.9.3,1.5-2.2,1.9-2.7,4.6-3.2,7.2s-.6,3.2-2.1,4.3a1.4,1.4,0,0,0-.4,1.2c.6,2.3.3,3.2-1.7,4.5l-2.7,1.2a12.7,12.7,0,0,0-5.5,3.2,18.7,18.7,0,0,0-2.4,3.8c-.5,1-.8,1.1-1.6.4s-1.3-3-1.4-4.6a14.9,14.9,0,0,1,.2-2.1,3.9,3.9,0,0,1,1.1-2.7,1.2,1.2,0,0,0,.8-1.5v-.2c0-.1-.1-.1-.1-.2a3.1,3.1,0,0,1,.2-2.1,1.8,1.8,0,0,1,.4-.9c1.1-2.1.8-3.5-1.2-4.9a2.6,2.6,0,0,1-.8-3.2,7.6,7.6,0,0,1,1.2-1.9,3.4,3.4,0,0,1,1.9-.9c.7-.1,1.3-.2,1.5-1.2a1.7,1.7,0,0,1,1.8-1.5C203.9,144.1,206,143.8,209,143.6Z" transform="translate(0 0)"/><path class="cls-4" d="M199.7,144.6l-.4.4c-3,.7-4.9,2.9-6.5,5.4a1.9,1.9,0,0,1-2.5.6,1.6,1.6,0,0,1-.7-.9,2.5,2.5,0,0,1,.2-1.7,5.1,5.1,0,0,1,.9-1.6l-.3-.4,9.2-2.1Z" transform="translate(0 0)"/><path class="cls-4" d="M249.9,227a13.7,13.7,0,0,1-.5,2.8c-.5,1.5-1.2,3-1.8,4.6s-.9,1.2-1.7.8a1.5,1.5,0,0,1-.8-2h.1l.3-.8c.8-2.2,2.9-3.5,4-5.5Z" transform="translate(0 0)"/><path class="cls-4" d="M167.6,204.8c1.3-1,6,.3,6.3,2a3.5,3.5,0,0,1-3.2-.8A16.6,16.6,0,0,0,167.6,204.8Z" transform="translate(0 0)"/><path class="cls-4" d="M183.9,148.9l2.5-.6a18.5,18.5,0,0,1-.4,2.3c-.1.2-.5.4-.7.6Z" transform="translate(0 0)"/><path class="cls-4" d="M177.7,207.9a16.5,16.5,0,0,1-3.1.4c-.3,0-.6-.3-.9-.5a2.7,2.7,0,0,1,.7-.8A2.8,2.8,0,0,1,177.7,207.9Z" transform="translate(0 0)"/><path class="cls-4" d="M230.8,197c-1.3-.6-2.7-1.1-4-1.8a3.2,3.2,0,0,1-.3-1.4c.1-1.2-.4-1.5-1.4-1.5s-4.8-.1-7,1.3l3.2-4.7c.5-.7,2.8-.9,4-.4l1.9.8c1,.6,1.1,1.2.2,1.8s-.9.9-.3,1.5a1,1,0,0,0,1.2.3l.4-.5a16.4,16.4,0,0,0,1.4-2.2,7.5,7.5,0,0,1,1.5,1.6c.5.5,1.7.9,2.3.4s.3-1.1-.3-1.5-.6-.6-.9-.9l.3-.3,2.8,1.6c2.2,1.5,2.2,1.5,4.7,1.3.3,1.3-.7,3.1-1.9,3.3a26.7,26.7,0,0,1-4-.1l-1.4-.2C231.2,195,231.2,195,230.8,197Z" transform="translate(0 0)"/><path class="cls-4" d="M240.7,198.6c1.4.7,5.3,8.2,4.9,10.2a25.6,25.6,0,0,1-2-2.6c-.9-1.6-1.7-3.2-2.5-4.9A2.7,2.7,0,0,1,240.7,198.6Z" transform="translate(0 0)"/></g></g><g id="Device_1" data-name="Device 1"><path class="cls-5" d="M79.9,77.2,106.7,261c.4,2.5-62,24.9-64.4,25.6l-5.4.3c-3.6.1-6.1-1.4-6.5-4.4L4.8,87.7a3.9,3.9,0,0,1,3.3-4.4l67.5-9.4a3.8,3.8,0,0,1,4.3,3.2Z" transform="translate(0 0)"/><path class="cls-6" d="M87.6,76.2,114.4,260a4.9,4.9,0,0,1-3.5,5.5L44.5,285.9a5,5,0,0,1-6.2-3.3,2.4,2.4,0,0,1-.2-.8L12.4,86.7a3.9,3.9,0,0,1,3.3-4.4l67.5-9.4A3.9,3.9,0,0,1,87.6,76.2Z" transform="translate(0 0)"/><line class="cls-7" x1="71.5" y1="267" x2="86.3" y2="262.1"/><polygon class="cls-8" points="82.4 81 22 91.3 45.1 268.9 106.8 249.7 82.4 81"/></g><g id="Device_2" data-name="Device 2"><path class="cls-5" d="M323.5,77.2,296.7,261c-.3,2.5,62.1,24.9,64.5,25.6l5.4.3c3.6.1,6.1-1.4,6.5-4.4L398.7,87.7a3.9,3.9,0,0,0-3.3-4.4l-67.5-9.4A4.1,4.1,0,0,0,323.5,77.2Z" transform="translate(0 0)"/><path class="cls-6" d="M315.9,76.2,289.1,260a4.9,4.9,0,0,0,3.4,5.5L359,285.9a4.9,4.9,0,0,0,6.1-3.3h0a1.9,1.9,0,0,0,.2-.8L391,86.7a3.9,3.9,0,0,0-3.3-4.4l-67.4-9.4A3.9,3.9,0,0,0,315.9,76.2Z" transform="translate(0 0)"/><line class="cls-7" x1="314.4" y1="260.7" x2="328.5" y2="265.2"/><polygon class="cls-9" points="321.1 81 381.5 91.3 358.3 268.9 296.7 249.7 321.1 81"/></g><g id="Photo"><path class="cls-10" d="M49.2,164.6c3.5-4.6,8.1-7.3,13.1-7.3,11,0,19.9,13.1,19.9,29.2,0,13.7-6.5,25.2-15.2,28.3" transform="translate(0 0)"/><path class="cls-10" d="M44.7,173a39.9,39.9,0,0,1,2.5-5.6" transform="translate(0 0)"/><path class="cls-10" d="M62.3,215.7c-11,0-19.9-13.1-19.9-29.2a39.1,39.1,0,0,1,1.3-10.2" transform="translate(0 0)"/><path class="cls-10" d="M347.4,161.6c-3.5-4.6-8.1-7.3-13.1-7.3-11,0-19.9,13.1-19.9,29.2,0,13.7,6.4,25.2,15.1,28.3" transform="translate(0 0)"/><path class="cls-10" d="M351.9,170a39.9,39.9,0,0,0-2.5-5.6" transform="translate(0 0)"/><path class="cls-10" d="M334.3,212.7c11,0,19.9-13.1,19.9-29.2a39.1,39.1,0,0,0-1.3-10.2" transform="translate(0 0)"/><path class="cls-6" d="M311.4,86.1S319.7,74.2,333,78s20.1,12.9,19.1,22.4-3.4,20.7,3.2,23.1,16.5-1,22,6.7,7.6,19.5-.2,29.6-25.2,12.6-38.3,4.8-22.3-17.9-22.5-32.4,4-21.2,3-29.4-3.2-8.9-3.2-8.9Z" transform="translate(0 0)"/><path class="cls-11" d="M330.9,98.6c3.3,7.2-2.5,22.6-3,28.8-1.3,16.8,5.4,31.3,23.9,34.3s25.9-12.1,23.9-19.5c-1.4-5.2-9.4-3.7-10.1,3.4s6,3.3,6.4,2" transform="translate(0 0)"/><path class="cls-11" d="M313.8,95.1s7.5-3.7,14.3.5" transform="translate(0 0)"/><path class="cls-11" d="M358.6,151.3a12.2,12.2,0,0,0,3.3-1.4" transform="translate(0 0)"/><path class="cls-11" d="M311.5,93.8s10.7-8.4,22.8-5.4,12.8,19.5,8.4,29.6-6.4,22.5,1,30.3a12.8,12.8,0,0,0,10.8,3.8" transform="translate(0 0)"/><path class="cls-12" d="M299.9,130.2s-9-1.7-13.4.8-30,21.5-30,21.5L234.7,136v10.7s15.1,18.1,19.5,19.3,35.5-15.9,35.5-15.9-1.2,16.7.8,20.3,11.7,6.7,19.5,10.1,16.1,12.9,20.9,15.1,8.7,1.6,12.1-7.9-.8-15.7-2-18.3A215.8,215.8,0,0,0,325.1,144C318.3,134.8,299.9,130.2,299.9,130.2Z" transform="translate(0 0)"/><g class="cls-13"><path class="cls-2" d="M330.8,186.2c-2.9-3.5,1.6-8,5.1-10.8s-15.7-.7-16.7-2.3,4.2-4.5,7.1-7-8.5,2.8-15.1-1-10.5-2.5-10.5-2.5,7-9.6,8.6-15.4-.9-6.7-.9-6.7l-1.9-8.2c-3.8-1.4-6.6-2.1-6.6-2.1s-9-1.7-13.4.8-30,21.5-30,21.5L234.7,136v10.7s15.1,18.1,19.5,19.3,35.5-15.9,35.5-15.9-1.2,16.7.8,20.3,11.7,6.7,19.5,10.1,16.1,12.9,20.9,15.1,7.2,1.7,10.2-3.5C337.9,190.2,332.6,188.5,330.8,186.2Z" transform="translate(0 0)"/></g><path class="cls-10" d="M299.9,130.2s-9-1.7-13.4.8-30,21.5-30,21.5L234.7,136v10.7s15.1,18.1,19.5,19.3,35.5-15.9,35.5-15.9-1.2,16.7.8,20.3,11.7,6.7,19.5,10.1,16.1,12.9,20.9,15.1,8.7,1.6,12.1-7.9-.8-15.7-2-18.3A215.8,215.8,0,0,0,325.1,144C318.3,134.8,299.9,130.2,299.9,130.2Z" transform="translate(0 0)"/><path class="cls-10" d="M317.8,168.9s8-.5,13.5-3.5" transform="translate(0 0)"/><path class="cls-10" d="M315.3,170.9s11,1.5,19.5,0" transform="translate(0 0)"/><polyline class="cls-10" points="279.8 142.9 289.7 150.1 272.3 145.4"/><path class="cls-6" d="M296.4,132.1s-1.7,8.2,1,13.7,6.8,6.8,9.9,2.7,3.7-14-1.7-16.7S297.4,130.8,296.4,132.1Z" transform="translate(0 0)"/><path class="cls-12" d="M97.4,121.9s-5-1.7-14.3,7.3-18.6,18-24.5,28.1-8.6,25-9.3,34a15.4,15.4,0,0,0,14.4,16.3h.1a14.6,14.6,0,0,0,5.5-.7c7.1-2.1,30.4-33.7,34.1-38.6s7.4-11.2,7.4-11.2,19.5,18.3,26.6,21.5,18.2,1,18.2,1l.5-12s-10.4-1.8-11.3-2.3-15.9-17.5-23.7-26.9-13.1-15.2-17-16.6A8.2,8.2,0,0,0,97.4,121.9Z" transform="translate(0 0)"/><g class="cls-14"><path class="cls-2" d="M121.1,138.4c-5.7-6.8-10-11.7-13.4-14.5h-.8c-10.8,2.1-17,21.4-17,21.4s-.6,9.7-1.5,13.8-9.4-8.5-9.4-5.2,6.2,9.1,7.1,10.2-2.7-.8-4.4-1.4-6.8,14.6-8.5,17.6-21.8,10.2-20.3,12.3S65.8,190,65.8,190s-2.9,3.8-9.7,7.3a10.6,10.6,0,0,0-4,3.6,15.1,15.1,0,0,0,17.2,5.9c7.1-2.1,30.4-33.7,34.1-38.6s7.4-11.2,7.4-11.2,19.5,18.3,26.6,21.5,18.2,1,18.2,1l.5-12s-10.4-1.8-11.3-2.3S128.9,147.8,121.1,138.4Z" transform="translate(0 0)"/></g><path class="cls-10" d="M97.4,121.9s-5-1.7-14.3,7.3-18.6,18-24.5,28.1-8.6,25-9.3,34a15.4,15.4,0,0,0,14.4,16.3h.1a14.6,14.6,0,0,0,5.5-.7c7.1-2.1,30.4-33.7,34.1-38.6s7.4-11.2,7.4-11.2,19.5,18.3,26.6,21.5,18.2,1,18.2,1l.5-12s-10.4-1.8-11.3-2.3-15.9-17.5-23.7-26.9-13.1-15.2-17-16.6A8.2,8.2,0,0,0,97.4,121.9Z" transform="translate(0 0)"/><path class="cls-10" d="M57.8,178.9a10.5,10.5,0,0,0,10-1" transform="translate(0 0)"/><path class="cls-10" d="M52.8,186.4s13,.5,19-7.5" transform="translate(0 0)"/><polyline class="cls-10" points="123.3 150.4 110.8 157.1 126.8 155.4"/><path class="cls-6" d="M95.4,120.3s-9.2,4.7-9.5,8.5a35.9,35.9,0,0,0,1.4,16.6c2.4,6.8,6.7,11.5,8.8,11.2s7.8-6.1,8.4-19.4S101.2,120.3,95.4,120.3Z" transform="translate(0 0)"/><polyline class="cls-15" points="248.7 109.7 248.7 209.6 151.1 209.6 151.1 109.7"/><rect class="cls-5" x="153.5" y="111.4" width="92.8" height="96.5"/><path class="cls-5" d="M210.5,105.3s-1.8-1.1-2.8.3-2.5,3.7-2,5,2.3-1.1,3.4-2.3A4.9,4.9,0,0,0,210.5,105.3Z" transform="translate(0 0)"/><path class="cls-5" d="M213.3,104.7a1.6,1.6,0,0,0-2.3-.1.1.1,0,0,0-.1.1,2.1,2.1,0,0,0-.4.6c-1,2.1-.5,7,.4,7.6s1.4.3,2.1-2.3S214.1,106.8,213.3,104.7Z" transform="translate(0 0)"/><path class="cls-5" d="M216.2,104.5a1.6,1.6,0,0,0-2.4,0h-.1a1,1,0,0,0-.4.5c-1,2.1-.5,7.1.4,7.6s1.4.3,2.1-2.3S216.9,106.7,216.2,104.5Z" transform="translate(0 0)"/><path class="cls-5" d="M219,104.4s-1.8-1.6-2.8.5-.6,7.1.3,7.6,1.4.4,2.2-2.3S219.7,106.5,219,104.4Z" transform="translate(0 0)"/><line class="cls-10" x1="224.8" y1="215.9" x2="228.5" y2="213"/><path class="cls-12" d="M100.2,116.5s-3.7,4.4-6.4,7-3.8,2.7-3.8,7.8,2.1,18.4,5.3,19.1,16.2-18.6,16.2-18.6l-4.6-17.6S102,114,100.2,116.5Z" transform="translate(0 0)"/><g class="cls-16"><path class="cls-17" d="M102.8,131.1c-1.1,7.7-4.5,12.6-9.1,17.8.5.8,1,1.4,1.6,1.5,3.2.7,16.2-18.6,16.2-18.6L108.4,120l-2.4-2.1A66.9,66.9,0,0,0,102.8,131.1Z" transform="translate(0 0)"/><path class="cls-2" d="M102.8,131.1c-1.1,7.7-4.5,12.6-9.1,17.8.5.8,1,1.4,1.6,1.5,3.2.7,16.2-18.6,16.2-18.6L108.4,120l-2.4-2.1A66.9,66.9,0,0,0,102.8,131.1Z" transform="translate(0 0)"/></g><path class="cls-10" d="M100.2,116.5s-3.7,4.4-6.4,7-3.8,2.7-3.8,7.8,2.1,18.4,5.3,19.1,16.2-18.6,16.2-18.6l-4.6-17.6S102,114,100.2,116.5Z" transform="translate(0 0)"/><path class="cls-12" d="M130.6,103.4c.8,2.1.9,4.5.9,7.6s-1,6.5-.5,8.1,3.2,3.7,2.5,5.3-4.8,2.5-4.8,3a49.6,49.6,0,0,1-4.6,9.9c-1.8,2.9-6,1.6-12.2-.9s-7.1-7-7.8-10,.5-13.7.9-21.3c.2-4,1-6.9,5-8.7A16.7,16.7,0,0,1,125.9,98,12.3,12.3,0,0,1,130.6,103.4Z" transform="translate(0 0)"/><g class="cls-18"><path class="cls-2" d="M131.5,111c0-3.1-.1-5.5-.9-7.6a12.3,12.3,0,0,0-4.7-5.4,16.8,16.8,0,0,0-12.7-2.6l.8,6.9a26.4,26.4,0,0,1,8.8,3.8c4.1,3,4.4,6.3,3.5,11.5s1.5,7-.9,12.3-2,6.7-7,6.7-10.3-4.7-12.7-7.9l-1.5-2.1a20.1,20.1,0,0,0,1,3.5l1,1.9a11.2,11.2,0,0,0,5.7,4.4c6.2,2.5,10.4,3.8,12.2.9a49.6,49.6,0,0,0,4.6-9.9c0-.5,4.1-1.4,4.8-3s-2-3.7-2.5-5.3S131.5,114.5,131.5,111Z" transform="translate(0 0)"/></g><path class="cls-10" d="M130.6,103.4c.8,2.1.9,4.5.9,7.6s-1,6.5-.5,8.1,3.2,3.7,2.5,5.3-4.8,2.5-4.8,3a49.6,49.6,0,0,1-4.6,9.9c-1.8,2.9-6,1.6-12.2-.9s-7.1-7-7.8-10,.5-13.7.9-21.3c.2-4,1-6.9,5-8.7A16.7,16.7,0,0,1,125.9,98,12.3,12.3,0,0,1,130.6,103.4Z" transform="translate(0 0)"/><path class="cls-19" d="M127.2,117.7c-.1,1.2-.5,2.1-1,2.1s-.8-1-.8-2.2.6-2.2,1-2.2S127.3,116.4,127.2,117.7Z" transform="translate(0 0)"/><path class="cls-10" d="M117.7,125.3s.6,3.2,4.8,3.5" transform="translate(0 0)"/><path class="cls-10" d="M123.6,112.9a4.4,4.4,0,0,1,5.3-1" transform="translate(0 0)"/><path class="cls-6" d="M104.3,114s2.8,1.4,3.3-.7.3-3.4,1.7-3.9,6.5-1.1,5.8-4.3-2.1-3.7.2-4.7,6.3,1.2,12.5,4,12.2,0,14.3-3.7.9-15-7.2-15c-5.4,0-6.7,2-7.9,2.5s-10.7-4.8-20.8-2.7S93.8,102,95.3,106.4,97.7,119.3,104.3,114Z" transform="translate(0 0)"/><path class="cls-11" d="M136.7,100.4a4.8,4.8,0,0,1-3.5,1.8c-6.4.7-12.8-4.7-18.8-6.7s-15.8.6-18.9,6.7c0,0,5.4-5.1,13.8-1.4" transform="translate(0 0)"/><path class="cls-11" d="M137.6,93.4a11.9,11.9,0,0,1,.2,4.2" transform="translate(0 0)"/><path class="cls-5" d="M105.7,116.3s-1.6-7.5-3.7-8.5-5.1-.9-5.5,4.6,2.7,8.1,4.2,8.5,4.1-1.1,4.1-1.1" transform="translate(0 0)"/><path class="cls-5" d="M159.1,210.6l8.9-6.4a7.6,7.6,0,0,1,7.8-.9,71.5,71.5,0,0,0,7.9,2.3c.5,0,.2,1.3-1.4,1.8s-4.1.2-5.8,0a6.5,6.5,0,0,0-3.4.7s8.1,1.4,10.3,2.1,5.1,2,4.2,2.8a8.6,8.6,0,0,1-2.6,2c-.8.2-2-.7-4.3.3a31.2,31.2,0,0,1-9.4,2.5c-2.3,0-12.2-2.8-12.2-2.8Z" transform="translate(0 0)"/><path class="cls-12" d="M59.5,168.5s21.1,38.2,25.9,46,9.7,8.5,12.5,8.5,61.2-8,61.2-8v-4.4s-29-1.4-37.3-3.2-20.7-2.5-20.7-2.5S89.6,171.3,85,164.8A19.2,19.2,0,0,0,73.7,157" transform="translate(0 0)"/><g class="cls-20"><path class="cls-2" d="M101.1,204.9S89.6,171.3,85,164.8l-.9-1.2c1.1,3.7,3.8,13.7,5.5,19.1s4.7,10.3,2.9,10.9-14-12.9-12.3-7.6,16.7,16.4,16.7,17.6-6.7,1.7-3.5,3.5,9.1,1.2,9.1,1.2-8.2,4.1-5.6,4.9,10.3-4.6,11.8-4.6,32.2,4.7,44.6,7.2l5.8-.8v-4.4s-29-1.4-37.3-3.2S101.1,204.9,101.1,204.9Z" transform="translate(0 0)"/></g><path class="cls-10" d="M59.5,168.5s21.1,38.2,25.9,46,9.7,8.5,12.5,8.5,61.2-8,61.2-8v-4.4s-29-1.4-37.3-3.2-20.7-2.5-20.7-2.5S89.6,171.3,85,164.8A19.2,19.2,0,0,0,73.7,157" transform="translate(0 0)"/><path class="cls-2" d="M307.8,153.9l-28.8,33-42.3,12.7-13.9-1.2c-2.6-.2-4.6,1.8-6.2,3.4s-5.6,3.1-4.8,4.3,2.2.6,4.8-.2l4.4-1.2-10.9,10.2c-2.2,2.2-1.8,3.4-.4,3.4s9.1-7,9.1-7a59.9,59.9,0,0,0-3.8,5c-1.4,2.2-3.4,4.1-2,4.5s7.2-5.1,7.2-5.1l2.8-1.8s-4.6,5.2-3.6,5.9,5.4-3.9,5.4-3.9,7.3-2.4,9.3-4.8l3.2-4s22.8-4.3,31.2-5.7,18.4-2.6,22-5.8,32.2-30.4,33.6-34" transform="translate(0 0)"/><g class="cls-21"><path class="cls-2" d="M290.5,179.8c-1.1-.2,5-10,9.3-16.7L279,186.9l-42.3,12.7-8.9-.8.3,1.5,3.8,6.7s44.2-14.4,46.1-14.4,1.9.7,4.1,1.3.4-2.6.4-2.6a45.5,45.5,0,0,0,8.9-1.9c3.5-1.3-8.3-.9-6.4-1.9s19.5-10.9,23.4-17.6S292.1,180.2,290.5,179.8Z" transform="translate(0 0)"/></g><path class="cls-10" d="M307.8,153.9l-28.8,33-42.3,12.7-13.9-1.2c-2.6-.2-4.6,1.8-6.2,3.4s-5.6,3.1-4.8,4.3,2.2.6,4.8-.2l4.4-1.2-10.9,10.2c-2.2,2.2-1.8,3.4-.4,3.4s9.1-7,9.1-7a59.9,59.9,0,0,0-3.8,5c-1.4,2.2-3.4,4.1-2,4.5s7.2-5.1,7.2-5.1l2.8-1.8s-4.6,5.2-3.6,5.9,5.4-3.9,5.4-3.9,7.3-2.4,9.3-4.8l3.2-4s22.8-4.3,31.2-5.7,18.4-2.6,22-5.8,32.2-30.4,33.6-34" transform="translate(0 0)"/><path class="cls-5" d="M216.6,201.8c-1.6,1.6-5.6,3.1-4.8,4.3s2.2.6,4.8-.2l4.4-1.2-10.9,10.2c-2.2,2.2-1.8,3.4-.4,3.4s9.1-7,9.1-7a59.9,59.9,0,0,0-3.8,5c-1.4,2.2-3.4,4.1-2,4.5s7.2-5.1,7.2-5.1l2.8-1.8s-4.6,5.2-3.6,5.9,5.4-3.9,5.4-3.9,7.3-2.4,9.3-4.8l3.2-4-.6-7.5-13.9-1.2C220.2,198.2,218.2,200.2,216.6,201.8Z" transform="translate(0 0)"/><path class="cls-12" d="M277.8,96.5a22.7,22.7,0,0,0-1.8,10.3c.6,5.2.8,7.9-.2,9.3s-2.6.8-2.4,3.4,3.4,3.6,3.4,3.6,4.4,8.7,6,10.5,3.9,1,5.7.2l5.4-2.6s4.6,12,6.8,14.9,4.1-1,4.7-4.3,1-10.4,0-12.9-3.8-8.6-3.8-8.6,5.8-.8,9.4-8.7-4-18.1-15.1-20.5S279,93.7,277.8,96.5Z" transform="translate(0 0)"/><g class="cls-22"><path class="cls-2" d="M298.8,121.6s-1.9,5.5-2.9,6.7-9,4.5-12.2,2.6-4.8-7.7-4.4-12.5-1.6-10.2,2.5-12.4,11.9-.7,11.9-.7l8.6-3.5L283.1,96s-2.8,1-6.1,2.5a21.3,21.3,0,0,0-1,8.3c.6,5.2.8,7.9-.2,9.3s-2.6.8-2.4,3.4,3.4,3.6,3.4,3.6,4.4,8.7,6,10.5,3.9,1,5.7.2l5.4-2.6s4.6,12,6.8,14.9c1.1,1.3,2.1,1.1,2.8.3C302.1,138.2,298.8,121.6,298.8,121.6Z" transform="translate(0 0)"/></g><path class="cls-10" d="M277.8,96.5a22.7,22.7,0,0,0-1.8,10.3c.6,5.2.8,7.9-.2,9.3s-2.6.8-2.4,3.4,3.4,3.6,3.4,3.6,4.4,8.7,6,10.5,3.9,1,5.7.2l5.4-2.6s4.6,12,6.8,14.9,4.1-1,4.7-4.3,1-10.4,0-12.9-3.8-8.6-3.8-8.6,5.8-.8,9.4-8.7-4-18.1-15.1-20.5S279,93.7,277.8,96.5Z" transform="translate(0 0)"/><ellipse class="cls-19" cx="280.7" cy="114.2" rx="0.7" ry="1.8"/><path class="cls-10" d="M279.2,109.6s2.8-2.8,4.4,1.4" transform="translate(0 0)"/><path class="cls-10" d="M281.6,126.1s5.3-.2,6.1-4.6" transform="translate(0 0)"/><path class="cls-6" d="M302.9,109.5a3.3,3.3,0,0,0-3.7,2.3c-.4,1.3-1.3,2.8-3.1,2.7s-2.8-5.7-4-8.1-5.2-2.4-12.5-3-12.9-.6-12.3-9.9,6.5-15.7,10.5-14.7,2.8,5.2,2.8,5.2,12.9-6.2,23.8-3.2,13.5,13.3,13.1,23-5.3,15.3-8.5,16.7-5.6,3.6-7,3.2-2.1-3.6-.8-4.6,4.8-5.5,3.8-8.1A2.7,2.7,0,0,0,302.9,109.5Z" transform="translate(0 0)"/><path class="cls-11" d="M275.5,93.8s-3.7,7.4,4.7,7.7,18.8-5.4,26.5-3,8.5,9.4,6.4,14.1" transform="translate(0 0)"/><path class="cls-11" d="M289.6,92.8s21.5-8.4,24.9,4" transform="translate(0 0)"/></g><g id="Layer_7" data-name="Layer 7"><path class="cls-2" d="M188,144h3.4v13.1h0a15.1,15.1,0,0,1,2.3-2.1,11.2,11.2,0,0,1,2.8-1.6c-.3-.1-.5-.2-.6-.5v-.2a1,1,0,0,1-.1-1.2,24.4,24.4,0,0,1,1-2.4,1.3,1.3,0,0,1,1.3-.8c.1.1.2,0,.3-.1l.6-1.6h.2l.2-.2a.9.9,0,0,0,.1-.5v-.3l.4-1.6v-.2l1-1.2.6-.6a.8.8,0,0,0,.4-.7v-.2h-.1c-.3-.4-.4-.7-.2-1a1.2,1.2,0,0,1,1-.5l.8.5c-.2.2-.1.8.1,1.1s-.3.2-.3.4-.1.3-.4.2h-.1a3.7,3.7,0,0,1,.7,1.4.9.9,0,0,0,.1.5l.3.5.6.7.6,1a.7.7,0,0,1,.3.6c0,.1-.2.4-.3.4l-.2-.2a.6.6,0,0,0-.1-.4h-.2l-.2-.2c-.3-.1-.5-.4-.7-.6h0c.1.2.1.5.2.7s0,.3-.1.4v.2a23.4,23.4,0,0,0,.4,2.6c0,.2,0,.4-.2.5a.7.7,0,0,0-.4.8,6.6,6.6,0,0,0,.1,1.4l.4.4h.5l.3.3h.1a11.3,11.3,0,0,1,4.6,2.4,13.6,13.6,0,0,1,2.3,19.1,11.9,11.9,0,0,1-1.9,2,11.6,11.6,0,0,1-6.6,3.1,13.4,13.4,0,0,1-11.1-3.5,14.4,14.4,0,0,1-3.7-6,12.6,12.6,0,0,1-.5-3.3V144Zm23,22.2a9.7,9.7,0,1,0-9.7,9.7h0a9.6,9.6,0,0,0,9.7-9.5Zm-11.2-15.1.2-.2,2.1-1.2c.2-.2.3-.4.2-.6a18.9,18.9,0,0,0-.5-2.3l-.2-.2v-.2c-.1-.6-.1-1.2-.2-1.9v-.8c-.2.1-.4.2-.4.4l-.3.7a6.1,6.1,0,0,1-.5,1.2l-.3.3c-.1.2-.1.3-.2.4l-.6.8-.4.8v.2a1.3,1.3,0,0,1,.6,1.6h-.1c-.2.6-.5,1.2-.7,1.7a2,2,0,0,1-.8,1.2l2.3-.5a6.1,6.1,0,0,1-.5-1.2.3.3,0,0,1,.3-.3h0Zm2.5-.3h-.2l-1.6.9c0,.1-.1.1-.2.2a.6.6,0,0,0,0,.6h2.2Z" transform="translate(0 0)"/><path class="cls-2" d="M202.3,150.8l.2,1.8h-2.2a.6.6,0,0,1,0-.6l.2-.2,1.6-.9Z" transform="translate(0 0)"/><path class="cls-2" d="M207.4,159.3h-.5c-.1,0-.2,0-.2-.2v-.6h.2a9.5,9.5,0,0,1,3.8,6.3,8.6,8.6,0,0,1,.1,1.6v.2h-.2a2.8,2.8,0,0,0-1.5-.6l-.9-.2c0,.1.1.3.4.4l.6.2c.2.1.2.2.2.3a1.2,1.2,0,0,1-.7.7,2,2,0,0,0-.8.4h.5c.1-.1.2,0,.2.1a.4.4,0,0,0-.1.3l-.9,1.2a1.2,1.2,0,0,0-.3,1c.1.1,0,.2,0,.3a1.6,1.6,0,0,1-.4.7h-.1a2.4,2.4,0,0,1-.6,1.1,1.4,1.4,0,0,1-.8.5c-.2.1-.3,0-.3-.2a5.6,5.6,0,0,1-.4-1.2,1.2,1.2,0,0,1-.1-1,1.1,1.1,0,0,0-.1-.8l-.2-.3a.6.6,0,0,1,0-.6l-.2-.2c-.5-.3-.9-.1-1.4,0s-.3,0-.4-.2l-.6-.5v-.2a1.5,1.5,0,0,1,0-1.3,1.8,1.8,0,0,1,.5-.7h.1c-.1-.3.1-.4.3-.6s.1-.2-.1-.3a.8.8,0,0,1-.2-.4c0-.2.2-.4.3-.6h.5a.6.6,0,0,1-.1-.4l-.2-.2.7-.4h0c-.3,0-.5.2-.8.3s0-.5.2-.7v-.2c-.1,0-.2,0-.2-.2s0-.2.1-.2h.2c0,.3.4.6.4.9h.3a1.1,1.1,0,0,1,.9-.4h.1c.4-.1.3-.1.4-.4l.5-.5h0l-.3-.2c-.2,0-.3-.1-.3-.2a1.3,1.3,0,0,0,.1-.6l-.2.2a1.1,1.1,0,0,0-.1.8.6.6,0,0,1-.4.7l-.2-.2c0-.1-.1-.2-.3-.1h-.1a.9.9,0,0,1-.1-.5v-.2l.4-.4c0-.2.1-.4.1-.6s.7-.8,1.1-.7h.1c.1.3.4.3.6.4l.3.2h.2l.3-.2.6-.4Zm-2.3,6.3c0-.4,0-.4.4-.3h.9c.2,0,.3-.3.3-.5l-.8-.2-.5-.3h.1c.2.1.2.2.1.3h-.4l-.2-.3-.3.4c0,.1-.1.1-.2,0s-.1-.1,0-.2a.2.2,0,0,0,0-.3h0l-.3-.2h-.7a2.2,2.2,0,0,0-.5.8,2,2,0,0,1,1.1-.2c.2,0,.3,0,.3.2v.3Zm1.6.2a.4.4,0,0,0,.1.5l.4.8.4.4A5.6,5.6,0,0,0,206.7,165.8Z" transform="translate(0 0)"/><path class="cls-2" d="M196.6,157.9v.2c-.3.4-.4.9-.9,1.1s-.2.2-.1.2h.3c.3-.3.6-.4.7-.8l.4-.5h.6a1.4,1.4,0,0,0-.8,1.4c.2-.2.4-.4.3-.7a.5.5,0,0,1,.2-.4l.3-.2a.4.4,0,0,1,.5.1c.1,0,.1.2.1.3a.4.4,0,0,0,.1.3.5.5,0,0,1,.1.6.2.2,0,0,0,0,.3h0c0,.2,0,.3-.1.4H198c.1.2,0,.3-.1.4h-.3v-.2c0-.1-.2-.3-.1-.5l.2-.2a.7.7,0,0,0,.1-.6l-.3-.2v.2c-.1.2-.1.4-.2.6h-.4v.5h-.5l.2-.5h-.2l-.5.3-.3.2a1.1,1.1,0,0,0,0,1.1l.5.7c0-.3.2-.4.4-.6a.2.2,0,0,0,0-.3h0l.3-.7q.1-.3.3,0h.2c.1,0,.2.1.1.3s0,.2-.1.2h.1l.4-.4a1.3,1.3,0,0,1,.1.6,5,5,0,0,1,.2,1.2h.1a.4.4,0,0,1,.1.3H198c-.2.1-.4.1-.5-.1l.2-.4h-.8l.4.4c.1.2.1.2-.1.3l-.7.2h-.2c-.1.1-.1.3-.2.3a1.2,1.2,0,0,0-.5.5l-.5.6v.2c-.1.1-.2.2-.1.3s.1.2.1.4h-.2a.4.4,0,0,0-.1-.3l-.2-.2c-.2-.2-.4-.1-.5.1h-.3c-.3,0-.4,0-.5.3a1.4,1.4,0,0,0,0,.9l.3.2c.2,0,.3,0,.4-.2s.2-.2.3-.2h.1c-.1.1-.1.3-.2.4s0,.3.2.3h.3a.9.9,0,0,0,.1.5c0,.2.1.2.3.2a.9.9,0,0,0,.7-.3h.2l1,.2c.2,0,.3.2.4.3l.5.2.2.2,1,.6.8.4a.4.4,0,0,1,.1.3l-.3,1.5a.4.4,0,0,1-.1.3,1.2,1.2,0,0,0-.5,1c-.1.2-.1.3-.3.4a2.5,2.5,0,0,1-.1,1.2c-.1.1,0,.2.1.3a.4.4,0,0,1,.1.3h0l-.6-.2h-.1l-.5-.9v-.3c0-.1-.1-.2-.1-.4a.5.5,0,0,0-.2-.4l-.3-1.1a1,1,0,0,0-.5-.6,2.7,2.7,0,0,1-.8-.7l-.2-.2h0a1.1,1.1,0,0,1-.1-1.1.9.9,0,0,0,0-.7h-.2c-.2.2-.4-.1-.6-.2l-.6-.4-.8-.3-.7-.3h-.1l-.4-.9a2.1,2.1,0,0,1-.1-1.1,9.7,9.7,0,0,1,4.6-7.3Z" transform="translate(0 0)"/><path class="cls-2" d="M201.4,156.6l1.1.2c.2.1.2.2.1.3a1.4,1.4,0,0,0-.6,1.2c0,.3,0,.5-.3.7v.2c.1.4.1.5-.3.8l-.4.2a1.6,1.6,0,0,0-.9.5l-.4.6c-.1.2-.1.2-.3.1a1.1,1.1,0,0,1-.2-.8v-.3c0-.2,0-.4.2-.5s.2-.1.1-.3,0-.2,0-.3V159a.5.5,0,0,0,0-.7h-.2c-.2-.1-.2-.2-.2-.4h.1a.5.5,0,0,1,.2-.4h.3c.1,0,.2,0,.2-.2a.3.3,0,0,1,.3-.3h0Z" transform="translate(0 0)"/><path class="cls-2" d="M199.9,156.8h-.1a1.7,1.7,0,0,0-1.1.9c-.1.2-.4.2-.5-.1v-.2l.2-.3h-.1l1.6-.3Z" transform="translate(0 0)"/><path class="cls-2" d="M208.3,170.6a.6.6,0,0,0-.1.4l-.3.8-.3.2c-.1-.1-.2-.3-.1-.4h0l.7-.9Z" transform="translate(0 0)"/><path class="cls-2" d="M194.5,166.9a.9.9,0,0,1,1.1.3H195Z" transform="translate(0 0)"/><path class="cls-2" d="M197.2,157.5h.5a.6.6,0,0,0-.1.4h-.1Z" transform="translate(0 0)"/><path class="cls-2" d="M196.2,167.4h-.7v-.2C195.8,167.2,196.1,167.2,196.2,167.4Z" transform="translate(0 0)"/><path class="cls-2" d="M205.1,165.6l-.7-.3V165c0-.2-.1-.2-.3-.2a2,2,0,0,0-1.1.2,2.2,2.2,0,0,1,.5-.8h.7l.3.2c.1.1.2.2,0,.3s-.1.1,0,.2h.2l.3-.4.2.3h.4c.1-.1.1-.2-.1-.3h-.1l.5.3.8.2c0,.2-.1.5-.3.5h-.9C205.1,165.2,205.1,165.2,205.1,165.6Z" transform="translate(0 0)"/><path class="cls-2" d="M206.7,165.8a5.6,5.6,0,0,1,.9,1.7l-.4-.4-.4-.8A.4.4,0,0,1,206.7,165.8Z" transform="translate(0 0)"/></g><g id="Layer_8" data-name="Layer 8"><circle class="cls-23" cx="200.4" cy="159.6" r="25"/></g></svg>