<svg id="Layer_1" data-name="Layer 1" xmlns="http://www.w3.org/2000/svg" xmlns:xlink="http://www.w3.org/1999/xlink" viewBox="0 0 414.1 442.9"><defs><style>.cls-1,.cls-14,.cls-23,.cls-27{fill:none;}.cls-17,.cls-2,.cls-8{fill:#fff;}.cls-2{opacity:0.7;}.cls-2,.cls-20,.cls-7{isolation:isolate;}.cls-3{fill:#edf2f0;}.cls-4{opacity:0.33;}.cls-5,.cls-7{opacity:0.39;}.cls-6,.cls-7{fill:#f8d100;}.cls-9{clip-path:url(#clip-path);}.cls-10,.cls-25{fill:#ff9a00;}.cls-10,.cls-14,.cls-15,.cls-16,.cls-17,.cls-23{stroke:#263238;}.cls-10,.cls-14,.cls-15,.cls-16,.cls-17,.cls-21,.cls-22,.cls-23,.cls-27{stroke-linecap:round;stroke-linejoin:round;}.cls-11{fill:#92e3a9;}.cls-12{clip-path:url(#clip-path-2);}.cls-13{fill:#efeeed;}.cls-15{fill:#067fc8;}.cls-16{fill:#757575;}.cls-18{fill:#263238;}.cls-19{opacity:0.4;}.cls-20{fill-opacity:0.7;}.cls-20,.cls-26{opacity:0.3;}.cls-21,.cls-22{fill:#fca468;}.cls-21,.cls-22,.cls-27{stroke:#fff;}.cls-21{stroke-width:4px;}.cls-22,.cls-23{stroke-width:3px;}.cls-24{clip-path:url(#clip-path-3);}</style><clipPath id="clip-path" transform="translate(0 0)"><rect class="cls-1" x="155.2" y="42.1" width="238.1" height="232.2" rx="6.9"/></clipPath><clipPath id="clip-path-2" transform="translate(0 0)"><path class="cls-1" d="M247.2,255.9H192a13,13,0,0,1-13-13h0a13,13,0,0,1,13-13h55.2a13,13,0,0,1,13,13h0a13,13,0,0,1-13,13Z"/></clipPath><clipPath id="clip-path-3" transform="translate(0 0)"><path class="cls-1" d="M88.2,374.3c-4.2-3.2-8.2-6.5-12.2-10-5.8-5.1-11.5-10.5-17-16.2a175.2,175.2,0,0,1,5-18.9,25.1,25.1,0,0,1,11.1-13.9h.2l.9-.5,1.7-.8a21.1,21.1,0,0,1,5.5-1.9L87.7,368Z"/></clipPath></defs><title>توصیه بیلیگ</title><g id="Background_Simple" data-name="Background Simple"><path class="cls-2" d="M35.3,138S7.5,210,46.6,282.5,166.5,393.3,231.1,426s131.7,16.8,163.5-36.8-11.8-91.9-11.9-168.4S394.2,124,352.8,59.4s-143.1-78.9-219.9-31S35.3,138,35.3,138Z" transform="translate(0 0)"/><path class="cls-3" d="M2.5,254.3a108,108,0,0,1,5.8-64.5c11.5-28.6,36.4-48.9,64.2-60.7,40.4-17.2,80-17.6,112.9-51.3,10.1-10.4,18.6-22.3,29-32.5,30.5-30,75.2-26.4,108.5-2.6,69.6,49.7,94.6,148.2,90.8,229.5-1.8,36.5-19.2,70.5-46.8,94.5-62.4,54.1-168.4,45-240,16.7C73.4,362.4,15.1,313.2,2.5,254.3Z" transform="translate(0 0)"/></g><g id="Layer_6" data-name="Layer 6" class="cls-4"><g class="cls-5"><path class="cls-6" d="M153.9,146.3l-35.3,34.3,6.1,7.3h.1l16.9-16.4h-.1l18.3-17.8Zm-32.3,34.3,14.7-14.3,3.5,4.2-14.6,14.3ZM157,153.7l-14.7,14.4-3.6-4.4,14.7-14.3Z" transform="translate(0 0)"/><path class="cls-6" d="M135.6,163.9l15.6-15.2L138.8,134l-15.5,15.1Zm-5.5-18.1,5.1-5,1.2,1.4-5.2,5Z" transform="translate(0 0)"/><path class="cls-6" d="M120,179.3l15.5-15.2-12.3-14.7H123l-15.5,15.1,12.3,14.8Zm.6-21.7-5.1,4.9-1.1-1.2,5.1-5Z" transform="translate(0 0)"/></g><g class="cls-5"><path class="cls-6" d="M12.2,353.5" transform="translate(0 0)"/><path class="cls-6" d="M11.4,353.6" transform="translate(0 0)"/><path class="cls-6" d="M11.2,353.8" transform="translate(0 0)"/><path class="cls-6" d="M1.4,376.5" transform="translate(0 0)"/><path class="cls-6" d="M29.9,355.4" transform="translate(0 0)"/><path class="cls-6" d="M1.1,373.8" transform="translate(0 0)"/><path class="cls-6" d="M8.1,370" transform="translate(0 0)"/><path class="cls-6" d="M6,363.5" transform="translate(0 0)"/><path class="cls-6" d="M8.9,388.2" transform="translate(0 0)"/><path class="cls-6" d="M11.5,356.8h-.2c.1-.1.1-.1.2,0Z" transform="translate(0 0)"/><path class="cls-6" d="M2.1,377.1Z" transform="translate(0 0)"/><path class="cls-6" d="M4.3,377.5H4.2c.1,0,.1,0,.1-.1h0Z" transform="translate(0 0)"/><path class="cls-6" d="M21,390.9" transform="translate(0 0)"/><path class="cls-6" d="M10.4,386.2h-.2c0,.1,0,.1.1.1h.1Z" transform="translate(0 0)"/><path class="cls-6" d="M21.3,390.9" transform="translate(0 0)"/><path class="cls-6" d="M21.1,390.9" transform="translate(0 0)"/></g><g class="cls-5"><path class="cls-6" d="M306.1,286.9l-3,6.8,33.5,17.4,3.1-6.9Zm13.1,13.5-14-7.2L307,289l14.1,7.3Zm16.5,8.5-14-7.3,1.8-4.1,14,7.3Z" transform="translate(0 0)"/><polygon class="cls-6" points="321.1 264.8 320.1 253.4 325.8 260.2 326.9 267.9 321.1 264.8"/><polygon class="cls-6" points="346 277.7 354.9 271.4 346.4 270.8 340.2 274.7 346 277.7"/><path class="cls-6" d="M321.1,264.9l-10.5,23.7,25,12.9,10.6-23.7Zm-2.3,18.8v3l-.4-.2-1.2,2.6-1.1-.6,1.2-2.6-.4-.2Zm-2.2-1.1-.2,2.9-.3-.2-1.2,2.7-1.1-.6,1.2-2.6-.4-.2Zm1.2,8.6-6-3,.5-1.1,6,3.1Zm17.8-12.5-8.3-4.3,1-2.2,8.3,4.3Z" transform="translate(0 0)"/></g><path class="cls-7" d="M258.9,397l-15.3-.5-5.5-8.6c.6-.2.9-.5.9-.8a2.3,2.3,0,0,0-2-1.1h-.1l-.4-.6c1-.1,1.7-.5,1.7-1s-.9-1.1-2-1.1l-.9.2-2.5-3.8h-3l3.3,18-10.9,1.2-6.3-6.4v16.8l6.5-6.1,10.7,1.2-3.8,17.2h3.5l1.7-2.6h.5c1.1,0,2-.5,2-1s-.5-.8-1.2-1l.6-1.1h.6c1.1,0,2-.5,2-1s-.5-.9-1.3-1l5.7-9,15.1-.5s3.2-.7,3.3-3.4S258.9,397,258.9,397Z" transform="translate(0 0)"/><g class="cls-5"><path class="cls-6" d="M283.5,331.7l-1.9-3.6,1.9-1.1-6.9-13-1.9,1.1-1.9-3.6a4.6,4.6,0,0,0-6.1-2.2l-.4.2-27.1,16.7a5.4,5.4,0,0,0-1.8,7l10.7,20.3a4.6,4.6,0,0,0,6.1,2.1h.1l.3-.2,27.1-16.6A5.5,5.5,0,0,0,283.5,331.7Zm-32.2,21.1-11.7-22.3,19.5-11.9-2.1,5.7-.7-1.4-.7.4L265,341l.7-.4-8.2-15.4,5-.9-.2-1.3-3.8.7,2.2-6.1,9.1-5.6,2.4,4.7-1.6.9,6.8,13,1.7-.9,2.4,4.6Z" transform="translate(0 0)"/><polygon class="cls-6" points="265.6 317.4 275 335.1 275.7 334.7 266.3 317 265.6 317.4"/><polygon class="cls-6" points="260.9 320.3 270.3 338.1 271 337.6 261.6 319.9 260.9 320.3"/><polygon class="cls-6" points="250.3 326.5 259.7 344.2 260.4 343.8 251 326 250.3 326.5"/></g><path class="cls-7" d="M37.8,165.6c-4.4-1.2-7.6.7-9,3.9L27.7,172l-3.3-1.4a5.9,5.9,0,0,0-7.8,3h0c-.1.1-.1.1-.1.2a6.8,6.8,0,0,0,2.5,8.7l3.1,2-1.7,3.7c-1.4,3.2-.3,7.7,3.8,10.6l24.3,17.6c3,1.6,6.5.2,8-3l13.6-30.3a6.7,6.7,0,0,0-2.8-8.6Zm-19.3,9.3a3.4,3.4,0,0,1,4.3-2.2h.5a4.2,4.2,0,0,1,1.6,5.3,3.6,3.6,0,0,1-4.5,2.2.1.1,0,0,1-.1-.1H20a4.1,4.1,0,0,1-1.5-5.3ZM56.6,198l-6,1.2.7,2.1,3.1,1.6-1,2.2-10.2-5.4.9-2.1,4.9,2.5-2.8-7.2,1.1-2.4,2.6,6.7,7.8-1.6Zm5.5-12.3-.8,1.8-1.1-.6a4.8,4.8,0,0,1-.2,3.7,5,5,0,0,1-1.3,1.9,7.2,7.2,0,0,1-1.9,1.1,5.5,5.5,0,0,1-2.2.2,7.9,7.9,0,0,1-2.2-.6,6.5,6.5,0,0,1-1.8-1.5,8.2,8.2,0,0,1-1.2-2,8.5,8.5,0,0,1-.3-2.3,5.9,5.9,0,0,1,.5-2.3,5,5,0,0,1,1.9-2.4,4.1,4.1,0,0,1,2.4-.8l.3,2.1a4.9,4.9,0,0,0-1.7.6,3.3,3.3,0,0,0-1.1,1.5,3.4,3.4,0,0,0,0,2.8l.8,1.2a2.7,2.7,0,0,0,1.2.9,4.4,4.4,0,0,0,1.5.5h1.4l1.2-.7.8-1.2a4.1,4.1,0,0,0-.1-3.6l-.7-.4-1,2.2-1.5-.7,1.8-4Z" transform="translate(0 0)"/><g class="cls-5"><path class="cls-6" d="M287.5,33a2.9,2.9,0,0,1-1.2-3.5,2.5,2.5,0,0,1,3.1-1.5.1.1,0,0,1,.1.1,2.7,2.7,0,0,1,1.1,3.4,2.3,2.3,0,0,1-2.8,1.6Z" transform="translate(0 0)"/><polygon class="cls-6" points="286.9 29.4 290.3 29.3 290.9 42 289.2 43.3 287.5 42.2 286.9 29.4"/><polygon class="cls-6" points="287 30.8 288.6 28.8 300.7 41 300.9 43.2 299.1 43 287 30.8"/><path class="cls-6" d="M292.4,27.7a9.7,9.7,0,0,1,.1-1.7,3.4,3.4,0,0,1,.5-1.4,2.7,2.7,0,0,1,.9-1.2l1.5-1.2,1.5-.8,1-.6a1.7,1.7,0,0,0,.6-.6.8.8,0,0,0,.2-.7,1.5,1.5,0,0,0-.4-1.1,2.4,2.4,0,0,0-1.4-.5l-.9.2-.7.3-.6.6c-.2.2-.4.3-.5.6l-1.7-2.1a2.3,2.3,0,0,1,.7-.7l1.1-.6,1.4-.5a4.7,4.7,0,0,1,1.7-.2l1.8.2a5.7,5.7,0,0,1,1.3.8,4.4,4.4,0,0,1,.8,1.1,4,4,0,0,1,.3,1.5,3.1,3.1,0,0,1-.3,1.3l-.6,1-.9.7a2.4,2.4,0,0,1-.9.6l-.8.5-.9.6-.8.7-.5.7h5.9v2.5Z" transform="translate(0 0)"/><path class="cls-6" d="M308.8,30.4V27.3h-5.7V24.8l6.5-9.1h1.8v9h1.7v2.6h-1.7v3.1Zm-3.1-5.7h3.4V20Z" transform="translate(0 0)"/><path class="cls-6" d="M324.6,27.7H322V21.5a3.2,3.2,0,0,0-.5-1.9,1.6,1.6,0,0,0-1.3-.6h-.7l-.8.5-.6.7a3,3,0,0,0-.4,1v6.4H315V12.3h2.7v6.4a2.9,2.9,0,0,1,1.5-1.6,3.9,3.9,0,0,1,2.1-.6,4.7,4.7,0,0,1,1.7.3,2.8,2.8,0,0,1,.9,1,2.4,2.4,0,0,1,.5,1.4,8.8,8.8,0,0,1,.2,1.6Z" transform="translate(0 0)"/><path class="cls-6" d="M313.1,39.5l-.6-2.7c0-.1.1-.2.1-.3h-.1l-.7-3.4L307,37.7l.9.2c-2.8,7.4-9.5,12.6-17.3,12.6-10.3,0-18.7-9-18.7-20.2s8.4-20.2,18.7-20.2a17.1,17.1,0,0,1,7.1,1.6l-.6.8,6.3.4L300.8,7l-.7,1.1a20.8,20.8,0,0,0-9.5-2.3c-12.5,0-22.7,11-22.7,24.5s10.2,24.5,22.7,24.5c9.7,0,17.9-6.5,21.2-15.7Z" transform="translate(0 0)"/></g><g class="cls-5"><path class="cls-6" d="M31,271.3a14.8,14.8,0,0,1,3.1,5.3,15.3,15.3,0,0,1,1.2,6,16.9,16.9,0,0,1-1.3,6.3,19.7,19.7,0,0,1-4.1,5.8l-1.2,1.1-1.6,1.3L25,298.2a7.9,7.9,0,0,1-2.2.6,8.3,8.3,0,0,1-2.2-.3,6.5,6.5,0,0,1-2.1-1.6,4.2,4.2,0,0,1-1-1.7,2.6,2.6,0,0,1-.2-1.5,2.8,2.8,0,0,1,.3-1.3l.7-1.1a7.4,7.4,0,0,1-3.6-.9,10.7,10.7,0,0,1-3.1-2.5,7,7,0,0,1-2-4.9,6.3,6.3,0,0,1,1.9-4.3,6.4,6.4,0,0,1,2.5-1.5,5.7,5.7,0,0,1,2.6,0,12,12,0,0,1,4.5,3.2,22,22,0,0,1,1.7,2.5c.4.7.6,1.4.8,1.8a10.1,10.1,0,0,0,1.3-1.6,4,4,0,0,0,.7-1.8,4.1,4.1,0,0,0-.2-1.9,8.6,8.6,0,0,0-1.3-2,12.1,12.1,0,0,0-2.4-2.1c-.9-.5-3-3.9-1.2-3.9s4.5,2,6.3,4.1a9.4,9.4,0,0,1,2.2,3.9,5.8,5.8,0,0,1,0,3.2,7.2,7.2,0,0,1-1.5,2.7,22,22,0,0,1-2,2.3l-2.9,2.9-1.2,1.3a3.8,3.8,0,0,0-.9,1.3,2.8,2.8,0,0,0-.4,1.2,1.8,1.8,0,0,0,.5,1.2,2.3,2.3,0,0,0,1.8.8,4.3,4.3,0,0,0,2.2-.6,10.2,10.2,0,0,0,2.2-1.4l1.6-1.4a12.7,12.7,0,0,0,3.2-4.7,13.3,13.3,0,0,0,1.3-5.2,13.8,13.8,0,0,0-3.6-10.2,16.1,16.1,0,0,0-4.3-3.5,11.5,11.5,0,0,0-4.8-1.3,10.2,10.2,0,0,0-4.9.9,13.7,13.7,0,0,0-4.5,3,15.7,15.7,0,0,0-3.1,4.5,12.9,12.9,0,0,0-1.4,5.1,13.1,13.1,0,0,0,.7,5.2,12.7,12.7,0,0,0,2.7,4.8,12,12,0,0,0,2.6,2.4c.9.6,2.5.1,2.9,1.6s-2.7,1.6-4.4.2A34.5,34.5,0,0,1,8,293.1a16.2,16.2,0,0,1-3.1-5.4,20.3,20.3,0,0,1-.9-6,18.1,18.1,0,0,1,5.3-11.6,16.1,16.1,0,0,1,5.6-3.7,12.6,12.6,0,0,1,5.8-.8,13.7,13.7,0,0,1,5.6,1.8A16.1,16.1,0,0,1,31,271.3Zm-14.1,17a3.4,3.4,0,0,0,2,.3,2.6,2.6,0,0,0,1.6-.9l1.1-1.1a14.2,14.2,0,0,0-.8-1.8,13.2,13.2,0,0,0-1.6-2.5,5.8,5.8,0,0,0-2.7-1.9,2.5,2.5,0,0,0-2.7.8,3.3,3.3,0,0,0-1,2.3,4,4,0,0,0,1,2.6l1.4,1.2A5.9,5.9,0,0,0,16.9,288.3Z" transform="translate(0 0)"/></g><g class="cls-5"><path class="cls-6" d="M367,330c0-.1,0-.1-.1-.1h.1Z" transform="translate(0 0)"/><path class="cls-6" d="M366.2,330.1" transform="translate(0 0)"/><path class="cls-6" d="M366,330.3" transform="translate(0 0)"/><path class="cls-6" d="M356.1,353" transform="translate(0 0)"/><path class="cls-6" d="M384.6,331.9" transform="translate(0 0)"/><path class="cls-6" d="M355.8,350.4" transform="translate(0 0)"/><path class="cls-6" d="M362.8,346.5" transform="translate(0 0)"/><path class="cls-6" d="M360.7,340" transform="translate(0 0)"/><path class="cls-6" d="M363.6,364.8" transform="translate(0 0)"/><path class="cls-6" d="M366.2,333.3h.1c-.1,0-.1,0-.1-.1h0Z" transform="translate(0 0)"/><path class="cls-6" d="M356.9,353.7" transform="translate(0 0)"/><path class="cls-6" d="M359,354" transform="translate(0 0)"/><path class="cls-6" d="M375.8,367.4" transform="translate(0 0)"/><path class="cls-6" d="M365.1,362.7" transform="translate(0 0)"/><path class="cls-6" d="M376,367.4" transform="translate(0 0)"/><path class="cls-6" d="M375.9,367.4" transform="translate(0 0)"/></g></g><g id="Interface"><path class="cls-8" d="M162,42H386.3a6.9,6.9,0,0,1,6.9,6.9V267.3a6.9,6.9,0,0,1-6.9,6.9H162a6.9,6.9,0,0,1-6.9-6.9V48.9A6.9,6.9,0,0,1,162,42Z" transform="translate(0 0)"/><g class="cls-9"><path class="cls-10" d="M356.4,255.9H301.2a13,13,0,0,1-13-13h0a13,13,0,0,1,13-13h55.2a13,13,0,0,1,13,13h0a13,13,0,0,1-13,13Z" transform="translate(0 0)"/><path class="cls-11" d="M247.2,255.9H192a13,13,0,0,1-13-13h0a13,13,0,0,1,13-13h55.2a13,13,0,0,1,13,13h0a13,13,0,0,1-13,13Z" transform="translate(0 0)"/><g class="cls-12"><path class="cls-13" d="M247.2,255.9H192a13,13,0,0,1-13-13h0a13,13,0,0,1,13-13h55.2a13,13,0,0,1,13,13h0a13,13,0,0,1-13,13Z" transform="translate(0 0)"/></g><path class="cls-14" d="M247.2,255.9H192a13,13,0,0,1-13-13h0a13,13,0,0,1,13-13h55.2a13,13,0,0,1,13,13h0a13,13,0,0,1-13,13Z" transform="translate(0 0)"/><path class="cls-15" d="M321.5,112.1a46.1,46.1,0,0,1-8,26.4,47.5,47.5,0,1,1,8-26.4Z" transform="translate(0 0)"/><path class="cls-16" d="M313.5,138.5a47.3,47.3,0,0,1-65.7,12.8h-.1A46.1,46.1,0,0,1,236,140l.9-1.4c1.7-2.9,12.4-7.4,27.5-9.1,3.2-.3,6.7-.6,10.3-.6a82.7,82.7,0,0,1,11.1.7C298.9,131.2,309.8,135.5,313.5,138.5Z" transform="translate(0 0)"/><path class="cls-17" d="M286.9,130.7a13.5,13.5,0,0,1-11.9,6.7c-6.9,0-12-6-12-6,2.4-2.2,2.6-6.3,2.2-9.5a34,34,0,0,0-.9-4.6h20.8c-1.2,4.1-1.2,7.1-.7,9.2A6.8,6.8,0,0,0,286.9,130.7Z" transform="translate(0 0)"/><path class="cls-18" d="M284.4,126.5c-15,4-18-4.6-18-4.6h-1.2a34,34,0,0,0-.9-4.6h20.8C283.9,121.4,283.9,124.4,284.4,126.5Z" transform="translate(0 0)"/><path class="cls-17" d="M289.7,102.7s1.7-1.9,2.5-1.3a4.1,4.1,0,0,1,1.3,3.9c-.4,1.5-2.4,4.2-2.5,5.8s-1.2,3.4-2.3,2.3S289.7,102.7,289.7,102.7Z" transform="translate(0 0)"/><path class="cls-17" d="M259.8,102.7s-1.7-1.9-2.5-1.3a4.1,4.1,0,0,0-1.4,3.9c.5,1.5,2.4,4.2,2.6,5.8s1.1,3.4,2.3,2.3S259.8,102.7,259.8,102.7Z" transform="translate(0 0)"/><path class="cls-17" d="M274.4,81.6c21.1,0,16.1,28.1,12.2,37.1-1.4,3.2-8.4,7.3-11.9,7.3s-10.4-4.9-11.7-7.9C259.1,109,254.3,81.6,274.4,81.6Z" transform="translate(0 0)"/><path class="cls-14" d="M278,98.9s5.5-1.7,7.1,1.7" transform="translate(0 0)"/><path class="cls-18" d="M282,103.6c0,.6-.3,1.1-.7,1.1s-.7-.5-.7-1.1.3-1.2.7-1.2S282,102.9,282,103.6Z" transform="translate(0 0)"/><path class="cls-14" d="M271.5,98.9s-5.5-1.7-7.2,1.7" transform="translate(0 0)"/><path class="cls-18" d="M267.4,103.6c0,.6.4,1.1.8,1.1s.7-.5.7-1.1-.3-1.2-.7-1.2S267.4,102.9,267.4,103.6Z" transform="translate(0 0)"/><path class="cls-18" d="M283.1,88.8a26.4,26.4,0,0,1-16.2,0s-2.9-.2-4,1.2,0,5.9.3,7.7-2.5,3-2.1,7.6l-1.1,1.6s-3-7.4-2.2-13.7,4.7-8.7,4.7-8.7,1.8-5.4,12.4-5.4,12.6,6.3,12.6,6.3,7.8,5.1,2.1,22l-1.3-2.1a9.6,9.6,0,0,0-1.4-6.4c-1-1.5.6-5.8.2-8.1S283.1,88.8,283.1,88.8Z" transform="translate(0 0)"/><path class="cls-14" d="M276,102.4s.1,5.1,1.4,6.8-.7,2.7-2.7,3" transform="translate(0 0)"/><path class="cls-17" d="M270.1,115.2a3.9,3.9,0,0,0,2,2.5c1.4.6,5.8.4,6.6-.1a5,5,0,0,0,1.3-2.2" transform="translate(0 0)"/><path class="cls-14" d="M269.7,115.1a25.1,25.1,0,0,0,10.9,0" transform="translate(0 0)"/><path class="cls-18" d="M285.1,89s-2.3,3.5-10.1,4.2a5.2,5.2,0,0,0,1.4-1.9,10.9,10.9,0,0,1-8.2,1.9,8.7,8.7,0,0,0-7.9,3.3l-1.3,5.9s-4.6-5.3-1.3-13.7l-1.2,1s1.3-11.2,14.8-11.6l-1.6-1s13.4-2.9,18.7,6c0,0,4.7.9,5.8,9l-1.3-.9s2.1,6.7-2.2,12.4C290.7,103.6,285.1,94.7,285.1,89Z" transform="translate(0 0)"/><path class="cls-13" d="M334.4,173.4H216.6c-1.7,0-3-1-3-2.2h0c0-1.3,1.3-2.2,3-2.2H334.4c1.7,0,3,.9,3,2.2h0C337.4,172.4,336.1,173.4,334.4,173.4Z" transform="translate(0 0)"/><g class="cls-19"><path class="cls-13" d="M301.9,198.8H246c-.3,0-.6-1-.6-2.3h0c0-1.2.3-2.3.6-2.3h55.9c.4,0,.7,1.1.7,2.3h0C302.6,197.8,302.3,198.8,301.9,198.8Z" transform="translate(0 0)"/><path class="cls-13" d="M314.7,215.9h-81a1.2,1.2,0,0,1-1.2-1.2h0a1.2,1.2,0,0,1,1.2-1.2h81a1.2,1.2,0,0,1,1.2,1.2h0a1.2,1.2,0,0,1-1.2,1.2Z" transform="translate(0 0)"/></g><path class="cls-13" d="M386.6,53.2A4.7,4.7,0,0,1,382,58h-.3a4.7,4.7,0,0,1-4.8-4.6h0v-.2a4.7,4.7,0,0,1,4.5-4.9h.3A4.9,4.9,0,0,1,386.6,53.2Z" transform="translate(0 0)"/><path class="cls-13" d="M372.6,53.2A4.7,4.7,0,0,1,368,58h-.3a4.7,4.7,0,0,1-4.8-4.6h0v-.2a4.7,4.7,0,0,1,4.5-4.9h.3A4.9,4.9,0,0,1,372.6,53.2Z" transform="translate(0 0)"/><path class="cls-20" d="M293.9,249.9s6.2,1.3,6.4,5.9c.5,9.8.5,10.1-6.4,9.2,0,0-4.1,5.7-14.2,4.1l-3.5,5.2H258.4c4.9-5.9,8.9-10.8,10.6-13.2,6.4-8.5,36.3-21,36.3-21S305.2,243.4,293.9,249.9Z" transform="translate(0 0)"/></g><path class="cls-14" d="M162,42H386.3a6.9,6.9,0,0,1,6.9,6.9V267.3a6.9,6.9,0,0,1-6.9,6.9H162a6.9,6.9,0,0,1-6.9-6.9V48.9A6.9,6.9,0,0,1,162,42Z" transform="translate(0 0)"/><polygon class="cls-18" points="223.7 234.8 218.5 240 213.3 234.8 210.2 237.9 215.4 243.1 210.2 248.3 213.3 251.4 218.5 246.2 223.7 251.4 226.8 248.3 221.6 243.1 226.8 237.9 223.7 234.8"/><path class="cls-21" d="M323.4,250.4" transform="translate(0 0)"/><path class="cls-22" d="M234.1,240.5" transform="translate(0 0)"/><line class="cls-23" x1="318.9" y1="244" x2="323.6" y2="249.6"/><line class="cls-23" x1="337.3" y1="236" x2="324" y2="249.2"/></g><g id="Character"><path class="cls-17" d="M68.6,415s1.8-12.8,3.1-18,9-25.8,10.6-37.2L62.6,344.1s-7.4,38.3-7.4,44.4l-4.1,13.1" transform="translate(0 0)"/><path class="cls-11" d="M88.2,374.3c-4.2-3.2-8.2-6.5-12.2-10-5.8-5.1-11.5-10.5-17-16.2a175.2,175.2,0,0,1,5-18.9,25.1,25.1,0,0,1,11.1-13.9h.2l.9-.5,1.7-.8a21.1,21.1,0,0,1,5.5-1.9L87.7,368Z" transform="translate(0 0)"/><g class="cls-24"><path class="cls-25" d="M88.2,374.3c-4.2-3.2-8.2-6.5-12.2-10-5.8-5.1-11.5-10.5-17-16.2a175.2,175.2,0,0,1,5-18.9,25.1,25.1,0,0,1,11.1-13.9h.2l.9-.5,1.7-.8a21.1,21.1,0,0,1,5.5-1.9L87.7,368Z" transform="translate(0 0)"/></g><path class="cls-14" d="M88.2,374.3c-4.2-3.2-8.2-6.5-12.2-10-5.8-5.1-11.5-10.5-17-16.2a175.2,175.2,0,0,1,5-18.9,25.1,25.1,0,0,1,11.1-13.9h.2l.9-.5,1.7-.8a21.1,21.1,0,0,1,5.5-1.9L87.7,368Z" transform="translate(0 0)"/><path class="cls-14" d="M67.6,343.2s2.3,15.6,12.9,21.6" transform="translate(0 0)"/><path class="cls-25" d="M173.5,355.9c0,8-6.5,40.3-6.5,40.3l-.2,28.5s-13.5,4.4-35.3,4.4c-26.6,0-38.4-7.1-39.4-7.8H92l3.9-19.7S75,352,74.5,350.3a64.1,64.1,0,0,1-1.6-7.6c-1.1-6.3-1.6-12.5-.9-17.8a24.9,24.9,0,0,1,2.9-9.6,2.1,2.1,0,0,1,.4-.6,15,15,0,0,1,1.9-2.5V312l2.2-1.8h0l.7-.5.7-.5.4-.3.6-.3.8-.5c15.8-8.7,45.2-7.4,45.2-7.4l.9-.2h.1a5.5,5.5,0,0,1,1.8.2c7.3,1.4,20.7,13.3,30.6,26.9a79.6,79.6,0,0,1,7.8,12.8C171.8,345.9,173.5,351.3,173.5,355.9Z" transform="translate(0 0)"/><path class="cls-20" d="M173.3,353.2a54,54,0,0,1-14.8-7.4c-7.1,1.3-14-5.7-15.7-9.5l23.2-1.5a61.2,61.2,0,0,1,3.1,5.6A41,41,0,0,1,173.3,353.2Z" transform="translate(0 0)"/><path class="cls-20" d="M100.7,406.7s5.2,22.3-8.6,14.6H92l3.9-19.7S75,352,74.5,350.3a64.1,64.1,0,0,1-1.6-7.6c-1.1-6.3-1.6-12.5-.9-17.8a24.9,24.9,0,0,1,2.9-9.6,2.1,2.1,0,0,1,.4-.6,15,15,0,0,1,1.9-2.5V312l2.2-1.8h0l.7-.5.7-.5.4-.3.6-.3.8-.5c14.5,1.1,30.7,8,33.8,22.1,0,0-1.3,21.7-6.1,29.6-2.9,4.9-3.9,27.9,10.7,21.3C116.5,404.1,100.7,406.7,100.7,406.7Z" transform="translate(0 0)"/><path class="cls-14" d="M92,421.3l3.9-19.7S75,352,74.5,350.3a64.1,64.1,0,0,1-1.6-7.6c-1.1-6.3-1.6-12.5-.9-17.8a24.9,24.9,0,0,1,2.9-9.6,2.1,2.1,0,0,1,.4-.6,15,15,0,0,1,1.9-2.5V312l2.2-1.8h0c14.5-11,48.4-9.5,48.4-9.5l.9-.2h.1a5.5,5.5,0,0,1,1.8.2c7.3,1.4,20.7,13.3,30.6,26.9a79.6,79.6,0,0,1,7.8,12.8c2.7,5.5,4.4,10.9,4.4,15.5,0,8-6.5,40.3-6.5,40.3l-.2,28.5" transform="translate(0 0)"/><path class="cls-17" d="M142.5,255.5c-1.2-1.5-6.5-5-6.5-5-1-6.9-1.6-16.1-8.7-23.3-9.8-9.8-32.4-6.7-39.8,7.9-14.8,29.1,13.1,56.5,47.3,50.7,2.9-.5,4.9-3.3,5.3-16.8l.9-1.9s-1-3.3-1.3-4.9C141.5,260.5,143.4,256.5,142.5,255.5Z" transform="translate(0 0)"/><path class="cls-14" d="M134.1,239.7a14.9,14.9,0,0,0-1.9,4.5" transform="translate(0 0)"/><path class="cls-14" d="M134.7,252.7s2.3,1.4,3.4,5.9" transform="translate(0 0)"/><path class="cls-14" d="M140.7,267.7s-1,1.5-4.8,1.1" transform="translate(0 0)"/><path class="cls-18" d="M130.5,223.4s9-3.7,6.4,13.9-15.6,38.5-26.6,34.6l.2-1.6s9.6,3.8,17.7-12.9,7.4-31.9,2.8-29.3Z" transform="translate(0 0)"/><path class="cls-18" d="M129.7,250.7s-3.4,9.1-6.2,11.9c0,0-1.1-3.4-3.7-3.5s-5.1-7-5.1-7Z" transform="translate(0 0)"/><path class="cls-18" d="M126,251.1s-6.3,15.4-1.7,27.3S142,299.2,142,299.2l-4.2-1.9s-11.1-7.2-15-19.9a46.3,46.3,0,0,1-.1-24.5Z" transform="translate(0 0)"/><path class="cls-18" d="M73.9,230.6s-10.5,4.3-9.9,19.9,11.2,29.2,13.4,49.1c1.9,17.3-17,32.5,2.1,52.8,0,0-8.4-13-5.8-27.6s11.3-12.4,4.8-36.1S58.2,251,72.5,236Z" transform="translate(0 0)"/><path class="cls-18" d="M135.3,295.3c-19.2-10.8-14-33.7-14-33.7,14.5-10.7,16.4-30.7,13.8-35.8s-8.5-3.4-8.5-3.4c-23.1-11-51.5-.8-56.9,15.4-6.9,20.7,4.9,36.6,10.7,54,5.2,15.6-6.8,18.5-6.8,34-2.3,29,27.5,41.2,27.5,41.2a5.4,5.4,0,0,1-2.6-4.6c0-3.2,8.1-3.2,13.5-12.1s4.7-25.5,6.2-34.2,4.5-14.2,9.7-15.4c13.6-3,25.4,10.2,25.4,10.2S154.6,306,135.3,295.3Z" transform="translate(0 0)"/><g class="cls-26"><path class="cls-27" d="M129.7,225.5c2.1,3.7-13.7,23.2-19.4,40.1s.1,26.8.1,26.8" transform="translate(0 0)"/><path class="cls-27" d="M94.4,230.6S77.2,245.4,87,272.4s5.4,45.6,2.2,60.2-.6,19.5,3.3,23.5" transform="translate(0 0)"/><path class="cls-27" d="M116,275.2s9.2,10.3,2.9,25.3-9.8,25.7-12.1,37.3-7.7,14.6-7.7,14.6" transform="translate(0 0)"/><path class="cls-27" d="M116.5,223.1s-9.5-.5-14,11.7-.2,33.1-1.8,40.4" transform="translate(0 0)"/><path class="cls-27" d="M92,223.1s-13.9.5-18.4,19.8,8.9,35.4,10.4,50.4-7.1,28.9-6.5,39.3S84,348.4,84,348.4" transform="translate(0 0)"/></g><path class="cls-17" d="M179,302.3s30.5,2.2,34.8,2.2,44.7-39.9,51.9-47.8,37.9-17.8,37.9-17.8-.4,3.3-12.2,8.7c0,0,6.1,1.9,5.9,6.5-.4,9.8-.4,10.1-7.2,8.6,0,0-4.7,5.3-14.6,2.8,0,0-23.7,29.5-34.2,43s-14.8,17.9-18.8,19.4-52.2,4.7-52.2,4.7Z" transform="translate(0 0)"/><path class="cls-10" d="M140.7,338.2c15.8,9.8,42.3-2.4,42.3-2.4s4.7-21.5,0-35.3c0,0-33.3-6.5-51.5-.2a7.4,7.4,0,0,0-4.2,4.1" transform="translate(0 0)"/><path class="cls-14" d="M178.8,299.8a79.8,79.8,0,0,1,.6,33.7" transform="translate(0 0)"/><path class="cls-14" d="M173.5,313.6s-11,17.9-25.1,20.6" transform="translate(0 0)"/><path class="cls-14" d="M163.3,341.5s-7.4,8.6-16.3,8.6" transform="translate(0 0)"/><path class="cls-14" d="M156.2,342a7,7,0,0,1,0,5.3h0s1.3,5.2-1.1,12.7c-1.7,5.6-1.6,21.3-2.4,32.3a186.4,186.4,0,0,1,2.4,33.4" transform="translate(0 0)"/><path class="cls-14" d="M139.3,298.4s13.6-.9,21.6,8.6" transform="translate(0 0)"/><path class="cls-14" d="M294.8,256.8s-1.9,3.4-4.3,4.2c0,0-.2,3.6-6.2,4.9" transform="translate(0 0)"/><path class="cls-14" d="M293.2,259.1a2.4,2.4,0,0,1,1.2,1.4" transform="translate(0 0)"/><path class="cls-14" d="M95.9,401.6s14.1,18.3,27.5,11.7" transform="translate(0 0)"/><path class="cls-14" d="M131.5,363.6s-9.5,29.1-30.8,27.8" transform="translate(0 0)"/></g></svg>