<svg xmlns="http://www.w3.org/2000/svg" xmlns:xlink="http://www.w3.org/1999/xlink" viewBox="0 0 414 443"><defs><style>.cls-1,.cls-3,.cls-8{fill:#fff;}.cls-1,.cls-10,.cls-13,.cls-14,.cls-15,.cls-2{stroke:#263238;}.cls-1,.cls-10,.cls-13,.cls-14,.cls-15,.cls-19,.cls-2,.cls-20,.cls-21,.cls-26{stroke-linecap:round;stroke-linejoin:round;}.cls-11,.cls-2{fill:#92e3a9;}.cls-3{opacity:0.7;}.cls-4{fill:#efeeed;}.cls-5,.cls-7{opacity:0.39;}.cls-6,.cls-7{fill:#e6a26b;}.cls-9{clip-path:url(#clip-path);}.cls-10,.cls-19,.cls-20,.cls-24{fill:#fca468;}.cls-12{clip-path:url(#clip-path-2);}.cls-13,.cls-21,.cls-26{fill:none;}.cls-14{fill:#46a0ae;}.cls-15{fill:#757575;}.cls-16{fill:#263238;}.cls-17{opacity:0.4;}.cls-18{fill-opacity:0.7;}.cls-18,.cls-25{opacity:0.3;}.cls-19,.cls-20,.cls-21,.cls-26{stroke:#fff;}.cls-19{stroke-width:4px;}.cls-20,.cls-21{stroke-width:3px;}.cls-22{clip-path:url(#clip-path-3);}.cls-23{fill:#ef9d65;}</style><clipPath id="clip-path" transform="translate(-32.6 -29.1)"><rect class="cls-1" x="187.8" y="71.2" width="238.1" height="232.2" rx="6.9"/></clipPath><clipPath id="clip-path-2" transform="translate(-32.6 -29.1)"><path class="cls-2" d="M279.8,285H224.6a13,13,0,0,1-13-13h0a13,13,0,0,1,13-13h55.2a13,13,0,0,1,13,13h0A13,13,0,0,1,279.8,285Z"/></clipPath><clipPath id="clip-path-3" transform="translate(-32.6 -29.1)"><path class="cls-2" d="M120.8,403.4c-4.2-3.2-8.2-6.5-12.2-10-5.8-5.1-11.5-10.5-17-16.2a189.9,189.9,0,0,1,5-18.9,24.8,24.8,0,0,1,11.1-13.9h.2l.9-.5,1.7-.8a22.5,22.5,0,0,1,5.5-1.9l4.3,55.9Z"/></clipPath></defs><title>توصیه بیلیگ</title><g id="Background_Simple" data-name="Background Simple"><path class="cls-3" d="M67.9,167.1s-27.8,72,11.3,144.5S199.1,422.4,263.7,455.1s131.7,16.8,163.5-36.8-11.8-91.9-11.9-168.4,11.5-96.8-29.9-161.4S242.3,9.6,165.5,57.5,67.9,167.1,67.9,167.1Z" transform="translate(-32.6 -29.1)"/><path class="cls-4" d="M35.1,283.4a108.2,108.2,0,0,1,5.8-64.5c11.5-28.6,36.4-48.9,64.2-60.7,40.4-17.2,80-17.6,112.9-51.3,10.1-10.4,18.6-22.3,29-32.5,30.5-30,75.2-26.4,108.5-2.6,69.6,49.7,94.6,148.2,90.8,229.5-1.8,36.5-19.2,70.5-46.8,94.5-62.4,54.1-168.4,45-240,16.7C106,391.5,47.7,342.3,35.1,283.4Z" transform="translate(-32.6 -29.1)"/></g><g id="Layer_6" data-name="Layer 6"><g class="cls-5"><path class="cls-6" d="M186.5,175.4l-35.3,34.3,6.1,7.3h.1l16.9-16.4h-.1l18.3-17.8Zm-32.3,34.3,14.7-14.3,3.5,4.2-14.6,14.3Zm35.4-26.9-14.7,14.4-3.6-4.4L186,178.5Z" transform="translate(-32.6 -29.1)"/><path class="cls-6" d="M168.2,193l15.6-15.2-12.4-14.7-15.5,15.1Zm-5.5-18.1,5.1-5,1.2,1.4-5.2,5Z" transform="translate(-32.6 -29.1)"/><path class="cls-6" d="M152.6,208.4l15.5-15.2-12.3-14.7h-.2l-15.5,15.1,12.3,14.8h.2Zm.6-21.7-5.1,4.9-1.1-1.2,5.1-5Z" transform="translate(-32.6 -29.1)"/></g><g class="cls-5"><path class="cls-6" d="M44.8,382.6h0Z" transform="translate(-32.6 -29.1)"/><path class="cls-6" d="M44,382.7Z" transform="translate(-32.6 -29.1)"/><path class="cls-6" d="M43.8,382.9Z" transform="translate(-32.6 -29.1)"/><path class="cls-6" d="M34,405.6Z" transform="translate(-32.6 -29.1)"/><path class="cls-6" d="M62.5,384.5h0Z" transform="translate(-32.6 -29.1)"/><path class="cls-6" d="M33.7,402.9h0Z" transform="translate(-32.6 -29.1)"/><path class="cls-6" d="M40.7,399.1Z" transform="translate(-32.6 -29.1)"/><path class="cls-6" d="M38.6,392.6Z" transform="translate(-32.6 -29.1)"/><path class="cls-6" d="M41.5,417.3Z" transform="translate(-32.6 -29.1)"/><path class="cls-6" d="M44.1,385.9h-.2c.1-.1.1-.1.1,0h.1Z" transform="translate(-32.6 -29.1)"/><path class="cls-6" d="M34.7,406.2c0,.1,0,.1.1.1h-.1Z" transform="translate(-32.6 -29.1)"/><path class="cls-6" d="M36.9,406.6h-.1a.1.1,0,0,0,.1-.1h0Z" transform="translate(-32.6 -29.1)"/><path class="cls-6" d="M53.6,420Z" transform="translate(-32.6 -29.1)"/><path class="cls-6" d="M43,415.3h-.2a.1.1,0,0,0,.1.1H43Z" transform="translate(-32.6 -29.1)"/><path class="cls-6" d="M53.9,420Z" transform="translate(-32.6 -29.1)"/><path class="cls-6" d="M53.7,420Z" transform="translate(-32.6 -29.1)"/></g><g class="cls-5"><path class="cls-6" d="M338.7,316l-3,6.8,33.5,17.4,3.1-6.9Zm13.1,13.5-14-7.2,1.8-4.2,14.1,7.3Zm16.5,8.5-14-7.3,1.8-4.1,14,7.3Z" transform="translate(-32.6 -29.1)"/><polygon class="cls-6" points="321.1 264.8 320.1 253.4 325.8 260.2 326.9 267.9 321.1 264.8"/><polygon class="cls-6" points="346 277.7 354.9 271.4 346.4 270.8 340.2 274.7 346 277.7"/><path class="cls-6" d="M353.7,294l-10.5,23.7,25,12.9,10.6-23.7Zm-2.3,18.8v3l-.4-.2-1.2,2.6-1.1-.6,1.2-2.6-.4-.2Zm-2.2-1.1-.2,2.9-.3-.2-1.2,2.7-1.1-.6,1.2-2.6-.4-.2Zm1.2,8.6-6-3,.5-1.1,6,3.1Zm17.8-12.5-8.3-4.3,1-2.2,8.3,4.3Z" transform="translate(-32.6 -29.1)"/></g><path class="cls-7" d="M291.5,426.1l-15.3-.5-5.5-8.6c.6-.2.9-.5.9-.8s-.9-1.1-2-1.1h-.1l-.4-.6c1-.1,1.7-.5,1.7-1s-.9-1.1-2-1.1l-.9.2-2.5-3.8h-3l3.3,18L254.8,428l-6.3-6.4v16.8l6.5-6.1,10.7,1.2-3.8,17.2h3.5l1.7-2.6h.5c1.1,0,2-.5,2-1s-.5-.8-1.2-1l.6-1.1h.6c1.1,0,2-.5,2-1s-.5-.9-1.3-1l5.7-9,15.1-.5s3.2-.7,3.3-3.4S291.5,426.1,291.5,426.1Z" transform="translate(-32.6 -29.1)"/><g class="cls-5"><path class="cls-6" d="M316.1,360.8l-1.9-3.6,1.9-1.1-6.9-13-1.9,1.1-1.9-3.6a4.6,4.6,0,0,0-6.5-2l-27.1,16.7a5.3,5.3,0,0,0-1.8,7l10.7,20.3a4.6,4.6,0,0,0,6.5,1.9l27.1-16.6A5.5,5.5,0,0,0,316.1,360.8Zm-32.2,21.1-11.7-22.3,19.5-11.9-2.1,5.7-.7-1.4-.7.4,9.4,17.7.7-.4-8.2-15.4,5-.9-.2-1.3-3.8.7,2.2-6.1,9.1-5.6,2.4,4.7-1.6.9,6.8,13,1.7-.9,2.4,4.6Z" transform="translate(-32.6 -29.1)"/><polygon class="cls-6" points="265.6 317.4 275 335.1 275.7 334.7 266.3 317 265.6 317.4"/><polygon class="cls-6" points="260.9 320.3 270.3 338.1 271 337.6 261.6 319.9 260.9 320.3"/><polygon class="cls-6" points="250.3 326.5 259.7 344.2 260.4 343.8 251 326 250.3 326.5"/></g><path class="cls-7" d="M70.4,194.7c-4.4-1.2-7.6.7-9,3.9l-1.1,2.5a35.4,35.4,0,0,1-3.3-1.4,5.9,5.9,0,0,0-7.9,3.2,6.8,6.8,0,0,0,2.5,8.7l3.1,2L53,217.3c-1.4,3.2-.3,7.7,3.8,10.6l24.3,17.6c3,1.6,6.5.2,8-3l13.6-30.3a6.7,6.7,0,0,0-2.8-8.6ZM51.1,204a3.5,3.5,0,0,1,4.8-2,4.1,4.1,0,0,1,1.6,5.3,3.6,3.6,0,0,1-4.9,2A4.1,4.1,0,0,1,51.1,204Zm38.1,23.1-6,1.2.7,2.1L87,232l-1,2.2-10.2-5.4.9-2.1,4.9,2.5L78.8,222l1.1-2.4,2.6,6.7,7.8-1.6Zm5.5-12.3-.8,1.8-1.1-.6a4.7,4.7,0,0,1-.2,3.7,4.3,4.3,0,0,1-1.3,1.9,7.2,7.2,0,0,1-1.9,1.1,5.3,5.3,0,0,1-2.2.2,6,6,0,0,1-2.2-.6,6.5,6.5,0,0,1-1.8-1.5,8.2,8.2,0,0,1-1.2-2,8.5,8.5,0,0,1-.3-2.3,5.9,5.9,0,0,1,.5-2.3,5.2,5.2,0,0,1,1.9-2.4,4.1,4.1,0,0,1,2.4-.8l.3,2.1a4.9,4.9,0,0,0-1.7.6,3.3,3.3,0,0,0-1.1,1.5,3.2,3.2,0,0,0-.3,1.4A3.5,3.5,0,0,0,84,218a4.2,4.2,0,0,0,.8,1.2,2.7,2.7,0,0,0,1.2.9,4.4,4.4,0,0,0,1.5.5h1.4l1.2-.7a3.6,3.6,0,0,0,.8-1.2,4.1,4.1,0,0,0-.1-3.6l-.7-.4-1,2.2-1.5-.7,1.8-4Z" transform="translate(-32.6 -29.1)"/><g class="cls-5"><path class="cls-6" d="M320.1,62.1a2.8,2.8,0,0,1-1.2-3.5,2.5,2.5,0,0,1,3.2-1.4,2.7,2.7,0,0,1,1.1,3.4A2.3,2.3,0,0,1,320.1,62.1Z" transform="translate(-32.6 -29.1)"/><polygon class="cls-6" points="286.9 29.4 290.3 29.3 290.9 42 289.2 43.3 287.5 42.2 286.9 29.4"/><polygon class="cls-6" points="287 30.8 288.6 28.8 300.7 41 300.9 43.2 299.1 43 287 30.8"/><path class="cls-6" d="M325,56.8a9.1,9.1,0,0,1,.1-1.7,3.4,3.4,0,0,1,.5-1.4,3.4,3.4,0,0,1,.9-1.2l1.5-1.2,1.5-.8,1-.6a1.7,1.7,0,0,0,.6-.6,1,1,0,0,0,.2-.7,1.5,1.5,0,0,0-.4-1.1,2.2,2.2,0,0,0-1.4-.5l-.9.2-.7.3-.6.6c-.2.2-.4.3-.5.6l-1.7-2.1a4.5,4.5,0,0,1,.7-.7l1.1-.6,1.4-.5a4.7,4.7,0,0,1,1.7-.2l1.8.2a5.7,5.7,0,0,1,1.3.8,4.4,4.4,0,0,1,.8,1.1,3.7,3.7,0,0,1,.3,1.5,3.1,3.1,0,0,1-.3,1.3,5.3,5.3,0,0,1-.6,1l-.9.7a2.4,2.4,0,0,1-.9.6l-.8.5-.9.6-.8.7-.5.7h5.9v2.5Z" transform="translate(-32.6 -29.1)"/><path class="cls-6" d="M341.4,59.5V56.4h-5.7V53.9l6.5-9.1H344v9h1.7v2.6H344v3.1Zm-3.1-5.7h3.4V49.1Z" transform="translate(-32.6 -29.1)"/><path class="cls-6" d="M357.2,56.8h-2.6V50.6a3.3,3.3,0,0,0-.5-1.9,1.5,1.5,0,0,0-1.3-.6h-.7l-.8.5-.6.7a3,3,0,0,0-.4,1v6.4h-2.7V41.4h2.7v6.4a3.3,3.3,0,0,1,1.5-1.6,3.9,3.9,0,0,1,2.1-.6,4,4,0,0,1,1.7.3,2.8,2.8,0,0,1,.9,1,2.4,2.4,0,0,1,.5,1.4,8.8,8.8,0,0,1,.2,1.6Z" transform="translate(-32.6 -29.1)"/><path class="cls-6" d="M345.7,68.6l-.6-2.7c0-.1.1-.2.1-.3h-.1l-.7-3.4-4.8,4.6.9.2c-2.8,7.4-9.5,12.6-17.3,12.6-10.3,0-18.7-9-18.7-20.2s8.4-20.2,18.7-20.2a17.1,17.1,0,0,1,7.1,1.6l-.6.8,6.3.4-2.6-5.9-.7,1.1a20.5,20.5,0,0,0-9.5-2.3c-12.5,0-22.7,11-22.7,24.5s10.2,24.5,22.7,24.5c9.7,0,17.9-6.5,21.2-15.7Z" transform="translate(-32.6 -29.1)"/></g><g class="cls-5"><path class="cls-6" d="M63.6,300.4a15.7,15.7,0,0,1,3.1,5.3,15.3,15.3,0,0,1,1.2,6,17.7,17.7,0,0,1-1.3,6.3,18.2,18.2,0,0,1-4.1,5.8l-1.2,1.1-1.6,1.3a13.9,13.9,0,0,1-2.1,1.1,7.9,7.9,0,0,1-2.2.6,8.3,8.3,0,0,1-2.2-.3,5.4,5.4,0,0,1-2.1-1.6,4.4,4.4,0,0,1-1-1.7,2.6,2.6,0,0,1-.2-1.5,2.8,2.8,0,0,1,.3-1.3l.7-1.1a8,8,0,0,1-3.6-.9,10.4,10.4,0,0,1-3.1-2.5,7.1,7.1,0,0,1-2-4.9,6.3,6.3,0,0,1,1.9-4.3,5.6,5.6,0,0,1,2.5-1.5,5.7,5.7,0,0,1,2.6,0,11.7,11.7,0,0,1,4.5,3.2,15.9,15.9,0,0,1,1.7,2.5c.4.7.6,1.4.8,1.8a9.1,9.1,0,0,0,1.3-1.6,4.5,4.5,0,0,0,.7-1.8,4.3,4.3,0,0,0-.2-1.9,6.7,6.7,0,0,0-1.3-2,11.3,11.3,0,0,0-2.4-2.1c-.9-.5-3-3.9-1.2-3.9s4.5,2,6.3,4.1a9.8,9.8,0,0,1,2.2,3.9,6.9,6.9,0,0,1,0,3.2,7.2,7.2,0,0,1-1.5,2.7,15,15,0,0,1-2,2.3l-2.9,2.9L54,320.9a3.8,3.8,0,0,0-.9,1.3,2.8,2.8,0,0,0-.4,1.2,2.1,2.1,0,0,0,.5,1.2,2.2,2.2,0,0,0,1.8.8,4.6,4.6,0,0,0,2.2-.6,10.2,10.2,0,0,0,2.2-1.4L61,322a14.6,14.6,0,0,0,3.2-4.7,13.7,13.7,0,0,0,1.3-5.2,14.1,14.1,0,0,0-.7-5.3,15.5,15.5,0,0,0-2.9-4.9,13.8,13.8,0,0,0-4.3-3.5,12.3,12.3,0,0,0-4.8-1.3,10.4,10.4,0,0,0-4.9.9,12.7,12.7,0,0,0-4.5,3,15.1,15.1,0,0,0-3.1,4.5,12.9,12.9,0,0,0-1.4,5.1,13.6,13.6,0,0,0,.7,5.2,12.9,12.9,0,0,0,2.7,4.8,11.1,11.1,0,0,0,2.6,2.4c.9.6,2.5.1,2.9,1.6s-2.7,1.6-4.4.2a23.3,23.3,0,0,1-2.8-2.6,16.2,16.2,0,0,1-3.1-5.4,20.3,20.3,0,0,1-.9-6,17.9,17.9,0,0,1,5.3-11.6,14.8,14.8,0,0,1,5.6-3.7,13.2,13.2,0,0,1,5.8-.8,14.7,14.7,0,0,1,5.6,1.8A19.1,19.1,0,0,1,63.6,300.4Zm-14.1,17a3.6,3.6,0,0,0,2,.3,2.9,2.9,0,0,0,1.6-.9l1.1-1.1a11.2,11.2,0,0,0-.8-1.8,11.7,11.7,0,0,0-1.6-2.5,6.4,6.4,0,0,0-2.7-1.9,2.7,2.7,0,0,0-2.7.8,3.2,3.2,0,0,0-1,2.3,4.1,4.1,0,0,0,1,2.6l1.4,1.2A5,5,0,0,0,49.5,317.4Z" transform="translate(-32.6 -29.1)"/></g><g class="cls-5"><path class="cls-6" d="M399.6,359.1a.1.1,0,0,0-.1-.1h.1Z" transform="translate(-32.6 -29.1)"/><path class="cls-6" d="M398.8,359.2Z" transform="translate(-32.6 -29.1)"/><path class="cls-6" d="M398.6,359.4Z" transform="translate(-32.6 -29.1)"/><path class="cls-6" d="M388.7,382.1Z" transform="translate(-32.6 -29.1)"/><path class="cls-6" d="M417.2,361h0Z" transform="translate(-32.6 -29.1)"/><path class="cls-6" d="M388.4,379.5Z" transform="translate(-32.6 -29.1)"/><path class="cls-6" d="M395.4,375.6Z" transform="translate(-32.6 -29.1)"/><path class="cls-6" d="M393.3,369.1h0C393.4,369.1,393.4,369.1,393.3,369.1Z" transform="translate(-32.6 -29.1)"/><path class="cls-6" d="M396.2,393.9h0Z" transform="translate(-32.6 -29.1)"/><path class="cls-6" d="M398.8,362.4h.1a.1.1,0,0,1-.1-.1Z" transform="translate(-32.6 -29.1)"/><path class="cls-6" d="M389.5,382.8Z" transform="translate(-32.6 -29.1)"/><path class="cls-6" d="M391.6,383.1Z" transform="translate(-32.6 -29.1)"/><path class="cls-6" d="M417.4,361.1h-.5a.1.1,0,0,1-.1.1h-.2c0-.1,0-.1.1-.1h.4l-.6-.4h-.9a.1.1,0,0,0-.1-.1h-.2a.1.1,0,0,1,.1-.1h-.2a27.5,27.5,0,0,0-3.6-1.5h0c0,.1,0,0,.2,0h1.1a.1.1,0,0,0,.1.1h.6c0,.1,0,.1-.1.1h-.1a.1.1,0,0,0-.1-.1h-1s-.1-.1-.1,0h1.3c0-.1,0-.1.1-.1h.6c0,.1,0,.1.1.1h0c.1,0,.1,0,.1.1H414a.1.1,0,0,1-.1-.1H413c0,.1,0,.1.1.1h-.2a.1.1,0,0,0-.1-.1h-.2c0-.1,0-.1-.1-.1h-.2a.1.1,0,0,1-.1-.1h-1c.1.1,0,.1,0,.1h-1.7c0,.1,0,.1.1.1h-.2a.1.1,0,0,0,.1.1h.4c.1,0,.1,0,.1.1h.2c0,.1,0,.1.1.1h.3a.1.1,0,0,0,.1.1h.5v.2h-2c-.1,0-.1,0-.1-.1h-.2c-.1-.1-.1-.1-.1,0H408a.1.1,0,0,0-.1.1h-.2v-.2h-.1a.1.1,0,0,1-.1.1h-.7v.2h-.4c0,.1-.1.1-.1.2h0a.1.1,0,0,1-.1.1h-.6c0,.1,0,.1.1.1h.9a.1.1,0,0,0,.1.1h0c0-.1,0-.1.1-.1h.3a.1.1,0,0,0,.1.1h-.1c0,.1.1.1.1.2h.2v.2h-.1a.1.1,0,0,0,.1.1h.1c.1.1.1.1,0,.2h0v.2h-.8a.1.1,0,0,1-.1-.1h-.4c0,.1,0,.1-.1.1h-.3c0,.1,0,.1-.1.1h-.6c0-.1-.1,0-.2,0a.1.1,0,0,1-.1-.1.1.1,0,0,0-.1.1h0a.1.1,0,0,0-.1.1h-1a.1.1,0,0,1,.1.1h1.9c.1,0,.1,0,.1-.1h.6c0,.1,0,.1.1.1a.1.1,0,0,0,.1-.1h0c.1,0,.1,0,.1-.1h1.1a.1.1,0,0,0,.1-.1h.1c.1-.1.1-.1,0-.1h.6a.1.1,0,0,0-.1.1h.5a.1.1,0,0,0,.1.1h0c.1,0,.1,0,.1.1h.1c.1,0,.1,0,.1.1v.2h0a.4.4,0,0,0,.1.3h0v.3h0c0,.1,0,.1.1.1h1c0-.1.1-.1.1,0h0c.1-.1.1,0,.1,0h.3c.1.1.1,0,.2,0h.4a.1.1,0,0,1,.1.1h.1a.1.1,0,0,1,.1.1h.4v.2h.1c0,.1,0,.1.1.1h.6a.1.1,0,0,1,.1.1h.1a.1.1,0,0,1,.1.1h-.1v.2h.3a.1.1,0,0,1,.1.1h.1c0,.1,0,.2.1.2v.2h.2v.2h.1v.4h0a.1.1,0,0,1-.1.1h0c0,.1,0,.1-.1.1h-.1a.1.1,0,0,0-.1.1h0v.2h-.2c0,.1,0,0-.1,0h-.3c.1,0,.1,0,0-.1h.1a.1.1,0,0,1-.1-.1h-.6c-.1,0-.3,0-.3.1h-2.1a.1.1,0,0,1-.1.1h-.7a.1.1,0,0,1-.1-.1h0a.1.1,0,0,1-.1-.1h-.1a.1.1,0,0,1-.1-.1H407a.1.1,0,0,0-.1-.1h-.2c0-.1,0-.1-.1-.1h-1.7a.3.3,0,0,0-.1.2h0a.1.1,0,0,1-.1.1h-.2v.2h-.1v.2h-.3a.1.1,0,0,0-.1.1h-.4a.1.1,0,0,0-.1.1h-.1c-.1,0-.1,0-.1.1h-.4a.1.1,0,0,1-.1-.1h0a.1.1,0,0,0-.1.1h-.4a.1.1,0,0,0-.1.1h-.6c-.1,0-.1,0-.1-.1h0c0-.1,0-.1-.1-.1h-.3c0-.1,0-.1-.1-.1h-.5s.1,0,0,.1h-1c-.1,0-.1,0-.1-.1H399v-.2h-.1a.1.1,0,0,1,.1-.1h.2V376h.3c.1,0,.1,0,.1-.1h.1v-.2h0a.1.1,0,0,1,.1-.1h.8a.1.1,0,0,0,.1-.1h.4a.1.1,0,0,1,.1-.1h.3l.2-.2h-.1s-.1,0,0-.1h.4a.1.1,0,0,1,.1-.1h.1a.1.1,0,0,0,.1-.1h.6a.1.1,0,0,0-.1-.1H402a.1.1,0,0,0-.1.1h-.4s.1.1,0,.1h0s-.1-.1,0-.1h-.1c0-.1,0-.1-.1-.1H401c.1,0,0,.1,0,.1h-.4c0-.1,0-.1.1-.1h-.5s0,.1-.1,0h-.9a.1.1,0,0,1-.1.1h-.4a.1.1,0,0,1,.1.1h-.1c0-.1,0-.1-.1,0h.7a.1.1,0,0,1,.1-.1h.4c0,.1,0,.1.1.1h.2a.1.1,0,0,0,.1.1h0c0,.1,0,.1-.1.1H400c0-.1,0-.1.1-.1h-1.2a.1.1,0,0,0-.1.1h-.3c-.1,0-.1,0-.1.1h0a.1.1,0,0,1,.1.1h-.1v.2h.1v.2h.3c0,.1,0,.1-.1.1h-1.2a.1.1,0,0,1-.1-.1h0a.1.1,0,0,0,.1-.1h0c0-.1,0-.1.1-.1h.1a.1.1,0,0,1-.1-.1h-.4c-.1,0-.1,0-.1-.1h0a.1.1,0,0,0-.1.1h-.3c0-.1,0-.1.1-.1h-.2c0-.1,0-.1.1-.1h-.2c0-.1,0-.1-.1-.1h-.2c-.1,0-.1,0-.1-.1h.6a.1.1,0,0,1,.1-.1h.4v-.2h.1a.1.1,0,0,0,.1-.1h-.5c-.1,0-.1-.1,0-.1h0c0-.1,0-.1.1-.1h.1c0,.1,0,.1-.1.1h-.4c0,.1,0,.1-.1.1h-.6a.1.1,0,0,0-.1.1h0a.1.1,0,0,1-.1.1h0a.1.1,0,0,1-.1.1v.2h.2c0-.1,0-.1.1-.1h.8c.1,0,.1,0,0,.1h-.3a.1.1,0,0,0-.1.1h-1.2a.1.1,0,0,0-.1-.1H395c.1,0,.1,0,.1-.1h0c-.1,0-.1,0-.1-.1h-.4v-.2h0c0-.1,0-.1-.1-.1h.2s0,.1-.1,0h.1c0-.1,0-.1-.1-.1h.2a.1.1,0,0,0-.1-.1h.2c-.1,0,0-.1,0-.1h.1v-.2h.1a.1.1,0,0,1,.1-.1h.2c0-.1,0-.1.1-.1h.4v-.2h.7a.1.1,0,0,0-.1.1h-.4c.1,0,.1,0,.1-.1h.5a.1.1,0,0,1-.1.1h.5a.1.1,0,0,0-.1.1h.6a.1.1,0,0,1,.1-.1h-.5a.1.1,0,0,1,.1-.1h1.3c0,.1-.1.1-.1.2h0a.1.1,0,0,1,.1-.1h-.2v-.2H398c0,.1,0,.1-.1.1h.1c0-.1,0-.1.1-.1h.1a.1.1,0,0,1,.1-.1h0c-.1,0-.1,0-.1.1h-.3c0-.1.1-.2.1-.3h.5a18.7,18.7,0,0,0-8.5,8.4,20.3,20.3,0,0,0-2,10.8h0v-.2h.1V378h.1a.1.1,0,0,1,.1-.1h.1v.2l-.2.4h.1v.8h0v.4h0a5.7,5.7,0,0,0,.3,1.8h.3c0-.1,0-.1.1-.1h.3a.1.1,0,0,0-.1-.1h.5c0-.1,0-.1.1-.1h.3a.1.1,0,0,1,.1.1h-.4a.1.1,0,0,1-.1.1h.5a.1.1,0,0,1,.1.1h-.4c.1,0,0,0,0,.1h-.6s.1.1,0,.1h0v-.3h-.5c.2.6.3,1.2.5,1.8h.1a9.5,9.5,0,0,0,.9,2.1h0s.1,0,0,.1h0c0,.1.1.1.1.2h.2a.1.1,0,0,0-.1-.1h0a.1.1,0,0,1-.1-.1H390c-.1,0-.1,0,0-.1h0v-.2h0V385h-.2a.1.1,0,0,0-.1.1h-.1c-.1,0-.1-.1-.1-.2h0a.1.1,0,0,1-.1-.1h1.3c.1,0,.1,0,.1.1h1.3a.1.1,0,0,1-.1.1h-.1v.2a.1.1,0,0,1-.1.1.4.4,0,0,1-.1.3h0c-.1,0-.1,0,0,.1h0v.2h.1a2,2,0,0,1-.1-.5,2.8,2.8,0,0,1,.1-.6h.9c0-.1,0-.1-.1-.1h0c-.1,0-.1,0,0-.1h.1c.1,0,.1,0,.1.1h-.5a.1.1,0,0,0,.1.1h.1c.1,0,.1,0,.1.1h-.1v.2h.3a.1.1,0,0,1-.1-.1h-.3c0,.1,0,.1.1.1h.6c0,.1.1.1,0,.1a4.3,4.3,0,0,1,.1.5.3.3,0,0,0,.3.3h.6a.3.3,0,0,1,.1.2h-.4a.1.1,0,0,1-.1-.1h-.4l1.2,1.2h-.1V392h.2a.1.1,0,0,1,.1-.1h0a.1.1,0,0,1,.1-.1h.5a.1.1,0,0,0,.1-.1h-.8l.9.9h2a.1.1,0,0,1-.1-.1h.1a.1.1,0,0,0-.1-.1h-.1c-.1,0-.1,0-.1-.1h.2a.1.1,0,0,0,.1.1h.3a.1.1,0,0,0,.1.1h0a.1.1,0,0,0,.1-.1h.3c.1,0,.1,0,.1-.1h3.2c.1-.1.1,0,.1,0h.1v-.2h0l.3-.3h.1s-.1,0,0-.1h0c.1,0,.1,0,.1-.1h.2a.1.1,0,0,1,.1-.1.1.1,0,0,0,.1-.1h.2c0-.1.4-.3.5-.3h.2a.1.1,0,0,0,.1-.1h.5l.3.3a1.4,1.4,0,0,1,.2.4v.2l.2.2h0c0,.1.1.1,0,.1h.1a.1.1,0,0,0,.1.1h.7a.3.3,0,0,0,.1.2h.3c.1,0,.1,0,.1.1h.3a.1.1,0,0,0-.1.1h0c0,.1,0,.1-.1.1h0c0,.1,0,.1.1.1h0a.1.1,0,0,1,.1.1h.4c.1.1.1.1.1.2h.3a.1.1,0,0,1-.1-.1h.4c0,.1,0,.1.1.2h0c.1,0,.1.2.1.2h-.1a.1.1,0,0,0-.1.1h-.1a.1.1,0,0,0-.1.1h-.1a.1.1,0,0,0,.2,0h.5c.1,0,.1.1.1.2h.1c0,.1,0,.4-.1.5h0c0-.1,0,0,.1,0h0a.1.1,0,0,0,.1.1h.1v.2h-.1a.1.1,0,0,0-.1.1h.4s-.1.1,0,.1h.4a.1.1,0,0,0,.1.1l.3-.2h.2a.1.1,0,0,1,.1.1c0,.1,0,.2.1.2h.2c-.1,0-.1.1,0,.2h.7c.2-.2.4-.4.4-.5h.1a.1.1,0,0,1,.1-.1h-2.8a.1.1,0,0,1-.1-.1h-.2c0,.1,0,0-.1,0h-.2a.1.1,0,0,0,.1.1h-.2a.1.1,0,0,1-.1-.1h0a.1.1,0,0,0-.1.1h-.2a.1.1,0,0,0-.1-.1h-.9c-.1,0-.1,0-.1-.1h-.2c0-.1,0-.1-.1-.1h0s0,.1-.1,0h-.5a.1.1,0,0,0-.1-.1h-1c0-.1,0-.1-.1-.1H404c-.1,0-.1,0-.1-.1h-1.7a.1.1,0,0,0-.1.1h-.3c0,.1,0,.1-.1.1a.1.1,0,0,1-.1-.1H400c-.1,0-.1.1-.2.2h-.1a.1.1,0,0,0-.1-.1h0a.1.1,0,0,1-.1-.1h0a.1.1,0,0,1-.1-.1h0a.1.1,0,0,1-.1-.1h-.5a.1.1,0,0,1-.1-.1h-.2a.1.1,0,0,1,.1-.1h-.3c0,.1,0,.1-.1.1h-1.1c0,.1,0,.1.1.1h-.1a.1.1,0,0,1-.1.1h-.3a.1.1,0,0,0-.1.1h-.1c-.1,0,0,.1,0,.1h0l1.9,1.3a18.4,18.4,0,0,0,26.1-7.5,21.5,21.5,0,0,0-7-26.8ZM412,359h.1a.1.1,0,0,1-.1.1h0Zm3.9,2.5h.1a.1.1,0,0,0,.1.1h-.2Zm-15.3,11h0c.1,0,0,0,0,.1h0Zm-.1.1h0Zm-1.5,1.7h0c0-.1,0-.1.1-.1h.3c0,.1,0,.1-.1.1H399Zm-.2.8Zm-.1.2Zm.1.3h-.1c0-.1,0-.1.1-.1h0Zm-2.1-4.5h0Zm.2.7Zm1.1-10.2c0-.1,0-.1.1-.1H398Zm0,.1h0Zm-.1.2h0Zm-.2-.6h0Zm-.1,0Zm.1-.4h0c-.1,0-.1,0,0-.1h0Zm.4-.3Zm-.1,0h0Zm.1-.1Zm-.2-.4h.3a.1.1,0,0,1,.1-.1h-.4Zm.3.2h0c.1.1.1.1,0,.1h0Zm0,.1h0c0,.1,0,.1-.1.1h.1Zm-1.1.9h.3c.1,0,.1,0,.1-.1h.3a.1.1,0,0,1,.1-.1h-.1a.1.1,0,0,0-.1.1h-.6Zm.9.4h0Zm-1.1-.3h0C396.8,361.5,396.9,361.4,396.9,361.4Zm.6.6h0c.1,0,0,.1,0,.1Zm.1,0c.1,0,.1,0,0,.1h0C397.5,362.1,397.6,362,397.6,362Zm-.1.1Zm.1.2h0Zm-.5-.2h0Zm.5.5h0Zm0,.1h0C397.5,362.8,397.5,362.7,397.6,362.7Zm0,.2h0c.1,0,.1.1,0,.1Zm-1.3-.3a.1.1,0,0,1,.1-.1h-.1Zm.1.2s.1-.1.1,0h0s-.1.1-.1,0Zm.4,3.2Zm-.6-1.6h.2c-.1-.1,0-.1,0-.1h.2a.1.1,0,0,0-.1.1h-.1c.1,0,.1.1,0,.1h-.2Zm-1,.1Zm-.3.8Zm0,.3Zm-.4.7h.3c0,.1,0,.1-.1,0h-.2Zm-.7,1.5Zm.2,1.7Zm0-.8Zm-.2-.4h0Zm-.2,0h.1c0,.1,0,.1-.1.1Zm.2.1h0a.1.1,0,0,1-.1.1h.1Zm-1.1,1.7h0a.1.1,0,0,0,.1-.1h.3c-.1,0-.1,0-.1-.1h.2a.1.1,0,0,1,.1-.1h0c.1,0,.1,0,.1.1h0a.1.1,0,0,1,.1-.1h0v-.2h.1a.1.1,0,0,1-.1.1h-.8Zm-4,12.5Zm.5,1h0Zm-.1-.1c0,.1,0,.1-.1.1h.1Zm.1,0h0c0,.1,0,.1-.1.1h.1Zm.3-.2Zm.7-.4Zm.1-.7Zm2.2,2.5h-.1c.1.1,0,.1,0,.1h.1Zm-.2-.3h.1a.1.1,0,0,1-.1.1h0Zm-.2-.2h-.3c0,.1,0,.1-.1.1h.1a.1.1,0,0,0,.1-.1h.2Zm2.6,6.7Zm-.1,1.3h0C394.7,392.1,394.7,392.1,394.6,392.2Zm1.2-.7h-.3c0-.1,0-.1.1-.1h.2Zm-.3-.9Zm.9-.5Zm.3-.4Zm1.5.5Zm-.8-1.1h.1a.1.1,0,0,1-.1.1h0Zm.1.1h.1c0-.1,0-.1-.1-.1Zm.6.5Zm-.9-.6Zm-.2.1Zm-2.5-1.6h-.2v-.2h.1c0,.1,0,.1.1.1Zm3.9,2.1h.2a.1.1,0,0,0-.1.1h-.1Zm-.5-.4h0c.1,0,.1,0,.1.1h-.1Zm-.1-.1h0Zm-5-5.5h.1a.1.1,0,0,1-.1.1h0Zm.2-.7h-.2a.1.1,0,0,1-.1-.1h-.1a.1.1,0,0,1-.1.1h-.1c-.1-.1,0-.1-.1-.1h-.1a.3.3,0,0,1-.1-.2h.3c0-.1-.1-.1,0-.1h0a.1.1,0,0,0,.1.1h.3a.1.1,0,0,0,.1.1h0a.1.1,0,0,0,.1.1h0c-.1,0,0,0-.1-.1h.1Zm18.1,11.2h0v.2h0Zm-12-14.2H399a.1.1,0,0,0-.1-.1h.2Zm-.9-.5h0a.1.1,0,0,1-.1-.1h0c.1,0,.1,0,.1.1Zm1,.5Zm-.9-.6h.1c0,.1,0,.1-.1.1Zm.9.4h0c0,.1,0,0-.1,0h.1Zm.2,0h-.1A.1.1,0,0,1,399.4,379.8Zm-.1-.6Zm-4.9-3.5Zm-1.1-1.1h0a.1.1,0,0,1-.1.1h-.3a.1.1,0,0,1-.1-.1h-.2c-.1,0-.1,0-.1.1h0s-.1,0,0-.1h.8Zm-1.7-.6Zm-.3-.5Zm-.1,0h0Zm.1.1h0Zm-.1-.2h0c.1,0,.1,0,0,.1Zm4.6,1.8h-.2a.1.1,0,0,0,.1.1h.1Zm-.9-.4h0c-.1,0-.1-.1,0-.1h0Zm0-1.2h-.1a.1.1,0,0,1,.1.1h0Zm.1.8h.2v-.2h1.1c.1-.1.1,0,.1,0h.1c0-.1,0-.1.1-.1h-.1c0,.1,0,.1-.1.2h-.5a.1.1,0,0,1-.1-.1h-.2c-.1,0,0,.1,0,.1H395Zm.6.4Zm-1.4-.8h0Zm-1.4-.7h0c0-.1-.1-.1,0-.1h0Zm3.7,7.2Zm4,2.2h0c-.1,0-.1,0-.1-.1h.1Zm-4-2.4Zm4.4,2.5Zm-.2-.2Zm.3.1Zm-4.2-2.5Zm4.1,2.3Zm-.2-.1h0Zm.2,0Zm-9-6.3c-.1,0-.1.2-.1.2h0a.1.1,0,0,1-.1.1h0c0,.1-.1.1,0,.2h0a.1.1,0,0,1-.1.1h0a.1.1,0,0,0,.1.1h.2a.1.1,0,0,1,.1.1h-.8c0,.1,0,.1-.1.1h-.3c0-.1,0-.1-.1-.1h-.6a.1.1,0,0,1,.1-.1h0a.1.1,0,0,0-.1.1h-.2a.1.1,0,0,1,.1-.1h-.2a.1.1,0,0,0,.1.1h0c0,.1,0,.1-.1.1h0c0,.1,0,.1-.1.1h0a.1.1,0,0,1-.1.1h0c-.1,0-.1,0-.1-.1h-.4c0,.1-.1.1,0,.1h-.2a.1.1,0,0,0-.1.1c.1,0,0,0,0,.1h-.5a.3.3,0,0,0,.1-.2c0-.1.1-.1.1-.2h0c0,.1,0,.1-.1.2h0v-.3h0c0-.1.1-.2.1-.3h0a.1.1,0,0,1,.1-.1h.1c0-.1.1-.1.1-.2h0V377h.2a.1.1,0,0,0,.1-.1h0c0,.1,0,.1-.1.1h.3a.1.1,0,0,1-.1.1h.9a.1.1,0,0,1,.1-.1h.3c0,.1,0,.1-.1.1h.1a.1.1,0,0,1,.1-.1h.3v-.2h.2c-.1,0-.1,0-.1.1h-.1v.2h.6a.3.3,0,0,1-.1.2h0a.1.1,0,0,1-.1.1h-.1a.1.1,0,0,0,.1-.1h.1a.2.2,0,0,1,.2-.2h.1c.1,0,.1,0,0,.1h-.1a.1.1,0,0,0-.1.1h0a.1.1,0,0,0,.1-.1h.1a.1.1,0,0,1,.1-.1h0v.2h-.1Zm-.7-2.4h0Zm-.1-.1Zm8,6.6Zm14.1-7.2h.6v.2h.2v.3h.3c.1.1,0,.1,0,.1h-1.7a.1.1,0,0,0-.1-.1h0c0-.1,0-.1.1,0h.2c0,.1,0,.1.1.1h.1Zm-4.9-3.7h-.1c.1,0,.1,0,.1-.1h0Zm3.5-4.3h0a.1.1,0,0,1,.1.1h-.7a.1.1,0,0,0,.1-.1h.5Zm0-2.3h-.2c-.1,0-.1,0-.1-.1h.3Zm.3.1H412A.1.1,0,0,1,412.1,362.8Zm.3.1Zm.3,0h0Zm.2,0Zm2.3-1.1Zm-1.2,1.1Zm.4-.1h0Zm-.4,0Zm.7.1h0Zm-.1-.1Zm.4.1Zm.3-.1h-.1c0-.1.1,0,.1,0Zm.9-.4h-1.3c0-.1,0,0-.1,0h-1.5a.1.1,0,0,0-.1-.1h.8a.1.1,0,0,1,.1-.1h.8c-.1,0,0-.1,0-.1h1.3Z" transform="translate(-32.6 -29.1)"/><path class="cls-6" d="M408.4,396.5Z" transform="translate(-32.6 -29.1)"/><path class="cls-6" d="M397.7,391.8h0Z" transform="translate(-32.6 -29.1)"/><path class="cls-6" d="M408.6,396.5Z" transform="translate(-32.6 -29.1)"/><path class="cls-6" d="M408.5,396.5Z" transform="translate(-32.6 -29.1)"/></g></g><g id="Interface"><rect class="cls-8" x="155.1" y="42" width="238.1" height="232.2" rx="6.9"/><g class="cls-9"><path class="cls-10" d="M389,285H333.8a13,13,0,0,1-13-13h0a13,13,0,0,1,13-13H389a13,13,0,0,1,13,13h0A13,13,0,0,1,389,285Z" transform="translate(-32.6 -29.1)"/><path class="cls-11" d="M279.8,285H224.6a13,13,0,0,1-13-13h0a13,13,0,0,1,13-13h55.2a13,13,0,0,1,13,13h0A13,13,0,0,1,279.8,285Z" transform="translate(-32.6 -29.1)"/><g class="cls-12"><path class="cls-4" d="M279.8,285H224.6a13,13,0,0,1-13-13h0a13,13,0,0,1,13-13h55.2a13,13,0,0,1,13,13h0A13,13,0,0,1,279.8,285Z" transform="translate(-32.6 -29.1)"/></g><path class="cls-13" d="M279.8,285H224.6a13,13,0,0,1-13-13h0a13,13,0,0,1,13-13h55.2a13,13,0,0,1,13,13h0A13,13,0,0,1,279.8,285Z" transform="translate(-32.6 -29.1)"/><path class="cls-14" d="M354.1,141.2a46.7,46.7,0,0,1-8,26.4,47.4,47.4,0,1,1,8-26.4Z" transform="translate(-32.6 -29.1)"/><path class="cls-15" d="M346.1,167.6a47.4,47.4,0,0,1-77.5,1.5l.9-1.4c1.7-2.9,12.4-7.4,27.5-9.1,3.2-.3,6.7-.6,10.3-.6a80.7,80.7,0,0,1,11.1.7C331.5,160.3,342.4,164.6,346.1,167.6Z" transform="translate(-32.6 -29.1)"/><path class="cls-1" d="M319.5,159.8a13.5,13.5,0,0,1-11.9,6.7c-6.9,0-12-6-12-6,2.4-2.2,2.6-6.3,2.2-9.5a29.6,29.6,0,0,0-.9-4.6h20.8c-1.2,4.1-1.2,7.1-.7,9.2A6.6,6.6,0,0,0,319.5,159.8Z" transform="translate(-32.6 -29.1)"/><path class="cls-16" d="M317,155.6c-15,4-18-4.6-18-4.6h-1.2a29.6,29.6,0,0,0-.9-4.6h20.8C316.5,150.5,316.5,153.5,317,155.6Z" transform="translate(-32.6 -29.1)"/><path class="cls-1" d="M322.3,131.8s1.7-1.9,2.5-1.3a3.9,3.9,0,0,1,1.3,3.9c-.4,1.5-2.4,4.2-2.5,5.8s-1.2,3.4-2.3,2.3S322.3,131.8,322.3,131.8Z" transform="translate(-32.6 -29.1)"/><path class="cls-1" d="M292.4,131.8s-1.7-1.9-2.5-1.3a4.1,4.1,0,0,0-1.4,3.9c.5,1.5,2.4,4.2,2.6,5.8s1.1,3.4,2.3,2.3S292.4,131.8,292.4,131.8Z" transform="translate(-32.6 -29.1)"/><path class="cls-1" d="M307,110.7c21.1,0,16.1,28.1,12.2,37.1-1.4,3.2-8.4,7.3-11.9,7.3s-10.4-4.9-11.7-7.9C291.7,138.1,286.9,110.7,307,110.7Z" transform="translate(-32.6 -29.1)"/><path class="cls-13" d="M310.6,128s5.5-1.7,7.1,1.7" transform="translate(-32.6 -29.1)"/><path class="cls-16" d="M314.6,132.7c0,.6-.3,1.1-.7,1.1s-.7-.5-.7-1.1.3-1.2.7-1.2S314.6,132,314.6,132.7Z" transform="translate(-32.6 -29.1)"/><path class="cls-13" d="M304.1,128s-5.5-1.7-7.2,1.7" transform="translate(-32.6 -29.1)"/><path class="cls-16" d="M300,132.7c0,.6.4,1.1.8,1.1s.7-.5.7-1.1-.3-1.2-.7-1.2S300,132,300,132.7Z" transform="translate(-32.6 -29.1)"/><path class="cls-16" d="M315.7,117.9a27,27,0,0,1-16.2,0s-2.9-.2-4,1.2,0,5.9.3,7.7-2.5,3-2.1,7.6l-1.1,1.6s-3-7.4-2.2-13.7,4.7-8.7,4.7-8.7,1.8-5.4,12.4-5.4,12.6,6.3,12.6,6.3,7.8,5.1,2.1,22l-1.3-2.1a9.6,9.6,0,0,0-1.4-6.4c-1-1.5.6-5.8.2-8.1S315.7,117.9,315.7,117.9Z" transform="translate(-32.6 -29.1)"/><path class="cls-13" d="M308.6,131.5s.1,5.1,1.4,6.8-.7,2.7-2.7,3" transform="translate(-32.6 -29.1)"/><path class="cls-1" d="M302.7,144.3a4,4,0,0,0,2,2.5c1.4.6,5.8.4,6.6-.1s1.3-2.2,1.3-2.2" transform="translate(-32.6 -29.1)"/><path class="cls-13" d="M302.3,144.2a26.5,26.5,0,0,0,10.9,0" transform="translate(-32.6 -29.1)"/><path class="cls-16" d="M317.7,118.1s-2.3,3.5-10.1,4.2a5.2,5.2,0,0,0,1.4-1.9,10.5,10.5,0,0,1-8.2,1.9,8.6,8.6,0,0,0-7.9,3.3l-1.3,5.9s-4.6-5.3-1.3-13.7l-1.2,1s1.3-11.2,14.8-11.6l-1.6-1s13.4-2.9,18.7,6c0,0,4.7.9,5.8,9l-1.3-.9s2.1,6.7-2.2,12.4C323.3,132.7,317.7,123.8,317.7,118.1Z" transform="translate(-32.6 -29.1)"/><path class="cls-4" d="M367,202.5H249.2c-1.7,0-3-1-3-2.2h0c0-1.3,1.3-2.2,3-2.2H367c1.7,0,3,.9,3,2.2h0C370,201.5,368.7,202.5,367,202.5Z" transform="translate(-32.6 -29.1)"/><g class="cls-17"><path class="cls-4" d="M334.5,227.9H278.6c-.3,0-.6-1-.6-2.3h0c0-1.2.3-2.3.6-2.3h55.9c.4,0,.7,1.1.7,2.3h0C335.2,226.9,334.9,227.9,334.5,227.9Z" transform="translate(-32.6 -29.1)"/><path class="cls-4" d="M347.3,245h-81a1.2,1.2,0,0,1-1.2-1.2h0a1.2,1.2,0,0,1,1.2-1.2h81a1.2,1.2,0,0,1,1.2,1.2h0A1.2,1.2,0,0,1,347.3,245Z" transform="translate(-32.6 -29.1)"/></g><path class="cls-4" d="M419.2,82.3a4.8,4.8,0,0,1-4.9,4.8,4.7,4.7,0,0,1-4.8-4.8,4.8,4.8,0,0,1,4.8-4.9A4.9,4.9,0,0,1,419.2,82.3Z" transform="translate(-32.6 -29.1)"/><path class="cls-4" d="M405.2,82.3a4.8,4.8,0,0,1-4.9,4.8,4.7,4.7,0,0,1-4.8-4.8,4.8,4.8,0,0,1,4.8-4.9A4.9,4.9,0,0,1,405.2,82.3Z" transform="translate(-32.6 -29.1)"/><path class="cls-18" d="M326.5,279s6.2,1.3,6.4,5.9c.5,9.8.5,10.1-6.4,9.2,0,0-4.1,5.7-14.2,4.1l-3.5,5.2H291c4.9-5.9,8.9-10.8,10.6-13.2,6.4-8.5,36.3-21,36.3-21S337.8,272.5,326.5,279Z" transform="translate(-32.6 -29.1)"/></g><rect class="cls-13" x="155.1" y="42" width="238.1" height="232.2" rx="6.9"/><polygon class="cls-8" points="223.7 234.8 218.5 240 213.3 234.8 210.2 237.9 215.4 243.1 210.2 248.3 213.3 251.4 218.5 246.2 223.7 251.4 226.8 248.3 221.6 243.1 226.8 237.9 223.7 234.8"/><path class="cls-19" d="M356,279.5" transform="translate(-32.6 -29.1)"/><path class="cls-20" d="M266.7,269.6" transform="translate(-32.6 -29.1)"/><line class="cls-21" x1="318.9" y1="244" x2="323.6" y2="249.6"/><line class="cls-21" x1="337.3" y1="236" x2="324" y2="249.2"/></g><g id="Character"><path class="cls-1" d="M101.2,444.1s1.8-12.8,3.1-18,9-25.8,10.6-37.2L95.2,373.2s-7.4,38.3-7.4,44.4l-4.1,13.1" transform="translate(-32.6 -29.1)"/><path class="cls-11" d="M120.8,403.4c-4.2-3.2-8.2-6.5-12.2-10-5.8-5.1-11.5-10.5-17-16.2a189.9,189.9,0,0,1,5-18.9,24.8,24.8,0,0,1,11.1-13.9h.2l.9-.5,1.7-.8a22.5,22.5,0,0,1,5.5-1.9l4.3,55.9Z" transform="translate(-32.6 -29.1)"/><g class="cls-22"><path class="cls-23" d="M120.8,403.4c-4.2-3.2-8.2-6.5-12.2-10-5.8-5.1-11.5-10.5-17-16.2a189.9,189.9,0,0,1,5-18.9,24.8,24.8,0,0,1,11.1-13.9h.2l.9-.5,1.7-.8a22.5,22.5,0,0,1,5.5-1.9l4.3,55.9Z" transform="translate(-32.6 -29.1)"/></g><path class="cls-13" d="M120.8,403.4c-4.2-3.2-8.2-6.5-12.2-10-5.8-5.1-11.5-10.5-17-16.2a189.9,189.9,0,0,1,5-18.9,24.8,24.8,0,0,1,11.1-13.9h.2l.9-.5,1.7-.8a22.5,22.5,0,0,1,5.5-1.9l4.3,55.9Z" transform="translate(-32.6 -29.1)"/><path class="cls-13" d="M100.2,372.3s2.3,15.6,12.9,21.6" transform="translate(-32.6 -29.1)"/><path class="cls-24" d="M206.1,385c0,8-6.5,40.3-6.5,40.3l-.2,28.5s-13.5,4.4-35.3,4.4c-26.6,0-38.4-7.1-39.4-7.8h-.1l3.9-19.7s-20.9-49.6-21.4-51.3-1.2-5.1-1.6-7.6c-1.1-6.3-1.6-12.5-.9-17.8a24.6,24.6,0,0,1,2.9-9.6,2.1,2.1,0,0,1,.4-.6,15,15,0,0,1,1.9-2.5v-.2l2.2-1.8h0l.7-.5.7-.5.4-.3.6-.3.8-.5c15.8-8.7,45.2-7.4,45.2-7.4l.9-.2h.1a5.8,5.8,0,0,1,1.8.2c7.3,1.4,20.7,13.3,30.6,26.9a91.4,91.4,0,0,1,7.8,12.8C204.4,375,206.1,380.4,206.1,385Z" transform="translate(-32.6 -29.1)"/><path class="cls-18" d="M205.9,382.3a52.1,52.1,0,0,1-14.8-7.4c-7.1,1.3-14-5.7-15.7-9.5l23.2-1.5a52.1,52.1,0,0,1,3.1,5.6A41.6,41.6,0,0,1,205.9,382.3Z" transform="translate(-32.6 -29.1)"/><path class="cls-18" d="M133.3,435.8s5.2,22.3-8.6,14.6h-.1l3.9-19.7s-20.9-49.6-21.4-51.3-1.2-5.1-1.6-7.6c-1.1-6.3-1.6-12.5-.9-17.8a24.6,24.6,0,0,1,2.9-9.6,2.1,2.1,0,0,1,.4-.6,15,15,0,0,1,1.9-2.5v-.2l2.2-1.8h0l.7-.5.7-.5.4-.3.6-.3.8-.5c14.5,1.1,30.7,8,33.8,22.1,0,0-1.3,21.7-6.1,29.6-2.9,4.9-3.9,27.9,10.7,21.3C149.1,433.2,133.3,435.8,133.3,435.8Z" transform="translate(-32.6 -29.1)"/><path class="cls-13" d="M124.6,450.4l3.9-19.7s-20.9-49.6-21.4-51.3-1.2-5.1-1.6-7.6c-1.1-6.3-1.6-12.5-.9-17.8a24.6,24.6,0,0,1,2.9-9.6,2.1,2.1,0,0,1,.4-.6,15,15,0,0,1,1.9-2.5v-.2l2.2-1.8h0c14.5-11,48.4-9.5,48.4-9.5l.9-.2h.1a5.8,5.8,0,0,1,1.8.2c7.3,1.4,20.7,13.3,30.6,26.9a91.4,91.4,0,0,1,7.8,12.8c2.7,5.5,4.4,10.9,4.4,15.5,0,8-6.5,40.3-6.5,40.3l-.2,28.5" transform="translate(-32.6 -29.1)"/><path class="cls-1" d="M175.1,284.6c-1.2-1.5-6.5-5-6.5-5-1-6.9-1.6-16.1-8.7-23.3-9.8-9.8-32.4-6.7-39.8,7.9-14.8,29.1,13.1,56.5,47.3,50.7,2.9-.5,4.9-3.3,5.3-16.8l.9-1.9s-1-3.3-1.3-4.9C174.1,289.6,176,285.6,175.1,284.6Z" transform="translate(-32.6 -29.1)"/><path class="cls-13" d="M166.7,268.8a16.2,16.2,0,0,0-1.9,4.5" transform="translate(-32.6 -29.1)"/><path class="cls-13" d="M167.3,281.8s2.3,1.4,3.4,5.9" transform="translate(-32.6 -29.1)"/><path class="cls-13" d="M173.3,296.8s-1,1.5-4.8,1.1" transform="translate(-32.6 -29.1)"/><path class="cls-16" d="M163.1,252.5s9-3.7,6.4,13.9-15.6,38.5-26.6,34.6l.2-1.6s9.6,3.8,17.7-12.9,7.4-31.9,2.8-29.3Z" transform="translate(-32.6 -29.1)"/><path class="cls-16" d="M162.3,279.8s-3.4,9.1-6.2,11.9c0,0-1.1-3.4-3.7-3.5s-5.1-7-5.1-7Z" transform="translate(-32.6 -29.1)"/><path class="cls-16" d="M158.6,280.2s-6.3,15.4-1.7,27.3,17.7,20.8,17.7,20.8l-4.2-1.9s-11.1-7.2-15-19.9a46.4,46.4,0,0,1-.1-24.5Z" transform="translate(-32.6 -29.1)"/><path class="cls-16" d="M106.5,259.7S96,264,96.6,279.6s11.2,29.2,13.4,49.1c1.9,17.3-17,32.5,2.1,52.8,0,0-8.4-13-5.8-27.6s11.3-12.4,4.8-36.1-20.3-37.7-6-52.7Z" transform="translate(-32.6 -29.1)"/><path class="cls-16" d="M167.9,324.4c-19.2-10.8-14-33.7-14-33.7,14.5-10.7,16.4-30.7,13.8-35.8s-8.5-3.4-8.5-3.4c-23.1-11-51.5-.8-56.9,15.4-6.9,20.7,4.9,36.6,10.7,54,5.2,15.6-6.8,18.5-6.8,34-2.3,29,27.5,41.2,27.5,41.2a5.4,5.4,0,0,1-2.6-4.6c0-3.2,8.1-3.2,13.5-12.1,4.4-7.4,4.7-25.5,6.2-34.2s4.5-14.2,9.7-15.4c13.6-3,25.4,10.2,25.4,10.2S187.2,335.1,167.9,324.4Z" transform="translate(-32.6 -29.1)"/><g class="cls-25"><path class="cls-26" d="M162.3,254.6c2.1,3.7-13.7,23.2-19.4,40.1s.1,26.8.1,26.8" transform="translate(-32.6 -29.1)"/><path class="cls-26" d="M127,259.7s-17.2,14.8-7.4,41.8,5.4,45.6,2.2,60.2-.6,19.5,3.3,23.5" transform="translate(-32.6 -29.1)"/><path class="cls-26" d="M148.6,304.3s9.2,10.3,2.9,25.3-9.8,25.7-12.1,37.3-7.7,14.6-7.7,14.6" transform="translate(-32.6 -29.1)"/><path class="cls-26" d="M149.1,252.2s-9.5-.5-14,11.7-.2,33.1-1.8,40.4" transform="translate(-32.6 -29.1)"/><path class="cls-26" d="M124.6,252.2s-13.9.5-18.4,19.8,8.9,35.4,10.4,50.4-7.1,28.9-6.5,39.3,6.5,15.8,6.5,15.8" transform="translate(-32.6 -29.1)"/></g><path class="cls-1" d="M211.6,331.4s30.5,2.2,34.8,2.2,44.7-39.9,51.9-47.8S336.2,268,336.2,268s-.4,3.3-12.2,8.7c0,0,6.1,1.9,5.9,6.5-.4,9.8-.4,10.1-7.2,8.6,0,0-4.7,5.3-14.6,2.8,0,0-23.7,29.5-34.2,43s-14.8,17.9-18.8,19.4-52.2,4.7-52.2,4.7Z" transform="translate(-32.6 -29.1)"/><path class="cls-10" d="M173.3,367.3c15.8,9.8,42.3-2.4,42.3-2.4s4.7-21.5,0-35.3c0,0-33.3-6.5-51.5-.2a7.6,7.6,0,0,0-4.2,4.1" transform="translate(-32.6 -29.1)"/><path class="cls-13" d="M211.4,328.9a78.8,78.8,0,0,1,.6,33.7" transform="translate(-32.6 -29.1)"/><path class="cls-13" d="M206.1,342.7s-11,17.9-25.1,20.6" transform="translate(-32.6 -29.1)"/><path class="cls-13" d="M195.9,370.6s-7.4,8.6-16.3,8.6" transform="translate(-32.6 -29.1)"/><path class="cls-13" d="M188.8,371.1a7,7,0,0,1,0,5.3h0s1.3,5.2-1.1,12.7c-1.7,5.6-1.6,21.3-2.4,32.3a195.6,195.6,0,0,1,2.4,33.4" transform="translate(-32.6 -29.1)"/><path class="cls-13" d="M171.9,327.5s13.6-.9,21.6,8.6" transform="translate(-32.6 -29.1)"/><path class="cls-13" d="M327.4,285.9s-1.9,3.4-4.3,4.2c0,0-.2,3.6-6.2,4.9" transform="translate(-32.6 -29.1)"/><path class="cls-13" d="M325.8,288.2a2.4,2.4,0,0,1,1.2,1.4" transform="translate(-32.6 -29.1)"/><path class="cls-13" d="M128.5,430.7S142.6,449,156,442.4" transform="translate(-32.6 -29.1)"/><path class="cls-13" d="M164.1,392.7s-9.5,29.1-30.8,27.8" transform="translate(-32.6 -29.1)"/></g></svg>