<svg id="Layer_1" data-name="Layer 1" xmlns="http://www.w3.org/2000/svg" xmlns:xlink="http://www.w3.org/1999/xlink" viewBox="0 0 366.2 368.9"><defs><style>.cls-1,.cls-11,.cls-3,.cls-31,.cls-32,.cls-35{fill:none;}.cls-2{fill:#efeeed;}.cls-10,.cls-17,.cls-3,.cls-31,.cls-34,.cls-35,.cls-5{stroke:#263238;}.cls-10,.cls-11,.cls-17,.cls-3,.cls-31,.cls-32,.cls-34,.cls-35,.cls-5{stroke-linecap:round;stroke-linejoin:round;}.cls-4,.cls-5{fill:#263238;}.cls-6{opacity:0.25;}.cls-7{fill:#edf2f0;}.cls-34,.cls-8{fill:#ff9a00;}.cls-9{clip-path:url(#clip-path);}.cls-10{fill:#ff8f00;}.cls-11,.cls-32{stroke:#fff;}.cls-12,.cls-17,.cls-28{fill:#fff;}.cls-13{clip-path:url(#clip-path-2);}.cls-14{fill:#0f4c81;}.cls-15{clip-path:url(#clip-path-3);}.cls-16{clip-path:url(#clip-path-4);}.cls-18{clip-path:url(#clip-path-5);}.cls-19{fill:#051b2b;}.cls-20{clip-path:url(#clip-path-6);}.cls-21{clip-path:url(#clip-path-7);}.cls-22{opacity:0.14;}.cls-22,.cls-28{isolation:isolate;}.cls-23{clip-path:url(#clip-path-8);}.cls-24{clip-path:url(#clip-path-9);}.cls-25{clip-path:url(#clip-path-10);}.cls-26{clip-path:url(#clip-path-11);}.cls-27{clip-path:url(#clip-path-12);}.cls-28{opacity:0.53;}.cls-29{clip-path:url(#clip-path-13);}.cls-30{clip-path:url(#clip-path-14);}.cls-31{stroke-width:2px;}.cls-32{stroke-width:0.75px;}.cls-33{clip-path:url(#clip-path-15);}.cls-35{stroke-width:4px;}</style><clipPath id="clip-path" transform="translate(0)"><path class="cls-1" d="M144.1,161.5s-26-3-43.2,10.3-31.8,69.3-31.5,96,10.3,40.1,35.3,51.1,71.6,6.8,97.7-1.4,34.6-37,34.3-52.4-17.5-33.3-23.3-37.1-22.3-11.6-30.5-24S162.6,165,144.1,161.5Z"/></clipPath><clipPath id="clip-path-2" transform="translate(0)"><path class="cls-1" d="M143.2,164.3s-9.3,3-10.7,5.3-.3,18.7-.3,20.7,1.2-1.2,2.2-3.5,4.5-5.8,5.6-5.5,1.9,1.7,1.9,3.8,2.6,5.2,5,6.9l4.5,3.3,6-8.8c1.1-1.9,1-5.7,1.1-7s3.2,3.6,3.9,2.3-1.5-2.5-3.9-6.2-1.6-7.5-5.1-10.1S145.9,163.6,143.2,164.3Z"/></clipPath><clipPath id="clip-path-3" transform="translate(0)"><path class="cls-1" d="M121.1,231.9s-5.7-8.3-12.7-9-15.5,5-15.8,7-2,12.7-.7,14.2,6,2.8,15.2-.2S120.1,237.1,121.1,231.9Z"/></clipPath><clipPath id="clip-path-4" transform="translate(0)"><path class="cls-1" d="M101.6,234.1s-9.4,3.7-9.7,11c-.2,4,6.5,5.8,13.5,5.8s17-8.8,23.5-12.5,21.5-12.5,23.2-13.3,7.8,1.3,10.3,2a35.3,35.3,0,0,0,7.2.8s3.5,5.5,5.3,5.5-3.8-8.3-4.5-10-13-5.8-14.5-5.8-36.5,8.8-41.8,10.8S101.6,234.1,101.6,234.1Z"/></clipPath><clipPath id="clip-path-5" transform="translate(0)"><polygon class="cls-1" points="167.1 221.4 140.3 240.3 201.6 238.6 222.1 221.6 167.1 221.4"/></clipPath><clipPath id="clip-path-6" transform="translate(0)"><path class="cls-1" d="M187.4,240.1s22-19.2,43.7-25.7,26.3-5.5,25.8,4.2-11,60.8-18,73.8-15.8,36.7-15.5,41.2,8.7,17.8,16.2,22.5,6.8,10.5,2,11.5-10.2,2.8-26.5-7.7-23-25.5-22-29.3,11.5-8.7,15.8-16.2,11.2-35.5,11.7-48.3a76,76,0,0,1,5-23.5s-27.5,5-35.5,10Z"/></clipPath><clipPath id="clip-path-7" transform="translate(0)"><path class="cls-1" d="M208.9,314.4l-1.1,1.6a25.4,25.4,0,0,1,14.1,5.9l3.4,3.3c4.8-6.5,10.2-26.8,16.2-35.1,15.8-21.6,14.9-61.7,15.4-71.5s-4-10.7-25.8-4.2-43.7,25.7-43.7,25.7l2.7,12.5c8-5,35.5-10,35.5-10a76,76,0,0,0-5,23.5C220.1,278.9,213.1,306.9,208.9,314.4Z"/></clipPath><clipPath id="clip-path-8" transform="translate(0)"><path class="cls-1" d="M121.9,244.1s-8,4.5-10.8,9.5,9.1,13.4,21.6,12.9,35.4-14.1,35.4-14.1.3,22,4.5,30,23.8,27.5,31.5,32.5,33.8,23.7,37.8,26.7,11.5,8.5,13.2,8.8,20-22,24.3-29.5,8-23.3,6.5-26.8-4.5-.5-7.5,2-30.5,20.8-33,22a32.5,32.5,0,0,1-4.3,1.8s-22.5-21.5-34.5-38-13-37.8-17.5-45.8-11-11.5-20.7-10.5S138.4,231.9,121.9,244.1Z"/></clipPath><clipPath id="clip-path-9" transform="translate(0)"><path class="cls-1" d="M239.6,318.4c-5.3-5.2-25.2-31.8-33-47.1-11.5-22.4-12.7-30.1-17.2-38.1s-11.3-8.6-21-7.6-27.2,2.8-48.6,15c0,0-9,4.9-11.8,9.9s7.3,17.5,24.7,16c12.5-1.2,35.4-14.1,35.4-14.1s.3,22,4.5,30,23.8,27.5,31.5,32.5c4.9,3.1,17.2,11.8,26.5,18.5C233,325.1,237.1,320.5,239.6,318.4Z"/></clipPath><clipPath id="clip-path-10" transform="translate(0)"><path class="cls-1" d="M279.4,320.9c4.2-7.5,8-23.3,6.5-26.8-.9-2-2.3-1.8-3.9-.9,1.1,4.7,0,13.7-5.1,23.4s-18.9,24-26.1,31.4a18.2,18.2,0,0,0,4.3,2.4C256.9,350.6,275.1,328.4,279.4,320.9Z"/></clipPath><clipPath id="clip-path-11" transform="translate(0)"><path class="cls-1" d="M239.6,356.1a31.4,31.4,0,0,1-6.6-6c-5.2-2.2-12.1-5-18.1-8.7s-5-6.5-8.8-10.3-8.5-3.2-11-3.3a6.9,6.9,0,0,0-2,2.8c-1,3.8,5.8,18.8,22,29.3s21.8,8.7,26.5,7.7S247.1,360.9,239.6,356.1Z"/></clipPath><clipPath id="clip-path-12" transform="translate(0)"><path class="cls-1" d="M240.9,357.9c-6.5-3.8-19.8-6.3-28.3-12s-6.2-10.8-12.5-14.8c-2.9-1.8-5.2-1.4-7-.4-.9,3.9,5.9,18.8,22,29.2s21.8,8.7,26.5,7.7,4.5-3.4,2.9-6.6A13.4,13.4,0,0,0,240.9,357.9Z"/></clipPath><clipPath id="clip-path-13" transform="translate(0)"><path class="cls-1" d="M140.5,151.3s1.2,12.7,1.7,16.6,1.6,15.5,2.7,19.3,7.4,10.4,8.1,8.8,3.7-11.8,2.4-17.9-1.6-11.5-.8-13,3.5-3.3,3.5-3.3c-3.2-1.7-6.4-3.5-9.4-5.5S141.1,150,140.5,151.3Z"/></clipPath><clipPath id="clip-path-14" transform="translate(0)"><path class="cls-1" d="M140.1,153.1s7.2,6.1,12.7,8.2,14,2.1,15.2-.8-2.1-25.6-5-31.6-5.9-6-10.9-6.5-15.1,3.6-16.8,8.5.2,11.7,1.7,15.8A25.3,25.3,0,0,0,140.1,153.1Z"/></clipPath><clipPath id="clip-path-15" transform="translate(0)"><path class="cls-1" d="M142.2,147.2s-3.2-4.7-6.6-2.8-.8,8.5,1.3,10.8,6-2,6.4-3.1"/></clipPath></defs><title>آدم صفحه راهنمایی خریدار</title><g id="Background_Simple" data-name="Background Simple"><path class="cls-2" d="M344.3,262.4c7.4-61.1-28.8-142.2-66.3-175.7C210.2,26.2,153.9,37.9,110,59.6s-50,94-80.3,126.7-47.4,76.8-1.5,120.6,82.9,21.5,130.9,18.8,111.6,19.1,146,0C329.1,312.4,341,289.4,344.3,262.4Z" transform="translate(0)"/></g><g id="Background"><line class="cls-3" x1="154.4" y1="260.2" x2="154.4" y2="35.3"/><polyline class="cls-3" points="8.2 262.5 150.1 262.5 365.7 332"/><path class="cls-4" d="M72.8,257.2H63V95.1H83.2L74.5,63.6H48.3L39.6,95.1H59.8V257.2H50a9.6,9.6,0,0,0-9.6,9.4h0c.3,2.3,9.6,4.1,21,4.1s20.7-1.8,21-4.1h0A9.6,9.6,0,0,0,72.8,257.2Z" transform="translate(0)"/><path class="cls-5" d="M203.4,24.2V215l143.7,23.6V.5ZM343.3,78.8l-73,4.1V16.6L343.3,5Zm-73,11.1,73-3.3v66.6l-73-3.4Zm-5.9,59.6-58.6-2.7V92.9l58.6-2.7Zm0-131.9V83.3l-58.6,3.3V26.9ZM205.8,153.1l58.6,3.3v65.2l-58.6-9.4Zm64.5,69.4V156.8l73,4.2v73.1Z" transform="translate(0)"/></g><g id="Character"><g class="cls-6"><ellipse class="cls-7" cx="153.9" cy="319.4" rx="114.9" ry="35.8"/></g><path class="cls-8" d="M144.1,161.5s-26-3-43.2,10.3-31.8,69.3-31.5,96,10.3,40.1,35.3,51.1,71.6,6.8,97.7-1.4,34.6-37,34.3-52.4-17.5-33.3-23.3-37.1-22.3-11.6-30.5-24S162.6,165,144.1,161.5Z" transform="translate(0)"/><g class="cls-9"><path class="cls-10" d="M207.2,315.7c-9.9-1.4-21.6-4-30.4-9.4-18.7-11.3-23.3-32.7-30-40.7s-18.7-7.3-24-16,3.3-72.6-12-76.6a34.3,34.3,0,0,0-9.6-1.4l-.3.2c-17.1,13.4-31.8,69.3-31.5,96s10.3,40.1,35.3,51.1,71.6,6.8,97.7-1.4A46.8,46.8,0,0,0,207.2,315.7Z" transform="translate(0)"/></g><path class="cls-3" d="M144.1,161.5s-26-3-43.2,10.3-31.8,69.3-31.5,96,10.3,40.1,35.3,51.1,71.6,6.8,97.7-1.4,34.6-37,34.3-52.4-17.5-33.3-23.3-37.1-22.3-11.6-30.5-24S162.6,165,144.1,161.5Z" transform="translate(0)"/><path class="cls-5" d="M133.9,173.6s-17,3.3-20,6.3-15.5,50-15.5,50a18.8,18.8,0,0,1,10.5.5c5,2,5.5,7.2,6,9.7s.6,6,.7,9c0,0,50.6-4.5,61.3-7s27.1-3.6,27.1-3.6-27.6-62.4-31.9-64.6-22-2.5-24.5-2S133.9,173.6,133.9,173.6Z" transform="translate(0)"/><line class="cls-11" x1="117.1" y1="231.3" x2="121.4" y2="196.6"/><line class="cls-11" x1="120.4" y1="205.8" x2="126.1" y2="198.3"/><path class="cls-11" d="M137.6,210.4s16.3-5.3,27-5.3" transform="translate(0)"/><path class="cls-11" d="M153,196l-1.1,8.4s2.7,0,3,1.2a3.5,3.5,0,0,1-1,2.5s7.7,4.3,8.7,9.3" transform="translate(0)"/><path class="cls-12" d="M143.2,164.3s-9.3,3-10.7,5.3-.3,18.7-.3,20.7,1.2-1.2,2.2-3.5,4.5-5.8,5.6-5.5,1.9,1.7,1.9,3.8,2.6,5.2,5,6.9l4.5,3.3,6-8.8c1.1-1.9,1-5.7,1.1-7s3.2,3.6,3.9,2.3-1.5-2.5-3.9-6.2-1.6-7.5-5.1-10.1S145.9,163.6,143.2,164.3Z" transform="translate(0)"/><g class="cls-13"><path class="cls-14" d="M132.5,169.6c-.9,1.6-.7,9.4-.5,15,2.1-2.8,6.5-7.9,9-7s4.5,10.5,4.5,10.5l-2.2-23.8h-.1S133.9,167.3,132.5,169.6Z" transform="translate(0)"/><path class="cls-2" d="M132.5,169.6c-.9,1.6-.7,9.4-.5,15,2.1-2.8,6.5-7.9,9-7s4.5,10.5,4.5,10.5l-2.2-23.8h-.1S133.9,167.3,132.5,169.6Z" transform="translate(0)"/></g><path class="cls-3" d="M143.2,164.3s-9.3,3-10.7,5.3-.3,18.7-.3,20.7,1.2-1.2,2.2-3.5,4.5-5.8,5.6-5.5,1.9,1.7,1.9,3.8,2.6,5.2,5,6.9l4.5,3.3,6-8.8c1.1-1.9,1-5.7,1.1-7s3.2,3.6,3.9,2.3-1.5-2.5-3.9-6.2-1.6-7.5-5.1-10.1S145.9,163.6,143.2,164.3Z" transform="translate(0)"/><path class="cls-12" d="M121.1,231.9s-5.7-8.3-12.7-9-15.5,5-15.8,7-2,12.7-.7,14.2,6,2.8,15.2-.2S120.1,237.1,121.1,231.9Z" transform="translate(0)"/><g class="cls-15"><path class="cls-14" d="M97.7,243.9s-2-5.8-1-7.8,5-4.9,7.5-7.9-5.8,1.7-6.2,0,4.4-4.1,6.2-5.1c-5.8,1.1-11.4,5.2-11.6,6.8s-2,12.7-.7,14.2,2.2,1.5,4.8,1.6A16.2,16.2,0,0,0,97.7,243.9Z" transform="translate(0)"/><path class="cls-2" d="M97.7,243.9s-2-5.8-1-7.8,5-4.9,7.5-7.9-5.8,1.7-6.2,0,4.4-4.1,6.2-5.1c-5.8,1.1-11.4,5.2-11.6,6.8s-2,12.7-.7,14.2,2.2,1.5,4.8,1.6A16.2,16.2,0,0,0,97.7,243.9Z" transform="translate(0)"/></g><path class="cls-3" d="M121.1,231.9s-5.7-8.3-12.7-9-15.5,5-15.8,7-2,12.7-.7,14.2,6,2.8,15.2-.2S120.1,237.1,121.1,231.9Z" transform="translate(0)"/><path class="cls-12" d="M101.6,234.1s-9.4,3.7-9.7,11c-.2,4,6.5,5.8,13.5,5.8s17-8.8,23.5-12.5,21.5-12.5,23.2-13.3,7.8,1.3,10.3,2a35.3,35.3,0,0,0,7.2.8s3.5,5.5,5.3,5.5-3.8-8.3-4.5-10-13-5.8-14.5-5.8-36.5,8.8-41.8,10.8S101.6,234.1,101.6,234.1Z" transform="translate(0)"/><g class="cls-16"><path class="cls-14" d="M121.2,233.1c14.3-7.2,34.7-15.5,34.7-15.5s-36.5,8.8-41.8,10.8-12.5,5.7-12.5,5.7-9.4,3.7-9.7,11c-.2,4,6.5,5.8,13.5,5.8s17-8.8,23.5-12.5l3.9-2.3C123.3,237.3,110.5,238.4,121.2,233.1Z" transform="translate(0)"/><path class="cls-2" d="M121.2,233.1c14.3-7.2,34.7-15.5,34.7-15.5s-36.5,8.8-41.8,10.8-12.5,5.7-12.5,5.7-9.4,3.7-9.7,11c-.2,4,6.5,5.8,13.5,5.8s17-8.8,23.5-12.5l3.9-2.3C123.3,237.3,110.5,238.4,121.2,233.1Z" transform="translate(0)"/></g><path class="cls-3" d="M101.6,234.1s-9.4,3.7-9.7,11c-.2,4,6.5,5.8,13.5,5.8s17-8.8,23.5-12.5,21.5-12.5,23.2-13.3,7.8,1.3,10.3,2a35.3,35.3,0,0,0,7.2.8s3.5,5.5,5.3,5.5-3.8-8.3-4.5-10-13-5.8-14.5-5.8-36.5,8.8-41.8,10.8S101.6,234.1,101.6,234.1Z" transform="translate(0)"/><path class="cls-17" d="M174.7,178.5l-7.6,42.9,55,.2,8.2-40.6a2.4,2.4,0,0,0-1.9-2.9h-.5l-50.6-1.6A2.8,2.8,0,0,0,174.7,178.5Z" transform="translate(0)"/><polygon class="cls-12" points="167.1 221.3 140.4 240.3 201.6 238.5 222.1 221.6 167.1 221.3"/><g class="cls-18"><polygon class="cls-19" points="167.1 221.3 140.4 240.3 201.6 238.5 222.1 221.6 167.1 221.3"/></g><polygon class="cls-3" points="167.1 221.3 140.4 240.3 201.6 238.5 222.1 221.6 167.1 221.3"/><path class="cls-12" d="M187.4,240.1s22-19.2,43.7-25.7,26.3-5.5,25.8,4.2-11,60.8-18,73.8-15.8,36.7-15.5,41.2,8.7,17.8,16.2,22.5,6.8,10.5,2,11.5-10.2,2.8-26.5-7.7-23-25.5-22-29.3,11.5-8.7,15.8-16.2,11.2-35.5,11.7-48.3a76,76,0,0,1,5-23.5s-27.5,5-35.5,10Z" transform="translate(0)"/><g class="cls-20"><path class="cls-14" d="M187.4,240.1s22-19.2,43.7-25.7,26.3-5.5,25.8,4.2-11,60.8-18,73.8-15.8,36.7-15.5,41.2,8.7,17.8,16.2,22.5,6.8,10.5,2,11.5-10.2,2.8-26.5-7.7-23-25.5-22-29.3,11.5-8.7,15.8-16.2,11.2-35.5,11.7-48.3a76,76,0,0,1,5-23.5s-27.5,5-35.5,10Z" transform="translate(0)"/><path class="cls-2" d="M187.4,240.1s22-19.2,43.7-25.7,26.3-5.5,25.8,4.2-11,60.8-18,73.8-15.8,36.7-15.5,41.2,8.7,17.8,16.2,22.5,6.8,10.5,2,11.5-10.2,2.8-26.5-7.7-23-25.5-22-29.3,11.5-8.7,15.8-16.2,11.2-35.5,11.7-48.3a76,76,0,0,1,5-23.5s-27.5,5-35.5,10Z" transform="translate(0)"/></g><path class="cls-3" d="M187.4,240.1s22-19.2,43.7-25.7,26.3-5.5,25.8,4.2-11,60.8-18,73.8-15.8,36.7-15.5,41.2,8.7,17.8,16.2,22.5,6.8,10.5,2,11.5-10.2,2.8-26.5-7.7-23-25.5-22-29.3,11.5-8.7,15.8-16.2,11.2-35.5,11.7-48.3a76,76,0,0,1,5-23.5s-27.5,5-35.5,10Z" transform="translate(0)"/><path class="cls-17" d="M208.9,314.4l-1.1,1.6a25.4,25.4,0,0,1,14.1,5.9l3.4,3.3a213.8,213.8,0,0,1,13.6-32.8c7-13,17.5-64,18-73.8s-4-10.7-25.8-4.2-43.7,25.7-43.7,25.7l2.7,12.5c8-5,35.5-10,35.5-10a76,76,0,0,0-5,23.5C220.1,278.9,213.1,306.9,208.9,314.4Z" transform="translate(0)"/><path class="cls-4" d="M208.9,314.4l-1.1,1.6a25.4,25.4,0,0,1,14.1,5.9l3.4,3.3c4.8-6.5,10.2-26.8,16.2-35.1,15.8-21.6,14.9-61.7,15.4-71.5s-4-10.7-25.8-4.2-43.7,25.7-43.7,25.7l2.7,12.5c8-5,35.5-10,35.5-10a76,76,0,0,0-5,23.5C220.1,278.9,213.1,306.9,208.9,314.4Z" transform="translate(0)"/><g class="cls-21"><path class="cls-22" d="M246.3,217.3c-.4-3.6-39.1,12.8-55.4,19.9l-3.5,2.9,2.7,12.5c8-5,35.5-10,35.5-10a76,76,0,0,0-5,23.5c-.5,12.8-7.5,40.8-11.7,48.3l-1.1,1.6a27,27,0,0,1,8,2.1c6-12.8,12.5-27.7,15.5-39.3C236.8,257.8,246.8,221.8,246.3,217.3Z" transform="translate(0)"/><path class="cls-3" d="M225.6,242.6s7.5-15.2,14-21.5" transform="translate(0)"/></g><path class="cls-3" d="M208.9,314.4l-1.1,1.6a25.4,25.4,0,0,1,14.1,5.9l3.4,3.3c4.8-6.5,10.2-26.8,16.2-35.1,15.8-21.6,14.9-61.7,15.4-71.5s-4-10.7-25.8-4.2-43.7,25.7-43.7,25.7l2.7,12.5c8-5,35.5-10,35.5-10a76,76,0,0,0-5,23.5C220.1,278.9,213.1,306.9,208.9,314.4Z" transform="translate(0)"/><path class="cls-5" d="M154.4,260.3a87.2,87.2,0,0,0,23.7-4.5c11.3-4.1-9.3-11.7-17.2-7.5A11.8,11.8,0,0,0,154.4,260.3Z" transform="translate(0)"/><path class="cls-12" d="M121.9,244.1s-8,4.5-10.8,9.5,9.1,13.4,21.6,12.9,35.4-14.1,35.4-14.1.3,22,4.5,30,23.8,27.5,31.5,32.5,33.8,23.7,37.8,26.7,11.5,8.5,13.2,8.8,20-22,24.3-29.5,8-23.3,6.5-26.8-4.5-.5-7.5,2-30.5,20.8-33,22a32.5,32.5,0,0,1-4.3,1.8s-22.5-21.5-34.5-38-13-37.8-17.5-45.8-11-11.5-20.7-10.5S138.4,231.9,121.9,244.1Z" transform="translate(0)"/><g class="cls-23"><path class="cls-14" d="M227.7,331.3l14.2,10.3c4,3,11.5,8.5,13.2,8.8s3.3-2.7,6.7-6.6l-28.6-18.4Z" transform="translate(0)"/><path class="cls-2" d="M227.7,331.3l14.2,10.3c4,3,11.5,8.5,13.2,8.8s3.3-2.7,6.7-6.6l-28.6-18.4Z" transform="translate(0)"/></g><path class="cls-3" d="M121.9,244.1s-8,4.5-10.8,9.5,9.1,13.4,21.6,12.9,35.4-14.1,35.4-14.1.3,22,4.5,30,23.8,27.5,31.5,32.5,33.8,23.7,37.8,26.7,11.5,8.5,13.2,8.8,20-22,24.3-29.5,8-23.3,6.5-26.8-4.5-.5-7.5,2-30.5,20.8-33,22a32.5,32.5,0,0,1-4.3,1.8s-22.5-21.5-34.5-38-13-37.8-17.5-45.8-11-11.5-20.7-10.5S138.4,231.9,121.9,244.1Z" transform="translate(0)"/><path class="cls-4" d="M239.6,318.4c-5.3-5.2-25.2-31.8-33-47.1-11.5-22.4-12.7-30.1-17.2-38.1s-11.3-8.6-21-7.6-27.2,2.8-48.6,15c0,0-9,4.9-11.8,9.9s7.3,17.5,24.7,16c12.5-1.2,35.4-14.1,35.4-14.1s.3,22,4.5,30,23.8,27.5,31.5,32.5c4.9,3.1,17.2,11.8,26.5,18.5C233,325.1,237.1,320.5,239.6,318.4Z" transform="translate(0)"/><g class="cls-24"><path class="cls-22" d="M189.3,282.8c-7.5-19-3-57-24-52-15.3,3.6-43.3,16.6-57.4,23.3,1.6,5.8,10.8,13.6,24.8,12.4s35.4-14.1,35.4-14.1.3,22,4.5,30,23.8,27.5,31.5,32.5c4.9,3.1,17.2,11.8,26.5,18.5a35.7,35.7,0,0,1,3.5-8.3C215.5,311.3,193.5,293.4,189.3,282.8Z" transform="translate(0)"/><line class="cls-3" x1="168.1" y1="252.3" x2="167.4" y2="239.3"/></g><path class="cls-3" d="M239.6,318.4c-5.3-5.2-25.2-31.8-33-47.1-11.5-22.4-12.7-30.1-17.2-38.1s-11.3-8.6-21-7.6-27.2,2.8-48.6,15c0,0-9,4.9-11.8,9.9s7.3,17.5,24.7,16c12.5-1.2,35.4-14.1,35.4-14.1s.3,22,4.5,30,23.8,27.5,31.5,32.5c4.9,3.1,17.2,11.8,26.5,18.5C233,325.1,237.1,320.5,239.6,318.4Z" transform="translate(0)"/><path class="cls-5" d="M241.9,341.6c4,3,11.5,8.5,13.2,8.8s20-22,24.3-29.5,8-23.3,6.5-26.8-4.5-.5-7.5,2-30.5,20.8-33,22l-1.8.8c-.7,1.4-1.6,3.5-1,5s5.3,5.2,5.3,5.2l-7.6,11.4Z" transform="translate(0)"/><path class="cls-12" d="M279.4,320.9c4.2-7.5,8-23.3,6.5-26.8-.9-2-2.3-1.8-3.9-.9,1.1,4.7,0,13.7-5.1,23.4s-18.9,24-26.1,31.4a18.2,18.2,0,0,0,4.3,2.4C256.9,350.6,275.1,328.4,279.4,320.9Z" transform="translate(0)"/><g class="cls-25"><path class="cls-14" d="M255.4,350.3h.3l.3-.2h.1l.3-.2.2-.2.4-.3.2-.3.3-.3.3-.3.3-.3.7-.7h.1l.5-.5c0-.1.1-.1.1-.2l1.7-1.8h0l.6-.7h0l-4.3-2.8-6.7,7h0l.7.5h.1l.6.4h0l1,.6.3.2h.3l.3.2h1.3Z" transform="translate(0)"/><path class="cls-2" d="M255.4,350.3h.3l.3-.2h.1l.3-.2.2-.2.4-.3.2-.3.3-.3.3-.3.3-.3.7-.7h.1l.5-.5c0-.1.1-.1.1-.2l1.7-1.8h0l.6-.7h0l-4.3-2.8-6.7,7h0l.7.5h.1l.6.4h0l1,.6.3.2h.3l.3.2h1.3Z" transform="translate(0)"/></g><path class="cls-3" d="M279.4,320.9c4.2-7.5,8-23.3,6.5-26.8-.9-2-2.3-1.8-3.9-.9,1.1,4.7,0,13.7-5.1,23.4s-18.9,24-26.1,31.4a18.2,18.2,0,0,0,4.3,2.4C256.9,350.6,275.1,328.4,279.4,320.9Z" transform="translate(0)"/><path class="cls-5" d="M239.6,356.1c-7.5-4.7-16-18-16.2-22.5a3.8,3.8,0,0,1,.1-1.5,7.6,7.6,0,0,0-4.1,1.5,89.6,89.6,0,0,0-9.8-7.7,20.1,20.1,0,0,0-8.9-2.7c-3.7,3-7,5.4-7.6,7.4-1,3.8,5.8,18.8,22,29.3s21.8,8.7,26.5,7.7S247.1,360.9,239.6,356.1Z" transform="translate(0)"/><path class="cls-17" d="M191.6,331.1" transform="translate(0)"/><path class="cls-12" d="M239.6,356.1a31.4,31.4,0,0,1-6.6-6c-5.2-2.2-12.1-5-18.1-8.7s-5-6.5-8.8-10.3-8.5-3.2-11-3.3a6.9,6.9,0,0,0-2,2.8c-1,3.8,5.8,18.8,22,29.3s21.8,8.7,26.5,7.7S247.1,360.9,239.6,356.1Z" transform="translate(0)"/><g class="cls-26"><path class="cls-14" d="M239.6,356.1a31.4,31.4,0,0,1-6.6-6c-5.2-2.2-12.1-5-18.1-8.7s-5-6.5-8.8-10.3-8.5-3.2-11-3.3a6.9,6.9,0,0,0-2,2.8c-1,3.8,5.8,18.8,22,29.3s21.8,8.7,26.5,7.7S247.1,360.9,239.6,356.1Z" transform="translate(0)"/><path class="cls-2" d="M239.6,356.1a31.4,31.4,0,0,1-6.6-6c-5.2-2.2-12.1-5-18.1-8.7s-5-6.5-8.8-10.3-8.5-3.2-11-3.3a6.9,6.9,0,0,0-2,2.8c-1,3.8,5.8,18.8,22,29.3s21.8,8.7,26.5,7.7S247.1,360.9,239.6,356.1Z" transform="translate(0)"/></g><path class="cls-3" d="M239.6,356.1a31.4,31.4,0,0,1-6.6-6c-5.2-2.2-12.1-5-18.1-8.7s-5-6.5-8.8-10.3-8.5-3.2-11-3.3a6.9,6.9,0,0,0-2,2.8c-1,3.8,5.8,18.8,22,29.3s21.8,8.7,26.5,7.7S247.1,360.9,239.6,356.1Z" transform="translate(0)"/><path class="cls-4" d="M240.9,357.9c-6.5-3.8-19.8-6.3-28.3-12s-6.2-10.8-12.5-14.8c-2.9-1.8-5.2-1.4-7-.4-.9,3.9,5.9,18.8,22,29.2s21.8,8.7,26.5,7.7,4.5-3.4,2.9-6.6A13.4,13.4,0,0,0,240.9,357.9Z" transform="translate(0)"/><g class="cls-27"><path class="cls-28" d="M240.9,357.9c-6.5-3.8-19.8-6.3-28.3-12s-6.2-10.8-12.5-14.8c-2.9-1.8-5.2-1.4-7-.4-.9,3.9,5.9,18.8,22,29.2s21.8,8.7,26.5,7.7,4.5-3.4,2.9-6.6A13.4,13.4,0,0,0,240.9,357.9Z" transform="translate(0)"/></g><path class="cls-3" d="M240.9,357.9c-6.5-3.8-19.8-6.3-28.3-12s-6.2-10.8-12.5-14.8c-2.9-1.8-5.2-1.4-7-.4-.9,3.9,5.9,18.8,22,29.2s21.8,8.7,26.5,7.7,4.5-3.4,2.9-6.6A13.4,13.4,0,0,0,240.9,357.9Z" transform="translate(0)"/><path class="cls-17" d="M116.3,310s4.8-5.8,5.5-1.3-.4,12.7-3.8,15.7-5.1-1.7-5.1-1.7l2-2.7s1.7,3.4,3.1-2.1-2.7-4.8-2.7-4.8Z" transform="translate(0)"/><path class="cls-17" d="M112.6,332c-2.8,2.1-12.1,2.1-14.9,0-6-4.5-5-26-5-26h24.9S118.6,327.5,112.6,332Z" transform="translate(0)"/><path class="cls-3" d="M95.4,301.8c0-2.7,2.5-2.7,2.5-5.4s-2.5-2.7-2.5-5.4,2.5-2.7,2.5-5.4-2.5-2.7-2.5-5.4,2.5-2.7,2.5-5.5" transform="translate(0)"/><path class="cls-3" d="M104,301.8c0-2,2.5-2,2.5-4.1s-2.5-2-2.5-4.1,2.5-2.1,2.5-4.1-2.5-2.1-2.5-4.1,2.5-2.1,2.5-4.1" transform="translate(0)"/><path class="cls-3" d="M113.4,301.8c0-2.7,2.6-2.7,2.6-5.4s-2.6-2.7-2.6-5.4,2.6-2.7,2.6-5.4-2.6-2.7-2.6-5.4,2.6-2.7,2.6-5.5" transform="translate(0)"/><path class="cls-17" d="M117.6,306c0,.7-5.6,1.2-12.5,1.2s-12.4-.5-12.4-1.2,5.6-1.1,12.4-1.1S117.6,305.4,117.6,306Z" transform="translate(0)"/><path class="cls-12" d="M140.5,151.3s1.2,12.7,1.7,16.6,1.6,15.5,2.7,19.3,7.4,10.4,8.1,8.8,3.7-11.8,2.4-17.9-1.6-11.5-.8-13,3.5-3.3,3.5-3.3c-3.2-1.7-6.4-3.5-9.4-5.5S141.1,150,140.5,151.3Z" transform="translate(0)"/><g class="cls-29"><path class="cls-14" d="M156.6,162.4l-1.1-2a68.2,68.2,0,0,1-6.8-4.1c-4.4-3-7.6-6.3-8.2-5s1.2,12.7,1.7,16.6,1.6,15.5,2.7,19.3a18.2,18.2,0,0,0,1.6,3.1c-1.2-7.5.1-21.2.1-21.2Z" transform="translate(0)"/><path class="cls-2" d="M156.6,162.4l-1.1-2a68.2,68.2,0,0,1-6.8-4.1c-4.4-3-7.6-6.3-8.2-5s1.2,12.7,1.7,16.6,1.6,15.5,2.7,19.3a18.2,18.2,0,0,0,1.6,3.1c-1.2-7.5.1-21.2.1-21.2Z" transform="translate(0)"/></g><path class="cls-3" d="M140.5,151.3s1.2,12.7,1.7,16.6,1.6,15.5,2.7,19.3,7.4,10.4,8.1,8.8,3.7-11.8,2.4-17.9-1.6-11.5-.8-13,3.5-3.3,3.5-3.3c-3.2-1.7-6.4-3.5-9.4-5.5S141.1,150,140.5,151.3Z" transform="translate(0)"/><path class="cls-12" d="M140.1,153.1s7.2,6.1,12.7,8.2,14,2.1,15.2-.8-2.1-25.6-5-31.6-5.9-6-10.9-6.5-15.1,3.6-16.8,8.5.2,11.7,1.7,15.8A25.3,25.3,0,0,0,140.1,153.1Z" transform="translate(0)"/><g class="cls-30"><path class="cls-14" d="M153,152.9c-2.6-7.6-3.2-19.5-3.2-22.7s6.4-5.1,9.3-6.2c-1.9-1.2-4.1-1.3-7-1.6-5-.5-15.1,3.6-16.8,8.5s.2,11.7,1.7,15.8a25.3,25.3,0,0,0,3.1,6.4s7.2,6.1,12.7,8.2a22,22,0,0,0,11.9,1.2C160.8,161,154.7,157.9,153,152.9Z" transform="translate(0)"/><path class="cls-2" d="M153,152.9c-2.6-7.6-3.2-19.5-3.2-22.7s6.4-5.1,9.3-6.2c-1.9-1.2-4.1-1.3-7-1.6-5-.5-15.1,3.6-16.8,8.5s.2,11.7,1.7,15.8a25.3,25.3,0,0,0,3.1,6.4s7.2,6.1,12.7,8.2a22,22,0,0,0,11.9,1.2C160.8,161,154.7,157.9,153,152.9Z" transform="translate(0)"/></g><path class="cls-3" d="M140.1,153.1s7.2,6.1,12.7,8.2,14,2.1,15.2-.8-2.1-25.6-5-31.6-5.9-6-10.9-6.5-15.1,3.6-16.8,8.5.2,11.7,1.7,15.8A25.3,25.3,0,0,0,140.1,153.1Z" transform="translate(0)"/><path class="cls-3" d="M163.6,138.3c.1,2.9-1.7,5.3-4,5.4s-4.4-2.2-4.5-5.1,1.7-5.3,4-5.4S163.5,135.4,163.6,138.3Z" transform="translate(0)"/><path class="cls-3" d="M169.2,137.2c.2,2.9-.8,5.2-2,5.3s-2.4-2.3-2.5-5.1.8-5.3,2.1-5.3S169.1,134.3,169.2,137.2Z" transform="translate(0)"/><path class="cls-17" d="M163.9,137.2s8.2,1.6,7.4,3.6-6.3,4.1-6.3,4.1" transform="translate(0)"/><path class="cls-3" d="M163.4,136.3s.1-1,1.4-.4" transform="translate(0)"/><line class="cls-3" x1="154.9" y1="139.1" x2="139.9" y2="145"/><path class="cls-31" d="M155.1,134.2a3.5,3.5,0,0,1,3.7-2.2" transform="translate(0)"/><line class="cls-31" x1="165.1" y1="132" x2="162.8" y2="132.9"/><path class="cls-3" d="M162.6,149.7s-2.9.8-4.7-1" transform="translate(0)"/><path class="cls-4" d="M159.9,138.8c.1,1-.1,1.9-.4,1.9s-.8-.7-.9-1.7,0-1.9.4-1.9S159.7,137.8,159.9,138.8Z" transform="translate(0)"/><path class="cls-5" d="M141.3,145s-1,2,1.8,2.1,4.7-1.2,3.3-2.9-3.3-3.4-1.3-5.6,6.2-4.2,3.9-6.7-10.7-.3-8.6-2.3,11.8-4.2,16.2-3.9,12.5-3.1,14.3-7.5-.7-12.6-6.6-12.2-10.2,5.7-12.8,6-7.9-2.5-12.4,0-4.6,9.8-5,10.7-6.5,2.2-7.5,8.3a16.3,16.3,0,0,0,4.2,13.8l3.6,3.8Z" transform="translate(0)"/><path class="cls-32" d="M128.5,134a4.1,4.1,0,0,0,.7,2.6" transform="translate(0)"/><path class="cls-32" d="M154,118.1s-2.2-4.8,3.4-4.8,6.4,7,.6,9.6-18.3,3.2-25,6.2a7.9,7.9,0,0,0-3.5,2.4" transform="translate(0)"/><path class="cls-32" d="M144,135.1c-2,.7-4.6,1.7-7.3,2.9-5.5,2.6-4.3,5.2-4.3,5.2" transform="translate(0)"/><path class="cls-32" d="M147.7,133.8l-1.3.4" transform="translate(0)"/><path class="cls-12" d="M142.2,147.2s-3.2-4.7-6.6-2.8-.8,8.5,1.3,10.8,6-2,6.4-3.1" transform="translate(0)"/><g class="cls-33"><path class="cls-14" d="M142.2,147.2s-3.2-4.7-6.6-2.8-.8,8.5,1.3,10.8,6-2,6.4-3.1" transform="translate(0)"/><path class="cls-2" d="M142.2,147.2s-3.2-4.7-6.6-2.8-.8,8.5,1.3,10.8,6-2,6.4-3.1" transform="translate(0)"/></g><path class="cls-3" d="M142.2,147.2s-3.2-4.7-6.6-2.8-.8,8.5,1.3,10.8,6-2,6.4-3.1" transform="translate(0)"/><rect class="cls-17" x="24.6" y="142.9" width="81.9" height="62.64" rx="5.1"/><polyline class="cls-17" points="105 188 153 200.5 105 177"/><rect class="cls-34" x="31.3" y="148.9" width="19.3" height="19.27"/><rect class="cls-34" x="99.9" y="148.9" width="2.4" height="50.6"/><rect class="cls-5" x="99.9" y="153.3" width="2.4" height="4.32"/><line class="cls-3" x1="56.6" y1="161" x2="94.5" y2="161"/><line class="cls-35" x1="56.6" y1="154.2" x2="94.5" y2="154.2"/><line class="cls-3" x1="56.6" y1="166.4" x2="94.5" y2="166.4"/><line class="cls-3" x1="56.6" y1="179.6" x2="94.5" y2="179.6"/><line class="cls-3" x1="56.6" y1="184.5" x2="94.5" y2="184.5"/><line class="cls-3" x1="56.6" y1="189.3" x2="94.5" y2="189.3"/><line class="cls-3" x1="56.6" y1="199.3" x2="94.5" y2="199.3"/><line class="cls-3" x1="31.3" y1="168.2" x2="50.5" y2="148.9"/></g><g id="Plants"><ellipse class="cls-7" cx="321.7" cy="332" rx="16.7" ry="7.5"/><path class="cls-4" d="M302.1,221.1c1.8.8,6.2.7,6.2.7l-1.1-3.1c-.9-2-4-5.3-6.4-5a3.1,3.1,0,0,0-2.5,3.5c.1,0,.1.1.1.2C298.8,219.1,300.6,220.4,302.1,221.1Z" transform="translate(0)"/><path class="cls-4" d="M359.5,206.2c-2.5-.3-5.5,3.1-6.4,5.1a15.8,15.8,0,0,0-.9,3.1h0l-1.5,1.8c-.9,1.1-2,2.5-3.1,4.1a44.5,44.5,0,0,0-3.3,5.1,35.2,35.2,0,0,0-2.7,6.3c0,.1,0,.1-.1.1h0a15,15,0,0,0,0-3c-.3-2.2-2.1-6.3-4.6-6.7a2.9,2.9,0,0,0-3.4,2.4v.4a6.4,6.4,0,0,0,2.4,4.6c1.4,1.2,5.3,2.4,5.6,2.5a52,52,0,0,0-1.7,6.8l-.6,4.1v-1.3c-.3-2.2-2.2-6.3-4.6-6.8a3,3,0,0,0-3.4,2.6v.2c-.2,1.7,1.1,3.5,2.4,4.6s4.5,2.2,5.4,2.5a8.8,8.8,0,0,0-.2,1.6c-.3,2.5-.6,5-1,7.4a23.4,23.4,0,0,1-.4,2.6v-1.1c-.3-2.2-2.2-6.3-4.6-6.8a3,3,0,0,0-3.4,2.6v.2c-.2,1.7,1.1,3.5,2.3,4.6s4.3,2.1,5.3,2.5l-.6,2.5a10.5,10.5,0,0,1-.4,1.7l-.6,1.6c-.3,1-.7,2.1-1.1,3.1l-.8,2c.1-.8.4-2.5.4-2.7a11,11,0,0,0-1.6-5.5v-.7a3,3,0,0,0-3.2-2.6h-.4c-2.4.6-4,4.9-4.1,7.1,0,.1.1,1.6.2,2.5a9.4,9.4,0,0,1-.4-1.6c-.2-1.1-.5-2.1-.8-3.3a9.8,9.8,0,0,1-.5-1.6l-.6-1.7c-.5-1.3-1-2.6-1.6-3.9s4.2-1.1,5.5-2.1,2.8-2.7,2.8-4.4a2.9,2.9,0,0,0-3-3H326c-2.5.2-4.7,4.2-5.1,6.4,0,.1-.2,1.7-.3,2.6-.3-.8-.7-1.6-1-2.3l-3.5-6.7-1.1-2.1c.3-.1,4.3-1,5.8-2.1a5.9,5.9,0,0,0,2.7-4.4,2.9,2.9,0,0,0-2.9-3.1h-.3c-2.5.3-4.6,4.3-5.1,6.4,0,.2-.2,2.5-.3,3.1l-2.2-4.5a34.1,34.1,0,0,1-2.4-6.3c.1,0,4.2-1,5.8-2.2s2.7-2.6,2.7-4.4a2.9,2.9,0,0,0-2.8-3h-.4c-2.5.3-4.6,4.2-5.1,6.4,0,.2-.3,2.6-.3,3.1s-.1-.3-.1-.4a38.5,38.5,0,0,1-1.3-6.6c-.1-1.3-.2-2.4-.2-3.6s4.4-.6,5.9-1.5,3-2.3,3.1-4.1a2.9,2.9,0,0,0-2.5-3.3h-.3c-2.5,0-5.1,3.6-5.7,5.8a17.4,17.4,0,0,0-.5,2.2v-1.6c0-1.9.1-3.6.2-5.1a18.5,18.5,0,0,1,.3-2.4c.1-.7,3.6-2.6,4.5-4a6.2,6.2,0,0,0,.9-5.1,2.9,2.9,0,0,0-3.8-1.8h-.3c-2.2,1.2-2.8,5.6-2.4,7.8,0,.2.9,3.1.9,3.1h0a17.9,17.9,0,0,0-.2,2.3,43.8,43.8,0,0,0-.4,5.1,40.2,40.2,0,0,0,1.3,12.9h0L308,230c-1.5-1.7-5.3-4.1-7.6-3.1a2.9,2.9,0,0,0-1.5,3.8c.1.1.1.3.2.4.8,1.6,2.9,2.3,4.5,2.6s5.8-.9,6.1-1a37.1,37.1,0,0,0,2.4,6.6c.5,1.2,1.1,2.4,1.7,3.7l-.8-1.1c-1.4-1.7-5.2-4.1-7.5-3.1a2.9,2.9,0,0,0-1.5,3.8c.1.1.1.3.2.4.8,1.6,2.8,2.3,4.5,2.6s5-.7,5.9-.9.5.9.7,1.4c1.1,2.2,2.3,4.5,3.3,6.7l1.1,2.4c-.4-.5-.6-.9-.7-.9-1.4-1.7-5.2-4.1-7.5-3.1a2.8,2.8,0,0,0-1.5,3.7l.2.4c.8,1.6,2.8,2.4,4.5,2.6a18.4,18.4,0,0,0,5.7-.9l1,2.5a9.8,9.8,0,0,0,.5,1.6c.1.6.3,1.1.4,1.7s.6,2.1.8,3.2a15.5,15.5,0,0,1,.4,2.1c-.3-.8-1.1-2.3-1.1-2.4-1.2-1.9-4.6-4.9-7-4.2a2.9,2.9,0,0,0-2.1,3.5.6.6,0,0,0,.1.4c.6,1.7,2.5,2.7,4.1,3.2a20.8,20.8,0,0,0,6.1,0c.3,1.1.5,2.3.7,3.3.6,3.8,1,6.9,1.3,9,0,.4.1.8.1,1.1h-7.5l2.4,47.1a6.7,6.7,0,0,0,6.7,6.4h0a6.8,6.8,0,0,0,6.8-6.4l2.4-47.1h-7c0-.1.1-.2.1-.3,1-2,2.3-4.9,3.8-8.4.4-1.1.9-2.3,1.3-3.5s4.4.8,6.1.4a6.4,6.4,0,0,0,4.4-2.9,2.9,2.9,0,0,0-1.4-3.9h-.3c-2.3-.8-5.9,1.8-7.3,3.6,0,.1-.8,1.4-1.2,2.2l.6-1.5c.3-1.1.7-2.1,1.1-3.2a10.9,10.9,0,0,1,.5-1.7,10.5,10.5,0,0,1,.4-1.7c.3-1.3.6-2.7.8-4.1.9.3,4.1,1.4,5.8,1.3s3.7-.7,4.7-2.2a3,3,0,0,0-.8-4.2h-.2c-2.2-1.1-6.2,1-7.8,2.6l-1.6,2c.1-.8.3-1.7.4-2.5.3-2.5.5-5,.8-7.5a17.9,17.9,0,0,1,.2-2.3c.3.1,4.1,1.5,6,1.4a5.7,5.7,0,0,0,4.7-2.2,3,3,0,0,0-.8-4.2h-.2c-2.2-1.1-6.2,1-7.8,2.5l-1.9,2.4.6-5c.4-2.2.9-4.5,1.5-6.6.1.1,4.1,1.6,6,1.5a6,6,0,0,0,4.7-2.2,3,3,0,0,0-.8-4.2h-.2c-2.2-1.2-6.2.9-7.8,2.5l-1.9,2.5c0-.2.1-.3.1-.4a34.8,34.8,0,0,1,2.6-6.3l1.8-3.1a19.4,19.4,0,0,0,5.7,2c1.6.1,3.8-.3,4.9-1.7a2.9,2.9,0,0,0-.2-4.1l-.3-.2c-2.1-1.4-6.3.3-8,1.6l-1.6,1.6.8-1.3c1.1-1.6,2.1-2.9,3.1-4.1l1.5-1.9c.9,0,4.4-.1,5.9-.8s3.3-2.1,3.6-3.8a3,3,0,0,0-2.2-3.5ZM332,272.8c-1.5,3.5-2.9,6.3-3.9,8.2l-.5,1.1h-.2a5.9,5.9,0,0,0-.2-1.3c-.3-2.2-.7-5.3-1.5-9-.2-1.2-.5-2.5-.8-3.7s2-.8,3.4-1.6a23.7,23.7,0,0,0,5,3.2C332.9,270.8,332.4,271.8,332,272.8Z" transform="translate(0)"/><path class="cls-4" d="M346.4,222c0,.1.8-2.9.8-3.1.3-2.2-.4-6.6-2.6-7.7a3,3,0,0,0-3.9,1.4v.4c-.7,1.6.1,3.7,1,5.1S346.4,222,346.4,222Z" transform="translate(0)"/></g></svg>