<svg xmlns="http://www.w3.org/2000/svg" xmlns:xlink="http://www.w3.org/1999/xlink" viewBox="0 0 440.6 446.6"><defs><style>.cls-1,.cls-12,.cls-15,.cls-17,.cls-18,.cls-3,.cls-7{fill:#fff;}.cls-1,.cls-10,.cls-18,.cls-2,.cls-21,.cls-23,.cls-3{stroke:#263238;}.cls-1,.cls-10,.cls-16,.cls-17,.cls-2{stroke-miterlimit:10;}.cls-13,.cls-2{fill:#46a0ae;}.cls-18,.cls-19,.cls-20,.cls-21,.cls-23,.cls-24,.cls-3{stroke-linecap:round;stroke-linejoin:round;}.cls-4,.cls-5{fill:#edf2f0;}.cls-5{opacity:0.7;}.cls-23,.cls-6{fill:#263238;}.cls-8{clip-path:url(#clip-path);}.cls-9{opacity:0.2;}.cls-10,.cls-16,.cls-19,.cls-20,.cls-21,.cls-24{fill:none;}.cls-11{clip-path:url(#clip-path-2);}.cls-12{opacity:0.86;}.cls-14{clip-path:url(#clip-path-3);}.cls-15{opacity:0.65;}.cls-16,.cls-17,.cls-19,.cls-20{stroke:#fff;}.cls-16,.cls-17{stroke-width:0.5px;}.cls-18,.cls-20{stroke-width:0.75px;}.cls-22{clip-path:url(#clip-path-4);}.cls-24{stroke:#000;opacity:0.35;}</style><clipPath id="clip-path" transform="translate(-17.9 -35.4)"><path class="cls-1" d="M421.5,369.5v-9.8L299.2,329.9,86.1,401.2v10.2a1.9,1.9,0,0,0,.5,1.4,2.6,2.6,0,0,0,1.4.9l119.8,49.5,3,.8,3.5.2,3.5-.4a12.5,12.5,0,0,0,3.1-1l199.2-90.9a1.7,1.7,0,0,0,1-.8A2.2,2.2,0,0,0,421.5,369.5Z"/></clipPath><clipPath id="clip-path-2" transform="translate(-17.9 -35.4)"><circle class="cls-1" cx="253.9" cy="185.6" r="130.3" transform="translate(-56.9 233.9) rotate(-45)"/></clipPath><clipPath id="clip-path-3" transform="translate(-17.9 -35.4)"><path class="cls-2" d="M249.2,125.2l12.3,5.6,3.4,5.6,5.6,2.1.6,5.9-2.1,3.4-4.4,1-9.2-3.8v-1.2l5.2-2.2-1.8-6.5-8.4-3-3.7-5Zm77.9,143-9.9-4.1-12-4.3h-9.6l-9-1.9-9.9,2.2-5.6.3h-3.4l-6.5,3.7-6.2,2.5-8.3-5.2,2.2-8.7-5.3-2.2h-6.2l-.9-2.8.6-5.5-2.2-3.1-4.3.6-1.2,3.1-5.3.3-4.6-5.6-1.9-7.4,4.7-8.7,8.9.7,2.5,2.1h3.7l4.7-2.8,4,1.3,5.5,9.6,2.2-.3-.6-7.1-1.9-3.8.7-5.8,11.4-5,1.5-11.4,5-4.1,4-7.1,3.1-.6,7.1-4.6.3-2.5-4.9.3-.9-2.5h-3.4l-5.3,1.3,2.5-4.1,10.8-3,2.5-2.8L290,176l2.8,2.8,4.3-1.3-1.8-4-6.5-4.6-7.5-8.4-7.7-5.2-7.4-1.3-3.7-3.7-5-1.2-.6,1.2-.6,9,1.2,3.1-2.8,9.9-6.1-5,.9-4.3-6.5-3.1-2.8-3.4,1.5-7.7,9-6.5.6-7.5-3.4.3-2.1-2.7-1-4.7-2.1-.3-1.3,5-3.4.6-1.5-10.8-2.5-1.6-4.3-1.8-5,2.4,6.2,5.9,1.3,5.3L221,124l-7.7-8.3-.6-8.4-8.1-2.5-6.2,4.1s-3.1,1.8-4.6,2.4-7.4,1.3-7.4,1.3l-1.3,5.2-7.1.3.6,3.4,11.5,1.9,5.9,6.5v10.8l-3.4,9.6.6,10.2-8.7,15.2-1.8,22.5,2.7,13,4.1,9.9,4.6.7-1.5-5-2.5-3.7-1.6-6.8,2.8-.6,4.4,11.1,3,9.9v8l5.9,7.2,10.5,7.7,16.1,4.3,5,4.7,3.7,4.9,5.6,3.4,6.8,1.9,6.8-.3s-.3,3.1-.3,4.6-4.4,6.8-4.4,6.8l-3.4,6.2,2.5,6.8,6.8,2.8,9.6,9.9,4.3,1.8v4.7l.6,2.1a128.9,128.9,0,0,0,64.8-30.5l.2-2.2,8.4-15.2-4.1-2.8ZM359.3,146l-3.4-5.9-4.3-6.8-1.3-9.3,5.6.9.3-3.1-4-.3,3.4-1.5,3.7-2.2v-3.1l-3.7-4.9-.8-6.7a130.6,130.6,0,0,0-153-37l7.2,5-4.4,5.6-5.9,1.2-.6,8.4-2.4.9-3.1,3.4.3,5.6,5.2.6L196,102h5.2l9-11.4.9-4.9,8.7-.7,2.1-3.7,9-.9.9-5.3,6.5-.3s4.7-2.4,5.6-2.4a40.7,40.7,0,0,1,5.3,1.5l4.6,3.7h6.5l5.6-3.4,7.1.6a7.1,7.1,0,0,0,3.4,1.3c1.5,0,6.2-2.2,6.2-2.2l8.9,5.6,3.8,2.8v4.6l4.6.6,1.5-2.8,4.1,1.9-.3,2.5-9.3,2.4,5.2,6.8,11.2,6.2,4.6,6.2,6.8.6,1.6-3.1,2.4-.6-8-6.2-5-.6,4.1-1.2-3.7-5.3,5.2-.3,6.8,3.7,1.6,7.4,3.4,4.1,2.8,8.9,6.8,5v10.2l7.1,4.6-.3,3.4-1,4.1,1.9,5.5.6,2.8,5.3.9,2.4-5.2Zm4-31.2v1.8l-1.5,4.9.9,4.4,3.4,1.2V133l-3.7-1.6-.9,16.7-3.8,6.8,2.5,8.7,4,3.7V184l4.1,13,4.3,9.9,7.1,1.9,2.5-6.2,1-.8a143.8,143.8,0,0,0,1-16.2A129.9,129.9,0,0,0,363.3,114.8Zm-71.4-1.9-20.5-9-8.9.3-2.2,5.9-3.7-4-6.8,1.5-.6,10.2,5.5,4,4.1-5.8,4.6,4.6L273,129l1.8,8.9,8.1,10.2,13-2.1-.3-4.7-2.8-5.2-.6-12.4,3.1-5.3Zm16.7,6.8-4.7-1.3-4,3.4,2.2,9h4Zm28.7,5.9L326.8,120l-2.2-3.7-2.4.9,2.1,6.2,1.9,8,4.6,1.9,1-1.2-2.8-4.7,8,3.1ZM247,237.2l-1.2,1.3,9.2,2.7,3.8,4.4,5.8.6,2.2-3.4-7.1-1.2Zm27.5,5.9L268,245l1,2.4h8l1.6-2.4-2.8.3Z"/></clipPath><clipPath id="clip-path-4" transform="translate(-17.9 -35.4)"><path class="cls-3" d="M98.9,219.7s14.8-.6,17.3.9,3.1,11,5.6,17.9a87.6,87.6,0,0,1,3.7,14.7s3.8-1.3,5.4,9-1.6,17.3-4.4,21.3-7.2,6.9-18.5,1.3c0,0,2.8,5.9,2.8,8.7s-4,6-4,6A386.3,386.3,0,0,1,68,302.3c-19.8.3-23.2-1.6-24.1-4.4s-1.6-46.6-.7-58.5,9.4-20.7,15.7-22.9S98.9,219.7,98.9,219.7Z"/></clipPath></defs><title>مسافر</title><g id="Background_Simple" data-name="Background Simple"><path class="cls-4" d="M456.4,264.8c4.8-34.3,1.3-69.5-7.1-102.8-7.5-29.8-17-60.4-39.2-81.3C383.3,55.3,349.8,52,315.8,56.3c-67.2,8.5-86.5-22.7-136.2-20.8S86.1,60.1,72.2,106.4s7.8,94.5-2.7,121.9-40.1,54.9-22.7,94.6,55.9,70.9,145,78.4,166.8,11.4,217.4-38.7C436.7,335.4,451.2,301.2,456.4,264.8Z" transform="translate(-17.9 -35.4)"/><path class="cls-5" d="M456.4,264.8c4.8-34.3,1.3-69.5-7.1-102.8-7.5-29.8-17-60.4-39.2-81.3C383.3,55.3,349.8,52,315.8,56.3c-67.2,8.5-86.5-22.7-136.2-20.8S86.1,60.1,72.2,106.4s7.8,94.5-2.7,121.9-40.1,54.9-22.7,94.6,55.9,70.9,145,78.4,166.8,11.4,217.4-38.7C436.7,335.4,451.2,301.2,456.4,264.8Z" transform="translate(-17.9 -35.4)"/><ellipse class="cls-6" cx="59.7" cy="431.5" rx="59.7" ry="15.2"/></g><g id="Device"><path class="cls-7" d="M421.5,369.5v-9.8L299.2,329.9,86.1,401.2v10.2a1.9,1.9,0,0,0,.5,1.4,2.6,2.6,0,0,0,1.4.9l119.8,49.5,3,.8,3.5.2,3.5-.4a12.5,12.5,0,0,0,3.1-1l199.2-90.9a1.7,1.7,0,0,0,1-.8A2.2,2.2,0,0,0,421.5,369.5Z" transform="translate(-17.9 -35.4)"/><g class="cls-8"><path class="cls-9" d="M421.1,371.1a2.2,2.2,0,0,0,.4-1.6v-9.8L299.2,329.9l-82.4,27.6V463.9h1a12.5,12.5,0,0,0,3.1-1l199.2-90.9A1.7,1.7,0,0,0,421.1,371.1Z" transform="translate(-17.9 -35.4)"/><path class="cls-9" d="M213.5,464.4V447.9h-4.2v16A12.6,12.6,0,0,0,213.5,464.4Z" transform="translate(-17.9 -35.4)"/></g><path class="cls-10" d="M421.5,369.5v-9.8L299.2,329.9,86.1,401.2v10.2a1.9,1.9,0,0,0,.5,1.4,2.6,2.6,0,0,0,1.4.9l119.8,49.5,3,.8,3.5.2,3.5-.4a12.5,12.5,0,0,0,3.1-1l199.2-90.9a1.7,1.7,0,0,0,1-.8A2.2,2.2,0,0,0,421.5,369.5Z" transform="translate(-17.9 -35.4)"/><path class="cls-7" d="M358.9,347.4l-15.7-3.9-.7-.2h-2l-.4.2a.2.2,0,0,0,0,.3l.2.2.5.2,15.7,4h2.3l.6-.2.3-.2c0-.1.1-.2,0-.2l-.2-.3-.6-.2" transform="translate(-17.9 -35.4)"/><path class="cls-2" d="M404.8,361l-26.4-6.8h-7.1l-1.4-.2-1.2-.3-46.1-11.8-.9-.3-.8-.3-.6-.4-.3-.4-1-1.3L295.4,333,115.1,395.3l113.8,43.6L404.8,361" transform="translate(-17.9 -35.4)"/><path class="cls-6" d="M422,358.9a3.5,3.5,0,0,0-1.1-.9,10.3,10.3,0,0,0-2.1-.7L303.3,328.6l-2.2-.4h-2.4l-2.3.2-2,.4L88.8,398.5a6.9,6.9,0,0,0-2.1,1,2.1,2.1,0,0,0-1,1.1.9.9,0,0,0,.1,1.1,3.2,3.2,0,0,0,1.4,1l120.6,48.8a13.2,13.2,0,0,0,3,.8,20,20,0,0,0,3.5.2,19.7,19.7,0,0,0,3.5-.4,12.6,12.6,0,0,0,3.1-.9L421,360.5a2,2,0,0,0,1.1-.8A.8.8,0,0,0,422,358.9Zm-193.1,80L115.1,395.3,295.4,333l23.6,6.1,1,1.3.3.4.6.4.8.3.9.3,46.1,11.8,1.2.3,1.4.2h7.1l26.4,6.8Zm111.2-95.2.4-.2h2l.7.2,15.7,3.9.6.2.2.3c.1,0,0,.1,0,.2l-.3.2-.6.2h-2.3l-15.7-4-.5-.2-.2-.2A.2.2,0,0,1,340.1,343.7ZM165.6,419.5l-.9.5-1.4.4h-2.9a2.8,2.8,0,0,1-1.3-.3l-.8-.5a.8.8,0,0,1-.2-.5,2.1,2.1,0,0,1,.4-.6l1-.5,1.3-.4,1.5-.2h1.5l1.2.3.8.5a1.4,1.4,0,0,1,.2.6C166,419.1,165.8,419.3,165.6,419.5Z" transform="translate(-17.9 -35.4)"/><path class="cls-7" d="M165,417.8l-1.2-.3h-1.5l-1.5.2-1.3.4-1,.5a2.1,2.1,0,0,0-.4.6.8.8,0,0,0,.2.5l.8.5a2.8,2.8,0,0,0,1.3.3h2.9l1.4-.4.9-.5c.2-.2.4-.4.4-.6a1.4,1.4,0,0,0-.2-.6l-.8-.5" transform="translate(-17.9 -35.4)"/></g><g id="Lines"><line class="cls-10" x1="107.1" y1="330.4" x2="110.5" y2="336.2"/><line class="cls-10" x1="56.7" y1="245.2" x2="103.2" y2="323.9"/><line class="cls-10" x1="146.4" y1="313.6" x2="148.4" y2="318.3"/><line class="cls-10" x1="133.1" y1="281.7" x2="144.2" y2="308.4"/><line class="cls-10" x1="365.3" y1="240.8" x2="340.8" y2="301"/><line class="cls-10" x1="371.4" y1="225.9" x2="368.3" y2="233.3"/><line class="cls-10" x1="385" y1="299.8" x2="379.6" y2="305.6"/><line class="cls-10" x1="419.5" y1="261.8" x2="390.3" y2="293.9"/><line class="cls-10" x1="125.1" y1="321.6" x2="145" y2="360.1"/><line class="cls-10" x1="369.7" y1="297.7" x2="347.7" y2="327.6"/><line class="cls-10" x1="229.4" y1="297.7" x2="234.8" y2="324.3"/></g><g id="Earth_Globe" data-name="Earth Globe"><circle class="cls-7" cx="253.9" cy="185.6" r="130.3" transform="translate(-74.8 198.5) rotate(-45)"/><g class="cls-11"><path class="cls-12" d="M253.9,241.3a130.4,130.4,0,0,1-124.9-93,127.5,127.5,0,0,0-5.5,37.3,130.4,130.4,0,1,0,255.3-37.3A130.5,130.5,0,0,1,253.9,241.3Z" transform="translate(-17.9 -35.4)"/><path class="cls-13" d="M249.2,125.2l12.3,5.6,3.4,5.6,5.6,2.1.6,5.9-2.1,3.4-4.4,1-9.2-3.8v-1.2l5.2-2.2-1.8-6.5-8.4-3-3.7-5Zm77.9,143-9.9-4.1-12-4.3h-9.6l-9-1.9-9.9,2.2-5.6.3h-3.4l-6.5,3.7-6.2,2.5-8.3-5.2,2.2-8.7-5.3-2.2h-6.2l-.9-2.8.6-5.5-2.2-3.1-4.3.6-1.2,3.1-5.3.3-4.6-5.6-1.9-7.4,4.7-8.7,8.9.7,2.5,2.1h3.7l4.7-2.8,4,1.3,5.5,9.6,2.2-.3-.6-7.1-1.9-3.8.7-5.8,11.4-5,1.5-11.4,5-4.1,4-7.1,3.1-.6,7.1-4.6.3-2.5-4.9.3-.9-2.5h-3.4l-5.3,1.3,2.5-4.1,10.8-3,2.5-2.8L290,176l2.8,2.8,4.3-1.3-1.8-4-6.5-4.6-7.5-8.4-7.7-5.2-7.4-1.3-3.7-3.7-5-1.2-.6,1.2-.6,9,1.2,3.1-2.8,9.9-6.1-5,.9-4.3-6.5-3.1-2.8-3.4,1.5-7.7,9-6.5.6-7.5-3.4.3-2.1-2.7-1-4.7-2.1-.3-1.3,5-3.4.6-1.5-10.8-2.5-1.6-4.3-1.8-5,2.4,6.2,5.9,1.3,5.3L221,124l-7.7-8.3-.6-8.4-8.1-2.5-6.2,4.1s-3.1,1.8-4.6,2.4-7.4,1.3-7.4,1.3l-1.3,5.2-7.1.3.6,3.4,11.5,1.9,5.9,6.5v10.8l-3.4,9.6.6,10.2-8.7,15.2-1.8,22.5,2.7,13,4.1,9.9,4.6.7-1.5-5-2.5-3.7-1.6-6.8,2.8-.6,4.4,11.1,3,9.9v8l5.9,7.2,10.5,7.7,16.1,4.3,5,4.7,3.7,4.9,5.6,3.4,6.8,1.9,6.8-.3s-.3,3.1-.3,4.6-4.4,6.8-4.4,6.8l-3.4,6.2,2.5,6.8,6.8,2.8,9.6,9.9,4.3,1.8v4.7l.6,2.1a128.9,128.9,0,0,0,64.8-30.5l.2-2.2,8.4-15.2-4.1-2.8ZM359.3,146l-3.4-5.9-4.3-6.8-1.3-9.3,5.6.9.3-3.1-4-.3,3.4-1.5,3.7-2.2v-3.1l-3.7-4.9-.8-6.7a130.6,130.6,0,0,0-153-37l7.2,5-4.4,5.6-5.9,1.2-.6,8.4-2.4.9-3.1,3.4.3,5.6,5.2.6L196,102h5.2l9-11.4.9-4.9,8.7-.7,2.1-3.7,9-.9.9-5.3,6.5-.3s4.7-2.4,5.6-2.4a40.7,40.7,0,0,1,5.3,1.5l4.6,3.7h6.5l5.6-3.4,7.1.6a7.1,7.1,0,0,0,3.4,1.3c1.5,0,6.2-2.2,6.2-2.2l8.9,5.6,3.8,2.8v4.6l4.6.6,1.5-2.8,4.1,1.9-.3,2.5-9.3,2.4,5.2,6.8,11.2,6.2,4.6,6.2,6.8.6,1.6-3.1,2.4-.6-8-6.2-5-.6,4.1-1.2-3.7-5.3,5.2-.3,6.8,3.7,1.6,7.4,3.4,4.1,2.8,8.9,6.8,5v10.2l7.1,4.6-.3,3.4-1,4.1,1.9,5.5.6,2.8,5.3.9,2.4-5.2Zm4-31.2v1.8l-1.5,4.9.9,4.4,3.4,1.2V133l-3.7-1.6-.9,16.7-3.8,6.8,2.5,8.7,4,3.7V184l4.1,13,4.3,9.9,7.1,1.9,2.5-6.2,1-.8a143.8,143.8,0,0,0,1-16.2A129.9,129.9,0,0,0,363.3,114.8Zm-71.4-1.9-20.5-9-8.9.3-2.2,5.9-3.7-4-6.8,1.5-.6,10.2,5.5,4,4.1-5.8,4.6,4.6L273,129l1.8,8.9,8.1,10.2,13-2.1-.3-4.7-2.8-5.2-.6-12.4,3.1-5.3Zm16.7,6.8-4.7-1.3-4,3.4,2.2,9h4Zm28.7,5.9L326.8,120l-2.2-3.7-2.4.9,2.1,6.2,1.9,8,4.6,1.9,1-1.2-2.8-4.7,8,3.1ZM247,237.2l-1.2,1.3,9.2,2.7,3.8,4.4,5.8.6,2.2-3.4-7.1-1.2Zm27.5,5.9L268,245l1,2.4h8l1.6-2.4-2.8.3Z" transform="translate(-17.9 -35.4)"/><g class="cls-14"><path class="cls-15" d="M253.9,241.3a130.4,130.4,0,0,1-124.9-93,127.5,127.5,0,0,0-5.5,37.3,130.4,130.4,0,1,0,255.3-37.3A130.5,130.5,0,0,1,253.9,241.3Z" transform="translate(-17.9 -35.4)"/></g><path class="cls-10" d="M249.2,125.2l12.3,5.6,3.4,5.6,5.6,2.1.6,5.9-2.1,3.4-4.4,1-9.2-3.8v-1.2l5.2-2.2-1.8-6.5-8.4-3-3.7-5Zm77.9,143-9.9-4.1-12-4.3h-9.6l-9-1.9-9.9,2.2-5.6.3h-3.4l-6.5,3.7-6.2,2.5-8.3-5.2,2.2-8.7-5.3-2.2h-6.2l-.9-2.8.6-5.5-2.2-3.1-4.3.6-1.2,3.1-5.3.3-4.6-5.6-1.9-7.4,4.7-8.7,8.9.7,2.5,2.1h3.7l4.7-2.8,4,1.3,5.5,9.6,2.2-.3-.6-7.1-1.9-3.8.7-5.8,11.4-5,1.5-11.4,5-4.1,4-7.1,3.1-.6,7.1-4.6.3-2.5-4.9.3-.9-2.5h-3.4l-5.3,1.3,2.5-4.1,10.8-3,2.5-2.8L290,176l2.8,2.8,4.3-1.3-1.8-4-6.5-4.6-7.5-8.4-7.7-5.2-7.4-1.3-3.7-3.7-5-1.2-.6,1.2-.6,9,1.2,3.1-2.8,9.9-6.1-5,.9-4.3-6.5-3.1-2.8-3.4,1.5-7.7,9-6.5.6-7.5-3.4.3-2.1-2.7-1-4.7-2.1-.3-1.3,5-3.4.6-1.5-10.8-2.5-1.6-4.3-1.8-5,2.4,6.2,5.9,1.3,5.3L221,124l-7.7-8.3-.6-8.4-8.1-2.5-6.2,4.1s-3.1,1.8-4.6,2.4-7.4,1.3-7.4,1.3l-1.3,5.2-7.1.3.6,3.4,11.5,1.9,5.9,6.5v10.8l-3.4,9.6.6,10.2-8.7,15.2-1.8,22.5,2.7,13,4.1,9.9,4.6.7-1.5-5-2.5-3.7-1.6-6.8,2.8-.6,4.4,11.1,3,9.9v8l5.9,7.2,10.5,7.7,16.1,4.3,5,4.7,3.7,4.9,5.6,3.4,6.8,1.9,6.8-.3s-.3,3.1-.3,4.6-4.4,6.8-4.4,6.8l-3.4,6.2,2.5,6.8,6.8,2.8,9.6,9.9,4.3,1.8v4.7l.6,2.1a128.9,128.9,0,0,0,64.8-30.5l.2-2.2,8.4-15.2-4.1-2.8ZM359.3,146l-3.4-5.9-4.3-6.8-1.3-9.3,5.6.9.3-3.1-4-.3,3.4-1.5,3.7-2.2v-3.1l-3.7-4.9-.8-6.7a130.6,130.6,0,0,0-153-37l7.2,5-4.4,5.6-5.9,1.2-.6,8.4-2.4.9-3.1,3.4.3,5.6,5.2.6L196,102h5.2l9-11.4.9-4.9,8.7-.7,2.1-3.7,9-.9.9-5.3,6.5-.3s4.7-2.4,5.6-2.4a40.7,40.7,0,0,1,5.3,1.5l4.6,3.7h6.5l5.6-3.4,7.1.6a7.1,7.1,0,0,0,3.4,1.3c1.5,0,6.2-2.2,6.2-2.2l8.9,5.6,3.8,2.8v4.6l4.6.6,1.5-2.8,4.1,1.9-.3,2.5-9.3,2.4,5.2,6.8,11.2,6.2,4.6,6.2,6.8.6,1.6-3.1,2.4-.6-8-6.2-5-.6,4.1-1.2-3.7-5.3,5.2-.3,6.8,3.7,1.6,7.4,3.4,4.1,2.8,8.9,6.8,5v10.2l7.1,4.6-.3,3.4-1,4.1,1.9,5.5.6,2.8,5.3.9,2.4-5.2Zm4-31.2v1.8l-1.5,4.9.9,4.4,3.4,1.2V133l-3.7-1.6-.9,16.7-3.8,6.8,2.5,8.7,4,3.7V184l4.1,13,4.3,9.9,7.1,1.9,2.5-6.2,1-.8a143.8,143.8,0,0,0,1-16.2A129.9,129.9,0,0,0,363.3,114.8Zm-71.4-1.9-20.5-9-8.9.3-2.2,5.9-3.7-4-6.8,1.5-.6,10.2,5.5,4,4.1-5.8,4.6,4.6L273,129l1.8,8.9,8.1,10.2,13-2.1-.3-4.7-2.8-5.2-.6-12.4,3.1-5.3Zm16.7,6.8-4.7-1.3-4,3.4,2.2,9h4Zm28.7,5.9L326.8,120l-2.2-3.7-2.4.9,2.1,6.2,1.9,8,4.6,1.9,1-1.2-2.8-4.7,8,3.1ZM247,237.2l-1.2,1.3,9.2,2.7,3.8,4.4,5.8.6,2.2-3.4-7.1-1.2Zm27.5,5.9L268,245l1,2.4h8l1.6-2.4-2.8.3Z" transform="translate(-17.9 -35.4)"/></g><circle class="cls-10" cx="253.9" cy="185.6" r="130.3" transform="translate(-74.8 198.5) rotate(-45)"/><path class="cls-16" d="M368.5,123.2c18.5,14.9,29.4,33.5,29.4,53.7,0,49.2-65,89.1-145.1,89.1s-145.2-39.9-145.2-89.1c0-21.5,12.5-41.3,33.2-56.7" transform="translate(-17.9 -35.4)"/><path class="cls-16" d="M169.6,86.1c13.1-21.4,31.4-35.7,53.2-38.8C273.9,39.9,324.4,97,335.6,174.8S314.5,321.7,263.4,329c-23.3,3.4-46.5-6.6-65.8-25.9" transform="translate(-17.9 -35.4)"/><ellipse class="cls-16" cx="241.3" cy="198.8" rx="59" ry="145.9" transform="translate(-72.1 265.7) rotate(-58.6)"/><ellipse class="cls-16" cx="252" cy="192.3" rx="149.8" ry="59" transform="translate(-81.2 124.2) rotate(-31.4)"/><path class="cls-17" d="M313.6,103.3a2.4,2.4,0,0,0-2.4-2.4,2.3,2.3,0,0,0-2.3,2.4,2.3,2.3,0,0,0,2.3,2.3A2.3,2.3,0,0,0,313.6,103.3Z" transform="translate(-17.9 -35.4)"/><path class="cls-17" d="M340,201.4a2.4,2.4,0,0,0-4.8,0,2.4,2.4,0,1,0,4.8,0Z" transform="translate(-17.9 -35.4)"/><path class="cls-17" d="M334.7,251.3a2.4,2.4,0,1,0-2.4,2.4A2.4,2.4,0,0,0,334.7,251.3Z" transform="translate(-17.9 -35.4)"/><path class="cls-17" d="M319.4,289.3a2.4,2.4,0,1,0-2.4,2.4A2.4,2.4,0,0,0,319.4,289.3Z" transform="translate(-17.9 -35.4)"/><path class="cls-17" d="M365.1,235.2a2.4,2.4,0,1,0-2.4,2.4A2.4,2.4,0,0,0,365.1,235.2Z" transform="translate(-17.9 -35.4)"/><path class="cls-17" d="M241.8,265.3a2.4,2.4,0,1,0-2.3,2.4A2.3,2.3,0,0,0,241.8,265.3Z" transform="translate(-17.9 -35.4)"/><path class="cls-17" d="M132.6,225.4a2.4,2.4,0,1,0-2.4,2.4A2.3,2.3,0,0,0,132.6,225.4Z" transform="translate(-17.9 -35.4)"/><path class="cls-17" d="M151,200.6a2.3,2.3,0,0,0-2.3-2.3,2.3,2.3,0,0,0-2.4,2.3,2.4,2.4,0,0,0,2.4,2.4A2.3,2.3,0,0,0,151,200.6Z" transform="translate(-17.9 -35.4)"/><path class="cls-17" d="M242.1,131.2a2.4,2.4,0,0,0-4.8,0,2.4,2.4,0,0,0,4.8,0Z" transform="translate(-17.9 -35.4)"/><path class="cls-17" d="M384.6,137.3a2.4,2.4,0,1,0-2.4,2.4A2.4,2.4,0,0,0,384.6,137.3Z" transform="translate(-17.9 -35.4)"/><path class="cls-17" d="M117.5,148.9a2.4,2.4,0,1,0-2.3,2.4A2.3,2.3,0,0,0,117.5,148.9Z" transform="translate(-17.9 -35.4)"/><line class="cls-16" x1="366.7" y1="101" x2="385.5" y2="90.8"/><line class="cls-16" x1="94.9" y1="113.5" x2="82.1" y2="111.1"/><line class="cls-16" x1="130.8" y1="162.9" x2="130.8" y2="140.3"/><line class="cls-16" x1="109.9" y1="190" x2="90.5" y2="193.3"/><line class="cls-16" x1="221" y1="232.2" x2="219.2" y2="242.7"/><line class="cls-16" x1="300" y1="256.2" x2="305.6" y2="268.3"/><line class="cls-16" x1="347.2" y1="199.8" x2="363.3" y2="203.3"/><line class="cls-16" x1="312.5" y1="214.2" x2="296.9" y2="199.1"/><line class="cls-16" x1="294.3" y1="65.7" x2="301.4" y2="44.5"/><line class="cls-16" x1="142.6" y1="54.6" x2="145.6" y2="56.8"/><line class="cls-16" x1="165.6" y1="267.3" x2="169" y2="262.8"/></g><g id="Layer_6" data-name="Layer 6"><path class="cls-6" d="M239.7,109.6a7.6,7.6,0,0,0-7.6,7.6c0,4.2,7.6,13.7,7.6,13.7s7.6-9.5,7.6-13.7A7.6,7.6,0,0,0,239.7,109.6Zm-.1,10.6a3.1,3.1,0,0,1-3.1-3.1,3.1,3.1,0,0,1,6.2,0A3.1,3.1,0,0,1,239.6,120.2Z" transform="translate(-17.9 -35.4)"/><path class="cls-6" d="M311.2,82.1a7.5,7.5,0,0,0-7.6,7.5c0,4.2,7.6,13.7,7.6,13.7s7.6-9.5,7.6-13.7A7.5,7.5,0,0,0,311.2,82.1Zm-.1,10.6a3.2,3.2,0,0,1,0-6.3,3.2,3.2,0,0,1,0,6.3Z" transform="translate(-17.9 -35.4)"/><path class="cls-6" d="M382.2,117.1a7.6,7.6,0,0,0-7.6,7.6c0,4.2,7.6,13.6,7.6,13.6s7.6-9.4,7.6-13.6A7.6,7.6,0,0,0,382.2,117.1Zm-.1,10.6a3.1,3.1,0,1,1,3.1-3.1A3.1,3.1,0,0,1,382.1,127.7Z" transform="translate(-17.9 -35.4)"/><path class="cls-6" d="M365.1,214.8a7.6,7.6,0,0,0-7.6,7.6c0,4.2,7.6,13.6,7.6,13.6s7.6-9.4,7.6-13.6A7.6,7.6,0,0,0,365.1,214.8Zm-.1,10.6a3.1,3.1,0,1,1,3.1-3.1A3.1,3.1,0,0,1,365,225.4Z" transform="translate(-17.9 -35.4)"/><path class="cls-6" d="M239.5,244.1a7.6,7.6,0,0,0-7.6,7.6c0,4.2,7.6,13.6,7.6,13.6s7.5-9.4,7.5-13.6A7.6,7.6,0,0,0,239.5,244.1Zm-.2,10.6a3.2,3.2,0,0,1,0-6.3,3.2,3.2,0,1,1,0,6.3Z" transform="translate(-17.9 -35.4)"/><path class="cls-6" d="M317,268.7a7.5,7.5,0,0,0-7.5,7.6c0,4.2,7.5,13.6,7.5,13.6s7.6-9.4,7.6-13.6A7.6,7.6,0,0,0,317,268.7Zm-.1,10.6a3.1,3.1,0,1,1,3.2-3.1A3.1,3.1,0,0,1,316.9,279.3Z" transform="translate(-17.9 -35.4)"/><path class="cls-6" d="M112.7,126a7.8,7.8,0,0,0-7.8,7.7c0,4.3,7.8,13.9,7.8,13.9s7.7-9.6,7.7-13.9A7.8,7.8,0,0,0,112.7,126Zm-.1,10.8a3.2,3.2,0,1,1,0-6.3,3.2,3.2,0,0,1,0,6.3Z" transform="translate(-17.9 -35.4)"/><path class="cls-6" d="M128,204.2a7.7,7.7,0,0,0-7.7,7.8c0,4.2,7.7,13.8,7.7,13.8s7.7-9.6,7.7-13.8A7.7,7.7,0,0,0,128,204.2Zm-.1,10.8a3.2,3.2,0,1,1,0-6.3,3.2,3.2,0,1,1,0,6.3Z" transform="translate(-17.9 -35.4)"/></g><g id="Layer_5" data-name="Layer 5"><path class="cls-3" d="M52.7,451.3s-.2,8.3,2.7,11.3,10.8,1.6,13,1.4,5.4-3.5,5.1-7.1a80.1,80.1,0,0,0-1.9-9.7S67.6,452.4,52.7,451.3Z" transform="translate(-17.9 -35.4)"/><path class="cls-18" d="M72.8,460.3c-12,2.8-18.5.4-18.5.4h-.1a5.2,5.2,0,0,0,1.2,1.9c3,3,10.8,1.6,13,1.4S71.7,462.3,72.8,460.3Z" transform="translate(-17.9 -35.4)"/><path class="cls-6" d="M45.1,314.5s8.2,39.4,9.4,47.6S53.9,379,52,385.2s-3.4,25.1-2.5,32.9,2.2,17.5,2.2,20.3-.6,6,0,10.1l.6,4s6.9,1.3,11,1,7.5-1.9,8.7-4.1,1.9-7.5,1.9-10.3-2.5-16.9-2.5-25.1,5.9-26.9,7.2-35.7a305.4,305.4,0,0,0,2.5-32.5c0-6.9-.6-16,0-16.9s1.3-12.8,1.3-12.8A112.6,112.6,0,0,1,63,314.8C53.6,313.3,49.5,312,45.1,314.5Z" transform="translate(-17.9 -35.4)"/><path class="cls-19" d="M77.6,364.3s3.9,6.9-3.9,17.3-19.9,24.2-20.3,35" transform="translate(-17.9 -35.4)"/><path class="cls-3" d="M70,451.6s-5.4,11-3.8,13.4,11.6,7.3,17.8,8.4a138.3,138.3,0,0,0,19.4,1.4c3.5,0,2.7-3,1.7-4.4s-9.5-7.8-11.4-9.4a34.4,34.4,0,0,1-4-4.3S73.2,451.3,70,451.6Z" transform="translate(-17.9 -35.4)"/><path class="cls-18" d="M84.6,471.5A50.1,50.1,0,0,1,66,462.8a3.6,3.6,0,0,0,.2,2.2c1.6,2.5,11.6,7.3,17.8,8.4a138.3,138.3,0,0,0,19.4,1.4c2,0,2.6-1,2.6-2A54.1,54.1,0,0,1,84.6,471.5Z" transform="translate(-17.9 -35.4)"/><path class="cls-6" d="M69.2,318.6s21.3,41,24.1,47.9a16,16,0,0,1-1.2,14.7,69.3,69.3,0,0,0-7.2,19.7c-1.6,8.1-4.7,19.7-7.6,26.3s-9,17.2-8.4,19.4a49,49,0,0,1,.9,6.9s10.4,4.7,14.7,4.7,6.9,0,7.6-1.6,3.1-5.6,3.1-9.7-1-6-.6-9.4,16.5-31.9,17.2-41.3,7.5-19.4,6.2-27.2-5.3-46.4-9.4-50.7S69.2,318.6,69.2,318.6Z" transform="translate(-17.9 -35.4)"/><line class="cls-20" x1="59.7" y1="301.6" x2="53.6" y2="292.6"/><path class="cls-20" d="M97.5,366.9s2.6,7.3,8.2,8.6a16.3,16.3,0,0,0,9.5-.4" transform="translate(-17.9 -35.4)"/><path class="cls-20" d="M98.8,376.8s6.5,4.4,12.9,2.6" transform="translate(-17.9 -35.4)"/><path class="cls-20" d="M89.3,443s-16.9,2.2-14.7,4.3,18.6-.8,18.6-.8" transform="translate(-17.9 -35.4)"/><path class="cls-7" d="M45.1,302.9a11.6,11.6,0,0,1-.1,1.3c-.5,4.3-2,17.9-1.8,18.1s6.3-6.5,13.5-3.4,13.8,5.3,24.7,5.3,18.5-3.7,23.5-3.7a58.6,58.6,0,0,1,11.9,1.8s-7.2-8.4-9.1-12.5a56.5,56.5,0,0,1-2.8-7.2s-26.9,0-40.7.6S45.1,302.9,45.1,302.9Z" transform="translate(-17.9 -35.4)"/><path class="cls-21" d="M45.1,302.9a11.6,11.6,0,0,1-.1,1.3c-.5,4.3-2,17.9-1.8,18.1s6.3-6.5,13.5-3.4,13.8,5.3,24.7,5.3,18.5-3.7,23.5-3.7a58.6,58.6,0,0,1,11.9,1.8s-7.2-8.4-9.1-12.5a56.5,56.5,0,0,1-2.8-7.2s-26.9,0-40.7.6S45.1,302.9,45.1,302.9Z" transform="translate(-17.9 -35.4)"/><path class="cls-7" d="M98.9,219.7s14.8-.6,17.3.9,3.1,11,5.6,17.9a87.6,87.6,0,0,1,3.7,14.7s3.8-1.3,5.4,9-1.6,17.3-4.4,21.3-7.2,6.9-18.5,1.3c0,0,2.8,5.9,2.8,8.7s-4,6-4,6A386.3,386.3,0,0,1,68,302.3c-19.8.3-23.2-1.6-24.1-4.4s-1.6-46.6-.7-58.5,9.4-20.7,15.7-22.9S98.9,219.7,98.9,219.7Z" transform="translate(-17.9 -35.4)"/><g class="cls-22"><path class="cls-21" d="M125.5,253.2s1.9,12.2,1.9,15.9" transform="translate(-17.9 -35.4)"/></g><path class="cls-21" d="M98.9,219.7s14.8-.6,17.3.9,3.1,11,5.6,17.9a87.6,87.6,0,0,1,3.7,14.7s3.8-1.3,5.4,9-1.6,17.3-4.4,21.3-7.2,6.9-18.5,1.3c0,0,2.8,5.9,2.8,8.7s-4,6-4,6A386.3,386.3,0,0,1,68,302.3c-19.8.3-23.2-1.6-24.1-4.4s-1.6-46.6-.7-58.5,9.4-20.7,15.7-22.9S98.9,219.7,98.9,219.7Z" transform="translate(-17.9 -35.4)"/><path class="cls-23" d="M107.2,191.4s5.6-.9,5.9,1.6.7,5.5-2.8,6S106,194.2,107.2,191.4Z" transform="translate(-17.9 -35.4)"/><path class="cls-3" d="M108.5,187.7s-1.2,4-.2,6.3,2.3,8.9,1.3,12.2-4.1,8.9-6.6,9.6-7.4-1.8-8.2-2.3,4.6-6.3,1.8-7.6-3.8-9.9-1.5-12.7a18.6,18.6,0,0,1,6.3-4.3Z" transform="translate(-17.9 -35.4)"/><path class="cls-23" d="M75.1,197.1a.9.9,0,0,1,.4.8c.1.7-.3,1.7-2,3.2-3.3,3.1-6.6,5.1-6.6,8.9s2.1,3.5,13,6.6,22-2.8,22.8-8.1-5.6-7.4-4.6-10.9a31.5,31.5,0,0,1,2.8-6.4s-10.6,3.1-15.4,3.1S74.6,196.2,75.1,197.1Z" transform="translate(-17.9 -35.4)"/><path class="cls-2" d="M72.3,177s-1.8,5.8-.8,7.9,3.1,10.9,3.6,12.2,9.9-1.1,17-1.6,23.5-9.1,25.8-11.9,2.6-2.5-1-2.5-9.9.5-9.9.5-4-8.4-8.1-11.4-11.7-3.6-15.5-2.6-11.1,6.1-11.9,7.9S72.3,177,72.3,177Z" transform="translate(-17.9 -35.4)"/><path class="cls-3" d="M95.1,195c8-2,20.8-8.9,22.8-11.4s2.6-2.5-1-2.5-9.9.5-9.9.5S100.8,191.8,95.1,195Z" transform="translate(-17.9 -35.4)"/><path class="cls-21" d="M72.3,177a18.3,18.3,0,0,0,7.6-.2" transform="translate(-17.9 -35.4)"/><line class="cls-21" x1="79.5" y1="159.9" x2="95.2" y2="156.8"/><path class="cls-2" d="M62.6,212.8a23.6,23.6,0,0,1,12.2-.9c6.9,1.2,22.3,5.3,27.6,5.9s3.1,1.6-1,3.1-11.8,6.3-16.2,7.9-22.9-3.8-26.9-6.6S58.3,215.6,62.6,212.8Z" transform="translate(-17.9 -35.4)"/><path class="cls-21" d="M108,284.8a29.7,29.7,0,0,1-5.3-12.9c-.9-7.2-3.4-23.4-3.8-27.2s-.9-7.5,1.6-9.4" transform="translate(-17.9 -35.4)"/><path class="cls-23" d="M109.3,298.3s-.3,4.9-1.9,7.1-10,1.9-23.8,2.5a232.8,232.8,0,0,1-36.3-1.2c-6.3-1-2.5-8.8-1.9-11.3s9.1,1.6,27.3,1S109.3,297.1,109.3,298.3Z" transform="translate(-17.9 -35.4)"/><polygon class="cls-23" points="68.3 189.8 85.8 184.1 87.6 184.2 70.2 195 68.3 189.8"/><path class="cls-2" d="M83.9,221.6s-5-6.6-18.8-6.6S37,220.3,32.6,226.9A14.6,14.6,0,0,0,31,240s-6.9,32.9-10.3,42.3S21,299.8,32,306.4s33.5,12.2,43.2,7.8,14.4-14.4,13.7-21.9-2.5-21.6-2.8-30.7,6.9-19.7,5-28.5S83.9,221.6,83.9,221.6Z" transform="translate(-17.9 -35.4)"/><path class="cls-23" d="M67.4,305.7c-14.3,0-25.8-5.5-36.5-8.8-8.8-2.8-7.3,1.8-6.5,3.5a34.7,34.7,0,0,0,7.6,6c10.9,6.5,33.5,12.2,43.2,7.8a23.9,23.9,0,0,0,13-15.4C85.9,300.8,78.9,305.7,67.4,305.7Z" transform="translate(-17.9 -35.4)"/><path class="cls-7" d="M63.3,233.4s-13.2,38.5-5.7,47.9S83,297,85.2,292s-7.2-26.6-3.8-37.3,7.2-13.7,4.4-18.4S67.6,226.6,63.3,233.4Z" transform="translate(-17.9 -35.4)"/><path class="cls-7" d="M53.6,241s-6.9,33.8-10.1,40.6-18.4,6.3-19-2.1,9.3-39.2,9.7-40.4S53.6,241,53.6,241Z" transform="translate(-17.9 -35.4)"/><path class="cls-24" d="M39,239.3s4.4,3.1,1.5,6.7-8.2,3.8-10.1,6.9,7.1,8.6,6.1,11.1-10.9,5.2-10.9,8.6,17,7.9,19.1,5.2-5.3-10.2-4.9-14,8.4-3.6,10.1-8.6-5.7-6.1-5.7-8.6,5.1-6.2,5.1-6.2" transform="translate(-17.9 -35.4)"/><path class="cls-23" d="M83.9,221.6s-5-6.6-18.8-6.6S37,220.3,32.6,226.9A14.6,14.6,0,0,0,31,240a19.6,19.6,0,0,0,14.7,6c9.4-.3,16.6-5.7,21.6-7.5s13.8,2.1,19.4,2.1a7.2,7.2,0,0,0,4.5-1.7,16.1,16.1,0,0,0-.1-5.8C89.2,224.4,83.9,221.6,83.9,221.6Z" transform="translate(-17.9 -35.4)"/></g></svg>