<?xml version="1.0"?>
<svg xmlns="http://www.w3.org/2000/svg" id="Layer_5" enable-background="new 0 0 64 64" height="512px" viewBox="0 0 64 64" width="512px"><g><path d="m33.204 35.552c1.065-.593 1.796-1.719 1.796-3.028 0-1.321-.734-2.509-1.916-3.1l-10.525-5.263c-1.342-.671-2.826-1.044-4.323-1.126 1.689-1.468 2.764-3.626 2.764-6.035 0-4.411-3.589-8-8-8s-8 3.589-8 8c0 2.518 1.172 4.765 2.997 6.233-4.001.914-6.997 4.494-6.997 8.767v10c0 2.757 2.243 5 5 5v12c0 2.206 1.794 4 4 4 1.201 0 2.266-.542 3-1.382.734.84 1.799 1.382 3 1.382 2.206 0 4-1.794 4-4v-27.901l10.099 4.59c.363.166.75.247 1.144.28l4.504 15.314c-1.028.476-1.747 1.511-1.747 2.717 0 1.199.712 2.228 1.731 2.708-.457.65-.731 1.438-.731 2.292 0 2.206 1.794 4 4 4s4-1.794 4-4c0-.732-.212-1.409-.556-2h11.113c-.345.591-.557 1.268-.557 2 0 2.206 1.794 4 4 4s4-1.794 4-4-1.794-4-4-4h-20c-.552 0-1-.449-1-1s.448-1 1-1h23.802l2.175-9.783.023-2.217h-28.193zm-26.204-18.552c0-3.309 2.691-6 6-6s6 2.691 6 6-2.691 6-6 6-6-2.691-6-6zm13.217 12h-2.217v30c0 1.103-.897 2-2 2s-2-.897-2-2v-19h-2v19c0 1.103-.897 2-2 2s-2-.897-2-2v-29h-2v15c-1.654 0-3-1.346-3-3v-10c0-3.86 3.141-7 7-7h7.64c1.39 0 2.781.329 4.024.95l10.525 5.263c.5.25.811.752.811 1.321 0 .808-.657 1.466-1.466 1.466-.211 0-.415-.044-.606-.131zm20.783 30c0 1.103-.897 2-2 2s-2-.897-2-2 .897-2 2-2 2 .897 2 2zm18 0c0 1.103-.897 2-2 2s-2-.897-2-2 .897-2 2-2 2 .897 2 2zm1.976-16-1.777 8h-21.45l-2.353-8z" data-original="#000000" class="active-path" data-old_color="#000000" fill="#46A0AE"/><path d="m48 27c6.065 0 11-4.935 11-11s-4.935-11-11-11-11 4.935-11 11 4.935 11 11 11zm0-20c4.963 0 9 4.038 9 9s-4.037 9-9 9-9-4.038-9-9 4.037-9 9-9z" data-original="#000000" class="active-path" data-old_color="#000000" fill="#46A0AE"/><path d="m48 19c-.552 0-1-.449-1-1h-2c0 1.302.839 2.402 2 2.816v2.184h2v-2h2v-3c0-1.654-1.346-3-3-3-.552 0-1-.449-1-1v-1h1c.552 0 1 .449 1 1h2c0-1.302-.839-2.402-2-2.816v-2.184h-2v2h-2v3c0 1.654 1.346 3 3 3 .552 0 1 .449 1 1v1z" data-original="#000000" class="active-path" data-old_color="#000000" fill="#46A0AE"/><path d="m53 15h2v2h-2z" data-original="#000000" class="active-path" data-old_color="#000000" fill="#46A0AE"/><path d="m41 15h2v2h-2z" data-original="#000000" class="active-path" data-old_color="#000000" fill="#46A0AE"/><path d="m41 29.256v11.362l7-3.5 7 3.5v-11.362c4.752-2.52 8-7.513 8-13.256 0-8.271-6.729-15-15-15s-15 6.729-15 15c0 5.743 3.248 10.737 8 13.256zm2 .869c1.265.449 2.605.732 4 .824v4.432l-4 2zm10 7.257-4-2v-4.432c1.395-.093 2.735-.375 4-.824zm-5-34.382c7.168 0 13 5.832 13 13s-5.832 13-13 13-13-5.832-13-13 5.832-13 13-13z" data-original="#000000" class="active-path" data-old_color="#000000" fill="#46A0AE"/><path d="m53 45h2v4h-2z" data-original="#000000" class="active-path" data-old_color="#000000" fill="#46A0AE"/><path d="m47 45h2v4h-2z" data-original="#000000" class="active-path" data-old_color="#000000" fill="#46A0AE"/><path d="m41 45h2v4h-2z" data-original="#000000" class="active-path" data-old_color="#000000" fill="#46A0AE"/></g> </svg>
