<svg id="Layer_1" data-name="Layer 1" xmlns="http://www.w3.org/2000/svg" viewBox="0 0 356.3 375.2"><defs><style>.cls-1{fill:#ebf1ef;}.cls-11,.cls-2,.cls-4,.cls-8{fill:#46a0ae;}.cls-3,.cls-9{fill:#fca468;}.cls-3{stroke:#fca468;}.cls-10,.cls-11,.cls-12,.cls-13,.cls-17,.cls-3,.cls-5,.cls-9{stroke-miterlimit:10;}.cls-12,.cls-13,.cls-3,.cls-9{stroke-width:0.75px;}.cls-4{opacity:0.6;isolation:isolate;}.cls-14,.cls-19,.cls-5{fill:#fff;}.cls-10,.cls-12,.cls-15,.cls-16,.cls-17,.cls-19,.cls-5,.cls-9{stroke:#263238;}.cls-6{fill:#263238;}.cls-10,.cls-12,.cls-13,.cls-15,.cls-16,.cls-17,.cls-18,.cls-7{fill:none;}.cls-13,.cls-18,.cls-7,.cls-8{stroke:#fff;}.cls-15,.cls-16,.cls-17,.cls-18,.cls-19,.cls-7,.cls-8{stroke-linecap:round;}.cls-15,.cls-16,.cls-18,.cls-19,.cls-7,.cls-8{stroke-linejoin:round;}.cls-11{stroke:#46a0ae;}.cls-16{stroke-width:2px;}.cls-18{stroke-width:0.5px;}</style></defs><title>چت</title><g id="Background_Simple" data-name="Background Simple"><path class="cls-1" d="M204.5,368.3s68.4-18.8,109.2-61S365,202.1,337,148,236.1,85.2,182.1,43.5,60.7-5.8,19.5,50.7s-3.1,88.4-10.6,162S44.7,405.1,204.5,368.3Z" transform="translate(0)"/></g><g id="Graphics"><g id="Background_details" data-name="Background details"><path class="cls-2" d="M35.6,352.2l36.6-6.1-3.4-24.2-37,5.2Zm31.3-29L52.1,336.5,34,327.7ZM36.5,351.1,33,328.3l19.3,9.3,15.8-14.2,3,21.9Z" transform="translate(0)"/><path class="cls-3" d="M108.9,276.8l-65.3-9.2-6,42.7,64.6,10.8Zm-3.9,1L73.1,293.4,46.9,269.9ZM39.5,308.9l5.3-38.6,27.9,25,34.1-16.4-6.2,40.2Z" transform="translate(0)"/><path class="cls-2" d="M131.9,0,101.5,26.7l39.2,47.1.3.4,32-27.3Zm39,45.9-34-9.2L132.6,2.2ZM102.8,26.8,131.5,1.7,136,37.5,171.3,47,141.1,72.8Z" transform="translate(0)"/><path class="cls-4" d="M131.9,0,101.5,26.7l39.2,47.1.3.4,32-27.3Zm39,45.9-34-9.2L132.6,2.2ZM102.8,26.8,131.5,1.7,136,37.5,171.3,47,141.1,72.8Z" transform="translate(0)"/></g></g><g id="Window"><rect class="cls-5" x="47" y="125.3" width="159.3" height="100.86"/><path class="cls-6" d="M96.9,113.6l-3.1-8.9H43.9V233.5H209.4V113.6ZM206.3,226.2H47V125.3H206.3Z" transform="translate(0)"/><polyline class="cls-7" points="50.8 116.1 48.5 118.3 50.9 120.9"/><line class="cls-7" x1="48.5" y1="118.3" x2="53.6" y2="118.3"/><polyline class="cls-7" points="63.7 116.1 66 118.3 63.6 120.9"/><line class="cls-7" x1="66" y1="118.3" x2="60.9" y2="118.3"/><path class="cls-7" d="M76.9,118a2.5,2.5,0,0,0-2.3-1.8,2.3,2.3,0,0,0-2.3,2.3h0a2.3,2.3,0,0,0,2.3,2.3h0a2.4,2.4,0,0,0,1.4-.5" transform="translate(0)"/><polyline class="cls-8" points="75.4 118.3 77.2 118.3 77.2 116.2"/><line class="cls-7" x1="88.3" y1="109.3" x2="91.5" y2="112.6"/><line class="cls-7" x1="91.5" y1="109.3" x2="88.2" y2="112.5"/></g><g id="Layer_9" data-name="Layer 9"><path class="cls-5" d="M199.7,138.7H183.5c-.5,0-1.1-2.3-1.1-5.4h0c0-2.9.6-5.3,1.1-5.3h16.2c.6,0,1,2.4,1,5.3h0C200.7,136.4,200.3,138.7,199.7,138.7Z" transform="translate(0)"/><rect class="cls-2" x="58" y="147.6" width="57.7" height="24.64" rx="1.5"/><rect class="cls-2" x="58" y="175.3" width="57.7" height="11.49" rx="1.5"/><rect class="cls-2" x="58" y="189.6" width="57.7" height="33.83" rx="1.5"/><rect class="cls-9" x="138.6" y="147.3" width="57.7" height="9.57" rx="1.5"/><rect class="cls-9" x="138.6" y="161.9" width="57.7" height="32.94" rx="1.5"/><rect class="cls-9" x="138.6" y="196.7" width="57.7" height="24.26" rx="1.5"/><line class="cls-10" x1="47.3" y1="141.4" x2="205.9" y2="141.4"/><line class="cls-11" x1="55.4" y1="133.2" x2="102.9" y2="133.2"/><line class="cls-12" x1="62.7" y1="155.3" x2="110.2" y2="155.3"/><line class="cls-12" x1="62.7" y1="159.6" x2="110.2" y2="159.6"/><line class="cls-12" x1="62.7" y1="164" x2="110.2" y2="164"/><line class="cls-12" x1="62.7" y1="168.3" x2="96.4" y2="168.3"/><line class="cls-12" x1="62.7" y1="178.8" x2="110.2" y2="178.8"/><line class="cls-12" x1="62.7" y1="183.2" x2="92.6" y2="183.2"/><line class="cls-12" x1="63.4" y1="193.4" x2="110.9" y2="193.4"/><line class="cls-12" x1="63.4" y1="197.6" x2="110.9" y2="197.6"/><line class="cls-12" x1="63.4" y1="201.9" x2="110.9" y2="201.9"/><line class="cls-12" x1="63.4" y1="206.3" x2="110.9" y2="206.3"/><line class="cls-12" x1="63.4" y1="210.5" x2="97.2" y2="210.5"/><line class="cls-12" x1="63.4" y1="214.5" x2="110.3" y2="214.5"/><line class="cls-12" x1="63.4" y1="218.9" x2="110.3" y2="218.9"/><line class="cls-13" x1="144.3" y1="169.6" x2="191.8" y2="169.6"/><line class="cls-13" x1="144.3" y1="151.9" x2="191.8" y2="151.9"/><line class="cls-13" x1="144.4" y1="173.8" x2="191.9" y2="173.8"/><line class="cls-13" x1="144.4" y1="178.1" x2="191.9" y2="178.1"/><line class="cls-13" x1="144.4" y1="182.5" x2="191.9" y2="182.5"/><line class="cls-13" x1="144.4" y1="186.7" x2="178.1" y2="186.7"/><line class="cls-13" x1="144.3" y1="201" x2="191.8" y2="201"/><line class="cls-13" x1="144.4" y1="205.2" x2="191.9" y2="205.2"/><line class="cls-13" x1="144.4" y1="209.5" x2="191.9" y2="209.5"/><line class="cls-13" x1="144.4" y1="213.9" x2="191.9" y2="213.9"/><line class="cls-13" x1="144.4" y1="218.1" x2="178.1" y2="218.1"/></g><g id="Character_2" data-name="Character 2"><g id="Character_2-2" data-name="Character 2-2"><polygon class="cls-14" points="159.6 261.5 160.4 252.5 167.9 248.5 156.6 227.4 124.7 244.1 135.9 265 142.7 261.6 156.3 268.7 159.6 261.5"/><path class="cls-14" d="M263.1,166s-10.3,24.2-11.3,32.3-.5,12.3,3.5,15.1,11,2.9,11,2.9l-.7,4.3s-2.8-.2-5,3.1-2.2,5.5-2.2,5.5,2.8,10.8,5,11,4.6-7.4,4.6-7.4,2,10.8,3.9,10.4,19.4-12.1,19.4-12.1,1.6-8.2-2.2-12.4c0,0-1-8.1,0-11.8,0,0,7.6.9,8-6.9s-3.2-9.8-5.4-7l-5.2-13,2-9.3Z" transform="translate(0)"/><path class="cls-1" d="M266.8,168.4l.8,1.4s-12.6,20.9-12,34.5,20.1,10.1,20.1,10.1-1.2,17-8.5,16l-1.8-4.2.6-9.5s-7.6.7-12.2-3.9-2.4-14.5,1.8-27.9,7.5-18.9,7.5-18.9Z" transform="translate(0)"/><path class="cls-2" d="M328,264.5a51.2,51.2,0,0,1-4.2,12.7,57.3,57.3,0,0,1-7.9,11.7l1.8,16.4,4.2,24.6h-.1c0,.1-.1.1-.2.2l-1.3.9H258.2c-1.6-3.8-3.4-8-5.1-12.2-3.1-7.7-5.8-15.2-6.5-18.9,0-.5-.1-.9-.1-1.3L236,288.1,201.2,307l-44.8-37.9h.1l4.6-9.1h0l44.5,21.1,9.3-12.8v-.4h0l2.7-8.7h.1l1.6-5.4,2.1-6.9,13.2-6.3h.1l23.7-11.4h.1l1,3.4a4.9,4.9,0,0,0,.4,1.1l.3.9a25.4,25.4,0,0,0,1.6,3.8l.3.5.5.7h0c.3.3.5.5.8.5s2.5-2.6,3.4-4.6v-.2a18.9,18.9,0,0,1,1.1-2.5h0c.1.9,1.3,7.5,2.9,9.7v.2a1.1,1.1,0,0,0,.9.4h0c.8,0,3.2-1.5,6.1-3.4h.1c5.4-3.6,12.4-9,13.4-9.7v-.2s.5-1.7,0-5.7h.2l29,11.2h0l.8.4s4.2,5.1,6.4,17.9A33.8,33.8,0,0,1,328,264.5Z" transform="translate(0)"/><polygon class="cls-14" points="232.1 254.3 234.8 239.2 202.7 230.6 197.2 253.8 210 257.8 215.8 269.5 224.5 275.6 234.2 266.6 235 259.4 232.1 254.3"/><path class="cls-15" d="M191.7,244.5" transform="translate(0)"/><polyline class="cls-15" points="160.4 252.5 167.9 248.8 156.7 227.3 124.8 244.5 135.9 265 150.8 257.3"/><polyline class="cls-15" points="124.8 244.5 146.4 246.7 156.7 227.3"/><polyline class="cls-15" points="227.1 262.4 230.5 263.4 234.9 238.8 202.8 230.4 197.2 253.8 209.6 257.4"/><polyline class="cls-15" points="202.9 230.4 215.7 246.4 234.9 238.8"/><path class="cls-15" d="M264.5,162.7s-12.6,28.6-13.5,40.2,10,13.3,10.1,13.3a24,24,0,0,0,13-1.3c3.2-1.4,5.8-4,8.5-6.2" transform="translate(0)"/><polyline class="cls-15" points="262.2 194.9 257.1 192.1 263.1 179.4"/><path class="cls-6" d="M268.6,185c-.4,1.1-.2,2.2.4,2.4s1.4-.6,1.7-1.7.2-2.2-.4-2.4S268.9,183.9,268.6,185Z" transform="translate(0)"/><path class="cls-6" d="M258.8,181.4c-.3,1.1-.2,2.2.4,2.4s1.4-.6,1.8-1.7.2-2.2-.4-2.4S259.2,180.2,258.8,181.4Z" transform="translate(0)"/><path class="cls-15" d="M269.2,197.5a7.9,7.9,0,0,1-7.3,2.7" transform="translate(0)"/><path class="cls-16" d="M269.1,178.8c1.1-.7,2.6-.2,3.6.7a11.4,11.4,0,0,1,1.9,3.4" transform="translate(0)"/><path class="cls-16" d="M263.5,177.2a2.3,2.3,0,0,0-3-1.3,2.3,2.3,0,0,0-1.1.9" transform="translate(0)"/><path class="cls-15" d="M288.8,198.7s3.4-5.5,6.9-4.3,1.9,6.3.2,9.5-6,3.4-8.4,2" transform="translate(0)"/><path class="cls-6" d="M296.8,201.8s3.3-5.6-.2-7.5-8,4.5-8,4.5l-.9-.2a3.2,3.2,0,0,1-1.9-4.1v-.2l.4-1a8.6,8.6,0,0,0,.3-4.5c-.5-3.1-2.7-5.6-2.4-8.8a20.8,20.8,0,0,1,2.3-7.3c-18.2,3.6-29.1-6.7-26.7-15.2s8.2-.9,20.9-5.8,21.9,15.9,21.9,15.9c12.7,8.8.6,21.1.6,21.1l-6.5,13.5Z" transform="translate(0)"/><path class="cls-15" d="M315.9,288.4c.5,16.1,6,41.5,6,41.5h-.1c0,.1-.1.1-.2.2l-1.3.9" transform="translate(0)"/><path class="cls-15" d="M257.9,331c-1.7-3.8-3.2-7.9-4.8-12.2-2.3-6.4-4.5-13.2-6.6-20.2" transform="translate(0)"/><path class="cls-15" d="M314.9,293.5" transform="translate(0)"/><path class="cls-15" d="M291.7,224.1s25.8,9.2,29.8,11.6" transform="translate(0)"/><path class="cls-15" d="M268.4,231.5c-2-1.5-3.1-5.3-2.7-8.1l.6-6.6" transform="translate(0)"/><path class="cls-15" d="M289.2,206.6s-1.3,4.3-.2,12.1" transform="translate(0)"/><path class="cls-15" d="M280.6,298.8l-46-32.3-10,8.9s40.9,45.6,57.1,52.8c0,0,32.2-34.7,42.6-52,0,0,10.6-17.2-2.7-40.5" transform="translate(0)"/><line class="cls-15" x1="275" y1="295" x2="299.7" y2="262.2"/><line class="cls-15" x1="275.8" y1="295.5" x2="291.3" y2="296.2"/><path class="cls-17" d="M302.9,169s2-8.1-3-14.2" transform="translate(0)"/><polyline class="cls-15" points="214.8 268.3 205.4 281.4 160.5 259.6 156.3 268.8 201.2 307 235.8 287.9"/><line class="cls-15" x1="234.6" y1="241" x2="258.4" y2="229.2"/><path class="cls-15" d="M159.3,262.1l1.3-12.1-4.8-8.9s.7-6.3-.7-6.3-1.3,15.4-1.3,15.4-4.1,2.9-2.6,9.2" transform="translate(0)"/><line class="cls-15" x1="143.5" y1="261.4" x2="156.3" y2="268.8"/><polyline class="cls-15" points="232.4 254.6 234.8 258.9 234.3 266.4"/><path class="cls-15" d="M228,263.7c0-.6-13.7-15.4-13.7-15.4l-1.5,1.3,5.6,10.9-4.7-8.2-1.3,1.6,1.2,6-1.6-4.4-2.3,1.2,6.1,12.8,8.6,5.6" transform="translate(0)"/><path class="cls-15" d="M325.4,340" transform="translate(0)"/><path class="cls-15" d="M314.4,346.6" transform="translate(0)"/><path class="cls-15" d="M303.5,351.7" transform="translate(0)"/><path class="cls-15" d="M249.6,349.2" transform="translate(0)"/><path class="cls-15" d="M289.1,218.7s-10.7,8.5-20.7,12.3c0,0,1,11.5,3.5,12.2.9.3,2.3-.6,3-1a56.9,56.9,0,0,0,5.2-3.3q5.1-3.5,9.9-7.2c.7-.5,1.6-1,1.7-1.9.2-4,.4-7.9-2.6-11Z" transform="translate(0)"/><path class="cls-15" d="M268.4,231s-2.7,9.5-5,9.2-5.1-11.6-5.1-11.6,2.6-9,7.6-7.6" transform="translate(0)"/><path class="cls-15" d="M205.6,281.1a44.4,44.4,0,0,1,0,10.3" transform="translate(0)"/><line class="cls-15" x1="238.7" y1="259.5" x2="242.5" y2="271.9"/><path class="cls-15" d="M297.7,251.8a33.2,33.2,0,0,0-3.8,18" transform="translate(0)"/><path class="cls-15" d="M291.1,258.9a44.3,44.3,0,0,0,.4,10.9" transform="translate(0)"/><path class="cls-15" d="M207.2,282.5a20.7,20.7,0,0,1,2,6.4" transform="translate(0)"/><path class="cls-18" d="M262.8,158.9a6.6,6.6,0,0,0,2.7,4,18.8,18.8,0,0,0,4.5,2.2,47.8,47.8,0,0,0,14.5,2.3,8.5,8.5,0,0,1,3.2.3,3.3,3.3,0,0,1,2.4,2" transform="translate(0)"/><path class="cls-18" d="M266.5,155c.6,2.7,3.5,4.5,6.2,4.9s5.6-.3,8.4-.6,5.7-.6,8.2.8,4.1,4.5,2.8,7" transform="translate(0)"/><path class="cls-15" d="M234.3,264.5" transform="translate(0)"/></g></g><g id="Table"><polyline class="cls-15" points="238.7 331 257.8 331 258.2 331 320.2 331 320.3 331 355.8 331"/><line class="cls-15" x1="194.3" y1="331" x2="229.7" y2="331"/><g id="Device--inject-47"><polygon class="cls-15" points="271.9 344.9 206.2 344.9 181.1 358.5 249.9 358.5 271.9 344.9"/><line class="cls-15" x1="210.5" y1="348.5" x2="259" y2="348.5"/><line class="cls-15" x1="206.9" y1="351" x2="254.1" y2="351"/><line class="cls-15" x1="203.4" y1="353.5" x2="249.2" y2="353.5"/><line class="cls-15" x1="259.2" y1="348.5" x2="245.3" y2="355.3"/><line class="cls-15" x1="251.6" y1="348.5" x2="237.8" y2="355.3"/><polygon class="cls-6" points="169.4 311.2 238.2 311.2 249.9 358.5 181.1 358.5 169.4 311.2"/><rect class="cls-15" x="180.5" y="358.5" width="69.4" height="3.36"/><polygon class="cls-19" points="168.6 311.2 237.4 311.2 249.2 358.5 180.3 358.5 168.6 311.2"/><polygon class="cls-6" points="249.9 358.5 272.3 344.8 272.3 347.4 250.2 362.3 249.9 358.5"/><path class="cls-15" d="M211.9,333.4a3.7,3.7,0,0,1-7.3,1.3v-.2a3.7,3.7,0,0,1,2.7-4.1A3.9,3.9,0,0,1,211.9,333.4Z" transform="translate(0)"/></g></g><path class="cls-3" d="M42.8,52.2l36.6-6.1L76,21.9,39,27.1Zm31.3-29L59.3,36.5,41.2,27.7ZM43.7,51.1,40.2,28.3l19.3,9.3L75.3,23.4l3,21.9Z" transform="translate(0)"/><path class="cls-3" d="M251.8,113.8l36.6-6.1L285,83.5l-37,5.2Zm31.3-29L268.3,98.1l-18.1-8.8Zm-30.4,27.9-3.5-22.8,19.3,9.3L284.3,85l3,21.9Z" transform="translate(0)"/><line class="cls-11" x1="108.4" y1="133.2" x2="120.8" y2="133.2"/></svg>