<svg xmlns="http://www.w3.org/2000/svg" viewBox="0 0 429.5 369.4"><defs><style>.cls-1{fill:#ebf1ef;}.cls-2,.cls-3,.cls-5{fill:#46a0ae;}.cls-3{opacity:0.6;}.cls-16,.cls-4,.cls-7{fill:#fff;}.cls-11,.cls-14,.cls-15,.cls-16,.cls-4,.cls-5,.cls-6,.cls-9{stroke:#263238;}.cls-15,.cls-4{stroke-miterlimit:10;}.cls-4{isolation:isolate;}.cls-11,.cls-13,.cls-14,.cls-15,.cls-16,.cls-5,.cls-6,.cls-9{stroke-linecap:round;}.cls-11,.cls-13,.cls-14,.cls-16,.cls-5,.cls-6,.cls-9{stroke-linejoin:round;}.cls-6,.cls-8{fill:#c6ff00;}.cls-11,.cls-13,.cls-14,.cls-15,.cls-9{fill:none;}.cls-10{opacity:0.3;}.cls-11{stroke-dasharray:2 5;}.cls-12{fill:#263238;}.cls-13{stroke:#fff;stroke-width:0.5px;}.cls-14{stroke-width:2px;}</style></defs><title>آدمـچت</title><g id="Background_Simple" data-name="Background Simple"><path class="cls-1" d="M301.9,426.1s68.4-18.8,109.2-61,51.3-105.2,23.3-159.3S333.5,143,279.5,101.3,158.1,52,116.9,108.5s-3.1,88.4-10.6,162S142.1,462.9,301.9,426.1Z" transform="translate(-24.2 -63.6)"/></g><g id="Graphics"><g id="Background_details" data-name="Background details"><path class="cls-2" d="M149.2,111.4l-37-5.2-3.4,24.2,36.5,6.1Zm-2.2.6-18.2,8.8-14.7-13.3Zm-37.2,17.6,3.1-21.9,15.8,14.2,19.3-9.3-3.5,22.8Z" transform="translate(-24.2 -63.6)"/><path class="cls-3" d="M149.2,111.4l-37-5.2-3.4,24.2,36.5,6.1Zm-2.2.6-18.2,8.8-14.7-13.3Zm-37.2,17.6,3.1-21.9,15.8,14.2,19.3-9.3-3.5,22.8Z" transform="translate(-24.2 -63.6)"/><path class="cls-2" d="M330.9,88.5l-30.4,26.6,39.2,47.2.3.3,32-27.3Zm39,45.9-34-9.2-4.3-34.5Zm-68.1-19.2,28.7-25.1,4.5,35.8,35.3,9.6-30.2,25.8Z" transform="translate(-24.2 -63.6)"/><path class="cls-3" d="M330.9,88.5l-30.4,26.6,39.2,47.2.3.3,32-27.3Zm39,45.9-34-9.2-4.3-34.5Zm-68.1-19.2,28.7-25.1,4.5,35.8,35.3,9.6-30.2,25.8Z" transform="translate(-24.2 -63.6)"/><path class="cls-2" d="M60.5,226.1h0a.5.5,0,0,1-.4-.5v-1.9a.5.5,0,0,1,.5-.5.5.5,0,0,1,.5.5c0,.7-.1,1.3-.1,2A.5.5,0,0,1,60.5,226.1Zm.3-6.7h-.1c-.2,0-.4-.3-.4-.5a13.4,13.4,0,0,1,.1-2,.5.5,0,1,1,.9.1,12.1,12.1,0,0,1-.1,1.9A.5.5,0,0,1,60.8,219.4Zm.3-6.8h0c-.3,0-.5-.2-.4-.5a11.5,11.5,0,0,1,.1-1.9.5.5,0,0,1,.5-.5.5.5,0,0,1,.5.5c-.1.7-.1,1.3-.2,2A.5.5,0,0,1,61.1,212.6Zm.6-6.7h0a.6.6,0,0,1-.5-.6,12.3,12.3,0,0,0,.2-1.9.4.4,0,0,1,.6-.4.5.5,0,0,1,.4.5,12.3,12.3,0,0,0-.2,1.9A.5.5,0,0,1,61.7,205.9Zm.8-6.8h-.1c-.3,0-.5-.2-.4-.5s.1-1.3.2-1.9.3-.5.6-.4a.5.5,0,0,1,.4.5l-.3,1.9A.4.4,0,0,1,62.5,199.1Zm.9-6.7h-.1c-.2,0-.4-.3-.4-.5l.3-1.9c.1-.3.3-.5.6-.4s.4.3.4.5l-.3,1.9C63.9,192.3,63.6,192.4,63.4,192.4Zm1.2-6.6h-.1c-.3-.1-.5-.3-.4-.6a12.9,12.9,0,0,1,.4-1.9c0-.3.3-.4.5-.4s.5.3.4.6a16.2,16.2,0,0,1-.4,1.9A.4.4,0,0,1,64.6,185.8Zm1.3-6.7h-.1a.4.4,0,0,1-.3-.5c.1-.7.3-1.3.4-1.9s.3-.5.6-.4a.5.5,0,0,1,.4.6c-.2.6-.3,1.2-.5,1.9S66.2,179.1,65.9,179.1Zm1.6-6.5h-.1c-.2-.1-.4-.4-.3-.6a10.5,10.5,0,0,1,.5-1.9c0-.3.3-.4.6-.3a.4.4,0,0,1,.3.5c-.2.7-.3,1.3-.5,1.9A.5.5,0,0,1,67.5,172.6Zm1.9-6.5h-.2c-.2,0-.4-.3-.3-.6l.6-1.8c0-.3.3-.4.6-.3s.4.3.3.6l-.6,1.8A.4.4,0,0,1,69.4,166.1Zm2-6.5h-.1a.4.4,0,0,1-.3-.6l.6-1.9c.1-.2.4-.4.6-.3a.5.5,0,0,1,.3.7l-.6,1.8A.5.5,0,0,1,71.4,159.6Zm2.3-6.4h-.1a.4.4,0,0,1-.3-.6,13.4,13.4,0,0,1,.7-1.8.5.5,0,1,1,.9.3,13.4,13.4,0,0,0-.7,1.8A.5.5,0,0,1,73.7,153.2Zm2.6-6.2h-.2a.4.4,0,0,1-.3-.6l.8-1.8a.5.5,0,0,1,.6-.2.4.4,0,0,1,.3.6l-.8,1.8C76.6,146.9,76.5,147,76.3,147Zm2.8-6.2h-.2c-.3-.2-.4-.4-.3-.7l.9-1.7a.4.4,0,0,1,.6-.3c.3.2.4.5.2.7a8.9,8.9,0,0,1-.8,1.7A.5.5,0,0,1,79.1,140.8Zm3-6h-.2a.5.5,0,0,1-.2-.6l.9-1.8a.5.5,0,0,1,.7-.1.5.5,0,0,1,.2.6l-1,1.7C82.5,134.7,82.3,134.8,82.1,134.8Zm3.3-5.9h-.2a.6.6,0,0,1-.2-.7l1-1.6a.5.5,0,0,1,.7-.2.5.5,0,0,1,.1.7,14,14,0,0,1-1,1.6C85.8,128.8,85.6,128.9,85.4,128.9Zm3.6-5.8h-.2a.4.4,0,0,1-.2-.6l1.1-1.7c.1-.2.4-.2.7-.1a.6.6,0,0,1,.1.7l-1.1,1.6Zm3.9-5.6h-.3a.5.5,0,0,1-.1-.7l1.1-1.6a.6.6,0,0,1,.7-.1.5.5,0,0,1,.1.7l-1.1,1.5A.4.4,0,0,1,92.9,117.5Zm4.1-5.3h-.3a.5.5,0,0,1-.1-.7l1.2-1.5a.5.5,0,1,1,.8.6L97.4,112Zm4.4-5.2H101a.5.5,0,0,1,0-.7l1.3-1.5a.5.5,0,0,1,.7.7l-1.3,1.4Zm211.7-1.6h-.2l-1.8-.8a.4.4,0,0,1-.2-.6c.1-.2.4-.4.6-.3l1.8.8c.2.1.4.4.3.6A.5.5,0,0,1,313.1,105.4Zm-6.2-2.6h-.2l-1.8-.8a.4.4,0,0,1-.3-.6.5.5,0,0,1,.7-.3l1.8.8a.5.5,0,0,1,.2.6C307.2,102.7,307.1,102.8,306.9,102.8ZM106,102h-.4a.5.5,0,0,1,0-.7l1.4-1.4a.5.5,0,0,1,.7,0,.9.9,0,0,1,0,.7l-1.4,1.4Zm194.7-1.9h-.2l-1.8-.8a.4.4,0,0,1-.3-.6c.2-.3.4-.4.7-.3l1.7.8a.4.4,0,0,1,.3.6A.5.5,0,0,1,300.7,100.1Zm-6.2-2.7c-.1,0-.2,0-.2-.1l-1.8-.8a.5.5,0,0,1-.2-.6.4.4,0,0,1,.6-.3l1.8.8a.6.6,0,0,1,.2.7C294.8,97.3,294.7,97.4,294.5,97.4Zm-183.7-.1-.4-.2c-.1-.2-.1-.5.1-.6l1.4-1.4a.6.6,0,0,1,.7.1.5.5,0,0,1-.1.7l-1.4,1.3Zm177.5-2.7h-.2l-1.8-.8a.5.5,0,0,1-.2-.6.5.5,0,0,1,.7-.3l1.7.8c.3.2.4.4.2.7S288.5,94.6,288.3,94.6ZM115.9,92.8a.5.5,0,0,1-.4-.2c-.2-.2-.2-.5,0-.6l1.5-1.3a.5.5,0,0,1,.6.8l-1.4,1.2Zm166.3-1.1H282l-1.8-.8c-.2-.1-.4-.4-.2-.6a.4.4,0,0,1,.6-.3l1.8.8a.6.6,0,0,1,.2.7ZM276,88.9h-.2l-1.8-.8a.6.6,0,0,1-.2-.7.5.5,0,0,1,.6-.2l1.8.8c.2.1.4.4.2.6S276.2,88.9,276,88.9Zm-154.9-.3-.4-.2a.6.6,0,0,1,.1-.7l1.6-1.2a.6.6,0,0,1,.7.1c.1.3.1.6-.1.7l-1.6,1.2Zm148.7-2.5h-.2l-1.7-.8a.4.4,0,0,1-.3-.6.5.5,0,0,1,.7-.3l1.7.8a.5.5,0,0,1,.3.7ZM126.6,84.6l-.4-.2a.6.6,0,0,1,.1-.7l1.7-1a.4.4,0,0,1,.6.1.5.5,0,0,1-.1.7l-1.6,1Zm137-1.2h-.2l-1.7-.8a.4.4,0,0,1-.3-.6.5.5,0,0,1,.7-.3l1.7.8a.4.4,0,0,1,.3.6A.5.5,0,0,1,263.6,83.4ZM132.3,81c-.2,0-.3-.1-.4-.3a.4.4,0,0,1,.1-.6l1.7-1a.5.5,0,0,1,.7.1.6.6,0,0,1-.2.7l-1.6,1Zm125.1-.2h-.2l-1.8-.7a.5.5,0,0,1-.2-.6.4.4,0,0,1,.6-.3l1.8.7a.6.6,0,0,1,.3.7A.5.5,0,0,1,257.4,80.8Zm-6.3-2.6H251l-1.8-.7a.5.5,0,0,1,.3-.9l1.8.7a.4.4,0,0,1,.3.6A.5.5,0,0,1,251.1,78.2Zm-112.9-.6-.4-.2a.5.5,0,0,1,.1-.7l1.8-.9a.5.5,0,0,1,.6.2.7.7,0,0,1-.2.7l-1.7.9Zm106.6-1.8h-.2l-1.8-.7c-.2,0-.4-.3-.3-.6s.4-.4.6-.3l1.9.7a.7.7,0,0,1,.3.6A.5.5,0,0,1,244.8,75.8ZM144.2,74.6c-.2,0-.3-.1-.4-.3a.5.5,0,0,1,.2-.6l1.8-.8a.5.5,0,0,1,.6.2.6.6,0,0,1-.2.7l-1.8.8Zm94.2-1h-.1l-1.9-.6a.6.6,0,0,1-.3-.7c.1-.2.4-.4.6-.3l1.9.6a.6.6,0,0,1,.3.7A.5.5,0,0,1,238.4,73.6Zm-87.9-1.7a.5.5,0,0,1-.5-.3.4.4,0,0,1,.3-.6l1.8-.7a.5.5,0,0,1,.3.9l-1.8.7Zm81.5-.4h-.2L230,71a.4.4,0,0,1-.3-.6.4.4,0,0,1,.6-.4l1.8.6a.4.4,0,0,1,.3.6C232.4,71.4,232.2,71.5,232,71.5Zm-6.5-1.8h-.2l-1.8-.4a.6.6,0,0,1-.4-.6.5.5,0,0,1,.6-.4l1.9.5a.5.5,0,0,1,.3.6A.4.4,0,0,1,225.5,69.7Zm-68.7,0a.4.4,0,0,1-.4-.4.4.4,0,0,1,.3-.6l1.8-.6c.3,0,.6.1.6.4a.4.4,0,0,1-.3.6l-1.8.5ZM218.9,68h-.1l-1.9-.4c-.3,0-.4-.3-.4-.5s.3-.5.6-.4l1.9.4a.5.5,0,1,1-.1.9Zm-55.6-.2a.4.4,0,0,1-.4-.4.4.4,0,0,1,.3-.6l1.9-.4c.2-.1.5.1.6.3a.5.5,0,0,1-.4.6l-1.9.5Zm49-1.1h-.1l-1.9-.3c-.3-.1-.5-.3-.4-.6s.3-.4.5-.4l1.9.3c.3.1.5.3.4.6A.4.4,0,0,1,212.3,66.7Zm-42.4-.4a.4.4,0,0,1-.4-.4.4.4,0,0,1,.3-.5l2-.4c.2,0,.5.2.5.4s-.1.5-.4.6l-1.9.3Zm35.7-.6a.1.1,0,0,1-.1-.1l-1.9-.2c-.3,0-.5-.3-.4-.5a.5.5,0,0,1,.5-.5l1.9.3c.3,0,.5.3.4.5A.5.5,0,0,1,205.6,65.7Zm-29-.4a.7.7,0,0,1-.5-.4.6.6,0,0,1,.5-.6l1.9-.2a.5.5,0,0,1,.5.4.4.4,0,0,1-.4.6l-1.9.2Zm22.2-.4h-1.9a.5.5,0,0,1,0-1l2,.2a.5.5,0,1,1-.1.9Zm-15.4-.2a.5.5,0,0,1-.5-.4.6.6,0,0,1,.5-.6h1.9a.4.4,0,0,1,.5.4.5.5,0,0,1-.5.5Zm8.7-.1h-2c-.2,0-.4-.3-.4-.5a.5.5,0,0,1,.4-.5h2a.5.5,0,0,1,.5.5A.5.5,0,0,1,192.1,64.6Z" transform="translate(-24.2 -63.6)"/><path class="cls-3" d="M60.5,226.1h0a.5.5,0,0,1-.4-.5v-1.9a.5.5,0,0,1,.5-.5.5.5,0,0,1,.5.5c0,.7-.1,1.3-.1,2A.5.5,0,0,1,60.5,226.1Zm.3-6.7h-.1c-.2,0-.4-.3-.4-.5a13.4,13.4,0,0,1,.1-2,.5.5,0,1,1,.9.1,12.1,12.1,0,0,1-.1,1.9A.5.5,0,0,1,60.8,219.4Zm.3-6.8h0c-.3,0-.5-.2-.4-.5a11.5,11.5,0,0,1,.1-1.9.5.5,0,0,1,.5-.5.5.5,0,0,1,.5.5c-.1.7-.1,1.3-.2,2A.5.5,0,0,1,61.1,212.6Zm.6-6.7h0a.6.6,0,0,1-.5-.6,12.3,12.3,0,0,0,.2-1.9.4.4,0,0,1,.6-.4.5.5,0,0,1,.4.5,12.3,12.3,0,0,0-.2,1.9A.5.5,0,0,1,61.7,205.9Zm.8-6.8h-.1c-.3,0-.5-.2-.4-.5s.1-1.3.2-1.9.3-.5.6-.4a.5.5,0,0,1,.4.5l-.3,1.9A.4.4,0,0,1,62.5,199.1Zm.9-6.7h-.1c-.2,0-.4-.3-.4-.5l.3-1.9c.1-.3.3-.5.6-.4s.4.3.4.5l-.3,1.9C63.9,192.3,63.6,192.4,63.4,192.4Zm1.2-6.6h-.1c-.3-.1-.5-.3-.4-.6a12.9,12.9,0,0,1,.4-1.9c0-.3.3-.4.5-.4s.5.3.4.6a16.2,16.2,0,0,1-.4,1.9A.4.4,0,0,1,64.6,185.8Zm1.3-6.7h-.1a.4.4,0,0,1-.3-.5c.1-.7.3-1.3.4-1.9s.3-.5.6-.4a.5.5,0,0,1,.4.6c-.2.6-.3,1.2-.5,1.9S66.2,179.1,65.9,179.1Zm1.6-6.5h-.1c-.2-.1-.4-.4-.3-.6a10.5,10.5,0,0,1,.5-1.9c0-.3.3-.4.6-.3a.4.4,0,0,1,.3.5c-.2.7-.3,1.3-.5,1.9A.5.5,0,0,1,67.5,172.6Zm1.9-6.5h-.2c-.2,0-.4-.3-.3-.6l.6-1.8c0-.3.3-.4.6-.3s.4.3.3.6l-.6,1.8A.4.4,0,0,1,69.4,166.1Zm2-6.5h-.1a.4.4,0,0,1-.3-.6l.6-1.9c.1-.2.4-.4.6-.3a.5.5,0,0,1,.3.7l-.6,1.8A.5.5,0,0,1,71.4,159.6Zm2.3-6.4h-.1a.4.4,0,0,1-.3-.6,13.4,13.4,0,0,1,.7-1.8.5.5,0,1,1,.9.3,13.4,13.4,0,0,0-.7,1.8A.5.5,0,0,1,73.7,153.2Zm2.6-6.2h-.2a.4.4,0,0,1-.3-.6l.8-1.8a.5.5,0,0,1,.6-.2.4.4,0,0,1,.3.6l-.8,1.8C76.6,146.9,76.5,147,76.3,147Zm2.8-6.2h-.2c-.3-.2-.4-.4-.3-.7l.9-1.7a.4.4,0,0,1,.6-.3c.3.2.4.5.2.7a8.9,8.9,0,0,1-.8,1.7A.5.5,0,0,1,79.1,140.8Zm3-6h-.2a.5.5,0,0,1-.2-.6l.9-1.8a.5.5,0,0,1,.7-.1.5.5,0,0,1,.2.6l-1,1.7C82.5,134.7,82.3,134.8,82.1,134.8Zm3.3-5.9h-.2a.6.6,0,0,1-.2-.7l1-1.6a.5.5,0,0,1,.7-.2.5.5,0,0,1,.1.7,14,14,0,0,1-1,1.6C85.8,128.8,85.6,128.9,85.4,128.9Zm3.6-5.8h-.2a.4.4,0,0,1-.2-.6l1.1-1.7c.1-.2.4-.2.7-.1a.6.6,0,0,1,.1.7l-1.1,1.6Zm3.9-5.6h-.3a.5.5,0,0,1-.1-.7l1.1-1.6a.6.6,0,0,1,.7-.1.5.5,0,0,1,.1.7l-1.1,1.5A.4.4,0,0,1,92.9,117.5Zm4.1-5.3h-.3a.5.5,0,0,1-.1-.7l1.2-1.5a.5.5,0,1,1,.8.6L97.4,112Zm4.4-5.2H101a.5.5,0,0,1,0-.7l1.3-1.5a.5.5,0,0,1,.7.7l-1.3,1.4Zm211.7-1.6h-.2l-1.8-.8a.4.4,0,0,1-.2-.6c.1-.2.4-.4.6-.3l1.8.8c.2.1.4.4.3.6A.5.5,0,0,1,313.1,105.4Zm-6.2-2.6h-.2l-1.8-.8a.4.4,0,0,1-.3-.6.5.5,0,0,1,.7-.3l1.8.8a.5.5,0,0,1,.2.6C307.2,102.7,307.1,102.8,306.9,102.8ZM106,102h-.4a.5.5,0,0,1,0-.7l1.4-1.4a.5.5,0,0,1,.7,0,.9.9,0,0,1,0,.7l-1.4,1.4Zm194.7-1.9h-.2l-1.8-.8a.4.4,0,0,1-.3-.6c.2-.3.4-.4.7-.3l1.7.8a.4.4,0,0,1,.3.6A.5.5,0,0,1,300.7,100.1Zm-6.2-2.7c-.1,0-.2,0-.2-.1l-1.8-.8a.5.5,0,0,1-.2-.6.4.4,0,0,1,.6-.3l1.8.8a.6.6,0,0,1,.2.7C294.8,97.3,294.7,97.4,294.5,97.4Zm-183.7-.1-.4-.2c-.1-.2-.1-.5.1-.6l1.4-1.4a.6.6,0,0,1,.7.1.5.5,0,0,1-.1.7l-1.4,1.3Zm177.5-2.7h-.2l-1.8-.8a.5.5,0,0,1-.2-.6.5.5,0,0,1,.7-.3l1.7.8c.3.2.4.4.2.7S288.5,94.6,288.3,94.6ZM115.9,92.8a.5.5,0,0,1-.4-.2c-.2-.2-.2-.5,0-.6l1.5-1.3a.5.5,0,0,1,.6.8l-1.4,1.2Zm166.3-1.1H282l-1.8-.8c-.2-.1-.4-.4-.2-.6a.4.4,0,0,1,.6-.3l1.8.8a.6.6,0,0,1,.2.7ZM276,88.9h-.2l-1.8-.8a.6.6,0,0,1-.2-.7.5.5,0,0,1,.6-.2l1.8.8c.2.1.4.4.2.6S276.2,88.9,276,88.9Zm-154.9-.3-.4-.2a.6.6,0,0,1,.1-.7l1.6-1.2a.6.6,0,0,1,.7.1c.1.3.1.6-.1.7l-1.6,1.2Zm148.7-2.5h-.2l-1.7-.8a.4.4,0,0,1-.3-.6.5.5,0,0,1,.7-.3l1.7.8a.5.5,0,0,1,.3.7ZM126.6,84.6l-.4-.2a.6.6,0,0,1,.1-.7l1.7-1a.4.4,0,0,1,.6.1.5.5,0,0,1-.1.7l-1.6,1Zm137-1.2h-.2l-1.7-.8a.4.4,0,0,1-.3-.6.5.5,0,0,1,.7-.3l1.7.8a.4.4,0,0,1,.3.6A.5.5,0,0,1,263.6,83.4ZM132.3,81c-.2,0-.3-.1-.4-.3a.4.4,0,0,1,.1-.6l1.7-1a.5.5,0,0,1,.7.1.6.6,0,0,1-.2.7l-1.6,1Zm125.1-.2h-.2l-1.8-.7a.5.5,0,0,1-.2-.6.4.4,0,0,1,.6-.3l1.8.7a.6.6,0,0,1,.3.7A.5.5,0,0,1,257.4,80.8Zm-6.3-2.6H251l-1.8-.7a.5.5,0,0,1,.3-.9l1.8.7a.4.4,0,0,1,.3.6A.5.5,0,0,1,251.1,78.2Zm-112.9-.6-.4-.2a.5.5,0,0,1,.1-.7l1.8-.9a.5.5,0,0,1,.6.2.7.7,0,0,1-.2.7l-1.7.9Zm106.6-1.8h-.2l-1.8-.7c-.2,0-.4-.3-.3-.6s.4-.4.6-.3l1.9.7a.7.7,0,0,1,.3.6A.5.5,0,0,1,244.8,75.8ZM144.2,74.6c-.2,0-.3-.1-.4-.3a.5.5,0,0,1,.2-.6l1.8-.8a.5.5,0,0,1,.6.2.6.6,0,0,1-.2.7l-1.8.8Zm94.2-1h-.1l-1.9-.6a.6.6,0,0,1-.3-.7c.1-.2.4-.4.6-.3l1.9.6a.6.6,0,0,1,.3.7A.5.5,0,0,1,238.4,73.6Zm-87.9-1.7a.5.5,0,0,1-.5-.3.4.4,0,0,1,.3-.6l1.8-.7a.5.5,0,0,1,.3.9l-1.8.7Zm81.5-.4h-.2L230,71a.4.4,0,0,1-.3-.6.4.4,0,0,1,.6-.4l1.8.6a.4.4,0,0,1,.3.6C232.4,71.4,232.2,71.5,232,71.5Zm-6.5-1.8h-.2l-1.8-.4a.6.6,0,0,1-.4-.6.5.5,0,0,1,.6-.4l1.9.5a.5.5,0,0,1,.3.6A.4.4,0,0,1,225.5,69.7Zm-68.7,0a.4.4,0,0,1-.4-.4.4.4,0,0,1,.3-.6l1.8-.6c.3,0,.6.1.6.4a.4.4,0,0,1-.3.6l-1.8.5ZM218.9,68h-.1l-1.9-.4c-.3,0-.4-.3-.4-.5s.3-.5.6-.4l1.9.4a.5.5,0,1,1-.1.9Zm-55.6-.2a.4.4,0,0,1-.4-.4.4.4,0,0,1,.3-.6l1.9-.4c.2-.1.5.1.6.3a.5.5,0,0,1-.4.6l-1.9.5Zm49-1.1h-.1l-1.9-.3c-.3-.1-.5-.3-.4-.6s.3-.4.5-.4l1.9.3c.3.1.5.3.4.6A.4.4,0,0,1,212.3,66.7Zm-42.4-.4a.4.4,0,0,1-.4-.4.4.4,0,0,1,.3-.5l2-.4c.2,0,.5.2.5.4s-.1.5-.4.6l-1.9.3Zm35.7-.6a.1.1,0,0,1-.1-.1l-1.9-.2c-.3,0-.5-.3-.4-.5a.5.5,0,0,1,.5-.5l1.9.3c.3,0,.5.3.4.5A.5.5,0,0,1,205.6,65.7Zm-29-.4a.7.7,0,0,1-.5-.4.6.6,0,0,1,.5-.6l1.9-.2a.5.5,0,0,1,.5.4.4.4,0,0,1-.4.6l-1.9.2Zm22.2-.4h-1.9a.5.5,0,0,1,0-1l2,.2a.5.5,0,1,1-.1.9Zm-15.4-.2a.5.5,0,0,1-.5-.4.6.6,0,0,1,.5-.6h1.9a.4.4,0,0,1,.5.4.5.5,0,0,1-.5.5Zm8.7-.1h-2c-.2,0-.4-.3-.4-.5a.5.5,0,0,1,.4-.5h2a.5.5,0,0,1,.5.5A.5.5,0,0,1,192.1,64.6Z" transform="translate(-24.2 -63.6)"/><path class="cls-2" d="M436,245.7h-.2a.6.6,0,0,1-.2-.7,8.9,8.9,0,0,0,.8-1.7.6.6,0,0,1,.7-.2.5.5,0,0,1,.2.6l-.8,1.8Zm2.8-6.1h-.1a.4.4,0,0,1-.3-.6l.7-1.8a.6.6,0,0,1,.7-.2.4.4,0,0,1,.2.6l-.7,1.8A.5.5,0,0,1,438.8,239.6Zm2.5-6.3h-.2c-.2,0-.3-.3-.3-.6a13.4,13.4,0,0,0,.7-1.8.5.5,0,0,1,.6-.3c.2.1.4.4.3.6l-.6,1.9A.9.9,0,0,1,441.3,233.3Zm2.1-6.5h-.1a.5.5,0,0,1-.4-.6l.6-1.8c0-.3.3-.4.5-.4s.5.4.4.6a13.3,13.3,0,0,0-.5,1.9A.5.5,0,0,1,443.4,226.8Zm1.7-6.5H445a.5.5,0,0,1-.4-.6,12.9,12.9,0,0,0,.4-1.9.8.8,0,0,1,.6-.4.6.6,0,0,1,.4.6,12.9,12.9,0,0,0-.4,1.9A.7.7,0,0,1,445.1,220.3Zm1.3-6.7h-.1c-.2,0-.4-.3-.4-.5l.3-1.9a.4.4,0,0,1,.6-.4c.2,0,.4.3.4.5l-.3,1.9A.5.5,0,0,1,446.4,213.6Zm.9-6.7h-.1c-.3,0-.4-.2-.4-.5s.1-1.3.1-1.9a.6.6,0,0,1,.6-.5.7.7,0,0,1,.4.6,13.7,13.7,0,0,1-.2,1.9A.4.4,0,0,1,447.3,206.9Zm.4-6.7h-.1c-.2,0-.4-.3-.4-.5v-1.9a.5.5,0,0,1,.5-.5h0a.5.5,0,0,1,.5.5,12.1,12.1,0,0,1-.1,1.9A.5.5,0,0,1,447.7,200.2Zm-.1-6.8a.5.5,0,0,1-.5-.5c0-.6-.1-1.2-.1-1.9s.2-.5.4-.5a.5.5,0,0,1,.5.5c.1.6.1,1.3.2,1.9a.5.5,0,0,1-.5.5Zm-.6-6.7a.5.5,0,0,1-.5-.5l-.3-1.9c0-.2.2-.5.4-.5s.6.1.6.4l.3,1.9a.6.6,0,0,1-.5.6Zm-1.1-6.7a.5.5,0,0,1-.5-.4c-.1-.6-.3-1.2-.4-1.9a.4.4,0,0,1,.3-.5.5.5,0,0,1,.6.3,12.9,12.9,0,0,1,.4,1.9.5.5,0,0,1-.3.6Zm-1.7-6.6a.5.5,0,0,1-.5-.3l-.6-1.8c-.1-.3.1-.6.3-.6s.6,0,.6.3l.6,1.8a.4.4,0,0,1-.3.6Zm-2.3-6.3c-.2,0-.3-.2-.4-.3l-.8-1.8c-.1-.3,0-.5.3-.7s.5.1.6.3l.8,1.8a.4.4,0,0,1-.3.6Zm-2.8-6.2a.5.5,0,0,1-.4-.3l-.9-1.7a.5.5,0,0,1,.2-.6c.2-.2.5-.1.7.2l.9,1.7a.5.5,0,0,1-.2.6Zm-3.3-5.9-.4-.2-1-1.7a.4.4,0,0,1,.1-.6.5.5,0,0,1,.7.1l1,1.7a.4.4,0,0,1-.1.6Zm-3.8-5.6-.4-.2-1.2-1.5a.5.5,0,1,1,.8-.6l1.2,1.5a.6.6,0,0,1-.1.7Zm-4.3-5.2-.4-.2-1.3-1.4c-.2-.2-.2-.5,0-.6a.5.5,0,0,1,.7,0,8.6,8.6,0,0,1,1.3,1.4.5.5,0,0,1,0,.7Zm-4.8-4.8h-.3l-1.5-1.3c-.2-.1-.2-.4,0-.6a.4.4,0,0,1,.6-.1l1.5,1.3a.5.5,0,0,1,0,.7Zm-5.3-4.2h-.3l-1.5-1.1a.5.5,0,0,1-.2-.7.5.5,0,0,1,.7-.1l1.6,1.1a.5.5,0,0,1,.1.7Zm-5.7-3.7h-.2l-1.7-.9a.6.6,0,0,1-.2-.7.6.6,0,0,1,.7-.2l1.7,1a.6.6,0,0,1,.2.7Zm-6-3h-.2l-1.8-.7a.6.6,0,0,1-.2-.7.4.4,0,0,1,.6-.2l1.8.7a.6.6,0,0,1,.2.7C406.3,128.4,406.1,128.5,405.9,128.5Zm-6.3-2.4h-.2l-1.8-.5a.4.4,0,0,1-.3-.6c0-.3.3-.4.6-.4l1.8.6a.4.4,0,0,1,.3.6A.4.4,0,0,1,399.6,126.1Zm-6.5-1.9H393l-1.9-.5c-.3,0-.4-.3-.4-.5s.3-.5.6-.4l1.9.4c.2.1.4.4.3.6A.4.4,0,0,1,393.1,124.2Zm-6.6-1.4h-.1l-1.9-.4c-.3,0-.5-.3-.4-.5s.3-.5.5-.4l1.9.3c.3.1.5.3.4.6A.4.4,0,0,1,386.5,122.8Zm-6.7-1.2h-.1l-1.9-.2a.5.5,0,0,1-.4-.6c0-.3.3-.4.5-.4l2,.3c.2,0,.4.3.4.5A.5.5,0,0,1,379.8,121.6Zm-6.7-.9H373l-1.9-.3c-.3,0-.4-.2-.4-.5s.3-.5.5-.4l1.9.2a.6.6,0,0,1,.5.6A.7.7,0,0,1,373.1,120.7Zm-6.7-.9h-.1l-1.9-.3c-.3,0-.5-.2-.4-.5s.3-.4.5-.4l1.9.2a.6.6,0,0,1,.5.6A.7.7,0,0,1,366.4,119.8Zm-6.7-.9c-.1,0-.1,0-.1-.1l-1.9-.3c-.3,0-.5-.2-.4-.5s.3-.5.5-.4l1.9.3c.3,0,.5.3.4.5A.5.5,0,0,1,359.7,118.9Z" transform="translate(-24.2 -63.6)"/><path class="cls-3" d="M436,245.7h-.2a.6.6,0,0,1-.2-.7,8.9,8.9,0,0,0,.8-1.7.6.6,0,0,1,.7-.2.5.5,0,0,1,.2.6l-.8,1.8Zm2.8-6.1h-.1a.4.4,0,0,1-.3-.6l.7-1.8a.6.6,0,0,1,.7-.2.4.4,0,0,1,.2.6l-.7,1.8A.5.5,0,0,1,438.8,239.6Zm2.5-6.3h-.2c-.2,0-.3-.3-.3-.6a13.4,13.4,0,0,0,.7-1.8.5.5,0,0,1,.6-.3c.2.1.4.4.3.6l-.6,1.9A.9.9,0,0,1,441.3,233.3Zm2.1-6.5h-.1a.5.5,0,0,1-.4-.6l.6-1.8c0-.3.3-.4.5-.4s.5.4.4.6a13.3,13.3,0,0,0-.5,1.9A.5.5,0,0,1,443.4,226.8Zm1.7-6.5H445a.5.5,0,0,1-.4-.6,12.9,12.9,0,0,0,.4-1.9.8.8,0,0,1,.6-.4.6.6,0,0,1,.4.6,12.9,12.9,0,0,0-.4,1.9A.7.7,0,0,1,445.1,220.3Zm1.3-6.7h-.1c-.2,0-.4-.3-.4-.5l.3-1.9a.4.4,0,0,1,.6-.4c.2,0,.4.3.4.5l-.3,1.9A.5.5,0,0,1,446.4,213.6Zm.9-6.7h-.1c-.3,0-.4-.2-.4-.5s.1-1.3.1-1.9a.6.6,0,0,1,.6-.5.7.7,0,0,1,.4.6,13.7,13.7,0,0,1-.2,1.9A.4.4,0,0,1,447.3,206.9Zm.4-6.7h-.1c-.2,0-.4-.3-.4-.5v-1.9a.5.5,0,0,1,.5-.5h0a.5.5,0,0,1,.5.5,12.1,12.1,0,0,1-.1,1.9A.5.5,0,0,1,447.7,200.2Zm-.1-6.8a.5.5,0,0,1-.5-.5c0-.6-.1-1.2-.1-1.9s.2-.5.4-.5a.5.5,0,0,1,.5.5c.1.6.1,1.3.2,1.9a.5.5,0,0,1-.5.5Zm-.6-6.7a.5.5,0,0,1-.5-.5l-.3-1.9c0-.2.2-.5.4-.5s.6.1.6.4l.3,1.9a.6.6,0,0,1-.5.6Zm-1.1-6.7a.5.5,0,0,1-.5-.4c-.1-.6-.3-1.2-.4-1.9a.4.4,0,0,1,.3-.5.5.5,0,0,1,.6.3,12.9,12.9,0,0,1,.4,1.9.5.5,0,0,1-.3.6Zm-1.7-6.6a.5.5,0,0,1-.5-.3l-.6-1.8c-.1-.3.1-.6.3-.6s.6,0,.6.3l.6,1.8a.4.4,0,0,1-.3.6Zm-2.3-6.3c-.2,0-.3-.2-.4-.3l-.8-1.8c-.1-.3,0-.5.3-.7s.5.1.6.3l.8,1.8a.4.4,0,0,1-.3.6Zm-2.8-6.2a.5.5,0,0,1-.4-.3l-.9-1.7a.5.5,0,0,1,.2-.6c.2-.2.5-.1.7.2l.9,1.7a.5.5,0,0,1-.2.6Zm-3.3-5.9-.4-.2-1-1.7a.4.4,0,0,1,.1-.6.5.5,0,0,1,.7.1l1,1.7a.4.4,0,0,1-.1.6Zm-3.8-5.6-.4-.2-1.2-1.5a.5.5,0,1,1,.8-.6l1.2,1.5a.6.6,0,0,1-.1.7Zm-4.3-5.2-.4-.2-1.3-1.4c-.2-.2-.2-.5,0-.6a.5.5,0,0,1,.7,0,8.6,8.6,0,0,1,1.3,1.4.5.5,0,0,1,0,.7Zm-4.8-4.8h-.3l-1.5-1.3c-.2-.1-.2-.4,0-.6a.4.4,0,0,1,.6-.1l1.5,1.3a.5.5,0,0,1,0,.7Zm-5.3-4.2h-.3l-1.5-1.1a.5.5,0,0,1-.2-.7.5.5,0,0,1,.7-.1l1.6,1.1a.5.5,0,0,1,.1.7Zm-5.7-3.7h-.2l-1.7-.9a.6.6,0,0,1-.2-.7.6.6,0,0,1,.7-.2l1.7,1a.6.6,0,0,1,.2.7Zm-6-3h-.2l-1.8-.7a.6.6,0,0,1-.2-.7.4.4,0,0,1,.6-.2l1.8.7a.6.6,0,0,1,.2.7C406.3,128.4,406.1,128.5,405.9,128.5Zm-6.3-2.4h-.2l-1.8-.5a.4.4,0,0,1-.3-.6c0-.3.3-.4.6-.4l1.8.6a.4.4,0,0,1,.3.6A.4.4,0,0,1,399.6,126.1Zm-6.5-1.9H393l-1.9-.5c-.3,0-.4-.3-.4-.5s.3-.5.6-.4l1.9.4c.2.1.4.4.3.6A.4.4,0,0,1,393.1,124.2Zm-6.6-1.4h-.1l-1.9-.4c-.3,0-.5-.3-.4-.5s.3-.5.5-.4l1.9.3c.3.1.5.3.4.6A.4.4,0,0,1,386.5,122.8Zm-6.7-1.2h-.1l-1.9-.2a.5.5,0,0,1-.4-.6c0-.3.3-.4.5-.4l2,.3c.2,0,.4.3.4.5A.5.5,0,0,1,379.8,121.6Zm-6.7-.9H373l-1.9-.3c-.3,0-.4-.2-.4-.5s.3-.5.5-.4l1.9.2a.6.6,0,0,1,.5.6A.7.7,0,0,1,373.1,120.7Zm-6.7-.9h-.1l-1.9-.3c-.3,0-.5-.2-.4-.5s.3-.4.5-.4l1.9.2a.6.6,0,0,1,.5.6A.7.7,0,0,1,366.4,119.8Zm-6.7-.9c-.1,0-.1,0-.1-.1l-1.9-.3c-.3,0-.5-.2-.4-.5s.3-.5.5-.4l1.9.3c.3,0,.5.3.4.5A.5.5,0,0,1,359.7,118.9Z" transform="translate(-24.2 -63.6)"/></g></g><g id="Window"><rect class="cls-4" x="29.3" y="109.3" width="159.3" height="100.86"/><path class="cls-5" d="M103.4,161.2l-3.1-8.9H50.4V281.1H215.9V161.2ZM212.8,273.8H53.5V172.9H212.8Z" transform="translate(-24.2 -63.6)"/><polyline class="cls-5" points="33.1 100.1 30.8 102.3 33.2 104.9"/><line class="cls-6" x1="30.8" y1="102.3" x2="35.9" y2="102.3"/><polyline class="cls-5" points="46.1 100.1 48.3 102.3 46 104.9"/><line class="cls-6" x1="48.3" y1="102.3" x2="43.3" y2="102.3"/><path class="cls-5" d="M83.4,165.6a2.5,2.5,0,0,0-2.3-1.8,2.3,2.3,0,0,0,0,4.6,3,3,0,0,0,1.5-.5" transform="translate(-24.2 -63.6)"/><polyline class="cls-5" points="57.7 102.3 59.5 102.3 59.5 100.2"/><line class="cls-6" x1="70.6" y1="93.3" x2="73.8" y2="96.6"/><line class="cls-6" x1="73.8" y1="93.4" x2="70.5" y2="96.6"/></g><g id="Email"><g id="Email-2" data-name="Email"><polygon class="cls-7" points="150.6 281.5 126 233.6 55 272.1 79.7 317.4 150.6 281.5"/><polygon class="cls-8" points="120.8 246.6 106.6 282.1 55.3 272.3 102.9 276.7 118.9 246.1 120.8 246.6"/><polygon class="cls-1" points="120.8 246.6 106.6 282.1 55.3 272.3 102.9 276.7 118.9 246.1 120.8 246.6"/><polygon class="cls-9" points="55.3 272 79.7 317.4 150.6 281.5 125.7 233.9 55.3 272"/><polyline class="cls-9" points="55.3 272 102.9 276.7 125.7 233.9"/><circle class="cls-2" cx="147.4" cy="299.5" r="10.5" transform="translate(-192.8 128.4) rotate(-45)"/><circle class="cls-10" cx="147.4" cy="299.5" r="10.5" transform="translate(-192.8 128.4) rotate(-45)"/><circle class="cls-9" cx="123.2" cy="236.2" r="10.5"/><circle class="cls-2" cx="123.2" cy="233.3" r="10.5"/><circle class="cls-9" cx="123.2" cy="233.3" r="10.5"/><rect class="cls-7" x="235.7" y="171.2" width="56.2" height="33.93" rx="3"/><rect class="cls-9" x="235.7" y="171.2" width="56.2" height="33.93" rx="3"/><rect class="cls-2" x="239.4" y="176.4" width="49" height="2.29"/><rect class="cls-2" x="239.4" y="181.7" width="49" height="2.29"/><rect class="cls-2" x="239.4" y="187" width="49" height="2.29"/><rect class="cls-2" x="239.4" y="192.3" width="49" height="2.29"/><rect class="cls-2" x="239.4" y="197.6" width="49" height="2.29"/><path class="cls-11" d="M256.8,262.4a100.5,100.5,0,0,0-21.9,15.9c-15,15-22.4,35.6-33,53.9a166.8,166.8,0,0,1-42.7,48.2c-17.7,13.5-38.7,23.5-61,25.1s-45.7-6.1-60.2-23-18.1-43.3-5.9-61.8c10.1-15.3,30.1-23.4,48.1-19.4,7,1.5,13.5,4.7,20,7.8l10,4.9" transform="translate(-24.2 -63.6)"/><path class="cls-11" d="M287.3,165.6c10-4.8,21.9-6.1,32.4-2.4s19.1,12.9,20.9,23.9-2,19.2-7.7,26.9c-4.3,5.7-9.8,10.4-15.6,14.7" transform="translate(-24.2 -63.6)"/></g></g><g id="Character_1" data-name="Character 1"><g id="Character_1-2" data-name="Character 1"><path class="cls-7" d="M228.8,214.1l8.8-5.5,22-26.7,17.7,14.9-22.7,25.6-3.3-2.3L232.7,224S230.8,216.7,228.8,214.1Z" transform="translate(-24.2 -63.6)"/><path class="cls-7" d="M99.8,208.6l-8.9,7,2.4,5s.5,6.4,4.2,8.4,13.4-4.4,13.4-4.4,1-6.7-2.4-11.7Z" transform="translate(-24.2 -63.6)"/><path class="cls-7" d="M203.3,133.9s-15.1,29.3-24,31.3l-3.6,1.1s-3.2,10.1-14,11.8l1.4-8.4-7.9,7.8s-12.7-11.6-9.7-27.4l11.2.7,4.9-9.3s-4.2-2.4-3.2-7.1,2-9.1,6.9-5.2c0,0,10.6,5.4,19.2-2.2s10.9-8.6,15.4-5.9C199.9,121.1,198.8,131.5,203.3,133.9Z" transform="translate(-24.2 -63.6)"/><path class="cls-2" d="M155.2,177.5s-11.7-7.7-9.8-26.9c0,0-14.4-3.1-34.9-1.5L49.4,202.7a14.2,14.2,0,0,0,10.8,9.8c8.8,1.8,30.3,3.2,30.3,3.2l8.4-7.4-19.1-7.9,29.7-17.6v29.5s3.4,9.9,1.4,12.3l-12.8,13s21.6,40,70.2,14.7l-5.1-27.7s8.1-2.1,3.4-6.5l7.8-12.9s8.3,29.9,15.6,37.6l41.9-18.4s-1.1-7.2-3.4-10.1L199.1,221s.4-26.5-1.5-35.2-5.6-17.2-13.6-23c0,0-5.4,3.7-7.9,2.4,0,0-4.6,13-14.4,12.9l1.5-9-6.9,7.5-1.1.9" transform="translate(-24.2 -63.6)"/><path class="cls-1" d="M199.7,122.5a10.5,10.5,0,0,0-6.4,2.7c-1.8,1.6-3.3,3.4-5,5a27,27,0,0,1-18,7.4,22.7,22.7,0,0,1-4.6,11.1c-.7.9-1.5,2-1.3,3.1a3.7,3.7,0,0,0,.7,1.4l3,4.5a2.2,2.2,0,0,1,.6,1.3c.1,1-.8,1.7-1.5,2.3l-6.4,4.9s-4.4-10.6-4.1-15.4l4.9-9.3s-9.4-11-2-14.8,12.1,1,12.1,1,17.8-8.7,23.2-8.5S199.7,122.5,199.7,122.5Z" transform="translate(-24.2 -63.6)"/><path class="cls-9" d="M203.2,131.9s-9.9,24.8-23.2,33.2c0,0-.9.9-3.7,0s-9.1-8-11.4-11.5c-1.1-1.7-1.4-4.2-1.5-6.4" transform="translate(-24.2 -63.6)"/><path class="cls-9" d="M178.7,150a7.1,7.1,0,0,0,5,4.3" transform="translate(-24.2 -63.6)"/><path class="cls-9" d="M192,134.6a6.1,6.1,0,0,0-5.8-2.1" transform="translate(-24.2 -63.6)"/><path class="cls-9" d="M196.4,137.1a3.8,3.8,0,0,1,4.2,1.3" transform="translate(-24.2 -63.6)"/><path class="cls-9" d="M194.7,139.5a8.8,8.8,0,0,0-2.4,3.9,6.3,6.3,0,0,0,.3,4.5,7.1,7.1,0,0,1,.8,1.8c.2.7-.1,1.5-.7,1.6h-.9a15.2,15.2,0,0,1-5-2.3" transform="translate(-24.2 -63.6)"/><path class="cls-9" d="M166.3,133.7a16.1,16.1,0,0,0-.9-2.9c-.4-1.1-1.2-2.4-2.5-2.6a3.1,3.1,0,0,0-1.3.3,4.2,4.2,0,0,0-2.4,3.1,10.8,10.8,0,0,0,.1,4,18.9,18.9,0,0,0,.9,3.4,6.2,6.2,0,0,0,1.4,2.5,3.3,3.3,0,0,0,3.3.4,3.1,3.1,0,0,0,1.8-2.8" transform="translate(-24.2 -63.6)"/><path class="cls-9" d="M161,141.1a35.6,35.6,0,0,1-4.4,9.7" transform="translate(-24.2 -63.6)"/><path class="cls-9" d="M90.5,215.7l2.8,4.9s.2,6.8,3.7,8.3,13.9-4.3,13.9-4.3a18.5,18.5,0,0,0-1.5-11.3,101.9,101.9,0,0,0-10.5-5" transform="translate(-24.2 -63.6)"/><line class="cls-9" x1="81.6" y1="163.2" x2="79" y2="152.9"/><line class="cls-9" x1="76.8" y1="164.8" x2="73.5" y2="154.5"/><line class="cls-9" x1="55.4" y1="136.7" x2="92.4" y2="115.3"/><path class="cls-9" d="M109.9,182.8l9.3-.4" transform="translate(-24.2 -63.6)"/><line class="cls-9" x1="85.5" y1="119.5" x2="85.5" y2="149.7"/><path class="cls-9" d="M183.3,162.5s8.8,2.9,14.4,22.1c1.9,16.5,1.4,36.7,1.4,36.7" transform="translate(-24.2 -63.6)"/><path class="cls-9" d="M238.8,207.9s10.5.4,10.3,2.2-9,3.4-9,3.4a1.2,1.2,0,0,1,.1.5s2.1,3.9-.9,5.7" transform="translate(-24.2 -63.6)"/><path class="cls-9" d="M238.4,207.9a85.7,85.7,0,0,0-9.7,6.3L198.3,222" transform="translate(-24.2 -63.6)"/><path class="cls-9" d="M140.2,224s9,3.6,20.9-3.2" transform="translate(-24.2 -63.6)"/><path class="cls-12" d="M187.6,140.3c-.4,1.3-1.3,2.2-2,1.9s-.7-1.4-.3-2.7,1.4-2.2,2-1.9S188.1,139,187.6,140.3Z" transform="translate(-24.2 -63.6)"/><path class="cls-12" d="M196.6,142.5c-.5,1.2-1.3,2.1-2,1.9s-.7-1.5-.3-2.8,1.4-2.1,2-1.9S197.1,141.2,196.6,142.5Z" transform="translate(-24.2 -63.6)"/><path class="cls-9" d="M144.6,267.7a47.3,47.3,0,0,0,5.2-.4" transform="translate(-24.2 -63.6)"/><path class="cls-9" d="M99.9,250.9S112.2,267,139,267.8" transform="translate(-24.2 -63.6)"/><polyline class="cls-9" points="219.3 149.6 230.4 158.9 253.1 133.2 235.6 118 213.3 144.5"/><polyline class="cls-9" points="235.6 118 233.2 138.8 213.3 144.5"/><path class="cls-12" d="M165.4,130.8s13,3.4,22-4.6,11.7-3.5,11.7-3.5-2.3,7.7,3,11.2l12.6-11.5s-6.8-7.3-15.1-6c0,0-6.3-13.5-17-14.4-12.5-1.1-41.6,10.1-24.8,46.4l3.1-7.1s-3.2-9.8.7-12.8S165.4,130.8,165.4,130.8Z" transform="translate(-24.2 -63.6)"/><path class="cls-12" d="M203.6,119.1c.5.2,2.3-.4,2.9-.4a10,10,0,0,1,3.8.8,22,22,0,0,1,7.3,5.5c4.2,4.7,8.1,10.9,15,11.4s10.7-4.3,16.5-5c12.2-1.5,21.3,10.9,19.7,22.2-3.5,25.3-41.9,40.6-70.7,35.3-1-.1-.1-16.1-14.1-26.1,0,0,18-21.3,19.2-32.4S203.6,119.1,203.6,119.1Z" transform="translate(-24.2 -63.6)"/><path class="cls-9" d="M199.3,117s1.3-8.2-7.7-15.6" transform="translate(-24.2 -63.6)"/><path class="cls-9" d="M156.7,150.8s-.2,6.1,6.5,18.3l-8,8.4s-13.1-9.4-9.4-27.7Z" transform="translate(-24.2 -63.6)"/><path class="cls-9" d="M176.3,165.1c-5.8,14.1-14.6,13-14.6,13l1.5-9s6-3.3,8.7-6.9h0" transform="translate(-24.2 -63.6)"/><line class="cls-9" x1="85.7" y1="161.9" x2="82.7" y2="151.4"/><path class="cls-9" d="M182.7,191l-16.1,27.1s1.7,1.7,1.1,3.4-4.6,3.1-4.6,3.1l5.2,27.7c.3,1.8-14.3,6.2-15.7,6.6-11.8,3.2-24.1,2.9-35-3.1a53.2,53.2,0,0,1-19.5-18.2l11.8-12.1" transform="translate(-24.2 -63.6)"/><path class="cls-9" d="M174.5,205.1s2.6,15.2,15.5,37.7l42.1-18.6,18.7-4.3" transform="translate(-24.2 -63.6)"/><path class="cls-9" d="M199.3,221.3a12.5,12.5,0,0,0-7.5,10.6" transform="translate(-24.2 -63.6)"/><path class="cls-9" d="M189.1,224.9a24.7,24.7,0,0,1,6.7-3.8" transform="translate(-24.2 -63.6)"/><path class="cls-9" d="M232.1,224.2c.7-2.1-3.4-10-3.4-10" transform="translate(-24.2 -63.6)"/><path class="cls-9" d="M145.8,150.3c-11.8-1.3-31-3-34.7-1.3-5.4,2.4-41.1,35.6-41.1,35.6L49.4,202.7c.3,6.6,10.8,9.8,10.8,9.8l30.3,3.2,9.3-7.1s-26.2-11.4-36-12.4" transform="translate(-24.2 -63.6)"/><path class="cls-9" d="M69.8,192s8.5,2.6,9.8,8.3" transform="translate(-24.2 -63.6)"/><path class="cls-13" d="M199.3,142.6c2.4,4,5.2,7.9,9,10.5a23.1,23.1,0,0,0,16,3.5,40.5,40.5,0,0,0,15.7-5.9c3.2-1.9,6.4-4.1,9.9-5.3s7.9-1.3,10.9.9" transform="translate(-24.2 -63.6)"/><path class="cls-13" d="M193.2,153.2c.2,5.7.6,11.6,3.8,16.4s7.5,7.2,12.6,8.6a30.4,30.4,0,0,0,16.9-.3c4.5-1.4,8.6-3.9,12.9-5.8s9-3.6,13.7-3" transform="translate(-24.2 -63.6)"/></g></g><g id="Character_2" data-name="Character 2"><g id="Character_2-2" data-name="Character 2"><polygon class="cls-7" points="232.8 255.7 233.7 246.7 241.1 242.7 229.8 221.7 197.9 238.3 209.1 259.2 216 255.8 229.5 263 232.8 255.7"/><path class="cls-7" d="M360.5,223.8s-10.3,24.2-11.3,32.3-.5,12.3,3.5,15.1,11,2.9,11,2.9l-.7,4.3s-2.8-.2-5,3.1-2.2,5.5-2.2,5.5,2.8,10.8,5,11,4.6-7.4,4.6-7.4,2,10.8,3.9,10.4,19.4-12.1,19.4-12.1,1.6-8.2-2.2-12.4c0,0-1-8.1,0-11.8,0,0,7.6.9,8-6.9s-3.2-9.8-5.4-7l-5.2-13,2-9.3Z" transform="translate(-24.2 -63.6)"/><path class="cls-1" d="M364.2,226.2l.8,1.4s-12.6,20.9-12,34.5,20.1,10.1,20.1,10.1-1.2,17-8.5,16l-1.8-4.2.6-9.5s-7.6.7-12.2-3.9-2.4-14.5,1.8-27.9,7.5-18.9,7.5-18.9Z" transform="translate(-24.2 -63.6)"/><path class="cls-2" d="M425.4,322.3a51.2,51.2,0,0,1-4.2,12.7,57.1,57.1,0,0,1-7.9,11.7l1.8,16.4,4.2,24.6h-.1c0,.1-.1.1-.2.2l-1.3.9H355.6c-1.6-3.8-3.4-8-5.1-12.2-3.1-7.7-5.8-15.2-6.5-18.9,0-.5-.1-.9-.1-1.3l-10.5-10.5-34.8,18.9-44.8-37.9h.1l4.6-9.1h0L303,338.9l9.3-12.8v-.4h0L315,317h.1l1.6-5.4,2.1-6.9,13.2-6.3h.1L355.8,287h.1l1,3.4a7.6,7.6,0,0,0,.4,1.1l.3.9a27.2,27.2,0,0,0,1.6,3.8l.3.5.5.7h0c.3.3.5.5.8.5s2.5-2.6,3.4-4.6c0-.1.1-.1.1-.2a26.4,26.4,0,0,1,1.1-2.5h0c.1.9,1.3,7.5,2.9,9.7a.3.3,0,0,1,.1.2,1.2,1.2,0,0,0,.9.4h0c.8,0,3.2-1.5,6.1-3.4a.1.1,0,0,0,.1-.1c5.4-3.6,12.4-9,13.4-9.7v-.2s.5-1.7,0-5.7h.2l29,11.2h0l.8.4s4.2,5.1,6.4,17.9A33.2,33.2,0,0,1,425.4,322.3Z" transform="translate(-24.2 -63.6)"/><polygon class="cls-7" points="305.4 248.6 308.1 233.4 276 224.8 270.4 248 283.2 252 289 263.8 297.8 269.8 307.4 260.8 308.2 253.6 305.4 248.6"/><path class="cls-9" d="M289.1,302.3" transform="translate(-24.2 -63.6)"/><polyline class="cls-9" points="233.7 246.7 241.1 243.1 229.9 221.6 198.1 238.7 209.1 259.2 224.1 251.6"/><polyline class="cls-9" points="198.1 238.7 219.6 240.9 229.9 221.6"/><polyline class="cls-9" points="300.3 256.7 303.7 257.7 308.2 233.1 276 224.7 270.4 248 282.8 251.6"/><polyline class="cls-9" points="276.1 224.7 288.9 240.6 308.2 233.1"/><path class="cls-9" d="M361.9,220.5s-12.6,28.6-13.5,40.2,10,13.3,10.1,13.3a24.1,24.1,0,0,0,13-1.3c3.2-1.4,5.8-4,8.5-6.2" transform="translate(-24.2 -63.6)"/><polyline class="cls-9" points="335.4 189.2 330.3 186.4 336.3 173.6"/><path class="cls-12" d="M366,242.8c-.4,1.1-.2,2.2.4,2.4s1.4-.6,1.7-1.7.2-2.2-.4-2.4S366.3,241.7,366,242.8Z" transform="translate(-24.2 -63.6)"/><path class="cls-12" d="M356.2,239.2c-.3,1.1-.2,2.2.4,2.4s1.4-.6,1.8-1.7.2-2.2-.4-2.4S356.6,238,356.2,239.2Z" transform="translate(-24.2 -63.6)"/><path class="cls-9" d="M366.6,255.3a7.8,7.8,0,0,1-7.3,2.7" transform="translate(-24.2 -63.6)"/><path class="cls-14" d="M366.5,236.6c1.1-.7,2.6-.2,3.6.7a10.3,10.3,0,0,1,1.9,3.4" transform="translate(-24.2 -63.6)"/><path class="cls-14" d="M360.9,235a2.3,2.3,0,0,0-4.1-.4" transform="translate(-24.2 -63.6)"/><path class="cls-9" d="M386.2,256.5s3.4-5.5,6.9-4.3,1.9,6.3.2,9.5-6,3.4-8.4,2" transform="translate(-24.2 -63.6)"/><path class="cls-12" d="M394.2,259.6s3.3-5.6-.2-7.5-8,4.5-8,4.5-.4,0-.9-.2a3.2,3.2,0,0,1-1.8-4.3l.4-1a9.7,9.7,0,0,0,.3-4.5c-.5-3.1-2.7-5.6-2.4-8.8a20.8,20.8,0,0,1,2.3-7.3c-18.2,3.6-29.1-6.7-26.7-15.2s8.2-.9,20.9-5.8S400,225.4,400,225.4c12.7,8.8.6,21.1.6,21.1L394.1,260Z" transform="translate(-24.2 -63.6)"/><path class="cls-9" d="M413.3,346.2c.5,16.1,6,41.5,6,41.5h-.1c0,.1-.1.1-.2.2l-1.3.9" transform="translate(-24.2 -63.6)"/><path class="cls-9" d="M355.3,388.8c-1.7-3.8-3.2-7.9-4.8-12.2-2.3-6.4-4.5-13.2-6.6-20.2" transform="translate(-24.2 -63.6)"/><path class="cls-9" d="M412.3,351.3" transform="translate(-24.2 -63.6)"/><path class="cls-9" d="M389.1,281.9s25.8,9.2,29.8,11.6" transform="translate(-24.2 -63.6)"/><path class="cls-9" d="M365.8,289.3c-2-1.5-3.1-5.3-2.7-8.1l.6-6.6" transform="translate(-24.2 -63.6)"/><path class="cls-9" d="M386.6,264.4s-1.3,4.3-.2,12.1" transform="translate(-24.2 -63.6)"/><path class="cls-9" d="M378,356.6l-46-32.3-10,8.9s40.9,45.6,57.1,52.8c0,0,32.2-34.7,42.6-52,0,0,10.6-17.2-2.7-40.5" transform="translate(-24.2 -63.6)"/><line class="cls-9" x1="348.3" y1="289.2" x2="373" y2="256.5"/><line class="cls-9" x1="349" y1="289.7" x2="364.5" y2="290.4"/><path class="cls-15" d="M400.3,226.8s2-8.1-3-14.2" transform="translate(-24.2 -63.6)"/><polyline class="cls-9" points="288.1 262.6 278.6 275.7 233.8 253.9 229.6 263.1 274.4 301.2 309 282.2"/><line class="cls-9" x1="307.8" y1="235.3" x2="331.6" y2="223.4"/><path class="cls-9" d="M256.7,319.9l1.3-12.1-4.8-8.9s.7-6.3-.7-6.3-1.3,15.4-1.3,15.4-4.1,2.9-2.6,9.2" transform="translate(-24.2 -63.6)"/><line class="cls-9" x1="216.7" y1="255.6" x2="229.6" y2="263.1"/><polyline class="cls-9" points="305.6 248.9 308 253.1 307.6 260.7"/><path class="cls-9" d="M325.4,321.5c0-.6-13.7-15.4-13.7-15.4l-1.5,1.3,5.6,10.9-4.7-8.2-1.3,1.6,1.2,6-1.6-4.4-2.3,1.2,6.1,12.8,8.6,5.6" transform="translate(-24.2 -63.6)"/><path class="cls-9" d="M422.8,397.8" transform="translate(-24.2 -63.6)"/><path class="cls-9" d="M411.8,404.4" transform="translate(-24.2 -63.6)"/><path class="cls-9" d="M400.9,409.5" transform="translate(-24.2 -63.6)"/><path class="cls-9" d="M347,407" transform="translate(-24.2 -63.6)"/><path class="cls-9" d="M386.5,276.5s-10.7,8.5-20.7,12.3c0,0,1,11.5,3.5,12.2.9.3,2.3-.6,3-1a56.9,56.9,0,0,0,5.2-3.3q5.1-3.4,9.9-7.2c.7-.5,1.6-1,1.7-1.9.2-4,.4-7.9-2.6-11Z" transform="translate(-24.2 -63.6)"/><path class="cls-9" d="M365.8,288.8s-2.7,9.5-5,9.2-5.1-11.6-5.1-11.6,2.6-9,7.6-7.6" transform="translate(-24.2 -63.6)"/><path class="cls-9" d="M303,338.9a44.4,44.4,0,0,1,0,10.3" transform="translate(-24.2 -63.6)"/><line class="cls-9" x1="312" y1="253.7" x2="315.8" y2="266.1"/><path class="cls-9" d="M395.1,309.6a33.2,33.2,0,0,0-3.8,18" transform="translate(-24.2 -63.6)"/><path class="cls-9" d="M388.5,316.7a44.3,44.3,0,0,0,.4,10.9" transform="translate(-24.2 -63.6)"/><path class="cls-9" d="M304.6,340.3a19.9,19.9,0,0,1,2,6.4" transform="translate(-24.2 -63.6)"/><path class="cls-13" d="M360.2,216.7a6.6,6.6,0,0,0,2.7,4,20.8,20.8,0,0,0,4.5,2.2,47.8,47.8,0,0,0,14.5,2.3,11.2,11.2,0,0,1,3.2.3,3.3,3.3,0,0,1,2.4,2" transform="translate(-24.2 -63.6)"/><path class="cls-13" d="M363.9,212.8c.6,2.7,3.5,4.5,6.2,4.9s5.6-.3,8.4-.6,5.7-.6,8.2.8,4.1,4.5,2.8,7" transform="translate(-24.2 -63.6)"/><path class="cls-9" d="M331.7,322.3" transform="translate(-24.2 -63.6)"/></g></g><g id="Table"><polyline class="cls-9" points="312 325.2 331.1 325.2 331.4 325.2 393.5 325.2 393.5 325.2 429 325.2"/><line class="cls-9" x1="267.5" y1="325.2" x2="302.9" y2="325.2"/><g id="Device--inject-47"><polygon class="cls-9" points="345.1 339.2 279.4 339.2 254.3 352.7 323.2 352.7 345.1 339.2"/><line class="cls-9" x1="283.7" y1="342.7" x2="332.2" y2="342.7"/><line class="cls-9" x1="280.2" y1="345.2" x2="327.3" y2="345.2"/><line class="cls-9" x1="276.6" y1="347.8" x2="322.4" y2="347.8"/><line class="cls-9" x1="332.5" y1="342.7" x2="318.6" y2="349.5"/><line class="cls-9" x1="324.9" y1="342.7" x2="311" y2="349.5"/><polygon class="cls-12" points="242.6 305.5 311.4 305.5 323.2 352.7 254.3 352.7 242.6 305.5"/><rect class="cls-9" x="253.7" y="352.7" width="69.4" height="3.36"/><polygon class="cls-16" points="241.8 305.5 310.6 305.5 322.4 352.7 253.6 352.7 241.8 305.5"/><polygon class="cls-12" points="323.2 352.7 345.6 339.1 345.5 341.6 323.4 356.5 323.2 352.7"/><path class="cls-9" d="M309.3,391.2a3.7,3.7,0,0,1-3.1,4.2,3.6,3.6,0,0,1-4.2-3.1,3.7,3.7,0,0,1,2.7-4.1A3.9,3.9,0,0,1,309.3,391.2Z" transform="translate(-24.2 -63.6)"/></g></g></svg>