<svg xmlns="http://www.w3.org/2000/svg" xmlns:xlink="http://www.w3.org/1999/xlink" viewBox="0 0 370.4 375.2"><defs><style>.cls-1{fill:#ebf1ef;}.cls-2{fill:#46a0ae;}.cls-3,.cls-7{fill:#067fc8;}.cls-3,.cls-5{opacity:0.6;}.cls-4,.cls-5{fill:#ff9a00;}.cls-13,.cls-19,.cls-6{fill:#fff;}.cls-11,.cls-15,.cls-16,.cls-17,.cls-19,.cls-6,.cls-7,.cls-8,.cls-9{stroke:#263238;}.cls-11,.cls-12,.cls-17,.cls-6,.cls-9{stroke-miterlimit:10;}.cls-6{isolation:isolate;}.cls-15,.cls-16,.cls-17,.cls-18,.cls-19,.cls-7,.cls-8{stroke-linecap:round;}.cls-15,.cls-16,.cls-18,.cls-19,.cls-7,.cls-8{stroke-linejoin:round;}.cls-8{fill:#c6ff00;}.cls-11,.cls-12,.cls-15,.cls-16,.cls-17,.cls-18,.cls-9{fill:none;}.cls-12,.cls-9{stroke-width:0.75px;}.cls-10{fill:#263238;}.cls-12,.cls-18{stroke:#fff;}.cls-14{fill:url(#linear-gradient);}.cls-16{stroke-width:2px;}.cls-18{stroke-width:0.5px;}</style><linearGradient id="linear-gradient" x1="253.83" y1="335.35" x2="425.85" y2="335.35" gradientUnits="userSpaceOnUse"><stop offset="0" stop-color="#067fc8"/><stop offset="1" stop-color="#067fc8"/></linearGradient></defs><title>آدمـچت</title><g id="Background_Simple" data-name="Background Simple"><path class="cls-1" d="M301.9,426.1s68.4-18.8,109.2-61,51.3-105.2,23.3-159.3S333.5,143,279.5,101.3,158.1,52,116.9,108.5s-3.1,88.4-10.6,162S142.1,462.9,301.9,426.1Z" transform="translate(-83.3 -57.8)"/></g><g id="Graphics"><g id="Background_details" data-name="Background details"><path class="cls-2" d="M145.6,375.9l-37-5.2-3.4,24.2,36.6,6.1Zm-2.2.6-18.1,8.8L110.5,372Zm-37.1,17.6,3-21.9,15.8,14.2,19.3-9.3-3.5,22.8Z" transform="translate(-83.3 -57.8)"/><path class="cls-3" d="M145.6,375.9l-37-5.2-3.4,24.2,36.6,6.1Zm-2.2.6-18.1,8.8L110.5,372Zm-37.1,17.6,3-21.9,15.8,14.2,19.3-9.3-3.5,22.8Z" transform="translate(-83.3 -57.8)"/><path class="cls-2" d="M229.3,57.8,198.9,84.5l39.2,47.1.3.4,32-27.3Zm39,45.9-34-9.2L230,60ZM200.2,84.6l28.7-25.1,4.5,35.8,35.3,9.5-30.2,25.8Z" transform="translate(-83.3 -57.8)"/><path class="cls-3" d="M229.3,57.8,198.9,84.5l39.2,47.1.3.4,32-27.3Zm39,45.9-34-9.2L230,60ZM200.2,84.6l28.7-25.1,4.5,35.8,35.3,9.5-30.2,25.8Z" transform="translate(-83.3 -57.8)"/></g><path class="cls-4" d="M93.1,136.4l18.5,15.7v-.2l22.7-27.2-17.6-15.4Zm23.3-25.8-2.5,19.9-19.6,5.3Zm-4.9,40.8L94,136.5l20.4-5.5,2.6-20.7,16.6,14.5Z" transform="translate(-83.3 -57.8)"/><path class="cls-5" d="M93.1,136.4l18.5,15.7v-.2l22.7-27.2-17.6-15.4Zm23.3-25.8-2.5,19.9-19.6,5.3Zm-4.9,40.8L94,136.5l20.4-5.5,2.6-20.7,16.6,14.5Z" transform="translate(-83.3 -57.8)"/><path class="cls-4" d="M227.7,384.4l-18.3,16v.2L233.1,427l17.8-15.1Zm22,26.9-19.3-5.4-2.3-20.2Zm-39.5-10.9,17.3-15,2.4,20.9,20,5.7-16.7,14.2Z" transform="translate(-83.3 -57.8)"/><path class="cls-5" d="M227.7,384.4l-18.3,16v.2L233.1,427l17.8-15.1Zm22,26.9-19.3-5.4-2.3-20.2Zm-39.5-10.9,17.3-15,2.4,20.9,20,5.7-16.7,14.2Z" transform="translate(-83.3 -57.8)"/><path class="cls-4" d="M83.3,242.6l13.7,20h.3l28.9-20.4-12.9-19.4Zm29.3-18.8L105,242.4H84.6Zm-15.4,38-13-18.9h21.1l7.9-19.3,12.2,18.3Z" transform="translate(-83.3 -57.8)"/><path class="cls-5" d="M83.3,242.6l13.7,20h.3l28.9-20.4-12.9-19.4Zm29.3-18.8L105,242.4H84.6Zm-15.4,38-13-18.9h21.1l7.9-19.3,12.2,18.3Z" transform="translate(-83.3 -57.8)"/><path class="cls-4" d="M351.7,145.1l-23.4-6.3v.2l-8.8,34.3,22.5,6.4Zm-10,33.3-6.3-19.1,15.5-13.2Zm-13-39,22.1,6-16,13.7,6.5,19.8-21.2-6Z" transform="translate(-83.3 -57.8)"/><path class="cls-5" d="M351.7,145.1l-23.4-6.3v.2l-8.8,34.3,22.5,6.4Zm-10,33.3-6.3-19.1,15.5-13.2Zm-13-39,22.1,6-16,13.7,6.5,19.8-21.2-6Z" transform="translate(-83.3 -57.8)"/></g><g id="Window"><rect class="cls-6" x="61.1" y="125.3" width="159.3" height="100.86"/><path class="cls-7" d="M194.3,171.4l-3.1-8.9H141.3V291.3H306.8V171.4ZM303.7,284H144.4V183.1H303.7Z" transform="translate(-83.3 -57.8)"/><polyline class="cls-7" points="64.9 116.1 62.6 118.3 65 120.9"/><line class="cls-8" x1="62.6" y1="118.3" x2="67.7" y2="118.3"/><polyline class="cls-7" points="77.8 116.1 80.1 118.3 77.8 120.9"/><line class="cls-8" x1="80.1" y1="118.3" x2="75.1" y2="118.3"/><path class="cls-7" d="M174.3,175.8A2.5,2.5,0,0,0,172,174a2.3,2.3,0,0,0-2.3,2.3,2.3,2.3,0,0,0,2.3,2.3,2.4,2.4,0,0,0,1.4-.5" transform="translate(-83.3 -57.8)"/><polyline class="cls-7" points="89.5 118.3 91.3 118.3 91.3 116.2"/><line class="cls-8" x1="102.4" y1="109.3" x2="105.6" y2="112.6"/><line class="cls-8" x1="105.6" y1="109.3" x2="102.3" y2="112.5"/></g><g id="Layer_9" data-name="Layer 9"><path class="cls-6" d="M297.9,193.8h-18c-.6,0-1.2-1.5-1.2-3.5h0c0-1.9.6-3.5,1.2-3.5h18c.7,0,1.2,1.6,1.2,3.5h0C299.1,192.3,298.6,193.8,297.9,193.8Z" transform="translate(-83.3 -57.8)"/><rect class="cls-9" x="72.1" y="147.6" width="57.7" height="24.64" rx="1.5"/><rect class="cls-9" x="72.1" y="175.3" width="57.7" height="11.49" rx="1.5"/><rect class="cls-9" x="72.1" y="189.6" width="57.7" height="33.83" rx="1.5"/><rect class="cls-10" x="152.7" y="147.3" width="57.7" height="9.57" rx="1.5"/><rect class="cls-10" x="152.7" y="161.9" width="57.7" height="32.94" rx="1.5"/><rect class="cls-10" x="152.7" y="196.7" width="57.7" height="24.26" rx="1.5"/><line class="cls-11" x1="61.4" y1="141.4" x2="220" y2="141.4"/><line class="cls-9" x1="76.7" y1="151.1" x2="124.2" y2="151.1"/><line class="cls-9" x1="76.8" y1="155.3" x2="124.3" y2="155.3"/><line class="cls-9" x1="76.8" y1="159.6" x2="124.3" y2="159.6"/><line class="cls-9" x1="76.8" y1="164" x2="124.3" y2="164"/><line class="cls-9" x1="76.8" y1="168.3" x2="110.5" y2="168.3"/><line class="cls-9" x1="76.8" y1="178.8" x2="124.3" y2="178.8"/><line class="cls-9" x1="76.8" y1="183.2" x2="106.7" y2="183.2"/><line class="cls-9" x1="77.5" y1="193.4" x2="125" y2="193.4"/><line class="cls-9" x1="77.6" y1="197.6" x2="125.1" y2="197.6"/><line class="cls-9" x1="77.6" y1="201.9" x2="125.1" y2="201.9"/><line class="cls-9" x1="77.6" y1="206.3" x2="125.1" y2="206.3"/><line class="cls-9" x1="77.6" y1="210.5" x2="111.3" y2="210.5"/><line class="cls-9" x1="77.6" y1="214.5" x2="124.5" y2="214.5"/><line class="cls-9" x1="77.5" y1="218.9" x2="124.4" y2="218.9"/><line class="cls-12" x1="158.5" y1="169.6" x2="205.9" y2="169.6"/><line class="cls-12" x1="158.5" y1="151.9" x2="205.9" y2="151.9"/><line class="cls-12" x1="158.5" y1="173.8" x2="206" y2="173.8"/><line class="cls-12" x1="158.5" y1="178.1" x2="206" y2="178.1"/><line class="cls-12" x1="158.5" y1="182.5" x2="206" y2="182.5"/><line class="cls-12" x1="158.5" y1="186.7" x2="192.2" y2="186.7"/><line class="cls-12" x1="158.5" y1="201" x2="205.9" y2="201"/><line class="cls-12" x1="158.5" y1="205.2" x2="206" y2="205.2"/><line class="cls-12" x1="158.5" y1="209.5" x2="206" y2="209.5"/><line class="cls-12" x1="158.5" y1="213.9" x2="206" y2="213.9"/><line class="cls-12" x1="158.5" y1="218.1" x2="192.2" y2="218.1"/></g><g id="Character_2" data-name="Character 2"><g id="Character_2-2" data-name="Character 2"><polygon class="cls-13" points="173.7 261.5 174.6 252.5 182 248.5 170.7 227.4 138.8 244.1 150 265 156.9 261.6 170.4 268.7 173.7 261.5"/><path class="cls-13" d="M360.5,223.8s-10.3,24.2-11.3,32.3-.5,12.3,3.5,15.1,11,2.9,11,2.9l-.7,4.3s-2.8-.2-5,3.1-2.2,5.5-2.2,5.5,2.8,10.8,5,11,4.6-7.4,4.6-7.4,2,10.8,3.9,10.4,19.4-12.1,19.4-12.1,1.6-8.2-2.2-12.4c0,0-1-8.1,0-11.8,0,0,7.6.9,8-6.9s-3.2-9.8-5.4-7l-5.2-13,2-9.3Z" transform="translate(-83.3 -57.8)"/><path class="cls-1" d="M364.2,226.2l.8,1.4s-12.6,20.9-12,34.5,20.1,10.1,20.1,10.1-1.2,17-8.5,16l-1.8-4.2.6-9.5s-7.6.7-12.2-3.9-2.4-14.5,1.8-27.9,7.5-18.9,7.5-18.9Z" transform="translate(-83.3 -57.8)"/><path class="cls-14" d="M425.4,322.3a51.2,51.2,0,0,1-4.2,12.7,57.1,57.1,0,0,1-7.9,11.7l1.8,16.4,4.2,24.6h-.1c0,.1-.1.1-.2.2l-1.3.9H355.6c-1.6-3.8-3.4-8-5.1-12.2-3.1-7.7-5.8-15.2-6.5-18.9,0-.5-.1-.9-.1-1.3l-10.5-10.5-34.8,18.9-44.8-37.9h.1l4.6-9.1h0L303,338.9l9.3-12.8v-.4h0L315,317h.1l1.6-5.4,2.1-6.9,13.2-6.3h.1L355.8,287h.1l1,3.4a7.6,7.6,0,0,0,.4,1.1l.3.9a27.2,27.2,0,0,0,1.6,3.8l.3.5.5.7h0c.3.3.5.5.8.5s2.5-2.6,3.4-4.6c0-.1.1-.1.1-.2a26.4,26.4,0,0,1,1.1-2.5h0c.1.9,1.3,7.5,2.9,9.7a.3.3,0,0,1,.1.2,1.2,1.2,0,0,0,.9.4h0c.8,0,3.2-1.5,6.1-3.4a.1.1,0,0,0,.1-.1c5.4-3.6,12.4-9,13.4-9.7v-.2s.5-1.7,0-5.7h.2l29,11.2h0l.8.4s4.2,5.1,6.4,17.9A33.2,33.2,0,0,1,425.4,322.3Z" transform="translate(-83.3 -57.8)"/><polygon class="cls-13" points="246.3 254.3 248.9 239.2 216.9 230.6 211.3 253.8 224.1 257.8 229.9 269.5 238.7 275.6 248.3 266.6 249.1 259.4 246.3 254.3"/><path class="cls-15" d="M289.1,302.3" transform="translate(-83.3 -57.8)"/><polyline class="cls-15" points="174.6 252.5 182 248.8 170.8 227.3 139 244.5 150 265 165 257.3"/><polyline class="cls-15" points="139 244.5 160.5 246.7 170.8 227.3"/><polyline class="cls-15" points="241.2 262.4 244.6 263.4 249.1 238.8 216.9 230.4 211.3 253.8 223.7 257.4"/><polyline class="cls-15" points="217 230.4 229.8 246.4 249.1 238.8"/><path class="cls-15" d="M361.9,220.5s-12.6,28.6-13.5,40.2,10,13.3,10.1,13.3a24.1,24.1,0,0,0,13-1.3c3.2-1.4,5.8-4,8.5-6.2" transform="translate(-83.3 -57.8)"/><polyline class="cls-15" points="276.3 194.9 271.2 192.1 277.2 179.4"/><path class="cls-10" d="M366,242.8c-.4,1.1-.2,2.2.4,2.4s1.4-.6,1.7-1.7.2-2.2-.4-2.4S366.3,241.7,366,242.8Z" transform="translate(-83.3 -57.8)"/><path class="cls-10" d="M356.2,239.2c-.3,1.1-.2,2.2.4,2.4s1.4-.6,1.8-1.7.2-2.2-.4-2.4S356.6,238,356.2,239.2Z" transform="translate(-83.3 -57.8)"/><path class="cls-15" d="M366.6,255.3a7.8,7.8,0,0,1-7.3,2.7" transform="translate(-83.3 -57.8)"/><path class="cls-16" d="M366.5,236.6c1.1-.7,2.6-.2,3.6.7a10.3,10.3,0,0,1,1.9,3.4" transform="translate(-83.3 -57.8)"/><path class="cls-16" d="M360.9,235a2.3,2.3,0,0,0-4.1-.4" transform="translate(-83.3 -57.8)"/><path class="cls-15" d="M386.2,256.5s3.4-5.5,6.9-4.3,1.9,6.3.2,9.5-6,3.4-8.4,2" transform="translate(-83.3 -57.8)"/><path class="cls-10" d="M394.2,259.6s3.3-5.6-.2-7.5-8,4.5-8,4.5-.4,0-.9-.2a3.2,3.2,0,0,1-1.8-4.3l.4-1a9.7,9.7,0,0,0,.3-4.5c-.5-3.1-2.7-5.6-2.4-8.8a20.8,20.8,0,0,1,2.3-7.3c-18.2,3.6-29.1-6.7-26.7-15.2s8.2-.9,20.9-5.8S400,225.4,400,225.4c12.7,8.8.6,21.1.6,21.1L394.1,260Z" transform="translate(-83.3 -57.8)"/><path class="cls-15" d="M413.3,346.2c.5,16.1,6,41.5,6,41.5h-.1c0,.1-.1.1-.2.2l-1.3.9" transform="translate(-83.3 -57.8)"/><path class="cls-15" d="M355.3,388.8c-1.7-3.8-3.2-7.9-4.8-12.2-2.3-6.4-4.5-13.2-6.6-20.2" transform="translate(-83.3 -57.8)"/><path class="cls-15" d="M412.3,351.3" transform="translate(-83.3 -57.8)"/><path class="cls-15" d="M389.1,281.9s25.8,9.2,29.8,11.6" transform="translate(-83.3 -57.8)"/><path class="cls-15" d="M365.8,289.3c-2-1.5-3.1-5.3-2.7-8.1l.6-6.6" transform="translate(-83.3 -57.8)"/><path class="cls-15" d="M386.6,264.4s-1.3,4.3-.2,12.1" transform="translate(-83.3 -57.8)"/><path class="cls-15" d="M378,356.6l-46-32.3-10,8.9s40.9,45.6,57.1,52.8c0,0,32.2-34.7,42.6-52,0,0,10.6-17.2-2.7-40.5" transform="translate(-83.3 -57.8)"/><line class="cls-15" x1="289.2" y1="295" x2="313.9" y2="262.2"/><line class="cls-15" x1="289.9" y1="295.5" x2="305.4" y2="296.2"/><path class="cls-17" d="M400.3,226.8s2-8.1-3-14.2" transform="translate(-83.3 -57.8)"/><polyline class="cls-15" points="229 268.3 219.5 281.4 174.7 259.6 170.5 268.8 215.3 307 249.9 287.9"/><line class="cls-15" x1="248.7" y1="241" x2="272.5" y2="229.2"/><path class="cls-15" d="M256.7,319.9l1.3-12.1-4.8-8.9s.7-6.3-.7-6.3-1.3,15.4-1.3,15.4-4.1,2.9-2.6,9.2" transform="translate(-83.3 -57.8)"/><line class="cls-15" x1="157.6" y1="261.4" x2="170.5" y2="268.8"/><polyline class="cls-15" points="246.5 254.6 248.9 258.9 248.4 266.4"/><path class="cls-15" d="M325.4,321.5c0-.6-13.7-15.4-13.7-15.4l-1.5,1.3,5.6,10.9-4.7-8.2-1.3,1.6,1.2,6-1.6-4.4-2.3,1.2,6.1,12.8,8.6,5.6" transform="translate(-83.3 -57.8)"/><path class="cls-15" d="M422.8,397.8" transform="translate(-83.3 -57.8)"/><path class="cls-15" d="M411.8,404.4" transform="translate(-83.3 -57.8)"/><path class="cls-15" d="M400.9,409.5" transform="translate(-83.3 -57.8)"/><path class="cls-15" d="M347,407" transform="translate(-83.3 -57.8)"/><path class="cls-15" d="M386.5,276.5s-10.7,8.5-20.7,12.3c0,0,1,11.5,3.5,12.2.9.3,2.3-.6,3-1a56.9,56.9,0,0,0,5.2-3.3q5.1-3.4,9.9-7.2c.7-.5,1.6-1,1.7-1.9.2-4,.4-7.9-2.6-11Z" transform="translate(-83.3 -57.8)"/><path class="cls-15" d="M365.8,288.8s-2.7,9.5-5,9.2-5.1-11.6-5.1-11.6,2.6-9,7.6-7.6" transform="translate(-83.3 -57.8)"/><path class="cls-15" d="M303,338.9a44.4,44.4,0,0,1,0,10.3" transform="translate(-83.3 -57.8)"/><line class="cls-15" x1="252.9" y1="259.5" x2="256.7" y2="271.9"/><path class="cls-15" d="M395.1,309.6a33.2,33.2,0,0,0-3.8,18" transform="translate(-83.3 -57.8)"/><path class="cls-15" d="M388.5,316.7a44.3,44.3,0,0,0,.4,10.9" transform="translate(-83.3 -57.8)"/><path class="cls-15" d="M304.6,340.3a19.9,19.9,0,0,1,2,6.4" transform="translate(-83.3 -57.8)"/><path class="cls-18" d="M360.2,216.7a6.6,6.6,0,0,0,2.7,4,20.8,20.8,0,0,0,4.5,2.2,47.8,47.8,0,0,0,14.5,2.3,11.2,11.2,0,0,1,3.2.3,3.3,3.3,0,0,1,2.4,2" transform="translate(-83.3 -57.8)"/><path class="cls-18" d="M363.9,212.8c.6,2.7,3.5,4.5,6.2,4.9s5.6-.3,8.4-.6,5.7-.6,8.2.8,4.1,4.5,2.8,7" transform="translate(-83.3 -57.8)"/><path class="cls-15" d="M331.7,322.3" transform="translate(-83.3 -57.8)"/></g></g><g id="Table"><polyline class="cls-15" points="252.8 331 272 331 272.3 331 334.4 331 334.4 331 369.9 331"/><line class="cls-15" x1="208.4" y1="331" x2="243.8" y2="331"/><g id="Device--inject-47"><polygon class="cls-15" points="286 344.9 220.3 344.9 195.2 358.5 264.1 358.5 286 344.9"/><line class="cls-15" x1="224.6" y1="348.5" x2="273.1" y2="348.5"/><line class="cls-15" x1="221.1" y1="351" x2="268.2" y2="351"/><line class="cls-15" x1="217.5" y1="353.5" x2="263.3" y2="353.5"/><line class="cls-15" x1="273.4" y1="348.5" x2="259.5" y2="355.3"/><line class="cls-15" x1="265.8" y1="348.5" x2="251.9" y2="355.3"/><polygon class="cls-10" points="183.5 311.2 252.3 311.2 264.1 358.5 195.2 358.5 183.5 311.2"/><rect class="cls-15" x="194.6" y="358.5" width="69.4" height="3.36"/><polygon class="cls-19" points="182.7 311.2 251.5 311.2 263.3 358.5 194.5 358.5 182.7 311.2"/><polygon class="cls-10" points="264.1 358.5 286.5 344.8 286.4 347.4 264.3 362.3 264.1 358.5"/><path class="cls-15" d="M309.3,391.2a3.7,3.7,0,0,1-3.1,4.2,3.6,3.6,0,0,1-4.2-3.1,3.7,3.7,0,0,1,2.7-4.1A3.9,3.9,0,0,1,309.3,391.2Z" transform="translate(-83.3 -57.8)"/></g></g></svg>