<svg xmlns="http://www.w3.org/2000/svg" xmlns:xlink="http://www.w3.org/1999/xlink" viewBox="0 0 426.4 422"><defs><style>.cls-1,.cls-4{fill:#878787;}.cls-1,.cls-10,.cls-12,.cls-14,.cls-15,.cls-2,.cls-8{stroke:#263238;}.cls-1,.cls-12,.cls-14,.cls-15,.cls-2,.cls-8{stroke-linecap:round;stroke-linejoin:round;}.cls-10,.cls-2,.cls-9{fill:#fff;}.cls-3{fill:#edf2f0;}.cls-5{clip-path:url(#clip-path);}.cls-6{fill:#46a0ae;}.cls-7{opacity:0.3;}.cls-8{fill:none;}.cls-10{stroke-miterlimit:10;}.cls-11{clip-path:url(#clip-path-2);}.cls-12,.cls-15{stroke-width:0.75px;}.cls-12{opacity:0.2;}.cls-13,.cls-14,.cls-15{fill:#263238;}</style><clipPath id="clip-path" transform="translate(-34.8 -39.8)"><circle class="cls-1" cx="238.6" cy="258.3" r="148.2" transform="translate(-112.8 244.3) rotate(-45)"/></clipPath><clipPath id="clip-path-2" transform="translate(-34.8 -39.8)"><path class="cls-2" d="M341.6,285.5,231.9,258.4s-11-3.4-20.1,2.2-11.4,6.5-15.5,13.6a15.6,15.6,0,0,0,5.5,21.2c7.8,4.7,60.6,14.4,60.6,14.4s13,7,18.7,8.4,17,2.9,19.3,2.6a29.2,29.2,0,0,0,4.7-1.1l12.6,2.8-4.6,2.3s-11-3.4-15.3,5.4,2.9,14.2,9.8,16.1,11.6.3,13.7-.6,4.7,0,6.6-3.4,2.8-5.1,1.8-6.6l-1.9-2.8a16.3,16.3,0,0,0,3.4-.8,32.1,32.1,0,0,0,4.9-3.5l18.6,6.4s5.3,4.7,8.7,5.1,4.3-.8,4.3-.8l26.1,9.8s2.5,2.7,4.6,3.2a10.7,10.7,0,0,0,4.3-.2l48.5,17,.4,2.8,3.4-6-4.1.9L328.1,320.3s22.7-5.9,34.6-13.3l51.8,16.7-.6-1.9-47.5-18.3s1.8-4.3.5-6.3a29.2,29.2,0,0,0-4.1-4.3L391,241.4l-6.2-1.2-37.7,44.1S345.9,285.1,341.6,285.5Z"/></clipPath></defs><title>چگونه کاز می کند</title><g id="Background_Simple" data-name="Background Simple"><path class="cls-3" d="M143.2,442.8s56.2,35.6,116.2,9.3,76.3-86.7,105.5-130.5c15.3-22.9,42.1-34,61.8-52.6,63.2-59.5,32-172-31.5-208.1-55-31.2-115.9-27.7-189.5,9.4S79.1,130.9,44.6,215.4,73,393.6,143.2,442.8Z" transform="translate(-34.8 -39.8)"/></g><g id="Earth_Globe" data-name="Earth Globe"><circle class="cls-4" cx="238.6" cy="258.3" r="148.2" transform="translate(-147.6 204.6) rotate(-45)"/><g class="cls-5"><path class="cls-6" d="M233.2,189.7l14.1,6.4,3.9,6.3,6.3,2.4.7,6.7-2.5,3.9-4.9,1.1-10.5-4.3v-1.4l5.9-2.4-2.1-7.4-9.5-3.5-4.2-5.7Zm88.6,162.5-11.2-4.6-13.7-4.9H286l-10.2-2.1-11.3,2.5-6.3.3h-3.9l-7.4,4.2-7,2.8-9.5-5.9,2.5-9.9-6-2.4h-7l-1.1-3.2.7-6.3-2.5-3.6-4.9.7-1.4,3.6-6,.3-5.2-6.3-2.1-8.5,5.2-9.8,10.2.7,2.8,2.5h4.3l5.2-3.2,4.6,1.4,6.3,10.9,2.5-.3-.7-8.1-2.1-4.3.7-6.6,13-5.7,1.8-13,5.6-4.6,4.6-8,3.5-.7,8.1-5.3.3-2.8-5.6.3-1.1-2.8h-3.8l-6,1.4,2.8-4.6,12.3-3.5,2.8-3.1,4.9,7.7,3.2,3.2,4.9-1.4-2.1-4.6-7.4-5.3-8.4-9.5-8.8-6-8.4-1.4-4.3-4.2-5.6-1.4-.7,1.4-.7,10.2,1.4,3.5-3.1,11.3-7.1-5.6,1.1-5-7.4-3.5-3.2-3.9,1.8-8.7,10.2-7.4.7-8.5-3.9.4-2.4-3.2-1.1-5.3-2.5-.3-1.4,5.6-3.8.7-1.8-12.3-2.8-1.8-4.9-2.1-5.7,2.9,7.1,6.6,1.4,6-12.7-9.5-8.8-9.5-.7-9.5-9.1-2.8-7.1,4.6a58,58,0,0,1-5.2,2.8c-1.8.7-8.5,1.4-8.5,1.4l-1.4,6-8.1.3.7,3.9,13.1,2.1,6.6,7.4v12.3l-3.8,10.9.7,11.6L159.7,247l-2.1,25.7,3.2,14.8,4.5,11.2,5.3.7-1.7-5.6-2.8-4.2-1.8-7.7,3.2-.7,4.9,12.6,3.5,11.3v9.1l6.7,8.1,11.9,8.8,18.3,4.9,5.7,5.3,4.2,5.6,6.3,3.9,7.7,2.1,7.8-.4s-.4,3.6-.4,5.3-4.9,7.8-4.9,7.8l-3.9,7,2.8,7.7,7.8,3.2,10.9,11.2,4.9,2.2v5.2l.6,2.5a148,148,0,0,0,73.8-34.7l.2-2.6,9.5-17.2-4.6-3.2Zm36.6-138.9-3.9-6.7-4.9-7.7-1.4-10.6,6.3,1.1.4-3.5-4.6-.4,3.9-1.8,4.2-2.4v-3.5l-4.2-5.7-.9-7.5a148.2,148.2,0,0,0-173.9-42.2l8.1,5.8-4.9,6.3-6.7,1.4-.7,9.5-2.8,1.1-3.5,3.8.3,6.4,6,.7-2.5,5.9h6l10.2-13,1.1-5.6,9.8-.7,2.5-4.2,10.2-1.1,1-5.9,7.4-.4s5.3-2.8,6.3-2.8,6,1.7,6,1.7l5.3,4.3h7.4l6.3-3.9,8.1.7a8.7,8.7,0,0,0,3.9,1.4c1.7,0,7-2.5,7-2.5l10.2,6.4,4.2,3.1v5.3l5.3.7,1.8-3.1,4.5,2.1-.3,2.8-10.6,2.8,6,7.7,12.7,7.1,5.2,7,7.8.7,1.7-3.5,2.8-.7-9.1-7.1-5.6-.7,4.5-1.4-4.2-5.9,6-.4,7.7,4.2,1.8,8.5,3.9,4.5,3.1,10.2,7.8,5.7v11.6l8.1,5.2-.4,3.9-1,4.6,2.1,6.3.7,3.2,5.9,1,2.9-5.9Zm4.6-35.4v2l-1.8,5.6,1.1,4.9,3.9,1.4v6.7l-4.3-1.7-1,18.9-4.2,7.8,2.8,9.8,4.5,4.3v18.9l4.6,14.8,4.9,11.3,8.1,2.1,2.8-7.1,1.2-.9a158.2,158.2,0,0,0,1.1-18.4A147.3,147.3,0,0,0,363,177.9Zm-81.2-2.2-23.3-10.2-10.2.3-2.4,6.7-4.2-4.6-7.8,1.8-.7,11.6,6.4,4.6,4.5-6.7,5.3,5.2,10.9,9.5,2.1,10.2,9.2,11.6,14.7-2.4L286,208l-3.2-6-.7-14,3.5-6Zm18.9,7.7-5.2-1.4-4.6,3.9,2.5,10.2h4.5Zm32.7,6.7-11.9-6.4-2.5-4.2-2.8,1.1,2.5,7,2.1,9.2,5.3,2.1,1-1.4-3.1-5.3,9.1,3.5ZM230.8,317l-1.4,1.4,10.5,3.2,4.2,4.9,6.7.7,2.5-3.8-8.1-1.4Zm31.3,6.7-7.4,2.1,1,2.8h9.2l1.7-2.8-3.1.4Z" transform="translate(-34.8 -39.8)"/><path class="cls-7" d="M274.5,320.5c-82.2,0-148.9-66.6-148.9-148.8,0-3.8.2-7.6.5-11.3a147.9,147.9,0,0,0-36.8,97.8C89.3,340.4,156,407,238.2,407c78.3,0,142.6-60.6,148.3-137.4A148.2,148.2,0,0,1,274.5,320.5Z" transform="translate(-34.8 -39.8)"/></g><circle class="cls-8" cx="238.6" cy="258.3" r="148.2" transform="translate(-147.6 204.6) rotate(-45)"/></g><g id="Clouds"><path class="cls-9" d="M405.8,210.1a22,22,0,0,0,.4-3.6,17.8,17.8,0,0,0-17.7-17.7,18.2,18.2,0,0,0-8.7,2.3,34.3,34.3,0,0,0-64.2-9.4,31.3,31.3,0,0,0-4.4-.4,25,25,0,0,0-20.7,10.9,17.7,17.7,0,0,0-28.1,14.3,22,22,0,0,0,.4,3.6Z" transform="translate(-34.8 -39.8)"/><path class="cls-9" d="M194.6,178.3a10.1,10.1,0,0,0,.3-2.5,12.2,12.2,0,0,0-18.3-10.7,23.8,23.8,0,0,0-44.6-6.5l-3-.3a17.3,17.3,0,0,0-14.4,7.6,12,12,0,0,0-7.2-2.4,12.3,12.3,0,0,0-12.3,12.3,19.5,19.5,0,0,0,.2,2.5Z" transform="translate(-34.8 -39.8)"/><path class="cls-9" d="M232.7,361.1a12.7,12.7,0,0,0,.3-2.8,13.9,13.9,0,0,0-13.9-13.9,14.1,14.1,0,0,0-6.8,1.8,27,27,0,0,0-50.5-7.4,20.7,20.7,0,0,0-3.5-.3,19.9,19.9,0,0,0-16.3,8.6,13.6,13.6,0,0,0-8.1-2.7A13.9,13.9,0,0,0,120,358.3a24.6,24.6,0,0,0,.2,2.8Z" transform="translate(-34.8 -39.8)"/><path class="cls-9" d="M320.2,245.6a8.1,8.1,0,0,0,.1-1.6,7.9,7.9,0,0,0-7.9-7.9,8.7,8.7,0,0,0-3.9,1,15.4,15.4,0,0,0-28.9-4.2l-1.9-.2a11.3,11.3,0,0,0-9.3,4.9,8.2,8.2,0,0,0-4.7-1.5,7.9,7.9,0,0,0-7.9,7.9,8.1,8.1,0,0,0,.1,1.6Z" transform="translate(-34.8 -39.8)"/><path class="cls-9" d="M276.8,392.3a4.1,4.1,0,0,0,.2-1.6,7.9,7.9,0,0,0-11.8-6.9,15.4,15.4,0,0,0-28.9-4.2l-1.9-.2a11.6,11.6,0,0,0-9.4,4.9,8.1,8.1,0,0,0-4.6-1.5,8,8,0,0,0-8,7.9,7.8,7.8,0,0,0,.2,1.6Z" transform="translate(-34.8 -39.8)"/></g><g id="Airplane"><path class="cls-10" d="M381,217.4c.7,2.5,1.4,5,2,7.6,28.8,14.6,45.2,29.9,42.6,42.6-3.4,17.3-40.5,25.6-93.4,24v16c71.9,4.1,123.3-5.5,127.6-27.3C463.5,261.7,432.3,238.3,381,217.4Z" transform="translate(-34.8 -39.8)"/><path class="cls-2" d="M217.4,260l-53.7-39.6,2.1-3.1-5.7,3.9-.2,4.4,1.9-1.9,27.1,21a5.2,5.2,0,0,0,3.1,3.1l3.3,1.1,17,14.6Z" transform="translate(-34.8 -39.8)"/><polygon class="cls-2" points="293.4 243.3 279 232.1 276.3 231.8 289.3 244 293.4 243.3"/><path class="cls-9" d="M341.6,285.5,231.9,258.4s-11-3.4-20.1,2.2-11.4,6.5-15.5,13.6a15.6,15.6,0,0,0,5.5,21.2c7.8,4.7,60.6,14.4,60.6,14.4s13,7,18.7,8.4,17,2.9,19.3,2.6a29.2,29.2,0,0,0,4.7-1.1l12.6,2.8-4.6,2.3s-11-3.4-15.3,5.4,2.9,14.2,9.8,16.1,11.6.3,13.7-.6,4.7,0,6.6-3.4,2.8-5.1,1.8-6.6l-1.9-2.8a16.3,16.3,0,0,0,3.4-.8,32.1,32.1,0,0,0,4.9-3.5l18.6,6.4s5.3,4.7,8.7,5.1,4.3-.8,4.3-.8l26.1,9.8s2.5,2.7,4.6,3.2a10.7,10.7,0,0,0,4.3-.2l48.5,17,.4,2.8,3.4-6-4.1.9L328.1,320.3s22.7-5.9,34.6-13.3l51.8,16.7-.6-1.9-47.5-18.3s1.8-4.3.5-6.3a29.2,29.2,0,0,0-4.1-4.3L391,241.4l-6.2-1.2-37.7,44.1S345.9,285.1,341.6,285.5Z" transform="translate(-34.8 -39.8)"/><g class="cls-11"><path class="cls-12" d="M336.1,328.6l18.6,6.4s5.3,4.7,8.7,5.1,4.3-.8,4.3-.8l26.1,9.8s2.5,2.7,4.6,3.2a10.7,10.7,0,0,0,4.3-.2l48.5,17,.4,2.8,3.4-6-4.1.9L328.1,320.3s22.7-5.9,34.6-13.3l51.8,16.7-.6-1.9-47.5-18.3s1.8-4.3.5-6.3a29.2,29.2,0,0,0-4.1-4.3L391,241.4l-4.1-.8c-2.3,3-29,39.1-33.1,45.1s-14,5.8-14,5.8-75.2-16.9-86.3-18.3-24.6-3.9-33.8,6.2-8.6,18.8-8.6,18.8l.8.7c17.8,4.9,50.5,10.9,50.5,10.9s13,7,18.7,8.4,17,2.9,19.3,2.6a29.2,29.2,0,0,0,4.7-1.1l12.6,2.8-4.6,2.3s-11-3.4-15.3,5.4,2.9,14.2,9.8,16.1,11.6.3,13.7-.6,4.7,0,6.6-3.4,2.8-5.1,1.8-6.6l-1.9-2.8a16.3,16.3,0,0,0,3.4-.8A32.1,32.1,0,0,0,336.1,328.6Z" transform="translate(-34.8 -39.8)"/></g><path class="cls-8" d="M341.6,285.5,231.9,258.4s-11-3.4-20.1,2.2-11.4,6.5-15.5,13.6a15.6,15.6,0,0,0,5.5,21.2c7.8,4.7,60.6,14.4,60.6,14.4s13,7,18.7,8.4,17,2.9,19.3,2.6a29.2,29.2,0,0,0,4.7-1.1l12.6,2.8-4.6,2.3s-11-3.4-15.3,5.4,2.9,14.2,9.8,16.1,11.6.3,13.7-.6,4.7,0,6.6-3.4,2.8-5.1,1.8-6.6l-1.9-2.8a16.3,16.3,0,0,0,3.4-.8,32.1,32.1,0,0,0,4.9-3.5l18.6,6.4s5.3,4.7,8.7,5.1,4.3-.8,4.3-.8l26.1,9.8s2.5,2.7,4.6,3.2a10.7,10.7,0,0,0,4.3-.2l48.5,17,.4,2.8,3.4-6-4.1.9L328.1,320.3s22.7-5.9,34.6-13.3l51.8,16.7-.6-1.9-47.5-18.3s1.8-4.3.5-6.3a29.2,29.2,0,0,0-4.1-4.3L391,241.4l-6.2-1.2-37.7,44.1S345.9,285.1,341.6,285.5Z" transform="translate(-34.8 -39.8)"/><polygon class="cls-13" points="188.2 231.7 179.9 228.3 176 232.4 176.4 232.7 185.7 236.6 188.2 231.7"/><path class="cls-13" d="M208.3,263.9l-.8-.6c-1.8,1.1-3.2,2-4.4,2.9l.8.9Z" transform="translate(-34.8 -39.8)"/><polygon class="cls-13" points="178.9 227.8 174.3 224.8 169.8 228.2 169.9 228.3 175.1 231.8 178.9 227.8"/><polygon class="cls-13" points="192.5 233.3 189.2 232.1 186.7 237.1 191.9 240.1 193.1 240.5 192.5 233.3"/><path class="cls-13" d="M232,276.7c-.4-2.8-.8-2.3-.8-2.3l-2.7-.9.5,7,2.8.8A10.9,10.9,0,0,0,232,276.7Z" transform="translate(-34.8 -39.8)"/><ellipse class="cls-14" cx="305.9" cy="334.3" rx="8.6" ry="8" transform="translate(-116.1 530) rotate(-78.8)"/><path class="cls-2" d="M362.7,307l-5-1.5a3.2,3.2,0,0,1,1.2-2.7c1.4-.8,7.5.7,7.5.7" transform="translate(-34.8 -39.8)"/><path class="cls-15" d="M304.3,320a159.3,159.3,0,0,1-15.5-5.3c-3.8-1.6-1.9-5.3-1.9-5.3l-14.6-4S247.4,301,222.5,295c-16.6-4-24.7-8.9-28.2-11.7a15.5,15.5,0,0,0,7.5,12.1c7.8,4.7,60.6,14.4,60.6,14.4s13,7,18.7,8.4,17,2.9,19.3,2.6S303.4,320.2,304.3,320Z" transform="translate(-34.8 -39.8)"/><path class="cls-15" d="M337.2,317.6l-27.3-5.3,2.2,1.5,16.2,6.4C329.1,320,332.5,319.1,337.2,317.6Z" transform="translate(-34.8 -39.8)"/><line class="cls-10" x1="315.4" y1="251" x2="310.2" y2="250.1"/><line class="cls-10" x1="327.9" y1="253.1" x2="319" y2="251.6"/></g></svg>