<?xml version="1.0" encoding="utf-8"?>
<!-- Generator: Adobe Illustrator 24.0.2, SVG Export Plug-In . SVG Version: 6.00 Build 0)  -->
<svg version="1.1" id="Layer_1" xmlns="http://www.w3.org/2000/svg" xmlns:xlink="http://www.w3.org/1999/xlink" x="0px" y="0px"
	 viewBox="0 0 405.9 393.9" style="enable-background:new 0 0 405.9 393.9;" xml:space="preserve">
<style type="text/css">
	.st0{fill:#EBF1EF;}
	.st1{fill:#C6FF00;}
	.st2{fill:#263238;}
	.st3{fill:#FFFFFF;stroke:#263238;stroke-width:1.34;stroke-miterlimit:10;}
	.st4{fill:#067FC8;}
	.st5{fill:#324349;}
	.st6{fill:#FFFFFF;stroke:#263238;stroke-miterlimit:10;}
	.st7{fill:#FFFFFF;stroke:#263238;stroke-linejoin:round;}
	.st8{fill:#FFFFFF;}
	.st9{clip-path:url(#SVGID_2_);}
	.st10{fill:none;stroke:#263238;stroke-miterlimit:10;}
	.st11{clip-path:url(#SVGID_4_);}
	.st12{opacity:0.5;fill:#067FC8;enable-background:new    ;}
	.st13{fill:none;stroke:#263238;stroke-linejoin:round;}
	.st14{clip-path:url(#SVGID_6_);}
	.st15{clip-path:url(#SVGID_8_);}
	.st16{fill:none;stroke:#263238;stroke-linecap:round;stroke-miterlimit:10;}
	.st17{fill:none;stroke:#FFFFFF;stroke-width:0.5;stroke-linecap:round;stroke-linejoin:round;}
	.st18{fill:#C6FF00;stroke:#263238;stroke-miterlimit:10;}
	.st19{fill:#076DA0;}
	.st20{clip-path:url(#SVGID_10_);}
</style>
<title>آدم_صفحه_لاگین</title>
<g>
	<g id="Background_simple">
		<path class="st0" d="M364.3,59.2c-24.9-56.8-84.6-78.1-131.7-40.1c-18.4,14.9-29.9,38.6-52.4,48c-22.5,9.4-47.9,6.3-70.8,11.1
			C60.7,88.5-4.8,127.2,0.2,186.8c2.2,26.1,19.9,55.2,28.6,79.6c10,28.1,16,63.3,42.4,80.1c45.4,28.9,100.2,5.3,141.1-18
			c22-12.5,34.1-20.2,57.8-15.9c21.9,4,41.7,18,63.1,1.4c16.1-12.5,17.4-37.8,30.9-52.6c15.2-16.7,30.7-17.9,38.6-43.1
			c9.6-30.4-4.6-49.5-14.1-76.7S376,85.9,364.3,59.2z"/>
	</g>
	<g id="Shadow">
		<ellipse class="st1" cx="175" cy="384.3" rx="154.6" ry="9.6"/>
		<ellipse class="st0" cx="175" cy="384.3" rx="154.6" ry="9.6"/>
	</g>
	<g id="Device">
		<path class="st2" d="M135.7,18.1h155.5c10.7,0,19.4,8.7,19.4,19.4v328.2c0,10.7-8.7,19.4-19.4,19.4H135.7
			c-10.7,0-19.4-8.7-19.4-19.4V37.5C116.3,26.8,125,18.1,135.7,18.1z"/>
		<rect x="125" y="58.4" class="st3" width="177" height="286.4"/>
		<circle class="st4" cx="213.5" cy="147.2" r="38.4"/>
		<path class="st4" d="M263.8,326.7H163.1c-0.9,0.1-1.6-0.6-1.7-1.5c0-0.1,0-0.1,0-0.2l0,0c0-0.9,0.8-1.7,1.7-1.7c0,0,0,0,0,0h100.7
			c0.9,0,1.7,0.8,1.7,1.7v0l0,0c0.1,0.9-0.6,1.6-1.5,1.7C263.9,326.7,263.9,326.7,263.8,326.7z"/>
		<path class="st4" d="M159.8,207.2h107.3c2.2,0,4,1.8,4,4v12.7c0,2.2-1.8,4-4,4H159.8c-2.2,0-4-1.8-4-4v-12.7
			C155.8,209,157.6,207.2,159.8,207.2z"/>
		<path class="st4" d="M159.8,245.8h107.3c2.2,0,4,1.8,4,4v12.7c0,2.2-1.8,4-4,4H159.8c-2.2,0-4-1.8-4-4v-12.7
			C155.8,247.6,157.6,245.8,159.8,245.8z"/>
		<path class="st2" d="M232.6,166.3l-11.3-6.5v-5.3c1.6-2,2.8-4.3,3.4-6.8l1.3,0.2c1.4,0,2.2-4.3,2.4-7.4s-0.6-5.5-0.6-5.5
			s0.9-0.9,1.5-4.6s-2.1-2.2-4.3-5.5s-3.7-7.1-10.7-7.1c-4-0.2-7.6,2.1-9.2,5.8c-1.8,0-3.6,0.2-5.3,0.6c-2.1,0.7-2.7,7.7-0.9,10.5
			c0.8,1.5,1.3,3.2,1.3,4.9c-0.5-0.6-1-0.7-1.3,0.6c-0.6,3.1,1.9,7.4,1.9,7.4l1.2-0.4c0.6,2.7,1.9,5.2,3.6,7.3v5.3l-11.2,6.5
			c-2.7,1.6-4.4,4.5-4.4,7.6v3.7c13.8,10.7,33.1,10.7,46.9,0v-3.7C236.9,170.8,235.2,167.9,232.6,166.3z"/>
		<path class="st2" d="M170.4,261.3c-0.6,0-1-0.4-1-1c0-0.2,0-0.3,0.1-0.5l1.8-2.9l-3.5,0.2c-0.3,0-0.5-0.1-0.7-0.3
			c-0.2-0.2-0.2-0.4-0.2-0.7c0-0.2,0-0.4,0.2-0.6c0.2-0.2,0.4-0.3,0.7-0.3h3.5l-1.8-2.9c-0.1-0.1-0.1-0.3-0.1-0.5c0-0.6,0.4-1,1-1
			c0.4,0,0.7,0.3,0.8,0.6l1.7,3l1.7-3c0.1-0.3,0.4-0.6,0.8-0.6c0.6,0.1,1,0.6,1,1.2c0,0.1,0,0.2-0.1,0.3l-1.8,2.9h3.5
			c0.3,0,0.5,0.1,0.7,0.3c0.2,0.1,0.2,0.4,0.2,0.6c0,0.3,0,0.5-0.2,0.7c-0.2,0.2-0.4,0.3-0.7,0.3l-3.6-0.2l1.8,2.9
			c0.2,0.4,0.1,0.9-0.2,1.2c-0.2,0.2-0.4,0.3-0.6,0.3c-0.4,0.1-0.7-0.2-0.8-0.5l-1.7-3l-1.7,3C171.1,261.1,170.7,261.3,170.4,261.3z
			"/>
		<path class="st2" d="M186.6,261.3c-0.3,0-0.5-0.1-0.7-0.3c-0.2-0.2-0.3-0.4-0.3-0.7c0-0.2,0.1-0.3,0.2-0.5l1.8-2.9l-3.5,0.2
			c-0.3,0-0.6-0.1-0.8-0.3c-0.1-0.2-0.2-0.5-0.2-0.7c0-0.2,0.1-0.4,0.2-0.6c0.2-0.2,0.5-0.3,0.8-0.3h3.4l-1.8-2.9
			c-0.1-0.1-0.1-0.3-0.1-0.5c0-0.6,0.4-1,1-1c0.4,0,0.7,0.3,0.8,0.6l1.7,3l1.7-3c0.2-0.4,0.5-0.6,0.9-0.6c0.2,0,0.5,0.1,0.6,0.3
			c0.3,0.3,0.4,0.8,0.2,1.2l-1.8,2.9h3.5c0.3,0,0.5,0.1,0.7,0.3c0.2,0.1,0.3,0.4,0.3,0.6c0,0.6-0.4,1-1,1l-3.5-0.2l1.7,2.9
			c0.1,0.2,0.2,0.3,0.2,0.5c0,0.3-0.1,0.5-0.3,0.7c-0.2,0.2-0.4,0.3-0.7,0.3c-0.4,0.1-0.7-0.2-0.8-0.5l-1.7-3l-1.7,3
			C187.3,261.1,187,261.4,186.6,261.3z"/>
		<path class="st2" d="M202.8,261.3c-0.2,0-0.4-0.1-0.6-0.3c-0.2-0.1-0.4-0.4-0.4-0.7c0-0.2,0.1-0.3,0.2-0.5l1.8-2.9l-3.5,0.2
			c-0.3,0-0.5-0.1-0.7-0.3c-0.2-0.2-0.3-0.4-0.3-0.7c0-0.2,0.1-0.4,0.3-0.6c0.2-0.2,0.4-0.3,0.7-0.3h3.4l-1.7-2.9
			c-0.1-0.1-0.2-0.3-0.2-0.5c0-0.3,0.1-0.5,0.3-0.7c0.2-0.2,0.4-0.3,0.7-0.3c0.4,0,0.6,0.2,0.8,0.6l1.7,3l1.7-3
			c0.3-0.4,0.5-0.6,0.9-0.6c0.3,0,0.5,0.1,0.7,0.3c0.2,0.2,0.2,0.4,0.2,0.7c0,0.2,0,0.3-0.1,0.5l-1.8,2.9h3.5c0.3,0,0.5,0.1,0.7,0.3
			c0.2,0.1,0.3,0.4,0.3,0.6c0,0.3-0.1,0.5-0.3,0.7c-0.2,0.2-0.4,0.3-0.7,0.3l-3.5-0.2l1.7,2.9c0.1,0.2,0.2,0.3,0.2,0.5
			c0,0.3-0.1,0.5-0.3,0.7c-0.2,0.2-0.4,0.3-0.7,0.3c-0.3,0-0.7-0.2-0.8-0.5l-1.7-3l-1.6,3C203.5,261.1,203.2,261.3,202.8,261.3z"/>
		<path class="st2" d="M219.1,261.3c-0.6,0-1-0.4-1-1c0-0.2,0-0.3,0.1-0.5l1.8-2.9l-3.5,0.2c-0.6,0-1-0.4-1-1c0-0.2,0.1-0.4,0.3-0.6
			c0.2-0.2,0.4-0.3,0.7-0.3h3.5l-1.8-2.9c-0.1-0.1-0.2-0.3-0.2-0.5c0-0.3,0.1-0.5,0.3-0.7c0.2-0.2,0.4-0.3,0.7-0.3
			c0.4,0,0.6,0.2,0.8,0.6l1.8,3l1.6-3c0.2-0.3,0.5-0.6,0.9-0.6c0.6,0,1,0.4,1,1c0,0.2-0.1,0.3-0.2,0.5l-1.8,2.9h3.5
			c0.3,0,0.6,0.1,0.8,0.3c0.1,0.2,0.2,0.4,0.2,0.6c0,0.2-0.1,0.5-0.2,0.7c-0.2,0.2-0.5,0.3-0.8,0.3l-3.5-0.2l1.8,2.9
			c0.3,0.5,0.1,1.1-0.4,1.4c-0.2,0.1-0.3,0.1-0.5,0.1c-0.3,0-0.7-0.2-0.8-0.5l-1.6-3l-1.7,3C219.8,261.1,219.4,261.3,219.1,261.3z"
			/>
		<path class="st2" d="M235.3,261.3c-0.6,0-1-0.4-1-1c0-0.2,0-0.3,0.1-0.5l1.8-2.9l-3.5,0.2c-0.6,0-1-0.4-1-1c0-0.2,0.1-0.4,0.3-0.6
			c0.2-0.2,0.4-0.3,0.7-0.3h3.5l-1.8-2.9c-0.1-0.1-0.1-0.3-0.1-0.5c0-0.6,0.4-1,1-1c0.4,0,0.7,0.3,0.8,0.6l1.7,3l1.7-3
			c0.1-0.3,0.4-0.6,0.8-0.6c0.6,0,1,0.4,1,1c0,0.2-0.1,0.3-0.1,0.5l-1.9,2.9h3.6c0.3,0,0.5,0.1,0.7,0.3c0.1,0.2,0.2,0.4,0.2,0.6
			c0,0.2-0.1,0.5-0.2,0.7c-0.2,0.2-0.4,0.3-0.7,0.3l-3.6-0.2l1.8,2.9c0.3,0.5,0.1,1.1-0.4,1.4c-0.2,0.1-0.3,0.1-0.5,0.1
			c-0.3,0-0.7-0.2-0.8-0.5l-1.6-3l-1.7,3C236,261.1,235.6,261.3,235.3,261.3z"/>
		<path class="st2" d="M251.5,261.3c-0.3,0-0.5-0.1-0.7-0.3c-0.2-0.2-0.3-0.4-0.3-0.7c0-0.2,0.1-0.3,0.2-0.5l1.8-2.9l-3.5,0.2
			c-0.3,0-0.6-0.1-0.8-0.3c-0.1-0.2-0.2-0.5-0.2-0.7c0-0.2,0.1-0.4,0.2-0.6c0.2-0.2,0.5-0.3,0.8-0.3h3.4l-1.8-2.9
			c-0.1-0.1-0.1-0.3-0.1-0.5c0-0.6,0.4-1,1-1c0.4,0,0.7,0.3,0.8,0.6l1.7,3l1.7-3c0.2-0.4,0.5-0.6,0.9-0.6c0.2,0,0.4,0.1,0.6,0.3
			c0.3,0.3,0.4,0.8,0.2,1.2l-1.8,2.9h3.5c0.3,0,0.5,0.1,0.7,0.3c0.2,0.1,0.3,0.4,0.3,0.6c0,0.6-0.4,1-1,1l-3.5-0.2l1.7,2.9
			c0.1,0.2,0.2,0.3,0.2,0.5c0,0.3-0.2,0.5-0.4,0.7c-0.2,0.2-0.4,0.3-0.6,0.3c-0.4,0.1-0.7-0.2-0.8-0.5l-1.7-3l-1.7,3
			C252.2,261.1,251.9,261.4,251.5,261.3z"/>
		<rect x="125" y="58.8" class="st4" width="177" height="11.1"/>
		<path class="st4" d="M232.7,38.3h-38.5c-1.4,0-2.6-1.2-2.6-2.6c0,0,0,0,0,0l0,0c0-1.4,1.2-2.6,2.6-2.6l0,0h38.5
			c1.4,0,2.6,1.2,2.6,2.6c0,0,0,0,0,0l0,0C235.3,37.1,234.1,38.3,232.7,38.3L232.7,38.3z"/>
		<path class="st4" d="M224,360.9c0-5.8-4.7-10.5-10.5-10.5c-5.8,0-10.5,4.7-10.5,10.5s4.7,10.5,10.5,10.5l0,0
			C219.3,371.4,224,366.7,224,360.9z"/>
		<rect x="208.2" y="355.6" class="st2" width="10.6" height="10.6"/>
	</g>
	<g id="Plant">
		<path class="st4" d="M340.2,240.2c0,0-14-35.4-1.5-39.6s12.3,19,11.8,30.4c-1.1,24.3-3.7,28.9-5.8,22.9L340.2,240.2z M336,267.8
			c3.8,5,4.9-0.1-2-23.5c-3.3-11-10.3-33.3-21.1-24.9c-10.8,8.4,14.3,37,14.3,37L336,267.8z M328.6,288.1c3.6,3.3,3.7-0.8-5-17.7
			c-4-7.9-12.6-23.9-19.7-16c-7.1,7.9,16.3,26.2,16.3,26.2L328.6,288.1z M320.6,312.3c3.7,3.2,3.7-0.9-4.9-17.8
			c-4.1-7.9-12.7-23.9-19.8-15.9s16.3,26.2,16.3,26.2L320.6,312.3z M343.7,263.1c-5.8,2.3-1.2,4.8,23.2,4.7
			c11.4,0,34.8-0.5,29.8-13.2c-5-12.7-39.5,3.3-39.5,3.3L343.7,263.1z M337.1,279.4c-6.2,1.1-2.1,4.4,21.8,9.2
			c11.2,2.2,34.2,6.4,31.8-7s-39.4-4.6-39.4-4.6L337.1,279.4z M329.6,299.2c-5.2,0.8-1.9,3.7,18.2,8.3c9.5,2.2,28.8,6.2,27.1-5.2
			s-33.2-4.8-33.2-4.8L329.6,299.2z M324,317.6c-5.2,1.3-1.5,3.9,19,6.3c9.6,1.2,29.2,3.1,26.4-8s-33.6-1.3-33.6-1.3L324,317.6z
			 M354.1,243.2c-3,6.7,3.2,5.7,24.4-12.8c9.9-8.7,29.8-26.8,14.1-35.8s-31.4,33.2-31.4,33.2L354.1,243.2z M324.8,341.5
			c-3.2,1.8-0.1,2.6,14.4-0.3c6.9-1.4,20.7-4.4,16-10.3s-23.1,6.3-23.1,6.3L324.8,341.5z"/>
		<path class="st1" d="M346.3,256.7l-2.4-40.4 M338.7,270l-15.4-34.7 M378.3,259.9l-36.8,5.3 M330.7,288.8l-19.9-25.6 M334.2,280.9
			l27.4,1.4 M327.7,300.5l21,2.1 M322.6,313l-10.4-15.7 M321.5,318.5l24.7,0.3 M316.5,364.9c0.3-0.1,0.5-0.4,0.6-0.7
			c-1.6-23.6,7.5-62.2,22.1-93.9c9.4-20.3,46-60.1,46.4-60.5s0.2-0.6,0-0.9c-0.2-0.2-0.6-0.2-0.8,0c0,0,0,0-0.1,0.1
			c-0.4,0.4-37.2,40.3-46.6,60.8c-14.9,32.3-23.9,70.3-22.3,94.5C315.8,364.6,316.1,364.9,316.5,364.9L316.5,364.9L316.5,364.9z
			 M346.4,257.3c0.3,0,0.6-0.3,0.6-0.6l0,0l-2.5-40.5c0-0.3-0.3-0.6-0.6-0.6l0,0c-0.3,0.1-0.6,0.3-0.6,0.7l2.4,40.4
			c0,0.3,0.3,0.6,0.6,0.6l0,0H346.4z M338.9,270.6c0.3-0.1,0.4-0.5,0.3-0.8c0,0,0,0,0,0L323.9,235c-0.2-0.3-0.6-0.4-0.9-0.3
			c-0.3,0.1-0.4,0.5-0.3,0.8c0,0,0,0,0,0l15.4,34.8c0.1,0.2,0.3,0.4,0.6,0.4L338.9,270.6z M341.6,265.8l36.8-5.3
			c0.3,0,0.5-0.2,0.5-0.5c0-0.1,0-0.2,0-0.2c0-0.3-0.4-0.5-0.7-0.5l-36.8,5.3c-0.3,0-0.5,0.2-0.5,0.5c0,0.1,0,0.2,0,0.2
			c0,0.3,0.3,0.5,0.6,0.5H341.6z M331.1,289.3c0.3-0.2,0.3-0.6,0.2-0.8c0,0,0,0-0.1-0.1l-19.9-25.6c-0.2-0.3-0.6-0.3-0.8-0.2
			c0,0,0,0-0.1,0.1c-0.2,0.1-0.3,0.4-0.2,0.7c0,0,0.1,0.1,0.1,0.1l19.9,25.7l0.5,0.2L331.1,289.3z M362.2,282.3
			c0.1-0.3-0.1-0.5-0.4-0.6c0,0-0.1,0-0.1,0l-27.5-1.4c-0.4,0-0.6,0.3-0.7,0.6c0.1,0.3,0.3,0.6,0.6,0.7l27.5,1.3l0,0
			c0.3,0.1,0.5-0.1,0.6-0.4C362.2,282.5,362.2,282.4,362.2,282.3z M349.3,302.7c0.1-0.3,0-0.5-0.3-0.7c-0.1,0-0.2,0-0.2,0l-21-2.1
			c-0.4,0-0.7,0.2-0.7,0.6s0.2,0.6,0.5,0.7l21,2h0.1C349,303.2,349.3,303,349.3,302.7z M323,313.5c0.2-0.1,0.3-0.4,0.2-0.7
			c0,0-0.1-0.1-0.1-0.1L312.8,297c-0.3-0.2-0.8-0.2-1,0.2c-0.1,0.2-0.2,0.4-0.1,0.5l10.4,15.6c0.1,0.2,0.3,0.3,0.5,0.3L323,313.5z
			 M346.8,318.8c0-0.4-0.3-0.6-0.6-0.7l-24.7-0.2l0,0c-0.4,0-0.6,0.3-0.7,0.6c0,0.4,0.3,0.7,0.7,0.7h0l24.7,0.2l0,0
			C346.5,319.4,346.8,319.1,346.8,318.8L346.8,318.8z M313.7,355.7c0-0.1,4.2-11.7,16.9-14.5c0.3-0.1,0.5-0.4,0.5-0.7
			c-0.1-0.3-0.4-0.6-0.8-0.5c-13.3,2.9-17.8,15.2-17.8,15.3c-0.1,0.3,0,0.7,0.3,0.8c0,0,0,0,0.1,0h0.2
			C313.4,356.1,313.6,356,313.7,355.7L313.7,355.7z M316.5,364.9c0.3-0.1,0.5-0.4,0.6-0.7c-1.6-23.6,7.5-62.2,22.1-93.9
			c9.4-20.3,46-60.1,46.4-60.5s0.2-0.6,0-0.9c-0.2-0.2-0.6-0.2-0.8,0c0,0,0,0-0.1,0.1c-0.4,0.4-37.2,40.3-46.6,60.8
			c-14.9,32.3-23.9,70.3-22.3,94.5C315.8,364.6,316.1,364.9,316.5,364.9L316.5,364.9L316.5,364.9z M346.4,257.3
			c0.3,0,0.6-0.3,0.6-0.6l0,0l-2.5-40.5c0-0.3-0.3-0.6-0.6-0.6l0,0c-0.3,0.1-0.6,0.3-0.6,0.7l2.4,40.4c0,0.3,0.3,0.6,0.6,0.6l0,0
			L346.4,257.3z M338.9,270.6c0.3-0.1,0.4-0.5,0.3-0.8c0,0,0,0,0,0L323.9,235c-0.2-0.3-0.6-0.4-0.9-0.3c-0.3,0.1-0.4,0.5-0.3,0.8
			c0,0,0,0,0,0l15.4,34.8c0.1,0.2,0.3,0.4,0.6,0.4L338.9,270.6z M341.6,265.8l36.8-5.3c0.3,0,0.5-0.2,0.5-0.5c0-0.1,0-0.2,0-0.2
			c0-0.3-0.4-0.5-0.7-0.5l-36.8,5.3c-0.3,0-0.5,0.2-0.5,0.5c0,0.1,0,0.2,0,0.2c0,0.3,0.3,0.5,0.6,0.5H341.6z M331.1,289.3
			c0.3-0.2,0.3-0.6,0.2-0.8c0,0,0,0-0.1-0.1l-19.9-25.6c-0.2-0.3-0.6-0.3-0.8-0.2c0,0,0,0-0.1,0.1c-0.2,0.1-0.3,0.4-0.2,0.7
			c0,0,0.1,0.1,0.1,0.1l19.9,25.7l0.5,0.2L331.1,289.3z M362.2,282.3c0.1-0.3-0.1-0.5-0.4-0.6c0,0-0.1,0-0.1,0l-27.5-1.4
			c-0.4,0-0.6,0.3-0.7,0.6c0.1,0.3,0.3,0.6,0.6,0.7l27.5,1.3l0,0c0.3,0.1,0.5-0.1,0.6-0.4C362.2,282.5,362.2,282.4,362.2,282.3
			L362.2,282.3z M349.3,302.7c0.1-0.3,0-0.5-0.3-0.7c-0.1,0-0.2,0-0.2,0l-21-2.1c-0.4,0-0.7,0.2-0.7,0.6s0.2,0.6,0.5,0.7l21,2h0.1
			C349,303.2,349.3,303,349.3,302.7L349.3,302.7z M323,313.5c0.2-0.1,0.3-0.4,0.2-0.7c0,0-0.1-0.1-0.1-0.1L312.8,297
			c-0.3-0.2-0.8-0.2-1,0.2c-0.1,0.2-0.2,0.4-0.1,0.5l10.4,15.6c0.1,0.2,0.3,0.3,0.5,0.3L323,313.5z M346.8,318.8
			c0-0.4-0.3-0.6-0.6-0.7l-24.7-0.2l0,0c-0.4,0-0.6,0.3-0.7,0.6c0,0.4,0.3,0.7,0.7,0.7h0l24.7,0.2l0,0
			C346.5,319.4,346.8,319.1,346.8,318.8L346.8,318.8z M313.7,355.7c0-0.1,4.2-11.7,16.9-14.5c0.3-0.1,0.5-0.4,0.5-0.7
			c-0.1-0.3-0.4-0.6-0.8-0.5c-13.3,2.9-17.8,15.2-17.8,15.3c-0.1,0.3,0,0.7,0.3,0.8c0,0,0,0,0.1,0h0.2
			C313.4,356.1,313.6,356,313.7,355.7L313.7,355.7z"/>
		<path class="st2" d="M346.3,256.7l-2.4-40.4 M338.7,270l-15.4-34.7 M378.3,259.9l-36.8,5.3 M330.7,288.8l-19.9-25.6 M334.2,280.9
			l27.4,1.4 M327.7,300.5l21,2.1 M322.6,313l-10.4-15.7 M321.5,318.5l24.7,0.3 M316.5,364.9c0.3-0.1,0.5-0.4,0.6-0.7
			c-1.6-23.6,7.5-62.2,22.1-93.9c9.4-20.3,46-60.1,46.4-60.5s0.2-0.6,0-0.9c-0.2-0.2-0.6-0.2-0.8,0c0,0,0,0-0.1,0.1
			c-0.4,0.4-37.2,40.3-46.6,60.8c-14.9,32.3-23.9,70.3-22.3,94.5C315.8,364.6,316.1,364.9,316.5,364.9L316.5,364.9L316.5,364.9z
			 M346.4,257.3c0.3,0,0.6-0.3,0.6-0.6l0,0l-2.5-40.5c0-0.3-0.3-0.6-0.6-0.6l0,0c-0.3,0.1-0.6,0.3-0.6,0.7l2.4,40.4
			c0,0.3,0.3,0.6,0.6,0.6l0,0H346.4z M338.9,270.6c0.3-0.1,0.4-0.5,0.3-0.8c0,0,0,0,0,0L323.9,235c-0.2-0.3-0.6-0.4-0.9-0.3
			c-0.3,0.1-0.4,0.5-0.3,0.8c0,0,0,0,0,0l15.4,34.8c0.1,0.2,0.3,0.4,0.6,0.4L338.9,270.6z M341.6,265.8l36.8-5.3
			c0.3,0,0.5-0.2,0.5-0.5c0-0.1,0-0.2,0-0.2c0-0.3-0.4-0.5-0.7-0.5l-36.8,5.3c-0.3,0-0.5,0.2-0.5,0.5c0,0.1,0,0.2,0,0.2
			c0,0.3,0.3,0.5,0.6,0.5H341.6z M331.1,289.3c0.3-0.2,0.3-0.6,0.2-0.8c0,0,0,0-0.1-0.1l-19.9-25.6c-0.2-0.3-0.6-0.3-0.8-0.2
			c0,0,0,0-0.1,0.1c-0.2,0.1-0.3,0.4-0.2,0.7c0,0,0.1,0.1,0.1,0.1l19.9,25.7l0.5,0.2L331.1,289.3z M362.2,282.3
			c0.1-0.3-0.1-0.5-0.4-0.6c0,0-0.1,0-0.1,0l-27.5-1.4c-0.4,0-0.6,0.3-0.7,0.6c0.1,0.3,0.3,0.6,0.6,0.7l27.5,1.3l0,0
			c0.3,0.1,0.5-0.1,0.6-0.4C362.2,282.5,362.2,282.4,362.2,282.3z M349.3,302.7c0.1-0.3,0-0.5-0.3-0.7c-0.1,0-0.2,0-0.2,0l-21-2.1
			c-0.4,0-0.7,0.2-0.7,0.6s0.2,0.6,0.5,0.7l21,2h0.1C349,303.2,349.3,303,349.3,302.7z M323,313.5c0.2-0.1,0.3-0.4,0.2-0.7
			c0,0-0.1-0.1-0.1-0.1L312.8,297c-0.3-0.2-0.8-0.2-1,0.2c-0.1,0.2-0.2,0.4-0.1,0.5l10.4,15.6c0.1,0.2,0.3,0.3,0.5,0.3L323,313.5z
			 M346.8,318.8c0-0.4-0.3-0.6-0.6-0.7l-24.7-0.2l0,0c-0.4,0-0.6,0.3-0.7,0.6c0,0.4,0.3,0.7,0.7,0.7h0l24.7,0.2l0,0
			C346.5,319.4,346.8,319.1,346.8,318.8L346.8,318.8z M313.7,355.7c0-0.1,4.2-11.7,16.9-14.5c0.3-0.1,0.5-0.4,0.5-0.7
			c-0.1-0.3-0.4-0.6-0.8-0.5c-13.3,2.9-17.8,15.2-17.8,15.3c-0.1,0.3,0,0.7,0.3,0.8c0,0,0,0,0.1,0h0.2
			C313.4,356.1,313.6,356,313.7,355.7L313.7,355.7z M316.5,364.9c0.3-0.1,0.5-0.4,0.6-0.7c-1.6-23.6,7.5-62.2,22.1-93.9
			c9.4-20.3,46-60.1,46.4-60.5s0.2-0.6,0-0.9c-0.2-0.2-0.6-0.2-0.8,0c0,0,0,0-0.1,0.1c-0.4,0.4-37.2,40.3-46.6,60.8
			c-14.9,32.3-23.9,70.3-22.3,94.5C315.8,364.6,316.1,364.9,316.5,364.9L316.5,364.9L316.5,364.9z M346.4,257.3
			c0.3,0,0.6-0.3,0.6-0.6l0,0l-2.5-40.5c0-0.3-0.3-0.6-0.6-0.6l0,0c-0.3,0.1-0.6,0.3-0.6,0.7l2.4,40.4c0,0.3,0.3,0.6,0.6,0.6l0,0
			L346.4,257.3z M338.9,270.6c0.3-0.1,0.4-0.5,0.3-0.8c0,0,0,0,0,0L323.9,235c-0.2-0.3-0.6-0.4-0.9-0.3c-0.3,0.1-0.4,0.5-0.3,0.8
			c0,0,0,0,0,0l15.4,34.8c0.1,0.2,0.3,0.4,0.6,0.4L338.9,270.6z M341.6,265.8l36.8-5.3c0.3,0,0.5-0.2,0.5-0.5c0-0.1,0-0.2,0-0.2
			c0-0.3-0.4-0.5-0.7-0.5l-36.8,5.3c-0.3,0-0.5,0.2-0.5,0.5c0,0.1,0,0.2,0,0.2c0,0.3,0.3,0.5,0.6,0.5H341.6z M331.1,289.3
			c0.3-0.2,0.3-0.6,0.2-0.8c0,0,0,0-0.1-0.1l-19.9-25.6c-0.2-0.3-0.6-0.3-0.8-0.2c0,0,0,0-0.1,0.1c-0.2,0.1-0.3,0.4-0.2,0.7
			c0,0,0.1,0.1,0.1,0.1l19.9,25.7l0.5,0.2L331.1,289.3z M362.2,282.3c0.1-0.3-0.1-0.5-0.4-0.6c0,0-0.1,0-0.1,0l-27.5-1.4
			c-0.4,0-0.6,0.3-0.7,0.6c0.1,0.3,0.3,0.6,0.6,0.7l27.5,1.3l0,0c0.3,0.1,0.5-0.1,0.6-0.4C362.2,282.5,362.2,282.4,362.2,282.3
			L362.2,282.3z M349.3,302.7c0.1-0.3,0-0.5-0.3-0.7c-0.1,0-0.2,0-0.2,0l-21-2.1c-0.4,0-0.7,0.2-0.7,0.6s0.2,0.6,0.5,0.7l21,2h0.1
			C349,303.2,349.3,303,349.3,302.7L349.3,302.7z M323,313.5c0.2-0.1,0.3-0.4,0.2-0.7c0,0-0.1-0.1-0.1-0.1L312.8,297
			c-0.3-0.2-0.8-0.2-1,0.2c-0.1,0.2-0.2,0.4-0.1,0.5l10.4,15.6c0.1,0.2,0.3,0.3,0.5,0.3L323,313.5z M346.8,318.8
			c0-0.4-0.3-0.6-0.6-0.7l-24.7-0.2l0,0c-0.4,0-0.6,0.3-0.7,0.6c0,0.4,0.3,0.7,0.7,0.7h0l24.7,0.2l0,0
			C346.5,319.4,346.8,319.1,346.8,318.8L346.8,318.8z M313.7,355.7c0-0.1,4.2-11.7,16.9-14.5c0.3-0.1,0.5-0.4,0.5-0.7
			c-0.1-0.3-0.4-0.6-0.8-0.5c-13.3,2.9-17.8,15.2-17.8,15.3c-0.1,0.3,0,0.7,0.3,0.8c0,0,0,0,0.1,0h0.2
			C313.4,356.1,313.6,356,313.7,355.7L313.7,355.7z"/>
		<polygon class="st5" points="332.8,347.3 304.5,347.3 304.5,353.1 307,353.1 312.1,385.1 325.2,385.1 330.3,353.1 332.8,353.1 		
			"/>
	</g>
	<g id="Character">
		<polygon class="st6" points="77.9,170.1 45,159.3 42.1,151.6 35.4,151.4 23.2,149.1 24.7,151.6 40,162.7 43.7,164.5 78.2,182.5 		
			"/>
		<polygon class="st7" points="42.1,151.6 38.9,149.7 32.6,152 33.7,153.2 		"/>
		<polygon class="st8" points="77.9,170.1 45,159.3 42.1,151.6 35.4,151.4 23.2,149.1 24.7,151.6 40,162.7 43.7,164.5 78.2,182.5 		
			"/>
		<g>
			<defs>
				<polygon id="SVGID_1_" points="77.9,170 45,159.3 42,151.5 35.3,151.3 23.2,149 24.7,151.5 39.9,162.6 43.7,164.5 78.1,182.5 
									"/>
			</defs>
			<clipPath id="SVGID_2_">
				<use xlink:href="#SVGID_1_"  style="overflow:visible;"/>
			</clipPath>
			<g class="st9">
				<polygon class="st0" points="77.9,170.1 45,159.3 42.1,151.6 35.4,151.4 23.2,149.1 24.7,151.6 40,162.7 43.7,164.5 78.2,182.5 
									"/>
			</g>
		</g>
		<polygon class="st10" points="77.9,170.1 45,159.3 42.1,151.6 35.4,151.4 23.2,149.1 24.7,151.6 40,162.7 43.7,164.5 78.2,182.5 
					"/>
		<polygon class="st8" points="42.1,151.6 38.9,149.7 32.6,152 33.7,153.2 		"/>
		<g>
			<defs>
				<polygon id="SVGID_3_" points="42,151.5 38.9,149.7 32.6,152 33.7,153.2 				"/>
			</defs>
			<clipPath id="SVGID_4_">
				<use xlink:href="#SVGID_3_"  style="overflow:visible;"/>
			</clipPath>
			<g class="st11">
				<polygon class="st12" points="42.1,151.6 38.9,149.7 32.6,152 33.7,153.2 				"/>
			</g>
		</g>
		<polygon class="st13" points="42.1,151.6 38.9,149.7 32.6,152 33.7,153.2 		"/>
		<path class="st8" d="M84.9,100.3c0,0-0.5,4.5,0.7,7.3s8.4,12.7,8.4,12.7l-13.2,10.6c0,0-5.5-11-6.5-12.8s-2.3-9.4,1.1-14.9
			C78.8,97.7,83.7,96.2,84.9,100.3z"/>
		<g>
			<defs>
				<path id="SVGID_5_" d="M84.9,100.3c0,0-0.5,4.5,0.7,7.3s8.4,12.7,8.4,12.7l-13.2,10.6c0,0-5.5-11-6.5-12.8s-2.3-9.4,1.1-14.9
					C78.8,97.7,83.7,96.2,84.9,100.3z"/>
			</defs>
			<clipPath id="SVGID_6_">
				<use xlink:href="#SVGID_5_"  style="overflow:visible;"/>
			</clipPath>
			<g class="st14">
				<polygon class="st0" points="78.1,114.7 83.9,126.6 80.8,130.9 75.1,120.7 				"/>
			</g>
		</g>
		<path class="st10" d="M84.9,100.3c0,0-0.5,4.5,0.7,7.3s8.4,12.7,8.4,12.7l-13.2,10.6c0,0-5.5-11-6.5-12.8s-2.3-9.4,1.1-14.9
			C78.8,97.7,83.7,96.2,84.9,100.3z"/>
		<path class="st8" d="M88.9,92c-0.8-5-6.5-15.2-15.6-14.8c-5.9,0.3-8.6,1.5-11.2,2.9c-2.1,1.3-4,2.7-5.8,4.4
			c-4.4,5.3-6,6.8-5.1,10.8c-0.1,1.6,0.2,3.3,0.7,4.8c0.9,2.7,2.1,5.3,3.5,7.8c-0.4,1.7-1.3,6.1-1.4,7.1s3,0.3,4.6,0
			c2.8,6.3,8.1,10.8,9.7,11.3c1.6,0.5,7.3-3.8,9.7-7.4s0.6-7.7,0.6-9.3s5.4-5.2,7.3-6.3S89.8,97,88.9,92z"/>
		<g>
			<defs>
				<path id="SVGID_7_" d="M88.9,92c-0.8-5-6.5-15.2-15.6-14.8c-5.9,0.3-8.6,1.5-11.2,2.9c-2.1,1.3-4,2.7-5.8,4.4
					c-4.4,5.3-6,6.8-5.1,10.8c-0.1,1.6,0.2,3.3,0.7,4.8c0.9,2.7,2.1,5.3,3.5,7.8c-0.4,1.7-1.3,6.1-1.4,7.1s3,0.3,4.6,0
					c2.8,6.3,8.1,10.8,9.7,11.3c1.6,0.5,7.3-3.8,9.7-7.4s0.6-7.7,0.6-9.3s5.4-5.2,7.3-6.3S89.8,97,88.9,92z"/>
			</defs>
			<clipPath id="SVGID_8_">
				<use xlink:href="#SVGID_7_"  style="overflow:visible;"/>
			</clipPath>
			<g class="st15">
				<path class="st0" d="M51.2,95.3c-0.1,1.6,0.2,3.3,0.7,4.8c0.9,2.7,2.1,5.3,3.5,7.8c-0.4,1.7-1.3,6.1-1.4,7.1s3,0.3,4.6,0
					c2.8,6.3,8.1,10.8,9.7,11.3c1.6,0.5,7.3-3.8,9.7-7.4c0.6-0.9,1-1.9,1.1-3l-0.2-0.8c0,0-1.3,5.2-4,4.5s-6.7-6-9-7.8
					c-2.3-1.8-1.3-4.3-1.8-7c-0.5-2.7-7.1-5.1-7.6-6.7s1.1-8.1,1.1-8.1s2.6-3.4,2-2c-0.7,2.5-0.5,5.1,0.7,7.4c0.8,1.8,2.7,3,4.7,2.9
					l2.5-12.1L62.3,82l-6,2.5C51.9,89.8,50.3,91.3,51.2,95.3z"/>
			</g>
		</g>
		<path class="st10" d="M88.9,92c-0.8-5-6.5-15.2-15.6-14.8c-5.9,0.3-8.6,1.5-11.2,2.9c-2.1,1.3-4,2.7-5.8,4.4
			c-4.4,5.3-6,6.8-5.1,10.8c-0.1,1.6,0.2,3.3,0.7,4.8c0.9,2.7,2.1,5.3,3.5,7.8c-0.4,1.7-1.3,6.1-1.4,7.1s3,0.3,4.6,0
			c2.8,6.3,8.1,10.8,9.7,11.3c1.6,0.5,7.3-3.8,9.7-7.4s0.6-7.7,0.6-9.3s5.4-5.2,7.3-6.3S89.8,97,88.9,92z"/>
		<path class="st16" d="M56.6,104.8l1,2.9c0,0,2.1,0.7,4.7-2.1"/>
		<path class="st16" d="M64,118.2c0,0,2.4-0.2,3.3-3.6"/>
		<path class="st16" d="M54.9,102.5c0,0,0.8-2.2,5.1-2.2"/>
		<path class="st2" d="M76.9,73.3c-3.1-0.5-6.3-0.7-9.4-0.8c0,0-9.4-5.4-18.4,0.4s-4.7,15.9-4.7,18.5s-2.9,2.5-1.1,5.8
			s7.9,1.4,7.9,1.4c0.1-2.5,1.3-4.8,3.2-6.3c3.3-2.6,5.9-3.1,7-2.4s-0.8,5.4,0.3,7.6c0,0,3.7,1.8,4.7,1.8s-0.7,1.6,2.9,2.9
			c1.3,0.5,2.8,0.4,4-0.4c0.5-2.2,1.7-5.6,3.8-4.8s6.1,8.9,1.8,11.6c5.2,0.9,11.4-8.2,11.8-16.5S82.3,74.2,76.9,73.3z"/>
		<path class="st17" d="M61.6,86.4c0,0,2.6-1.5,5.9,1.6s9.6,7.1,18,4.9"/>
		<path class="st17" d="M61.2,83.9c0,0,1.8-2.9,4.9-2.9c3.1,0,10.2,4.3,15.9,4.3"/>
		<path class="st17" d="M59.1,89.4c0,0-3.4-4.3-6.7-0.8s-1.2,6.7-1.2,6.7"/>
		<path class="st17" d="M45.2,92.3c2-1.8,3.2-4.3,3.5-7c0.4-4.5,6.5-8.3,10.4-4.7"/>
		<path class="st17" d="M51.6,75.9c0,0,6.1-5.9,11.2,1.7"/>
		<path class="st6" d="M101.5,367c0,0,3.7,5.9,3.3,9.6l-0.4,3.8c0,0-13.8,3.8-16.8,3.8s-18.4-1.5-18.4-1.5l-0.6-2.6
			c-0.1-0.4,0.1-0.8,0.4-1l13.9-6.5l4.3-4.8L101.5,367z"/>
		<path class="st18" d="M89.7,381.3c3.8,0.2,10.9-2.1,15-3.5l-0.3,2.6c0,0-13.8,3.8-16.8,3.8s-18.4-1.5-18.4-1.5l-0.5-1.9
			C71.1,380.8,84.8,380.9,89.7,381.3z"/>
		<path class="st6" d="M82.9,372.6l-20.2,8.8c0,0-1.7,4.3,0,5.1c1.7,0.8,39.2,0,39.2,0s2.6-6.8-1.5-11.3S82.9,372.6,82.9,372.6z"/>
		<path class="st19" d="M101.9,386.5c0,0-37.4,0.9-39.2,0c-1.8-0.9-0.8-1.6-0.6-2.7h40.5C102.5,384.7,102.3,385.6,101.9,386.5z"/>
		<path class="st19" d="M73.3,220.4c0,0-5.2,23.3-7.2,37.9c-2,14.6-3.2,43.8-2.8,47.1s21.4,59.5,21.4,59.5l2.1,5l14.7-2.9
			c0,0-6.7-21.4-9.3-33.1s-7.9-31-7.9-34.3s13-67.4,13.9-71.6s5.2-10.6,5.2-10.6l-28.1-0.6L73.3,220.4z"/>
		<path class="st4" d="M73.3,220.4c0,0-3,21.3-1.8,36.1c1.2,14.8,4.1,46.3,4.1,51s7.5,32.7,8,41.5c0.7,12.7-0.3,19-0.3,19l-0.4,4.6
			c0,0,8.8,1.3,10.7,1.8c2.2,0.6,4.5,0.9,6.8,0.8c0,0,3.3-14.2,3.3-26.2s-2.7-36.8-4.1-46.9s2.9-48.7,5.3-56s7.6-22.5,4.1-30.3
			S73.3,220.4,73.3,220.4z"/>
		<path class="st2" d="M112.8,211.8l-0.3,9.6l-13.4,2.4c-6.3,1.1-22.2-0.3-27.6-0.8c-1,0-1.8-0.9-1.7-1.9c0,0,0-0.1,0-0.1l0.5-8.6
			L112.8,211.8z"/>
		<path class="st6" d="M90.5,116.9c0,0-8.9,9.8-12.4,15.8s-4.7,15.4-5.9,22.6c-1.2,7.2,2.2,24.5,1.2,32.4l-3.1,24.7
			c0,0-0.6,1.7,1.6,3.6s13,2.5,22.7,3c3.6,0.2,14.2-2.1,16-2.2s2.1-2.8,2.2-5c0.4-9.8,2.2-36.1,3.4-47.6
			C118.6,140.8,105.4,118.3,90.5,116.9z"/>
		<path class="st4" d="M115,177.5c0.4-5.2,0.8-9.9,1.2-13.3c0.1-1,0.2-2,0.2-3l-23.9,4l-20.5-7c-0.1,4.2,0.1,8.5,0.7,12.7l20.1,5.6
			L115,177.5z"/>
		<path class="st4" d="M89.6,117.9c-1.3,1.5-4,4.6-6.6,7.9l15.2,15.4l5-2L89.6,117.9z"/>
		<path class="st4" d="M90.5,116.9c0,0-8.9,9.8-12.4,15.8c-1,1.9-1.8,3.8-2.4,5.8l18.1-20.9C92.7,117.3,91.6,117,90.5,116.9z"/>
		<path class="st4" d="M72.9,151.4l19.6,6.5l23.8-2.8c-0.3-5.9-1.7-11.8-3.9-17.3l-19.2,7.7L76,137.7
			C74.6,142.2,73.5,146.8,72.9,151.4z"/>
		<path class="st4" d="M106.7,202c-10,1.7-20.2,0.8-29.8-2.5l-4.8-1.6l-1.5,12l5.5,1.6c10.4,2.9,21.2,3.7,31.9,2.4l4.4-0.5
			c0.3-0.5,0.4-1,0.4-1.6c0.1-2.6,0.3-6.5,0.6-11L106.7,202z"/>
		<path class="st4" d="M109.3,185.6c-9.9,1.7-20.2,0.9-29.7-2.4l-6.1-2.1c0.1,2.2,0.1,4.4-0.1,6.6l-0.7,5.7l6.1,1.7
			c10.4,2.9,21.2,3.8,31.9,2.5l2.9-0.4c0.3-3.9,0.6-8.2,0.9-12.4L109.3,185.6z"/>
		
			<rect x="25" y="138.3" transform="matrix(0.6266 -0.7793 0.7793 0.6266 -107.8868 76.245)" class="st2" width="1.3" height="24.8"/>
		<path class="st8" d="M99.8,127.7c0,0,7.1,4.9,7.3,16.3c0.1,4.9-0.4,9.7-1.6,17.8s-8.3,34.9-13.8,38.1s-14.2-2.8-14.2-2.8
			l-41.8-27.8l-10.1-8.2l-4.9-9.4l1.5-2.9l12.3,9.4l-6.6-6.1l1.3-1.7l2.4,1.7l7,2.6l1.5,10.1l2.2,1.5l39.9,14.5
			c0,0-0.5-21.5-0.2-25.6s0.9-14.5,5.3-21.9"/>
		<g>
			<defs>
				<path id="SVGID_9_" d="M99.8,127.7c0,0,7.1,4.9,7.3,16.3c0.1,4.9-0.4,9.7-1.6,17.8s-8.3,34.9-13.8,38.1s-14.2-2.8-14.2-2.8
					l-41.8-27.8l-10.1-8.2l-4.9-9.4l1.5-2.9l12.3,9.4l-6.6-6.1l1.3-1.7l2.4,1.7l7,2.6l1.5,10.1l2.2,1.5l39.9,14.5
					c0,0-0.5-21.5-0.2-25.6s0.9-14.5,5.3-21.9"/>
			</defs>
			<clipPath id="SVGID_10_">
				<use xlink:href="#SVGID_9_"  style="overflow:visible;"/>
			</clipPath>
			<g class="st20">
				<path class="st0" d="M81.9,164.5c0.1,7.5,0.3,16.3,0.3,16.3l-39.9-14.5l-2.2-1.5l-1.5-10.1l-7-2.6l-2.4-1.7l-1.3,1.7l6.6,6.1
					l-12.3-9.4l-1.5,2.9l4.9,9.4l10.1,8.2l2.6,1.7l55.1,17.8L81.9,164.5z"/>
			</g>
		</g>
		<path class="st10" d="M99.8,127.7c0,0,7.1,4.9,7.3,16.3c0.1,4.9-0.4,9.7-1.6,17.8s-8.3,34.9-13.8,38.1s-14.2-2.8-14.2-2.8
			l-41.8-27.8l-10.1-8.2l-4.9-9.4l1.5-2.9l12.3,9.4l-6.6-6.1l1.3-1.7l2.4,1.7l7,2.6l1.5,10.1l2.2,1.5l39.9,14.5
			c0,0-0.5-21.5-0.2-25.6s0.9-14.5,5.3-21.9"/>
		<path class="st6" d="M82.2,180.8l15.2,11l4-7c0,0,2.7-2.2,3.1-3.8s-0.1-4.3,0.3-5.9s2.4-3.1,2.6-7s0.1-7.2,0.1-7.2
			s3.3-13.6,2.9-19.5s-6-16.3-10.6-16.5s-10.5,0.4-15.1,7.4s-3.7,27.3-4.4,28.5c-0.7,1.2,0.3,7.6,0.3,7.6c-0.8,0.6-1.3,1.5-1.4,2.5
			c-0.1,1.6,1.6,5.6,1.6,5.6L82.2,180.8z"/>
		<path class="st4" d="M80.7,155.6c0,1.7-0.1,3.5-0.4,5.2c-0.6,1.2,0.1,6.3,0.3,7.4c8.6,2.6,17.6,3.3,26.5,2
			c0.2-0.7,0.3-1.4,0.3-2.1c0.2-3.9,0.1-7.2,0.1-7.2s0.3-1.2,0.7-3.1C99,158.4,89.7,157.7,80.7,155.6z"/>
		<path class="st4" d="M84.1,133.4c-1.5,2.9-2.2,7.2-2.7,11.5c9.1,3.5,18.9,4.7,28.5,3.5c0.4-2.3,0.6-4.7,0.5-7
			c-0.2-1.9-0.6-3.7-1.3-5.4C100.7,136.2,92.3,135.3,84.1,133.4z"/>
		<path class="st2" d="M80.9,176.6l1.3,4.2l15.2,11l4-7c0,0,2.7-2.2,3.1-3.8c0.1-0.3,0.1-0.6,0.1-0.9
			C96.6,180,88.6,178.8,80.9,176.6z"/>
		<path class="st10" d="M91.9,374.3c0,0,0.3-8.7,2-21.3s-2.3-30.7-3-33.7s0.3-9.6-0.3-12c-2.5-7.7-3.2-15.9-2-23.9
			c1.9-11.5,3.4-42.1,3.4-42.1s-4.8-4-6.2-9s-0.3-6.7-0.3-6.7"/>
		<line class="st10" x1="94.2" y1="226" x2="92.3" y2="236.3"/>
	</g>
</g>
</svg>
