<svg xmlns="http://www.w3.org/2000/svg" xmlns:xlink="http://www.w3.org/1999/xlink" viewBox="0 0 405.9 393.9"><defs><style>.cls-1,.cls-12,.cls-2,.cls-3,.cls-8{fill:#fff;}.cls-1,.cls-14,.cls-16,.cls-17,.cls-2,.cls-20,.cls-21,.cls-23,.cls-3,.cls-8{stroke:#263238;}.cls-1,.cls-14,.cls-20,.cls-21,.cls-23,.cls-3,.cls-8{stroke-miterlimit:10;}.cls-1,.cls-14,.cls-16,.cls-17,.cls-2,.cls-23{stroke-width:1px;}.cls-16,.cls-17,.cls-2,.cls-22{stroke-linejoin:round;}.cls-4{isolation:isolate;}.cls-5{fill:#ebf1ef;}.cls-16,.cls-23,.cls-6{fill:#c6ff00;}.cls-7{fill:#263238;}.cls-8{stroke-width:1.34px;}.cls-10,.cls-9{fill:#46a0ae;}.cls-10{mix-blend-mode:multiply;}.cls-11{fill:#324349;}.cls-13{clip-path:url(#clip-path);}.cls-14,.cls-17,.cls-20,.cls-21,.cls-22{fill:none;}.cls-15{clip-path:url(#clip-path-2);}.cls-16{opacity:0.5;}.cls-18{clip-path:url(#clip-path-3);}.cls-19{clip-path:url(#clip-path-4);}.cls-21,.cls-22{stroke-linecap:round;}.cls-22{stroke:#fff;stroke-width:0.5px;}.cls-24{fill:#3c8991;}.cls-25{clip-path:url(#clip-path-5);}</style><clipPath id="clip-path" transform="translate(-44.8 -43.8)"><polygon class="cls-1" points="122.7 213.8 89.8 203.1 86.8 195.3 80.1 195.1 68 192.8 69.5 195.3 84.7 206.4 88.5 208.3 122.9 226.3 122.7 213.8"/></clipPath><clipPath id="clip-path-2" transform="translate(-44.8 -43.8)"><polygon class="cls-2" points="86.8 195.3 83.7 193.5 77.4 195.8 78.5 197 86.8 195.3"/></clipPath><clipPath id="clip-path-3" transform="translate(-44.8 -43.8)"><path class="cls-1" d="M129.7,144.1s-.5,4.5.7,7.3,8.4,12.7,8.4,12.7l-13.2,10.6s-5.5-11-6.5-12.8-2.3-9.4,1.1-14.9S128.5,140,129.7,144.1Z"/></clipPath><clipPath id="clip-path-4" transform="translate(-44.8 -43.8)"><path class="cls-3" d="M133.7,135.8c-.8-5-6.5-15.2-15.6-14.8-5.9.3-8.6,1.5-11.2,2.9a35.4,35.4,0,0,0-5.8,4.4c-4.4,5.3-6,6.8-5.1,10.8a13,13,0,0,0,.7,4.8,40,40,0,0,0,3.5,7.8c-.4,1.7-1.3,6.1-1.4,7.1s3,.3,4.6,0c2.8,6.3,8.1,10.8,9.7,11.3s7.3-3.8,9.7-7.4.6-7.7.6-9.3,5.4-5.2,7.3-6.3S134.6,140.8,133.7,135.8Z"/></clipPath><clipPath id="clip-path-5" transform="translate(-44.8 -43.8)"><path class="cls-1" d="M144.6,171.5s7.1,4.9,7.3,16.3c.1,4.9-.4,9.7-1.6,17.8s-8.3,34.9-13.8,38.1-14.2-2.8-14.2-2.8L80.5,213.1l-10.1-8.2-4.9-9.4,1.5-2.9L79.3,202l-6.6-6.1,1.3-1.7,2.4,1.7,7,2.6,1.5,10.1,2.2,1.5L127,224.6s-.5-21.5-.2-25.6.9-14.5,5.3-21.9"/></clipPath></defs><title>آدم_صفحه_لاگین</title><g class="cls-4"><g id="Background_simple" data-name="Background simple"><path class="cls-5" d="M409.1,103c-24.9-56.8-84.6-78.1-131.7-40.1-18.4,14.9-29.9,38.6-52.4,48s-47.9,6.3-70.8,11.1C105.5,132.3,40,171,45,230.6c2.2,26.1,19.9,55.2,28.6,79.6,10,28.1,16,63.3,42.4,80.1,45.4,28.9,100.2,5.3,141.1-18,22-12.5,34.1-20.2,57.8-15.9,21.9,4,41.7,18,63.1,1.4,16.1-12.5,17.4-37.8,30.9-52.6,15.2-16.7,30.7-17.9,38.6-43.1,9.6-30.4-4.6-49.5-14.1-76.7S420.8,129.7,409.1,103Z" transform="translate(-44.8 -43.8)"/></g><g id="Shadow"><ellipse class="cls-6" cx="175" cy="384.3" rx="154.6" ry="9.6"/><ellipse class="cls-5" cx="175" cy="384.3" rx="154.6" ry="9.6"/></g><g id="Device"><rect class="cls-7" x="116.3" y="18.1" width="194.3" height="367" rx="19.4"/><rect class="cls-8" x="125" y="58.4" width="177" height="286.4"/><circle class="cls-9" cx="258.3" cy="191" r="38.4" transform="translate(-104.2 194.8) rotate(-45)"/><path class="cls-9" d="M308.6,370.5H207.9a1.6,1.6,0,0,1-1.7-1.7h0a1.7,1.7,0,0,1,1.7-1.7H308.6a1.7,1.7,0,0,1,1.7,1.7h0A1.6,1.6,0,0,1,308.6,370.5Z" transform="translate(-44.8 -43.8)"/><rect class="cls-9" x="155.8" y="207.2" width="115.3" height="20.67" rx="4"/><rect class="cls-9" x="155.8" y="245.8" width="115.3" height="20.67" rx="4"/><path class="cls-7" d="M277.4,210.1l-11.3-6.5v-5.3a18.1,18.1,0,0,0,3.4-6.8l1.3.2c1.4,0,2.2-4.3,2.4-7.4s-.6-5.5-.6-5.5.9-.9,1.5-4.6-2.1-2.2-4.3-5.5-3.7-7.1-10.7-7.1a9.6,9.6,0,0,0-9.2,5.8,24.5,24.5,0,0,0-5.3.6c-2.1.7-2.7,7.7-.9,10.5a10.8,10.8,0,0,1,1.3,4.9c-.5-.6-1-.7-1.3.6-.6,3.1,1.9,7.4,1.9,7.4l1.2-.4a17.9,17.9,0,0,0,3.6,7.3v5.3l-11.2,6.5a8.9,8.9,0,0,0-4.4,7.6v3.7a38.4,38.4,0,0,0,46.9,0v-3.7A9,9,0,0,0,277.4,210.1Z" transform="translate(-44.8 -43.8)"/><path class="cls-7" d="M215.2,305.1a1,1,0,0,1-1-1,1.1,1.1,0,0,1,.1-.5l1.8-2.9-3.5.2a.9.9,0,0,1-.7-.3.8.8,0,0,1-.2-.7.7.7,0,0,1,.2-.6.9.9,0,0,1,.7-.3h3.5l-1.8-2.9a.7.7,0,0,1-.1-.5,1,1,0,0,1,1-1,.9.9,0,0,1,.8.6l1.7,3,1.7-3a.9.9,0,0,1,.8-.6,1.1,1.1,0,0,1,.9,1.5l-1.8,2.9h3.5a.9.9,0,0,1,.7.3c.2.1.2.4.2.6a.8.8,0,0,1-.2.7.9.9,0,0,1-.7.3l-3.6-.2,1.8,2.9a1.1,1.1,0,0,1-.2,1.2.9.9,0,0,1-.6.3.7.7,0,0,1-.8-.5l-1.7-3-1.7,3A.8.8,0,0,1,215.2,305.1Z" transform="translate(-44.8 -43.8)"/><path class="cls-7" d="M231.4,305.1a1.1,1.1,0,0,1-.7-.3.9.9,0,0,1-.3-.7,1.7,1.7,0,0,1,.2-.5l1.8-2.9-3.5.2a1.1,1.1,0,0,1-.8-.3,1.4,1.4,0,0,1-.2-.7,1.4,1.4,0,0,1,.2-.6,1.1,1.1,0,0,1,.8-.3h3.4l-1.8-2.9a.7.7,0,0,1-.1-.5,1,1,0,0,1,1-1,.9.9,0,0,1,.8.6l1.7,3,1.7-3a1,1,0,0,1,.9-.6.7.7,0,0,1,.6.3,1.1,1.1,0,0,1,.2,1.2l-1.8,2.9H239a.9.9,0,0,1,.7.3.7.7,0,0,1,.3.6,1,1,0,0,1-1,1l-3.5-.2,1.7,2.9c.1.2.2.3.2.5a.9.9,0,0,1-.3.7,1.1,1.1,0,0,1-.7.3.7.7,0,0,1-.8-.5l-1.7-3-1.7,3A.7.7,0,0,1,231.4,305.1Z" transform="translate(-44.8 -43.8)"/><path class="cls-7" d="M247.6,305.1a.9.9,0,0,1-.6-.3.8.8,0,0,1-.4-.7,1.7,1.7,0,0,1,.2-.5l1.8-2.9-3.5.2a.8.8,0,0,1-.7-.3.9.9,0,0,1-.3-.7.9.9,0,0,1,.3-.6.8.8,0,0,1,.7-.3h3.4l-1.7-2.9a.8.8,0,0,1-.2-.5.9.9,0,0,1,.3-.7,1.1,1.1,0,0,1,.7-.3c.4,0,.6.2.8.6l1.7,3,1.7-3c.3-.4.5-.6.9-.6a1.1,1.1,0,0,1,.7.3.8.8,0,0,1,.2.7.9.9,0,0,1-.1.5l-1.8,2.9h3.5a.8.8,0,0,1,.7.3.7.7,0,0,1,.3.6.9.9,0,0,1-.3.7.8.8,0,0,1-.7.3l-3.5-.2,1.7,2.9c.1.2.2.3.2.5a.9.9,0,0,1-.3.7,1.1,1.1,0,0,1-.7.3.8.8,0,0,1-.8-.5l-1.7-3-1.6,3A.9.9,0,0,1,247.6,305.1Z" transform="translate(-44.8 -43.8)"/><path class="cls-7" d="M263.9,305.1a1,1,0,0,1-1-1,1.1,1.1,0,0,1,.1-.5l1.8-2.9-3.5.2a1,1,0,0,1-1-1,.9.9,0,0,1,.3-.6.9.9,0,0,1,.7-.3h3.5l-1.8-2.9a.8.8,0,0,1-.2-.5.9.9,0,0,1,.3-.7,1.1,1.1,0,0,1,.7-.3c.4,0,.6.2.8.6l1.8,3,1.6-3a1.2,1.2,0,0,1,.9-.6,1,1,0,0,1,1,1c0,.2-.1.3-.2.5l-1.8,2.9h3.5a1.1,1.1,0,0,1,.8.3,1.1,1.1,0,0,1,.2.6,1.4,1.4,0,0,1-.2.7,1.1,1.1,0,0,1-.8.3l-3.5-.2,1.8,2.9a1,1,0,0,1-.9,1.5.8.8,0,0,1-.8-.5l-1.6-3-1.7,3A.8.8,0,0,1,263.9,305.1Z" transform="translate(-44.8 -43.8)"/><path class="cls-7" d="M280.1,305.1a1,1,0,0,1-1-1,1.1,1.1,0,0,1,.1-.5l1.8-2.9-3.5.2a1,1,0,0,1-1-1,.9.9,0,0,1,.3-.6.9.9,0,0,1,.7-.3H281l-1.8-2.9a.7.7,0,0,1-.1-.5,1,1,0,0,1,1-1,.9.9,0,0,1,.8.6l1.7,3,1.7-3a.9.9,0,0,1,.8-.6,1,1,0,0,1,1,1c0,.2-.1.3-.1.5l-1.9,2.9h3.6a.9.9,0,0,1,.7.3,1.1,1.1,0,0,1,.2.6,1.4,1.4,0,0,1-.2.7.9.9,0,0,1-.7.3l-3.6-.2,1.8,2.9a1,1,0,0,1-.9,1.5.8.8,0,0,1-.8-.5l-1.6-3-1.7,3A.8.8,0,0,1,280.1,305.1Z" transform="translate(-44.8 -43.8)"/><path class="cls-7" d="M296.3,305.1a1.1,1.1,0,0,1-.7-.3.9.9,0,0,1-.3-.7,1.7,1.7,0,0,1,.2-.5l1.8-2.9-3.5.2a1,1,0,0,1-.8-.3,1.4,1.4,0,0,1-.2-.7,1.4,1.4,0,0,1,.2-.6,1,1,0,0,1,.8-.3h3.4l-1.8-2.9a.7.7,0,0,1-.1-.5,1,1,0,0,1,1-1,.9.9,0,0,1,.8.6l1.7,3,1.7-3a1,1,0,0,1,.9-.6.9.9,0,0,1,.6.3,1.1,1.1,0,0,1,.2,1.2l-1.8,2.9h3.5a.9.9,0,0,1,.7.3.7.7,0,0,1,.3.6,1,1,0,0,1-1,1l-3.5-.2,1.7,2.9c.1.2.2.3.2.5a1,1,0,0,1-.4.7.9.9,0,0,1-.6.3.7.7,0,0,1-.8-.5l-1.7-3-1.7,3A.7.7,0,0,1,296.3,305.1Z" transform="translate(-44.8 -43.8)"/><rect class="cls-10" x="125" y="58.8" width="177" height="11.09"/><path class="cls-10" d="M277.5,82.1H239a2.6,2.6,0,0,1-2.6-2.6h0a2.6,2.6,0,0,1,2.6-2.6h38.5a2.6,2.6,0,0,1,2.6,2.6h0A2.6,2.6,0,0,1,277.5,82.1Z" transform="translate(-44.8 -43.8)"/><path class="cls-9" d="M268.8,404.7a10.5,10.5,0,1,0-10.5,10.5A10.5,10.5,0,0,0,268.8,404.7Z" transform="translate(-44.8 -43.8)"/><rect class="cls-7" x="208.2" y="355.6" width="10.6" height="10.64"/></g><g id="Plant"><path class="cls-9" d="M385,284s-14-35.4-1.5-39.6,12.3,19,11.8,30.4c-1.1,24.3-3.7,28.9-5.8,22.9Zm-4.2,27.6c3.8,5,4.9-.1-2-23.5-3.3-11-10.3-33.3-21.1-24.9s14.3,37,14.3,37Zm-7.4,20.3c3.6,3.3,3.7-.8-5-17.7-4-7.9-12.6-23.9-19.7-16S365,324.4,365,324.4Zm-8,24.2c3.7,3.2,3.7-.9-4.9-17.8-4.1-7.9-12.7-23.9-19.8-15.9S357,348.6,357,348.6Zm23.1-49.2c-5.8,2.3-1.2,4.8,23.2,4.7,11.4,0,34.8-.5,29.8-13.2s-39.5,3.3-39.5,3.3Zm-6.6,16.3c-6.2,1.1-2.1,4.4,21.8,9.2,11.2,2.2,34.2,6.4,31.8-7s-39.4-4.6-39.4-4.6ZM374.4,343c-5.2.8-1.9,3.7,18.2,8.3,9.5,2.2,28.8,6.2,27.1-5.2s-33.2-4.8-33.2-4.8Zm-5.6,18.4c-5.2,1.3-1.5,3.9,19,6.3,9.6,1.2,29.2,3.1,26.4-8s-33.6-1.3-33.6-1.3ZM398.9,287c-3,6.7,3.2,5.7,24.4-12.8,9.9-8.7,29.8-26.8,14.1-35.8S406,271.6,406,271.6Zm-29.3,98.3c-3.2,1.8-.1,2.6,14.4-.3,6.9-1.4,20.7-4.4,16-10.3s-23.1,6.3-23.1,6.3Z" transform="translate(-44.8 -43.8)"/><path class="cls-6" d="M391.1,300.5l-2.4-40.4m-5.2,53.7-15.4-34.7m55,24.6L386.3,309m-10.8,23.6L355.6,307M379,324.7l27.4,1.4m-33.9,18.2,21,2.1m-26.1,10.4L357,341.1m9.3,21.2,24.7.3m-29.7,46.1a.9.9,0,0,0,.6-.7c-1.6-23.6,7.5-62.2,22.1-93.9,9.4-20.3,46-60.1,46.4-60.5s.2-.6,0-.9a.6.6,0,0,0-.9.1c-.4.4-37.2,40.3-46.6,60.8-14.9,32.3-23.9,70.3-22.3,94.5a.6.6,0,0,0,.6.6Zm29.9-107.6a.6.6,0,0,0,.6-.6L389.3,260a.6.6,0,0,0-.6-.6.7.7,0,0,0-.6.7l2.4,40.4a.6.6,0,0,0,.6.6Zm-7.5,13.3a.6.6,0,0,0,.3-.8l-15.3-34.8a.7.7,0,0,0-.9-.3.6.6,0,0,0-.3.8l15.4,34.8a.7.7,0,0,0,.6.4Zm2.7-4.8,36.8-5.3a.5.5,0,0,0,.5-.7c0-.3-.4-.5-.7-.5l-36.8,5.3a.5.5,0,0,0-.5.7.6.6,0,0,0,.6.5Zm-10.5,23.5a.6.6,0,0,0,.1-.9l-19.9-25.6a.6.6,0,0,0-.9-.1.5.5,0,0,0-.1.8L375,333l.5.2Zm31.1-7a.5.5,0,0,0-.5-.6L379,324.1a.7.7,0,0,0-.7.6.9.9,0,0,0,.6.7l27.5,1.3h0A.5.5,0,0,0,407,326.1Zm-12.9,20.4a.5.5,0,0,0-.5-.7l-21-2.1c-.4,0-.7.2-.7.6s.2.6.5.7l21,2h.1A.6.6,0,0,0,394.1,346.5Zm-26.3,10.8a.5.5,0,0,0,.1-.8l-10.3-15.7a.7.7,0,0,0-1.1.7l10.4,15.6a.5.5,0,0,0,.5.3Zm23.8,5.3a.7.7,0,0,0-.6-.7l-24.7-.2h0a.7.7,0,0,0-.7.6.7.7,0,0,0,.7.7l24.7.2h0A.6.6,0,0,0,391.6,362.6Zm-33.1,36.9c0-.1,4.2-11.7,16.9-14.5a.8.8,0,0,0,.5-.7.7.7,0,0,0-.8-.5c-13.3,2.9-17.8,15.2-17.8,15.3a.6.6,0,0,0,.4.8h.2A.6.6,0,0,0,358.5,399.5Zm2.8,9.2a.9.9,0,0,0,.6-.7c-1.6-23.6,7.5-62.2,22.1-93.9,9.4-20.3,46-60.1,46.4-60.5s.2-.6,0-.9a.6.6,0,0,0-.9.1c-.4.4-37.2,40.3-46.6,60.8-14.9,32.3-23.9,70.3-22.3,94.5a.6.6,0,0,0,.6.6Zm29.9-107.6a.6.6,0,0,0,.6-.6L389.3,260a.6.6,0,0,0-.6-.6.7.7,0,0,0-.6.7l2.4,40.4a.6.6,0,0,0,.6.6Zm-7.5,13.3a.6.6,0,0,0,.3-.8l-15.3-34.8a.7.7,0,0,0-.9-.3.6.6,0,0,0-.3.8l15.4,34.8a.7.7,0,0,0,.6.4Zm2.7-4.8,36.8-5.3a.5.5,0,0,0,.5-.7c0-.3-.4-.5-.7-.5l-36.8,5.3a.5.5,0,0,0-.5.7.6.6,0,0,0,.6.5Zm-10.5,23.5a.6.6,0,0,0,.1-.9l-19.9-25.6a.6.6,0,0,0-.9-.1.5.5,0,0,0-.1.8L375,333l.5.2Zm31.1-7a.5.5,0,0,0-.5-.6L379,324.1a.7.7,0,0,0-.7.6.9.9,0,0,0,.6.7l27.5,1.3h0A.5.5,0,0,0,407,326.1Zm-12.9,20.4a.5.5,0,0,0-.5-.7l-21-2.1c-.4,0-.7.2-.7.6s.2.6.5.7l21,2h.1A.6.6,0,0,0,394.1,346.5Zm-26.3,10.8a.5.5,0,0,0,.1-.8l-10.3-15.7a.7.7,0,0,0-1.1.7l10.4,15.6a.5.5,0,0,0,.5.3Zm23.8,5.3a.7.7,0,0,0-.6-.7l-24.7-.2h0a.7.7,0,0,0-.7.6.7.7,0,0,0,.7.7l24.7.2h0A.6.6,0,0,0,391.6,362.6Zm-33.1,36.9c0-.1,4.2-11.7,16.9-14.5a.8.8,0,0,0,.5-.7.7.7,0,0,0-.8-.5c-13.3,2.9-17.8,15.2-17.8,15.3a.6.6,0,0,0,.4.8h.2A.6.6,0,0,0,358.5,399.5Z" transform="translate(-44.8 -43.8)"/><path class="cls-7" d="M391.1,300.5l-2.4-40.4m-5.2,53.7-15.4-34.7m55,24.6L386.3,309m-10.8,23.6L355.6,307M379,324.7l27.4,1.4m-33.9,18.2,21,2.1m-26.1,10.4L357,341.1m9.3,21.2,24.7.3m-29.7,46.1a.9.9,0,0,0,.6-.7c-1.6-23.6,7.5-62.2,22.1-93.9,9.4-20.3,46-60.1,46.4-60.5s.2-.6,0-.9a.6.6,0,0,0-.9.1c-.4.4-37.2,40.3-46.6,60.8-14.9,32.3-23.9,70.3-22.3,94.5a.6.6,0,0,0,.6.6Zm29.9-107.6a.6.6,0,0,0,.6-.6L389.3,260a.6.6,0,0,0-.6-.6.7.7,0,0,0-.6.7l2.4,40.4a.6.6,0,0,0,.6.6Zm-7.5,13.3a.6.6,0,0,0,.3-.8l-15.3-34.8a.7.7,0,0,0-.9-.3.6.6,0,0,0-.3.8l15.4,34.8a.7.7,0,0,0,.6.4Zm2.7-4.8,36.8-5.3a.5.5,0,0,0,.5-.7c0-.3-.4-.5-.7-.5l-36.8,5.3a.5.5,0,0,0-.5.7.6.6,0,0,0,.6.5Zm-10.5,23.5a.6.6,0,0,0,.1-.9l-19.9-25.6a.6.6,0,0,0-.9-.1.5.5,0,0,0-.1.8L375,333l.5.2Zm31.1-7a.5.5,0,0,0-.5-.6L379,324.1a.7.7,0,0,0-.7.6.9.9,0,0,0,.6.7l27.5,1.3h0A.5.5,0,0,0,407,326.1Zm-12.9,20.4a.5.5,0,0,0-.5-.7l-21-2.1c-.4,0-.7.2-.7.6s.2.6.5.7l21,2h.1A.6.6,0,0,0,394.1,346.5Zm-26.3,10.8a.5.5,0,0,0,.1-.8l-10.3-15.7a.7.7,0,0,0-1.1.7l10.4,15.6a.5.5,0,0,0,.5.3Zm23.8,5.3a.7.7,0,0,0-.6-.7l-24.7-.2h0a.7.7,0,0,0-.7.6.7.7,0,0,0,.7.7l24.7.2h0A.6.6,0,0,0,391.6,362.6Zm-33.1,36.9c0-.1,4.2-11.7,16.9-14.5a.8.8,0,0,0,.5-.7.7.7,0,0,0-.8-.5c-13.3,2.9-17.8,15.2-17.8,15.3a.6.6,0,0,0,.4.8h.2A.6.6,0,0,0,358.5,399.5Zm2.8,9.2a.9.9,0,0,0,.6-.7c-1.6-23.6,7.5-62.2,22.1-93.9,9.4-20.3,46-60.1,46.4-60.5s.2-.6,0-.9a.6.6,0,0,0-.9.1c-.4.4-37.2,40.3-46.6,60.8-14.9,32.3-23.9,70.3-22.3,94.5a.6.6,0,0,0,.6.6Zm29.9-107.6a.6.6,0,0,0,.6-.6L389.3,260a.6.6,0,0,0-.6-.6.7.7,0,0,0-.6.7l2.4,40.4a.6.6,0,0,0,.6.6Zm-7.5,13.3a.6.6,0,0,0,.3-.8l-15.3-34.8a.7.7,0,0,0-.9-.3.6.6,0,0,0-.3.8l15.4,34.8a.7.7,0,0,0,.6.4Zm2.7-4.8,36.8-5.3a.5.5,0,0,0,.5-.7c0-.3-.4-.5-.7-.5l-36.8,5.3a.5.5,0,0,0-.5.7.6.6,0,0,0,.6.5Zm-10.5,23.5a.6.6,0,0,0,.1-.9l-19.9-25.6a.6.6,0,0,0-.9-.1.5.5,0,0,0-.1.8L375,333l.5.2Zm31.1-7a.5.5,0,0,0-.5-.6L379,324.1a.7.7,0,0,0-.7.6.9.9,0,0,0,.6.7l27.5,1.3h0A.5.5,0,0,0,407,326.1Zm-12.9,20.4a.5.5,0,0,0-.5-.7l-21-2.1c-.4,0-.7.2-.7.6s.2.6.5.7l21,2h.1A.6.6,0,0,0,394.1,346.5Zm-26.3,10.8a.5.5,0,0,0,.1-.8l-10.3-15.7a.7.7,0,0,0-1.1.7l10.4,15.6a.5.5,0,0,0,.5.3Zm23.8,5.3a.7.7,0,0,0-.6-.7l-24.7-.2h0a.7.7,0,0,0-.7.6.7.7,0,0,0,.7.7l24.7.2h0A.6.6,0,0,0,391.6,362.6Zm-33.1,36.9c0-.1,4.2-11.7,16.9-14.5a.8.8,0,0,0,.5-.7.7.7,0,0,0-.8-.5c-13.3,2.9-17.8,15.2-17.8,15.3a.6.6,0,0,0,.4.8h.2A.6.6,0,0,0,358.5,399.5Z" transform="translate(-44.8 -43.8)"/><polygon class="cls-11" points="332.8 347.3 304.5 347.3 304.5 353.1 307 353.1 312.1 385.1 325.2 385.1 330.3 353.1 332.8 353.1 332.8 347.3"/></g><g id="Character"><polygon class="cls-1" points="77.9 170.1 45 159.3 42.1 151.6 35.4 151.4 23.2 149.1 24.7 151.6 40 162.7 43.7 164.5 78.2 182.5 77.9 170.1"/><polygon class="cls-2" points="42.1 151.6 38.9 149.7 32.6 152 33.7 153.2 42.1 151.6"/><polygon class="cls-12" points="77.9 170.1 45 159.3 42.1 151.6 35.4 151.4 23.2 149.1 24.7 151.6 40 162.7 43.7 164.5 78.2 182.5 77.9 170.1"/><g class="cls-13"><polygon class="cls-5" points="77.9 170.1 45 159.3 42.1 151.6 35.4 151.4 23.2 149.1 24.7 151.6 40 162.7 43.7 164.5 78.2 182.5 77.9 170.1"/></g><polygon class="cls-14" points="77.9 170.1 45 159.3 42.1 151.6 35.4 151.4 23.2 149.1 24.7 151.6 40 162.7 43.7 164.5 78.2 182.5 77.9 170.1"/><polygon class="cls-12" points="42.1 151.6 38.9 149.7 32.6 152 33.7 153.2 42.1 151.6"/><g class="cls-15"><polygon class="cls-16" points="42.1 151.6 38.9 149.7 32.6 152 33.7 153.2 42.1 151.6"/></g><polygon class="cls-17" points="42.1 151.6 38.9 149.7 32.6 152 33.7 153.2 42.1 151.6"/><path class="cls-12" d="M129.7,144.1s-.5,4.5.7,7.3,8.4,12.7,8.4,12.7l-13.2,10.6s-5.5-11-6.5-12.8-2.3-9.4,1.1-14.9S128.5,140,129.7,144.1Z" transform="translate(-44.8 -43.8)"/><g class="cls-18"><polygon class="cls-5" points="78.1 114.7 83.9 126.6 80.8 130.9 75.1 120.7 78.1 114.7"/></g><path class="cls-14" d="M129.7,144.1s-.5,4.5.7,7.3,8.4,12.7,8.4,12.7l-13.2,10.6s-5.5-11-6.5-12.8-2.3-9.4,1.1-14.9S128.5,140,129.7,144.1Z" transform="translate(-44.8 -43.8)"/><path class="cls-12" d="M133.7,135.8c-.8-5-6.5-15.2-15.6-14.8-5.9.3-8.6,1.5-11.2,2.9a35.4,35.4,0,0,0-5.8,4.4c-4.4,5.3-6,6.8-5.1,10.8a13,13,0,0,0,.7,4.8,40,40,0,0,0,3.5,7.8c-.4,1.7-1.3,6.1-1.4,7.1s3,.3,4.6,0c2.8,6.3,8.1,10.8,9.7,11.3s7.3-3.8,9.7-7.4.6-7.7.6-9.3,5.4-5.2,7.3-6.3S134.6,140.8,133.7,135.8Z" transform="translate(-44.8 -43.8)"/><g class="cls-19"><path class="cls-5" d="M96,139.1a13,13,0,0,0,.7,4.8,40,40,0,0,0,3.5,7.8c-.4,1.7-1.3,6.1-1.4,7.1s3,.3,4.6,0c2.8,6.3,8.1,10.8,9.7,11.3s7.3-3.8,9.7-7.4a6.1,6.1,0,0,0,1.1-3l-.2-.8s-1.3,5.2-4,4.5-6.7-6-9-7.8-1.3-4.3-1.8-7-7.1-5.1-7.6-6.7,1.1-8.1,1.1-8.1,2.6-3.4,2-2a10.1,10.1,0,0,0,.7,7.4,5,5,0,0,0,4.7,2.9l2.5-12.1-5.2-4.2-6,2.5C96.7,133.6,95.1,135.1,96,139.1Z" transform="translate(-44.8 -43.8)"/></g><path class="cls-20" d="M133.7,135.8c-.8-5-6.5-15.2-15.6-14.8-5.9.3-8.6,1.5-11.2,2.9a35.4,35.4,0,0,0-5.8,4.4c-4.4,5.3-6,6.8-5.1,10.8a13,13,0,0,0,.7,4.8,40,40,0,0,0,3.5,7.8c-.4,1.7-1.3,6.1-1.4,7.1s3,.3,4.6,0c2.8,6.3,8.1,10.8,9.7,11.3s7.3-3.8,9.7-7.4.6-7.7.6-9.3,5.4-5.2,7.3-6.3S134.6,140.8,133.7,135.8Z" transform="translate(-44.8 -43.8)"/><path class="cls-21" d="M101.4,148.6l1,2.9s2.1.7,4.7-2.1" transform="translate(-44.8 -43.8)"/><path class="cls-21" d="M108.8,162s2.4-.2,3.3-3.6" transform="translate(-44.8 -43.8)"/><path class="cls-21" d="M99.7,146.3s.8-2.2,5.1-2.2" transform="translate(-44.8 -43.8)"/><path class="cls-7" d="M121.7,117.1a75.7,75.7,0,0,0-9.4-.8s-9.4-5.4-18.4.4-4.7,15.9-4.7,18.5-2.9,2.5-1.1,5.8,7.9,1.4,7.9,1.4a8.6,8.6,0,0,1,3.2-6.3c3.3-2.6,5.9-3.1,7-2.4s-.8,5.4.3,7.6c0,0,3.7,1.8,4.7,1.8s-.7,1.6,2.9,2.9a4.5,4.5,0,0,0,4-.4c.5-2.2,1.7-5.6,3.8-4.8s6.1,8.9,1.8,11.6c5.2.9,11.4-8.2,11.8-16.5S127.1,118,121.7,117.1Z" transform="translate(-44.8 -43.8)"/><path class="cls-22" d="M106.4,130.2s2.6-1.5,5.9,1.6,9.6,7.1,18,4.9" transform="translate(-44.8 -43.8)"/><path class="cls-22" d="M106,127.7s1.8-2.9,4.9-2.9,10.2,4.3,15.9,4.3" transform="translate(-44.8 -43.8)"/><path class="cls-22" d="M103.9,133.2s-3.4-4.3-6.7-.8-1.2,6.7-1.2,6.7" transform="translate(-44.8 -43.8)"/><path class="cls-22" d="M90,136.1a10.8,10.8,0,0,0,3.5-7c.4-4.5,6.5-8.3,10.4-4.7" transform="translate(-44.8 -43.8)"/><path class="cls-22" d="M96.4,119.7s6.1-5.9,11.2,1.7" transform="translate(-44.8 -43.8)"/><path class="cls-1" d="M146.3,410.8s3.7,5.9,3.3,9.6l-.4,3.8s-13.8,3.8-16.8,3.8-18.4-1.5-18.4-1.5l-.6-2.6a.9.9,0,0,1,.4-1l13.9-6.5,4.3-4.8Z" transform="translate(-44.8 -43.8)"/><path class="cls-23" d="M134.5,425.1c3.8.2,10.9-2.1,15-3.5l-.3,2.6s-13.8,3.8-16.8,3.8-18.4-1.5-18.4-1.5l-.5-1.9C115.9,424.6,129.6,424.7,134.5,425.1Z" transform="translate(-44.8 -43.8)"/><path class="cls-1" d="M127.7,416.4l-20.2,8.8s-1.7,4.3,0,5.1,39.2,0,39.2,0,2.6-6.8-1.5-11.3S127.7,416.4,127.7,416.4Z" transform="translate(-44.8 -43.8)"/><path class="cls-9" d="M146.7,430.3s-37.4.9-39.2,0-.8-1.6-.6-2.7h40.5A10.2,10.2,0,0,1,146.7,430.3Z" transform="translate(-44.8 -43.8)"/><path class="cls-24" d="M118.1,264.2s-5.2,23.3-7.2,37.9-3.2,43.8-2.8,47.1,21.4,59.5,21.4,59.5l2.1,5,14.7-2.9s-6.7-21.4-9.3-33.1-7.9-31-7.9-34.3,13-67.4,13.9-71.6,5.2-10.6,5.2-10.6l-28.1-.6Z" transform="translate(-44.8 -43.8)"/><path class="cls-9" d="M118.1,264.2s-3,21.3-1.8,36.1,4.1,46.3,4.1,51,7.5,32.7,8,41.5c.7,12.7-.3,19-.3,19l-.4,4.6s8.8,1.3,10.7,1.8a22.3,22.3,0,0,0,6.8.8s3.3-14.2,3.3-26.2-2.7-36.8-4.1-46.9,2.9-48.7,5.3-56,7.6-22.5,4.1-30.3S118.1,264.2,118.1,264.2Z" transform="translate(-44.8 -43.8)"/><path class="cls-7" d="M157.6,255.6l-.3,9.6-13.4,2.4c-6.3,1.1-22.2-.3-27.6-.8a1.8,1.8,0,0,1-1.7-2l.5-8.6Z" transform="translate(-44.8 -43.8)"/><path class="cls-1" d="M135.3,160.7s-8.9,9.8-12.4,15.8-4.7,15.4-5.9,22.6,2.2,24.5,1.2,32.4l-3.1,24.7s-.6,1.7,1.6,3.6,13,2.5,22.7,3c3.6.2,14.2-2.1,16-2.2s2.1-2.8,2.2-5c.4-9.8,2.2-36.1,3.4-47.6C163.4,184.6,150.2,162.1,135.3,160.7Z" transform="translate(-44.8 -43.8)"/><path class="cls-10" d="M159.8,221.3c.4-5.2.8-9.9,1.2-13.3.1-1,.2-2,.2-3l-23.9,4-20.5-7a84.9,84.9,0,0,0,.7,12.7l20.1,5.6Z" transform="translate(-44.8 -43.8)"/><path class="cls-10" d="M134.4,161.7c-1.3,1.5-4,4.6-6.6,7.9L143,185l5-2Z" transform="translate(-44.8 -43.8)"/><path class="cls-9" d="M135.3,160.7s-8.9,9.8-12.4,15.8a38.9,38.9,0,0,0-2.4,5.8l18.1-20.9A19.4,19.4,0,0,0,135.3,160.7Z" transform="translate(-44.8 -43.8)"/><path class="cls-10" d="M117.7,195.2l19.6,6.5,23.8-2.8a54.6,54.6,0,0,0-3.9-17.3L138,189.3l-17.2-7.8A79.9,79.9,0,0,0,117.7,195.2Z" transform="translate(-44.8 -43.8)"/><path class="cls-10" d="M151.5,245.8a60.4,60.4,0,0,1-29.8-2.5l-4.8-1.6-1.5,12,5.5,1.6a81.8,81.8,0,0,0,31.9,2.4l4.4-.5a2.9,2.9,0,0,0,.4-1.6c.1-2.6.3-6.5.6-11Z" transform="translate(-44.8 -43.8)"/><path class="cls-10" d="M154.1,229.4a59.9,59.9,0,0,1-29.7-2.4l-6.1-2.1a46.5,46.5,0,0,1-.1,6.6l-.7,5.7,6.1,1.7a81.7,81.7,0,0,0,31.9,2.5l2.9-.4c.3-3.9.6-8.2.9-12.4Z" transform="translate(-44.8 -43.8)"/><rect class="cls-7" x="58" y="193.7" width="24.8" height="1.33" transform="translate(-41.3 346.3) rotate(-141.2)"/><path class="cls-12" d="M144.6,171.5s7.1,4.9,7.3,16.3c.1,4.9-.4,9.7-1.6,17.8s-8.3,34.9-13.8,38.1-14.2-2.8-14.2-2.8L80.5,213.1l-10.1-8.2-4.9-9.4,1.5-2.9L79.3,202l-6.6-6.1,1.3-1.7,2.4,1.7,7,2.6,1.5,10.1,2.2,1.5L127,224.6s-.5-21.5-.2-25.6.9-14.5,5.3-21.9" transform="translate(-44.8 -43.8)"/><g class="cls-25"><path class="cls-5" d="M126.7,208.3c.1,7.5.3,16.3.3,16.3L87.1,210.1l-2.2-1.5-1.5-10.1-7-2.6L74,194.2l-1.3,1.7,6.6,6.1L67,192.6l-1.5,2.9,4.9,9.4,10.1,8.2,2.6,1.7,55.1,17.8Z" transform="translate(-44.8 -43.8)"/></g><path class="cls-14" d="M144.6,171.5s7.1,4.9,7.3,16.3c.1,4.9-.4,9.7-1.6,17.8s-8.3,34.9-13.8,38.1-14.2-2.8-14.2-2.8L80.5,213.1l-10.1-8.2-4.9-9.4,1.5-2.9L79.3,202l-6.6-6.1,1.3-1.7,2.4,1.7,7,2.6,1.5,10.1,2.2,1.5L127,224.6s-.5-21.5-.2-25.6.9-14.5,5.3-21.9" transform="translate(-44.8 -43.8)"/><path class="cls-1" d="M127,224.6l15.2,11,4-7s2.7-2.2,3.1-3.8-.1-4.3.3-5.9,2.4-3.1,2.6-7,.1-7.2.1-7.2,3.3-13.6,2.9-19.5-6-16.3-10.6-16.5-10.5.4-15.1,7.4-3.7,27.3-4.4,28.5.3,7.6.3,7.6a3.5,3.5,0,0,0-1.4,2.5c-.1,1.6,1.6,5.6,1.6,5.6Z" transform="translate(-44.8 -43.8)"/><path class="cls-10" d="M125.5,199.4a27.2,27.2,0,0,1-.4,5.2c-.6,1.2.1,6.3.3,7.4a61,61,0,0,0,26.5,2,6.6,6.6,0,0,0,.3-2.1c.2-3.9.1-7.2.1-7.2s.3-1.2.7-3.1A94.2,94.2,0,0,1,125.5,199.4Z" transform="translate(-44.8 -43.8)"/><path class="cls-10" d="M128.9,177.2c-1.5,2.9-2.2,7.2-2.7,11.5a58.4,58.4,0,0,0,28.5,3.5,37,37,0,0,0,.5-7,20.1,20.1,0,0,0-1.3-5.4A97.7,97.7,0,0,1,128.9,177.2Z" transform="translate(-44.8 -43.8)"/><path class="cls-7" d="M125.7,220.4l1.3,4.2,15.2,11,4-7s2.7-2.2,3.1-3.8a2.8,2.8,0,0,0,.1-.9A88,88,0,0,1,125.7,220.4Z" transform="translate(-44.8 -43.8)"/><path class="cls-14" d="M136.7,418.1s.3-8.7,2-21.3-2.3-30.7-3-33.7.3-9.6-.3-12a53.1,53.1,0,0,1-2-23.9c1.9-11.5,3.4-42.1,3.4-42.1s-4.8-4-6.2-9-.3-6.7-.3-6.7" transform="translate(-44.8 -43.8)"/><line class="cls-14" x1="94.2" y1="226" x2="92.3" y2="236.3"/></g></g></svg>