<svg xmlns="http://www.w3.org/2000/svg" viewBox="0 0 656.9 989"><title>logo</title><g id="Layer_1" data-name="Layer 1"><path d="M180,117.8h83.3V438.4l1.2.6c17.1-19.3,35.7-37,56.5-52.3a319.4,319.4,0,0,1,68.3-37.9c-7.8-2.2-12.4-6.4-14.4-13.5-.4-1.4-1.6-2.5-2.5-3.7-7.3-9.5-9.1-20-4.5-31.1q12.2-29.1,24.9-57.9c5.7-12.8,17.5-19.7,31.9-18.7,4,.3,5.8-.7,7.3-4.5,5-12.7,10.4-25.3,15.9-37.8.7-1.5,2.4-2.5,3.8-3.7l5.4-5c3.8-3.5,2.2-8.1,2.5-12.4.2-2-.3-4.1.2-6.1,3.4-13.6,6.9-27.1,10.4-40.7a15.2,15.2,0,0,1,2.7-5.2c7.8-9.8,15.5-19.7,23.9-29,4.7-5.3,10.4-9.8,16.1-14.1s9-9.3,9.7-16.1c.2-1.8-.8-3.7-1.5-5.4s-1.2-1.2-1.7-1.8c-8.2-8.3-9.8-15.2-5.7-23.3a21.8,21.8,0,0,1,24-11.3c8.1,1.5,15.1,5.2,20.2,11.8-3.7,4.2-2.8,18.2,1.9,26.2-6.5.8-6,6.3-7.2,10.7-1.9,7.4-2.7,7.8-9.9,5.2l-3.3-1.1c.4,1.6.4,3.1,1,3.6,9.9,8.6,13,20.8,17,32.4,1.5,4.5,2.2,9.5,4.1,13.9a59.9,59.9,0,0,0,7.5,12.6c4.5,5.9,10,11.1,14.3,17.2s9.3,16.1,14.8,23.5c3.4,4.5,7,8.3,6.9,14.3,0,2.8-4.2,10.2-6.8,10.7s-4-.9-4.6-3.8a54,54,0,0,0-3.5-11.2c-.3-1-2.3-1.2-3.5-1.9s-5-2.4-7-4.1c-5.3-4.8-10.3-9.9-15.5-14.8l-1.2.5c1.8,6.1,3.3,12.3,5.4,18.3,1.4,3.8,1,6.5-1.8,9.4a6.8,6.8,0,0,0-1.4,5.2c3,21.5,6,42.9,9.4,64.4.8,4.8.6,8.4-4.5,10.4-9.7,3.8-12.4,10.4-10.3,20.7s2.1,23.3,4.5,34.7c.8,3.8,6.1,7.2,10,9.7s7.3,2.1,11,3.2,6.3,1.9,7,6.1c.2,1,2.4,2,3.8,2.4a299,299,0,0,1,113.3,59.9C767.2,446,810.2,504.9,826.7,579.4c29.5,132.8-5.2,246.4-107.3,337.7-46.7,41.7-101.5,66.9-163.5,75.4-104.3,14.2-195.1-14.4-271.7-87.1-43.3-41.1-75.8-89.1-92.5-147a294.5,294.5,0,0,1-11.8-82q.2-276.6.1-553.2ZM744.3,662.3c0-131.3-106.4-237.8-237.7-237.9S268.3,530.6,268.2,660.6c0,133.1,105.7,239.9,237.7,240A238,238,0,0,0,744.3,662.3ZM470.6,290.9c2.2-2.1,3.5-3.9,5.2-5,16.5-9.8,32.9-19.8,49.6-29.2a13.6,13.6,0,0,0,7-14.8c-3.5-18.4-8.2-36.7-12.6-55-.7-3.2-2.3-5.7-5.8-6.8-1.2-.4-2.3-2.6-2.4-4.1q-2.1-23-3.9-45.9c-.6-6.7-1.1-13.4-1.8-21.5-4,4.4-7.9,7.2-9.8,11-2.7,5.5-3.3,11.9-5.8,17.5-4.2,9.6-9,18.9-13.8,28.3a97.3,97.3,0,0,1-6.4,9.4c-2,2.9-3.4,7.2-6.2,8.4-8.9,3.7-11.2,11.5-14.4,19.1s-5.5,12.9-8.2,19.4l-2.6,6c15.7,11.9,19.1,25.1,11.6,42.6l-18,41.8c-4.5,10.4-7.8,21.5-19.9,27.8l56.8-11.5c-5.4-8.9-9.8-18.3-10.9-29-.5-5.1,1.4-8.1,6.6-8.4C467.1,290.8,469.2,290.9,470.6,290.9Zm60.7-6.2c-2.2,1.2-3.7,2-5.1,2.9l-37.9,22.3c-1.8,1-4.8,1.4-5.5,2.9-2.3,4.7-3.9,9.9-.9,14.6H537C535.1,313,533.2,299.3,531.3,284.7Z" transform="translate(-179.9 -7)"/><path d="M737.3,628.6c-9.5-64.5-41.3-115.8-93.2-155-1.3-.9-2.7-1.6-4-2.4l-1.5.6c.3,4.8.7,9.7,1,14.5s1.7,4.6,5,4.7,8.8.7,13.2,1.1c0,.4.1.7.1,1.1l-15.6,10.3a43.2,43.2,0,0,1-8,4.1,8.7,8.7,0,0,1-5.5-.3c-2.4-1-4.4-2.7-6.6-4.1-4.9-3.1-12-2.8-14.9-9.2-.2-.5-1.5-.6-2.3-.8-9.7-1.3-23.6,8.7-25.9,18.4a137.3,137.3,0,0,1-4,13.9c-1.5,4.4-4,7.9-8.9,9.3-1.5.4-3.7,2.7-3.6,4a68.8,68.8,0,0,0,2.5,13.4c.2.8,2.8,1.9,3.7,1.4,4.7-2.1,6.3.9,8,4.2s1.9,3.4,2.8,5c6.8-.9,14-11.2,11.4-17-3.5-7.9-.5-14.6,2.6-21.4.8-1.7,2.7-2.9,4.1-4.3,0,5-.9,9.3-1.6,13.7s.9,6.6,5.5,7.2c2.7.4,5.2,2.2,7.8,3.4L609,546c-6.2,1.2-8.8,6.1-10.3,10.9-2.6,8.1-2.1,8.2-10.1,9.6l-3,.4c-8.3,1.2-17,1.6-22.8,9.4-1.1,1.5-3.6,1.9-5.8,3-2-8.4-9.8-13.6-9.8-22.3a2.4,2.4,0,0,0-.7-1.3c-1.2-.8-2.5-1.9-3.7-1.9s-1.9,1.6-2.3,2.7c-1.6,4-1.7,7.7,2.3,10.7.9.7,1.5,3.6.8,4.3-4.4,5-2.3,10.9-3.7,17.2,6.3-3.2,11.2-7.5,17.5-6.3a18,18,0,0,0,.8,2.1l-16.8,8.8a71.4,71.4,0,0,1,4.3,6.4c1.1,2.3,1.6,4.9,2.6,8l-9.2,1.2c-1.2.2-3.2.2-3.6,1-2.4,4.7-5.4,9.4-6.2,14.4-.4,2.4,3,6,5.5,8.1s2.5,4.8.7,7.8c-2.9,4.7-8.4,8.1-7.7,14.6,0,.5-.7,1.1-1.3,1.4-6.1,3.6-10,8.9-12.8,15.4-4.6,11-2.2,21.7.4,32.5a8.3,8.3,0,0,0,2.3,4.3c5.1,4.9,10.5,9.5,15.5,14.5,2.7,2.7,5.4,2.8,8.9,2.7,11.5-.5,23-5.8,34.6.4,3.1,1.7,5.3,2.4,4,6.3a16.3,16.3,0,0,0,2.1,14.8,23.6,23.6,0,0,1,2.7,5.8c2.5,6.7,6.4,13,3.7,20.6s-2.1,15.8,1.5,24.1,6.8,20.5,9.9,30.9c1.1,3.8,3.8,5.4,7.1,4.4,8-2.5,16.2-5.4,21.1-12.5s12.6-15.9,14.2-26.4c.1-1.1,1.1-2,1.8-3,3.6-5.7,7.5-11.3,10.9-17.2,1.1-1.9,1.8-4.8,1.1-6.7-3.6-10.3,2-18.1,7-25.9,6.7-10.3,14-20.1,20.8-30.3a14.4,14.4,0,0,0,1.8-6.5c.2-2.5-.8-3.7-3.7-2.7a78,78,0,0,1-11.6,2.7c-1.5.2-3.1-1-4.6-1.5,1-1.4,1.6-3.6,2.9-4.2,6.4-3.1,13.3-5.2,19.6-8.6s14.2-8.5,17.5-16.9c1.5-4,.3-5.8-3.4-7.2q-8.2-2.8-16.2-6.3c-6.2-2.7-9-6.2-8.9-10.2,6.7,4.6,14.4,5.7,22.2,6.6,13.1,1.6,26.2,3.3,35.7,14.2.8,1,2.8,1.8,3.8,1.4s1.6-2.4,1.5-3.7C739.2,654.9,739.2,641.6,737.3,628.6ZM631.5,641.9c-5.3.7-10.8.2-16.2-.1a41.2,41.2,0,0,1-5.9-1.2c-8.3-1.5-8.3-1.5-9.7,7-5.6-2.5-11.2-4.7-16.4-7.6-1.1-.7-1.4-3.9-1.2-5.9.3-4.6-1.7-6-6.1-6.2-9.7-.3-19.3-.3-28.6,5.4,4.8-6.9,9-13,13.3-19,2.1-3,11.2-4,16.5-1.9a75.9,75.9,0,0,1,7.7,3.5c4,2.2,4.4,4.7.7,7.1s-3.7,3.9-1.1,6.4,4.7,2,6.6-.8l5.8-9a60.5,60.5,0,0,1,6,6.3c1.9,2.4,7.2,3.7,9.6,1.9s1.3-4.5-1.5-6.2-2.3-2.5-3.5-3.7l1.2-1.3c3.9,2.2,7.9,4.2,11.6,6.7,8.9,6.1,8.8,6.2,19.1,5.1C640.5,633.6,636.6,641.2,631.5,641.9Zm29,53.9c-3.3-4.1-6.2-7-8.2-10.5-3.8-6.5-7.2-13.3-10.6-20.1-1.7-3.5-3.6-7.1-1.4-11.2C646.2,657,661.9,687.8,660.5,695.8ZM684.6,626a3.6,3.6,0,0,1-2.7-.1h-.1a14,14,0,0,1-2.8-.6,5,5,0,0,1-2.8-1.4c0-.1-.1-.1-.1-.2a9.1,9.1,0,0,1-3.1-4.4,8.9,8.9,0,0,1,0-5.1c.6-2.5,2.2-5.2,4.5-6.3a3.3,3.3,0,0,1,3.2,0c1.4.8,1.6,2.3,1.5,3.8a28.5,28.5,0,0,0-.3,2.9,14.4,14.4,0,0,0,1.5,4.7c.7.8,2.6,4.6,2.4,3.2C686,623.7,685.9,625.3,684.6,626Z" transform="translate(-179.9 -7)"/><path d="M391.3,459.6c-.1,1.7.1,2.4-.2,2.9-6.7,10.1-10.7,22.4-23.2,27.6-2.8,1.2-3,5,0,6.1s6.1,1.1,7.2-.2c5.8-6.5,14.2-10.7,16.6-20.5,1-4.5,5.9-8.1,9.3-11.9a3.7,3.7,0,0,1,3.1-.7c3.2.7,6.4,1.7,11,2.9-14.4,7.5-19.3,19.3-19.5,34.1,6.3-4.1,10.9-8.6,8.9-16.7-.9-3.5-.1-6.4,3.2-8.6s5.7-4.7,8.8-6.5c4.6-2.8,8.4.8,11.9,2.8,1.6.8,2.4,5,1.9,7.4s-.2,5.8,2.5,8.2c4.4,4,4.6,8.7,2,14.1-1,2.2-.8,5.6.1,8s1.4,6.7-1.9,8.7-4.8,1.2-7.7,1.9a7.4,7.4,0,0,0,.6,2.5c2.9,5.1-.3,8.3-3.6,11.1s-4.5,2.3-6.3-.8a19.5,19.5,0,0,0-2.8-3.5c-4.2-4-4.8-8.5-1.6-13.3,1.1-1.5,2.4-2.9,3.5-4.3,3.5-4.8,5.6-10,2.3-15.6-.9-1.7-3.4-2.8-5.4-3.4-.5-.2-2.2,1.9-2.7,3.2-2.3,5.4-4.3,11-6.7,16.5a5.2,5.2,0,0,1-3.3,2.2c-1.7.4-3.5.1-6.1.1,1.2,3.8,2.2,6.7,3.5,10.4l-11.5,2.9-1.1-1.3c1.3-3.8,2.7-7.5,4.5-12.7l-5.3,3.1c-4,2.1-8.2,4-12.1,6.4a19.2,19.2,0,0,0-5.9,5.8c-5.5,8.2-6.3,16.4-.4,25,3.8,5.6,6.9,11.6,10.9,18.6,0-8.1,5.7-11.1,10.5-14.7s2.9-5.6.9-7.3c2.6-6.1,4.9-11.3,7.1-16.6s3.6-5.1,7.8-2.1a42.1,42.1,0,0,0,4.1,2.8c3.3,2,5.3,4.3,2.8,8.4-.9,1.6-1.2,3.6-1.8,5.4l1.4,1.2,10.7-8.9c.8,5,1.3,9.7,2.4,14.2,2.3,9.6,3.7,19.2,3.2,29.1-.1,1.2,1.3,3.4,2.3,3.6,4.1,1,4.1,4.1,3.2,6.6s-3,3.1-5,3.7c-4.6,1.5-8.5.3-11-4,1.1-3.3,2.3-6.5,3.3-9.3l-19.3,1.4,9.3,9.7c4.2,4.4,3.7,6.9-2.1,8.7s-12,3.2-18,5.1c-1.5.4-2.7,1.9-3.8,3.1s-3.4,5.8-5.9,6.7c-5.7,2.1-7.6,7-10.7,11.2s-8.3,10.6-12.5,15.8c-1.2,1.4-2.5,2.6-3.8,4s-2.9,5.5-.6,8.9a19.4,19.4,0,0,1,2.6,7.9c.2,1.3-1,2.8-1.6,4.2-1.2-.8-2.6-1.5-3.3-2.6s-2-4.6-3.3-6.7-2.6-4.8-4.6-6.4c-4.4-3.7-9.5-2.3-12.4,3.2-2.8-.3-5.7-.8-8.7-1-5.6-.5-8.8,1.6-10.8,6.8-2.7,7.3-4.2,14.5-.9,22.3,1.8,4.4,5.2,4.7,8.8,5.3s5.6-.6,7.7-3.9,5.5-4.4,8.3-6.5l1.9,1.5c-1,3.2-1.7,6.5-3.2,9.5-2.6,5.3-1.8,6.8,4.2,6.9h6.2c.9,4.4,1.5,8.5,2.4,12.5s3.2,5.9,8.4,5.6c6.8-.4,12.7-1.9,17.7-6.7a5.3,5.3,0,0,1,4.1-1c8.4,1.3,16.9,2.3,25,4.6,3.6,1,6.2,5.2,9.7,7.3s7.5,3.7,11.2,5.6,5.3,2,6.7,3.9c6.1,8.4,15.8,10.7,24.2,15.3,6.3,3.6,12.9,6.9,18.8,11,1.8,1.2,3,5,2.7,7.3-1.8,12.4-4,24.7-6.3,36.9-.4,2-1.5,4.3-3,5.3-8.6,6.1-11.7,15-13.1,24.8-1,6.9-.9,6.9-6,10.3,2.6,10.4-1.9,19.9-3.9,29.7-.6,3-.4,4.6,1.9,6.9s2.6,5.5,3.9,8.4l-1.3,1.1-14.6-4.7a4.3,4.3,0,0,1-2.3-1.9c-3.7-7.2-7.3-14.5-10.9-21.8-1.2-2.4-2.7-4.7-3.7-7.3s-1.6-5.9-2.5-8.9-2.2-7.9-3.5-11.8c-3-9.1-6.4-18.2-9.1-27.4-1.9-6.3-5.6-10.3-11.2-13.8-7.6-4.7-15.7-9.3-20.2-17.9a15.4,15.4,0,0,0-3.5-4.2c-7.1-6.9-9-19.2-3.8-27.8,3.4-5.5,3.8-10.7-.2-15.8-.9-1.1-2.9-2.7-3.4-2.4-7.2,4.3-10.8-1.9-15.4-5s-9.1-8.3-14.4-10.9-13.3-4.1-19.8-6.6-11.4-5.3-17-8.1a7.3,7.3,0,0,1-2.7-2.8l-10.7-22.5c-3.9-7.9-2.8-16.4-1.9-24.6,8.1-77.9,45.7-137.5,111.6-179.4A45.8,45.8,0,0,1,391.3,459.6Z" transform="translate(-179.9 -7)"/><path d="M510.2,427.9c6.7,1.2,16.8,2.8,26.8,4.9,3.7.7,4,3.6,1.4,5.9-9.2,7.9-11.2,18.8-13.2,29.7-1.3,6.7-2.4,13.1-8.4,17.5a6.2,6.2,0,0,0-1.7,5.2c2.5,9.2,1.3,13-7.2,18.4-3.3,2.1-7.1,3.4-10.8,4.8-8.5,3-16.9,6.4-22.9,13.3-4,4.5-6.6,10.2-9.5,15.6-2.1,3.9-3.3,4.4-6.7,1.5-6-5.1-5.2-12.3-5.7-19a47.5,47.5,0,0,1,.6-8.4c.5-4.2,1-8.1,4.8-11.1s4.2-4,2.2-8c-1.1-2.2.2-5.7.7-8.6.2-1.3,1.2-2.4,1.8-3.6,4.7-8.8,3.4-14.2-4.8-20.1a10,10,0,0,1-3.2-12.9c1.4-2.9,2.5-6.1,4.7-8.2s5-2.8,7.7-3.4,5.4-1,6.2-5,3-6.1,7.7-6.2C489.3,430.1,498,428.9,510.2,427.9Z" transform="translate(-179.9 -7)"/><path d="M472,432.2c-.6.5-1,1.4-1.7,1.5-12.5,3.2-20,12.1-26.7,22.3a7.4,7.4,0,0,1-13.1-1.3c-.8-2-.1-4.7.7-6.9s2.5-4.4,3.8-6.6l-1.2-1.7,37.7-8.5Z" transform="translate(-179.9 -7)"/><path d="M678.1,770.5c-.6,3.8-.8,7.8-2,11.4-2.2,6.4-4.9,12.7-7.6,18.9-1.2,2.9-3.5,5.1-7,3.7s-4.4-5.4-2.7-8.7c.5-1.1.9-2.2,1.3-3.3,3.1-9.4,11.6-14.6,16.4-22.7Z" transform="translate(-179.9 -7)"/><path d="M340.2,679.6c5.2-4.3,24.6,1,25.9,8.1-4.9.8-9,.2-13.3-3.2S344.3,681.1,340.2,679.6Z" transform="translate(-179.9 -7)"/><path d="M407,449.9l10.2-2.6c-.5,3.1-.7,6.3-1.5,9.4-.3,1.1-1.9,1.8-2.9,2.8Z" transform="translate(-179.9 -7)"/><path d="M381.6,692.3c-4.8.6-8.8,1.4-12.9,1.6-1.1.1-2.4-1.3-3.5-2,.8-1.1,1.5-2.6,2.6-3.3C371.8,686.2,377.9,687.7,381.6,692.3Z" transform="translate(-179.9 -7)"/></g></svg>