<svg xmlns="http://www.w3.org/2000/svg" xmlns:xlink="http://www.w3.org/1999/xlink" viewBox="0 0 340.1 296.7"><defs><style>.cls-1,.cls-16{fill:#f8d100;}.cls-1,.cls-11,.cls-12,.cls-14,.cls-15,.cls-19,.cls-22,.cls-3,.cls-5,.cls-6,.cls-7{stroke:#263238;}.cls-1,.cls-11,.cls-12,.cls-13,.cls-14,.cls-15,.cls-19,.cls-20,.cls-22,.cls-5,.cls-8{stroke-linecap:round;stroke-linejoin:round;}.cls-2{fill:#edf1f0;opacity:0.79;}.cls-13,.cls-14,.cls-15,.cls-19,.cls-20,.cls-23,.cls-3,.cls-4,.cls-8{fill:none;}.cls-23,.cls-3,.cls-4,.cls-6,.cls-7{stroke-miterlimit:10;}.cls-4{stroke:#b2b2b2;}.cls-5,.cls-7,.cls-9{fill:#263238;}.cls-12,.cls-18,.cls-22,.cls-6{fill:#fff;}.cls-20,.cls-23,.cls-8{stroke:#707070;}.cls-8{stroke-width:0.5px;}.cls-10{fill:#28353a;}.cls-11{fill:#067fc8;}.cls-13{stroke:#fff;}.cls-14{stroke-width:2px;}.cls-15{stroke-width:4px;}.cls-17{clip-path:url(#clip-path);}.cls-21{clip-path:url(#clip-path-2);}.cls-22{stroke-width:0.75px;}.cls-23{stroke-width:0.25px;opacity:0.16;}</style><clipPath id="clip-path" transform="translate(-68.9 -102.3)"><path class="cls-1" d="M327.6,282.9l-5.9,1.2s-2.7.8-4.8,6.1-3.2,15.6-3.2,15.6l-1.1-1.7-2.5,3s4,8.8,5.9,9.1,5.1-5.6,5.1-5.6a84.6,84.6,0,0,1-1.8,9,58.6,58.6,0,0,0-3.1,18.3c0,9.7,5.3,22.5,6.6,27.3s1.2,8.9,2.2,13.6a110.2,110.2,0,0,1,1.7,13,43.1,43.1,0,0,1-3.5,3.7c-1.3,1.2,6.8.9,7.6.3s.9-2.4.9-3.7-.1-20.8-.1-20.8,9.8,16.5,9,18.5,2.7-2.9,2.7-2.9-1.5-12-2.5-16.6a81.2,81.2,0,0,0-3.1-9.6s8.2-15.9,9-25.8-3.8-22.9-3.8-22.9,4.2-11,4.3-18.3-2.2-8.6-5-9.9a13.2,13.2,0,0,0-4.5-1.4l-6-.6Z"/></clipPath><clipPath id="clip-path-2" transform="translate(-68.9 -102.3)"><path class="cls-1" d="M340.8,291.4l-2.9,14.2-18.3-6.2a21.9,21.9,0,0,0-2.3-6.3c-1.6-2.6-4.7-3.2-4.7-2.4s2.6,4.7,2.6,4.7-3.1-2.3-3.1-1.6,2.7,3.4,3.5,4,1,3.2,1.9,3.7,18.3,11.9,20.2,13.4,4.1-.5,4.4-1,4.9-8.9,7.1-14.8a12,12,0,0,0-2.8-12.9,12.4,12.4,0,0,0-3-1.8"/></clipPath></defs><title>main_banner1</title><g id="Layer_13" data-name="Layer 13"><path class="cls-2" d="M195.2,120.5s-52.9,26.9-79.3,68.5-24.3,95,7.8,134.7,93.4,34.5,144.7,59.7S376.5,403.3,400.7,350s-12.3-73.1-18.6-134.8S320.2,63.3,195.2,120.5Z" transform="translate(-68.9 -102.3)"/><line class="cls-3" x1="53.2" y1="296.2" x2="334" y2="296.2"/><path class="cls-4" d="M252.3,222.5c.3-.1.3-1.6.2-1.7S251.6,222.6,252.3,222.5Z" transform="translate(-68.9 -102.3)"/><path class="cls-4" d="M184.9,245.6c.5-.2,3.8.5,3.8-.5s-3.4-1.6-3.8-1.3a1.7,1.7,0,0,0,.5,1.2c0,.4-1.5,0-1.6.3A.8.8,0,0,0,184.9,245.6Z" transform="translate(-68.9 -102.3)"/><path class="cls-4" d="M215.3,266.6c-1.4.1-2.7-1.7-4.3-1.9s-1.4-.4-2.6.1c1.3-.5-2.2-2.2-2.2-2.2s-1.2,1.5-1.8,1.2.7-1.2.1-1.7-1.5.7-1.5.6,1.5-3.5-.2-4.4-3.1-.9-4.6-1.7-1.5-2.4-3.5-2.3c.8-.1-1.6-2.1-.9-1.9-1-.4-3.1.5-4.5.2s-.8-1.5-1.6-1.5-.9,2.1-1.1,2.6-.8-3.2-.2-2.9-3.2,1.7-3.5,1.9-.9,1.4-1.5,1.6c1.1-.3-3.5-.8-2.5-.5-2.9-1.1-1.6-1.4-2.4-4-.2-.7.5-1.1-.1-1.7s-3.1-.8-3.8-.3.1-2,.3-2.3h0c.9-.9,1.2-3.1-.2-3.2s-1.3,2.1-2.8,2.9c-4.5,2.2-4.7-4.2-4.6-6.9a.1.1,0,0,1-.1-.1.1.1,0,0,0,.1.1c.3-4.7,3.7-3.4,6.5-3.1-.7-.1-.1-1.2.8-1.3a12,12,0,0,1,2.3.5c1.5.5,1.1,0,2.2,1.8s.6,2.6,1.5,2.9-.1-6.6.5-7.4a40.2,40.2,0,0,1,2.8-2.9c1.2-1.5,0,.2.2-1.6,0-.2-.5-2.7.3-2.7s.3,2.4.3,2.4.2-1.4.3-2,2.6-1.4,2.8-1.8-1.3,0-1.3-.1,2.1-.5,2.4-.7a8.5,8.5,0,0,1,.9-2.5c.9-.9,3.3-.7,4-2.2-.1.2.3.9.8.8-1.8.5-2.7,1.5-.5,1.2a11.8,11.8,0,0,0,3.7-1.9c.1-.1-.4-.6-.3-1s-1.4,1.3-1.7,1.2c-2.2-.3-1.2-1.8-2-2.4a1,1,0,0,1-.7.2c-.3-.8,2.6-1.4-.1-1.7s-2.9,2.5-4.2,2.5c.7,0,3.5-3.5,4.9-3.8s8.2-.7,7.5-2.4l-.5-.3c-.5-.5,1.4-1-.7-1.2a1.7,1.7,0,0,1-.1-.7c-.2-.2-2.3.7-2.3.7s1.9-.8,2.2-1.2-4.6-2.2-4.2-2.8.9.1.3-1.6-2.2-3.3-2-3.4-.5,2.9-2.2,2.9-1.7-2.2-1.7-3.4-4.7-2-5.1-2c-2.7.1-1.6.3-1.7,2.4a9.5,9.5,0,0,0-.4,2.1c.3,1.6,1.6,2.2.8,4.3s-1.8.8-1.9,1.2.6,1,.5,1.6.3,2.5.1,2.4-.6.5-1.7-.5-.4-2.8-1.1-3.7-4-1.7-4.8-2.1a5.7,5.7,0,0,0-3.6-.6c.3,0-.3-1.8-.4-2.1s-1.7.2-1.2-2.5c.1-.7,3.1-3.9,3.1-3.8l-2.4-1.1c.3-.8,2.4,1.4,3-.3-.3.8,3.3-.8,2.4-1.4s-2.4,0-2.3-1c-.1.7,4.5.9,2.7-.7h2c.2,0-.7-.8-.6-.9s1.2,1.3,2.4-.1-.5-1.1-.6-2.1,1.5-.5,1-1.2a4,4,0,0,0-2.9-1c-.4.1.1,2.2-1,2.9a1,1,0,0,1-.4-.5c-.5,0,.5,1.8-.2,1.5s-.7-1.6-.8-1.7-.6-1-1-1.4-.8,1.4-1,1.5.1-1.6.1-1.7-1.5-.3-1.5-.3.4-.8.5-.9-1.4-2.1-1.4-2.1c-.8-1.9-.3,0-.5-2.2.1,1,3.9-1.7,2.6-2.1s-3.3-.6-3.6.5a31.5,31.5,0,0,1-.3,4c-.1.3-1.1.8-.7,2.1s2.9,1.1,1.6,2.1.2-.4.5-.4-1.4,2.7-1.3,2.6l-1.6-1.7c-.1-.2,1.8-.5,1.9-.6s-1.1-.7-1.1-.8,1-.1.7-.3a2.1,2.1,0,0,0-3.1.5c-.4.4,2.7,1.6-1,2.1-1.7.2-2.4-.6-3.8-1s-.4-.5-1.2-.6-2.1.8-1.6,1,2-.8,2.2-.6-1.2,3.1-1.8,2.8-.1-1.2-1-1.5-3.9.9-4.8-.1,1.2-.6,1-.9-2.9-1.1-3.8-1.3a22.5,22.5,0,0,0-2.4-.8c-.9-.1-1.3.6-2.2.6s.2-1.2-.2-1.3a6.9,6.9,0,0,1-1.1,1.3c-.9-.1-.8-2.2-1.8-2,.7-.1-1.5,1.5-1.3,1.4a28.8,28.8,0,0,1-2.9,1.6c-.5,0,3.1-2.2,3.1-2.1s-3.1.9-3.5,1.1,0-.6-.6-.4-.4,1-.8,1.4-9.3-2.2-9.9-2.2-6.6-.8-7-1.2-2.3.1-3,.9-5.1,1.6-5.3,2.6,4.3,2.4,4.7,3.6-5.4-.3-6,1.2c.2-.5,1.5,1.5,1.7,1.6a18.6,18.6,0,0,0,3.9-.5c.9.9-1.1,2.1-1.6,2.6s-.6-.3-1.3.6a7.6,7.6,0,0,1-1.4,1.1c.2-.2,1.1,1.9,1.1,1.9s2.3.5,2.1.3,0,1.7.5,2,1.5,0,2.2.3,1.8-1.1,1.6-.6-4.2,5.7-4.8,5.1,7.8-4,7.8-5.1l-.7-.4c-.2-.4,3.8-3.7,3.7-2.4,0-.2-2.4,1.8-1.8,2.3s2.7-.8,3.2-.9-1-1.4,0-1.5,1.5.6,1.6.6a.5.5,0,0,0-.6.4c.2.4,5.6.1,6,.4s3.5,3.1,3.5,2.2a2.2,2.2,0,0,1-.2-1.1c1.8,1.3-.8,1.7-.8,1.6s1.4,2,1.3,2-.3-1.7.1-1.6a1.5,1.5,0,0,1,.1.7c.4.5.5-1.3.5-1.2s.1,2.4-.2,2.4,2.3-.2,1.5.2-1-.9-.3-1,.3.9-.5,1,.1,1.5.2,1.6,1.2-.8,1.7-.7.4,1.9.6,2.3l1.8,1.8a16.1,16.1,0,0,0,2.9,2.4c-.1-.1,3.6,3,1.5,3,0,0-2.2-5.7-4.5-4.1.5-.3,3.2,3.6,3.3,4,1,2.9-.6,6.2.5,9.3s2.7,3.5,4.1,4.9a15.5,15.5,0,0,1,2.1,3.3c1,1.6,1.2,2,1,2.9s4.3,4.5,4.1,4.6-4.2-8.6-4.1-8.7c1.7-.1,1.8,2.5,2.1,3s2.5,2.5,3.4,3.8,1.8,4.2,3.2,5.7a14.5,14.5,0,0,0,4.5,2.2c1.7.5,3.5,0,4.8,1.4h0c.6.5,1.6.6,2,1s1.7.5,2.8,1.7a21.2,21.2,0,0,1,1.4,1.9c.7.7,1.9,2,3,2.1s.7-1.2,1.3-1.1c2.4.6,1.9,3.8,1,5.8s-2.4,2.5-1.2,4.6c0,.1-1.2,2.2-1.1,2.8s2.9,4.7,3.5,6,2.8,2.6,4.4,4.5,1.1,3.1.8,5.5-.5,7-1.2,10.4c-.3,1.3-2.9,8.4-1.9,9.7s.6-1.8,1-1.9-.2,5.3-.7,5,.3-1.8-.3-1.5-1.1,2.2-1.1,2.3.8.8.9,1.1.9-.3.8.3-2.6,1.1-1.3.9l.6-.5c.1,0-1.4,1.6-.4,1.8s.4-1.1.6-.8-1.1,1.9-.7,2.4.9-.4,1.1,0-.6.6-.5.6,1.2-.3,1.3.2-1.5,0-.9.8,1.5-.9,1.8-.1-1.5.8-1.6.8,1.7-.5,1.8-.4-2,1.1-2,.9,1.2,1,1.4.8-.4-.2-.1-.5,1.8-1.2,1.9-1.4a1,1,0,0,0-.5.8h.8c-.3-.3-.5,1-.5,1a1.1,1.1,0,0,1-.3-.7c-.4-.2-.2.7-.2.7s-.3-.4-.6-.4-.4,1.3-.4.7,1,1,1,1a1.1,1.1,0,0,0,.3-.7l1.7,1.2c.3.1-.2-.8,0-.8a6.7,6.7,0,0,0,2.4-.5c-1.1-.4-2.5-2.4-2.7-2.5h0c-.2,0-.8.1-.7-.3s.7.1.8,0-.7-1.5-.5-2,.8-.8,1.1-1.4,1.5-1.3,1.6-2.2-1-.7-1-.9a9.9,9.9,0,0,1,1.5-3.6l1.3-1.4c-.3-.2-2.2-.1-1.2-1.6-.3.5,2.3-.4,2.2-.4s0-1.4.1-1.6,4.3.5,4.6-2.1c.1-.6-1.4-2.5-1.5-2.5s3,.6,4.4-.8,2-3.3,2-3.2a7.5,7.5,0,0,1-.7,1.2c0-.6,2-2.2,2.3-2.9s-.1-2.3.4-3.2,3.3-1.4,4.6-2.2,2.1-2.5,2.6-4.5,0-4.2.6-5.1S219.4,266.4,215.3,266.6Z" transform="translate(-68.9 -102.3)"/><path class="cls-4" d="M184,243.7c.9-1.3-9.7-3.6-8.3-1.6-.7-1,4.2.3,4.4.4S182.8,245.2,184,243.7Z" transform="translate(-68.9 -102.3)"/><path class="cls-4" d="M180.6,245.4c.2.3,1.5.7,1.7.3S180.4,245.1,180.6,245.4Z" transform="translate(-68.9 -102.3)"/><path class="cls-4" d="M189.9,245.5c.3.5,1.2.2,1.3,0S189.5,244.9,189.9,245.5Z" transform="translate(-68.9 -102.3)"/><path class="cls-4" d="M195,313.5c.4.2,1.3-1,.9-1.1S194.6,313.2,195,313.5Z" transform="translate(-68.9 -102.3)"/><path class="cls-4" d="M196.1,313.5c.3.2,1.4-.3,1.3-.6S195.8,313.4,196.1,313.5Z" transform="translate(-68.9 -102.3)"/><path class="cls-4" d="M202.3,186.6c.1-1.4-2.1-.7-2.4-.7S202.2,188.3,202.3,186.6Z" transform="translate(-68.9 -102.3)"/><path class="cls-4" d="M226.7,185.6a19.8,19.8,0,0,1-3.5-.3c.1-.2,1.2-1.4,1.1-1.5s2.7,2.7,2.8.5-1.8-1.3-2.1-2.4,2.5.8,1.9-.8-2.8.7-2.7-.3.9-1.2.8-1,4.4,2.2,2-.9c-.1-.1,2.2-.1,2.3-.5s-2.2-.4-1.7-1.3,2.3.5,1.2-1.7c.1.1-2.6-.8-2.2-1.2s3.6-.1,3.5-.5-1.9,0-2.1-1,1,0,1.2-.2-2.5-.2-2.4-.1,3.4-4.6,3.5-4.4-1.5.7-2,.1,3-.9,3.1-1-1.9-.7-2-.5,5.5-.6,5.5-2-4.9-.1-5.4.1-1.1-.4-1.4-.3-1.8,2-2.9,2.1c1-.1,2.2-2.6.5-2.9-.2-.1-3.1,2-3.3,1.4s1.7-.8,1.7-1.2-6.1.5-6.1.4,8.3-.7,9.2-1.9-10.7-2.4-11.7-2.1l-2,.6h-1a54.8,54.8,0,0,0-5.7.5c-.2,0,.8.7.8.8s-1.6.2-1.4.5l2.2,1.7c-1.4.3-3.8-2.8-5.2-1.8s1,1.1,1,1.2-2.7-.8-2.6-.8-.1,1.6-.5,1.8c1.2-.7-1.4-1.7-1.8-1.7a2.2,2.2,0,0,0-2.2,1.2c-.6.2-1.5-.5-2.3-.2s.5,1.2-.2,1.6-5.7.2-5,1.9,3.5,0,.9,2.1c-.7.6-2.7.3-3.6,1-4.2,2.8,3.8.9,3.7,2.5s-4.2.2-4.1.6,2.9,1.9,3.7,1.9,3-1,5.1,0a7.9,7.9,0,0,1,4.1,4.7c.7,2.4-.8,2.6,1.6,2.6a15.8,15.8,0,0,0,2.2,2.3c-.1.1-2.8-1-2.8-.4s3.7.5,2.7,3.3c-.1.4-1.3-.2-1.6.7a4.5,4.5,0,0,0-.5,1.8c0,1.1,1.7,5.1,3,6.8a6.1,6.1,0,0,0,3,2.3c2.3,1,1.7,1.1,3-.8s-.3-1.4-.1-2,1.1-.3,1.3-.9,0-2.2.1-2.6h.8c.1,0,1.5-1.9,1.7-1.9a.6.6,0,0,1,.1.8c.3.8,3.5-2,3.6-2.1a7.6,7.6,0,0,1,2.1-1.4C222,187.7,224.8,186.8,226.7,185.6Z" transform="translate(-68.9 -102.3)"/><path class="cls-4" d="M144.9,175.8c.7-.4.7,0,1.2-.5a1.9,1.9,0,0,0,.6.7c.8,0,1.1-1.8,1.6-1.9s.2,1.6,1.4.4.4-.8.8-1.3-2.5-.1-2.9,0A9.5,9.5,0,0,0,144.9,175.8Z" transform="translate(-68.9 -102.3)"/><path class="cls-4" d="M150.2,175.1c-1.2.1.6.9.6.7a2.3,2.3,0,0,0-1.4.4c-.2.3,1.2.2,1,.2a2.5,2.5,0,0,0-1.4.6c.8,1.1,2.1,0,2.7-.4s1.8.8,2,.5-2.3.6-2.2,1,4.1-.4,4.6-.6c2-.9,2.6-.2,1.7-1.9.1.1-2.2-1.4-2.5-1.2s.6,1.6.4,2-2.6-1.1-3.1-1.3A4.9,4.9,0,0,0,150.2,175.1Z" transform="translate(-68.9 -102.3)"/><path class="cls-4" d="M163.6,183.6c1.5,1.1,3.2-3,2.3-3.1s-.4.5-.2.9-1.2-.7-1.2-.6,1.9-.9.5-1.8-.9.6-.9.6-3.1-.4-2,.5l1,.3c1.2,1-2.1.4-1.7.4S163.3,183.3,163.6,183.6Z" transform="translate(-68.9 -102.3)"/><path class="cls-4" d="M143.2,182.9a8.1,8.1,0,0,1,1.2,1.4c.9,0,1.8-1.3,2.2-1.6s2.8-1.7,3.9-2.6-5.2-2-5.9-1.8c-2.4.8-.4.3-1.1,1.6a11.7,11.7,0,0,0-1.4,2.7Z" transform="translate(-68.9 -102.3)"/><path class="cls-4" d="M147.6,176.4a1.2,1.2,0,0,0,1.2-.9C148.8,175.1,147.2,176.4,147.6,176.4Z" transform="translate(-68.9 -102.3)"/><path class="cls-4" d="M185.7,184.3a.8.8,0,0,0,.7-.7c.1.5-2.7-1-3-1.1s-.2-.8-1.3-1-1.7.9-1.7.9-.6,0-1.6,0,.5-4.3-3-2.2c-2,1.2-.3,1.9-.2,3.2s-1.6-.4-1.5-1.5,1.2-1.7,1.2-2.3-3.8,1.3-3.9,2.2,1.3,3.3,2,2.4-1.8-.2-1.7.2c.2,2.3,8.5.9,8.6,1.4a1.6,1.6,0,0,1-.4-.7c.1-.4,2.9,1.8,2.9,1.9a2.7,2.7,0,0,0-.7.8c.5.4,1.1-.5,2,.5s1,.8,1.2,2.4,3-.7,2.5.7-1.3-.3-1.7-.2a16.2,16.2,0,0,0-2,.3c-.1,0,.3,1,.3,1s-2.2.1-2.8.6c-2.4,2.1,2.5.8,3.2,1s4.8,5.3,5.8,3.8-1.8-2.6-2.1-2.5c1.5-.4,3.8,2.2,3-.5s-3.1-2.1-1.9-3.5,2.6,2,3,2l2-2.2c0-1.5-5.7-2.3-5.5-3.7l1.1-.3-1-.5c-.1-.8,1-.8-.5-.8,1.1,0-1.5-1.2-1.6-1.2Z" transform="translate(-68.9 -102.3)"/><path class="cls-4" d="M136.3,208.3c-.7.4.8,2.2,1.2,2S137.3,207.7,136.3,208.3Z" transform="translate(-68.9 -102.3)"/><path class="cls-4" d="M160.1,177.2c.3-.3-.5-1-.7-.4S159.9,177.5,160.1,177.2Z" transform="translate(-68.9 -102.3)"/><path class="cls-4" d="M179.5,198.3c.3,0,.8-1,.1-1S179.2,198.4,179.5,198.3Z" transform="translate(-68.9 -102.3)"/><path class="cls-4" d="M183.1,189.9c2-.3-1.9-1.8-1.2-1.2S180.8,190.3,183.1,189.9Z" transform="translate(-68.9 -102.3)"/><path class="cls-4" d="M176.4,197.4c.6.4,1.4-.6,1.3-.9S175.7,197,176.4,197.4Z" transform="translate(-68.9 -102.3)"/><path class="cls-4" d="M169.5,177.3c.3,1,8.5,1.4,9.5.7,3.8-2.7-8.1-1.4-7.9-2.3l.6-.6c.3-.4-6.4-1.8-5.9-.9S168.5,174.3,169.5,177.3Z" transform="translate(-68.9 -102.3)"/><path class="cls-4" d="M161.2,186.1c.2-.3,1.1.5,1.2,0s-2.8-2.4-3-3a12.9,12.9,0,0,1-.2-2.5c.3-.3.3-.6-.1-1a1.8,1.8,0,0,0-1.6.4l1,1c0-.2-1.8-.9-2-.5s.9,2.3.5,2.5-2.4-2.6-2.5-2l.6.7-1.3.2c-.9-2.5-1.7.5-2.6-.3s1.5-1.2-.3-1.2a4.5,4.5,0,0,0-2.8,1.6c-1.1,2.5,1.3.6,2.3,1.4s-2.1.6-2.1.9,5.1-.1,5.1,1-4.6,0-4.4.8,6.3,1.6,7.5,1.4l2-.2c.4,0,3.7,1.1,3.3-.2s-1.1.3-1.4-.4A2.1,2.1,0,0,1,161.2,186.1Z" transform="translate(-68.9 -102.3)"/><path class="cls-4" d="M192.1,213.2c.1.3,2.2,1.3,2.2.8S192.1,212.9,192.1,213.2Z" transform="translate(-68.9 -102.3)"/><path class="cls-4" d="M171.3,172.6c-.6-.3-1.4.4-.8.7S172,173,171.3,172.6Z" transform="translate(-68.9 -102.3)"/><path class="cls-4" d="M165.7,172.1c4.2,0-.8-2.4-1-1.9S165.2,172.1,165.7,172.1Z" transform="translate(-68.9 -102.3)"/><path class="cls-4" d="M166.1,168.2c.1,0,3.4,1.5,3.2,1s-1.5.7-1.4.8a4.5,4.5,0,0,0,4.2,1.5c.1-.1,3.1-2.7,3-2.3s-2.2-2.1-2.3-2.2-4.6-2.4-5-2.1.2.4.5.5-1.1,0-1.2.2l.6.5c-.2.5-1.5-.2-1.4.7a3.1,3.1,0,0,0,.9.7C167.3,168,164.9,167.5,166.1,168.2Z" transform="translate(-68.9 -102.3)"/><path class="cls-4" d="M178.6,179.7c-.9,2.1,3.7,1.6,3.7,1.2S178.9,179.1,178.6,179.7Z" transform="translate(-68.9 -102.3)"/><path class="cls-4" d="M168.6,172.3c-.1-.2-2.8.1-2.4.5A2.2,2.2,0,0,0,168.6,172.3Z" transform="translate(-68.9 -102.3)"/><path class="cls-4" d="M152,172.3c.2-.5-1.1-.4-1-.3S151.9,172.7,152,172.3Z" transform="translate(-68.9 -102.3)"/><path class="cls-4" d="M167.8,176.6c-.6-.5-2.3.6-2,.8S169.9,178.3,167.8,176.6Z" transform="translate(-68.9 -102.3)"/><path class="cls-4" d="M159.5,173.4c.3-.4-1.1-1.7-1.2-1.1S159.2,173.8,159.5,173.4Z" transform="translate(-68.9 -102.3)"/><path class="cls-4" d="M162.7,174.1c-.9-.4.3,1.3.2,1.2a3.1,3.1,0,0,0-1.3-.6c-.4.2.4,1,.1,1.1s-1.3-1.6-1.8-1.6.4,1.6.4,1.6,1.8.1,2.7.4,1.1,3,2.2.3S163.7,174.5,162.7,174.1Z" transform="translate(-68.9 -102.3)"/><path class="cls-4" d="M155,172.1c.6-.1-2.5-.9-2.5.3S155,172.1,155,172.1Z" transform="translate(-68.9 -102.3)"/><path class="cls-4" d="M153.3,171.3c.3.1,2.3.1,2.3-.3s-3.4.2-3.3.2Z" transform="translate(-68.9 -102.3)"/><path class="cls-4" d="M164.2,168.2c.2-.4-1.5-.8-1.1-.4S163.9,168.7,164.2,168.2Z" transform="translate(-68.9 -102.3)"/><path class="cls-4" d="M159.3,170.1a.8.8,0,0,1,1.1.5c-.1.2-1.4.2-1.3.3s6.9,2.8,3.4-.7a5.6,5.6,0,0,0-1.7-.9C157.7,169,159.5,169.9,159.3,170.1Z" transform="translate(-68.9 -102.3)"/><path class="cls-4" d="M179,195.3c0-.4-3.5-2.9-3.7-2.9s-2,2.3-1.8,3S179,195.1,179,195.3Z" transform="translate(-68.9 -102.3)"/><path class="cls-4" d="M170.5,164.3c1.3-.9.2.4.2.4h.8c-1.4,1.7,2.7,1.4,2.6,1.1.2,2.6,5.3-.9,5.9-.4s-3.1,1.6-3,1.8,1.4,1.1,1.2,1.1-5-2.9-4.3-.2c.2.6,3.5,1.8,3.5,2.4s-4.2-1.2-4.3.6,2.3-.2,2.3-.1.4,2.5.4,1.9-3.2-2-3.1-.5l1,.7c0,.3-2.8.5-2.2,1.2s9.2,1,9.7,0-3.2-.8-3.4-1.1,3.2-1.4,3.4-1.5,1.9.4,2.6-1.7-2.3-.7-2.3-.7c1.5-1.1,3.4-.6,4.8-1.3s5.7-2.9,5.7-3.3-2.3-.1-2.4-.1,5.1-2.2,5.1-2.2-4.9-1.6-4.9-.5a2.2,2.2,0,0,1,.7-.6c-.9.4-5.4.1-6,.2s-4.1-.3-5.9.2-8.9,2.9-9,2.6A1,1,0,0,0,170.5,164.3Z" transform="translate(-68.9 -102.3)"/><path class="cls-4" d="M199.2,211.5a5.2,5.2,0,0,0-1.7,2c-.1.2-1.7,1.8-1.1,2.2s2.8-1.3,3,.6c-.1-.6,2.1.2,2.2,0s-.6-1.6-.4-1.5-2.8-2-2.8-1.7A6,6,0,0,1,199.2,211.5Z" transform="translate(-68.9 -102.3)"/><path class="cls-4" d="M108.2,209c.5-.2.6-.4.5-.6S107.9,209.2,108.2,209Z" transform="translate(-68.9 -102.3)"/><path class="cls-4" d="M111.3,207.3c-.5-.2-1,.6-1.1.5S111.8,207.4,111.3,207.3Z" transform="translate(-68.9 -102.3)"/><path class="cls-4" d="M119.8,202.9c-.8,1-1.5,3,.2,1.2C120.3,203.9,120.7,201.8,119.8,202.9Z" transform="translate(-68.9 -102.3)"/><path class="cls-4" d="M109,200.3c-.4-.2-.6-.1-.8.3a1.6,1.6,0,0,0,1.2.4C110.6,200.5,108.9,200.2,109,200.3Z" transform="translate(-68.9 -102.3)"/><path class="cls-4" d="M247.5,224.4c-.1-.5-.9.1-.7.2S247.6,224.8,247.5,224.4Z" transform="translate(-68.9 -102.3)"/><path class="cls-4" d="M265.7,228.8c0-.3-2.3,0-2.2.1S265.8,229.6,265.7,228.8Z" transform="translate(-68.9 -102.3)"/><path class="cls-4" d="M271.8,229.2l.6-.8-1.8.6C270.2,229.6,271.9,229.6,271.8,229.2Z" transform="translate(-68.9 -102.3)"/><path class="cls-4" d="M232.4,194.6c2.5-.2.1-4.1-1.1-3.3a12.2,12.2,0,0,1-2.4,1,.7.7,0,0,0-.5-.4c-1.6,1.9,0-.6-2.2-.6-.4,0,.2.7.1.7s-1.1-.2-1.2.6,1.8.3,1.8.2-.2.7-.2.7-1.5,0-1.3.3,1.3.1,1.5.4-.4,1-.5.9C227.9,196.8,230.7,194.7,232.4,194.6Z" transform="translate(-68.9 -102.3)"/><path class="cls-4" d="M237.1,211.2c2.2,0,2.8-1.6,2.6-3.2s1-.6-.3-1.3a4.1,4.1,0,0,0-1.6.3c-.1,1.2,0,.2-1.2.8S236.6,211.2,237.1,211.2Z" transform="translate(-68.9 -102.3)"/><path class="cls-4" d="M243.7,200.5c.2-.2.4-1.1.1-1S243.6,200.6,243.7,200.5Z" transform="translate(-68.9 -102.3)"/><path class="cls-4" d="M239.6,202.6c-.2-.2-.8.8-.6.8S239.7,202.7,239.6,202.6Z" transform="translate(-68.9 -102.3)"/><path class="cls-4" d="M239.4,203.7c.8-.6,0,2.7,0,2.3s1.1.3.9.3a1.2,1.2,0,0,0,.5-.7c.4,0-.2,1.4-.2,1.5s1.3-.3,1.4-.2-.7,2.1-.6,3.1a1.1,1.1,0,0,0-.9.9,8.1,8.1,0,0,0,2,.3c.1.2-2.8.8-2.1,1.8s5.2-1.2,5.5-1.5-.6-.1-.5-.3.9-.6.5-1.7-.9-.5-1-.8-1.2-3.1-2.6-3,.9-1.5.8-1.7-1.1.1-1.7-.5,1.2-1.2.8-1.5S239.4,203.7,239.4,203.7Z" transform="translate(-68.9 -102.3)"/><path class="cls-4" d="M254.1,207c-.2,0,2-.6,1-1.3S254,207,254.1,207Z" transform="translate(-68.9 -102.3)"/><path class="cls-4" d="M259.9,203.3c-.5,0-.7,1-.6,1.1S260.3,203.3,259.9,203.3Z" transform="translate(-68.9 -102.3)"/><path class="cls-4" d="M262.4,203l.9-.6C263.8,201.8,261.5,203.1,262.4,203Z" transform="translate(-68.9 -102.3)"/><path class="cls-4" d="M263.1,201.9c.1-.2-.7-.2-.5,0A.3.3,0,0,0,263.1,201.9Z" transform="translate(-68.9 -102.3)"/><path class="cls-4" d="M259.6,167.7c.7.6,2-.1,2.8.4l-1.7.6c.5,1.1,6.4.6,6-1.1-.1-.2-3.9-.7-3.7-.8a.8.8,0,0,0-.2.9c-.3.2-1.8-1-2.2-1l-.5.7-.6-.5C258.8,166.9,259.5,167.6,259.6,167.7Z" transform="translate(-68.9 -102.3)"/><path class="cls-4" d="M254.6,169.3c-1.2-.3.6,1.9.9,2s1-1,1.5-1.2-.2.8.2.7a1.9,1.9,0,0,1,.8-.3c.4.5-2.5,1.6-2.1,1.7s1.5-.3,2.3-.1a8.8,8.8,0,0,0-2.3.7c0,.7,1.3.7,1.6.8s-.2.3-.4.3,1,.4,1.2.3a17.4,17.4,0,0,0,1.3-2c.1-.1,1.3-2.9,2-1.8s.3,2.4.1,2.4,3,.5,2.9-.8c0,.7-2.8-2.1-2.8-2a5.3,5.3,0,0,0-2.9-1c.4,0-.6-1.3-1-1.4s.1,2.4.2,2.2c.6-2.7-1.9-.6-1.9-.6l-.8-.7.7-.2C255.9,168.4,251.5,168.5,254.6,169.3Z" transform="translate(-68.9 -102.3)"/><path class="cls-4" d="M253.9,170.9l.5.4c-.2,0-.5-1.4-1-1.2S253.5,170.7,253.9,170.9Z" transform="translate(-68.9 -102.3)"/><path class="cls-4" d="M398.1,195.8a1.4,1.4,0,0,0-1,.4c.2.2,2.5.7,2.5.2A2,2,0,0,0,398.1,195.8Z" transform="translate(-68.9 -102.3)"/><path class="cls-4" d="M358.6,220.6c-.1-.8-1.9,2.6-1,2.1s.7-.5.7-.4l-.5-.6c0,.2,5.2.1,5-2.1.1,1.2-4.4-.8-3.8-1.2Z" transform="translate(-68.9 -102.3)"/><path class="cls-4" d="M349,231.6c.3.6.5-.7.7-.1s-.4,2,.2,1.8,1.4-1.8.6-2.1S348.4,230.3,349,231.6Z" transform="translate(-68.9 -102.3)"/><path class="cls-4" d="M351.9,231.4c.2-.7,1.2.2,1.2-1s-1.3,0-1.3.1S351.7,232.2,351.9,231.4Z" transform="translate(-68.9 -102.3)"/><path class="cls-4" d="M353.7,228.8s-4,.1-3.7,1.5,3.4-.3,3.6-.3.7.5.9.5.1-.8.2-.9,2.5.4,3.2-.5,1.6-5.5.7-6-1.7,3-2.2,3.7S353.8,227.5,353.7,228.8Z" transform="translate(-68.9 -102.3)"/><path class="cls-4" d="M333.3,245.1c.1-.4.3-.7.4-1.1s-2.1-.1-1.7.7S333.2,246.4,333.3,245.1Z" transform="translate(-68.9 -102.3)"/><path class="cls-4" d="M341.7,241.9c.4-.3,1.3-2.3,1-2.7S340.8,242.6,341.7,241.9Z" transform="translate(-68.9 -102.3)"/><path class="cls-4" d="M340.9,247.4c-.5,1.8,5.4,4.3,4.2,5.7,1.9-2.3-2.3-3.2-2.7-4.2s1.5-2.5,0-3.4S341,247.3,340.9,247.4Z" transform="translate(-68.9 -102.3)"/><path class="cls-4" d="M339.9,253.1a4.9,4.9,0,0,0-1,1.5c-.1-.2,2.1-1.6,1.7-2.4A1.3,1.3,0,0,0,339.9,253.1Z" transform="translate(-68.9 -102.3)"/><path class="cls-4" d="M341.4,250.1c.1.3.2,1.1.8.9S341.4,249.8,341.4,250.1Z" transform="translate(-68.9 -102.3)"/><path class="cls-4" d="M344.8,253.2c-.2-.2-.7.3-.6.5S345,253.5,344.8,253.2Z" transform="translate(-68.9 -102.3)"/><path class="cls-4" d="M345.6,253.7s-3.5,2.2-2.9,2.2.8-.9,1.4-.5.2,1.8,1.4,1.8c-.9,0,.9-1.8.8-1.5A1.9,1.9,0,0,0,345.6,253.7Z" transform="translate(-68.9 -102.3)"/><path class="cls-4" d="M342.7,251.4a.9.9,0,0,0,0,1.2c1.5-.3-.5,1.2.7,1.4S344.4,251,342.7,251.4Z" transform="translate(-68.9 -102.3)"/><path class="cls-4" d="M366.9,266.5c0,1.1-2.7.4-2.7.7s4.1.1,3.2-1S367,266.2,366.9,266.5Z" transform="translate(-68.9 -102.3)"/><path class="cls-4" d="M368,266.4c.7-.2-.6-1.1-.7-1.1S367.7,266.5,368,266.4Z" transform="translate(-68.9 -102.3)"/><path class="cls-4" d="M363.4,268.3c.6,0-2.1-2.3-2.7-2.6s-4.1-2.1-5.5-2-1,1.3-1.5,1.2-.4-1.3-1.1-1.5-.6-1-1.7-.8-1.3.8-.9.9,2.3,1.2,2.3.9-1.3.1-1.4.2,2.2,1.4,2.4,1.5,2.1.5,2.8,1.7-1,1.2-.7,1.8,4.4.1,4.8.1,1.1,0,2.6.7c-.1,0,3.4,1.7,3.1,1.1S362.7,268.2,363.4,268.3Z" transform="translate(-68.9 -102.3)"/><path class="cls-4" d="M309.6,253.4c-.5.1-.5,3.1.1,3.4S311,253.3,309.6,253.4Z" transform="translate(-68.9 -102.3)"/><path class="cls-4" d="M284.1,272.8s-1.1,2-1.3,2.2-1.8.8-2.2,1.2-.4,1.9-.6,3.8-1.7,6.7,1.9,4.9,1.7-6.9,2.4-8.8c.1-.3.7.5.7-.5A9.2,9.2,0,0,0,284.1,272.8Z" transform="translate(-68.9 -102.3)"/><path class="cls-4" d="M287.7,250.9c.2.3.8-.1.8-.2S287.4,250.5,287.7,250.9Z" transform="translate(-68.9 -102.3)"/><path class="cls-4" d="M373.5,270.7c0,.4.6.6.8.5S373.4,270.3,373.5,270.7Z" transform="translate(-68.9 -102.3)"/><path class="cls-4" d="M370.9,268.3c0,.1.6.7.7.6S371,268.1,370.9,268.3Z" transform="translate(-68.9 -102.3)"/><path class="cls-4" d="M373.6,269.8c.2-.1-1.1-.9-1.1-.6S373.4,270,373.6,269.8Z" transform="translate(-68.9 -102.3)"/><path class="cls-4" d="M369.4,267.2c-.1.2.7,1.4,1,1.2S369.4,266.9,369.4,267.2Z" transform="translate(-68.9 -102.3)"/><path class="cls-4" d="M374.3,269.8c-.2.4.6,1.2.7,1.2S374.5,269.5,374.3,269.8Z" transform="translate(-68.9 -102.3)"/><path class="cls-4" d="M374.9,271.6c.1.1.6.5.8.3S374.9,271.4,374.9,271.6Z" transform="translate(-68.9 -102.3)"/><path class="cls-4" d="M349.3,272.8c.1.2,1,0,1-.3S349,272.6,349.3,272.8Z" transform="translate(-68.9 -102.3)"/><path class="cls-4" d="M368.3,288s-.4-2.6-.2-2.5c-1.5-.7-3.8-3.9-4.9-5.6a33.3,33.3,0,0,1-1.7-4.2c-.4-.8-1.1-.2-1.3-.8s0-2.4-.8-3.1-.9,3.9-.9,3.9c-.8,2.3-.3,2.4-2.4,1.6s-2.4-1.1-2.5-1.9,1.4-1.8,1.2-2.2-3.8-1.1-3.9-1.1a.4.4,0,0,0,.3.6c-1.1-1.2-2.8,3.3-2.3,3.2s-1.6-.3-1.1,0c-1.3-.8-1.1-1.5-2.7-.4s-.7,1.7-1.3,2.4-.3-.9-.5-.7-.2,1.3-1,1.9a7.7,7.7,0,0,1-2.5,1.4,12.2,12.2,0,0,0-3.5,2c-.2-.2-.2-.3-.1-.5a12.3,12.3,0,0,0-.4,1.6c0,.5.4,2.3.3,2.6a1,1,0,0,1-.5-.4l.3.6-.6-.5c-.2.6,1.5,3.6,1.6,4.3a17.7,17.7,0,0,1,0,3.3c1.1,2.3,2.7.8,4.5.2a25.5,25.5,0,0,0,3.9-1.3c1.1-.4,3.5-1.2,4.7-1s4.5,3,3.7,3.4,1.8-2,1.9-1.9-.8,1.6-.9,1.9,1.3-.9.9-.5.3,1.3.2,1.2,1.8,2.3,2,2.4,3.5.1,3.5.1a.6.6,0,0,1,0,.6c-.2-.3.9.3,1.1.6s3-1.6,2.9-1.5.9-3.4,1.3-4.3S368,288.2,368.3,288Z" transform="translate(-68.9 -102.3)"/><path class="cls-4" d="M354.4,295.9a.7.7,0,0,0,.9-.2C355.4,295.5,354.2,295.7,354.4,295.9Z" transform="translate(-68.9 -102.3)"/><path class="cls-4" d="M362.5,301.3a3.3,3.3,0,0,1-1.4-.4c.2-.1,0,3.7,2.1,2.7S364.6,301.1,362.5,301.3Z" transform="translate(-68.9 -102.3)"/><path class="cls-4" d="M379.9,308c.1,0,.5-.1.3-.4S379.6,307.9,379.9,308Z" transform="translate(-68.9 -102.3)"/><path class="cls-4" d="M388,298c-.5.9-1.5-1.3-1.6-1.3a.7.7,0,0,0-.1.5,7.2,7.2,0,0,0-1.9-2.4l1.3,2.7c.4,1.1-.8,1.1-.8,1.7a18.3,18.3,0,0,1,.8,2.5C386.8,303.6,389,296.2,388,298Z" transform="translate(-68.9 -102.3)"/><path class="cls-4" d="M385.1,301.2c-1-.8-7.1,4.6-5.3,5.8S385.9,301.9,385.1,301.2Z" transform="translate(-68.9 -102.3)"/><path class="cls-4" d="M389.1,277.6c.2.1.8-.1.8-.5S388.8,277.5,389.1,277.6Z" transform="translate(-68.9 -102.3)"/><path class="cls-4" d="M387.9,278.7c.3.3,1,.3,1-.3S387.7,278.4,387.9,278.7Z" transform="translate(-68.9 -102.3)"/><path class="cls-4" d="M283.8,166.8l-.8.5c.3.8,3.5-.7,3.5-.9S284,166.6,283.8,166.8Z" transform="translate(-68.9 -102.3)"/><path class="cls-4" d="M288.3,167.3c0-.5-1.3,0-1,.1S288.3,167.7,288.3,167.3Z" transform="translate(-68.9 -102.3)"/><path class="cls-4" d="M282.6,166.6a2.3,2.3,0,0,1,1.4-.2c.2-.5-2.8,0-2.7.2A.9.9,0,0,0,282.6,166.6Z" transform="translate(-68.9 -102.3)"/><path class="cls-4" d="M283.9,187.6c.6.7,1.1-.3,1.4-.4S282.6,186.3,283.9,187.6Z" transform="translate(-68.9 -102.3)"/><path class="cls-4" d="M289,179.7a38.5,38.5,0,0,0-2.7,3c0,.1,1.4,1.3,1.3,1.3s-.1-.4.1-.5,3.5,3,3.6,1.3-1.6-1.5-1.6-2.1.6-1.4.9-2a16.6,16.6,0,0,1,1.6-2.1c1.1-1,8.8-4.2,8.5-4.5s-7.7,1.5-8.9,2.2A30.6,30.6,0,0,0,289,179.7Z" transform="translate(-68.9 -102.3)"/><path class="cls-4" d="M364.6,178a2,2,0,0,0,2-.4C366.8,175.8,358.8,177.6,364.6,178Z" transform="translate(-68.9 -102.3)"/><path class="cls-4" d="M358.5,179c0-.4-1.3.1-.8.3S358.5,179.4,358.5,179Z" transform="translate(-68.9 -102.3)"/><path class="cls-4" d="M324.5,171.9c.5.3,4.8-.4,4.9-1.2s-2.5-1.1-2.4-.5C326.6,166.5,325.1,172.3,324.5,171.9Z" transform="translate(-68.9 -102.3)"/><path class="cls-4" d="M320.8,168.2l-.6.8c1.3,1.2,4.2,2,4.4,0S320.8,167.8,320.8,168.2Z" transform="translate(-68.9 -102.3)"/><path class="cls-4" d="M319.5,167.5c.8.3-.7.4-.7.4s1.5.1,1.9,0,2.9-.9,2.5-1.5C321.2,164,319.2,167.3,319.5,167.5Z" transform="translate(-68.9 -102.3)"/><path class="cls-4" d="M334.9,178.5c-.6,1.2.9.3.9.1A.6.6,0,0,0,334.9,178.5Z" transform="translate(-68.9 -102.3)"/><path class="cls-4" d="M288.8,166.3c.4.4,2.7.5,2.8-.3s-1.9-.6-2-.6S289,166.5,288.8,166.3Z" transform="translate(-68.9 -102.3)"/><path class="cls-4" d="M318.9,165.6c.1-.4-1.5-.2-1.1.2S318.8,166,318.9,165.6Z" transform="translate(-68.9 -102.3)"/><path class="cls-4" d="M390.6,184.6c.1.1,2.2,0,1.8-.5s-3.1.5-3,.6Z" transform="translate(-68.9 -102.3)"/><path class="cls-4" d="M355.4,177.3a4,4,0,0,0,2.6.6c.7-.2,2.3-1.1,1.7-1.4s1.2,2.2,1.7.6-.8-1-1.9-1.3h-2.1C357.7,175.6,353.6,176.3,355.4,177.3Z" transform="translate(-68.9 -102.3)"/><path class="cls-4" d="M360.4,180.7c1.3-.3-3.3-1.8-2.4-.4S360,180.8,360.4,180.7Z" transform="translate(-68.9 -102.3)"/><path class="cls-4" d="M396.8,192.9l.9.2c.2,0-.3-.3-.2-.3s1.6-.5,1.1-.7-3.7-2.2-3.7-1.4c.1-.9.4,1.4.2.9-.6-2.2-5.3-4.7-7.9-5.3a10.8,10.8,0,0,0-4.8.2c.1-.1.6,1.1-.1,1.5s-1.9-1.2-1.5-1.3.8.6.9-.2-3,.3-3.5.3a15.5,15.5,0,0,1-2.2-.1c-1-.1-.5.7-.9.9s-1.3-1.5-1.2-1.5c-1.5-1.2-1.3-1.4-3.9-1.6-.8-.1-4.7,0-5.1-1.2s1.2,0,.8-.5-3.9.1-3.9.3l.6-.5-.9-.3c-.3-.4,1.2,0,1.3-.2s-6.6-.6-5.9.4h.6c-.4-.3.1,1.6,0,1.1s-1.5-.2-1.8,0l.5.3-4.6-.9c-.3-.1-.8,1.8-1.4,1.7s-1.7-2.3-2.2-2.3a1.5,1.5,0,0,0,.9.2c1.2-.7-3.1-3.3-4-3.1s-.8,1.6-1,1.6-3.8,0-3.9-.4.4-.5.2-.6c-1.8-.5-3.2.4-4.3.5s.1-1-.4-1.1-3.1,0-2.8.3h.5c0,.4-3.6,1-3.7,1.2.8-2,6.7-2.6,6.2-4.7-.1-.6.3-1.1-1-1.7s-3,.4-4.5,0l.6-.8c0,.2-2.1-.4-2.3-.3s1.4-.3,1.1-.7-3.1.4-3.9,1-1.6,2.3-1.7,1.1l.6.4c.1-.3-2.3.2-2.4.2l.2-.5a20,20,0,0,0-2.6.5,1,1,0,0,0,.5.4c0-.3-3.9,1-4.2,1.1s-.4.4-.8.9h-.7c-.1.1.8.5.8.6h-.6s.9.6.5,1a15,15,0,0,1-2.2.2c-6,1.3,0,1.7-1.2,3.3s-3.4-2-4.3-1.2.9.9.7.9-1.1-.5-1.5.1,2.2,1.3,2,1.6l-2.6-.6c-.5-.6.9-2.2-.2-2.6s-1.7,4.8-1.3,5.4,3.3.7,4.1,3.1-2.2-1.7-1.1-1.3c-.8-.3-.5-1-1.6-.8s0,1.1-.6,1.8-1.5,2-2.3,2.2-2.5-.1-2.3-.7,2.9-.3,3.4-1.9-.2-1.8-.4-3,.1-3.8.1-3.8c-1.7-2.8-4.6.4-4.7,2.4,0-.6-.1,2.1-.2,1.7s3.1,2,1.3,2.3-6.4-4.3-7.9-3.4c.4-.2,2.7,4.1.5,3.1s0-.4-2.1-.2a16,16,0,0,1-3,.3c.3-.2.7-.4.7-.9s-4.3,1.7-4.9,2-.6,1.9-2.2.9.8-1,1-1.2-2.8-1.8-2.7-1.2.8,2.6.2,2.1c1.6,1.2-.3,1.1-.4,1.2-1.9,1.5-1.9-.2-2.3,2.6,0,.4-1.5-.5-1.8-.3l-.9-.6c-.6.2-.7.6-.3,1s1.3,2-.3.7-2.6-5.1-3.5-4.6c.6-.3,9.6,4,6.9-1-.5-.9-6.2-3.3-6.6-2.7l.6-.2c-.1-.7-1.5,0-1.6-.2s-1.3.5-1.6-.5,1.5-.2,1.5-.4-2.6-.1-2.2-.1.1-.9.1-1-1.1,1-1.4,1,.1-1-.1-.9l-1.2,1.3c-.4.1.8-1.4.8-1.4s-1.4.7-1.4.7-1.6,1.1-1,1,.2-1.8.3-1.4-1.2.1-1.2.4a2.1,2.1,0,0,1,.4.6h-.9l.4.4-1-.3c0-.1.3,1.1,0,.8s-.5-1-1.3-.6a7.9,7.9,0,0,0-1.7,1.4c0,.2.8-.1.7.5h-1.4a1.9,1.9,0,0,1,.2-.7,25.7,25.7,0,0,1-2.4,2.1c.6,0,2-1.6,2.7-.9v.7c-1.9.7-2.5,3.8-4.2,4.6s.7.6.4.7-1,.8-1.8,1.5-.7-.7-.7-.2-.6.2-1.1.9l.4.4c-.5-1.2-1.9,1.9-1.8,1.7-.3,1.8.9,1.2,1,1.5s-1.1.5-1.1.5v.8c0,.4.7-.4.9,0s-.5.5-.6.6,3.2.4,2.7.5,1-1.2,1.4-1.4,2,5.4,2.2,5.4,2.6-2.2,2.9-2.3-.3.4-.5.2,2-2.6,2-3.8-1.7-.8-1.2-2.9,1.3-1.4,2-2.3,1.3-2.8,2.3-3.2c4.5-1.5-1.1,3.8-1.2,4.1a6.7,6.7,0,0,0,.2,3.5c1.3,1.3,3.7.3,5,0a2.1,2.1,0,0,0,.4-.6,2.1,2.1,0,0,1-.4.6,2.5,2.5,0,0,1,1.6.6c.3.3-3.9.8-3.7.7-2.7,1.3-.1,1.2-.7,2s-1,.3-1.3.6-2.1.2-1.4,1.7-.7,2-1.6,2.3l-2.9.3c-1.3.2-.6.4-1.2-.5s-1.8,1-2,.8a.6.6,0,0,1,0-.6c-.4-.1-1.5,0-1.3-.9s.9.5,1,.1-.5-.3-.7-.6,1-2.1.4-2.7-1,1-1,1-.8-.3-.9,1.4,1.1,1.8.8,2.4-2.5.8-2.9,1.1a15,15,0,0,0-2.2,2.2,9.6,9.6,0,0,1-1.5,1.4,11.2,11.2,0,0,1-2.2.3c-.5.2.4,1,0,1.3s-1.7-.7-2-.2.4.4,1.1,1.5,2.5,3.4.2,4.5-3.6-.8-4.4-.4-.3.8-.7,2.3c-.7,3-.6,4.3,1.9,5.1a4.3,4.3,0,0,0,5-1.7c1.1-1.6,1.8-4.2,3.5-5.3a21.5,21.5,0,0,0,3.4-.5c1.7.1.6-.2,2.1,1-.1,0,5.7,5.2,4.1,5.2.9,0,.6-2.3.7-2.3a1,1,0,0,1,1,.3c-.6-.2-6.3-6.3-3.5-6.2.3,0,3.3,3.4,4.3,4a.4.4,0,0,1,.1-.3.4.4,0,0,0-.1.3c-.9-.6,2.5,5.2,2.5,3.9s-1.5,2.9.5,1.8a2.9,2.9,0,0,0-.2-.9c.2.1.4,0,.6,0s-.6-.3-.4-.5,1.1.3,1-.4-.7,0-1-.4a5.7,5.7,0,0,0-.3-1.8l.9.2c.6-.3,3.5-.2,4.2-1s-1.2-1.5-1.1-1.8a8.3,8.3,0,0,1,1.4-2.2c.3-.5.4-1.6,1.1-1.9s2.4-.1,2.5.5a2.4,2.4,0,0,1-1.1.6c0-.2.9,1.2.9,1.1l2.5-.7c.1-.2-2.3-.1-1.1-1.3s3-1.3,3.1-.9-1.9,1.9-1.8,2.2,4,1.9,3.9,3.2-2.3,1.2-3.6,1.2-.9-.6-1.5-.7a10.6,10.6,0,0,0-4.3.8c-2.1.6-4.4,1.6-2,4.1s2.3.6,3.5.7,3-.6,3.4-.4-.8,3.3-.9,3.6l.4.2h0v0l-.4-.2c-1.3,3-3.7,2.4-6.8,1.8-.9-.2-1.6-.6-2.4-.7s-.6-1.3-2.4-.3-.4,1.5-.5,1.5-5.6-1.1-6.8-2.4.8-2.2-.1-3.5-4.3-.1-5.3.1a15.1,15.1,0,0,0-3.8,1c-1.3.3-2.4.2-3.6.5s-.6-.1-1.5.4c.9-.5-2.1,2.2-1.7,1.6a16.7,16.7,0,0,0-1.2,2.3c-.4.6-.3,1.3-.8,2.1s-1.1.6-1.5,1.1a12.9,12.9,0,0,0-2.6,4.2c-.7,1.8-.3,2-.4,3.6s-.5,3-.5,4.4.8,2.2,1.6,3.4c1.7,2.8,3.7,5.4,7,5.7a15.2,15.2,0,0,0,5.2-.7c.2-.1,2.4-1.3,2.6-1l1.9,1c.3.1.1.8.5,1s.8-.4,1.1-.2,1.1.2,2,2.2c.2.4-.4,1.8-.3,2.1s.7,2,1.7,3.9,2,4.4,1.8,6.2-1.6,3.4-1.7,5.4,1.8,4.6,2.1,6a44.9,44.9,0,0,0,2.1,6.5c1.2,3.3.2,4,3.9,3.6s5.5-1.6,7.4-5.1a14.2,14.2,0,0,0,.6-2.8c1.3-1.9,2.1-.9,2.4-3.2s-.8-1.7.1-3.4,2.8-1.5,3.6-2.6-.1-5.2-.6-7.7.9-4.5,2.7-6.5,9.7-10.3,7-11.3-4.1,2-6.3.6h0a22.6,22.6,0,0,0-1.7-3c-1-1.2-2.4-2.4-3-4.1s-3.9-10.7-4-10.6.8,2.3,1.3,2.3a2.9,2.9,0,0,0,.5-1.3c.6.3,2.3,4.2,2.6,4.9s2.3,3.9,3.3,6,.4,3.2,1,3.9,2.9,0,4.3-.6a21.1,21.1,0,0,0,7.1-4.3c.2-.1,2.2-2.5,2.1-3s-3.1-4-2.7-4-1.8,2.3-3.3,2.1,0-1.6-.8-1.8-.6.8-.6.8-2.5-4.3-1.6-4.8,4,2.8,5.2,3.4h1.7c.2,0,.6.7,1.1.9s2.9.2,4.3.3a4.9,4.9,0,0,1,3,.6c-.2-.1,2.6,2.5,2.6,1.8a1.5,1.5,0,0,1-1.1.4c-.6,3,3.5.5,2.8.2s3.9,20.9,6.2,8.8c.6-3.4,1.8-4,4.3-6.5.5-.5,3.5-3.3,4.2-2.9s1.5,5.4,2.3,6.2,1.4-3.4,2.7,1.9c.4,1.7-.1,3.7.3,5.2s3.3,7.1,4.7,6.3-1.8-4.3-2.3-4.9-3.2-5.2-.8-6c.7-.2,2.2,1.8,2.5,2.2a15.7,15.7,0,0,1,1.2,2.1c.2.1,1.8-1.5,1.9-1.6,2.5-2.4,1.5-3,.1-5.7s-2.1-3.4.3-4.4,1.1.2,1.9,1,6.6-3.5,7.3-4.4,2.4-4.9,2.7-4.8-.9,0-1.1-.2,1.2-1.7-.4-1.7c0,0,1.4-.1,1.2.1s-2.1-3.1-2.1-3.2,1.8-1.4,2.6-2-3.3-.6-2.3-.1a13.3,13.3,0,0,1-1.7-1.6c.1-.3,3.3-2.5,3.7-2.2s-.9,2.1-.7,2.1c2.6.1,1.2-1.6,3.3-.2-.9-.6.4,1.6.2,1.2s.9.2,1.1.8-.7,1.9-.3,2.5,2.4-.8,2.5-.9-.7-2.1-.9-3.1-.5-.1.3-2a10.5,10.5,0,0,1,2-2.7h0c1-.8,1.2.3,2.3-.1a8.8,8.8,0,0,0,2.5-2.6,14.4,14.4,0,0,0,2.9-5.8c.2-1.2,1-2.6.4-3.6s-1.5-.2-2.7-.1-.1-1-.1-1-.6.6-.6.6-1.3-1.7-1.3-1.2,2.2-2.2,2.8-2.7,2.6-2.9,5.1-3.2c.6-.1,5.9,0,5.7.3l-.5.2c-.4.3,3.3-.2,3.1-.4s2.8-4.4,4.3-3.4c-.2-.1-.1,1.6-.2,1.5s4.2-3.2,4.1-2.3-3.5,4-4.7,5-2.2,1.1-2.9,3.2-.2,5.4.8,6.5,5.2-6.4,5.3-6.5-.1-2.3,0-1.9-1.3-.7.1-2.4a8,8,0,0,1,2.2-1.2.8.8,0,0,1,.1.7c-.3-1.3,3.5-.1,3.4,0s1.7-1.5,2.5-2,3.8-1.2,4.1-1.4c2-2-1.2-1.9-1.6-3.3.2.5,2.9-.5,3.3-.8s-.2-.9.8-1.4c-.6.3,4.1,3.7,5,2.8a.9.9,0,0,0-.3-.5S396.9,193,396.8,192.9Z" transform="translate(-68.9 -102.3)"/><path class="cls-4" d="M295.4,166.4c.8-1-3.1-.4-2.3.3A2.1,2.1,0,0,0,295.4,166.4Z" transform="translate(-68.9 -102.3)"/><path class="cls-4" d="M291.4,166.9l-1.2.4c-.4.6,2.5.5,2.7-.1S291.3,166.8,291.4,166.9Z" transform="translate(-68.9 -102.3)"/><path class="cls-4" d="M291.2,165.5c.2,0,1.6-.5,1.5-.6s-2.5.4-2.5.3A1,1,0,0,0,291.2,165.5Z" transform="translate(-68.9 -102.3)"/><path class="cls-4" d="M359.3,211.7c.5,1.3-1,4.9-.2,6-.5-.7,1.2,0,1.2,0a16.6,16.6,0,0,1-.6-2.1c.6-1.5,1.2-.8,1.5-1.1s-1.9-6.2-1.6-6.4S359.1,211.1,359.3,211.7Z" transform="translate(-68.9 -102.3)"/><path class="cls-4" d="M301.8,180.9a2.8,2.8,0,0,0,1.3-.3C303.6,179.6,300.7,180.7,301.8,180.9Z" transform="translate(-68.9 -102.3)"/><path class="cls-4" d="M309.4,181c0-.4-.9.1-.6.3S309.5,181.4,309.4,181Z" transform="translate(-68.9 -102.3)"/><path class="cls-4" d="M297.2,166.3l.7-.4c.3-.8-2.1.2-2,.3A1.9,1.9,0,0,0,297.2,166.3Z" transform="translate(-68.9 -102.3)"/><path class="cls-4" d="M377.1,280.8c0,.3,2,2,2.3,1.8S377,280.5,377.1,280.8Z" transform="translate(-68.9 -102.3)"/><path class="cls-4" d="M181,239c-.4-.8.1,1.7.3,1.3A11.1,11.1,0,0,1,181,239Z" transform="translate(-68.9 -102.3)"/><path class="cls-4" d="M194.3,253c.6.1.7-.1.5-.6S194.1,252.8,194.3,253Z" transform="translate(-68.9 -102.3)"/><path class="cls-4" d="M331.4,264.7c0-.2-.6-.1-.4.2S331.4,265,331.4,264.7Z" transform="translate(-68.9 -102.3)"/><path class="cls-4" d="M336.4,269.8h.9c.5-.3-2.3-.8-2.2-.8a.7.7,0,0,1,.8-.6c-.7.5-6.9-1.6-6.5-.1S336.1,270.2,336.4,269.8Z" transform="translate(-68.9 -102.3)"/><path class="cls-4" d="M343.8,269.8c.6,0,.7-.1.2-.3a23.1,23.1,0,0,0-3.2.4C341.2,270.8,343.2,269.8,343.8,269.8Z" transform="translate(-68.9 -102.3)"/><path class="cls-4" d="M338.9,269.5c-.2.6-.8-.2-1,.2s2,.8,2.2.2S339,269.2,338.9,269.5Z" transform="translate(-68.9 -102.3)"/><path class="cls-4" d="M331.9,261.6c1.8,1.8.9,3.4,3.9,3.6s2.6-1.9,4.2-3.9a9.9,9.9,0,0,1-1-2.3c0-1,1.2-.9,1.4-1.5s-2.3-1.1-2.5-1.1-.4,1.6-1.8,1.5l-2.4,2.8C333.9,260.2,330.6,260.3,331.9,261.6Z" transform="translate(-68.9 -102.3)"/><path class="cls-4" d="M322.4,260.9c0,.2.2,1,.5.7S322.5,260.6,322.4,260.9Z" transform="translate(-68.9 -102.3)"/><path class="cls-4" d="M323.6,263.1c0,.1.2.7.4.5S323.8,262.7,323.6,263.1Z" transform="translate(-68.9 -102.3)"/><path class="cls-4" d="M329.6,266c-.1-1.1.5-.8.5-1.5s-1-1.2-1-.7l.5.7c-.2.5-2.7-3.3-2.8-3.4s-5.5-4.5-5.8-4,3.9,6.1,4.4,6.9S329.8,269.5,329.6,266Z" transform="translate(-68.9 -102.3)"/><path class="cls-4" d="M341.6,271.2c0-.7-1.4-.3-1.5-.4S341.6,271.9,341.6,271.2Z" transform="translate(-68.9 -102.3)"/><path class="cls-4" d="M340,264.5c-.1.2,1.5,2.5.9,2.8s0-2.9.6-2.6-.1,2.2,1.5,1c-.8.7,0-4.3.7-2.9s-3.6,1.1-2.7-.4,3.2.3,4.1-1.5c-.5,1-2.7-.3-3.4.2S340.6,263.3,340,264.5Z" transform="translate(-68.9 -102.3)"/><path class="cls-4" d="M347.6,265.1l2.1.5C350.6,265.6,347.1,263.6,347.6,265.1Z" transform="translate(-68.9 -102.3)"/><path class="cls-4" d="M347.7,260.9c0-1.7-1.5,1.9-.1,1.6S347.7,260.9,347.7,260.9Z" transform="translate(-68.9 -102.3)"/><path class="cls-4" d="M345,270.8c.4-.6,1.8-.6,2-1.2s-2.2.7-2.4.7-1.2.8-.6,1.1A1.1,1.1,0,0,0,345,270.8Z" transform="translate(-68.9 -102.3)"/><path class="cls-4" d="M345.9,265.1c.1.4.8.7,1,.3S345.8,264.6,345.9,265.1Z" transform="translate(-68.9 -102.3)"/><path class="cls-4" d="M251.4,223.2c-.2.4.3,2.8,1.2,1.6S252,222.1,251.4,223.2Z" transform="translate(-68.9 -102.3)"/><path class="cls-4" d="M256.6,226c.2,0-1.8-.2-1.6.4a5,5,0,0,0,1.7,1.1,14.7,14.7,0,0,1,.6-1.4A.6.6,0,0,0,256.6,226Z" transform="translate(-68.9 -102.3)"/><path class="cls-5" d="M268.7,195.7a3.7,3.7,0,0,0-3.8,3.7c0,1.9,3.5,6.3,3.5,6.3h.3s3.7-4.2,3.7-6.3A3.7,3.7,0,0,0,268.7,195.7Zm0,5.5a1.8,1.8,0,1,1,0-3.6,1.8,1.8,0,1,1,0,3.6Z" transform="translate(-68.9 -102.3)"/><path class="cls-5" d="M265.8,216.5a3.2,3.2,0,0,0-3.2,3.2c0,1.6,3,5.4,3,5.4h.2s3.3-3.6,3.3-5.4A3.2,3.2,0,0,0,265.8,216.5Zm0,4.8a1.6,1.6,0,0,1,0-3.2,1.6,1.6,0,0,1,0,3.2Z" transform="translate(-68.9 -102.3)"/><path class="cls-5" d="M288.9,205.7a8,8,0,0,0-8.1,8c0,4.1,7.5,13.6,7.5,13.6h.6s8.1-9.1,8.1-13.6A8.1,8.1,0,0,0,288.9,205.7Zm0,12a4,4,0,1,1,0-7.9,4,4,0,0,1,0,7.9Z" transform="translate(-68.9 -102.3)"/><path class="cls-5" d="M190.5,269.9a3.5,3.5,0,0,0-3.5,3.5c0,1.8,3.3,6,3.3,6h.2s3.6-4,3.6-6A3.6,3.6,0,0,0,190.5,269.9Zm0,5.3a1.8,1.8,0,0,1-1.7-1.8,1.8,1.8,0,0,1,1.7-1.7,1.8,1.8,0,0,1,1.8,1.7A1.8,1.8,0,0,1,190.5,275.2Z" transform="translate(-68.9 -102.3)"/><path class="cls-5" d="M334.6,221.1a4.7,4.7,0,0,0-4.8,4.7c0,2.4,4.4,8,4.4,8h.4s4.7-5.4,4.7-8A4.7,4.7,0,0,0,334.6,221.1Zm0,7a2.3,2.3,0,1,1,2.3-2.3A2.3,2.3,0,0,1,334.6,228.1Z" transform="translate(-68.9 -102.3)"/><path class="cls-5" d="M356.9,269.5a4.7,4.7,0,0,0-4.8,4.7c0,2.4,4.4,8,4.4,8h.4s4.7-5.3,4.7-8A4.7,4.7,0,0,0,356.9,269.5Zm0,7.1a2.4,2.4,0,1,1,0-4.7,2.4,2.4,0,0,1,0,4.7Z" transform="translate(-68.9 -102.3)"/><path class="cls-5" d="M167.4,213.9a4.7,4.7,0,0,0-4.7,4.8c0,2.3,4.4,7.9,4.4,7.9h.3s4.8-5.3,4.8-7.9A4.7,4.7,0,0,0,167.4,213.9Zm0,7.1a2.3,2.3,0,0,1-2.3-2.3,2.4,2.4,0,1,1,4.7,0A2.3,2.3,0,0,1,167.4,221Z" transform="translate(-68.9 -102.3)"/><path class="cls-5" d="M255.7,185.1a4.9,4.9,0,0,0-4.8,4.8c0,2.4,4.4,8,4.4,8h.4s4.8-5.4,4.8-8A4.9,4.9,0,0,0,255.7,185.1Zm0,7.1a2.3,2.3,0,1,1,2.3-2.3A2.3,2.3,0,0,1,255.7,192.2Z" transform="translate(-68.9 -102.3)"/><path class="cls-5" d="M133.8,182.2a4.7,4.7,0,0,0-4.7,4.8c0,2.3,4.4,7.9,4.4,7.9h.3s4.8-5.3,4.8-7.9A4.7,4.7,0,0,0,133.8,182.2Zm0,7.1a2.4,2.4,0,0,1,0-4.7,2.4,2.4,0,1,1,0,4.7Z" transform="translate(-68.9 -102.3)"/><path d="M318.6,302.1" transform="translate(-68.9 -102.3)"/><path class="cls-6" d="M205.5,269.4" transform="translate(-68.9 -102.3)"/><path class="cls-7" d="M216.5,275.2" transform="translate(-68.9 -102.3)"/><path class="cls-8" d="M219.4,270.4" transform="translate(-68.9 -102.3)"/></g><g id="Layer_10" data-name="Layer 10"><path class="cls-9" d="M243,321.3s-3.3,27.1-3.9,34.6-3.3,35.6-3.3,35.6l-3.8.3s-2-12.7-2-18.1-2-16-1.9-19.7-2.3-24.1-2-35.5S243,321.3,243,321.3Z" transform="translate(-68.9 -102.3)"/><path class="cls-10" d="M232.8,321.3s-3.5,27.1-4.2,34.6-3.6,35.6-3.6,35.6l-4,.3s-2.2-12.7-2.2-18.1-2.2-16-2-19.7-2.6-24.1-2.2-35.5S232.8,321.3,232.8,321.3Z" transform="translate(-68.9 -102.3)"/><path class="cls-11" d="M236.2,391.5s4.1,2.7,5.7,3.6,4.7,1.4,4.7,2-1.3.8-1.3.8H231.2a14.6,14.6,0,0,1,.4-3.4l.6-2.7Z" transform="translate(-68.9 -102.3)"/><path class="cls-11" d="M220.3,393s-1.8,4-.8,4.7,11,.4,13.7.2,5.9-1.2,5.6-1.9-9.3-1.9-10.6-2.6-4.5-2.7-4.5-2.7Z" transform="translate(-68.9 -102.3)"/><path class="cls-12" d="M220.4,392.7a37.2,37.2,0,0,0,4,.9l.7-2.1-.6-.6-3.2.9Z" transform="translate(-68.9 -102.3)"/><path class="cls-12" d="M232,392.7l3.9.9.7-2.1-.6-.7-3.2.9Z" transform="translate(-68.9 -102.3)"/><path class="cls-13" d="M229.9,342.4" transform="translate(-68.9 -102.3)"/><path class="cls-13" d="M221.9,334.3" transform="translate(-68.9 -102.3)"/><path class="cls-12" d="M251.4,321.4s3,3.7,3.6,5.3,1.6,5,.5,5-1.3-3-1.3-3,.2,2.8-.2,3.5-1-2.9-1-2.9-.3,3.1-.8,2.6a15.2,15.2,0,0,1-.7-3.5s-.9,3.3-1.3,2.5a6.8,6.8,0,0,1,0-2.9s-1.4-2.5-2.1-4.2a6.2,6.2,0,0,1-.5-2.4Z" transform="translate(-68.9 -102.3)"/><path class="cls-11" d="M244.6,297.7s2.8,7.1,3.7,10.8,3.8,12.7,3.8,12.7l-4.5,1.4s-4.2-7.4-5.9-11.2a44.5,44.5,0,0,1-2.4-6.3Z" transform="translate(-68.9 -102.3)"/><path class="cls-5" d="M242.5,324.1l-.8,8.2a66.5,66.5,0,0,1-6.7-2.6c-1.1-.7-.9-5.4.2-10.9s7.8-21.2,7.8-21.2Z" transform="translate(-68.9 -102.3)"/><path class="cls-12" d="M235.4,275.5a2.8,2.8,0,0,1,1.5,1.1,65.8,65.8,0,0,1,4.2,8.4c2,5.4-.4,45.2-2.7,42.9,0,0-2.2,3.1-3.3,3h-.5a2.6,2.6,0,0,1-1.2-.5,27.5,27.5,0,0,0-6-3.4c-3.5-1.5-8.2-6.6-9-7.4l-.3-.3-.8-.6a2.4,2.4,0,0,1-.8-2.2c1-6.1,5.1-30.9,5.3-34.6s4.7-6.1,7.4-6.8S233.9,275.1,235.4,275.5Z" transform="translate(-68.9 -102.3)"/><path class="cls-11" d="M236.1,278s3,5,3.2,9.8a59.2,59.2,0,0,0,1.2,7.6s1.3,19.7,2.3,23.1,2,8.1,2,8.1-.6-20.4-.1-24.8-4.3-22.5-6.1-24.4a17.3,17.3,0,0,0-4.5-3Z" transform="translate(-68.9 -102.3)"/><path class="cls-12" d="M204,335.9l-.8,5c-.2,1.7-2.1,2.2-2.3,3.8s-.1,2.3-.7,2a2.2,2.2,0,0,1-1-1.8s-5.1-1.7-5.4-2.4,6.9-6.5,6.9-6.5Z" transform="translate(-68.9 -102.3)"/><path class="cls-12" d="M236.5,273.2s-.8,6-.8,8.4a25.3,25.3,0,0,1-.1,3.1,61.4,61.4,0,0,1-5.3-5.9c-.8-1.6-1.9-4.1-1.9-4.1l1.4-5.9Z" transform="translate(-68.9 -102.3)"/><path class="cls-6" d="M240.3,252.7s3.2,1.9,3.1,7.2c0,2.2-1.3,6.1-2.2,8.9l-.3.9a5.5,5.5,0,0,0-.5,1.8,3.8,3.8,0,0,1-4.6,2.5c-1.8-.5-6.5-4.7-7.5-5.5s-2.1-3.8-1.9-8.3S232.6,249.4,240.3,252.7Z" transform="translate(-68.9 -102.3)"/><path class="cls-11" d="M227.6,274.8a103.2,103.2,0,0,0,3.5,13c1.9,4.7,1.5,19.1-1.5,26.8s-6.4,17-6.4,17l-9.5-8s3.9-14.6,3.8-18.3-1.3-27.8.3-28.1S219.7,276.5,227.6,274.8Z" transform="translate(-68.9 -102.3)"/><path class="cls-11" d="M221.1,276.3s-8.2.6-8.3,1.7-4.7,25.9-5.5,27.3-3.6,6-4,9.3-3.1,20.8-3.1,20.8l5,.2s7.8-18.7,8.4-21.9,10.4-29.4,10.1-31.1a14.3,14.3,0,0,0-1-3" transform="translate(-68.9 -102.3)"/><path class="cls-5" d="M162.5,395.4a2.3,2.3,0,0,0-2.4-2.3,2.3,2.3,0,1,0,0,4.6A2.3,2.3,0,0,0,162.5,395.4Z" transform="translate(-68.9 -102.3)"/><line class="cls-14" x1="125.8" y1="245.5" x2="93.3" y2="289.2"/><line class="cls-15" x1="130.4" y1="238.6" x2="124.7" y2="246.5"/><path class="cls-5" d="M159.2,390.9l-8.3-5.5a3.5,3.5,0,0,1-1-4.9l16.9-23.2a3.9,3.9,0,0,1,5.2-.9l8.3,5.5a3.5,3.5,0,0,1,1,4.9L164.4,390A3.9,3.9,0,0,1,159.2,390.9Z" transform="translate(-68.9 -102.3)"/><path class="cls-5" d="M145.5,379.8l4.9,3.2,16.3-22.4-6-3.9a3.9,3.9,0,0,0-5.4.9l-11.1,15.2A4.8,4.8,0,0,0,145.5,379.8Z" transform="translate(-68.9 -102.3)"/><path class="cls-11" d="M147,380.8l4.9,3.2,16.3-22.4-6-4a4,4,0,0,0-5.4,1l-11.1,15.2A4.8,4.8,0,0,0,147,380.8Z" transform="translate(-68.9 -102.3)"/><path class="cls-9" d="M161.8,357.3l-7.4,9.6a.7.7,0,0,0,.2,1.1l1.8,1.2a.8.8,0,0,0,1.1-.1l7.4-9.7Z" transform="translate(-68.9 -102.3)"/><path class="cls-11" d="M160.9,392l-8.4-5.5a3.4,3.4,0,0,1-.9-4.9l16.9-23.2a3.8,3.8,0,0,1,5.1-.9L182,363a3.5,3.5,0,0,1,1,4.9l-17,23.3A3.8,3.8,0,0,1,160.9,392Z" transform="translate(-68.9 -102.3)"/><polygon class="cls-12" points="93.1 288 91.3 292.8 92.2 293.3 95.5 289.5 93.1 288"/><path class="cls-9" d="M176.3,359.2,168,369.7a.9.9,0,0,0,.2,1.2l1.7,1.2a.8.8,0,0,0,1.2-.2l8.3-10.6Z" transform="translate(-68.9 -102.3)"/><path class="cls-5" d="M161.4,387.6l-5.3-3.6a2.9,2.9,0,0,1-.7-4.2l4.1-5.5a3.3,3.3,0,0,1,4.5-.7l5.2,3.6a3,3,0,0,1,.8,4.3l-4.1,5.4A3.3,3.3,0,0,1,161.4,387.6Z" transform="translate(-68.9 -102.3)"/><path class="cls-11" d="M162.2,388.4l-5.3-3.6a3,3,0,0,1-.7-4.3l4.1-5.4a3.3,3.3,0,0,1,4.5-.7l5.3,3.6a2.9,2.9,0,0,1,.7,4.2l-4.1,5.5A3.3,3.3,0,0,1,162.2,388.4Z" transform="translate(-68.9 -102.3)"/><path class="cls-12" d="M197.3,343.5c.3-1,3.6-5,2.2-4.1" transform="translate(-68.9 -102.3)"/><path class="cls-6" d="M52.8,235.3" transform="translate(-68.9 -102.3)"/><path class="cls-7" d="M80.5,249.9" transform="translate(-68.9 -102.3)"/><path class="cls-5" d="M244.9,251.3a15,15,0,0,0-9.6-1.8h-.4l-4.2,1.4a10.1,10.1,0,0,0-3.8,3.9,38.9,38.9,0,0,0-1.2,4.9,4.3,4.3,0,0,0,.2,1.1c.9,3,1,6.1,1.7,6.5l1.7,1.1v-1.5s-2.2-6,0-7.5,3.2-3.7,5.7-3.8,6.4.5,8.2,0l1.3-.4C246.5,253.5,246.7,252.8,244.9,251.3Z" transform="translate(-68.9 -102.3)"/></g><g id="Layer_9" data-name="Layer 9"><path class="cls-5" d="M320.2,255.5a17.4,17.4,0,0,0-6.3,7.3c-2.1,4.8-.9,8,1.5,10s4.9,6.2,5.2,7.5a5.8,5.8,0,0,1-.9,3s4.9,2.6,8.8,1.1,5.3-8.8,4-11.7-8.9-9.1-9.8-13-.4-4.9-.4-4.9Z" transform="translate(-68.9 -102.3)"/><path class="cls-16" d="M327.6,282.9l-5.9,1.2s-2.7.8-4.8,6.1-3.2,15.6-3.2,15.6l-1.1-1.7-2.5,3s4,8.8,5.9,9.1,5.1-5.6,5.1-5.6a84.6,84.6,0,0,1-1.8,9,58.6,58.6,0,0,0-3.1,18.3c0,9.7,5.3,22.5,6.6,27.3s1.2,8.9,2.2,13.6a110.2,110.2,0,0,1,1.7,13,43.1,43.1,0,0,1-3.5,3.7c-1.3,1.2,6.8.9,7.6.3s.9-2.4.9-3.7-.1-20.8-.1-20.8,9.8,16.5,9,18.5,2.7-2.9,2.7-2.9-1.5-12-2.5-16.6a81.2,81.2,0,0,0-3.1-9.6s8.2-15.9,9-25.8-3.8-22.9-3.8-22.9,4.2-11,4.3-18.3-2.2-8.6-5-9.9a13.2,13.2,0,0,0-4.5-1.4l-6-.6Z" transform="translate(-68.9 -102.3)"/><g class="cls-17"><path class="cls-18" d="M342.9,288.2a10.7,10.7,0,0,1,3.2-1.2l-.3-.5a21.6,21.6,0,0,0-3.1,1.1.3.3,0,0,0,.2.6Z" transform="translate(-68.9 -102.3)"/><path class="cls-18" d="M340,295.8v.6a5.3,5.3,0,0,1,2.1,1.1c.1.1.3,0,.4-.1s0-.3-.1-.4A7.3,7.3,0,0,0,340,295.8Z" transform="translate(-68.9 -102.3)"/><path class="cls-18" d="M346.5,298a.4.4,0,0,1,.2-.4h.1a1.3,1.3,0,0,0,.1-.6h-.3a1.1,1.1,0,0,0-.7.9,19.3,19.3,0,0,0,0,4.2c.1-.6.3-1.2.4-1.8A9,9,0,0,1,346.5,298Z" transform="translate(-68.9 -102.3)"/><path class="cls-18" d="M346.2,291.6a.3.3,0,0,0,0,.4c0,.1.1.1.2.1h.2l.5-.8a2.8,2.8,0,0,0-.1-.9A6,6,0,0,1,346.2,291.6Z" transform="translate(-68.9 -102.3)"/><path class="cls-18" d="M342.5,309.7c.1.1.3.2.4.1l.9-.4a2.5,2.5,0,0,1,.2-.7l-1.3.6C342.5,309.4,342.5,309.5,342.5,309.7Z" transform="translate(-68.9 -102.3)"/><path class="cls-18" d="M342.5,319.1c.1-.2,0-.3-.1-.4a4.8,4.8,0,0,0-2.4-1.2v.6a5.1,5.1,0,0,1,2.1,1Z" transform="translate(-68.9 -102.3)"/><path class="cls-18" d="M346,324.3c0-.2-.1-.3-.1-.4v.3A.1.1,0,0,1,346,324.3Z" transform="translate(-68.9 -102.3)"/><path class="cls-18" d="M335.4,286.4a.3.3,0,0,0,0,.4h.4c.1-.1,2.1-2.6,1.7-4.5h-.6C337.4,283.5,336,285.7,335.4,286.4Z" transform="translate(-68.9 -102.3)"/><path class="cls-18" d="M332.1,282.9l2.3-.9H333l-1.1.5c-.1.1-.2.2-.1.4A.2.2,0,0,0,332.1,282.9Z" transform="translate(-68.9 -102.3)"/><path class="cls-18" d="M328.3,289a2.8,2.8,0,0,0,0-1.8.9.9,0,0,0-.6-.6c-1.5-.6-4.7,1-4.9,1s-.2.3-.1.4.2.2.4.2,3.3-1.5,4.4-1.1.3.2.3.4a1.9,1.9,0,0,1,0,1.5Z" transform="translate(-68.9 -102.3)"/><path class="cls-18" d="M320.2,295.8v.6a5.3,5.3,0,0,1,2.1,1.1.2.2,0,0,0,.3-.1.3.3,0,0,0,0-.4A8.6,8.6,0,0,0,320.2,295.8Z" transform="translate(-68.9 -102.3)"/><path class="cls-18" d="M339.4,295.9a1.3,1.3,0,0,0-.6.9,13,13,0,0,0,0,4.6.2.2,0,0,0,.2.2h.1c.1,0,.2-.1.2-.3a14.7,14.7,0,0,1,0-4.4c0-.3.2-.4.3-.4h.4v-.6Z" transform="translate(-68.9 -102.3)"/><path class="cls-18" d="M326.7,297a1.3,1.3,0,0,0-.6.9,21.6,21.6,0,0,0,0,4.6c0,.1.1.2.3.2h0c.1,0,.2-.1.2-.3a19.6,19.6,0,0,1,0-4.4c.1-.3.2-.4.3-.4s1.9.5,2.6,1,.2,0,.3-.1a.3.3,0,0,0,0-.4C329.6,298,327.7,296.6,326.7,297Z" transform="translate(-68.9 -102.3)"/><path class="cls-18" d="M335.4,308.5h.4c.1-.1,2.3-2.9,1.6-4.7a1,1,0,0,0-.7-.7c-1.4-.6-4.7,1-4.8,1.1s-.2.2-.1.4a.2.2,0,0,0,.3.1c.9-.4,3.4-1.5,4.4-1.1a.8.8,0,0,1,.4.4c.5,1.2-.9,3.4-1.5,4.2A.3.3,0,0,0,335.4,308.5Z" transform="translate(-68.9 -102.3)"/><path class="cls-18" d="M326.3,291.6c-.1.1,0,.3.1.4a.1.1,0,0,0,.1.1c.1,0,.2,0,.2-.1a9,9,0,0,0,1.6-3h-.5A8.5,8.5,0,0,1,326.3,291.6Z" transform="translate(-68.9 -102.3)"/><path class="cls-18" d="M322.7,309.7c.1.1.2.2.4.1s3.3-1.5,4.4-1a.5.5,0,0,1,.3.3,2.2,2.2,0,0,1,0,1.6h.5a2.8,2.8,0,0,0,0-1.8,1.3,1.3,0,0,0-.6-.7c-1.5-.6-4.7,1-4.9,1.1S322.6,309.5,322.7,309.7Z" transform="translate(-68.9 -102.3)"/><path class="cls-18" d="M332.8,290.5a.2.2,0,0,0-.3,0c-.2.3-1.5,2.4-1.2,3.7a1.4,1.4,0,0,0,.8.9,2.5,2.5,0,0,0,1.2.2,4.6,4.6,0,0,0,2.4-.8.2.2,0,0,0,.1-.4c-.1-.1-.2-.2-.4-.1a3.4,3.4,0,0,1-3.1.5.6.6,0,0,1-.5-.5c-.2-.9.7-2.6,1.1-3.1S333,290.6,332.8,290.5Z" transform="translate(-68.9 -102.3)"/><path class="cls-18" d="M320.2,317.5v.6a5.1,5.1,0,0,1,2.1,1h.3c.1-.2.1-.3,0-.4A5.3,5.3,0,0,0,320.2,317.5Z" transform="translate(-68.9 -102.3)"/><path class="cls-18" d="M339.4,317.6a1.1,1.1,0,0,0-.6.9,12.4,12.4,0,0,0,0,4.5c0,.2.1.3.2.3h.1c.1,0,.2-.2.2-.3a14.9,14.9,0,0,1,0-4.4.6.6,0,0,1,.3-.5h.4v-.6Z" transform="translate(-68.9 -102.3)"/><path class="cls-18" d="M326.7,318.7a1.1,1.1,0,0,0-.6.9,21.6,21.6,0,0,0,0,4.6c0,.1.1.2.3.2h0c.1,0,.2-.2.2-.3a19.6,19.6,0,0,1,0-4.4,1.1,1.1,0,0,1,.3-.5c.6-.2,1.9.5,2.6,1.1h.3a.3.3,0,0,0,0-.4C329.6,319.6,327.7,318.3,326.7,318.7Z" transform="translate(-68.9 -102.3)"/><path class="cls-18" d="M335.4,330.1h.4c.1-.1,2.3-3,1.6-4.8a1.1,1.1,0,0,0-.7-.6c-1.4-.6-4.7,1-4.8,1s-.2.3-.1.4.2.2.3.2,3.4-1.5,4.4-1.1a.8.8,0,0,1,.4.4c.5,1.2-.9,3.4-1.5,4.1A.3.3,0,0,0,335.4,330.1Z" transform="translate(-68.9 -102.3)"/><path class="cls-18" d="M327.8,310.7a12.4,12.4,0,0,1-1.2,2.3l-.3.3c-.1.1,0,.3.1.4h.3l.4-.6a6.7,6.7,0,0,0,1.2-2.4Z" transform="translate(-68.9 -102.3)"/><path class="cls-18" d="M332.8,312.1c-.1-.1-.2,0-.3.1s-1.5,2.3-1.2,3.7a1.1,1.1,0,0,0,.8.8,2.7,2.7,0,0,0,1.2.3,3.6,3.6,0,0,0,2.4-.9c.2,0,.2-.2.1-.4h-.4a3.4,3.4,0,0,1-3.1.5.8.8,0,0,1-.5-.5c-.2-.9.7-2.6,1.1-3.2A.2.2,0,0,0,332.8,312.1Z" transform="translate(-68.9 -102.3)"/><path class="cls-18" d="M331.7,391Z" transform="translate(-68.9 -102.3)"/><path class="cls-18" d="M319.5,295.9a1.3,1.3,0,0,0-.6.9,21.6,21.6,0,0,0,0,4.6c0,.1.2.2.3.2h0c.2,0,.3-.1.2-.3a19.6,19.6,0,0,1,0-4.4c.1-.3.2-.4.3-.4h.5v-.6Z" transform="translate(-68.9 -102.3)"/><path class="cls-18" d="M312.3,304.6l.4-.2v-.3l-.4.5Z" transform="translate(-68.9 -102.3)"/><path class="cls-18" d="M316.9,303a4,4,0,0,0-2.8.3,1.3,1.3,0,0,0-.1.6,4.7,4.7,0,0,1,2.7-.4l.4.4c.5,1.2-.9,3.4-1.5,4.2a.3.3,0,0,0,0,.4h.4c.1-.1,2.3-2.9,1.5-4.7A.9.9,0,0,0,316.9,303Z" transform="translate(-68.9 -102.3)"/><path class="cls-18" d="M315.9,294.5c.1-.1.2-.3.1-.4h-.3c0,.2-.1.5-.1.7Z" transform="translate(-68.9 -102.3)"/><path class="cls-18" d="M319.2,323.3h0c.2,0,.3-.2.2-.3a21.7,21.7,0,0,1,0-3.8.8.8,0,0,0-.1.4,7.5,7.5,0,0,0-.5,1.6,16.2,16.2,0,0,0,.1,1.8A.3.3,0,0,0,319.2,323.3Z" transform="translate(-68.9 -102.3)"/><path class="cls-18" d="M319.7,318.1h.5v-.6h-.4c-.1.2-.1.5-.2.7Z" transform="translate(-68.9 -102.3)"/><path class="cls-18" d="M317.6,325.6a25.6,25.6,0,0,0-.5,2.7A4.2,4.2,0,0,0,317.6,325.6Z" transform="translate(-68.9 -102.3)"/><path class="cls-18" d="M315.6,315.7h-.2c.2.2.3.3.5.3h0c.1,0,.2-.2.1-.4Z" transform="translate(-68.9 -102.3)"/><path class="cls-18" d="M312.7,312.2l.3.5c0-.1.1-.1.1-.2s0-.3-.1-.4S312.8,312.1,312.7,312.2Z" transform="translate(-68.9 -102.3)"/></g><path class="cls-19" d="M327.6,282.9l-5.9,1.2s-2.7.8-4.8,6.1-3.2,15.6-3.2,15.6l-1.1-1.7-2.5,3s4,8.8,5.9,9.1,5.1-5.6,5.1-5.6a84.6,84.6,0,0,1-1.8,9,58.6,58.6,0,0,0-3.1,18.3c0,9.7,5.3,22.5,6.6,27.3s1.2,8.9,2.2,13.6a110.2,110.2,0,0,1,1.7,13,43.1,43.1,0,0,1-3.5,3.7c-1.3,1.2,6.8.9,7.6.3s.9-2.4.9-3.7-.1-20.8-.1-20.8,9.8,16.5,9,18.5,2.7-2.9,2.7-2.9-1.5-12-2.5-16.6a81.2,81.2,0,0,0-3.1-9.6s8.2-15.9,9-25.8-3.8-22.9-3.8-22.9,4.2-11,4.3-18.3-2.2-8.6-5-9.9a13.2,13.2,0,0,0-4.5-1.4l-6-.6Z" transform="translate(-68.9 -102.3)"/><path class="cls-12" d="M330.4,395.8a6.7,6.7,0,0,0,.9-3.7V377.3h-6.6l.3,1.5a126.5,126.5,0,0,1,1.6,13C326.1,393.4,330,397.6,330.4,395.8Z" transform="translate(-68.9 -102.3)"/><path class="cls-12" d="M344.3,393.7c.4-.3-1-7.3-1-7.3s-.6-4.6-1.3-9.1h-7.2c2.6,4.6,5.4,10.6,5.9,11.7A12.5,12.5,0,0,0,344.3,393.7Z" transform="translate(-68.9 -102.3)"/><path class="cls-1" d="M331.9,394.3a4.2,4.2,0,0,1-5-1.2c-1.5-1.6-2.8.9-4.9,1.6s-3.6,1.8-3.1,2.4,2.1.9,4.7.9a37.5,37.5,0,0,0,6.6-.7C331.1,397,331.6,395.6,331.9,394.3Z" transform="translate(-68.9 -102.3)"/><path class="cls-1" d="M344.6,389.8a4.1,4.1,0,0,1-2.2,1.8,16.4,16.4,0,0,0-.7-2c-.5-1-1.3.2-1.3.2a47,47,0,0,1-2.2,4.7c-.8,1.5-1.7,3.2-1.2,3.5s1.7.2,3.4-1a28.3,28.3,0,0,0,4.1-3.5C345,392.8,344.8,391.1,344.6,389.8Z" transform="translate(-68.9 -102.3)"/><path class="cls-5" d="M317.3,327.1a55.3,55.3,0,0,0-1.1,10.8c0,9.7,5.3,22.5,6.6,27.3s1.2,8.9,2.2,13.6c.2.9.4,1.8.6,2.9a11.4,11.4,0,0,0,6.1,0V371.3s2.9,5.3,5.4,10.2a9.9,9.9,0,0,0,5.4-1.1c-.5-3.6-1.1-7.8-1.6-10.1a81.2,81.2,0,0,0-3.1-9.6s8.2-15.9,9-25.8a44.2,44.2,0,0,0-.3-8.1,40.7,40.7,0,0,1-15.6,2.8C324.3,329.6,320,328.4,317.3,327.1Z" transform="translate(-68.9 -102.3)"/><path class="cls-13" d="M331,333.9s-3.7,20-3.8,24,3.6,11.6,3.6,11.6" transform="translate(-68.9 -102.3)"/><path class="cls-19" d="M321.1,310.6s-3.6-4.3-3.7-7.5,2.9-11.4,2.9-11.4" transform="translate(-68.9 -102.3)"/><path class="cls-12" d="M327.5,278.5a14.4,14.4,0,0,1,1.9,3.3c.1.9-1.3,1.4-1.3,1.4s-2.5,5.4-.2,7.8,5.4.1,6.5-1.8,1.9-6.5,1.9-6.5a25.1,25.1,0,0,1-3.9-4.4,31.1,31.1,0,0,0-3.2-4.1S328.2,277.8,327.5,278.5Z" transform="translate(-68.9 -102.3)"/><path class="cls-12" d="M318.4,262.9s-1.3,4.3-.6,6.6,2.2,2.5,2.3,3.2-.7,3-.6,3.3,1.9.8,1.9.8,2.5,3.8,3.5,3.8,2.8-1.3,3.5-2.4a26,26,0,0,0,1.3-3.2s-.8-2-4.4-4.1S318.5,265.4,318.4,262.9Z" transform="translate(-68.9 -102.3)"/><path class="cls-19" d="M324.2,274.3" transform="translate(-68.9 -102.3)"/><path class="cls-19" d="M322,275.9" transform="translate(-68.9 -102.3)"/><path class="cls-5" d="M320.2,255.5s-2.7,4.8-1.9,8.3,4,6.4,6.4,7.8,6.4,5.4,6.5,8-2.3,4.2-1.8,4.5,4.5,1.2,6.9-1.4,5.7-5.4,5.6-10.6-4.5-9.8-6.3-12.6-4.5-6.7-8.8-6.9A7.7,7.7,0,0,0,320.2,255.5Z" transform="translate(-68.9 -102.3)"/><path class="cls-20" d="M318.9,259.9s.2,5.8,5.7,7.3,13.9,5.9,13,12.6" transform="translate(-68.9 -102.3)"/><path class="cls-20" d="M323.5,255.9a7.6,7.6,0,0,0,5.2,6.5c5,1.9,12.1,5.3,12.9,11.2" transform="translate(-68.9 -102.3)"/><path class="cls-8" d="M4.4,249.5" transform="translate(-68.9 -102.3)"/><path class="cls-8" d="M-8.7,250.3" transform="translate(-68.9 -102.3)"/><path class="cls-8" d="M-8.5,251.1" transform="translate(-68.9 -102.3)"/><path class="cls-20" d="M318.8,255.4s-2,4.8-1.5,7.2" transform="translate(-68.9 -102.3)"/><path class="cls-16" d="M340.8,291.4l-2.9,14.2-18.3-6.2a21.9,21.9,0,0,0-2.3-6.3c-1.6-2.6-4.7-3.2-4.7-2.4s2.6,4.7,2.6,4.7-3.1-2.3-3.1-1.6,2.7,3.4,3.5,4,1,3.2,1.9,3.7,18.3,11.9,20.2,13.4,4.1-.5,4.4-1,4.9-8.9,7.1-14.8a12,12,0,0,0-2.8-12.9,12.4,12.4,0,0,0-3-1.8" transform="translate(-68.9 -102.3)"/><g class="cls-21"><path class="cls-18" d="M342.9,288.2c.8-.5,3.2-1.5,4.3-1.1l-.6-.7a15,15,0,0,0-3.9,1.2.3.3,0,0,0,.2.6Z" transform="translate(-68.9 -102.3)"/><path class="cls-18" d="M348.2,289v-.4a5.9,5.9,0,0,0-.4-.8,5,5,0,0,1-.2,1.2Z" transform="translate(-68.9 -102.3)"/><path class="cls-18" d="M340,296.4a5.3,5.3,0,0,1,2.1,1.1c.1.1.3,0,.4-.1s0-.3-.1-.4a7.3,7.3,0,0,0-2.4-1.2Z" transform="translate(-68.9 -102.3)"/><path class="cls-18" d="M346.6,297a1.1,1.1,0,0,0-.7.9,21.6,21.6,0,0,0,0,4.6l.3.2h0a.3.3,0,0,0,.3-.3,14.7,14.7,0,0,1,0-4.4.4.4,0,0,1,.2-.4c.6-.3,1.9.5,2.6,1h0c.1-.2.1-.4.2-.5S347.5,296.6,346.6,297Z" transform="translate(-68.9 -102.3)"/><path class="cls-18" d="M346.2,291.6a.3.3,0,0,0,0,.4c0,.1.1.1.2.1h.2a15.9,15.9,0,0,0,1.6-3h-.6A8.6,8.6,0,0,1,346.2,291.6Z" transform="translate(-68.9 -102.3)"/><path class="cls-18" d="M342.9,309.8l1.7-.7.3-.7a11.9,11.9,0,0,0-2.2.9c-.2.1-.2.2-.2.4S342.8,309.9,342.9,309.8Z" transform="translate(-68.9 -102.3)"/><path class="cls-18" d="M339,301.6h.1c.1,0,.2-.1.2-.3l-.2-1.9-.4,1.9h.1A.2.2,0,0,0,339,301.6Z" transform="translate(-68.9 -102.3)"/><path class="cls-18" d="M340,296.4v-.6h-.1l-.2.6Z" transform="translate(-68.9 -102.3)"/><path class="cls-18" d="M326.1,302.5c0,.1.1.2.3.2h0c.1,0,.2-.1.2-.3v-.7H326A5.1,5.1,0,0,1,326.1,302.5Z" transform="translate(-68.9 -102.3)"/><path class="cls-18" d="M331.8,304.5a.2.2,0,0,0,.3.1l1.3-.6-.8-.2-.7.3C331.8,304.1,331.7,304.3,331.8,304.5Z" transform="translate(-68.9 -102.3)"/><path class="cls-18" d="M335.6,308.5h.2a7.9,7.9,0,0,0,1.6-3l-.5-.2a9.7,9.7,0,0,1-1.5,2.9.3.3,0,0,0,0,.4Z" transform="translate(-68.9 -102.3)"/><path class="cls-18" d="M318.9,301.4c0,.1.2.2.3.2h0c.2,0,.3-.1.2-.3s-.1-1.5-.1-3a10.3,10.3,0,0,0-.4-1.4A20.5,20.5,0,0,0,318.9,301.4Z" transform="translate(-68.9 -102.3)"/><path class="cls-18" d="M313.1,290.9c.1-.2,0-.3-.1-.4a.3.3,0,0,0-.4,0v.2a3.9,3.9,0,0,0,.2.6Z" transform="translate(-68.9 -102.3)"/><path class="cls-18" d="M315.6,294l-1,.5a.9.9,0,0,1,.3.5,3.9,3.9,0,0,0,1-.5c.1-.1.2-.3.1-.4S315.7,293.9,315.6,294Z" transform="translate(-68.9 -102.3)"/><path class="cls-18" d="M312.5,294.6l.6.7h.4l1.3-.2-.6-.4A3.3,3.3,0,0,1,312.5,294.6Z" transform="translate(-68.9 -102.3)"/></g><path class="cls-19" d="M340.8,291.4l-2.9,14.2-18.3-6.2a21.9,21.9,0,0,0-2.3-6.3c-1.6-2.6-4.7-3.2-4.7-2.4s2.6,4.7,2.6,4.7-3.1-2.3-3.1-1.6,2.7,3.4,3.5,4,1,3.2,1.9,3.7,18.3,11.9,20.2,13.4,4.1-.5,4.4-1,4.9-8.9,7.1-14.8a12,12,0,0,0-2.8-12.9,12.4,12.4,0,0,0-3-1.8" transform="translate(-68.9 -102.3)"/><path class="cls-22" d="M334.4,304.5l-14.8-5.1a21.9,21.9,0,0,0-2.3-6.3c-1.6-2.6-4.7-3.2-4.7-2.4s2.6,4.7,2.6,4.7-3.1-2.3-3.1-1.6,2.7,3.4,3.5,4,1,3.2,1.9,3.7,9.5,5.8,15,9.6Z" transform="translate(-68.9 -102.3)"/><path class="cls-12" d="M316.9,292.6a17.1,17.1,0,0,0-2.4-2.5,3.8,3.8,0,0,0-2.8.2c-.4.4.4.6.7.5a3.8,3.8,0,0,1,1.5,0c.1,0,1.8,2.8,1.8,2.8" transform="translate(-68.9 -102.3)"/><path class="cls-5" d="M311.5,297.7l-3.4.8a1.6,1.6,0,0,1-1.9-1.3L303.8,286a1.7,1.7,0,0,1,1.2-2.1l3.4-.9a1.7,1.7,0,0,1,2,1.4l2.4,11.1A1.9,1.9,0,0,1,311.5,297.7Z" transform="translate(-68.9 -102.3)"/><path class="cls-22" d="M310.1,307.1s-3.7-7.3-3.9-8-2.2-10.3-2.3-11.5-.3-2.7.2-2.3,1.9,6.3,1.9,6.3l1.2-2.9c.5-1.2,1.6-3,1.8-2.5a5.8,5.8,0,0,1-.4,1.9c-.1.5-1.2,4.1-1.2,4.1v1.7l1.9-2.5c.5-.7,2.2-1.7,2.1-1s-1.4,1.2-1.4,1.7a16.3,16.3,0,0,1-1.6,3s1.9-2.2,2.3-2.5,1.2-.7.7.2l-1.8,2.7s.5,2.4.5,2.9a4.4,4.4,0,0,1-.5,1.3l3.1,4.4Z" transform="translate(-68.9 -102.3)"/></g><g id="Layer_14" data-name="Layer 14"><path class="cls-8" d="M236.3,253.9c3.7,1.8,8.2,1,9.1-1" transform="translate(-68.9 -102.3)"/><path class="cls-8" d="M98.6,236.9" transform="translate(-68.9 -102.3)"/></g><g id="Layer_12" data-name="Layer 12"><line class="cls-23" x1="3.9" y1="224.5" x2="0.1" y2="258.7"/></g></svg>