<svg id="Layer_1" data-name="Layer 1" xmlns="http://www.w3.org/2000/svg" xmlns:xlink="http://www.w3.org/1999/xlink" viewBox="0 0 340 296.7"><defs><style>.cls-1,.cls-13,.cls-14,.cls-15,.cls-19,.cls-21,.cls-24,.cls-3,.cls-4,.cls-8{fill:none;}.cls-2{fill:#edf1f0;opacity:0.79;}.cls-2,.cls-24{isolation:isolate;}.cls-11,.cls-12,.cls-14,.cls-15,.cls-19,.cls-20,.cls-23,.cls-3,.cls-5,.cls-6,.cls-7{stroke:#263238;}.cls-24,.cls-3,.cls-4,.cls-6,.cls-7{stroke-miterlimit:10;}.cls-4{stroke:#b2b2b2;}.cls-5,.cls-7,.cls-9{fill:#263238;}.cls-11,.cls-12,.cls-13,.cls-14,.cls-15,.cls-19,.cls-20,.cls-21,.cls-23,.cls-5,.cls-8{stroke-linecap:round;stroke-linejoin:round;}.cls-12,.cls-18,.cls-23,.cls-6{fill:#fff;}.cls-21,.cls-24,.cls-8{stroke:#707070;}.cls-8{stroke-width:0.5px;}.cls-10{fill:#28353a;}.cls-11{fill:#067fc8;}.cls-13{stroke:#fff;}.cls-14{stroke-width:2px;}.cls-15{stroke-width:4px;}.cls-16,.cls-20{fill:#ff9a00;}.cls-17{clip-path:url(#clip-path);}.cls-22{clip-path:url(#clip-path-2);}.cls-23{stroke-width:0.75px;}.cls-24{stroke-width:0.25px;opacity:0.16;}</style><clipPath id="clip-path" transform="translate(0 0)"><path class="cls-1" d="M258.7,180.6l-5.9,1.2s-2.7.8-4.8,6.1-3.2,15.6-3.2,15.6l-1.1-1.7-2.5,3s4,8.8,5.9,9.1,5.1-5.6,5.1-5.6a71.7,71.7,0,0,1-1.8,9,60.1,60.1,0,0,0-3.1,18.3c0,9.7,5.3,22.5,6.6,27.3s1.2,8.9,2.2,13.6a112.7,112.7,0,0,1,1.7,13c-1.1,1.3-2.3,2.5-3.5,3.7s6.8.9,7.6.3.9-2.4.9-3.7-.1-20.8-.1-20.8,9.8,16.5,9,18.5,2.7-2.9,2.7-2.9-1.5-12-2.5-16.6a76.8,76.8,0,0,0-3.1-9.6s8.2-15.9,9-25.8-3.8-22.9-3.8-22.9,4.2-11,4.3-18.3-2.2-8.6-5-9.9a13.9,13.9,0,0,0-4.5-1.4l-6-.6Z"/></clipPath><clipPath id="clip-path-2" transform="translate(0 0)"><path class="cls-1" d="M271.9,189.1,269,203.3l-18.3-6.2a20.8,20.8,0,0,0-2.3-6.3c-1.6-2.6-4.7-3.2-4.7-2.4s2.6,4.7,2.6,4.7-3.1-2.3-3.1-1.6,2.7,3.4,3.5,4,1,3.2,1.9,3.7,18.3,11.9,20.2,13.4,4.1-.5,4.4-1a134.6,134.6,0,0,0,7.1-14.8,12.1,12.1,0,0,0-2.8-12.9,14.9,14.9,0,0,0-3-1.8"/></clipPath></defs><title>main_banner1</title><g id="Layer_13" data-name="Layer 13"><path class="cls-2" d="M126.3,18.2S73.4,45.1,47,86.7s-24.3,95,7.8,134.7,93.4,34.5,144.7,59.7S307.6,301,331.8,247.7s-12.3-73.1-18.6-134.8S251.3-39,126.3,18.2Z" transform="translate(0 0)"/><line class="cls-3" x1="53.2" y1="296.2" x2="334" y2="296.2"/><path class="cls-4" d="M183.4,120.2c.3-.1.3-1.6.2-1.7S182.7,120.3,183.4,120.2Z" transform="translate(0 0)"/><path class="cls-4" d="M116,143.3c.5-.2,3.8.5,3.8-.5s-3.4-1.6-3.8-1.3a1.7,1.7,0,0,0,.5,1.2c0,.4-1.5,0-1.6.3a.8.8,0,0,0,1.1.3Z" transform="translate(0 0)"/><path class="cls-4" d="M146.4,164.3c-1.4.1-2.7-1.7-4.3-1.9s-1.4-.4-2.6.1c1.3-.5-2.2-2.2-2.2-2.2s-1.2,1.5-1.8,1.2.7-1.2.1-1.7-1.5.7-1.5.6,1.5-3.5-.2-4.4-3.1-.9-4.6-1.7-1.5-2.4-3.5-2.3c.8-.1-1.6-2.1-.9-1.9-1-.4-3.1.5-4.5.2s-.8-1.5-1.6-1.5-.9,2.1-1.1,2.6-.8-3.2-.2-2.9-3.2,1.7-3.5,1.9-.9,1.4-1.5,1.6c1.1-.3-3.5-.8-2.5-.5-2.9-1.1-1.6-1.4-2.4-4-.2-.7.5-1.1-.1-1.7a4.6,4.6,0,0,0-3.8-.3c-.7.5.1-2,.3-2.3h0c.9-.9,1.2-3.1-.2-3.2s-1.3,2.1-2.8,2.9c-4.5,2.2-4.7-4.2-4.6-6.9h0c.3-4.7,3.7-3.4,6.5-3.1-.7-.1-.1-1.2.8-1.3l2.3.5c1.5.5,1.1,0,2.2,1.8s.6,2.6,1.5,2.9-.1-6.6.5-7.4a38.3,38.3,0,0,1,2.8-2.9c1.2-1.5,0,.2.2-1.6,0-.2-.5-2.7.3-2.7s.3,2.4.3,2.4l.3-2c.1-.6,2.6-1.4,2.8-1.8s-1.3,0-1.3-.1,2.1-.5,2.4-.7a10.6,10.6,0,0,1,.9-2.5c.9-.9,3.3-.7,4-2.2-.1.2.3.9.8.8-1.8.5-2.7,1.5-.5,1.2a13,13,0,0,0,3.7-1.9c.1-.1-.4-.6-.3-1s-1.4,1.3-1.7,1.2c-2.2-.3-1.2-1.8-2-2.4a.8.8,0,0,1-.7.2c-.3-.8,2.6-1.4-.1-1.7s-2.9,2.5-4.2,2.5c.7,0,3.5-3.5,4.9-3.8s8.2-.7,7.5-2.4l-.5-.3c-.5-.5,1.4-1-.7-1.2a1.7,1.7,0,0,1-.1-.7c-.2-.2-2.3.7-2.3.7a9.9,9.9,0,0,0,2.2-1.2c.3-.4-4.6-2.2-4.2-2.8s.9.1.3-1.6-2.2-3.3-2-3.4-.5,2.9-2.2,2.9-1.7-2.2-1.7-3.4-4.7-2-5.1-2c-2.7.1-1.6.3-1.7,2.4a15.5,15.5,0,0,0-.4,2.1c.3,1.6,1.6,2.2.8,4.3s-1.8.8-1.9,1.2.6,1,.5,1.6.3,2.5.1,2.4-.6.5-1.7-.5-.4-2.8-1.1-3.7-4-1.7-4.8-2.1a5.7,5.7,0,0,0-3.6-.6c.3,0-.3-1.8-.4-2.1s-1.7.2-1.2-2.5c.1-.7,3.1-3.9,3.1-3.8l-2.4-1.1c.3-.8,2.4,1.4,3-.3-.3.8,3.3-.8,2.4-1.4s-2.4,0-2.3-1c-.1.7,4.5.9,2.7-.7h2c.2,0-.7-.8-.6-.9s1.2,1.3,2.4-.1-.5-1.1-.6-2.1,1.5-.5,1-1.2a3.8,3.8,0,0,0-2.9-1c-.4.1.1,2.2-1,2.9a1,1,0,0,1-.4-.5c-.5,0,.5,1.8-.2,1.5s-.7-1.6-.8-1.7a13.7,13.7,0,0,0-1-1.4c-.4-.4-.8,1.4-1,1.5s.1-1.6.1-1.7l-1.5-.3.5-.9a15.3,15.3,0,0,0-1.4-2.1c-.8-1.9-.3,0-.5-2.2.1,1,3.9-1.7,2.6-2.1s-3.3-.6-3.6.5a26.9,26.9,0,0,1-.3,4c-.1.3-1.1.8-.7,2.1s2.9,1.1,1.6,2.1.2-.4.5-.4-1.4,2.7-1.3,2.6l-1.6-1.7c-.1-.2,1.8-.5,1.9-.6s-1.1-.7-1.1-.8,1-.1.7-.3a2.2,2.2,0,0,0-3,.3c0,.1-.1.1-.1.2s2.7,1.6-1,2.1c-1.7.2-2.4-.6-3.8-1s-.4-.5-1.2-.6-2.1.8-1.6,1,2-.8,2.2-.6-1.2,3.1-1.8,2.8-.1-1.2-1-1.5-3.9.9-4.8-.1,1.2-.6,1-.9A16.6,16.6,0,0,0,79,84.8L76.6,84c-.9-.1-1.3.6-2.2.6s.2-1.2-.2-1.3a6.9,6.9,0,0,1-1.1,1.3c-.9-.1-.8-2.2-1.8-2,.7-.1-1.5,1.5-1.3,1.4a26.9,26.9,0,0,1-2.9,1.6c-.5,0,3.1-2.2,3.1-2.1l-3.5,1.1c-.4.2,0-.6-.6-.4s-.4,1-.8,1.4-9.3-2.2-9.9-2.2-6.6-.8-7-1.2-2.3.1-3,.9-5.1,1.6-5.3,2.6,4.3,2.4,4.7,3.6-5.4-.3-6,1.2c.2-.5,1.5,1.5,1.7,1.6a17.4,17.4,0,0,0,3.9-.5c.9.9-1.1,2.1-1.6,2.6s-.6-.3-1.3.6l-1.4,1.1c.2-.2,1.1,1.9,1.1,1.9s2.3.5,2.1.3,0,1.7.5,2,1.5,0,2.2.3,1.8-1.1,1.6-.6-4.2,5.7-4.8,5.1,7.8-4,7.8-5.1l-.7-.4c-.2-.4,3.8-3.7,3.7-2.4s-2.4,1.8-1.8,2.3,2.7-.8,3.2-.9-1-1.4,0-1.5a2.2,2.2,0,0,1,1.6.6c-.3-.1-.5.1-.6.4h0c.2.4,5.6.1,6,.4s3.5,3.1,3.5,2.2a2,2,0,0,1-.2-1.1c1.8,1.3-.8,1.7-.8,1.6a13.7,13.7,0,0,1,1.3,2c-.1,0-.3-1.7.1-1.6a1.7,1.7,0,0,1,.1.7c.4.5.5-1.3.5-1.2s.1,2.4-.2,2.4,2.3-.2,1.5.2-1-.9-.3-1,.3.9-.5,1,.1,1.5.2,1.6,1.2-.8,1.7-.7.4,1.9.6,2.3l1.8,1.8a16.8,16.8,0,0,0,2.9,2.4c-.1-.1,3.6,3,1.5,3,0,0-2.2-5.7-4.5-4.1.5-.3,3.2,3.6,3.3,4,1,2.9-.6,6.2.5,9.3s2.7,3.5,4.1,4.9a18.5,18.5,0,0,1,2.1,3.3c1,1.6,1.2,2,1,2.9s4.3,4.5,4.1,4.6a86.5,86.5,0,0,1-4.1-8.7c1.7-.1,1.8,2.5,2.1,3s2.5,2.5,3.4,3.8,1.8,4.2,3.2,5.7a15.7,15.7,0,0,0,4.5,2.2c1.7.5,3.5,0,4.8,1.4h0c.6.5,1.6.6,2,1s1.7.5,2.8,1.7a13.3,13.3,0,0,1,1.4,1.9c.7.7,1.9,2,3,2.1s.7-1.2,1.3-1.1c2.4.6,1.9,3.8,1,5.8s-2.4,2.5-1.2,4.6c0,.1-1.2,2.2-1.1,2.8s2.9,4.7,3.5,6,2.8,2.6,4.4,4.5,1.1,3.1.8,5.5-.5,7-1.2,10.4c-.3,1.3-2.9,8.4-1.9,9.7s.6-1.8,1-1.9-.2,5.3-.7,5,.3-1.8-.3-1.5-1.1,2.2-1.1,2.3.8.8.9,1.1.9-.3.8.3-2.6,1.1-1.3.9l.6-.5c.1,0-1.4,1.6-.4,1.8s.4-1.1.6-.8-1.1,1.9-.7,2.4.9-.4,1.1,0-.6.6-.5.6,1.2-.3,1.3.2-1.5,0-.9.8,1.5-.9,1.8-.1-1.5.8-1.6.8a8,8,0,0,1,1.8-.4c.1.1-2,1.1-2,.9s1.2,1,1.4.8-.4-.2-.1-.5,1.8-1.2,1.9-1.4a1,1,0,0,0-.5.8h.8c-.3-.3-.5,1-.5,1a.9.9,0,0,1-.3-.7c-.4-.2-.2.7-.2.7s-.3-.4-.6-.4-.4,1.3-.4.7,1,1,1,1a.9.9,0,0,0,.3-.7l1.7,1.2c.3.1-.2-.8,0-.8a6.9,6.9,0,0,0,2.4-.5c-1.1-.4-2.5-2.4-2.7-2.5h0c-.2,0-.8.1-.7-.3s.7.1.8,0-.7-1.5-.5-2,.8-.8,1.1-1.4,1.5-1.3,1.6-2.2-1-.7-1-.9a11.4,11.4,0,0,1,1.5-3.6l1.3-1.4c-.3-.2-2.2-.1-1.2-1.6-.3.5,2.3-.4,2.2-.4a4.6,4.6,0,0,1,.1-1.6c.1-.2,4.3.5,4.6-2.1.1-.6-1.4-2.5-1.5-2.5s3,.6,4.4-.8a10.3,10.3,0,0,0,2-3.2,7.5,7.5,0,0,1-.7,1.2c0-.6,2-2.2,2.3-2.9s-.1-2.3.4-3.2,3.3-1.4,4.6-2.2,2.1-2.5,2.6-4.5,0-4.2.6-5.1S150.5,164.1,146.4,164.3Z" transform="translate(0 0)"/><path class="cls-4" d="M115.1,141.4c.9-1.3-9.7-3.6-8.3-1.6-.7-1,4.2.3,4.4.4S113.9,142.9,115.1,141.4Z" transform="translate(0 0)"/><path class="cls-4" d="M111.7,143.1c.2.3,1.5.7,1.7.3S111.5,142.8,111.7,143.1Z" transform="translate(0 0)"/><path class="cls-4" d="M121,143.2c.3.5,1.2.2,1.3,0S120.6,142.6,121,143.2Z" transform="translate(0 0)"/><path class="cls-4" d="M126.1,211.2c.4.2,1.3-1,.9-1.1S125.7,210.9,126.1,211.2Z" transform="translate(0 0)"/><path class="cls-4" d="M127.2,211.2c.3.2,1.4-.3,1.3-.6S126.9,211.1,127.2,211.2Z" transform="translate(0 0)"/><path class="cls-4" d="M133.4,84.3c.1-1.4-2.1-.7-2.4-.7S133.3,86,133.4,84.3Z" transform="translate(0 0)"/><path class="cls-4" d="M157.8,83.3a20.7,20.7,0,0,1-3.5-.3c.1-.2,1.2-1.4,1.1-1.5s2.7,2.7,2.8.5-1.8-1.3-2.1-2.4,2.5.8,1.9-.8-2.8.7-2.7-.3.9-1.2.8-1,4.4,2.2,2-.9c-.1-.1,2.2-.1,2.3-.5s-2.2-.4-1.7-1.3,2.3.5,1.2-1.7c.1.1-2.6-.8-2.2-1.2s3.6-.1,3.5-.5-1.9,0-2.1-1,1,0,1.2-.2-2.5-.2-2.4-.1,3.4-4.6,3.5-4.4-1.5.7-2,.1,3-.9,3.1-1-1.9-.7-2-.5,5.5-.6,5.5-2-4.9-.1-5.4.1-1.1-.4-1.4-.3-1.8,2-2.9,2.1c1-.1,2.2-2.6.5-2.9s-3.1,2-3.3,1.4,1.7-.8,1.7-1.2-6.1.5-6.1.4,8.3-.7,9.2-1.9-10.7-2.4-11.7-2.1l-2,.6h-1a54.8,54.8,0,0,0-5.7.5c-.2,0,.8.7.8.8s-1.6.2-1.4.5l2.2,1.7c-1.4.3-3.8-2.8-5.2-1.8s1,1.1,1,1.2a19.8,19.8,0,0,1-2.6-.8c.1,0-.1,1.6-.5,1.8,1.2-.7-1.4-1.7-1.8-1.7a2.2,2.2,0,0,0-2.2,1.2c-.6.2-1.5-.5-2.3-.2s.5,1.2-.2,1.6-5.7.2-5,1.9,3.5,0,.9,2.1c-.7.6-2.7.3-3.6,1-4.2,2.8,3.8.9,3.7,2.5s-4.2.2-4.1.6,2.9,1.9,3.7,1.9,3-1,5.1,0a7.7,7.7,0,0,1,4.1,4.7c.7,2.4-.8,2.6,1.6,2.6a23.9,23.9,0,0,0,2.2,2.3c-.1.1-2.8-1-2.8-.4s3.7.5,2.7,3.3c-.1.4-1.3-.2-1.6.7a4.1,4.1,0,0,0-.5,1.8c0,1.1,1.7,5.1,3,6.8a5.7,5.7,0,0,0,3,2.3c2.3,1,1.7,1.1,3-.8s-.3-1.4-.1-2,1.1-.3,1.3-.9a24.4,24.4,0,0,0,.1-2.6h.8c.1,0,1.5-1.9,1.7-1.9a.6.6,0,0,1,.1.8c.3.8,3.5-2,3.6-2.1a6,6,0,0,1,2.1-1.4C153.1,85.4,155.9,84.5,157.8,83.3Z" transform="translate(0 0)"/><path class="cls-4" d="M76,73.5c.7-.4.7,0,1.2-.5a1.3,1.3,0,0,0,.6.7c.8,0,1.1-1.8,1.6-1.9s.2,1.6,1.4.4.4-.8.8-1.3-2.5-.1-2.9,0A9.6,9.6,0,0,0,76,73.5Z" transform="translate(0 0)"/><path class="cls-4" d="M81.3,72.8c-1.2.1.6.9.6.7a2.3,2.3,0,0,0-1.4.4c-.2.3,1.2.2,1,.2a2.5,2.5,0,0,0-1.4.6c.8,1.1,2.1,0,2.7-.4s1.8.8,2,.5-2.3.6-2.2,1,4.1-.4,4.6-.6c2-.9,2.6-.2,1.7-1.9.1.1-2.2-1.4-2.5-1.2s.6,1.6.4,2-2.6-1.1-3.1-1.3A4.9,4.9,0,0,0,81.3,72.8Z" transform="translate(0 0)"/><path class="cls-4" d="M94.7,81.3c1.5,1.1,3.2-3,2.3-3.1s-.4.5-.2.9-1.2-.7-1.2-.6,1.9-.9.5-1.8-.9.6-.9.6-3.1-.4-2,.5l1,.3c1.2,1-2.1.4-1.7.4S94.4,81,94.7,81.3Z" transform="translate(0 0)"/><path class="cls-4" d="M74.3,80.6A5.3,5.3,0,0,1,75.5,82c.9,0,1.8-1.3,2.2-1.6s2.8-1.7,3.9-2.6-5.2-2-5.9-1.8c-2.4.8-.4.3-1.1,1.6a8.7,8.7,0,0,0-1.4,2.7Z" transform="translate(0 0)"/><path class="cls-4" d="M78.7,74.1a1.2,1.2,0,0,0,1.2-.9C79.9,72.8,78.3,74.1,78.7,74.1Z" transform="translate(0 0)"/><path class="cls-4" d="M116.8,82a.7.7,0,0,0,.7-.7c.1.5-2.7-1-3-1.1s-.2-.8-1.3-1a1.7,1.7,0,0,0-1.7.9h-1.6c-1,0,.5-4.3-3-2.2-2,1.2-.3,1.9-.2,3.2s-1.6-.4-1.5-1.5,1.2-1.7,1.2-2.3-3.8,1.3-3.9,2.2,1.3,3.3,2,2.4-1.8-.2-1.7.2c.2,2.3,8.5.9,8.6,1.4a1.6,1.6,0,0,1-.4-.7c.1-.4,2.9,1.8,2.9,1.9a2.7,2.7,0,0,0-.7.8c.5.4,1.1-.5,2,.5s1,.8,1.2,2.4,3-.7,2.5.7-1.3-.3-1.7-.2l-2,.3c-.1,0,.3,1,.3,1a7.4,7.4,0,0,0-2.8.6c-2.4,2.1,2.5.8,3.2,1s4.8,5.3,5.8,3.8-1.8-2.6-2.1-2.5c1.5-.4,3.8,2.2,3-.5s-3.1-2.1-1.9-3.5,2.6,2,3,2l2-2.2c0-1.5-5.7-2.3-5.5-3.7l1.1-.3-1-.5c-.1-.8,1-.8-.5-.8,1.1,0-1.5-1.2-1.6-1.2Z" transform="translate(0 0)"/><path class="cls-4" d="M67.4,106c-.7.4.8,2.2,1.2,2S68.4,105.4,67.4,106Z" transform="translate(0 0)"/><path class="cls-4" d="M91.2,74.9c.3-.3-.5-1-.7-.4A.4.4,0,0,0,91.2,74.9Z" transform="translate(0 0)"/><path class="cls-4" d="M110.6,96c.3,0,.8-1,.1-1S110.3,96.1,110.6,96Z" transform="translate(0 0)"/><path class="cls-4" d="M114.2,87.6c2-.3-1.9-1.8-1.2-1.2S111.9,88,114.2,87.6Z" transform="translate(0 0)"/><path class="cls-4" d="M107.5,95.1c.6.4,1.4-.6,1.3-.9S106.8,94.7,107.5,95.1Z" transform="translate(0 0)"/><path class="cls-4" d="M100.6,75c.3,1,8.5,1.4,9.5.7,3.8-2.7-8.1-1.4-7.9-2.3l.6-.6c.3-.4-6.4-1.8-5.9-.9S99.6,72,100.6,75Z" transform="translate(0 0)"/><path class="cls-4" d="M92.3,83.8c.2-.3,1.1.5,1.2,0s-2.8-2.4-3-3a21.1,21.1,0,0,1-.2-2.5c.3-.3.3-.6-.1-1a1.8,1.8,0,0,0-1.6.4l1,1c0-.2-1.8-.9-2-.5s.9,2.3.5,2.5-2.4-2.6-2.5-2l.6.7-1.3.2c-.9-2.5-1.7.5-2.6-.3s1.5-1.2-.3-1.2a4.5,4.5,0,0,0-2.8,1.6c-1.1,2.5,1.3.6,2.3,1.4s-2.1.6-2.1.9,5.1-.1,5.1,1-4.6,0-4.4.8,6.3,1.6,7.5,1.4l2-.2c.4,0,3.7,1.1,3.3-.2s-1.1.3-1.4-.4A1.6,1.6,0,0,1,92.3,83.8Z" transform="translate(0 0)"/><path class="cls-4" d="M123.2,110.9c.1.3,2.2,1.3,2.2.8S123.2,110.6,123.2,110.9Z" transform="translate(0 0)"/><path class="cls-4" d="M102.4,70.3c-.6-.3-1.4.4-.8.7S103.1,70.7,102.4,70.3Z" transform="translate(0 0)"/><path class="cls-4" d="M96.8,69.8c4.2,0-.8-2.4-1-1.9S96.3,69.8,96.8,69.8Z" transform="translate(0 0)"/><path class="cls-4" d="M97.2,65.9c.1,0,3.4,1.5,3.2,1s-1.5.7-1.4.8a4.4,4.4,0,0,0,4.2,1.5c.1-.1,3.1-2.7,3-2.3s-2.2-2.1-2.3-2.2-4.6-2.4-5-2.1.2.4.5.5-1.1,0-1.2.2l.6.5c-.2.5-1.5-.2-1.4.7l.9.7C98.4,65.7,96,65.2,97.2,65.9Z" transform="translate(0 0)"/><path class="cls-4" d="M109.7,77.4c-.9,2.1,3.7,1.6,3.7,1.2S110,76.8,109.7,77.4Z" transform="translate(0 0)"/><path class="cls-4" d="M99.7,70c-.1-.2-2.8.1-2.4.5A2.3,2.3,0,0,0,99.7,70Z" transform="translate(0 0)"/><path class="cls-4" d="M83.1,70c.2-.5-1.1-.4-1-.3S83,70.4,83.1,70Z" transform="translate(0 0)"/><path class="cls-4" d="M98.9,74.3c-.6-.5-2.3.6-2,.8S101,76,98.9,74.3Z" transform="translate(0 0)"/><path class="cls-4" d="M90.6,71.1c.3-.4-1.1-1.7-1.2-1.1S90.3,71.5,90.6,71.1Z" transform="translate(0 0)"/><path class="cls-4" d="M93.8,71.8c-.9-.4.3,1.3.2,1.2a3.1,3.1,0,0,0-1.3-.6c-.4.2.4,1,.1,1.1s-1.3-1.6-1.8-1.6.4,1.6.4,1.6a14.1,14.1,0,0,1,2.7.4c.9.3,1.1,3,2.2.3S94.8,72.2,93.8,71.8Z" transform="translate(0 0)"/><path class="cls-4" d="M86.1,69.8c.6-.1-2.5-.9-2.5.3S86.1,69.8,86.1,69.8Z" transform="translate(0 0)"/><path class="cls-4" d="M84.4,69c.3.1,2.3.1,2.3-.3s-3.4.2-3.3.2Z" transform="translate(0 0)"/><path class="cls-4" d="M95.3,65.9c.2-.4-1.5-.8-1.1-.4S95,66.4,95.3,65.9Z" transform="translate(0 0)"/><path class="cls-4" d="M90.4,67.8a.8.8,0,0,1,1.1.4h0c-.1.2-1.4.2-1.3.3s6.9,2.8,3.4-.7a5.6,5.6,0,0,0-1.7-.9C88.8,66.7,90.6,67.6,90.4,67.8Z" transform="translate(0 0)"/><path class="cls-4" d="M110.1,93c0-.4-3.5-2.9-3.7-2.9s-2,2.3-1.8,3S110.1,92.8,110.1,93Z" transform="translate(0 0)"/><path class="cls-4" d="M101.6,62c1.3-.9.2.4.2.4h.8c-1.4,1.7,2.7,1.4,2.6,1.1.2,2.6,5.3-.9,5.9-.4s-3.1,1.6-3,1.8,1.4,1.1,1.2,1.1-5-2.9-4.3-.2c.2.6,3.5,1.8,3.5,2.4s-4.2-1.2-4.3.6,2.3-.2,2.3-.1.4,2.5.4,1.9-3.2-2-3.1-.5l1,.7c0,.3-2.8.5-2.2,1.2s9.2,1,9.7,0-3.2-.8-3.4-1.1,3.2-1.4,3.4-1.5a2.3,2.3,0,0,0,2.6-1.7c.7-2.1-2.3-.7-2.3-.7,1.5-1.1,3.4-.6,4.8-1.3s5.7-2.9,5.7-3.3-2.3-.1-2.4-.1l5.1-2.2s-4.9-1.6-4.9-.5.4-.5.7-.6-5.4.1-6,.2-4.1-.3-5.9.2-8.9,2.9-9,2.6A1.4,1.4,0,0,0,101.6,62Z" transform="translate(0 0)"/><path class="cls-4" d="M130.3,109.2a5.5,5.5,0,0,0-1.7,2c-.1.2-1.7,1.8-1.1,2.2s2.8-1.3,3,.6c-.1-.6,2.1.2,2.2,0s-.6-1.6-.4-1.5-2.8-2-2.8-1.7A8,8,0,0,1,130.3,109.2Z" transform="translate(0 0)"/><path class="cls-4" d="M39.3,106.7c.5-.2.6-.4.5-.6S39,106.9,39.3,106.7Z" transform="translate(0 0)"/><path class="cls-4" d="M42.4,105c-.5-.2-1,.6-1.1.5S42.9,105.1,42.4,105Z" transform="translate(0 0)"/><path class="cls-4" d="M50.9,100.6c-.8,1-1.5,3,.2,1.2C51.4,101.6,51.8,99.5,50.9,100.6Z" transform="translate(0 0)"/><path class="cls-4" d="M40.1,98c-.4-.2-.6-.1-.8.3a1.7,1.7,0,0,0,1.2.4C41.7,98.2,40,97.9,40.1,98Z" transform="translate(0 0)"/><path class="cls-4" d="M178.6,122.1c-.1-.5-.9.1-.7.2S178.7,122.5,178.6,122.1Z" transform="translate(0 0)"/><path class="cls-4" d="M196.8,126.5c0-.3-2.3,0-2.2.1S196.9,127.3,196.8,126.5Z" transform="translate(0 0)"/><path class="cls-4" d="M202.9,126.9l.6-.8-1.8.6C201.3,127.3,203,127.3,202.9,126.9Z" transform="translate(0 0)"/><path class="cls-4" d="M163.5,92.3c2.5-.2.1-4.1-1.1-3.3a12.2,12.2,0,0,1-2.4,1,.7.7,0,0,0-.5-.4c-1.6,1.9,0-.6-2.2-.6-.4,0,.2.7.1.7s-1.1-.2-1.2.6,1.8.3,1.8.2l-.2.7s-1.5,0-1.3.3,1.3.1,1.5.4-.4,1-.5.9C159,94.5,161.8,92.4,163.5,92.3Z" transform="translate(0 0)"/><path class="cls-4" d="M168.2,108.9c2.2,0,2.8-1.6,2.6-3.2s1-.6-.3-1.3a4.5,4.5,0,0,0-1.6.3c-.1,1.2,0,.2-1.2.8S167.7,108.9,168.2,108.9Z" transform="translate(0 0)"/><path class="cls-4" d="M174.8,98.2c.2-.2.4-1.1.1-1S174.7,98.3,174.8,98.2Z" transform="translate(0 0)"/><path class="cls-4" d="M170.7,100.3c-.2-.2-.8.8-.6.8S170.8,100.4,170.7,100.3Z" transform="translate(0 0)"/><path class="cls-4" d="M170.5,101.4c.8-.6,0,2.7,0,2.3s1.1.3.9.3a1.8,1.8,0,0,0,.5-.7c.4,0-.2,1.4-.2,1.5s1.3-.3,1.4-.2-.7,2.1-.6,3.1a1.1,1.1,0,0,0-.9.9,6.9,6.9,0,0,0,2,.3c.1.2-2.8.8-2.1,1.8s5.2-1.2,5.5-1.5-.6-.1-.5-.3a1.5,1.5,0,0,0,.5-1.7c-.4-1.1-.9-.5-1-.8s-1.2-3.1-2.6-3,.9-1.5.8-1.7-1.1.1-1.7-.5,1.2-1.2.8-1.5S170.5,101.4,170.5,101.4Z" transform="translate(0 0)"/><path class="cls-4" d="M185.2,104.7c-.2,0,2-.6,1-1.3S185.1,104.7,185.2,104.7Z" transform="translate(0 0)"/><path class="cls-4" d="M191,101c-.5,0-.7,1-.6,1.1S191.4,101,191,101Z" transform="translate(0 0)"/><path class="cls-4" d="M193.5,100.7l.9-.6C194.9,99.5,192.6,100.8,193.5,100.7Z" transform="translate(0 0)"/><path class="cls-4" d="M194.2,99.6c.1-.2-.7-.2-.5,0s.3.2.4.1Z" transform="translate(0 0)"/><path class="cls-4" d="M190.7,65.4c.7.6,2-.1,2.8.4l-1.7.6c.5,1.1,6.4.6,6-1.1-.1-.2-3.9-.7-3.7-.8a.8.8,0,0,0-.2.9c-.3.2-1.8-1-2.2-1l-.5.7-.6-.5C189.9,64.6,190.6,65.3,190.7,65.4Z" transform="translate(0 0)"/><path class="cls-4" d="M185.7,67c-1.2-.3.6,1.9.9,2s1-1,1.5-1.2-.2.8.2.7a1.1,1.1,0,0,1,.8-.3c.4.5-2.5,1.6-2.1,1.7s1.5-.3,2.3-.1a8.8,8.8,0,0,0-2.3.7c0,.7,1.3.7,1.6.8s-.2.3-.4.3a2.5,2.5,0,0,0,1.2.3,13.7,13.7,0,0,0,1.3-2c.1-.1,1.3-2.9,2-1.8s.3,2.4.1,2.4,3,.5,2.9-.8c0,.7-2.8-2.1-2.8-2a5.1,5.1,0,0,0-2.9-1c.4,0-.6-1.3-1-1.4s.1,2.4.2,2.2c.6-2.7-1.9-.6-1.9-.6l-.8-.7.7-.2C187,66.1,182.6,66.2,185.7,67Z" transform="translate(0 0)"/><path class="cls-4" d="M185,68.6l.5.4c-.2,0-.5-1.4-1-1.2S184.6,68.4,185,68.6Z" transform="translate(0 0)"/><path class="cls-4" d="M329.2,93.5a1.3,1.3,0,0,0-1,.4c.2.2,2.5.7,2.5.2A2,2,0,0,0,329.2,93.5Z" transform="translate(0 0)"/><path class="cls-4" d="M289.7,118.3c-.1-.8-1.9,2.6-1,2.1l.7-.4-.5-.6c0,.2,5.2.1,5-2.1.1,1.2-4.4-.8-3.8-1.2Z" transform="translate(0 0)"/><path class="cls-4" d="M280.1,129.3c.3.6.5-.7.7-.1s-.4,2,.2,1.8,1.4-1.8.6-2.1S279.5,128,280.1,129.3Z" transform="translate(0 0)"/><path class="cls-4" d="M283,129.1c.2-.7,1.2.2,1.2-1s-1.3,0-1.3.1S282.8,129.9,283,129.1Z" transform="translate(0 0)"/><path class="cls-4" d="M284.8,126.5s-4,.1-3.7,1.5,3.4-.3,3.6-.3.7.5.9.5.1-.8.2-.9,2.5.4,3.2-.5,1.6-5.5.7-6-1.7,3-2.2,3.7S284.9,125.2,284.8,126.5Z" transform="translate(0 0)"/><path class="cls-4" d="M264.4,142.8c.1-.4.3-.7.4-1.1s-2.1-.1-1.7.7S264.3,144.1,264.4,142.8Z" transform="translate(0 0)"/><path class="cls-4" d="M272.8,139.6c.4-.3,1.3-2.3,1-2.7S271.9,140.3,272.8,139.6Z" transform="translate(0 0)"/><path class="cls-4" d="M272,145.1c-.5,1.8,5.4,4.3,4.2,5.7,1.9-2.3-2.3-3.2-2.7-4.2s1.5-2.5,0-3.4S272.1,145,272,145.1Z" transform="translate(0 0)"/><path class="cls-4" d="M271,150.8a4,4,0,0,0-1,1.5c-.1-.2,2.1-1.6,1.7-2.4A1.3,1.3,0,0,0,271,150.8Z" transform="translate(0 0)"/><path class="cls-4" d="M272.5,147.8c.1.3.2,1.1.8.9S272.5,147.5,272.5,147.8Z" transform="translate(0 0)"/><path class="cls-4" d="M275.9,150.9c-.2-.2-.7.3-.6.5S276.1,151.2,275.9,150.9Z" transform="translate(0 0)"/><path class="cls-4" d="M276.7,151.4s-3.5,2.2-2.9,2.2.8-.9,1.4-.5.2,1.8,1.4,1.8c-.9,0,.9-1.8.8-1.5A2,2,0,0,0,276.7,151.4Z" transform="translate(0 0)"/><path class="cls-4" d="M273.8,149.1a.9.9,0,0,0,0,1.2c1.5-.3-.5,1.2.7,1.4S275.5,148.7,273.8,149.1Z" transform="translate(0 0)"/><path class="cls-4" d="M298,164.2c0,1.1-2.7.4-2.7.7s4.1.1,3.2-1S298.1,163.9,298,164.2Z" transform="translate(0 0)"/><path class="cls-4" d="M299.1,164.1c.7-.2-.6-1.1-.7-1.1S298.8,164.2,299.1,164.1Z" transform="translate(0 0)"/><path class="cls-4" d="M294.5,166c.6,0-2.1-2.3-2.7-2.6s-4.1-2.1-5.5-2-1,1.3-1.5,1.2-.4-1.3-1.1-1.5-.6-1-1.7-.8-1.3.8-.9.9,2.3,1.2,2.3.9-1.3.1-1.4.2a16.7,16.7,0,0,0,2.4,1.5c.2.1,2.1.5,2.8,1.7s-1,1.2-.7,1.8,4.4.1,4.8.1a5.5,5.5,0,0,1,2.6.7c-.1,0,3.4,1.7,3.1,1.1S293.8,165.9,294.5,166Z" transform="translate(0 0)"/><path class="cls-4" d="M240.7,151.1c-.5.1-.5,3.1.1,3.4S242.1,151,240.7,151.1Z" transform="translate(0 0)"/><path class="cls-4" d="M215.2,170.5s-1.1,2-1.3,2.2-1.8.8-2.2,1.2-.4,1.9-.6,3.8-1.7,6.7,1.9,4.9,1.7-6.9,2.4-8.8c.1-.3.7.5.7-.5A9.2,9.2,0,0,0,215.2,170.5Z" transform="translate(0 0)"/><path class="cls-4" d="M218.8,148.6c.2.3.8-.1.8-.2S218.5,148.2,218.8,148.6Z" transform="translate(0 0)"/><path class="cls-4" d="M304.6,168.4c0,.4.6.6.8.5S304.5,168,304.6,168.4Z" transform="translate(0 0)"/><path class="cls-4" d="M302,166c0,.1.6.7.7.6S302.1,165.8,302,166Z" transform="translate(0 0)"/><path class="cls-4" d="M304.7,167.5c.2-.1-1.1-.9-1.1-.6S304.5,167.7,304.7,167.5Z" transform="translate(0 0)"/><path class="cls-4" d="M300.5,164.9c-.1.2.7,1.4,1,1.2S300.5,164.6,300.5,164.9Z" transform="translate(0 0)"/><path class="cls-4" d="M305.4,167.5c-.2.4.6,1.2.7,1.2S305.6,167.2,305.4,167.5Z" transform="translate(0 0)"/><path class="cls-4" d="M306,169.3c.1.1.6.5.8.3S306,169.1,306,169.3Z" transform="translate(0 0)"/><path class="cls-4" d="M280.4,170.5c.1.2,1,0,1-.3S280.1,170.3,280.4,170.5Z" transform="translate(0 0)"/><path class="cls-4" d="M299.4,185.7s-.4-2.6-.2-2.5c-1.5-.7-3.8-3.9-4.9-5.6a36.9,36.9,0,0,1-1.7-4.2c-.4-.8-1.1-.2-1.3-.8s0-2.4-.8-3.1-.9,3.9-.9,3.9c-.8,2.3-.3,2.4-2.4,1.6s-2.4-1.1-2.5-1.9,1.4-1.8,1.2-2.2-3.8-1.1-3.9-1.1a.4.4,0,0,0,.1.5h.2c-1.1-1.2-2.8,3.3-2.3,3.2s-1.6-.3-1.1,0c-1.3-.8-1.1-1.5-2.7-.4s-.7,1.7-1.3,2.4-.3-.9-.5-.7-.2,1.3-1,1.9a7.7,7.7,0,0,1-2.5,1.4,11,11,0,0,0-3.5,2c-.2-.2-.2-.3-.1-.5a9.4,9.4,0,0,0-.4,1.6c0,.5.4,2.3.3,2.6a1,1,0,0,1-.5-.4l.3.6-.6-.5c-.2.6,1.5,3.6,1.6,4.3a18.2,18.2,0,0,1,0,3.3c1.1,2.3,2.7.8,4.5.2a29.7,29.7,0,0,0,3.9-1.3c1.1-.4,3.5-1.2,4.7-1s4.5,3,3.7,3.4,1.8-2,1.9-1.9a15.4,15.4,0,0,1-.9,1.9c-.1.3,1.3-.9.9-.5s.3,1.3.2,1.2,1.8,2.3,2,2.4h3.5a.6.6,0,0,1,0,.6c-.2-.3.9.3,1.1.6s3-1.6,2.9-1.5a34.4,34.4,0,0,1,1.3-4.3C298.1,190.2,299.1,185.9,299.4,185.7Z" transform="translate(0 0)"/><path class="cls-4" d="M285.5,193.6a.7.7,0,0,0,.9-.2C286.5,193.2,285.3,193.4,285.5,193.6Z" transform="translate(0 0)"/><path class="cls-4" d="M293.6,199a3.3,3.3,0,0,1-1.4-.4c.2-.1,0,3.7,2.1,2.7S295.7,198.8,293.6,199Z" transform="translate(0 0)"/><path class="cls-4" d="M311,205.7c.1,0,.5-.1.3-.4S310.7,205.6,311,205.7Z" transform="translate(0 0)"/><path class="cls-4" d="M319.1,195.7c-.5.9-1.5-1.3-1.6-1.3a.7.7,0,0,0-.1.5,8.8,8.8,0,0,0-1.9-2.4l1.3,2.7c.4,1.1-.8,1.1-.8,1.7a18.3,18.3,0,0,1,.8,2.5C317.9,201.3,320.1,193.9,319.1,195.7Z" transform="translate(0 0)"/><path class="cls-4" d="M316.2,198.9c-1-.8-7.1,4.6-5.3,5.8S317,199.6,316.2,198.9Z" transform="translate(0 0)"/><path class="cls-4" d="M320.2,175.3c.2.1.8-.1.8-.5S319.9,175.2,320.2,175.3Z" transform="translate(0 0)"/><path class="cls-4" d="M319,176.4c.3.3,1,.3,1-.3S318.8,176.1,319,176.4Z" transform="translate(0 0)"/><path class="cls-4" d="M214.9,64.5l-.8.5c.3.8,3.5-.7,3.5-.9A6.8,6.8,0,0,0,214.9,64.5Z" transform="translate(0 0)"/><path class="cls-4" d="M219.4,65c0-.5-1.3,0-1,.1S219.4,65.4,219.4,65Z" transform="translate(0 0)"/><path class="cls-4" d="M213.7,64.3a2.2,2.2,0,0,1,1.4-.2c.2-.5-2.8,0-2.7.2a.9.9,0,0,0,1.3,0Z" transform="translate(0 0)"/><path class="cls-4" d="M215,85.3c.6.7,1.1-.3,1.4-.4S213.7,84,215,85.3Z" transform="translate(0 0)"/><path class="cls-4" d="M220.1,77.4a36.5,36.5,0,0,0-2.7,3c0,.1,1.4,1.3,1.3,1.3s-.1-.4.1-.5,3.5,3,3.6,1.3-1.6-1.5-1.6-2.1a5.9,5.9,0,0,1,.9-2l1.6-2.1c1.1-1,8.8-4.2,8.5-4.5s-7.7,1.5-8.9,2.2S221,76.2,220.1,77.4Z" transform="translate(0 0)"/><path class="cls-4" d="M295.7,75.7a2,2,0,0,0,2-.4C297.9,73.5,289.9,75.3,295.7,75.7Z" transform="translate(0 0)"/><path class="cls-4" d="M289.6,76.7c0-.4-1.3.1-.8.3S289.6,77.1,289.6,76.7Z" transform="translate(0 0)"/><path class="cls-4" d="M255.6,69.6c.5.3,4.8-.4,4.9-1.2s-2.5-1.1-2.4-.5C257.7,64.2,256.2,70,255.6,69.6Z" transform="translate(0 0)"/><path class="cls-4" d="M251.9,65.9l-.6.8c1.3,1.2,4.2,2,4.4,0S251.9,65.5,251.9,65.9Z" transform="translate(0 0)"/><path class="cls-4" d="M250.6,65.2c.8.3-.7.4-.7.4a11.8,11.8,0,0,0,1.9,0c.4-.1,2.9-.9,2.5-1.5C252.3,61.7,250.3,65,250.6,65.2Z" transform="translate(0 0)"/><path class="cls-4" d="M266,76.2c-.6,1.2.9.3.9.1a.7.7,0,0,0-.8-.2Z" transform="translate(0 0)"/><path class="cls-4" d="M219.9,64c.4.4,2.7.5,2.8-.3s-1.9-.6-2-.6S220.1,64.2,219.9,64Z" transform="translate(0 0)"/><path class="cls-4" d="M250,63.3c.1-.4-1.5-.2-1.1.2A.7.7,0,0,0,250,63.3Z" transform="translate(0 0)"/><path class="cls-4" d="M321.7,82.3c.1.1,2.2,0,1.8-.5s-3.1.5-3,.6Z" transform="translate(0 0)"/><path class="cls-4" d="M286.5,75a4,4,0,0,0,2.6.6c.7-.2,2.3-1.1,1.7-1.4s1.2,2.2,1.7.6-.8-1-1.9-1.3h-2.1C288.8,73.3,284.7,74,286.5,75Z" transform="translate(0 0)"/><path class="cls-4" d="M291.5,78.4c1.3-.3-3.3-1.8-2.4-.4S291.1,78.5,291.5,78.4Z" transform="translate(0 0)"/><path class="cls-4" d="M327.9,90.6l.9.2c.2,0-.3-.3-.2-.3s1.6-.5,1.1-.7-3.7-2.2-3.7-1.4c.1-.9.4,1.4.2.9-.6-2.2-5.3-4.7-7.9-5.3a11.1,11.1,0,0,0-4.8.2c.1-.1.6,1.1-.1,1.5s-1.9-1.2-1.5-1.3.8.6.9-.2-3,.3-3.5.3h-2.2c-1-.1-.5.7-.9.9s-1.3-1.5-1.2-1.5c-1.5-1.2-1.3-1.4-3.9-1.6-.8-.1-4.7,0-5.1-1.2s1.2,0,.8-.5-3.9.1-3.9.3l.6-.5-.9-.3c-.3-.4,1.2,0,1.3-.2s-6.6-.6-5.9.4h.6c-.4-.3.1,1.6,0,1.1s-1.5-.2-1.8,0l.5.3-4.6-.9c-.3-.1-.8,1.8-1.4,1.7s-1.7-2.3-2.2-2.3a1.5,1.5,0,0,0,.9.2c1.2-.7-3.1-3.3-4-3.1s-.8,1.6-1,1.6-3.8,0-3.9-.4.4-.5.2-.6c-1.8-.5-3.2.4-4.3.5s.1-1-.4-1.1-3.1,0-2.8.3h.5c0,.4-3.6,1-3.7,1.2.8-2,6.7-2.6,6.2-4.7-.1-.6.3-1.1-1-1.7s-3,.4-4.5,0l.6-.8c0,.2-2.1-.4-2.3-.3s1.4-.3,1.1-.7-3.1.4-3.9,1-1.6,2.3-1.7,1.1l.6.4c.1-.3-2.3.2-2.4.2l.2-.5-2.6.5a1,1,0,0,0,.5.4c0-.3-3.9,1-4.2,1.1s-.4.4-.8.9h-.7c-.1.1.8.5.8.6h-.6s.9.6.5,1l-2.2.2c-6,1.3,0,1.7-1.2,3.3s-3.4-2-4.3-1.2.9.9.7.9-1.1-.5-1.5.1,2.2,1.3,2,1.6l-2.6-.6c-.5-.6.9-2.2-.2-2.6s-1.7,4.8-1.3,5.4,3.3.7,4.1,3.1-2.2-1.7-1.1-1.3c-.8-.3-.5-1-1.6-.8s0,1.1-.6,1.8-1.5,2-2.3,2.2-2.5-.1-2.3-.7,2.9-.3,3.4-1.9-.2-1.8-.4-3a19.7,19.7,0,0,1,.1-3.8c-1.7-2.8-4.6.4-4.7,2.4,0-.6-.1,2.1-.2,1.7s3.1,2,1.3,2.3-6.4-4.3-7.9-3.4c.4-.2,2.7,4.1.5,3.1s0-.4-2.1-.2a15.3,15.3,0,0,1-3,.3c.3-.2.7-.4.7-.9s-4.3,1.7-4.9,2-.6,1.9-2.2.9.8-1,1-1.2-2.8-1.8-2.7-1.2.8,2.6.2,2.1c1.6,1.2-.3,1.1-.4,1.2-1.9,1.5-1.9-.2-2.3,2.6,0,.4-1.5-.5-1.8-.3l-.9-.6c-.6.2-.7.6-.3,1s1.3,2-.3.7-2.6-5.1-3.5-4.6c.6-.3,9.6,4,6.9-1-.5-.9-6.2-3.3-6.6-2.7l.6-.2c-.1-.7-1.5,0-1.6-.2s-1.3.5-1.6-.5,1.5-.2,1.5-.4-2.6-.1-2.2-.1.1-.9.1-1-1.1,1-1.4,1,.1-1-.1-.9L196,83.1c-.4.1.8-1.4.8-1.4l-1.4.7s-1.6,1.1-1,1,.2-1.8.3-1.4-1.2.1-1.2.4l.4.6H193l.4.4-1-.3c0-.1.3,1.1,0,.8s-.5-1-1.3-.6l-1.7,1.4c0,.2.8-.1.7.5h-1.4a1.9,1.9,0,0,1,.2-.7c-.8.7-1.6,1.5-2.4,2.1s2-1.6,2.7-.9v.7c-1.9.7-2.5,3.8-4.2,4.6s.7.6.4.7a12.2,12.2,0,0,0-1.8,1.5c-.8.7-.7-.7-.7-.2s-.6.2-1.1.9l.4.4c-.5-1.2-1.9,1.9-1.8,1.7-.3,1.8.9,1.2,1,1.5s-1.1.5-1.1.5v.8c0,.4.7-.4.9,0s-.5.5-.6.6,3.2.4,2.7.5,1-1.2,1.4-1.4,2,5.4,2.2,5.4,2.6-2.2,2.9-2.3-.3.4-.5.2,2-2.6,2-3.8-1.7-.8-1.2-2.9,1.3-1.4,2-2.3,1.3-2.8,2.3-3.2c4.5-1.5-1.1,3.8-1.2,4.1a6.9,6.9,0,0,0,.2,3.5c1.3,1.3,3.7.3,5,0l.4-.6-.4.6a2.3,2.3,0,0,1,1.6.6c.3.3-3.9.8-3.7.7-2.7,1.3-.1,1.2-.7,2s-1,.3-1.3.6-2.1.2-1.4,1.7-.7,2-1.6,2.3l-2.9.3c-1.3.2-.6.4-1.2-.5s-1.8,1-2,.8a.6.6,0,0,1,0-.6c-.4-.1-1.5,0-1.3-.9s.9.5,1,.1-.5-.3-.7-.6,1-2.1.4-2.7-1,1-1,1-.8-.3-.9,1.4,1.1,1.8.8,2.4-2.5.8-2.9,1.1a22.8,22.8,0,0,0-2.2,2.2,10,10,0,0,1-1.5,1.4,8.3,8.3,0,0,1-2.2.3c-.5.2.4,1,0,1.3s-1.7-.7-2-.2.4.4,1.1,1.5,2.5,3.4.2,4.5-3.6-.8-4.4-.4-.3.8-.7,2.3c-.7,3-.6,4.3,1.9,5.1a4.4,4.4,0,0,0,5-1.7c1.1-1.6,1.8-4.2,3.5-5.3a19.9,19.9,0,0,0,3.4-.5c1.7.1.6-.2,2.1,1-.1,0,5.7,5.2,4.1,5.2.9,0,.6-2.3.7-2.3a1,1,0,0,1,1,.3c-.6-.2-6.3-6.3-3.5-6.2.3,0,3.3,3.4,4.3,4a.4.4,0,0,1,.1-.3.4.4,0,0,0-.1.3c-.9-.6,2.5,5.2,2.5,3.9s-1.5,2.9.5,1.8a2.9,2.9,0,0,0-.2-.9h.6c.2,0-.6-.3-.4-.5s1.1.3,1-.4-.7,0-1-.4a5.7,5.7,0,0,0-.3-1.8l.9.2c.6-.3,3.5-.2,4.2-1s-1.2-1.5-1.1-1.8a7.4,7.4,0,0,1,1.4-2.2c.3-.5.4-1.6,1.1-1.9s2.4-.1,2.5.5a2.4,2.4,0,0,1-1.1.6c0-.2.9,1.2.9,1.1l2.5-.7c.1-.2-2.3-.1-1.1-1.3s3-1.3,3.1-.9-1.9,1.9-1.8,2.2,4,1.9,3.9,3.2-2.3,1.2-3.6,1.2-.9-.6-1.5-.7a10.6,10.6,0,0,0-4.3.8c-2.1.6-4.4,1.6-2,4.1s2.3.6,3.5.7,3-.6,3.4-.4-.8,3.3-.9,3.6l.4.2h0l-.4-.2c-1.3,3-3.7,2.4-6.8,1.8-.9-.2-1.6-.6-2.4-.7s-.6-1.3-2.4-.3-.4,1.5-.5,1.5-5.6-1.1-6.8-2.4.8-2.2-.1-3.5-4.3-.1-5.3.1a16.4,16.4,0,0,0-3.8,1c-1.3.3-2.4.2-3.6.5s-.6-.1-1.5.4c.9-.5-2.1,2.2-1.7,1.6a10.1,10.1,0,0,0-1.2,2.3c-.4.6-.3,1.3-.8,2.1s-1.1.6-1.5,1.1a12.9,12.9,0,0,0-2.6,4.2c-.7,1.8-.3,2-.4,3.6s-.5,3-.5,4.4.8,2.2,1.6,3.4c1.7,2.8,3.7,5.4,7,5.7a15.2,15.2,0,0,0,5.2-.7c.2-.1,2.4-1.3,2.6-1l1.9,1c.3.1.1.8.5,1s.8-.4,1.1-.2,1.1.2,2,2.2c.2.4-.4,1.8-.3,2.1a29.2,29.2,0,0,0,1.7,3.9c1,1.9,2,4.4,1.8,6.2s-1.6,3.4-1.7,5.4,1.8,4.6,2.1,6a37.9,37.9,0,0,0,2.1,6.5c1.2,3.3.2,4,3.9,3.6s5.5-1.6,7.4-5.1a12.7,12.7,0,0,0,.6-2.8c1.3-1.9,2.1-.9,2.4-3.2s-.8-1.7.1-3.4,2.8-1.5,3.6-2.6-.1-5.2-.6-7.7.9-4.5,2.7-6.5,9.7-10.3,7-11.3-4.1,2-6.3.6h0c-.5-1-1.1-2-1.7-3s-2.4-2.4-3-4.1-3.9-10.7-4-10.6.8,2.3,1.3,2.3a2.9,2.9,0,0,0,.5-1.3c.6.3,2.3,4.2,2.6,4.9s2.3,3.9,3.3,6,.4,3.2,1,3.9,2.9,0,4.3-.6a20.8,20.8,0,0,0,7.1-4.3c.2-.1,2.2-2.5,2.1-3s-3.1-4-2.7-4-1.8,2.3-3.3,2.1,0-1.6-.8-1.8-.6.8-.6.8-2.5-4.3-1.6-4.8,4,2.8,5.2,3.4H222c.2,0,.6.7,1.1.9a37.3,37.3,0,0,0,4.3.3,5.2,5.2,0,0,1,3,.6c-.2-.1,2.6,2.5,2.6,1.8a1.5,1.5,0,0,1-1.1.4c-.6,3,3.5.5,2.8.2s3.9,20.9,6.2,8.8c.6-3.4,1.8-4,4.3-6.5.5-.5,3.5-3.3,4.2-2.9s1.5,5.4,2.3,6.2,1.4-3.4,2.7,1.9c.4,1.7-.1,3.7.3,5.2s3.3,7.1,4.7,6.3-1.8-4.3-2.3-4.9-3.2-5.2-.8-6c.7-.2,2.2,1.8,2.5,2.2a11.3,11.3,0,0,1,1.2,2.1c.2.1,1.8-1.5,1.9-1.6,2.5-2.4,1.5-3,.1-5.7s-2.1-3.4.3-4.4,1.1.2,1.9,1,6.6-3.5,7.3-4.4,2.4-4.9,2.7-4.8-.9,0-1.1-.2,1.2-1.7-.4-1.7c0,0,1.4-.1,1.2.1s-2.1-3.1-2.1-3.2l2.6-2c.8-.6-3.3-.6-2.3-.1a12.9,12.9,0,0,1-1.7-1.6c.1-.3,3.3-2.5,3.7-2.2s-.9,2.1-.7,2.1c2.6.1,1.2-1.6,3.3-.2-.9-.6.4,1.6.2,1.2s.9.2,1.1.8-.7,1.9-.3,2.5,2.4-.8,2.5-.9-.7-2.1-.9-3.1-.5-.1.3-2a10.5,10.5,0,0,1,2-2.7h0c1-.8,1.2.3,2.3-.1a8.8,8.8,0,0,0,2.5-2.6,14.4,14.4,0,0,0,2.9-5.8c.2-1.2,1-2.6.4-3.6s-1.5-.2-2.7-.1-.1-1-.1-1l-.6.6s-1.3-1.7-1.3-1.2,2.2-2.2,2.8-2.7,2.6-2.9,5.1-3.2c.6-.1,5.9,0,5.7.3l-.5.2c-.4.3,3.3-.2,3.1-.4s2.8-4.4,4.3-3.4c-.2-.1-.1,1.6-.2,1.5s4.2-3.2,4.1-2.3-3.5,4-4.7,5-2.2,1.1-2.9,3.2-.2,5.4.8,6.5,5.2-6.4,5.3-6.5-.1-2.3,0-1.9-1.3-.7.1-2.4a9.4,9.4,0,0,1,2.2-1.2.9.9,0,0,1,.1.7c-.3-1.3,3.5-.1,3.4,0s1.7-1.5,2.5-2,3.8-1.2,4.1-1.4c2-2-1.2-1.9-1.6-3.3.2.5,2.9-.5,3.3-.8s-.2-.9.8-1.4c-.6.3,4.1,3.7,5,2.8a.5.5,0,0,0-.3-.5S328,90.7,327.9,90.6Z" transform="translate(0 0)"/><path class="cls-4" d="M226.5,64.1c.8-1-3.1-.4-2.3.3A2,2,0,0,0,226.5,64.1Z" transform="translate(0 0)"/><path class="cls-4" d="M222.5,64.6l-1.2.4c-.4.6,2.5.5,2.7-.1S222.4,64.5,222.5,64.6Z" transform="translate(0 0)"/><path class="cls-4" d="M222.3,63.2c.2,0,1.6-.5,1.5-.6s-2.5.4-2.5.3A1,1,0,0,0,222.3,63.2Z" transform="translate(0 0)"/><path class="cls-4" d="M290.4,109.4c.5,1.3-1,4.9-.2,6-.5-.7,1.2,0,1.2,0l-.6-2.1c.6-1.5,1.2-.8,1.5-1.1s-1.9-6.2-1.6-6.4S290.2,108.8,290.4,109.4Z" transform="translate(0 0)"/><path class="cls-4" d="M232.9,78.6a2.8,2.8,0,0,0,1.3-.3C234.7,77.3,231.8,78.4,232.9,78.6Z" transform="translate(0 0)"/><path class="cls-4" d="M240.5,78.7c0-.4-.9.1-.6.3S240.6,79.1,240.5,78.7Z" transform="translate(0 0)"/><path class="cls-4" d="M228.3,64l.7-.4c.3-.8-2.1.2-2,.3A2,2,0,0,0,228.3,64Z" transform="translate(0 0)"/><path class="cls-4" d="M308.2,178.5c0,.3,2,2,2.3,1.8S308.1,178.2,308.2,178.5Z" transform="translate(0 0)"/><path class="cls-4" d="M112.1,136.7c-.4-.8.1,1.7.3,1.3Z" transform="translate(0 0)"/><path class="cls-4" d="M125.4,150.7c.6.1.7-.1.5-.6S125.2,150.5,125.4,150.7Z" transform="translate(0 0)"/><path class="cls-4" d="M262.5,162.4c0-.2-.6-.1-.4.2S262.5,162.7,262.5,162.4Z" transform="translate(0 0)"/><path class="cls-4" d="M267.5,167.5h.9c.5-.3-2.3-.8-2.2-.8s.4-.7.8-.6h0c-.7.5-6.9-1.6-6.5-.1S267.2,167.9,267.5,167.5Z" transform="translate(0 0)"/><path class="cls-4" d="M274.9,167.5c.6,0,.7-.1.2-.3l-3.2.4C272.3,168.5,274.3,167.5,274.9,167.5Z" transform="translate(0 0)"/><path class="cls-4" d="M270,167.2c-.2.6-.8-.2-1,.2s2,.8,2.2.2S270.1,166.9,270,167.2Z" transform="translate(0 0)"/><path class="cls-4" d="M263,159.3c1.8,1.8.9,3.4,3.9,3.6s2.6-1.9,4.2-3.9a9.4,9.4,0,0,1-1-2.3c0-1,1.2-.9,1.4-1.5s-2.3-1.1-2.5-1.1-.4,1.6-1.8,1.5l-2.4,2.8C265,157.9,261.7,158,263,159.3Z" transform="translate(0 0)"/><path class="cls-4" d="M253.5,158.6c0,.2.2,1,.5.7S253.6,158.3,253.5,158.6Z" transform="translate(0 0)"/><path class="cls-4" d="M254.7,160.8c0,.1.2.7.4.5S254.9,160.4,254.7,160.8Z" transform="translate(0 0)"/><path class="cls-4" d="M260.7,163.7c-.1-1.1.5-.8.5-1.5s-1-1.2-1-.7l.5.7c-.2.5-2.7-3.3-2.8-3.4s-5.5-4.5-5.8-4,3.9,6.1,4.4,6.9S260.9,167.2,260.7,163.7Z" transform="translate(0 0)"/><path class="cls-4" d="M272.7,168.9c0-.7-1.4-.3-1.5-.4S272.7,169.6,272.7,168.9Z" transform="translate(0 0)"/><path class="cls-4" d="M271.1,162.2c-.1.2,1.5,2.5.9,2.8s0-2.9.6-2.6-.1,2.2,1.5,1c-.8.7,0-4.3.7-2.9s-3.6,1.1-2.7-.4,3.2.3,4.1-1.5c-.5,1-2.7-.3-3.4.2S271.7,161,271.1,162.2Z" transform="translate(0 0)"/><path class="cls-4" d="M278.7,162.8l2.1.5C281.7,163.3,278.2,161.3,278.7,162.8Z" transform="translate(0 0)"/><path class="cls-4" d="M278.8,158.6c0-1.7-1.5,1.9-.1,1.6S278.8,158.6,278.8,158.6Z" transform="translate(0 0)"/><path class="cls-4" d="M276.1,168.5c.4-.6,1.8-.6,2-1.2s-2.2.7-2.4.7-1.2.8-.6,1.1A1.1,1.1,0,0,0,276.1,168.5Z" transform="translate(0 0)"/><path class="cls-4" d="M277,162.8c.1.4.8.7,1,.3S276.9,162.3,277,162.8Z" transform="translate(0 0)"/><path class="cls-4" d="M182.5,120.9c-.2.4.3,2.8,1.2,1.6S183.1,119.8,182.5,120.9Z" transform="translate(0 0)"/><path class="cls-4" d="M187.7,123.7c.2,0-1.8-.2-1.6.4a4.5,4.5,0,0,0,1.7,1.1l.6-1.4A.6.6,0,0,0,187.7,123.7Z" transform="translate(0 0)"/><path class="cls-5" d="M199.8,93.4A3.8,3.8,0,0,0,196,97h0c0,1.9,3.5,6.3,3.5,6.3h.3s3.7-4.2,3.7-6.3a3.8,3.8,0,0,0-3.7-3.7Zm0,5.5a1.8,1.8,0,1,1,1.8-1.8A1.8,1.8,0,0,1,199.8,98.9Z" transform="translate(0 0)"/><path class="cls-5" d="M196.9,114.2a3.2,3.2,0,0,0-3.2,3.2h0c0,1.6,3,5.4,3,5.4h.2s3.3-3.6,3.3-5.4a3.2,3.2,0,0,0-3.2-3.2Zm0,4.8a1.6,1.6,0,1,1,1.6-1.6A1.6,1.6,0,0,1,196.9,119Z" transform="translate(0 0)"/><path class="cls-5" d="M220,103.4a8,8,0,0,0-8.1,7.9h0c0,4.1,7.5,13.6,7.5,13.6h.6s8.1-9.1,8.1-13.6A8.2,8.2,0,0,0,220,103.4Zm0,12a4,4,0,0,1-1.3-7.9H220a3.9,3.9,0,0,1,3.3,4.6A4,4,0,0,1,220,115.4Z" transform="translate(0 0)"/><path class="cls-5" d="M121.6,167.6a3.5,3.5,0,0,0-3.5,3.5c0,1.8,3.3,6,3.3,6h.2s3.6-4,3.6-6A3.7,3.7,0,0,0,121.6,167.6Zm0,5.3a1.8,1.8,0,0,1-1.7-1.8,1.8,1.8,0,0,1,1.7-1.7,1.8,1.8,0,0,1,1.8,1.7,1.8,1.8,0,0,1-1.8,1.8Z" transform="translate(0 0)"/><path class="cls-5" d="M265.7,118.8a4.7,4.7,0,0,0-4.8,4.6h0c0,2.4,4.4,8,4.4,8h.4s4.7-5.4,4.7-8a4.7,4.7,0,0,0-4.7-4.7Zm0,7a2.3,2.3,0,1,1,2.3-2.3h0A2.3,2.3,0,0,1,265.7,125.8Z" transform="translate(0 0)"/><path class="cls-5" d="M288,167.2a4.7,4.7,0,0,0-4.8,4.6h0c0,2.4,4.4,8,4.4,8h.4s4.7-5.3,4.7-8a4.7,4.7,0,0,0-4.7-4.7Zm0,7.1a2.4,2.4,0,0,1-1-4.7h1a2.4,2.4,0,0,1,0,4.7Z" transform="translate(0 0)"/><path class="cls-5" d="M98.5,111.6a4.7,4.7,0,0,0-4.7,4.7h0c0,2.3,4.4,7.9,4.4,7.9h.3s4.8-5.3,4.8-7.9a4.7,4.7,0,0,0-4.6-4.8Zm0,7.1a2.3,2.3,0,0,1-2.3-2.3h0a2.4,2.4,0,0,1,4.7-1,1.7,1.7,0,0,1,0,1,2.3,2.3,0,0,1-2.3,2.3Z" transform="translate(0 0)"/><path class="cls-5" d="M186.8,82.8a5,5,0,0,0-4.8,4.8c0,2.4,4.4,8,4.4,8h.4s4.8-5.4,4.8-8A5,5,0,0,0,186.8,82.8Zm0,7.1a2.3,2.3,0,1,1,2.3-2.3,2.3,2.3,0,0,1-2.3,2.3Z" transform="translate(0 0)"/><path class="cls-5" d="M64.9,79.9a4.7,4.7,0,0,0-4.7,4.7h0c0,2.3,4.4,7.9,4.4,7.9h.3s4.8-5.3,4.8-7.9a4.7,4.7,0,0,0-4.6-4.8Zm0,7.1a2.4,2.4,0,0,1,0-4.7,2.4,2.4,0,0,1,1,4.7Z" transform="translate(0 0)"/><path d="M249.7,199.8" transform="translate(0 0)"/><path class="cls-6" d="M136.6,167.1" transform="translate(0 0)"/><path class="cls-7" d="M147.6,172.9" transform="translate(0 0)"/><path class="cls-8" d="M150.5,168.1" transform="translate(0 0)"/></g><g id="Layer_10" data-name="Layer 10"><path class="cls-9" d="M174.1,219s-3.3,27.1-3.9,34.6-3.3,35.6-3.3,35.6l-3.8.3s-2-12.7-2-18.1-2-16-1.9-19.7-2.3-24.1-2-35.5S174.1,219,174.1,219Z" transform="translate(0 0)"/><path class="cls-10" d="M163.9,219s-3.5,27.1-4.2,34.6-3.6,35.6-3.6,35.6l-4,.3s-2.2-12.7-2.2-18.1-2.2-16-2-19.7-2.6-24.1-2.2-35.5S163.9,219,163.9,219Z" transform="translate(0 0)"/><path class="cls-11" d="M167.3,289.2s4.1,2.7,5.7,3.6,4.7,1.4,4.7,2-1.3.8-1.3.8H162.3a13.2,13.2,0,0,1,.4-3.4l.6-2.7Z" transform="translate(0 0)"/><path class="cls-11" d="M151.4,290.7s-1.8,4-.8,4.7,11,.4,13.7.2,5.9-1.2,5.6-1.9-9.3-1.9-10.6-2.6l-4.5-2.7Z" transform="translate(0 0)"/><path class="cls-12" d="M151.5,290.4a28.8,28.8,0,0,0,4,.9l.7-2.1-.6-.6-3.2.9Z" transform="translate(0 0)"/><path class="cls-12" d="M163.1,290.4l3.9.9.7-2.1-.6-.7-3.2.9Z" transform="translate(0 0)"/><path class="cls-13" d="M161,240.1" transform="translate(0 0)"/><path class="cls-13" d="M153,232" transform="translate(0 0)"/><path class="cls-12" d="M182.5,219.1s3,3.7,3.6,5.3,1.6,5,.5,5-1.3-3-1.3-3,.2,2.8-.2,3.5-1-2.9-1-2.9-.3,3.1-.8,2.6a13.6,13.6,0,0,1-.7-3.5s-.9,3.3-1.3,2.5a7.1,7.1,0,0,1,0-2.9s-1.4-2.5-2.1-4.2a6.9,6.9,0,0,1-.5-2.4Z" transform="translate(0 0)"/><path class="cls-11" d="M175.7,195.4s2.8,7.1,3.7,10.8,3.8,12.7,3.8,12.7l-4.5,1.4s-4.2-7.4-5.9-11.2a34.1,34.1,0,0,1-2.4-6.3Z" transform="translate(0 0)"/><path class="cls-5" d="M173.6,221.8l-.8,8.2a54.6,54.6,0,0,1-6.7-2.6c-1.1-.7-.9-5.4.2-10.9s7.8-21.2,7.8-21.2Z" transform="translate(0 0)"/><path class="cls-12" d="M166.5,173.2a3.3,3.3,0,0,1,1.5,1.1,65.8,65.8,0,0,1,4.2,8.4c2,5.4-.4,45.2-2.7,42.9,0,0-2.2,3.1-3.3,3h-.5a3.1,3.1,0,0,1-1.2-.5,27.3,27.3,0,0,0-6-3.4c-3.5-1.5-8.2-6.6-9-7.4l-.3-.3-.8-.6a2.5,2.5,0,0,1-.8-2.2c1-6.1,5.1-30.9,5.3-34.6s4.7-6.1,7.4-6.8A11,11,0,0,1,166.5,173.2Z" transform="translate(0 0)"/><path class="cls-11" d="M167.2,175.7s3,5,3.2,9.8a48.1,48.1,0,0,0,1.2,7.6s1.3,19.7,2.3,23.1,2,8.1,2,8.1-.6-20.4-.1-24.8-4.3-22.5-6.1-24.4a19.6,19.6,0,0,0-4.5-3Z" transform="translate(0 0)"/><path class="cls-12" d="M135.1,233.6l-.8,5c-.2,1.7-2.1,2.2-2.3,3.8s-.1,2.3-.7,2a2.2,2.2,0,0,1-1-1.8s-5.1-1.7-5.4-2.4,6.9-6.5,6.9-6.5Z" transform="translate(0 0)"/><path class="cls-12" d="M167.6,170.9s-.8,6-.8,8.4,0,2.1-.1,3.1a58.8,58.8,0,0,1-5.3-5.9c-.8-1.6-1.9-4.1-1.9-4.1l1.4-5.9Z" transform="translate(0 0)"/><path class="cls-6" d="M171.4,150.4s3.2,1.9,3.1,7.2c0,2.2-1.3,6.1-2.2,8.9l-.3.9a6.1,6.1,0,0,0-.5,1.8,3.8,3.8,0,0,1-4.6,2.5c-1.8-.5-6.5-4.7-7.5-5.5s-2.1-3.8-1.9-8.3S163.7,147.1,171.4,150.4Z" transform="translate(0 0)"/><path class="cls-11" d="M158.7,172.5a118.8,118.8,0,0,0,3.5,13c1.9,4.7,1.5,19.1-1.5,26.8s-6.4,17-6.4,17l-9.5-8s3.9-14.6,3.8-18.3-1.3-27.8.3-28.1S150.8,174.2,158.7,172.5Z" transform="translate(0 0)"/><path class="cls-11" d="M152.2,174s-8.2.6-8.3,1.7-4.7,25.9-5.5,27.3-3.6,6-4,9.3-3.1,20.8-3.1,20.8l5,.2s7.8-18.7,8.4-21.9,10.4-29.4,10.1-31.1a17.6,17.6,0,0,0-1-3" transform="translate(0 0)"/><path class="cls-5" d="M93.6,293.1a2.3,2.3,0,0,0-2.3-2.3h-.1a2.3,2.3,0,1,0,2.4,2.4Z" transform="translate(0 0)"/><line class="cls-14" x1="125.8" y1="245.5" x2="93.3" y2="289.2"/><line class="cls-15" x1="130.4" y1="238.6" x2="124.7" y2="246.5"/><path class="cls-5" d="M90.3,288.6,82,283.1a3.4,3.4,0,0,1-1-4.8h0L97.9,255a3.9,3.9,0,0,1,5.2-.9l8.3,5.5a3.4,3.4,0,0,1,1,4.8h0L95.5,287.7A3.9,3.9,0,0,1,90.3,288.6Z" transform="translate(0 0)"/><path class="cls-5" d="M76.6,277.5l4.9,3.2,16.3-22.4-6-3.9a4,4,0,0,0-5.4.9L75.3,270.5a4.8,4.8,0,0,0,.9,6.7Z" transform="translate(0 0)"/><path class="cls-11" d="M78.1,278.5l4.9,3.2,16.3-22.4-6-4a4,4,0,0,0-5.4,1L76.8,271.5a4.8,4.8,0,0,0,.9,6.7Z" transform="translate(0 0)"/><path class="cls-9" d="M92.9,255l-7.4,9.6a.8.8,0,0,0,0,1h.2l1.8,1.2a.8.8,0,0,0,1.1-.1l7.4-9.7Z" transform="translate(0 0)"/><path class="cls-11" d="M92,289.7l-8.4-5.5a3.3,3.3,0,0,1-1-4.7c0-.1.1-.1.1-.2l16.9-23.2a3.8,3.8,0,0,1,5.1-.9l8.4,5.5a3.4,3.4,0,0,1,1,4.8h0l-17,23.3A3.8,3.8,0,0,1,92,289.7Z" transform="translate(0 0)"/><polygon class="cls-12" points="93.1 288 91.3 292.8 92.2 293.3 95.5 289.5 93.1 288"/><path class="cls-9" d="M107.4,256.9l-8.3,10.5a.8.8,0,0,0,.2,1.2l1.7,1.2a.8.8,0,0,0,1.1-.1h.1l8.3-10.6Z" transform="translate(0 0)"/><path class="cls-5" d="M92.5,285.3l-5.3-3.6a2.9,2.9,0,0,1-.8-4c0-.1.1-.1.1-.2l4.1-5.5a3.3,3.3,0,0,1,4.5-.7l5.2,3.6a2.9,2.9,0,0,1,.9,4.1c0,.1-.1.1-.1.2L97,284.6A3.3,3.3,0,0,1,92.5,285.3Z" transform="translate(0 0)"/><path class="cls-11" d="M93.3,286.1,88,282.5a3,3,0,0,1-.8-4.2h.1l4.1-5.4a3.3,3.3,0,0,1,4.5-.7l5.3,3.6a2.9,2.9,0,0,1,.8,4c0,.1-.1.1-.1.2l-4.1,5.5A3.3,3.3,0,0,1,93.3,286.1Z" transform="translate(0 0)"/><path class="cls-12" d="M128.4,241.2c.3-1,3.6-5,2.2-4.1" transform="translate(0 0)"/><path class="cls-6" d="M-16.1,133" transform="translate(0 0)"/><path class="cls-7" d="M11.6,147.6" transform="translate(0 0)"/><path class="cls-5" d="M176,149a14.6,14.6,0,0,0-9.6-1.8H166l-4.2,1.4a10.2,10.2,0,0,0-3.8,3.9,38.9,38.9,0,0,0-1.2,4.9,4.3,4.3,0,0,0,.2,1.1c.9,3,1,6.1,1.7,6.5l1.7,1.1v-1.5s-2.2-6,0-7.5,3.2-3.7,5.7-3.8,6.4.5,8.2,0l1.3-.4C177.6,151.2,177.8,150.5,176,149Z" transform="translate(0 0)"/></g><g id="Layer_9" data-name="Layer 9"><path class="cls-5" d="M251.3,153.2a17.9,17.9,0,0,0-6.3,7.3c-2.1,4.8-.9,8,1.5,10a20.7,20.7,0,0,1,5.2,7.5,5.3,5.3,0,0,1-.9,3s4.9,2.6,8.8,1.1,5.3-8.8,4-11.7-8.9-9.1-9.8-13-.4-4.9-.4-4.9Z" transform="translate(0 0)"/><path class="cls-16" d="M258.7,180.6l-5.9,1.2s-2.7.8-4.8,6.1-3.2,15.6-3.2,15.6l-1.1-1.7-2.5,3s4,8.8,5.9,9.1,5.1-5.6,5.1-5.6a71.7,71.7,0,0,1-1.8,9,60.1,60.1,0,0,0-3.1,18.3c0,9.7,5.3,22.5,6.6,27.3s1.2,8.9,2.2,13.6a112.7,112.7,0,0,1,1.7,13c-1.1,1.3-2.3,2.5-3.5,3.7s6.8.9,7.6.3.9-2.4.9-3.7-.1-20.8-.1-20.8,9.8,16.5,9,18.5,2.7-2.9,2.7-2.9-1.5-12-2.5-16.6a76.8,76.8,0,0,0-3.1-9.6s8.2-15.9,9-25.8-3.8-22.9-3.8-22.9,4.2-11,4.3-18.3-2.2-8.6-5-9.9a13.9,13.9,0,0,0-4.5-1.4l-6-.6Z" transform="translate(0 0)"/><g class="cls-17"><path class="cls-18" d="M274,185.9a9.6,9.6,0,0,1,3.2-1.2l-.3-.5-3.1,1.1c-.2.1-.3.2-.2.4s.2.3.4.2Z" transform="translate(0 0)"/><path class="cls-18" d="M271.1,193.5v.6a5.3,5.3,0,0,1,2.1,1.1c.1.1.3,0,.4-.1s0-.3-.1-.4A6.8,6.8,0,0,0,271.1,193.5Z" transform="translate(0 0)"/><path class="cls-18" d="M277.6,195.7a.5.5,0,0,1,.2-.4h.1a1.3,1.3,0,0,0,.1-.6h-.3a1,1,0,0,0-.7.9,14.8,14.8,0,0,0,0,4.2c.1-.6.3-1.2.4-1.8A9,9,0,0,1,277.6,195.7Z" transform="translate(0 0)"/><path class="cls-18" d="M277.3,189.3a.3.3,0,0,0,0,.4c0,.1.1.1.2.1h.2l.5-.8a2.8,2.8,0,0,0-.1-.9Z" transform="translate(0 0)"/><path class="cls-18" d="M273.6,207.4c.1.1.3.2.4.1l.9-.4a1.9,1.9,0,0,1,.2-.7l-1.3.6C273.6,207.1,273.6,207.2,273.6,207.4Z" transform="translate(0 0)"/><path class="cls-18" d="M273.6,216.8c.1-.2,0-.3-.1-.4a5.5,5.5,0,0,0-2.4-1.2v.6a5.1,5.1,0,0,1,2.1,1Z" transform="translate(0 0)"/><path class="cls-18" d="M277.1,222c0-.2-.1-.3-.1-.4v.3Z" transform="translate(0 0)"/><path class="cls-18" d="M266.5,184.1a.3.3,0,0,0,0,.4h.4c.1-.1,2.1-2.6,1.7-4.5H268C268.5,181.2,267.1,183.4,266.5,184.1Z" transform="translate(0 0)"/><path class="cls-18" d="M263.2,180.6l2.3-.9h-1.4l-1.1.5c-.1.1-.2.2-.1.4Z" transform="translate(0 0)"/><path class="cls-18" d="M259.4,186.7a2.8,2.8,0,0,0,0-1.8.9.9,0,0,0-.6-.6c-1.5-.6-4.7,1-4.9,1s-.2.3-.1.4l.4.2c.2,0,3.3-1.5,4.4-1.1s.3.2.3.4a1.9,1.9,0,0,1,0,1.5Z" transform="translate(0 0)"/><path class="cls-18" d="M251.3,193.5v.6a5.3,5.3,0,0,1,2.1,1.1c.1.1.2,0,.3-.1h0a.3.3,0,0,0,0-.4A9,9,0,0,0,251.3,193.5Z" transform="translate(0 0)"/><path class="cls-18" d="M270.5,193.6a1.5,1.5,0,0,0-.6.9,11.9,11.9,0,0,0,0,4.6.2.2,0,0,0,.2.2h.1c.1,0,.2-.1.2-.3a16.2,16.2,0,0,1,0-4.4c0-.3.2-.4.3-.4h.4v-.6Z" transform="translate(0 0)"/><path class="cls-18" d="M257.8,194.7a1.5,1.5,0,0,0-.6.9,17.7,17.7,0,0,0,0,4.6c0,.1.1.2.3.2h0c.1,0,.2-.1.2-.3a16.2,16.2,0,0,1,0-4.4c.1-.3.2-.4.3-.4a9.9,9.9,0,0,1,2.6,1c.7.5.2,0,.3-.1a.3.3,0,0,0,0-.4C260.7,195.7,258.8,194.3,257.8,194.7Z" transform="translate(0 0)"/><path class="cls-18" d="M266.5,206.2h.4c.1-.1,2.3-2.9,1.6-4.7a1.2,1.2,0,0,0-.7-.7c-1.4-.6-4.7,1-4.8,1.1s-.2.2-.1.4a.2.2,0,0,0,.3.1h0c.9-.4,3.4-1.5,4.4-1.1l.4.4c.5,1.2-.9,3.4-1.5,4.2A.2.2,0,0,0,266.5,206.2Z" transform="translate(0 0)"/><path class="cls-18" d="M257.4,189.3c-.1.1,0,.3.1.4s0,.1.1.1h0c.1,0,.2,0,.2-.1a8.7,8.7,0,0,0,1.6-3h-.5A7.6,7.6,0,0,1,257.4,189.3Z" transform="translate(0 0)"/><path class="cls-18" d="M253.8,207.4c.1.1.2.2.4.1s3.3-1.5,4.4-1l.3.3a2.2,2.2,0,0,1,0,1.6h.5a2.8,2.8,0,0,0,0-1.8,1.3,1.3,0,0,0-.6-.7c-1.5-.6-4.7,1-4.9,1.1S253.7,207.2,253.8,207.4Z" transform="translate(0 0)"/><path class="cls-18" d="M263.9,188.2h-.3c-.2.3-1.5,2.4-1.2,3.7a1.4,1.4,0,0,0,.8.9,2.5,2.5,0,0,0,1.2.2,4.1,4.1,0,0,0,2.4-.8h.2c.1-.2,0-.3-.1-.3h0c-.1-.1-.2-.2-.4-.1a3.4,3.4,0,0,1-3.1.5.5.5,0,0,1-.5-.5c-.2-.9.7-2.6,1.1-3.1S264.1,188.3,263.9,188.2Z" transform="translate(0 0)"/><path class="cls-18" d="M251.3,215.2v.6a5.1,5.1,0,0,1,2.1,1h.3c.1-.2.1-.3,0-.4A5.5,5.5,0,0,0,251.3,215.2Z" transform="translate(0 0)"/><path class="cls-18" d="M270.5,215.3a1.1,1.1,0,0,0-.6.9,11.4,11.4,0,0,0,0,4.5c0,.2.1.3.2.3h.1c.1,0,.2-.2.2-.3a16.2,16.2,0,0,1,0-4.4.5.5,0,0,1,.3-.5h.4v-.6Z" transform="translate(0 0)"/><path class="cls-18" d="M257.8,216.4a1.1,1.1,0,0,0-.6.9,17.7,17.7,0,0,0,0,4.6c0,.1.1.2.3.2h0c.1,0,.2-.2.2-.3a16.2,16.2,0,0,1,0-4.4l.3-.5c.6-.2,1.9.5,2.6,1.1h.3a.3.3,0,0,0,0-.4C260.7,217.3,258.8,216,257.8,216.4Z" transform="translate(0 0)"/><path class="cls-18" d="M266.5,227.8h.4c.1-.1,2.3-3,1.6-4.8a1.1,1.1,0,0,0-.7-.6c-1.4-.6-4.7,1-4.8,1s-.2.3-.1.4l.3.2c.1,0,3.4-1.5,4.4-1.1a.8.8,0,0,1,.4.4c.5,1.2-.9,3.4-1.5,4.1A.3.3,0,0,0,266.5,227.8Z" transform="translate(0 0)"/><path class="cls-18" d="M258.9,208.4a10.1,10.1,0,0,1-1.2,2.3l-.3.3c-.1.1,0,.3.1.4h.3l.4-.6a5.5,5.5,0,0,0,1.2-2.4Z" transform="translate(0 0)"/><path class="cls-18" d="M263.9,209.8c-.1-.1-.2,0-.3.1s-1.5,2.3-1.2,3.7a1.1,1.1,0,0,0,.8.8l1.2.3a3.6,3.6,0,0,0,2.4-.9c.2,0,.2-.2.1-.4h-.4a3.4,3.4,0,0,1-3.1.5l-.5-.5c-.2-.9.7-2.6,1.1-3.2s.2-.1.1-.3Z" transform="translate(0 0)"/><path class="cls-18" d="M262.8,288.7" transform="translate(0 0)"/><path class="cls-18" d="M250.6,193.6a1.5,1.5,0,0,0-.6.9,17.7,17.7,0,0,0,0,4.6l.3.2h0c.2,0,.3-.1.2-.3a16.2,16.2,0,0,1,0-4.4c.1-.3.2-.4.3-.4h.5v-.6Z" transform="translate(0 0)"/><path class="cls-18" d="M243.4,202.3l.4-.2v-.3Z" transform="translate(0 0)"/><path class="cls-18" d="M248,200.7a4.5,4.5,0,0,0-2.8.3,1.3,1.3,0,0,0-.1.6,5,5,0,0,1,2.7-.4l.4.4c.5,1.2-.9,3.4-1.5,4.2a.3.3,0,0,0,0,.4h.4c.1-.1,2.3-2.9,1.5-4.7A.9.9,0,0,0,248,200.7Z" transform="translate(0 0)"/><path class="cls-18" d="M247,192.2c.1-.1.2-.3.1-.4h-.3c0,.2-.1.5-.1.7Z" transform="translate(0 0)"/><path class="cls-18" d="M250.3,221h0c.2,0,.3-.2.2-.3a24.1,24.1,0,0,1,0-3.8.6.6,0,0,0-.1.4,7.5,7.5,0,0,0-.5,1.6,10.9,10.9,0,0,0,.1,1.8A.3.3,0,0,0,250.3,221Z" transform="translate(0 0)"/><path class="cls-18" d="M250.8,215.8h.5v-.6h-.4c-.1.2-.1.5-.2.7Z" transform="translate(0 0)"/><path class="cls-18" d="M248.7,223.3a25.6,25.6,0,0,0-.5,2.7A4.2,4.2,0,0,0,248.7,223.3Z" transform="translate(0 0)"/><path class="cls-18" d="M246.7,213.4h-.2c.2.2.3.3.5.3h0c.1,0,.2-.2.1-.4Z" transform="translate(0 0)"/><path class="cls-18" d="M243.8,209.9l.3.5c0-.1.1-.1.1-.2a.6.6,0,0,0-.1-.4C244,209.7,243.9,209.8,243.8,209.9Z" transform="translate(0 0)"/></g><path class="cls-19" d="M258.7,180.6l-5.9,1.2s-2.7.8-4.8,6.1-3.2,15.6-3.2,15.6l-1.1-1.7-2.5,3s4,8.8,5.9,9.1,5.1-5.6,5.1-5.6a71.7,71.7,0,0,1-1.8,9,60.1,60.1,0,0,0-3.1,18.3c0,9.7,5.3,22.5,6.6,27.3s1.2,8.9,2.2,13.6a112.7,112.7,0,0,1,1.7,13c-1.1,1.3-2.3,2.5-3.5,3.7s6.8.9,7.6.3.9-2.4.9-3.7-.1-20.8-.1-20.8,9.8,16.5,9,18.5,2.7-2.9,2.7-2.9-1.5-12-2.5-16.6a76.8,76.8,0,0,0-3.1-9.6s8.2-15.9,9-25.8-3.8-22.9-3.8-22.9,4.2-11,4.3-18.3-2.2-8.6-5-9.9a13.9,13.9,0,0,0-4.5-1.4l-6-.6Z" transform="translate(0 0)"/><path class="cls-12" d="M261.5,293.5a6,6,0,0,0,.9-3.7V275h-6.6l.3,1.5a112.6,112.6,0,0,1,1.6,13C257.2,291.1,261.1,295.3,261.5,293.5Z" transform="translate(0 0)"/><path class="cls-12" d="M275.4,291.4c.4-.3-1-7.3-1-7.3s-.6-4.6-1.3-9.1h-7.2c2.6,4.6,5.4,10.6,5.9,11.7A12.6,12.6,0,0,0,275.4,291.4Z" transform="translate(0 0)"/><path class="cls-20" d="M263,292a4.2,4.2,0,0,1-5-1.2c-1.5-1.6-2.8.9-4.9,1.6s-3.6,1.8-3.1,2.4,2.1.9,4.7.9a37,37,0,0,0,6.6-.7C262.2,294.7,262.7,293.3,263,292Z" transform="translate(0 0)"/><path class="cls-20" d="M275.7,287.5a4.3,4.3,0,0,1-2.2,1.8,15.9,15.9,0,0,0-.7-2c-.5-1-1.3.2-1.3.2a40.2,40.2,0,0,1-2.2,4.7c-.8,1.5-1.7,3.2-1.2,3.5s1.7.2,3.4-1a27.1,27.1,0,0,0,4.1-3.5C276.1,290.5,275.9,288.8,275.7,287.5Z" transform="translate(0 0)"/><path class="cls-5" d="M248.4,224.8a56.5,56.5,0,0,0-1.1,10.8c0,9.7,5.3,22.5,6.6,27.3s1.2,8.9,2.2,13.6c.2.9.4,1.8.6,2.9a10.6,10.6,0,0,0,6.1,0V269s2.9,5.3,5.4,10.2a9.3,9.3,0,0,0,5.4-1.1c-.5-3.6-1.1-7.8-1.6-10.1a76.8,76.8,0,0,0-3.1-9.6s8.2-15.9,9-25.8a54.9,54.9,0,0,0-.3-8.1,41.8,41.8,0,0,1-15.6,2.8C255.4,227.3,251.1,226.1,248.4,224.8Z" transform="translate(0 0)"/><path class="cls-13" d="M262.1,231.6s-3.7,20-3.8,24,3.6,11.6,3.6,11.6" transform="translate(0 0)"/><path class="cls-19" d="M252.2,208.3s-3.6-4.3-3.7-7.5,2.9-11.4,2.9-11.4" transform="translate(0 0)"/><path class="cls-12" d="M258.6,176.2a13.5,13.5,0,0,1,1.9,3.3c.1.9-1.3,1.4-1.3,1.4s-2.5,5.4-.2,7.8,5.4.1,6.5-1.8,1.9-6.5,1.9-6.5a23.2,23.2,0,0,1-3.9-4.4,32.2,32.2,0,0,0-3.2-4.1S259.3,175.5,258.6,176.2Z" transform="translate(0 0)"/><path class="cls-12" d="M249.5,160.6s-1.3,4.3-.6,6.6,2.2,2.5,2.3,3.2-.7,3-.6,3.3,1.9.8,1.9.8,2.5,3.8,3.5,3.8,2.8-1.3,3.5-2.4a30.5,30.5,0,0,0,1.3-3.2s-.8-2-4.4-4.1S249.6,163.1,249.5,160.6Z" transform="translate(0 0)"/><path class="cls-19" d="M255.3,172" transform="translate(0 0)"/><path class="cls-19" d="M253.1,173.6" transform="translate(0 0)"/><path class="cls-5" d="M251.3,153.2s-2.7,4.8-1.9,8.3,4,6.4,6.4,7.8,6.4,5.4,6.5,8-2.3,4.2-1.8,4.5,4.5,1.2,6.9-1.4,5.7-5.4,5.6-10.6-4.5-9.8-6.3-12.6-4.5-6.7-8.8-6.9A7.7,7.7,0,0,0,251.3,153.2Z" transform="translate(0 0)"/><path class="cls-21" d="M250,157.6s.2,5.8,5.7,7.3,13.9,5.9,13,12.6" transform="translate(0 0)"/><path class="cls-21" d="M254.6,153.6a7.5,7.5,0,0,0,5.2,6.5c5,1.9,12.1,5.3,12.9,11.2" transform="translate(0 0)"/><path class="cls-8" d="M-64.5,147.2" transform="translate(0 0)"/><path class="cls-8" d="M-77.6,148" transform="translate(0 0)"/><path class="cls-8" d="M-77.4,148.8" transform="translate(0 0)"/><path class="cls-21" d="M249.9,153.1s-2,4.8-1.5,7.2" transform="translate(0 0)"/><path class="cls-16" d="M271.9,189.1,269,203.3l-18.3-6.2a20.8,20.8,0,0,0-2.3-6.3c-1.6-2.6-4.7-3.2-4.7-2.4s2.6,4.7,2.6,4.7-3.1-2.3-3.1-1.6,2.7,3.4,3.5,4,1,3.2,1.9,3.7,18.3,11.9,20.2,13.4,4.1-.5,4.4-1a134.6,134.6,0,0,0,7.1-14.8,12.1,12.1,0,0,0-2.8-12.9,14.9,14.9,0,0,0-3-1.8" transform="translate(0 0)"/><g class="cls-22"><path class="cls-18" d="M274,185.9c.8-.5,3.2-1.5,4.3-1.1l-.6-.7a13.6,13.6,0,0,0-3.9,1.2c-.2.1-.3.2-.2.4s.2.3.4.2Z" transform="translate(0 0)"/><path class="cls-18" d="M279.3,186.7v-.4a3,3,0,0,0-.4-.8,5,5,0,0,1-.2,1.2Z" transform="translate(0 0)"/><path class="cls-18" d="M271.1,194.1a5.3,5.3,0,0,1,2.1,1.1c.1.1.3,0,.4-.1s0-.3-.1-.4a6.8,6.8,0,0,0-2.4-1.2Z" transform="translate(0 0)"/><path class="cls-18" d="M277.7,194.7a1,1,0,0,0-.7.9,17.7,17.7,0,0,0,0,4.6l.3.2h0a.3.3,0,0,0,.3-.3,16.2,16.2,0,0,1,0-4.4.5.5,0,0,1,.2-.4c.6-.3,1.9.5,2.6,1h0c.1-.2.1-.4.2-.5S278.6,194.3,277.7,194.7Z" transform="translate(0 0)"/><path class="cls-18" d="M277.3,189.3a.3.3,0,0,0,0,.4c0,.1.1.1.2.1h.2a14.3,14.3,0,0,0,1.6-3h-.6A7.7,7.7,0,0,1,277.3,189.3Z" transform="translate(0 0)"/><path class="cls-18" d="M274,207.5l1.7-.7.3-.7a8.5,8.5,0,0,0-2.2.9c-.2.1-.2.2-.2.4S273.9,207.6,274,207.5Z" transform="translate(0 0)"/><path class="cls-18" d="M270.1,199.3h.1c.1,0,.2-.1.2-.3l-.2-1.9-.4,1.9h.1c-.1.1,0,.2.1.3Z" transform="translate(0 0)"/><path class="cls-18" d="M271.1,194.1v-.6H271l-.2.6Z" transform="translate(0 0)"/><path class="cls-18" d="M257.2,200.2c0,.1.1.2.3.2h0c.1,0,.2-.1.2-.3v-.7h-.6A2.2,2.2,0,0,1,257.2,200.2Z" transform="translate(0 0)"/><path class="cls-18" d="M262.9,202.2a.2.2,0,0,0,.3.1h0l1.3-.6-.8-.2-.7.3C262.9,201.8,262.8,202,262.9,202.2Z" transform="translate(0 0)"/><path class="cls-18" d="M266.7,206.2h.2a8.7,8.7,0,0,0,1.6-3l-.5-.2a8.9,8.9,0,0,1-1.5,2.9.3.3,0,0,0,0,.4Z" transform="translate(0 0)"/><path class="cls-18" d="M250,199.1l.3.2h0c.2,0,.3-.1.2-.3a18.8,18.8,0,0,1-.1-3,7.4,7.4,0,0,0-.4-1.4A16.9,16.9,0,0,0,250,199.1Z" transform="translate(0 0)"/><path class="cls-18" d="M244.2,188.6c.1-.2,0-.3-.1-.4h-.4v.2c.1.2.1.4.2.6Z" transform="translate(0 0)"/><path class="cls-18" d="M246.7,191.7l-1,.5a.5.5,0,0,1,.3.5l1-.5c.1-.1.2-.3.1-.4S246.8,191.6,246.7,191.7Z" transform="translate(0 0)"/><path class="cls-18" d="M243.6,192.3l.6.7h.4l1.3-.2-.6-.4A3.2,3.2,0,0,1,243.6,192.3Z" transform="translate(0 0)"/></g><path class="cls-19" d="M271.9,189.1,269,203.3l-18.3-6.2a20.8,20.8,0,0,0-2.3-6.3c-1.6-2.6-4.7-3.2-4.7-2.4s2.6,4.7,2.6,4.7-3.1-2.3-3.1-1.6,2.7,3.4,3.5,4,1,3.2,1.9,3.7,18.3,11.9,20.2,13.4,4.1-.5,4.4-1a134.6,134.6,0,0,0,7.1-14.8,12.1,12.1,0,0,0-2.8-12.9,14.9,14.9,0,0,0-3-1.8" transform="translate(0 0)"/><path class="cls-23" d="M265.5,202.2l-14.8-5.1a20.8,20.8,0,0,0-2.3-6.3c-1.6-2.6-4.7-3.2-4.7-2.4s2.6,4.7,2.6,4.7-3.1-2.3-3.1-1.6,2.7,3.4,3.5,4,1,3.2,1.9,3.7,9.5,5.8,15,9.6Z" transform="translate(0 0)"/><path class="cls-12" d="M248,190.3a14.2,14.2,0,0,0-2.4-2.5,3.9,3.9,0,0,0-2.8.2c-.4.4.4.6.7.5H245c.1,0,1.8,2.8,1.8,2.8" transform="translate(0 0)"/><path class="cls-5" d="M242.6,195.4l-3.4.8a1.6,1.6,0,0,1-1.9-1.2h0l-2.4-11.2a1.7,1.7,0,0,1,1.2-2.1h0l3.4-.9a1.7,1.7,0,0,1,2,1.3h0l2.4,11.1A1.9,1.9,0,0,1,242.6,195.4Z" transform="translate(0 0)"/><path class="cls-23" d="M241.2,204.8s-3.7-7.3-3.9-8-2.2-10.3-2.3-11.5-.3-2.7.2-2.3,1.9,6.3,1.9,6.3l1.2-2.9c.5-1.2,1.6-3,1.8-2.5a5.8,5.8,0,0,1-.4,1.9c-.1.5-1.2,4.1-1.2,4.1v1.7l1.9-2.5c.5-.7,2.2-1.7,2.1-1s-1.4,1.2-1.4,1.7a14.3,14.3,0,0,1-1.6,3s1.9-2.2,2.3-2.5,1.2-.7.7.2l-1.8,2.7s.5,2.4.5,2.9a5,5,0,0,1-.5,1.3l3.1,4.4Z" transform="translate(0 0)"/></g><g id="Layer_14" data-name="Layer 14"><path class="cls-8" d="M167.4,151.6c3.7,1.8,8.2,1,9.1-1" transform="translate(0 0)"/><path class="cls-8" d="M29.7,134.6" transform="translate(0 0)"/></g><g id="Layer_12" data-name="Layer 12"><line class="cls-24" x1="3.9" y1="224.5" x2="0.1" y2="258.7"/></g></svg>