<svg xmlns="http://www.w3.org/2000/svg" xmlns:xlink="http://www.w3.org/1999/xlink" viewBox="0 0 500 352.7"><defs><style>.cls-1,.cls-16{fill:#46a0ae;}.cls-1,.cls-10,.cls-12,.cls-13,.cls-14,.cls-15,.cls-18,.cls-22,.cls-5,.cls-6,.cls-8{stroke:#263238;}.cls-1,.cls-10,.cls-11,.cls-13,.cls-14,.cls-18,.cls-19,.cls-20,.cls-22,.cls-5{stroke-linecap:round;stroke-linejoin:round;}.cls-10,.cls-12,.cls-2,.cls-22{fill:#fff;}.cls-3{fill:#edf2f0;}.cls-11,.cls-13,.cls-14,.cls-18,.cls-19,.cls-20,.cls-23,.cls-4,.cls-6,.cls-8{fill:none;}.cls-4{stroke:#b2b2b2;}.cls-12,.cls-15,.cls-23,.cls-4,.cls-6,.cls-8{stroke-miterlimit:10;}.cls-15,.cls-5,.cls-7{fill:#263238;}.cls-6{stroke-dasharray:3;}.cls-9{fill:#28353a;}.cls-11{stroke:#fff;}.cls-13{stroke-width:2px;}.cls-14{stroke-width:4px;}.cls-17{clip-path:url(#clip-path);}.cls-19,.cls-20,.cls-23{stroke:#707070;}.cls-20{stroke-width:0.5px;}.cls-21{clip-path:url(#clip-path-2);}.cls-22{stroke-width:0.75px;}.cls-23{stroke-width:0.25px;opacity:0.16;}</style><clipPath id="clip-path" transform="translate(0 -81.5)"><path class="cls-1" d="M437.2,280.3l-5.7,1.2s-2.6.8-4.7,5.8-3.1,14.8-3.1,14.8l-1.1-1.6-2.4,2.8s3.9,8.3,5.7,8.5,5-5.2,5-5.2a57.5,57.5,0,0,1-1.8,8.5,57.1,57.1,0,0,0-2.9,17.4c0,9.1,5.1,21.2,6.4,25.7s1.1,8.4,2.1,12.9a100.2,100.2,0,0,1,1.7,12.3s-2.2,2.5-3.4,3.6,6.6.8,7.4.2.9-2.3.9-3.5-.2-19.6-.2-19.6,9.6,15.6,8.9,17.4,2.5-2.7,2.5-2.7-1.4-11.4-2.4-15.7a76,76,0,0,0-2.9-9.1s7.9-15,8.7-24.4-3.7-21.7-3.7-21.7,4.1-10.4,4.2-17.3-2.2-8.2-4.9-9.4a14.1,14.1,0,0,0-4.4-1.3l-5.8-.6Z"/></clipPath><clipPath id="clip-path-2" transform="translate(0 -81.5)"><path class="cls-1" d="M450.1,288.4l-2.8,13.4L429.4,296a22.2,22.2,0,0,0-2.2-6c-1.5-2.4-4.6-3-4.6-2.3s2.5,4.5,2.5,4.5-2.9-2.2-2.9-1.5,2.6,3.2,3.3,3.8,1,3,1.9,3.4,17.8,11.4,19.8,12.7,3.9-.4,4.2-.9,4.8-8.4,6.9-14a11.1,11.1,0,0,0-2.7-12.2,17.7,17.7,0,0,0-2.9-1.8"/></clipPath></defs><title>main_banner</title><g id="Layer_13" data-name="Layer 13"><rect class="cls-2" width="500" height="352.73"/></g><g id="Background_Simple" data-name="Background Simple"><path class="cls-3" d="M195.4,103.2s-63.2,32.2-94.7,81.8-29,113.4,9.3,160.7,111.4,41.2,172.7,71.2,128.9,23.8,157.8-39.8-14.7-87.3-22.2-160.8S344.5,35,195.4,103.2Z" transform="translate(0 -81.5)"/></g><g id="Map"><path class="cls-4" d="M263.4,226.6c.4,0,.4-1.9.2-2S262.5,226.7,263.4,226.6Z" transform="translate(0 -81.5)"/><path class="cls-4" d="M182.9,254.2c.7-.2,4.7.6,4.7-.7s-4.1-1.9-4.7-1.5a2.6,2.6,0,0,0,.7,1.5c0,.4-1.7-.1-1.9.3A.9.9,0,0,0,182.9,254.2Z" transform="translate(0 -81.5)"/><path class="cls-4" d="M219.3,279.2c-1.7.1-3.3-2-5.1-2.3s-1.8-.4-3.2.2c1.6-.7-2.6-2.6-2.6-2.6s-1.5,1.7-2.1,1.4.8-1.5.1-2.1-1.8.9-1.8.8,1.8-4.2-.3-5.3-3.6-1.1-5.4-2-1.8-2.9-4.2-2.8c1,0-1.9-2.5-1.1-2.2-1.2-.5-3.7.6-5.3.2s-1.1-1.8-2-1.8-1,2.6-1.3,3.1-.9-3.8-.2-3.4-3.8,2-4.2,2.3-1,1.6-1.8,1.9c1.3-.4-4.2-1-3-.6-3.5-1.3-1.9-1.8-2.8-4.8-.3-.9.6-1.3-.1-2.1s-3.7-.9-4.6-.3.1-2.4.4-2.7h0c1.1-1.1,1.4-3.8-.3-3.8s-1.5,2.5-3.3,3.3c-5.4,2.7-5.6-4.9-5.5-8.1h0c.3-5.6,4.4-4.1,7.8-3.7-.9-.1-.1-1.5.9-1.6a11.8,11.8,0,0,1,2.8.6c1.7.6,1.3,0,2.5,2.2s.7,3,1.9,3.4-.1-7.9.5-8.8,2.8-2.7,3.4-3.5.1.2.2-1.9c.1-.2-.5-3.2.4-3.2s.4,2.8.3,2.9.4-1.7.4-2.4,3.1-1.6,3.3-2.2-1.4,0-1.4,0,2.4-.7,2.8-1a7.3,7.3,0,0,1,1.1-2.8c1.1-1.2,3.9-1,4.7-2.7-.1.2.4,1.1,1,.9-2.2.6-3.2,1.8-.6,1.4a12.4,12.4,0,0,0,4.4-2.3c.1,0-.5-.7-.4-1.1a4.3,4.3,0,0,1-2,1.5c-2.6-.5-1.4-2.2-2.4-2.9l-.8.2c-.3-.9,3.1-1.6-.2-2.1s-3.4,3-4.9,3c.8,0,4.2-4.1,5.8-4.5s9.8-.8,9-2.9l-.6-.3c-.7-.6,1.6-1.1-.9-1.4a2.8,2.8,0,0,1-.1-.9,18.4,18.4,0,0,0-2.8.9c-.2-.9,2.4-1,2.7-1.5s-5.5-2.6-5-3.3,1,.2.3-1.9c-.1-.5-2.6-3.9-2.4-4.1s-.5,3.5-2.6,3.5-2-2.6-2-4.1-5.7-2.3-6.1-2.3c-3.2.1-1.9.3-2.1,2.8,0,.5-.5,2.3-.4,2.5.3,2,2,2.6,1,5.1-.3.8-2.1,1-2.3,1.4s.7,1.2.6,2,.3,3,.1,2.9-.7.5-2-.7-.5-3.3-1.4-4.3-4.7-2.1-5.7-2.6a6.1,6.1,0,0,0-4.2-.6c.3-.1-.4-2.3-.6-2.6s-1.9.2-1.4-3c.2-.8,3.8-4.6,3.8-4.5a23.8,23.8,0,0,0-2.9-1.3c.4-1,2.9,1.7,3.6-.3-.4.9,3.9-1,2.8-1.7s-2.9,0-2.8-1.2c-.1.8,5.4,1.1,3.2-.9h2.4c.3,0-.8-1-.7-1.1s1.4,1.6,2.9,0-.6-1.4-.7-2.6,1.7-.6,1.2-1.4a4.6,4.6,0,0,0-3.5-1.2c-.5.1.2,2.7-1.2,3.5a1.6,1.6,0,0,1-.4-.7c-.6.1.5,2.3-.3,1.9s-.8-1.9-.9-2-.7-1.3-1.2-1.7-1,1.7-1.2,1.7.1-1.8.1-1.9-1.8-.5-1.8-.4.5-1,.6-1.2-1.7-2.4-1.6-2.4c-1.1-2.3-.4,0-.6-2.6.1,1.2,4.6-2,3.1-2.5s-3.9-.7-4.3.5-.1,3.7-.4,4.8-1.3,1-.9,2.5,3.5,1.3,1.9,2.6a.7.7,0,0,1,.7-.6c0,.1-1.7,3.3-1.5,3.2a20.3,20.3,0,0,1-2-2.1c-.1-.2,2.2-.5,2.3-.6s-1.3-.9-1.3-1,1.2-.1.8-.4a2.6,2.6,0,0,0-3.8.6c-.4.5,3.3,1.9-1.1,2.5-2,.3-2.8-.7-4.6-1.2s-.5-.6-1.4-.7-2.5.9-1.8,1.2,2.3-1,2.6-.7c-1.2-1.3-1.4,3.7-2.2,3.3s-.1-1.4-1.2-1.7-4.6,1-5.7-.2,1.4-.7,1.2-1-3.5-1.3-4.6-1.6-1.8-.9-2.8-1-1.6.7-2.6.7.2-1.4-.3-1.5a6.4,6.4,0,0,1-1.3,1.5c-1.1,0-.9-2.6-2.2-2.4.9-.1-1.7,1.9-1.5,1.8s-3.2,1.9-3.4,1.9,3.6-2.7,3.6-2.6-3.7,1.1-4.1,1.3,0-.7-.8-.4-.5,1.2-.9,1.7-11.1-2.7-11.8-2.7-7.9-.9-8.3-1.4-2.8.1-3.7,1.1-6,1.9-6.2,3.1,5.1,2.9,5.5,4.2-6.4-.3-7.1,1.4c.3-.5,1.8,1.9,2,1.9s4.6-.5,4.6-.5-1.3,2.5-1.8,3.1-.8-.4-1.6.7a18.3,18.3,0,0,1-1.6,1.3c.1-.2,1.2,2.3,1.3,2.3s2.7.6,2.5.4-.1,2,.5,2.3,1.9.1,2.6.4,2.2-1.3,2-.8-5,6.9-5.7,6.1c.8.9,9.2-4.7,9.2-6.1l-.8-.4c-.2-.5,4.6-4.4,4.4-2.9,0-.1-2.8,2.2-2.2,2.8a26.3,26.3,0,0,0,3.9-1.1c.5-.2-1.2-1.6,0-1.8s1.9.8,1.9.8a.5.5,0,0,0-.7.4c.2.4,6.7.1,7.1.5s4.2,3.6,4.2,2.6a1.7,1.7,0,0,1-.1-1.2c2,1.5-1,1.9-1,1.8s1.6,2.4,1.5,2.4-.4-2.1.1-1.9a2.2,2.2,0,0,1,.1.8c.5.7.6-1.6.6-1.4s.1,2.9-.2,2.9,2.8-.3,1.8.1-1.2-1-.3-1.1.2,1.1-.6,1.2a11.5,11.5,0,0,0,.1,1.8c.3.2,1.5-.9,2.1-.8s.4,2.3.8,2.8l2,2.2a17.9,17.9,0,0,0,3.5,2.8c-.1-.1,4.3,3.6,1.9,3.6-.1,0-2.7-6.8-5.5-4.8.6-.5,3.8,4.1,4,4.7,1.2,3.4-.8,7.4.6,11.1s3.2,4.1,4.9,5.9a22.7,22.7,0,0,1,2.5,3.8c1.1,1.9,1.4,2.4,1.2,3.5s5,5.4,4.9,5.5-5.1-10.3-4.9-10.3c2-.2,2.1,2.9,2.5,3.5s2.9,3,4,4.5,2.2,5,3.9,6.8,3.8,2.2,5.3,2.7,4.1,0,5.8,1.6h0c.7.7,1.8.7,2.4,1.2s2,.7,3.3,2,1.1,1.8,1.7,2.3,2.2,2.4,3.5,2.5.9-1.4,1.5-1.2c2.9.6,2.4,4.5,1.2,6.8s-2.8,3-1.4,5.5c.1.2-1.4,2.6-1.3,3.4s3.5,5.6,4.2,7.1,3.3,3.1,5.3,5.4,1.3,3.7.9,6.6-.5,8.3-1.4,12.3c-.4,1.6-3.5,10-2.3,11.7s.7-2.2,1.2-2.3-.3,6.3-.8,5.9.3-2.1-.4-1.8-1.3,2.7-1.3,2.7,1,1.1,1,1.4,1.1-.4,1.1.4c.1-1.2-3.2,1.3-1.7,1a1.8,1.8,0,0,0,.7-.5c.3-.1-1.6,1.9-.3,2.1s.3-1.3.7-.9-1.4,2.2-.9,2.8,1.1-.4,1.3,0-.7.7-.6.7,1.4-.4,1.6.2-1.9.1-1.2,1,1.9-1.1,2.2-.1-1.8.9-1.9,1,2.1-.7,2.2-.5-2.4,1.3-2.5,1,1.5,1.2,1.8,1-.5-.2-.2-.6,2.1-1.4,2.3-1.7a1.1,1.1,0,0,0-.6,1,1.4,1.4,0,0,0,.9,0c-.3-.2-.6,1.3-.5,1.3a1.5,1.5,0,0,1-.4-.9c-.4-.2-.2.9-.3.9a.5.5,0,0,0-.7-.4c.4-.5-.4,1.5-.4.8s1.2,1.1,1.2,1.1.3-.5.3-.8l2.1,1.4c.3.1-.3-.9-.1-.9a9.1,9.1,0,0,0,2.9-.6c-1.3-.5-3-2.9-3.2-3h0c-.3,0-1,.1-.9-.4s.8.2,1,0-.8-1.8-.6-2.3.9-1,1.3-1.7,1.8-1.6,1.9-2.7-1.2-.8-1.2-1a17,17,0,0,1,1.8-4.4l1.6-1.6c-.3-.3-2.6,0-1.4-1.9-.4.6,2.7-.5,2.6-.4s-.1-1.7.1-1.9,5.1.5,5.5-2.6c.1-.7-1.7-3-1.8-3s3.6.8,5.2-.9,2.4-4,2.4-3.9a10.9,10.9,0,0,1-.8,1.5c0-.7,2.4-2.7,2.7-3.5s-.1-2.7.5-3.7,3.9-1.8,5.5-2.7,2.5-3,3.1-5.3,0-5,.7-6.2S224.1,279,219.3,279.2Z" transform="translate(0 -81.5)"/><path class="cls-4" d="M181.9,251.9c1.1-1.6-11.5-4.3-9.9-2-.8-1.1,5,.4,5.3.6S180.5,253.7,181.9,251.9Z" transform="translate(0 -81.5)"/><path class="cls-4" d="M177.9,253.9c.2.4,1.8.8,2,.4S177.7,253.5,177.9,253.9Z" transform="translate(0 -81.5)"/><path class="cls-4" d="M188.9,254c.4.7,1.5.3,1.6,0S188.5,253.4,188.9,254Z" transform="translate(0 -81.5)"/><path class="cls-4" d="M195,335.1c.6.3,1.6-1.1,1.2-1.2S194.5,334.9,195,335.1Z" transform="translate(0 -81.5)"/><path class="cls-4" d="M196.3,335.2c.4.2,1.8-.4,1.6-.8S196,335.1,196.3,335.2Z" transform="translate(0 -81.5)"/><path class="cls-4" d="M165.3,273.6c-.5.7.4,1.4.6,1.1S165.7,272.9,165.3,273.6Z" transform="translate(0 -81.5)"/><path class="cls-4" d="M203.8,183.8c.1-1.7-2.5-.9-2.9-.8S203.7,185.9,203.8,183.8Z" transform="translate(0 -81.5)"/><path class="cls-4" d="M232.9,182.6c-.3.2-4.1-.4-4.2-.3s1.4-1.7,1.3-1.8,3.2,3.2,3.3.5-2.1-1.6-2.5-2.8,3,1,2.4-.9-3.4.7-3.3-.4c0,.4,1.1-1.4.9-1.2s5.3,2.5,2.5-1.1c-.1-.1,2.5-.1,2.6-.6s-2.6-.5-2-1.5,2.8.6,1.5-2.1c.1.1-3.2-1-2.7-1.5s4.3,0,4.2-.6-2.3.1-2.4-1.1,1.1,0,1.3-.3-3-.2-2.8-.1,4-5.4,4.1-5.2-1.7.8-2.4.2,3.7-1.2,3.8-1.3-2.3-.8-2.4-.6,6.6-.7,6.6-2.4-5.8-.1-6.5.1-1.3-.5-1.6-.3-2.3,2.3-3.5,2.5c1.2-.2,2.6-3.2.6-3.5-.3-.1-3.7,2.5-3.9,1.7s2-.9,2-1.4-7.3.6-7.3.5,9.9-.9,10.9-2.3-12.7-2.9-13.9-2.6l-2.4.8h-1.2c-2.3.3-4.5.1-6.8.5-.2.1,1,.9,1,1s-2,.2-1.7.6,2.8,2,2.6,2.1-4.5-3.4-6.1-2.2,1.1,1.3,1.1,1.5-3.2-1-3.1-1-.1,1.9-.6,2.2c1.4-.9-1.7-2.1-2.2-2.1a2.5,2.5,0,0,0-2.5,1.4c-.8.3-1.8-.6-2.8-.2s.6,1.4-.3,1.9-6.7.3-5.9,2.3,4.2-.1,1.1,2.5c-.9.7-3.3.4-4.4,1.1-4.9,3.4,4.6,1.2,4.5,3.1,0,.2-5,.2-5,.6s3.6,2.3,4.5,2.4,3.6-1.2,6.1,0a9.2,9.2,0,0,1,4.9,5.5c.8,2.9-1,3.2,2,3.2a15.7,15.7,0,0,0,2.5,2.7c-.1.1-3.3-1.2-3.3-.4s4.4.5,3.2,3.9c-.1.5-1.5-.3-2,.8a6.3,6.3,0,0,0-.5,2.1c0,1.4,2,6.1,3.5,8.2a7.6,7.6,0,0,0,3.7,2.7c2.7,1.2,2,1.3,3.5-.9s-.3-1.7,0-2.4,1.2-.4,1.4-1.1.1-2.6.2-3.1h1c.1,0,1.8-2.3,2-2.3a.8.8,0,0,1,.1.9c.3,1,4.2-2.4,4.2-2.4a10.4,10.4,0,0,1,2.6-1.7C227.3,185.1,230.5,184,232.9,182.6Z" transform="translate(0 -81.5)"/><path class="cls-4" d="M135.2,170.9c.9-.5.8,0,1.5-.7a2.2,2.2,0,0,0,.7.9c1,0,1.4-2.1,2-2.3s.2,1.9,1.6.5.4-1,1-1.5a10.5,10.5,0,0,0-3.5.1C137.3,168.3,135.2,170.9,135.2,170.9Z" transform="translate(0 -81.5)"/><path class="cls-4" d="M141.6,170.1c-1.5.1.7,1,.7.8a2.6,2.6,0,0,0-1.7.5c-.2.3,1.5.2,1.3.3a2.5,2.5,0,0,0-1.7.6c.9,1.3,2.4,0,3.2-.4s2.2.9,2.4.6-2.7.7-2.7,1.1,4.9-.4,5.6-.7c2.3-1,3-.2,1.9-2.3.1.2-2.5-1.6-2.9-1.4s.7,1.9.4,2.4-3.1-1.3-3.6-1.5A5.7,5.7,0,0,0,141.6,170.1Z" transform="translate(0 -81.5)"/><path class="cls-4" d="M157.6,180.2c1.7,1.3,3.8-3.6,2.7-3.7a.9.9,0,0,0-.2,1.1c.1-.3-1.5-.8-1.4-.8s2.2-1,.5-2.1-1,.7-1,.7-3.7-.4-2.4.7l1.2.2c1.5,1.3-2.5.6-2.1.5C153.7,177,157.2,179.9,157.6,180.2Z" transform="translate(0 -81.5)"/><path class="cls-4" d="M133.3,179.3l1.4,1.7c1,0,2.1-1.5,2.6-1.9s3.3-2,4.7-3.1-6.3-2.4-7.1-2.1c-2.9.9-.4.3-1.3,1.8s-1.8,3-1.6,3.3A2.8,2.8,0,0,0,133.3,179.3Z" transform="translate(0 -81.5)"/><path class="cls-4" d="M138.4,171.6c.8.1,1.6-.6,1.5-1.1S138.1,171.6,138.4,171.6Z" transform="translate(0 -81.5)"/><path class="cls-4" d="M183.9,181a.7.7,0,0,0,.8-.8c.2.6-3.2-1.2-3.5-1.3s-.3-1-1.5-1.2-2.1,1-2.1,1-.7.1-1.9.1.6-5.2-3.5-2.7c-2.5,1.5-.4,2.3-.3,3.9s-1.9-.6-1.8-1.8,1.4-2,1.4-2.7-4.4,1.5-4.7,2.5,1.7,4,2.5,3-2.1-.3-2.1.2c.3,2.7,10.1,1,10.4,1.6a1.6,1.6,0,0,1-.6-.8c.2-.4,3.5,2.1,3.5,2.3a2.6,2.6,0,0,0-.9.9c.6.5,1.3-.5,2.4.6s1.2.9,1.5,2.8,3.6-.7,2.9.9-1.6-.4-2-.2-1.7.1-2.4.3.4,1.3.4,1.2-2.6.1-3.4.8c-2.8,2.4,3.1.9,3.9,1.2s5.7,6.2,6.9,4.5-2.1-3.1-2.6-3c1.9-.5,4.7,2.6,3.7-.6-.5-1.4-3.8-2.5-2.3-4.2s3.1,2.3,3.5,2.3l2.5-2.6c0-1.7-6.9-2.6-6.6-4.3l1.3-.4a2.4,2.4,0,0,0-1.1-.6c-.1-1,1.1-1-.7-1,1.3,0-1.7-1.3-1.8-1.4Z" transform="translate(0 -81.5)"/><path class="cls-4" d="M125,209.7c-.8.5,1,2.7,1.4,2.3S126.1,209,125,209.7Z" transform="translate(0 -81.5)"/><path class="cls-4" d="M153.4,172.6c.3-.4-.6-1.2-.9-.6A.6.6,0,0,0,153.4,172.6Z" transform="translate(0 -81.5)"/><path class="cls-4" d="M176.6,197.8c.3-.1.9-1.3.1-1.2S176.1,197.8,176.6,197.8Z" transform="translate(0 -81.5)"/><path class="cls-4" d="M180.9,187.7c2.3-.4-2.3-2.1-1.5-1.4S178.1,188.3,180.9,187.7Z" transform="translate(0 -81.5)"/><path class="cls-4" d="M172.8,196.7c.7.5,1.7-.8,1.7-1.2S172,196.2,172.8,196.7Z" transform="translate(0 -81.5)"/><path class="cls-4" d="M164.6,172.6c.4,1.3,10.2,1.8,11.3.9,4.5-3.2-9.6-1.6-9.4-2.7a2.7,2.7,0,0,1,.8-.7c.3-.5-7.7-2.1-7.1-1.2C161.9,171.5,163.5,169.1,164.6,172.6Z" transform="translate(0 -81.5)"/><path class="cls-4" d="M154.7,183.2c.3-.3,1.4.6,1.4-.1s-3.3-2.8-3.6-3.5a17.9,17.9,0,0,1-.2-3c.4-.4.4-.8-.1-1.1a1.8,1.8,0,0,0-1.9.4,4.6,4.6,0,0,1,1.2,1.2c0-.3-2.1-1-2.3-.6s.9,2.8.5,3-2.9-3.2-3-2.4a2.2,2.2,0,0,1,.7.9c0,.1-1.6,0-1.5.2-1.1-3-2,.6-3.1-.3s1.8-1.6-.4-1.6-3,1.2-3.3,2c-1.3,3,1.6.8,2.8,1.7s-2.6.7-2.6,1.1,6.2-.2,6.2,1.1-5.6,0-5.3.9c.5,2.5,7.5,2,9,1.8a8.9,8.9,0,0,1,2.2-.3c.5,0,4.4,1.4,4-.2s-1.3.3-1.6-.5Z" transform="translate(0 -81.5)"/><path class="cls-4" d="M191.6,215.5c.1.4,2.6,1.5,2.7,1S191.5,215.2,191.6,215.5Z" transform="translate(0 -81.5)"/><path class="cls-4" d="M166.8,167.1c-.8-.4-1.8.5-1,.8S167.6,167.5,166.8,167.1Z" transform="translate(0 -81.5)"/><path class="cls-4" d="M160.1,166.5c5,0-.9-2.8-1.3-2.3S159.5,166.5,160.1,166.5Z" transform="translate(0 -81.5)"/><path class="cls-4" d="M160.6,161.8c.1.1,4,1.9,3.8,1.3s-1.8.7-1.7.8a5.1,5.1,0,0,0,5,1.8c.1,0,3.7-3.2,3.6-2.6s-2.7-2.6-2.8-2.7-5.4-2.9-6-2.5a.9.9,0,0,0,.7.6c0,.3-1.3,0-1.5.3l.8.6c-.3.5-1.8-.3-1.8.7a4.7,4.7,0,0,0,1.2.9C162,161.5,159.1,161,160.6,161.8Z" transform="translate(0 -81.5)"/><path class="cls-4" d="M175.5,175.5c-1.1,2.6,4.4,2,4.4,1.4S175.8,174.8,175.5,175.5Z" transform="translate(0 -81.5)"/><path class="cls-4" d="M163.6,166.7c-.1-.3-3.4.2-2.9.6S163.6,167,163.6,166.7Z" transform="translate(0 -81.5)"/><path class="cls-4" d="M143.8,166.7c.2-.6-1.4-.5-1.3-.3S143.6,167.2,143.8,166.7Z" transform="translate(0 -81.5)"/><path class="cls-4" d="M162.6,171.8c-.7-.6-2.7.8-2.4,1S165.1,173.9,162.6,171.8Z" transform="translate(0 -81.5)"/><path class="cls-4" d="M152.7,168c.4-.4-1.4-1.9-1.4-1.2S152.3,168.5,152.7,168Z" transform="translate(0 -81.5)"/><path class="cls-4" d="M156.5,168.8c-1-.4.4,1.6.3,1.5a5.1,5.1,0,0,0-1.7-.7c-.3.3.6,1.2.3,1.3s-1.6-1.9-2.3-2,.5,2,.6,2,2,.2,3.2.5,1.2,3.6,2.6.4S157.6,169.3,156.5,168.8Z" transform="translate(0 -81.5)"/><path class="cls-4" d="M147.4,166.4c.7-.1-3.1-1-3.1.5S147.4,166.4,147.4,166.4Z" transform="translate(0 -81.5)"/><path class="cls-4" d="M145.3,165.5c.3.2,2.7.2,2.7-.3s-4,.2-3.9.3Z" transform="translate(0 -81.5)"/><path class="cls-4" d="M158.3,161.9c.3-.6-1.8-1-1.3-.5S158,162.4,158.3,161.9Z" transform="translate(0 -81.5)"/><path class="cls-4" d="M152.4,164.1c.7-.2,1.1,0,1.3.6s-1.6.2-1.5.3,8.2,3.4,4-.8a3.9,3.9,0,0,0-1.9-1C150.6,162.7,152.7,163.9,152.4,164.1Z" transform="translate(0 -81.5)"/><path class="cls-4" d="M175.9,194.1c.1-.5-4.2-3.4-4.4-3.4s-2.4,2.8-2.1,3.6S176,193.9,175.9,194.1Z" transform="translate(0 -81.5)"/><path class="cls-4" d="M165.8,157.2c1.5-1.1.3.4.3.5h.9c-1.7,2,3.2,1.7,3.2,1.3.2,3.1,6.2-1,6.9-.5s-3.6,1.9-3.5,2.1,1.6,1.4,1.4,1.4-6-3.5-5.1-.3c.2.7,4.1,2.2,4.1,2.9s-5-1.4-5.1.7,2.8-.2,2.8-.2.4,3.1.4,2.3c0,.9-3.8-2.3-3.7-.5l1.2.8c0,.4-3.3.6-2.6,1.4s11,1.2,11.5,0-3.8-.9-4-1.2,3.9-1.7,4.1-1.9,2.2.5,3.1-2.1c.3-.7-2.8-.7-2.7-.7,1.7-1.3,4-.8,5.7-1.6s6.7-3.5,6.8-3.9-2.7-.1-2.9-.2c1.3.6,6.1-2.6,6.1-2.5s-5.8-2-5.9-.6a2.4,2.4,0,0,1,.9-.8c-1.1.5-6.5.2-7.2.2-2.5.2-4.9-.3-7,.3-.5.1-10.6,3.4-10.8,3.1A1.1,1.1,0,0,0,165.8,157.2Z" transform="translate(0 -81.5)"/><path class="cls-4" d="M200.1,213.5a5.7,5.7,0,0,0-2.1,2.4c-.1.2-2,2.1-1.2,2.6s3.3-1.6,3.5.7c-.1-.7,2.5.3,2.6.1s-.7-2-.4-1.8-3.4-2.5-3.4-2.1A5,5,0,0,1,200.1,213.5Z" transform="translate(0 -81.5)"/><path class="cls-4" d="M91.5,210.5c.5-.2.8-.5.5-.8S91.1,210.7,91.5,210.5Z" transform="translate(0 -81.5)"/><path class="cls-4" d="M95.2,208.4c-.6-.2-1.2.7-1.3.7S95.7,208.7,95.2,208.4Z" transform="translate(0 -81.5)"/><path class="cls-4" d="M105.3,203.2c-1,1.2-1.8,3.6.3,1.5C105.9,204.4,106.4,201.9,105.3,203.2Z" transform="translate(0 -81.5)"/><path class="cls-4" d="M92.4,200.1c-.4-.2-.7-.1-.9.4a1.4,1.4,0,0,0,1.4.4C94.3,200.4,92.4,200,92.4,200.1Z" transform="translate(0 -81.5)"/><path class="cls-4" d="M257.7,228.8c-.1-.5-1.1.2-.9.3S257.7,229.4,257.7,228.8Z" transform="translate(0 -81.5)"/><path class="cls-4" d="M279.4,234.2c0-.4-2.7,0-2.7,0S279.5,235.1,279.4,234.2Z" transform="translate(0 -81.5)"/><path class="cls-4" d="M286.7,234.6a2.2,2.2,0,0,1,.7-.9,7,7,0,0,0-2.2.7C284.8,235.1,286.8,235.1,286.7,234.6Z" transform="translate(0 -81.5)"/><path class="cls-4" d="M239.6,193.3c3.1-.2.2-4.8-1.2-4s-2.5,1.4-2.9,1.3a.7.7,0,0,0-.7-.5c-1.9,2.2.1-.7-2.5-.7-.6,0,.3.8.1.8s-1.3-.2-1.4.8,2.1.3,2.1.2-.3.8-.2.8-1.8.1-1.6.4,1.5.1,1.8.4-.5,1.3-.6,1.2C234.3,196,237.7,193.4,239.6,193.3Z" transform="translate(0 -81.5)"/><path class="cls-4" d="M245.3,213.1c2.6,0,3.3-1.8,3-3.8s1.3-.7-.2-1.6a4.2,4.2,0,0,0-2,.5c-.1,1.3.1.1-1.4.9C244.7,209.1,244.7,213.1,245.3,213.1Z" transform="translate(0 -81.5)"/><path class="cls-4" d="M253.1,200.4c.3-.3.6-1.3.2-1.2S253,200.5,253.1,200.4Z" transform="translate(0 -81.5)"/><path class="cls-4" d="M248.2,202.8c-.1-.2-.9,1-.6,1S248.4,203,248.2,202.8Z" transform="translate(0 -81.5)"/><path class="cls-4" d="M248,204.2c.9-.8.1,3.2.1,2.7s1.2.3,1,.4a1.8,1.8,0,0,0,.6-.9c.4.1-.3,1.7-.3,1.8s1.7-.4,1.7-.2c1.1,1.8-.8,2.5-.7,3.7s-1,.5-1,1.1a10.4,10.4,0,0,0,2.3.3c.1.3-3.3,1-2.5,2.1s6.2-1.3,6.5-1.7-.6-.1-.6-.4,1.2-.7.6-2a5.1,5.1,0,0,1-1.2-.9c-.7-1.2-1.3-3.7-3-3.6,0,0,1.1-1.8.9-2.1s-1.3.2-2-.6,1.4-1.3.9-1.8S248.1,204.2,248,204.2Z" transform="translate(0 -81.5)"/><path class="cls-4" d="M265.5,208.1c-.2,0,2.4-.7,1.2-1.5S265.4,208.1,265.5,208.1Z" transform="translate(0 -81.5)"/><path class="cls-4" d="M272.4,203.7c-.5,0-.7,1.2-.6,1.4S273,203.7,272.4,203.7Z" transform="translate(0 -81.5)"/><path class="cls-4" d="M275.5,203.4a2.5,2.5,0,0,0,1-.8C277.2,201.9,274.4,203.4,275.5,203.4Z" transform="translate(0 -81.5)"/><path class="cls-4" d="M276.3,202c.1-.2-.8-.1-.6.1A.5.5,0,0,0,276.3,202Z" transform="translate(0 -81.5)"/><path class="cls-4" d="M272.1,161.2c.8.7,2.4-.1,3.4.5l-2,.8c.5,1.2,7.6.6,7.1-1.4a44.7,44.7,0,0,0-4.5-.9.9.9,0,0,0-.1,1c-.4.3-2.2-1.2-2.6-1.2l-.7.9-.7-.6C271.2,160.3,272,161.1,272.1,161.2Z" transform="translate(0 -81.5)"/><path class="cls-4" d="M266.2,163.1c-1.5-.3.7,2.3,1.1,2.5s1.2-1.3,1.7-1.5-.2.9.2.9l1.1-.5c.4.7-3.1,1.9-2.6,2.1s1.8-.4,2.7-.2a17.1,17.1,0,0,0-2.7.9c0,.8,1.6.8,1.9,1s-.2.3-.4.3,1.2.5,1.4.4a23,23,0,0,0,1.5-2.3c.2-.3,1.6-3.6,2.4-2.2-.2-.4.4,2.9.1,2.8s3.6.6,3.5-.9c0,.8-3.4-2.5-3.4-2.5a8.7,8.7,0,0,0-3.4-1.2c.4.1-.7-1.4-1.3-1.6s.2,2.9.3,2.6c.7-3.2-2.3-.7-2.2-.7l-.9-.8.8-.3C267.7,162,262.5,162.2,266.2,163.1Z" transform="translate(0 -81.5)"/><path class="cls-4" d="M265.3,165a1.8,1.8,0,0,0,.7.5c-.4.1-.7-1.6-1.3-1.4S264.8,164.8,265.3,165Z" transform="translate(0 -81.5)"/><path class="cls-4" d="M437.4,194.8a1.6,1.6,0,0,0-1.2.4c.2.2,3,.9,3,.3A2.4,2.4,0,0,0,437.4,194.8Z" transform="translate(0 -81.5)"/><path class="cls-4" d="M390.2,224.3c-.1-.9-2.2,3.2-1.2,2.6l.9-.5-.6-.8c0,.3,6.2.2,5.9-2.5.1,1.5-5.2-.9-4.5-1.3S390.2,224.2,390.2,224.3Z" transform="translate(0 -81.5)"/><path class="cls-4" d="M378.8,237.5c.3.6.6-.8.8-.1s-.4,2.3.3,2.2,1.6-2.3.7-2.7S378.1,236,378.8,237.5Z" transform="translate(0 -81.5)"/><path class="cls-4" d="M382.2,237.3c.2-1,1.5.1,1.5-1.3s-1.5,0-1.6.1S382,238.2,382.2,237.3Z" transform="translate(0 -81.5)"/><path class="cls-4" d="M384.4,234.1c-.1,0-4.8.2-4.4,1.9a22.7,22.7,0,0,0,4.3-.5c-.9.2.8.7,1,.6s.2-.9.3-1,3,.4,3.8-.7,1.9-6.5.9-7.1-2,3.6-2.7,4.5S384.5,232.6,384.4,234.1Z" transform="translate(0 -81.5)"/><path class="cls-4" d="M360,253.6a6.9,6.9,0,0,0,.5-1.3c-.1-.4-2.5-.1-2,.8S359.9,255.1,360,253.6Z" transform="translate(0 -81.5)"/><path class="cls-4" d="M370.1,249.8c.4-.4,1.5-2.8,1.2-3.3S369,250.6,370.1,249.8Z" transform="translate(0 -81.5)"/><path class="cls-4" d="M369.2,256.3c-.7,2.2,6.4,5.1,4.9,6.8,2.3-2.7-2.7-3.8-3.2-5s1.8-3,0-4.1S369.2,256.2,369.2,256.3Z" transform="translate(0 -81.5)"/><path class="cls-4" d="M367.9,263.2a6.6,6.6,0,0,0-1.2,1.7c-.1-.2,2.5-1.9,2-2.9A1.5,1.5,0,0,0,367.9,263.2Z" transform="translate(0 -81.5)"/><path class="cls-4" d="M369.7,259.5c.1.5.3,1.4.9,1.2S369.7,259.2,369.7,259.5Z" transform="translate(0 -81.5)"/><path class="cls-4" d="M373.7,263.3c-.2-.3-.8.3-.7.5S374,263.6,373.7,263.3Z" transform="translate(0 -81.5)"/><path class="cls-4" d="M374.7,263.8s-4.2,2.7-3.5,2.6,1-1,1.7-.5.3,2.1,1.7,2.1c-1,0,1.1-2.2,1-1.8A2.3,2.3,0,0,0,374.7,263.8Z" transform="translate(0 -81.5)"/><path class="cls-4" d="M371.3,261.1a1.1,1.1,0,0,0,0,1.5c1.8-.4-.6,1.3.8,1.7S373.3,260.7,371.3,261.1Z" transform="translate(0 -81.5)"/><path class="cls-4" d="M400.1,279.1c0,1.3-3.2.5-3.2.9s4.9.1,3.9-1.3A.5.5,0,0,0,400.1,279.1Z" transform="translate(0 -81.5)"/><path class="cls-4" d="M401.4,279c.9-.2-.6-1.3-.8-1.4S401.1,279.1,401.4,279Z" transform="translate(0 -81.5)"/><path class="cls-4" d="M395.9,281.2c.8.1-2.4-2.7-3.2-3.1s-4.9-2.4-6.5-2.3-1.2,1.5-1.8,1.4-.5-1.5-1.4-1.8-.7-1.2-2-1-1.5,1.1-1,1.2,2.7,1.4,2.8,1-1.6.2-1.7.2,2.6,1.7,2.8,1.8,2.5.6,3.4,2.1-1.2,1.4-.9,2.1,5.3.1,5.8.1,1.3,0,3,.8c-.1,0,4.1,2.1,3.7,1.4S395.1,281.2,395.9,281.2Z" transform="translate(0 -81.5)"/><path class="cls-4" d="M331.8,263.5c-.6.1-.7,3.7.1,4S333.4,263.3,331.8,263.5Z" transform="translate(0 -81.5)"/><path class="cls-4" d="M301.4,286.6a26.3,26.3,0,0,1-1.6,2.6c-.6.6-2.2,1-2.7,1.5s-.4,2.2-.6,4.5-2,8,2.2,5.9c2.5-1.2,2-8.2,2.9-10.6.1-.3.8.7.8-.6S301.7,287.7,301.4,286.6Z" transform="translate(0 -81.5)"/><path class="cls-4" d="M305.6,260.5c.3.3.9-.1,1-.3S305.2,260,305.6,260.5Z" transform="translate(0 -81.5)"/><path class="cls-4" d="M408,284.1c.1.5.7.8,1,.6S407.9,283.6,408,284.1Z" transform="translate(0 -81.5)"/><path class="cls-4" d="M404.9,281.2c0,.1.7.9.8.7S405,281,404.9,281.2Z" transform="translate(0 -81.5)"/><path class="cls-4" d="M408.1,283.1c.3-.2-1.3-1.1-1.3-.8S407.9,283.3,408.1,283.1Z" transform="translate(0 -81.5)"/><path class="cls-4" d="M403.1,279.9c-.1.3.9,1.8,1.2,1.5S403.2,279.6,403.1,279.9Z" transform="translate(0 -81.5)"/><path class="cls-4" d="M409,283c-.2.6.6,1.5.8,1.5S409.2,282.6,409,283Z" transform="translate(0 -81.5)"/><path class="cls-4" d="M409.7,285.1c.1.2.6.7.9.5S409.7,284.9,409.7,285.1Z" transform="translate(0 -81.5)"/><path class="cls-4" d="M379.1,286.6c.2.2,1.3,0,1.2-.3S378.8,286.4,379.1,286.6Z" transform="translate(0 -81.5)"/><path class="cls-4" d="M401.8,304.7c0,.1-.5-3.1-.2-3-1.9-.8-4.5-4.6-5.8-6.6s-1.3-3.2-2.1-5-1.3-.3-1.6-.9,0-2.9-.9-3.8-1.1,4.7-1.1,4.7c-.9,2.8-.4,2.8-2.8,1.9-.8-.2-2.9-1.3-3.1-2.3s1.7-2.1,1.5-2.6-4.5-1.3-4.6-1.3a.5.5,0,0,0,.3.7c-1.3-1.5-3.4,3.9-2.7,3.8s-2-.3-1.3,0c-1.6-.9-1.4-1.8-3.3-.4s-.8,2-1.5,2.8-.3-1.1-.6-.9-.3,1.6-1.2,2.4a10.8,10.8,0,0,1-3,1.6c-1.6.8-2.8,1.1-4.2,2.4a.5.5,0,0,1-.1-.6c0,.3-.4,1.4-.5,1.9s.6,2.8.4,3.1-.4-.3-.6-.5l.3.7-.7-.5c-.3.7,1.8,4.3,2,5.1s.1,4.3-.1,4c1.3,2.7,3.2.8,5.4.2a37.1,37.1,0,0,0,4.7-1.6c1.3-.5,4.2-1.5,5.6-1.2s5.4,3.6,4.3,4.1,2.2-2.5,2.3-2.3-.9,1.9-1,2.3,1.5-1.1,1-.7.4,1.6.3,1.5,2.1,2.8,2.3,2.9,4.3.1,4.3.1v.7c-.3-.4,1,.4,1.3.7s3.6-1.9,3.5-1.8,1-4,1.5-5.1S401.5,305,401.8,304.7Z" transform="translate(0 -81.5)"/><path class="cls-4" d="M385.2,314.2c.2.2,1,.1,1.1-.2S385,313.9,385.2,314.2Z" transform="translate(0 -81.5)"/><path class="cls-4" d="M394.9,320.7l-1.7-.5c.3-.1.1,4.4,2.5,3.1S397.4,320.4,394.9,320.7Z" transform="translate(0 -81.5)"/><path class="cls-4" d="M415.6,328.6c.2,0,.7-.1.4-.5S415.3,328.5,415.6,328.6Z" transform="translate(0 -81.5)"/><path class="cls-4" d="M425.3,316.7c-.6,1-1.8-1.6-1.9-1.6a.5.5,0,0,0-.1.6c.1-.1-1.9-2.9-2.3-2.9l1.6,3.3c.4,1.3-1,1.3-1,2s1.1,3.1,1,3C423.9,323.4,426.5,314.5,425.3,316.7Z" transform="translate(0 -81.5)"/><path class="cls-4" d="M421.8,320.5c-1.2-1-8.4,5.5-6.3,7S422.9,321.3,421.8,320.5Z" transform="translate(0 -81.5)"/><path class="cls-4" d="M426.6,292.4c.2.1,1-.2,1-.6S426.2,292.2,426.6,292.4Z" transform="translate(0 -81.5)"/><path class="cls-4" d="M425.2,293.6c.4.4,1.1.4,1.2-.3S424.9,293.3,425.2,293.6Z" transform="translate(0 -81.5)"/><path class="cls-4" d="M301,160.2a2.1,2.1,0,0,0-1,.6c.5.9,4.2-.9,4.2-1.2S301.2,159.9,301,160.2Z" transform="translate(0 -81.5)"/><path class="cls-4" d="M306.3,160.7c0-.5-1.5.1-1.2.2S306.3,161.2,306.3,160.7Z" transform="translate(0 -81.5)"/><path class="cls-4" d="M299.6,160a3.2,3.2,0,0,1,1.6-.4c.2-.5-3.3,0-3.2.3A1.1,1.1,0,0,0,299.6,160Z" transform="translate(0 -81.5)"/><path class="cls-4" d="M301,185c.9.9,1.4-.4,1.8-.5S299.5,183.5,301,185Z" transform="translate(0 -81.5)"/><path class="cls-4" d="M307.2,175.5a39.5,39.5,0,0,0-3.3,3.7c0,.1,1.7,1.5,1.6,1.5s-.1-.5.1-.6,4.2,3.6,4.4,1.5c0-.6-1.9-1.7-2-2.5s.8-1.6,1.1-2.3a12.4,12.4,0,0,1,1.9-2.6c1.3-1.1,10.5-5,10.1-5.4s-9.2,1.9-10.5,2.7A31.7,31.7,0,0,0,307.2,175.5Z" transform="translate(0 -81.5)"/><path class="cls-4" d="M397.4,173.6a2.9,2.9,0,0,0,2.4-.5C400,170.9,390.4,173.1,397.4,173.6Z" transform="translate(0 -81.5)"/><path class="cls-4" d="M390.1,174.7c0-.5-1.5.1-.9.4S390.1,175.1,390.1,174.7Z" transform="translate(0 -81.5)"/><path class="cls-4" d="M349.6,166.3c.5.3,5.7-.5,5.9-1.5s-3-1.3-2.9-.5C352,159.7,350.3,166.7,349.6,166.3Z" transform="translate(0 -81.5)"/><path class="cls-4" d="M345.1,161.8a2.1,2.1,0,0,0-.6,1c1.4,1.4,4.9,2.4,5.2,0S345.1,161.3,345.1,161.8Z" transform="translate(0 -81.5)"/><path class="cls-4" d="M343.6,161c.9.4-.8.4-.9.5s1.8.1,2.3-.1,3.5-1,2.9-1.8C345.6,156.8,343.2,160.8,343.6,161Z" transform="translate(0 -81.5)"/><path class="cls-4" d="M361.9,174.1c-.7,1.5,1.2.4,1.2.2A.8.8,0,0,0,361.9,174.1Z" transform="translate(0 -81.5)"/><path class="cls-4" d="M307,159.6c.4.5,3.2.5,3.3-.4s-2.3-.7-2.4-.7S307.2,159.8,307,159.6Z" transform="translate(0 -81.5)"/><path class="cls-4" d="M342.9,158.7c.1-.4-1.8-.2-1.3.2S342.8,159.2,342.9,158.7Z" transform="translate(0 -81.5)"/><path class="cls-4" d="M428.4,181.4c.1.1,2.6,0,2.1-.6s-3.7.6-3.5.7Z" transform="translate(0 -81.5)"/><path class="cls-4" d="M386.4,172.7a4.5,4.5,0,0,0,3.2.7c.7-.2,2.7-1.4,1.9-1.6s1.4,2.5,2.1.6-1-1.1-2.3-1.6a20.8,20.8,0,0,0-2.5,0C389.2,170.7,384.2,171.5,386.4,172.7Z" transform="translate(0 -81.5)"/><path class="cls-4" d="M392.4,176.7c1.5-.3-3.9-2.2-2.8-.5S391.9,176.9,392.4,176.7Z" transform="translate(0 -81.5)"/><path class="cls-4" d="M435.8,191.3l1.1.2c.2,0-.4-.3-.3-.4s1.9-.5,1.4-.7-4.4-2.7-4.5-1.8c.1-1,.5,1.7.3,1.2-.8-2.7-6.3-5.7-9.4-6.3a13.4,13.4,0,0,0-5.7.1c.1,0,.7,1.4-.2,1.9s-2.2-1.4-1.8-1.6,1,.7,1.1-.2-3.6.3-4.2.4l-2.6-.2c-1.2-.1-.6.9-1.1,1.1s-1.5-1.8-1.5-1.8c-1.7-1.5-1.4-1.7-4.6-2-.9,0-5.6,0-6.1-1.4s1.4.1,1-.6-4.7.2-4.7.4l.8-.5-1.1-.4c-.4-.5,1.4,0,1.5-.3s-7.8-.7-7,.5h.7c-.5-.3.1,1.9.1,1.3s-1.9-.3-2.2,0l.6.3-5.5-1c-.4-.1-.9,2.1-1.7,2.1s-2-2.8-2.6-2.8a1.8,1.8,0,0,0,1,.2c1.5-.8-3.6-3.9-4.7-3.7s-1,1.9-1.3,2-4.5-.1-4.6-.6.5-.6.3-.7c-2.1-.5-3.8.5-5.1.6s0-1.2-.5-1.3-3.7,0-3.4.4h.6c.1.5-4.3,1.2-4.4,1.4.9-2.4,8-3,7.4-5.5-.1-.8.3-1.4-1.2-2.2s-3.5.6-5.3.1l.7-1c0,.2-2.5-.4-2.8-.3s1.7-.3,1.4-.9-3.8.5-4.8,1.2c.5-.4-1.8,2.7-1.9,1.3l.6.5c.1-.3-2.7.3-2.8.3l.3-.6a10.7,10.7,0,0,0-3.1.6,1,1,0,0,0,.5.4c0-.4-4.6,1.2-5,1.4s-.5.4-1,1.1h-.8c-.1.1,1,.6,1,.7h-.8s1.2.6.7,1.1-2.1.1-2.6.3c-7.2,1.5-.1,2-1.4,3.9s-4.2-2.4-5.2-1.4,1.1,1,.8,1.1-1.3-.7-1.7.1,2.5,1.6,2.3,1.8l-3.1-.7c-.6-.6,1.1-2.6-.2-3s-2,5.7-1.5,6.4,3.9.9,4.8,3.7-2.7-2.1-1.3-1.5c-.9-.4-.6-1.2-1.9-1s0,1.3-.7,2.1-1.8,2.4-2.8,2.6-2.9-.1-2.7-.7,3.5-.4,4-2.3-.2-2.2-.5-3.6.1-4.6.2-4.6c-2.1-3.3-5.5.5-5.6,2.9,0-.7-.1,2.5-.3,2.1s3.7,2.3,1.6,2.7-7.6-5.1-9.5-4c.5-.3,3.3,4.8.6,3.7-1-.5.1-.6-2.4-.3a26.3,26.3,0,0,1-3.6.4c.3-.3.9-.5.8-1.1s-5.1,2-5.8,2.3-.8,2.3-2.6,1.1.9-1.2,1.1-1.4-3.3-2.1-3.2-1.5,1,3.2.2,2.6c2,1.4-.3,1.3-.4,1.4-2.3,1.8-2.3-.2-2.7,3.1-.1.5-1.9-.6-2.2-.4l-1.1-.7q-1,.5-.3,1.2c1.1-.6,1.5,2.4-.5.9-.4-.4-3-6.1-4.1-5.6.8-.3,11.5,4.8,8.2-1.1-.6-1.1-7.3-4-7.9-3.3l.7-.2c-.1-.8-1.7,0-1.9-.2s-1.5.6-1.8-.6,1.7-.2,1.8-.4c.3-2-3.1-.3-2.7-.2s.2-1.1.2-1.2-1.3,1.2-1.7,1.2.1-1.2-.2-1l-1.3,1.5c-.5.1.9-1.7.9-1.7s-1.7.8-1.6.8-2,1.4-1.3,1.2c-.9.3.3-2.1.4-1.7s-1.4.2-1.4.5.4.5.4.8h-1.1c.1.3.3.4.6.6s-1.4-.4-1.3-.5.4,1.3,0,1.1-.6-1.2-1.5-.8a11.2,11.2,0,0,0-2.1,1.7c0,.2,1-.2.8.6h-1.6a2.9,2.9,0,0,0,.2-.9,35.8,35.8,0,0,1-2.8,2.6c.7,0,2.4-1.9,3.2-1.1v.8c-2.3.9-2.9,4.6-5,5.5-.2.1.8.8.5.9s-1.2.9-2.2,1.8-.8-.9-.8-.3-.7.2-1.3,1.1l.5.5c-.6-1.5-2.3,2.2-2.2,1.9-.4,2.3,1.1,1.5,1.2,1.9s-1.3.6-1.3.6v1c0,.4.9-.5,1-.1s-.5.7-.6.8c-1.1,1.7,3.8.4,3.2.5s1.2-1.4,1.6-1.7,2.4,6.5,2.6,6.6,3.1-2.7,3.5-2.8-.3.4-.6.3c.2-1.8,2.4-3.2,2.3-4.6s-2-.9-1.3-3.5,1.5-1.7,2.3-2.7,1.6-3.4,2.8-3.8c5.4-1.8-1.3,4.5-1.4,4.8a6.6,6.6,0,0,0,.2,4.2c1.5,1.5,4.4.4,6,0l.5-.7-.5.7a3.7,3.7,0,0,1,1.9.7c.3.4-4.6,1-4.4.9-3.2,1.5-.1,1.4-.9,2.3s-1.2.4-1.6.7-2.5.3-1.6,2.1-.9,2.4-1.9,2.8l-3.5.3c-1.5.2-.7.4-1.4-.6s-2.1,1.2-2.4,1a.8.8,0,0,1,0-.7c-.5-.2-1.7-.1-1.6-1.1s1.1.5,1.2,0-.5-.3-.8-.7,1.2-2.4.5-3.1-1.2,1.2-1.2,1.2-1-.4-1.1,1.6,1.3,2.2,1,2.9-3,1-3.5,1.3a20.9,20.9,0,0,0-2.6,2.6,14.1,14.1,0,0,1-1.8,1.7c-.7.4-2.4.2-2.6.3s.5,1.2,0,1.6-2-.9-2.4-.2.5.4,1.3,1.7,3,4.1.3,5.4c-1.2.7-4.3-1-5.3-.4s-.4.9-.8,2.7c-.9,3.6-.8,5.1,2.2,6.1a5.3,5.3,0,0,0,6-2.1c1.3-1.8,2.1-5,4.2-6.3-.4.3,4.4-.6,4-.6,2.1.1.8-.2,2.5,1.2,0,0,6.9,6.3,4.9,6.3,1.1,0,.7-2.8.8-2.9a1.6,1.6,0,0,1,1.3.4c-.8-.2-7.6-7.5-4.3-7.4.5.1,4.1,4.1,5.2,4.8v0c-1.1-.7,3,6.2,3,4.6s-1.8,3.5.6,2.2a4.3,4.3,0,0,0-.2-1.1h.7c.3-.4-.8-.4-.5-.6s1.3.4,1.2-.5-.8,0-1.2-.4-.2-2.3-.4-2.2l1.2.2c.6-.3,4.1-.2,4.9-1.1s-1.4-1.8-1.3-2.2a16.4,16.4,0,0,1,1.6-2.6c.4-.6.6-1.9,1.4-2.2s2.8-.2,3,.5a5.7,5.7,0,0,1-1.3.8l1,1.3a26.3,26.3,0,0,1,3-.8c.2-.4-2.7-.2-1.3-1.7s3.5-1.5,3.8-1-2.3,2.3-2.2,2.7,4.7,2.2,4.6,3.8-2.8,1.4-4.3,1.3-1.1-.7-1.7-.7a13,13,0,0,0-5.2.9c-2.5.7-5.2,1.9-2.3,4.8,1.3,1.4,2.6.8,4.1.9s3.6-.7,4-.4-.9,3.8-1.1,4.2l.5.3h0v0l-.5-.3c-1.5,3.6-4.4,2.9-8.1,2.2-1-.2-1.8-.7-2.8-.8s-.8-1.6-2.9-.5-.5,1.8-.6,1.9-6.7-1.4-8.1-2.8,1-2.7-.1-4.2-5.1-.1-6.3,0a28,28,0,0,0-4.6,1.2c-1.6.5-2.8.3-4.3.7s-.7-.2-1.8.4c1.2-.6-2.4,2.7-2,2-.5.8-.9,1.8-1.5,2.7s-.2,1.5-.9,2.5-1.3.7-1.8,1.3a18.3,18.3,0,0,0-3.1,5c-.8,2.1-.3,2.5-.4,4.3s-.6,3.6-.6,5.3.9,2.6,1.8,4c2.1,3.4,4.5,6.4,8.4,6.8a18.2,18.2,0,0,0,6.2-.8c.2-.1,2.9-1.6,3.1-1.2l2.3,1.2c.3.1.2,1,.6,1.2s1-.5,1.4-.3c2,1.4,1.2.2,2.3,2.6.2.6-.4,2.3-.4,2.5,0,2.2.8,2.5,2.1,4.7s2.4,5.3,2.1,7.4-1.9,4.1-2,6.5,2.1,5.4,2.5,7.1a42,42,0,0,0,2.6,7.8c1.3,3.9.2,4.8,4.5,4.2s6.7-1.8,8.9-6a25.8,25.8,0,0,0,.8-3.4c1.4-2.2,2.4-1,2.8-3.8s-1-2.1.1-4,3.3-1.8,4.2-3.2c2-2.9,0-6.1-.6-9.1s1-5.4,3.2-7.8,11.6-12.2,8.3-13.5-4.9,2.5-7.5.8h0a15.4,15.4,0,0,0-2-3.6c-1.2-1.5-2.9-2.9-3.6-4.9s-4.6-12.8-4.8-12.7,1,2.8,1.6,2.8a4.4,4.4,0,0,0,.6-1.6c.7.4,2.7,5,3.1,5.9,1.2,2.5,2.8,4.6,3.9,7.2s.5,3.8,1.3,4.6,3.4,0,5.1-.7,6.4-3,8.4-5.1c.2-.2,2.6-3.1,2.6-3.6s-3.8-4.9-3.3-4.8-2.1,2.7-4,2.6,0-2-.9-2.3-.7,1-.7,1-3-5.1-1.9-5.7,4.8,3.4,6.2,4h2.1a3.8,3.8,0,0,0,1.3,1.1c1.6.6,3.4.3,5.1.4a6.5,6.5,0,0,1,3.5.6c-.2-.1,3.1,3.1,3.1,2.2a2.1,2.1,0,0,1-1.3.5c-.7,3.6,4.2.7,3.4.2.7.4,4.6,25,7.4,10.6.7-4,2.1-4.8,5.1-7.8.6-.6,4.2-3.9,5.1-3.4s1.7,6.4,2.7,7.3,1.7-4,3.1,2.3c.5,2,0,4.4.5,6.2s3.8,8.5,5.6,7.6-2.2-5.2-2.8-5.9-3.8-6.2-1-7.2c.8-.2,2.7,2.2,3,2.6a18.3,18.3,0,0,1,1.5,2.5,17.4,17.4,0,0,0,2.2-1.8c3-2.9,1.9-3.6.1-6.9-.8-1.6-2.5-4,.4-5.2s1.4.2,2.3,1.2,7.8-4.2,8.7-5.2,2.9-5.9,3.1-5.8-1,0-1.3-.2,1.6-2-.4-2c.1,0,1.7-.2,1.4.1s-2.5-3.7-2.4-3.8,2.1-1.7,3.1-2.4-4-.8-2.8-.2l-2-1.8c0-.4,3.9-3.1,4.4-2.7s-1,2.5-.8,2.5c3.1.2,1.4-1.8,3.9-.2-1.1-.8.4,1.9.2,1.4s1.1.3,1.3.9-.8,2.3-.3,3.1,2.9-1,2.9-1.2-.8-2.5-1-3.7-.6,0,.3-2.3a9.6,9.6,0,0,1,2.5-3.2h0c1.2-1,1.3.4,2.6-.2s2.3-2.1,3.1-3.1a16.8,16.8,0,0,0,3.4-6.8c.3-1.5,1.2-3.2.4-4.4s-1.8-.2-3.2-.1,0-1.2,0-1.2-.8.7-.7.7-1.6-2-1.6-1.4,2.6-2.6,3.3-3.2,3.2-3.5,6.1-3.9c.7-.1,7.1.1,6.9.4l-.7.3c-.4.3,4-.3,3.8-.6s3.3-5.2,5-4c-.2-.1-.1,1.9-.2,1.8s5.1-3.8,5-2.8-4.3,4.9-5.6,6.1-2.7,1.3-3.5,3.8-.4,6.4.8,7.8c-.2-.2,6.3-7.7,6.4-7.8s-.2-2.8,0-2.3c-.4-1.1-1.6-.9.1-2.9a14.3,14.3,0,0,1,2.6-1.5,1.2,1.2,0,0,1,.2,1c-.4-1.6,4.2-.2,4-.1s2-1.8,3-2.3,4.5-1.5,4.8-1.8c2.5-2.3-1.3-2.2-1.8-3.9.2.7,3.4-.6,3.9-.9s-.2-1.1,1-1.7c-.7.3,4.9,4.4,6,3.3a1,1,0,0,0-.4-.5C435.1,192.8,436,191.4,435.8,191.3Z" transform="translate(0 -81.5)"/><path class="cls-4" d="M314.9,159.7c.9-1.2-3.8-.5-2.8.4A2.8,2.8,0,0,0,314.9,159.7Z" transform="translate(0 -81.5)"/><path class="cls-4" d="M310,160.3l-1.3.5c-.6.7,2.9.6,3.2-.2S310,160.2,310,160.3Z" transform="translate(0 -81.5)"/><path class="cls-4" d="M309.9,158.6a5.4,5.4,0,0,0,1.7-.7c-.3-.5-3,.5-3,.3A1.2,1.2,0,0,0,309.9,158.6Z" transform="translate(0 -81.5)"/><path class="cls-4" d="M391.1,213.8c.6,1.5-1.2,5.8-.3,7-.6-.8,1.5.1,1.5.1l-.8-2.6c.8-1.7,1.5-.9,1.8-1.2s-2.2-7.4-1.9-7.7S390.8,213,391.1,213.8Z" transform="translate(0 -81.5)"/><path class="cls-4" d="M322.5,177a2.8,2.8,0,0,0,1.5-.4C324.6,175.4,321.2,176.8,322.5,177Z" transform="translate(0 -81.5)"/><path class="cls-4" d="M331.6,177.1c-.1-.5-1.1.2-.8.4S331.6,177.6,331.6,177.1Z" transform="translate(0 -81.5)"/><path class="cls-4" d="M317,159.6l.8-.5c.3-1-2.5.2-2.4.4A2.9,2.9,0,0,0,317,159.6Z" transform="translate(0 -81.5)"/><path class="cls-4" d="M412.3,296.2c0,.4,2.4,2.4,2.8,2.1S412.2,295.8,412.3,296.2Z" transform="translate(0 -81.5)"/><path class="cls-4" d="M178.3,246.3c-.5-1,.2,2.1.4,1.5S178.2,246.1,178.3,246.3Z" transform="translate(0 -81.5)"/><path class="cls-4" d="M194.2,263c.7.1.9-.1.6-.7S193.9,262.7,194.2,263Z" transform="translate(0 -81.5)"/><path class="cls-4" d="M357.8,277c0-.3-.7-.2-.5.2S357.8,277.3,357.8,277Z" transform="translate(0 -81.5)"/><path class="cls-4" d="M363.7,283h1.2c.5-.5-2.8-1-2.7-1a.9.9,0,0,1,1-.7c-.9.6-8.3-1.9-7.8-.2S363.4,283.5,363.7,283Z" transform="translate(0 -81.5)"/><path class="cls-4" d="M372.5,283.1c.8,0,.9-.1.3-.4a29.6,29.6,0,0,0-3.8.5C369.4,284.2,371.9,283.1,372.5,283.1Z" transform="translate(0 -81.5)"/><path class="cls-4" d="M366.8,282.7c-.3.7-1-.2-1.3.2s2.4.9,2.7.3S366.9,282.4,366.8,282.7Z" transform="translate(0 -81.5)"/><path class="cls-4" d="M358.4,273.2c2.1,2.2,1.1,4.1,4.6,4.3s3.2-2.2,5.1-4.6a10.5,10.5,0,0,1-1.3-2.8c.1-1.1,1.5-1,1.7-1.7s-2.8-1.3-2.9-1.3-.5,1.9-2.2,1.8l-2.9,3.3C360.8,271.6,356.9,271.7,358.4,273.2Z" transform="translate(0 -81.5)"/><path class="cls-4" d="M347.1,272.4c-.1.3.2,1.2.6.8S347.1,272.1,347.1,272.4Z" transform="translate(0 -81.5)"/><path class="cls-4" d="M348.5,275.1c-.1.1.2.8.4.6S348.7,274.6,348.5,275.1Z" transform="translate(0 -81.5)"/><path class="cls-4" d="M355.6,278.5c-.1-1.3.7-.9.6-1.8s-1.2-1.5-1.2-.8l.6.8c-.2.6-3.2-3.9-3.3-4s-6.6-5.4-6.9-4.7,4.6,7.2,5.2,8.1S355.9,282.7,355.6,278.5Z" transform="translate(0 -81.5)"/><path class="cls-4" d="M370,284.8c0-.9-1.7-.4-1.8-.6S370,285.5,370,284.8Z" transform="translate(0 -81.5)"/><path class="cls-4" d="M368.1,276.7c-.2.2,1.8,3.1,1,3.4s0-3.5.8-3.1-.2,2.6,1.7,1.2c-1,.7.1-5.2.8-3.5s-4.2,1.3-3.1-.4,3.8.2,4.8-1.9c-.6,1.3-3.2-.3-4,.3S368.8,275.3,368.1,276.7Z" transform="translate(0 -81.5)"/><path class="cls-4" d="M377.1,277.4a14.9,14.9,0,0,0,2.5.7C380.7,278.1,376.5,275.7,377.1,277.4Z" transform="translate(0 -81.5)"/><path class="cls-4" d="M377.2,272.5c0-2.1-1.7,2.2-.1,1.9S377.2,272.4,377.2,272.5Z" transform="translate(0 -81.5)"/><path class="cls-4" d="M374,284.2c.5-.6,2.1-.7,2.3-1.4s-2.5.9-2.7.9-1.5.9-.8,1.3A1.4,1.4,0,0,0,374,284.2Z" transform="translate(0 -81.5)"/><path class="cls-4" d="M375.1,277.5a.7.7,0,0,0,1.2.3C376.5,277.4,375,276.9,375.1,277.5Z" transform="translate(0 -81.5)"/><path class="cls-4" d="M262.3,227.4c-.2.5.4,3.3,1.5,2S263,226.1,262.3,227.4Z" transform="translate(0 -81.5)"/><path class="cls-4" d="M268.6,230.8c.2-.1-2.2-.2-2,.4a6,6,0,0,0,2.1,1.4,17.7,17.7,0,0,1,.6-1.7A.5.5,0,0,0,268.6,230.8Z" transform="translate(0 -81.5)"/><path class="cls-5" d="M282.9,194.6a4.5,4.5,0,0,0-4.5,4.5c0,2.2,4.2,7.5,4.2,7.5h.3s4.5-5.1,4.5-7.5A4.5,4.5,0,0,0,282.9,194.6Zm0,6.7a2.2,2.2,0,1,1,2.2-2.2A2.2,2.2,0,0,1,282.9,201.3Z" transform="translate(0 -81.5)"/><path class="cls-5" d="M279.5,219.4a3.8,3.8,0,0,0-3.8,3.9c0,1.9,3.5,6.4,3.5,6.4h.3s3.9-4.3,3.9-6.4A3.8,3.8,0,0,0,279.5,219.4Zm0,5.7a1.8,1.8,0,0,1-1.8-1.8,1.8,1.8,0,0,1,1.8-1.9,1.8,1.8,0,0,1,1.9,1.9A1.8,1.8,0,0,1,279.5,225.1Z" transform="translate(0 -81.5)"/><path class="cls-1" d="M307.1,206.5a9.6,9.6,0,0,0-9.7,9.7c0,4.8,8.9,16.1,8.9,16.1h.8s9.6-10.8,9.6-16.1A9.6,9.6,0,0,0,307.1,206.5Zm0,14.4a4.7,4.7,0,1,1,0-9.4,4.7,4.7,0,0,1,0,9.4Z" transform="translate(0 -81.5)"/><path class="cls-5" d="M185.8,283.6a4.3,4.3,0,0,0-4.3,4.3c0,2.1,3.9,7.1,3.9,7.1h.4s4.2-4.8,4.2-7.1A4.2,4.2,0,0,0,185.8,283.6Zm0,6.4a2.1,2.1,0,0,1-2.1-2.1,2.1,2.1,0,0,1,2.1-2.1,2,2,0,0,1,2,2.1A2.1,2.1,0,0,1,185.8,290Z" transform="translate(0 -81.5)"/><path class="cls-5" d="M361.5,224.9a5.6,5.6,0,0,0-5.6,5.7c0,2.8,5.2,9.5,5.2,9.5h.4s5.7-6.4,5.7-9.5A5.6,5.6,0,0,0,361.5,224.9Zm0,8.4a2.8,2.8,0,0,1,0-5.5,2.8,2.8,0,1,1,0,5.5Z" transform="translate(0 -81.5)"/><path class="cls-5" d="M388.2,282.7a5.6,5.6,0,0,0-5.7,5.6c0,2.9,5.2,9.5,5.2,9.5h.5s5.6-6.3,5.6-9.5A5.6,5.6,0,0,0,388.2,282.7Zm0,8.4a2.8,2.8,0,1,1,0-5.5,2.8,2.8,0,0,1,0,5.5Z" transform="translate(0 -81.5)"/><path class="cls-5" d="M162.2,216.4a5.6,5.6,0,0,0-5.7,5.6c0,2.9,5.2,9.5,5.2,9.5h.5s5.6-6.3,5.6-9.5A5.6,5.6,0,0,0,162.2,216.4Zm0,8.4a2.8,2.8,0,1,1,0-5.5,2.8,2.8,0,0,1,0,5.5Z" transform="translate(0 -81.5)"/><path class="cls-5" d="M267.5,182a5.7,5.7,0,0,0-5.7,5.7c0,2.8,5.2,9.5,5.2,9.5h.5s5.6-6.4,5.6-9.5A5.7,5.7,0,0,0,267.5,182Zm0,8.5a2.8,2.8,0,1,1,2.7-2.8A2.8,2.8,0,0,1,267.5,190.5Z" transform="translate(0 -81.5)"/><path class="cls-5" d="M122.1,178.5a5.7,5.7,0,0,0-5.7,5.7c0,2.8,5.2,9.5,5.2,9.5h.5s5.7-6.4,5.7-9.5A5.8,5.8,0,0,0,122.1,178.5Zm0,8.5a2.8,2.8,0,1,1,0-5.6,2.8,2.8,0,1,1,0,5.6Z" transform="translate(0 -81.5)"/><path class="cls-6" d="M122.9,242.3a168.2,168.2,0,0,1,290.7-1.2c1.6,2.7,3.1,5.5,4.6,8.3" transform="translate(0 -81.5)"/></g><g id="Airplane"><path class="cls-7" d="M297.6,122.9a2.6,2.6,0,0,0,2.5-2.6h0a3.1,3.1,0,0,0-3-3.1l-13.6-.4h-.3l-5.8-7.6,2.1-.2a1.1,1.1,0,0,0,1.2-1.1,1.2,1.2,0,0,0-1.3-1.4l-3.9.2-4.4-5.7,3-.3a1.2,1.2,0,0,0,1.1-1.2h0a.7.7,0,0,0-.5-1.3l-5.5.2-2.9-3.8a5.9,5.9,0,0,0-4.5-2.3h-1.4l6.3,13.3s4.1,8.5.9,12.2l-15.3.8h-.2l-6.2-8-3.6-.4,2.9,9.5-1.7.3c-.1,0-.1.2,0,.3l1.9.4-3.1,9.7,4-.2,5.3-8h.4l14.1.6c1.8.7,4.5,2.1,3.5,5.5s-9.1,20.2-9.1,20.2l2.3-.4a5.5,5.5,0,0,0,3.9-2.3l2.8-3.5,4.5-.4a1.3,1.3,0,0,0,1.3-1.2,1.3,1.3,0,0,0-1.3-1.3h-2.4l4.1-5.2,4.5-.4a1.3,1.3,0,0,0,1.3-1.1,1.4,1.4,0,0,0-1.4-1.4h-2.3l6.2-7.9Z" transform="translate(0 -81.5)"/></g><g id="Floor"><line class="cls-8" x1="19.4" y1="307.4" x2="462.7" y2="307.4"/></g><g id="Layer_10" data-name="Layer 10"><path class="cls-7" d="M119.4,314.4s-3.2,26.3-3.8,33.5-3.2,34.5-3.2,34.5l-3.7.3s-1.9-12.3-1.9-17.6-2-15.4-1.9-19-2.2-23.4-1.9-34.4S119.4,314.4,119.4,314.4Z" transform="translate(0 -81.5)"/><path class="cls-9" d="M109.5,314.4s-3.4,26.3-4.1,33.5-3.4,34.5-3.4,34.5l-4,.3s-2.1-12.3-2.1-17.6-2.1-15.4-1.9-19-2.5-23.4-2.2-34.4S109.5,314.4,109.5,314.4Z" transform="translate(0 -81.5)"/><path class="cls-1" d="M112.8,382.4s3.9,2.6,5.5,3.5,4.6,1.3,4.6,1.9-1.3.8-1.3.8H108a18.4,18.4,0,0,1,.3-3.3l.6-2.6Z" transform="translate(0 -81.5)"/><path class="cls-1" d="M97.4,383.8s-1.8,3.9-.8,4.6,10.6.4,13.3.2,5.7-1.1,5.4-1.8-9.1-1.9-10.3-2.5-4.3-2.7-4.3-2.7Z" transform="translate(0 -81.5)"/><path class="cls-10" d="M97.5,383.6l3.8.9.8-2.1a2.8,2.8,0,0,1-.6-.6l-3.2.9A3.9,3.9,0,0,0,97.5,383.6Z" transform="translate(0 -81.5)"/><path class="cls-10" d="M108.7,383.6l3.7.8.8-2-.6-.7-3.1.9A7.2,7.2,0,0,0,108.7,383.6Z" transform="translate(0 -81.5)"/><path class="cls-11" d="M106.7,334.9" transform="translate(0 -81.5)"/><path class="cls-11" d="M98.9,327" transform="translate(0 -81.5)"/><path class="cls-10" d="M127.5,314.5s2.9,3.6,3.5,5.2,1.5,4.8.5,4.7-1.3-2.8-1.3-2.8.2,2.7-.2,3.3-.9-2.8-.9-2.8-.4,3-.8,2.5a13,13,0,0,1-.7-3.3s-.8,3.2-1.2,2.4a6.8,6.8,0,0,1-.1-2.8,23.9,23.9,0,0,1-1.9-4.1,5.6,5.6,0,0,1-.5-2.3Z" transform="translate(0 -81.5)"/><path class="cls-1" d="M121,291.5a110.6,110.6,0,0,1,3.5,10.5c.8,3.5,3.7,12.3,3.7,12.3l-4.4,1.4s-4-7.2-5.7-10.8a37.5,37.5,0,0,1-2.3-6.2Z" transform="translate(0 -81.5)"/><path class="cls-5" d="M118.8,317.1l-.7,8a57.8,57.8,0,0,1-6.5-2.6c-1-.6-.9-5.2.2-10.5s7.6-20.6,7.6-20.6Z" transform="translate(0 -81.5)"/><path class="cls-10" d="M112,270a2.6,2.6,0,0,1,1.4,1.1,62.7,62.7,0,0,1,4.1,8.2c2,5.1-.4,43.8-2.6,41.5,0,0-2.1,3-3.2,2.9h-.4a2.2,2.2,0,0,1-1.2-.5,24.1,24.1,0,0,0-5.8-3.3c-3.4-1.5-8-6.3-8.8-7.2s-.1-.2-.2-.2l-.8-.6a2.4,2.4,0,0,1-.8-2.2c.9-5.8,4.9-29.8,5.1-33.5s4.6-5.9,7.2-6.6S110.6,269.6,112,270Z" transform="translate(0 -81.5)"/><path class="cls-1" d="M112.7,272.5s2.9,4.8,3.1,9.5a66.2,66.2,0,0,0,1.1,7.3s1.3,19.1,2.2,22.3,2,8,2,8-.6-19.8-.1-24.1-4.2-21.8-5.9-23.6a14.7,14.7,0,0,0-4.3-2.9Z" transform="translate(0 -81.5)"/><path class="cls-10" d="M81.6,328.5l-.8,4.9c-.2,1.6-2,2.2-2.2,3.7s-.1,2.2-.7,1.9a2.1,2.1,0,0,1-.9-1.8s-5-1.6-5.2-2.3,6.6-6.2,6.6-6.2Z" transform="translate(0 -81.5)"/><path class="cls-10" d="M113.1,267.8s-.8,5.8-.8,8.2a20.9,20.9,0,0,1-.1,2.9s-4.3-4.2-5.1-5.7-1.9-3.9-1.9-3.9l1.3-5.8Z" transform="translate(0 -81.5)"/><path class="cls-12" d="M116.7,247.9s3.2,1.9,3.1,7.1c-.1,2-1.3,5.8-2.2,8.5a4.6,4.6,0,0,1-.3.9l-.5,1.7a3.6,3.6,0,0,1-4.4,2.5c-1.8-.5-6.3-4.5-7.2-5.3s-2.2-3.7-1.9-8.1S109.3,244.8,116.7,247.9Z" transform="translate(0 -81.5)"/><path class="cls-1" d="M104.4,269.4a99.5,99.5,0,0,0,3.5,12.6c1.8,4.5,1.4,18.5-1.5,25.9s-6.2,16.5-6.2,16.5L91,316.6s3.8-14.1,3.6-17.7-1.2-26.9.3-27.3Z" transform="translate(0 -81.5)"/><path class="cls-1" d="M98.1,270.8s-7.9.6-7.9,1.6-4.6,25.2-5.4,26.5-3.5,5.8-3.9,9-3,20.1-3,20.1l4.8.2s7.6-18.1,8.2-21.2,10.1-28.4,9.7-30.1a10,10,0,0,0-.9-2.8" transform="translate(0 -81.5)"/><path class="cls-5" d="M41.4,386.2a2.3,2.3,0,0,0-2.4-2.3,2.3,2.3,0,1,0,0,4.5A2.3,2.3,0,0,0,41.4,386.2Z" transform="translate(0 -81.5)"/><line class="cls-13" x1="72.5" y1="258.5" x2="41.1" y2="300.9"/><line class="cls-14" x1="77" y1="251.9" x2="71.5" y2="259.5"/><path class="cls-5" d="M38.2,381.8l-8.1-5.3a3.3,3.3,0,0,1-.9-4.7l16.4-22.6a3.7,3.7,0,0,1,5-.8l8.1,5.3a3.4,3.4,0,0,1,.9,4.8L43.2,381A3.7,3.7,0,0,1,38.2,381.8Z" transform="translate(0 -81.5)"/><path class="cls-5" d="M25,371.1l4.7,3.1,15.8-21.7-5.8-3.9a4,4,0,0,0-5.3.9L23.7,364.3A4.7,4.7,0,0,0,25,371.1Z" transform="translate(0 -81.5)"/><path class="cls-1" d="M26.4,372l4.7,3.1,15.8-21.7-5.8-3.8a3.9,3.9,0,0,0-5.3.9L25.1,365.3A4.7,4.7,0,0,0,26.4,372Z" transform="translate(0 -81.5)"/><path class="cls-7" d="M40.7,349.3l-7.2,9.2a.9.9,0,0,0,.2,1.1l1.7,1.2a.7.7,0,0,0,1.1-.2l7.2-9.3Z" transform="translate(0 -81.5)"/><path class="cls-1" d="M39.9,382.9l-8.2-5.3a3.4,3.4,0,0,1-.9-4.8l16.4-22.5a3.7,3.7,0,0,1,5-.8l8.1,5.3a3.3,3.3,0,0,1,.9,4.7L44.8,382.1A3.6,3.6,0,0,1,39.9,382.9Z" transform="translate(0 -81.5)"/><polygon class="cls-10" points="40.9 299.7 39.1 304.3 40 304.8 43.2 301.1 40.9 299.7"/><path class="cls-7" d="M54.7,351.1l-7.9,10.2a.8.8,0,0,0,.1,1.1l1.7,1.2a.8.8,0,0,0,1.2-.2l8-10.2Z" transform="translate(0 -81.5)"/><path class="cls-5" d="M40.3,378.7l-5.1-3.5a2.9,2.9,0,0,1-.7-4.2l4-5.3a3.2,3.2,0,0,1,4.3-.7l5.1,3.5a2.9,2.9,0,0,1,.7,4.2L44.7,378A3.4,3.4,0,0,1,40.3,378.7Z" transform="translate(0 -81.5)"/><path class="cls-1" d="M41.1,379.4,36,375.9a2.8,2.8,0,0,1-.7-4.1l3.9-5.3a3.2,3.2,0,0,1,4.4-.7l5.1,3.5a2.8,2.8,0,0,1,.7,4.1l-4,5.3A3.1,3.1,0,0,1,41.1,379.4Z" transform="translate(0 -81.5)"/><path class="cls-10" d="M75.1,335.9c.3-1,3.5-4.9,2.2-4" transform="translate(0 -81.5)"/><path class="cls-12" d="M80.7,248.2" transform="translate(0 -81.5)"/><path class="cls-15" d="M103.2,260" transform="translate(0 -81.5)"/><path class="cls-5" d="M121.1,247.2a14.7,14.7,0,0,0-9.3-1.7h-.3l-4.1,1.4a10.1,10.1,0,0,0-3.7,3.7,42.1,42.1,0,0,0-1.2,4.8c.1.4.1.7.2,1,.9,3,1,5.9,1.7,6.3l1.6,1.1v-1.5s-2.2-5.8,0-7.2,3-3.6,5.5-3.7,6.2.5,7.9,0l1.2-.4C122.7,249.4,122.9,248.7,121.1,247.2Z" transform="translate(0 -81.5)"/></g><g id="Layer_9" data-name="Layer 9"><path class="cls-5" d="M430,254.5a16.6,16.6,0,0,0-6.1,6.9c-2.1,4.5-.9,7.5,1.4,9.5a19.2,19.2,0,0,1,5.1,7c.2,1.1-.9,2.8-.9,2.8s4.8,2.5,8.6,1.1,5.2-8.3,3.9-11.1-8.7-8.6-9.5-12.3-.4-4.6-.4-4.6Z" transform="translate(0 -81.5)"/><path class="cls-16" d="M437.2,280.3l-5.7,1.2s-2.6.8-4.7,5.8-3.1,14.8-3.1,14.8l-1.1-1.6-2.4,2.8s3.9,8.3,5.7,8.5,5-5.2,5-5.2a57.5,57.5,0,0,1-1.8,8.5,57.1,57.1,0,0,0-2.9,17.4c0,9.1,5.1,21.2,6.4,25.7s1.1,8.4,2.1,12.9a100.2,100.2,0,0,1,1.7,12.3s-2.2,2.5-3.4,3.6,6.6.8,7.4.2.9-2.3.9-3.5-.2-19.6-.2-19.6,9.6,15.6,8.9,17.4,2.5-2.7,2.5-2.7-1.4-11.4-2.4-15.7a76,76,0,0,0-2.9-9.1s7.9-15,8.7-24.4-3.7-21.7-3.7-21.7,4.1-10.4,4.2-17.3-2.2-8.2-4.9-9.4a14.1,14.1,0,0,0-4.4-1.3l-5.8-.6Z" transform="translate(0 -81.5)"/><g class="cls-17"><path class="cls-2" d="M452.2,285.3a14.1,14.1,0,0,1,3.1-1l-.3-.5a12,12,0,0,0-3,1.1c-.2,0-.2.2-.2.3S452.1,285.4,452.2,285.3Z" transform="translate(0 -81.5)"/><path class="cls-2" d="M449.4,292.6v.6a5.4,5.4,0,0,1,2,1h.4c.1-.1,0-.3-.1-.4A5.3,5.3,0,0,0,449.4,292.6Z" transform="translate(0 -81.5)"/><path class="cls-2" d="M455.7,294.7c0-.3.2-.4.3-.4h0a.7.7,0,0,0,.1-.5h-.3c-.3,0-.5.3-.6.8a13.8,13.8,0,0,0-.1,4,13.6,13.6,0,0,0,.4-1.7A8.2,8.2,0,0,1,455.7,294.7Z" transform="translate(0 -81.5)"/><path class="cls-2" d="M455.4,288.6a.3.3,0,0,0,0,.4h.4l.5-.8a2.2,2.2,0,0,0-.1-.8A8.1,8.1,0,0,1,455.4,288.6Z" transform="translate(0 -81.5)"/><path class="cls-2" d="M451.8,305.7c.1.1.3.2.4.1l.8-.3.3-.7-1.3.6C451.8,305.4,451.8,305.6,451.8,305.7Z" transform="translate(0 -81.5)"/><path class="cls-2" d="M451.8,314.6c.1-.1,0-.3-.1-.4a5.3,5.3,0,0,0-2.3-1.1v.6a5.4,5.4,0,0,1,2,1Z" transform="translate(0 -81.5)"/><path class="cls-2" d="M455.2,319.5c0-.1-.1-.2-.1-.4a.4.4,0,0,0,.1.3Z" transform="translate(0 -81.5)"/><path class="cls-2" d="M444.9,283.7a.3.3,0,0,0,0,.4h.4c0-.1,2-2.4,1.6-4.2h-.5C446.8,281,445.4,283,444.9,283.7Z" transform="translate(0 -81.5)"/><path class="cls-2" d="M441.7,280.4a10.5,10.5,0,0,1,2.2-.8l-1.3-.2-1.1.5c-.2.1-.2.2-.2.4S441.5,280.5,441.7,280.4Z" transform="translate(0 -81.5)"/><path class="cls-2" d="M438,286.2a3.3,3.3,0,0,0,0-1.7,2.3,2.3,0,0,0-.7-.7c-1.4-.5-4.6,1-4.7,1.1a.2.2,0,0,0,.2.4c.9-.4,3.3-1.4,4.3-1a.8.8,0,0,1,.4.4,2,2,0,0,1-.1,1.5Z" transform="translate(0 -81.5)"/><path class="cls-2" d="M430,292.6v.6a5.1,5.1,0,0,1,2.1,1h.3a.3.3,0,0,0,0-.4A6.7,6.7,0,0,0,430,292.6Z" transform="translate(0 -81.5)"/><path class="cls-2" d="M448.8,292.7a.8.8,0,0,0-.6.8,16.4,16.4,0,0,0-.1,4.4l.3.2h0a.3.3,0,0,0,.3-.3,13.4,13.4,0,0,1,0-4.2c0-.3.1-.4.2-.4h.5v-.6Z" transform="translate(0 -81.5)"/><path class="cls-2" d="M436.4,293.8c-.2,0-.5.3-.6.8a18.8,18.8,0,0,0,0,4.3.3.3,0,0,0,.3.3h0a.5.5,0,0,0,.2-.4,16.9,16.9,0,0,1,0-4.1c.1-.3.2-.4.3-.4s1.8.4,2.5.9.3.1.3,0,.1-.3,0-.4S437.4,293.3,436.4,293.8Z" transform="translate(0 -81.5)"/><path class="cls-2" d="M444.9,304.6h.4c.1-.1,2.2-2.8,1.5-4.5a.9.9,0,0,0-.6-.6c-1.5-.6-4.6.9-4.7,1s-.2.2-.2.4.2.2.4.1,3.3-1.4,4.3-1l.3.3c.5,1.2-.9,3.3-1.4,4A.3.3,0,0,0,444.9,304.6Z" transform="translate(0 -81.5)"/><path class="cls-2" d="M436,288.6a.2.2,0,0,0,.1.4.1.1,0,0,0,.1.1h.2a8.3,8.3,0,0,0,1.6-2.8h-.6A7.6,7.6,0,0,1,436,288.6Z" transform="translate(0 -81.5)"/><path class="cls-2" d="M432.5,305.7a.2.2,0,0,0,.3.1c.9-.4,3.3-1.4,4.3-1a.8.8,0,0,1,.4.4,2,2,0,0,1-.1,1.5h.6a3.3,3.3,0,0,0,0-1.7,2.3,2.3,0,0,0-.7-.7c-1.4-.5-4.6,1-4.7,1.1A.2.2,0,0,0,432.5,305.7Z" transform="translate(0 -81.5)"/><path class="cls-2" d="M442.4,287.5c-.1-.1-.3,0-.4.1s-1.4,2.2-1.1,3.5a1.8,1.8,0,0,0,.7.8,2.5,2.5,0,0,0,1.2.2,3.8,3.8,0,0,0,2.4-.8c.1-.1.2-.2.1-.3a.2.2,0,0,0-.4-.1,3.7,3.7,0,0,1-3.1.5,1,1,0,0,1-.4-.5c-.2-.8.7-2.4,1-3A.3.3,0,0,0,442.4,287.5Z" transform="translate(0 -81.5)"/><path class="cls-2" d="M430,313.1v.6a5.1,5.1,0,0,1,2.1,1h.3a.3.3,0,0,0,0-.4A6.7,6.7,0,0,0,430,313.1Z" transform="translate(0 -81.5)"/><path class="cls-2" d="M448.8,313.2a.8.8,0,0,0-.6.8,16.4,16.4,0,0,0-.1,4.4l.3.2h0a.3.3,0,0,0,.3-.3,13.4,13.4,0,0,1,0-4.2c0-.3.1-.4.2-.4h.5v-.6Z" transform="translate(0 -81.5)"/><path class="cls-2" d="M436.4,314.3c-.2,0-.5.3-.6.8a18.8,18.8,0,0,0,0,4.3.3.3,0,0,0,.3.3h0a.5.5,0,0,0,.2-.4,16.9,16.9,0,0,1,0-4.1c.1-.3.2-.4.3-.4s1.8.4,2.5.9.3.1.3,0,.1-.3,0-.4S437.4,313.8,436.4,314.3Z" transform="translate(0 -81.5)"/><path class="cls-2" d="M444.9,325.1h.4c.1-.1,2.2-2.8,1.5-4.5a.9.9,0,0,0-.6-.6c-1.5-.6-4.6.9-4.7,1s-.2.2-.2.4.2.2.4.1,3.3-1.4,4.3-1l.3.3c.5,1.2-.9,3.3-1.4,4A.3.3,0,0,0,444.9,325.1Z" transform="translate(0 -81.5)"/><path class="cls-2" d="M437.4,306.7a6,6,0,0,1-1.1,2.1l-.3.3a.2.2,0,0,0,.1.4.1.1,0,0,0,.1.1h.2l.4-.5a9.9,9.9,0,0,0,1.2-2.3Z" transform="translate(0 -81.5)"/><path class="cls-2" d="M442.4,308c-.1-.1-.3,0-.4.1s-1.4,2.2-1.1,3.5a1.8,1.8,0,0,0,.7.8,2.5,2.5,0,0,0,1.2.2,3.8,3.8,0,0,0,2.4-.8c.1-.1.2-.2.1-.3a.2.2,0,0,0-.4-.1,3.7,3.7,0,0,1-3.1.5,1,1,0,0,1-.4-.5c-.2-.8.7-2.4,1-3A.3.3,0,0,0,442.4,308Z" transform="translate(0 -81.5)"/><path class="cls-2" d="M441.3,382.7h0Z" transform="translate(0 -81.5)"/><path class="cls-2" d="M429.4,292.7a1.1,1.1,0,0,0-.6.8,19.8,19.8,0,0,0,0,4.4.2.2,0,0,0,.2.2h.1c.1,0,.2-.2.2-.3a17.9,17.9,0,0,1,0-4.2c.1-.3.2-.4.3-.4h.4v-.6Z" transform="translate(0 -81.5)"/><path class="cls-2" d="M422.3,300.9l.5-.2-.2-.2-.4.4Z" transform="translate(0 -81.5)"/><path class="cls-2" d="M426.8,299.4a4.6,4.6,0,0,0-2.8.2v.6a5,5,0,0,1,2.6-.3l.4.3c.5,1.2-.9,3.3-1.5,4a.3.3,0,0,0,0,.4h.2c.1,0,.2,0,.2-.1s2.3-2.8,1.5-4.5A.9.9,0,0,0,426.8,299.4Z" transform="translate(0 -81.5)"/><path class="cls-2" d="M425.9,291.3a.2.2,0,0,0,0-.3.2.2,0,0,0-.2-.2,6.4,6.4,0,0,1-.2.7Z" transform="translate(0 -81.5)"/><path class="cls-2" d="M429,318.6h.1c.1,0,.2-.2.2-.3a14.8,14.8,0,0,1-.1-3.5c0,.1-.1.2-.1.3s-.3,1-.4,1.5.1,1.7.1,1.8A.2.2,0,0,0,429,318.6Z" transform="translate(0 -81.5)"/><path class="cls-2" d="M429.6,313.7h.4v-.6h-.4c0,.2-.1.4-.1.7A.1.1,0,0,1,429.6,313.7Z" transform="translate(0 -81.5)"/><path class="cls-2" d="M427.5,320.8c-.2.8-.3,1.7-.5,2.6A4.1,4.1,0,0,0,427.5,320.8Z" transform="translate(0 -81.5)"/><path class="cls-2" d="M425.6,311.4h-.3a.9.9,0,0,0,.6.3h0a.2.2,0,0,0,0-.3C425.8,311.3,425.7,311.3,425.6,311.4Z" transform="translate(0 -81.5)"/><path class="cls-2" d="M422.7,308.1l.3.4h.1c.1-.1,0-.3-.1-.4Z" transform="translate(0 -81.5)"/></g><path class="cls-18" d="M437.2,280.3l-5.7,1.2s-2.6.8-4.7,5.8-3.1,14.8-3.1,14.8l-1.1-1.6-2.4,2.8s3.9,8.3,5.7,8.5,5-5.2,5-5.2a57.5,57.5,0,0,1-1.8,8.5,57.1,57.1,0,0,0-2.9,17.4c0,9.1,5.1,21.2,6.4,25.7s1.1,8.4,2.1,12.9a100.2,100.2,0,0,1,1.7,12.3s-2.2,2.5-3.4,3.6,6.6.8,7.4.2.9-2.3.9-3.5-.2-19.6-.2-19.6,9.6,15.6,8.9,17.4,2.5-2.7,2.5-2.7-1.4-11.4-2.4-15.7a76,76,0,0,0-2.9-9.1s7.9-15,8.7-24.4-3.7-21.7-3.7-21.7,4.1-10.4,4.2-17.3-2.2-8.2-4.9-9.4a14.1,14.1,0,0,0-4.4-1.3l-5.8-.6Z" transform="translate(0 -81.5)"/><path class="cls-10" d="M440,387.2a6.1,6.1,0,0,0,.9-3.5c0-1.2-.1-14-.1-14h-6.3a6.8,6.8,0,0,0,.2,1.4,115.2,115.2,0,0,1,1.6,12.3C435.8,385,439.6,388.9,440,387.2Z" transform="translate(0 -81.5)"/><path class="cls-10" d="M453.6,385.2c.3-.2-1-6.9-1-6.9s-.6-4.4-1.3-8.6h-7a121,121,0,0,1,5.7,11.1A12.2,12.2,0,0,0,453.6,385.2Z" transform="translate(0 -81.5)"/><path class="cls-1" d="M441.5,385.8a4.2,4.2,0,0,1-4.9-1.1c-1.5-1.6-2.8.8-4.8,1.5s-3.5,1.7-3,2.2,2,.9,4.5.9,5.6-.3,6.5-.7S441.2,387,441.5,385.8Z" transform="translate(0 -81.5)"/><path class="cls-1" d="M453.9,381.5a4.1,4.1,0,0,1-2.2,1.8,16.4,16.4,0,0,0-.7-2c-.4-.9-1.3.2-1.3.2a46.8,46.8,0,0,1-2,4.5c-.9,1.4-1.8,3-1.3,3.3s1.7.1,3.3-1a20.4,20.4,0,0,0,4.1-3.3C454.2,384.4,454.1,382.8,453.9,381.5Z" transform="translate(0 -81.5)"/><path class="cls-5" d="M427.2,322.2a50.6,50.6,0,0,0-1,10.3c0,9.1,5.1,21.2,6.4,25.7s1.1,8.4,2.1,12.9l.6,2.7a11.2,11.2,0,0,0,6,.1l-.2-9.8s2.9,4.9,5.4,9.6a10.6,10.6,0,0,0,5.2-1.1c-.5-3.4-1.1-7.3-1.6-9.5a76,76,0,0,0-2.9-9.1s7.9-15,8.7-24.4a40.3,40.3,0,0,0-.3-7.7,39.3,39.3,0,0,1-15.3,2.7C434.1,324.6,429.8,323.4,427.2,322.2Z" transform="translate(0 -81.5)"/><path class="cls-11" d="M440.6,328.6s-3.6,19-3.8,22.7,3.5,11,3.5,11" transform="translate(0 -81.5)"/><path class="cls-18" d="M430.9,306.6s-3.5-4.1-3.6-7.1,2.8-10.8,2.8-10.8" transform="translate(0 -81.5)"/><path class="cls-10" d="M437.1,276.2s1.8,2.2,1.9,3.1-1.2,1.4-1.2,1.4-2.5,5.1-.3,7.3,5.3.2,6.4-1.7,1.8-6.1,1.8-6.1a28.1,28.1,0,0,1-3.8-4.1,27.8,27.8,0,0,0-3-3.9S437.9,275.5,437.1,276.2Z" transform="translate(0 -81.5)"/><path class="cls-10" d="M428.3,261.5s-1.3,4-.6,6.2,2.1,2.3,2.2,3-.6,2.8-.5,3.2,1.8.7,1.8.7,2.4,3.6,3.4,3.6A5.4,5.4,0,0,0,438,276a15.8,15.8,0,0,0,1.3-3.1s-.7-1.9-4.2-3.9S428.4,263.8,428.3,261.5Z" transform="translate(0 -81.5)"/><path class="cls-18" d="M433.9,272.2" transform="translate(0 -81.5)"/><path class="cls-18" d="M431.8,273.8" transform="translate(0 -81.5)"/><path class="cls-5" d="M430,254.5s-2.6,4.5-1.8,7.8,3.9,6.1,6.2,7.4,6.3,5.1,6.4,7.5-2.3,4.1-1.8,4.3,4.4,1.2,6.7-1.3,5.6-5.1,5.5-10.1-4.4-9.2-6.1-11.8-4.4-6.4-8.6-6.6A7.4,7.4,0,0,0,430,254.5Z" transform="translate(0 -81.5)"/><path class="cls-19" d="M428.8,258.6s.1,5.5,5.5,6.9,13.6,5.6,12.8,11.9" transform="translate(0 -81.5)"/><path class="cls-19" d="M433.2,254.8a7.6,7.6,0,0,0,5.1,6.2c4.9,1.7,11.8,5,12.6,10.5" transform="translate(0 -81.5)"/><path class="cls-20" d="M109,249.5s1.2-1.1,4,.2,7.9,1,8.8-.9" transform="translate(0 -81.5)"/><path class="cls-20" d="M109.1,250.2" transform="translate(0 -81.5)"/><path class="cls-19" d="M428.6,254.4s-1.9,4.5-1.4,6.7" transform="translate(0 -81.5)"/><path class="cls-16" d="M450.1,288.4l-2.8,13.4L429.4,296a22.2,22.2,0,0,0-2.2-6c-1.5-2.4-4.6-3-4.6-2.3s2.5,4.5,2.5,4.5-2.9-2.2-2.9-1.5,2.6,3.2,3.3,3.8,1,3,1.9,3.4,17.8,11.4,19.8,12.7,3.9-.4,4.2-.9,4.8-8.4,6.9-14a11.1,11.1,0,0,0-2.7-12.2,17.7,17.7,0,0,0-2.9-1.8" transform="translate(0 -81.5)"/><g class="cls-21"><path class="cls-2" d="M452.2,285.3c.8-.4,3.1-1.3,4.2-1l-.6-.6a9.7,9.7,0,0,0-3.8,1.2c-.2,0-.2.2-.2.3S452.1,285.4,452.2,285.3Z" transform="translate(0 -81.5)"/><path class="cls-2" d="M457.3,286.2a.9.9,0,0,0,.1-.5l-.5-.7a2.5,2.5,0,0,1-.1,1.2Z" transform="translate(0 -81.5)"/><path class="cls-2" d="M449.4,293.2a5.4,5.4,0,0,1,2,1h.4c.1-.1,0-.3-.1-.4a5.3,5.3,0,0,0-2.3-1.1Z" transform="translate(0 -81.5)"/><path class="cls-2" d="M455.8,293.8c-.3,0-.5.3-.6.8a11.4,11.4,0,0,0,0,4.3c0,.2.1.3.2.3h0c.2-.1.3-.2.3-.4a12.7,12.7,0,0,1,0-4.1c0-.3.2-.4.3-.4s1.8.4,2.4.9h.1a4.3,4.3,0,0,0,.1-.5C458.2,294.4,456.7,293.4,455.8,293.8Z" transform="translate(0 -81.5)"/><path class="cls-2" d="M455.4,288.6a.3.3,0,0,0,0,.4h.4a11.7,11.7,0,0,0,1.5-2.8h-.5A7.6,7.6,0,0,1,455.4,288.6Z" transform="translate(0 -81.5)"/><path class="cls-2" d="M452.2,305.8l1.6-.6.4-.7a7.2,7.2,0,0,0-2.2.9c-.2,0-.2.2-.2.3S452.1,305.9,452.2,305.8Z" transform="translate(0 -81.5)"/><path class="cls-2" d="M448.4,298.1h0a.3.3,0,0,0,.3-.3,8.3,8.3,0,0,1-.2-1.8l-.4,1.8h0Z" transform="translate(0 -81.5)"/><path class="cls-2" d="M449.4,293.2v-.6h-.2v.6Z" transform="translate(0 -81.5)"/><path class="cls-2" d="M435.8,298.9a.3.3,0,0,0,.3.3h0a.5.5,0,0,0,.2-.4,2.8,2.8,0,0,0-.1-.6l-.5-.2A5.1,5.1,0,0,1,435.8,298.9Z" transform="translate(0 -81.5)"/><path class="cls-2" d="M441.3,300.8c.1.1.2.2.4.1l1.2-.5-.8-.3-.6.3C441.3,300.5,441.3,300.6,441.3,300.8Z" transform="translate(0 -81.5)"/><path class="cls-2" d="M445.1,304.6h.2a9.7,9.7,0,0,0,1.5-2.8l-.5-.2a7.6,7.6,0,0,1-1.4,2.7.3.3,0,0,0,0,.4Z" transform="translate(0 -81.5)"/><path class="cls-2" d="M428.8,297.9a.2.2,0,0,0,.2.2h.1c.1,0,.2-.2.2-.3a15.8,15.8,0,0,1-.1-2.9,10.4,10.4,0,0,1-.4-1.3A18.8,18.8,0,0,0,428.8,297.9Z" transform="translate(0 -81.5)"/><path class="cls-2" d="M423.1,287.9c.1-.1,0-.3-.1-.4a.2.2,0,0,0-.3.1h-.1a4.1,4.1,0,0,0,.2.7Z" transform="translate(0 -81.5)"/><path class="cls-2" d="M425.6,290.9l-1,.5.3.4a2.8,2.8,0,0,0,1-.5.2.2,0,0,0,0-.3C425.8,290.8,425.7,290.8,425.6,290.9Z" transform="translate(0 -81.5)"/><path class="cls-2" d="M422.5,291.4l.6.7h.4l1.2-.2-.5-.4A3.3,3.3,0,0,1,422.5,291.4Z" transform="translate(0 -81.5)"/></g><path class="cls-18" d="M450.1,288.4l-2.8,13.4L429.4,296a22.2,22.2,0,0,0-2.2-6c-1.5-2.4-4.6-3-4.6-2.3s2.5,4.5,2.5,4.5-2.9-2.2-2.9-1.5,2.6,3.2,3.3,3.8,1,3,1.9,3.4,17.8,11.4,19.8,12.7,3.9-.4,4.2-.9,4.8-8.4,6.9-14a11.1,11.1,0,0,0-2.7-12.2,17.7,17.7,0,0,0-2.9-1.8" transform="translate(0 -81.5)"/><path class="cls-22" d="M443.9,300.8,429.4,296a22.2,22.2,0,0,0-2.2-6c-1.5-2.4-4.6-3-4.6-2.3s2.5,4.5,2.5,4.5-2.9-2.2-2.9-1.5,2.6,3.2,3.3,3.8,1,3,1.9,3.4,9.3,5.6,14.6,9.2Z" transform="translate(0 -81.5)"/><path class="cls-10" d="M426.8,289.5a24.3,24.3,0,0,0-2.3-2.3,3.8,3.8,0,0,0-2.8.2c-.4.3.4.5.7.4h1.4a31.6,31.6,0,0,1,1.8,2.7" transform="translate(0 -81.5)"/><path class="cls-5" d="M421.6,294.3l-3.3.8a1.5,1.5,0,0,1-1.9-1.2L414,283.3a1.7,1.7,0,0,1,1.2-2l3.3-.8a1.5,1.5,0,0,1,1.9,1.2l2.4,10.6A1.7,1.7,0,0,1,421.6,294.3Z" transform="translate(0 -81.5)"/><path class="cls-22" d="M420.2,303.3s-3.6-6.9-3.9-7.6-2.1-9.8-2.2-10.9-.3-2.5.2-2.2,1.9,6,1.9,6,.6-1.6,1.1-2.7,1.6-2.8,1.8-2.4a5.8,5.8,0,0,1-.4,1.8c-.1.5-1.1,3.9-1.1,3.9v1.5l1.8-2.3c.5-.6,2.1-1.6,2.1-1s-1.4,1.2-1.4,1.7a18.8,18.8,0,0,1-1.6,2.9l2.3-2.5c.4-.3,1.2-.6.7.2l-1.8,2.6s.5,2.3.5,2.7a3.5,3.5,0,0,1-.5,1.2l3,4.3Z" transform="translate(0 -81.5)"/></g><g id="Layer_12" data-name="Layer 12"><line class="cls-23" x1="108.3" y1="240.9" x2="105.3" y2="268.5"/></g></svg>