<svg xmlns="http://www.w3.org/2000/svg" xmlns:xlink="http://www.w3.org/1999/xlink" viewBox="0 0 489.4 435.2"><defs><style>.cls-1,.cls-17{fill:#fca468;}.cls-1,.cls-10,.cls-11,.cls-13,.cls-14,.cls-15,.cls-16,.cls-20,.cls-24,.cls-5,.cls-6,.cls-7{stroke:#263238;}.cls-1,.cls-10,.cls-11,.cls-12,.cls-14,.cls-15,.cls-20,.cls-21,.cls-22,.cls-24,.cls-5{stroke-linecap:round;stroke-linejoin:round;}.cls-2{opacity:0.25;}.cls-3{fill:#edf1f0;}.cls-12,.cls-14,.cls-15,.cls-20,.cls-21,.cls-22,.cls-25,.cls-4,.cls-6,.cls-7{fill:none;}.cls-4{stroke:#b2b2b2;}.cls-13,.cls-16,.cls-25,.cls-4,.cls-6,.cls-7{stroke-miterlimit:10;}.cls-16,.cls-5,.cls-8{fill:#263238;}.cls-6{stroke-dasharray:3;}.cls-9{fill:#28353a;}.cls-10{fill:#46a0ae;}.cls-11,.cls-13,.cls-19,.cls-24{fill:#fff;}.cls-12{stroke:#fff;}.cls-14{stroke-width:2px;}.cls-15{stroke-width:4px;}.cls-18{clip-path:url(#clip-path);}.cls-21,.cls-22,.cls-25{stroke:#707070;}.cls-22{stroke-width:0.5px;}.cls-23{clip-path:url(#clip-path-2);}.cls-24{stroke-width:0.75px;}.cls-25{stroke-width:0.25px;opacity:0.16;}</style><clipPath id="clip-path" transform="translate(-5.4 -29.6)"><path class="cls-1" d="M432,274.5l-7,1.4s-3.3,1-5.8,7.2-3.8,18.2-3.8,18.2l-1.4-2-3,3.5s4.9,10.2,7.1,10.5,6.2-6.5,6.2-6.5a74,74,0,0,1-2.3,10.6,67.8,67.8,0,0,0-3.6,21.4c0,11.2,6.3,26.2,7.9,31.8s1.4,10.3,2.7,15.9a126.9,126.9,0,0,1,2,15.2,47.7,47.7,0,0,1-4.2,4.3c-1.6,1.4,8.2,1,9.1.4s1.1-2.9,1.1-4.4-.1-24.2-.1-24.2,11.8,19.2,10.9,21.5,3.1-3.3,3.1-3.3-1.7-14.1-3-19.4a79.4,79.4,0,0,0-3.6-11.2s9.8-18.6,10.8-30.1-4.6-26.8-4.6-26.8,5-12.9,5.2-21.4-2.7-10.1-6-11.6a16.4,16.4,0,0,0-5.4-1.6l-7.3-.7Z"/></clipPath><clipPath id="clip-path-2" transform="translate(-5.4 -29.6)"><path class="cls-1" d="M447.9,284.4,444.5,301l-22.1-7.2a24.5,24.5,0,0,0-2.7-7.4c-1.9-3-5.7-3.7-5.7-2.8s3.1,5.5,3.1,5.5-3.6-2.7-3.6-1.9,3.2,4.1,4.1,4.7,1.2,3.8,2.3,4.3,22,14,24.4,15.6,4.9-.5,5.2-1.1,5.9-10.4,8.6-17.3a13.7,13.7,0,0,0-3.4-15,13.4,13.4,0,0,0-3.6-2.2"/></clipPath></defs><title>main_banner</title><g id="Background_Simple" data-name="Background Simple"><g class="cls-2"><path class="cls-3" d="M180.2,56.4S102.3,96.1,63.4,157.3,27.6,297.2,74.8,355.6s137.6,50.8,213.1,87.8,159.1,29.4,194.8-49-18.2-107.8-27.4-198.5S364.2-27.8,180.2,56.4Z" transform="translate(-5.4 -29.6)"/></g></g><g id="Map"><path class="cls-4" d="M264.1,208.6c.5,0,.5-2.4.3-2.4S263.1,208.8,264.1,208.6Z" transform="translate(-5.4 -29.6)"/><path class="cls-4" d="M164.9,242.6c.7-.2,5.7.8,5.7-.8s-5.1-2.3-5.7-1.8a2.9,2.9,0,0,0,.7,1.8c0,.5-2.1-.1-2.3.4A1.1,1.1,0,0,0,164.9,242.6Z" transform="translate(-5.4 -29.6)"/><path class="cls-4" d="M209.7,273.6c-2.1.1-4.1-2.6-6.3-2.9s-2.2-.5-3.9.2c1.9-.8-3.2-3.2-3.3-3.2s-1.7,2.1-2.5,1.8.9-1.9.1-2.6-2.2,1-2.3,1,2.3-5.2-.3-6.6-4.4-1.3-6.7-2.4-2.2-3.7-5.1-3.5c1.1,0-2.3-3.1-1.4-2.7-1.5-.6-4.5.7-6.5.2s-1.3-2.2-2.5-2.2-1.3,3.2-1.6,3.8-1.1-4.7-.3-4.1-4.7,2.4-5.1,2.7-1.3,2.1-2.2,2.4c1.6-.5-5.2-1.3-3.8-.7-4.2-1.7-2.3-2.2-3.5-6-.3-1,.8-1.5-.1-2.5s-4.5-1.1-5.6-.4.1-3,.4-3.3h0c1.4-1.5,1.9-4.7-.3-4.8s-1.8,3.1-4,4.2c-6.7,3.3-7-6.1-6.8-10.1h0c.4-6.9,5.4-5,9.6-4.5-1.1-.2-.2-1.8,1.1-2a9.7,9.7,0,0,1,3.4.8c2.1.6,1.6,0,3.2,2.7.6,1,.8,3.7,2.2,4.1s-.1-9.7.7-10.9,3.4-3.3,4.2-4.2.1.2.3-2.3c0-.3-.7-4,.5-4-.5,0,.4,3.5.3,3.5s.4-2,.5-2.9,3.8-2,4.1-2.7-1.8,0-1.8-.1,3-.8,3.5-1.1a9.8,9.8,0,0,1,1.3-3.6c1.4-1.4,4.8-1.1,5.9-3.3-.1.3.4,1.4,1.2,1.2-2.7.8-4,2.2-.8,1.7s4.2-1.9,5.5-2.8-.6-.9-.5-1.4-2.1,1.9-2.5,1.8c-3.2-.6-1.7-2.7-2.9-3.5a2.2,2.2,0,0,1-1.1.2c-.3-1.1,3.9-2-.2-2.5s-4.1,3.6-6,3.6c.9,0,5.1-5.1,7.1-5.6s12.1-1,11.1-3.5l-.8-.4c-.8-.7,2.1-1.4-1.1-1.7a4.1,4.1,0,0,1,0-1.1c-.3-.2-3.5,1.1-3.5,1.1s2.9-1.3,3.3-1.9-6.8-3.2-6.2-4,1.3.2.5-2.3c-.2-.7-3.2-4.9-3-5.1-1.5,1.3-.7,4.3-3.2,4.3s-2.5-3.2-2.5-5-7-2.9-7.5-2.9c-4,.1-2.4.4-2.6,3.5,0,.5-.6,2.7-.6,3.1.5,2.4,2.5,3.1,1.3,6.3-.4.9-2.6,1.2-2.8,1.7s.9,1.5.7,2.4.4,3.7.1,3.6-.8.6-2.5-.8-.5-4.1-1.6-5.4-5.9-2.6-7.1-3.1a7.3,7.3,0,0,0-5.2-.9c.5,0-.5-2.7-.7-3.1-1.2-2-2.4.3-1.7-3.7.2-1,4.6-5.7,4.6-5.6a28.3,28.3,0,0,0-3.6-1.6c.5-1.2,3.6,2.1,4.4-.4-.3,1.2,4.9-1.1,3.6-2.1s-3.6,0-3.4-1.4c-.2.9,6.6,1.3,3.9-1.1h3c.3,0-1-1.2-.9-1.3s1.7,1.9,3.5-.1-.7-1.7-.8-3.2,2.1-.7,1.4-1.8a5.9,5.9,0,0,0-4.2-1.5c-.7.2.2,3.4-1.6,4.4a2.2,2.2,0,0,1-.5-.8c-.7,0,.7,2.7-.3,2.3s-1-2.4-1.1-2.5-.9-1.5-1.5-2.1-1.3,2.1-1.5,2.1.1-2.2.2-2.4-2.3-.5-2.2-.5.6-1.1.7-1.3-2.1-3.1-2.1-3.1c-1.2-2.8-.4,0-.7-3.2.2,1.5,5.8-2.5,3.8-3.1s-4.8-.9-5.2.7-.1,4.5-.5,5.9-1.7,1.2-1.1,3.1,4.3,1.6,2.4,3.1a.8.8,0,0,1,.8-.7c0,.2-2.1,4.1-1.9,3.9a19.6,19.6,0,0,1-2.5-2.5c-.1-.2,2.8-.6,2.9-.8s-1.6-1-1.6-1.2,1.4-.1.9-.5-3.5-.6-4.6.8,4,2.4-1.4,3.1c-2.5.3-3.5-1-5.6-1.5-.6-.1-.6-.8-1.8-.9s-3,1.2-2.2,1.5,2.8-1.2,3.2-.8c-1.5-1.6-1.8,4.5-2.7,4s-.2-1.7-1.5-2.2-5.7,1.3-7-.2,1.7-.8,1.5-1.2-4.3-1.6-5.7-1.9-2.3-1.1-3.4-1.2-2,.8-3.3.8.2-1.7-.4-1.8a5.5,5.5,0,0,1-1.6,1.8c-1.3-.1-1.1-3.2-2.6-3,1-.1-2.2,2.3-2,2.2s-3.8,2.4-4.1,2.3,4.4-3.2,4.4-3.1-4.5,1.3-5.1,1.6,0-.8-.9-.5-.6,1.5-1.1,2-13.7-3.2-14.6-3.3-9.8-1.1-10.3-1.7-3.3.1-4.4,1.3-7.5,2.4-7.8,3.9c-.7,3,6.3,3.5,6.9,5.2,0,.1-7.9-.3-8.8,1.7.3-.7,2.2,2.3,2.4,2.4s5.7-.7,5.8-.7-1.6,3.2-2.3,3.9-1-.5-2,.8a14,14,0,0,1-2,1.6c.2-.2,1.6,2.9,1.6,2.9s3.4.7,3.1.4,0,2.5.7,2.9,2.2.1,3.2.5c-.8-.4,2.7-1.6,2.5-.9s-6.3,8.4-7.1,7.5c1,1.1,11.4-5.9,11.4-7.6l-1-.5c-.2-.6,5.6-5.4,5.4-3.5,0-.2-3.5,2.6-2.7,3.4s4.1-1.2,4.7-1.4-1.4-2,.1-2.2,2.3,1,2.4,1a.7.7,0,0,0-.9.5c.2.5,8.3.2,8.8.6s5.2,4.5,5.1,3.2a2.6,2.6,0,0,1-.2-1.5c2.6,1.9-1.2,2.4-1.2,2.3s2,2.9,1.9,2.9-.5-2.5.1-2.3a1.5,1.5,0,0,1,.2.9c.6.9.8-1.9.7-1.7s.2,3.6-.2,3.6,3.4-.4,2.2.2c.4-.2-1.5-1.3-.4-1.4s.3,1.4-.8,1.4.1,2.2.2,2.3,1.8-1.1,2.5-.9.6,2.8,1,3.3l2.6,2.8a21.6,21.6,0,0,0,4.2,3.4c-.1-.1,5.3,4.5,2.3,4.5-.1,0-3.2-8.5-6.7-6,.7-.5,4.7,5.2,5,5.9,1.4,4.2-1,9,.6,13.6s4.1,5.1,6.1,7.3a29.5,29.5,0,0,1,3.1,4.7c1.4,2.4,1.7,3,1.4,4.3s6.3,6.7,6.1,6.9-6.2-12.8-6-12.8c2.4-.3,2.6,3.6,3.1,4.3s3.6,3.8,4.9,5.5,2.7,6.3,4.8,8.4,4.7,2.8,6.6,3.4,5.1,0,7.1,1.9h0c.9.9,2.3.9,2.9,1.6s2.5.8,4.1,2.5a25.1,25.1,0,0,1,2.1,2.8c1,1,2.8,2.9,4.4,3.1s1.1-1.8,1.9-1.6c3.5.8,2.8,5.6,1.4,8.4s-3.5,3.7-1.7,6.9c.1.2-1.8,3.2-1.6,4.1s4.3,7,5.2,8.8c1.8,3.4,4,3.8,6.5,6.6s1.5,4.7,1.2,8.2c-.6,5.1-.8,10.2-1.9,15.2-.4,2-4.2,12.4-2.8,14.4s.9-2.7,1.5-2.8-.4,7.7-1,7.3.4-2.6-.5-2.2c.8-.4-1.6,3.3-1.6,3.3s1.2,1.3,1.3,1.6,1.4-.4,1.3.5c.1-1.4-3.9,1.6-2,1.3l.8-.6c.3-.1-2,2.3-.4,2.6s.4-1.6.8-1.2-1.7,2.8-1,3.6,1.3-.6,1.6-.1-.9.9-.7,1,1.6-.6,1.9.2-2.3,0-1.4,1.2,2.3-1.4,2.7-.2-2.3,1.2-2.4,1.2,2.6-.7,2.7-.6-3,1.7-3,1.3,1.8,1.5,2.1,1.2-.6-.2-.2-.7,2.7-1.7,2.8-2.1a1.3,1.3,0,0,0-.7,1.2h1.1c-.3-.3-.7,1.6-.6,1.5a1.4,1.4,0,0,1-.5-1.1c-.5-.2-.3,1.1-.3,1.1a.8.8,0,0,0-.9-.5c.4-.6-.5,1.9-.5,1s1.5,1.4,1.4,1.4a4.7,4.7,0,0,0,.5-1,21.3,21.3,0,0,0,2.5,1.7c.4.1-.4-1.1-.1-1a17.9,17.9,0,0,0,3.6-.8c-1.6-.6-3.7-3.6-4-3.7h0c-.3,0-1.2.2-1.1-.5s1,.2,1.3,0-1.1-2.2-.8-2.8,1.2-1.2,1.6-2.1,2.2-2,2.3-3.3-1.4-1.1-1.4-1.4a16.2,16.2,0,0,1,2.2-5.3,19.8,19.8,0,0,1,1.9-2c-.3-.3-3.2-.1-1.7-2.4-.5.8,3.4-.6,3.2-.5s-.1-2.1.2-2.4,6.2.7,6.8-3.1c.1-.8-2.2-3.7-2.2-3.7s4.4,1,6.4-1.1c.5-.6,2.9-5,2.9-4.8a8.1,8.1,0,0,1-1,1.8c.1-.9,3-3.3,3.3-4.3s-.1-3.3.7-4.6,4.8-2.1,6.7-3.3,3.1-3.7,3.9-6.6-.1-6.2.8-7.5S215.7,273.2,209.7,273.6Z" transform="translate(-5.4 -29.6)"/><path class="cls-4" d="M163.5,239.8c1.4-1.9-14.1-5.2-12.2-2.4-.9-1.3,6.2.5,6.5.7S161.9,242.1,163.5,239.8Z" transform="translate(-5.4 -29.6)"/><path class="cls-4" d="M158.6,242.4c.2.4,2.2.9,2.4.4S158.3,241.8,158.6,242.4Z" transform="translate(-5.4 -29.6)"/><path class="cls-4" d="M172.2,242.5c.5.8,1.8.3,2,0S171.7,241.7,172.2,242.5Z" transform="translate(-5.4 -29.6)"/><path class="cls-4" d="M179.8,342.5c.6.4,1.9-1.3,1.3-1.5S179.2,342.2,179.8,342.5Z" transform="translate(-5.4 -29.6)"/><path class="cls-4" d="M181.4,342.7c.4.2,2.1-.6,1.9-1S180.9,342.4,181.4,342.7Z" transform="translate(-5.4 -29.6)"/><path class="cls-4" d="M143.1,266.7c-.6.8.5,1.7.7,1.3S143.6,265.8,143.1,266.7Z" transform="translate(-5.4 -29.6)"/><path class="cls-4" d="M190.5,155.8c.2-2.1-3-1.1-3.5-1S190.4,158.4,190.5,155.8Z" transform="translate(-5.4 -29.6)"/><path class="cls-4" d="M226.5,154.4c-.4.2-5.1-.5-5.2-.5s1.8-2.1,1.6-2.2,4,4,4.1.7-2.6-2-3.1-3.5,3.7,1.2,2.9-1.1-4.1.9-4-.5c0,.5,1.3-1.8,1.1-1.5,1.2-1.3,6.5,3.2,3-1.3-.1-.2,3.2-.2,3.3-.8s-3.2-.6-2.4-1.9,3.4.8,1.8-2.5c0,.1-3.9-1.2-3.3-1.8s5.3-.1,5.1-.8-2.8.1-3-1.3,1.4-.1,1.7-.4-3.7-.3-3.5-.1,4.9-6.8,5.1-6.5c-1.1-1.5-2.2,1-3,.2s4.5-1.4,4.7-1.5-2.9-1-3-.8,8.2-.8,8.2-2.9-7.2-.1-8,.1-1.6-.6-2-.4-2.8,2.9-4.4,3.1c1.6-.2,3.3-3.9.8-4.3-.4-.1-4.6,3-4.9,2.1s2.6-1.1,2.5-1.7-8.9.7-8.9.5c-.2-1.8,12.2-1.1,13.5-2.7s-15.8-3.6-17.3-3.3l-2.8,1a7.1,7.1,0,0,0-1.6-.1c-2.8.3-5.5.1-8.3.7-.4,0,1.2,1.1,1.2,1.2s-2.5.2-2.1.7a25.1,25.1,0,0,1,3.2,2.5c-2,.4-5.6-4.1-7.6-2.6-.5.3,1.4,1.5,1.4,1.8s-3.9-1.2-3.8-1.2-.2,2.3-.8,2.7c1.8-1.1-2.1-2.6-2.7-2.7a3.1,3.1,0,0,0-3.1,1.9c-.9.3-2.2-.8-3.4-.3s.8,1.7-.4,2.3-8.3.4-7.2,2.9,5.1-.1,1.3,3c-1.1.9-4.1.5-5.4,1.4-6.1,4.2,5.7,1.4,5.5,3.8,0,.2-6.2.2-6.1.8s4.4,2.8,5.5,2.9,4.5-1.5,7.5,0,5.3,3.9,6.1,6.9-1.3,3.9,2.4,3.9c-.3,0,3,3.4,3.1,3.3s-4.1-1.5-4.1-.6c0,2.4,5.5.7,4,4.8-.2.7-1.9-.2-2.4,1a6,6,0,0,0-.6,2.7c-.1,1.7,2.4,7.5,4.3,10.1s2.3,2.3,4.5,3.3,2.5,1.7,4.4-1.1c.7-1.1-.4-2.1-.1-3s1.6-.4,1.8-1.3.1-3.3.2-3.8a2.5,2.5,0,0,1,1.2.2c.2-.1,2.2-2.9,2.5-2.9a.9.9,0,0,1,.1,1.1c.4,1.3,5.1-2.9,5.2-3,1.8-1.3,1.6-1.4,3.2-2.1C219.6,157.4,223.6,156.1,226.5,154.4Z" transform="translate(-5.4 -29.6)"/><path class="cls-4" d="M106,139.9c1-.6,1,0,1.8-.8a3.9,3.9,0,0,0,.8,1c1.2,0,1.7-2.6,2.5-2.8s.2,2.4,2,.7.5-1.3,1.2-2-3.7-.1-4.3.1S105.9,139.9,106,139.9Z" transform="translate(-5.4 -29.6)"/><path class="cls-4" d="M113.8,138.9c-1.8.1,1,1.2.9,1a3.9,3.9,0,0,0-2.1.6c-.3.4,1.8.2,1.6.3a3.9,3.9,0,0,0-2.1.8c1.1,1.6,3,.1,3.9-.5s2.7,1.1,3,.8-3.4.8-3.3,1.3,6-.5,6.9-.9c2.9-1.2,3.7-.2,2.4-2.7.1.2-3.2-2.1-3.7-1.8s.9,2.4.6,2.9-3.8-1.6-4.5-1.8A7.3,7.3,0,0,0,113.8,138.9Z" transform="translate(-5.4 -29.6)"/><path class="cls-4" d="M133.6,151.3c2.1,1.6,4.6-4.4,3.3-4.5a1.1,1.1,0,0,0-.3,1.3c.2-.3-1.7-1-1.7-.9s2.7-1.2.7-2.6-1.3.9-1.3.9-4.5-.6-3,.8l1.6.3c1.8,1.5-3.2.7-2.6.6C128.8,147.5,133.1,151,133.6,151.3Z" transform="translate(-5.4 -29.6)"/><path class="cls-4" d="M103.6,150.3a12,12,0,0,1,1.7,2.1c1.3,0,2.6-1.9,3.3-2.4s4-2.4,5.7-3.8-7.7-2.9-8.8-2.6c-3.5,1.1-.4.3-1.6,2.3s-2.2,3.6-2,3.9A5.5,5.5,0,0,0,103.6,150.3Z" transform="translate(-5.4 -29.6)"/><path class="cls-4" d="M109.9,140.8a1.8,1.8,0,0,0,1.9-1.4C111.7,138.9,109.5,140.7,109.9,140.8Z" transform="translate(-5.4 -29.6)"/><path class="cls-4" d="M166.1,152.4a1.1,1.1,0,0,0,1-1.1c.2.8-4-1.4-4.4-1.5s-.3-1.2-1.9-1.6-2.6,1.3-2.5,1.4c-1.4-.5-.9,0-2.4,0s.8-6.4-4.3-3.3c-3.1,1.9-.5,2.8-.4,4.8,0,.3-2.3-.7-2.2-2.2s1.8-2.5,1.8-3.4-5.5,1.9-5.8,3.1,2,5,3,3.7c-.3.3-2.6-.3-2.6.3.4,3.4,12.5,1.3,12.8,2a2.1,2.1,0,0,1-.6-1c.1-.5,4.3,2.6,4.3,2.8a4.3,4.3,0,0,0-1.2,1.1c.8.7,1.7-.6,3,.7s1.4,1.2,1.8,3.6c.1.5,4.5-1,3.7,1.1s-2-.6-2.6-.4-2.1.3-2.9.5a6.6,6.6,0,0,0,.5,1.5c-1.2.6-3.2.1-4.2.9-3.5,3,3.8,1.2,4.7,1.5s7.1,7.7,8.7,5.5c.4-.5-2.7-3.8-3.3-3.6,2.4-.7,5.8,3.1,4.5-.8-.5-1.7-4.6-3-2.8-5.2s3.8,2.9,4.4,2.9l3-3.2c0-2.1-8.4-3.3-8.2-5.4l1.7-.4a2.7,2.7,0,0,0-1.4-.7c-.1-1.3,1.4-1.2-.8-1.2,1.6,0-2.2-1.7-2.3-1.8Z" transform="translate(-5.4 -29.6)"/><path class="cls-4" d="M93.3,187.8c-.9.5,1.3,3.2,1.8,2.8S94.8,186.9,93.3,187.8Z" transform="translate(-5.4 -29.6)"/><path class="cls-4" d="M128.5,141.9c.3-.4-.8-1.4-1.2-.6S128.1,142.4,128.5,141.9Z" transform="translate(-5.4 -29.6)"/><path class="cls-4" d="M157,173c.4,0,1.1-1.5.2-1.4S156.4,173.1,157,173Z" transform="translate(-5.4 -29.6)"/><path class="cls-4" d="M162.3,160.7c2.9-.6-2.8-2.6-1.8-1.8S158.8,161.3,162.3,160.7Z" transform="translate(-5.4 -29.6)"/><path class="cls-4" d="M152.4,171.7c.8.6,2.1-.9,2-1.4S151.3,171,152.4,171.7Z" transform="translate(-5.4 -29.6)"/><path class="cls-4" d="M142.2,142c.5,1.5,12.6,2.2,14,1.1,5.6-4-11.9-2-11.6-3.3a3.8,3.8,0,0,1,.9-.9c.5-.6-9.4-2.6-8.7-1.4C138.9,140.7,140.8,137.7,142.2,142Z" transform="translate(-5.4 -29.6)"/><path class="cls-4" d="M130,155c.3-.3,1.7.8,1.7,0s-4-3.5-4.3-4.4a18.1,18.1,0,0,1-.3-3.7c.5-.5.4-.9-.2-1.4a2.4,2.4,0,0,0-2.3.6,10,10,0,0,1,1.5,1.4c0-.3-2.7-1.2-2.9-.7s1.2,3.5.7,3.7-3.6-3.9-3.8-3a3.1,3.1,0,0,1,.9,1.1c0,.1-1.9.1-1.8.3-1.4-3.7-2.6.8-3.8-.4s2.1-1.9-.6-1.9c-1,0-3.7,1.5-4.1,2.4-1.5,3.7,2,1,3.5,2.1s-3.2.9-3.2,1.3c0,2,7.6-.2,7.6,1.5s-6.8,0-6.5,1.1c.6,3,9.3,2.4,11.1,2.2a13.5,13.5,0,0,1,2.8-.4c.6,0,5.4,1.7,4.8-.3s-1.5.5-1.9-.6Z" transform="translate(-5.4 -29.6)"/><path class="cls-4" d="M175.5,195c.1.4,3.2,1.8,3.3,1.2S175.4,194.6,175.5,195Z" transform="translate(-5.4 -29.6)"/><path class="cls-4" d="M144.9,135.2c-.9-.5-2.1.6-1.2,1S145.9,135.7,144.9,135.2Z" transform="translate(-5.4 -29.6)"/><path class="cls-4" d="M136.7,134.4c6.2,0-1.2-3.4-1.6-2.7S135.9,134.4,136.7,134.4Z" transform="translate(-5.4 -29.6)"/><path class="cls-4" d="M137.3,128.7s4.9,2.3,4.6,1.5-2.2,1-2.1,1.1c1.6,1.7,4,2.8,6.2,2.2.2,0,4.6-4,4.5-3.3s-3.3-3.1-3.5-3.2-6.7-3.6-7.3-3.1a1,1,0,0,0,.8.7c0,.3-1.7,0-1.8.3l.9.8c-.3.6-2.2-.3-2.1.9a3.8,3.8,0,0,0,1.4,1.1C139,128.3,135.4,127.7,137.3,128.7Z" transform="translate(-5.4 -29.6)"/><path class="cls-4" d="M155.7,145.6c-1.3,3.1,5.4,2.4,5.4,1.7S156.1,144.7,155.7,145.6Z" transform="translate(-5.4 -29.6)"/><path class="cls-4" d="M140.9,134.7c-.1-.3-4.1.2-3.5.7S141,135.1,140.9,134.7Z" transform="translate(-5.4 -29.6)"/><path class="cls-4" d="M116.5,134.7c.3-.7-1.7-.6-1.5-.4S116.3,135.4,116.5,134.7Z" transform="translate(-5.4 -29.6)"/><path class="cls-4" d="M139.8,141c-.9-.7-3.4,1-3,1.3S142.9,143.6,139.8,141Z" transform="translate(-5.4 -29.6)"/><path class="cls-4" d="M127.6,136.4c.4-.6-1.7-2.5-1.8-1.6S127.1,137,127.6,136.4Z" transform="translate(-5.4 -29.6)"/><path class="cls-4" d="M132.2,137.3c-1.2-.5.5,2,.3,1.9a3.7,3.7,0,0,0-2-.9c-.4.3.7,1.4.3,1.6s-1.9-2.4-2.7-2.4.6,2.3.7,2.4,2.5.2,3.9.6c-.2-.1,1.6,4.5,3.2.5S133.6,138,132.2,137.3Z" transform="translate(-5.4 -29.6)"/><path class="cls-4" d="M120.9,134.4c.9-.2-3.7-1.3-3.7.5S121,134.4,120.9,134.4Z" transform="translate(-5.4 -29.6)"/><path class="cls-4" d="M118.3,133.3c.5.2,3.5.1,3.5-.5,0-2.2-5,.3-4.9.4Z" transform="translate(-5.4 -29.6)"/><path class="cls-4" d="M134.4,128.8c.4-.7-2.2-1.3-1.6-.7S134.1,129.5,134.4,128.8Z" transform="translate(-5.4 -29.6)"/><path class="cls-4" d="M127.2,131.5a1.1,1.1,0,0,1,1.6.8c-.1.3-2,.2-1.9.3s10.1,4.2,5-.9a5.5,5.5,0,0,0-2.4-1.4C124.9,129.8,127.6,131.2,127.2,131.5Z" transform="translate(-5.4 -29.6)"/><path class="cls-4" d="M156.2,168.6c.1-.6-5.2-4.3-5.5-4.2s-2.9,3.3-2.6,4.4S156.2,168.3,156.2,168.6Z" transform="translate(-5.4 -29.6)"/><path class="cls-4" d="M143.7,123c1.9-1.4.3.5.3.5l1.2.2c-2.1,2.5,3.9,2.1,3.9,1.6.2,3.9,7.7-1.3,8.6-.6s-4.5,2.4-4.4,2.6,2,1.7,1.8,1.7-7.4-4.3-6.4-.4c.3,1,5.1,2.8,5.1,3.7s-6.1-1.8-6.2.8,3.3-.3,3.4-.2.5,3.8.5,2.8c0,1.1-4.7-2.9-4.5-.7l1.4,1.1c0,.4-4.1.7-3.2,1.7s13.6,1.5,14.2,0-4.7-1.1-4.9-1.5,4.7-2.1,5-2.3c1.9-1.1,2.8.5,3.8-2.6.3-.9-3.4-.9-3.4-.9,2.2-1.6,5.1-1,7.1-2s8.3-4.2,8.4-4.8-3.4-.1-3.6-.2c1.7.7,7.5-3.2,7.6-3.2s-7.2-2.4-7.3-.7a2,2,0,0,1,1.1-.9c-1.4.6-8,.2-8.9.2-3.1.2-6-.4-8.7.4-.5.1-13,4.2-13.2,3.8A1.2,1.2,0,0,0,143.7,123Z" transform="translate(-5.4 -29.6)"/><path class="cls-4" d="M186,192.5a6.2,6.2,0,0,0-2.6,2.9c-.1.3-2.4,2.6-1.5,3.2s4.1-1.9,4.3.9c0-.9,3.2.4,3.3.1s-.9-2.5-.5-2.3-4.2-3-4.2-2.5A5.1,5.1,0,0,1,186,192.5Z" transform="translate(-5.4 -29.6)"/><path class="cls-4" d="M52.1,188.8c.6-.3.9-.6.6-1S51.6,189,52.1,188.8Z" transform="translate(-5.4 -29.6)"/><path class="cls-4" d="M56.6,186.2c-.8-.3-1.5.9-1.6.9S57.3,186.5,56.6,186.2Z" transform="translate(-5.4 -29.6)"/><path class="cls-4" d="M69,179.8c-1.2,1.5-2.2,4.4.4,1.8C69.8,181.2,70.4,178.1,69,179.8Z" transform="translate(-5.4 -29.6)"/><path class="cls-4" d="M53.1,176c-.5-.3-.8-.2-1,.4a1.6,1.6,0,0,0,1.6.5C55.5,176.3,53.1,175.9,53.1,176Z" transform="translate(-5.4 -29.6)"/><path class="cls-4" d="M257.1,211.4c-.1-.7-1.3.2-1.1.4S257.1,212,257.1,211.4Z" transform="translate(-5.4 -29.6)"/><path class="cls-4" d="M283.9,217.9c0-.4-3.4.1-3.3.1S284,219.1,283.9,217.9Z" transform="translate(-5.4 -29.6)"/><path class="cls-4" d="M292.9,218.4a7.6,7.6,0,0,1,.8-1.1,13,13,0,0,0-2.7,1C290.6,219.2,293,219,292.9,218.4Z" transform="translate(-5.4 -29.6)"/><path class="cls-4" d="M234.8,167.5c3.8-.2.2-5.9-1.6-4.9s-3,1.7-3.5,1.6a.8.8,0,0,0-.8-.6c-2.4,2.7.1-.8-3.2-.8-.6,0,.4.9.2.9s-1.6-.3-1.8,1,2.7.4,2.6.3-.3,1-.2.9-2.2.1-2,.5,1.9.2,2.3.6-.7,1.5-.8,1.4C228.2,170.8,232.4,167.7,234.8,167.5Z" transform="translate(-5.4 -29.6)"/><path class="cls-4" d="M241.8,192c3.2,0,4-2.3,3.7-4.7-.1-.8,1.6-.9-.3-2a6.6,6.6,0,0,0-2.5.6c0,1.6.2.2-1.6,1.1C241,187.1,241,192,241.8,192Z" transform="translate(-5.4 -29.6)"/><path class="cls-4" d="M251.4,176.3c.3-.4.7-1.6.2-1.5S251.3,176.4,251.4,176.3Z" transform="translate(-5.4 -29.6)"/><path class="cls-4" d="M245.4,179.3c-.2-.3-1.1,1.2-.8,1.2S245.6,179.5,245.4,179.3Z" transform="translate(-5.4 -29.6)"/><path class="cls-4" d="M245.1,181c1.2-1,.1,3.9.1,3.3s1.5.4,1.3.4a1.4,1.4,0,0,0,.7-1c.5.1-.3,2.1-.3,2.2s2-.4,2.1-.2c1.3,2.2-1,3.1-.9,4.5a1.6,1.6,0,0,0-1.3,1.4,18.1,18.1,0,0,0,2.9.4c.1.3-4.1,1.2-3.1,2.6s7.6-1.7,8.1-2.1-.8-.2-.8-.5,1.4-.8.8-2.5a3.5,3.5,0,0,1-1.5-1.2c-.9-1.4-1.7-4.5-3.8-4.3a12.6,12.6,0,0,0,1.2-2.6c-.6-1.5-1.7.2-2.5-.8s1.7-1.6,1.1-2.2S245.2,181,245.1,181Z" transform="translate(-5.4 -29.6)"/><path class="cls-4" d="M266.7,185.8c-.2,0,3-.9,1.5-1.9S266.6,185.8,266.7,185.8Z" transform="translate(-5.4 -29.6)"/><path class="cls-4" d="M275.3,180.3c-.7.1-1,1.5-.8,1.7S276,180.3,275.3,180.3Z" transform="translate(-5.4 -29.6)"/><path class="cls-4" d="M279,179.9a5.7,5.7,0,0,0,1.3-.8C281.1,178.1,277.7,180,279,179.9Z" transform="translate(-5.4 -29.6)"/><path class="cls-4" d="M280,178.2c.2-.2-1-.1-.7.1A.4.4,0,0,0,280,178.2Z" transform="translate(-5.4 -29.6)"/><path class="cls-4" d="M274.8,127.9c1.1.9,3-.1,4.3.7a18.4,18.4,0,0,0-2.5.9c.6,1.6,9.3.8,8.7-1.7-.1-.3-5.7-1.1-5.5-1.1a1.1,1.1,0,0,0-.2,1.2c-.4.4-2.7-1.5-3.2-1.4a4.9,4.9,0,0,0-.8,1l-.9-.7C273.7,126.8,274.7,127.8,274.8,127.9Z" transform="translate(-5.4 -29.6)"/><path class="cls-4" d="M267.5,130.3c-1.8-.4,1,2.8,1.4,3s1.5-1.5,2.1-1.8-.3,1.1.3,1.1a5.2,5.2,0,0,1,1.3-.6c.5.8-3.8,2.4-3.2,2.5s2.2-.4,3.4-.1a18,18,0,0,0-3.3,1c-.1,1.1,1.9,1,2.3,1.2s-.3.4-.6.5,1.5.6,1.8.4,1.5-2.4,1.9-2.8,1.9-4.4,3-2.7c-.3-.5.4,3.5,0,3.5s4.5.7,4.3-1.1c.1.9-4.2-3.2-4.1-3.1s-3.3-1.3-4.2-1.5-.9-1.8-1.6-2,.2,3.5.3,3.2c.9-3.9-2.8-.8-2.7-.8l-1.1-1,1-.4C269.5,128.9,263,129.2,267.5,130.3Z" transform="translate(-5.4 -29.6)"/><path class="cls-4" d="M266.4,132.6l.9.7c-.4,0-.8-2.1-1.6-1.8A1,1,0,0,0,266.4,132.6Z" transform="translate(-5.4 -29.6)"/><path class="cls-4" d="M478.8,169.4a2.3,2.3,0,0,0-1.5.5c.3.3,3.7,1.1,3.7.3A3.3,3.3,0,0,0,478.8,169.4Z" transform="translate(-5.4 -29.6)"/><path class="cls-4" d="M420.6,205.8c-.2-1.2-2.8,3.9-1.5,3.1-.2.2,1.1-.7,1.1-.5l-.7-1c0,.3,7.6.2,7.2-3.1.2,1.8-6.3-1.1-5.6-1.7S420.6,205.6,420.6,205.8Z" transform="translate(-5.4 -29.6)"/><path class="cls-4" d="M406.6,222.1c.3.7.7-1.1.9-.2s-.5,2.9.4,2.7,2-2.8.9-3.2S405.6,220.2,406.6,222.1Z" transform="translate(-5.4 -29.6)"/><path class="cls-4" d="M410.7,221.8c.3-1.2,1.9.2,1.9-1.6s-1.9,0-2,.2S410.5,222.9,410.7,221.8Z" transform="translate(-5.4 -29.6)"/><path class="cls-4" d="M413.4,217.9s-5.9.2-5.4,2.3a33.2,33.2,0,0,0,5.2-.6c-1.1.3,1.1.8,1.3.8s.2-1.2.4-1.3,3.7.5,4.6-.8,2.5-8,1.2-8.8-2.5,4.4-3.3,5.5S413.5,216.1,413.4,217.9Z" transform="translate(-5.4 -29.6)"/><path class="cls-4" d="M383.3,241.9a7.7,7.7,0,0,0,.7-1.6c-.2-.5-3.2-.1-2.5,1.1S383.2,243.8,383.3,241.9Z" transform="translate(-5.4 -29.6)"/><path class="cls-4" d="M395.7,237.2c.6-.4,2-3.4,1.5-4.1S394.4,238.2,395.7,237.2Z" transform="translate(-5.4 -29.6)"/><path class="cls-4" d="M394.6,245.3c-.8,2.7,7.9,6.3,6.1,8.3,2.9-3.3-3.3-4.6-3.9-6.1s2.2-3.7,0-5S394.7,245.2,394.6,245.3Z" transform="translate(-5.4 -29.6)"/><path class="cls-4" d="M393.1,253.7a10.7,10.7,0,0,0-1.5,2.2c-.1-.3,3.1-2.3,2.5-3.6A1.8,1.8,0,0,0,393.1,253.7Z" transform="translate(-5.4 -29.6)"/><path class="cls-4" d="M395.3,249.2c.1.6.4,1.7,1.1,1.4S395.2,248.8,395.3,249.2Z" transform="translate(-5.4 -29.6)"/><path class="cls-4" d="M400.3,253.9c-.3-.4-1,.3-.9.6S400.6,254.3,400.3,253.9Z" transform="translate(-5.4 -29.6)"/><path class="cls-4" d="M401.4,254.5s-5.1,3.4-4.2,3.3,1.2-1.3,2.1-.7.3,2.7,2,2.7c-1.2,0,1.4-2.8,1.3-2.3A3,3,0,0,0,401.4,254.5Z" transform="translate(-5.4 -29.6)"/><path class="cls-4" d="M397.2,251.2a1.4,1.4,0,0,0,.1,1.8c2.2-.5-.8,1.7.9,2.1S399.8,250.6,397.2,251.2Z" transform="translate(-5.4 -29.6)"/><path class="cls-4" d="M432.8,273.4c0,1.6-3.9.6-4,1.1-.2,2.2,6.1.1,4.8-1.6A.6.6,0,0,0,432.8,273.4Z" transform="translate(-5.4 -29.6)"/><path class="cls-4" d="M434.4,273.3c1.1-.3-.8-1.7-1-1.7S434.1,273.4,434.4,273.3Z" transform="translate(-5.4 -29.6)"/><path class="cls-4" d="M427.6,276c1,.1-3-3.3-3.9-3.8s-6.1-3-8.1-2.9-1.4,1.9-2.2,1.7-.6-1.8-1.6-2.2-.9-1.4-2.6-1.2c-.2.1-1.8,1.3-1.2,1.4s3.4,1.8,3.4,1.3-1.9.2-2.1.2,3.3,2.2,3.5,2.3c1.8.9,3.1.7,4.2,2.6s-1.5,1.7-1.1,2.5,6.5.2,7.1.2,1.6,0,3.7,1c0,0,5.1,2.6,4.6,1.7S426.6,275.9,427.6,276Z" transform="translate(-5.4 -29.6)"/><path class="cls-4" d="M348.5,254.1c-.8.1-.8,4.6.1,5C351.1,260.1,350.5,253.9,348.5,254.1Z" transform="translate(-5.4 -29.6)"/><path class="cls-4" d="M311,282.7l-1.9,3.2c-.8.7-2.7,1.2-3.3,1.9s-.6,2.7-.9,5.4-2.4,9.9,2.8,7.3c3.1-1.5,2.4-10.1,3.6-13,.1-.4.9.8.9-.7S311.3,284.1,311,282.7Z" transform="translate(-5.4 -29.6)"/><path class="cls-4" d="M316.2,250.4c.4.4,1.1-.1,1.2-.3S315.7,249.9,316.2,250.4Z" transform="translate(-5.4 -29.6)"/><path class="cls-4" d="M442.5,279.6c.1.5.9.9,1.2.7S442.4,279,442.5,279.6Z" transform="translate(-5.4 -29.6)"/><path class="cls-4" d="M438.8,276c-.1.1.8,1,1,.9S438.8,275.7,438.8,276Z" transform="translate(-5.4 -29.6)"/><path class="cls-4" d="M442.7,278.3c.3-.2-1.6-1.3-1.6-1S442.4,278.5,442.7,278.3Z" transform="translate(-5.4 -29.6)"/><path class="cls-4" d="M436.5,274.4c-.1.3,1.1,2.2,1.5,1.9S436.6,274,436.5,274.4Z" transform="translate(-5.4 -29.6)"/><path class="cls-4" d="M443.8,278.3c-.3.6.7,1.7.9,1.7S444,277.8,443.8,278.3Z" transform="translate(-5.4 -29.6)"/><path class="cls-4" d="M444.7,280.8c0,.2.7.9,1.1.6S444.6,280.6,444.7,280.8Z" transform="translate(-5.4 -29.6)"/><path class="cls-4" d="M406.9,282.7c.2.2,1.6-.1,1.5-.4S406.5,282.3,406.9,282.7Z" transform="translate(-5.4 -29.6)"/><path class="cls-4" d="M434.9,305s-.6-3.8-.3-3.7c-2.2-1-5.5-5.7-7.2-8.2s-1.5-3.9-2.5-6.2-1.6-.3-1.9-1.1-.1-3.5-1.2-4.6-1.3,5.8-1.3,5.8c-1.2,3.4-.5,3.5-3.5,2.4-.9-.3-3.6-1.7-3.8-2.9s2.1-2.6,1.8-3.2-5.6-1.7-5.7-1.6a.7.7,0,0,0,.5.9c-1.6-1.9-4.2,4.7-3.5,4.6s-2.3-.4-1.6,0c-1.9-1.1-1.6-2.2-4-.5s-1,2.5-1.9,3.5-.4-1.3-.7-1.1-.3,2-1.4,2.9a22.4,22.4,0,0,1-3.7,2c-2.1,1-3.5,1.3-5.3,3a1.1,1.1,0,0,1-.1-.8c0,.4-.5,1.7-.6,2.4s.7,3.4.5,3.8a1.3,1.3,0,0,1-.7-.6,3.2,3.2,0,0,1,.3.9l-.8-.7c-.3.8,2.2,5.3,2.4,6.3s.1,5.4-.1,4.9c1.7,3.4,4,1.1,6.7.3l5.8-1.9c1.6-.7,5.1-1.9,6.9-1.6s6.6,4.5,5.4,5.1c.3-.2,2.6-3,2.7-2.9s-1.1,2.5-1.2,2.9,1.9-1.3,1.3-.8.4,1.9.3,1.7,2.6,3.5,2.9,3.7,5.2.1,5.2.1a1.1,1.1,0,0,1,0,.8c-.3-.4,1.3.6,1.6.9s4.5-2.3,4.3-2.2,1.3-5,1.9-6.3S434.5,305.4,434.9,305Z" transform="translate(-5.4 -29.6)"/><path class="cls-4" d="M414.4,316.6a1.1,1.1,0,0,0,1.4-.2C416,316,414.1,316.4,414.4,316.6Z" transform="translate(-5.4 -29.6)"/><path class="cls-4" d="M426.3,324.7a6.6,6.6,0,0,1-2-.6c.3-.1.1,5.4,3,3.9S429.4,324.3,426.3,324.7Z" transform="translate(-5.4 -29.6)"/><path class="cls-4" d="M451.9,334.4c.2.1.8-.1.5-.5S451.5,334.3,451.9,334.4Z" transform="translate(-5.4 -29.6)"/><path class="cls-4" d="M463.9,319.8c-.7,1.3-2.3-2-2.4-2a.6.6,0,0,0,0,.8c.1-.2-2.4-3.6-2.9-3.6s1.8,3.6,1.9,4.1-1.2,1.5-1.2,2.4,1.3,3.8,1.3,3.7C462.1,328,465.3,317.1,463.9,319.8Z" transform="translate(-5.4 -29.6)"/><path class="cls-4" d="M459.6,324.4c-1.5-1.1-10.4,6.9-7.8,8.7S460.9,325.5,459.6,324.4Z" transform="translate(-5.4 -29.6)"/><path class="cls-4" d="M465.4,289.8c.3.1,1.3-.3,1.3-.7S465,289.6,465.4,289.8Z" transform="translate(-5.4 -29.6)"/><path class="cls-4" d="M463.8,291.3c.5.5,1.4.5,1.4-.4S463.4,290.9,463.8,291.3Z" transform="translate(-5.4 -29.6)"/><path class="cls-4" d="M310.5,126.7a1.9,1.9,0,0,0-1.2.7c.5,1.1,5.1-1.1,5.1-1.4S310.7,126.3,310.5,126.7Z" transform="translate(-5.4 -29.6)"/><path class="cls-4" d="M317.1,127.3c0-.6-1.9.1-1.5.2S317.1,127.9,317.1,127.3Z" transform="translate(-5.4 -29.6)"/><path class="cls-4" d="M308.8,126.4a4.5,4.5,0,0,1,2-.4c.2-.7-4.1,0-4,.3A1.3,1.3,0,0,0,308.8,126.4Z" transform="translate(-5.4 -29.6)"/><path class="cls-4" d="M310.6,157.3c1,1,1.6-.5,2.2-.7S308.7,155.4,310.6,157.3Z" transform="translate(-5.4 -29.6)"/><path class="cls-4" d="M318.2,145.6a43.8,43.8,0,0,0-4.1,4.5c0,.1,2.1,1.8,1.9,1.9s-.1-.6.2-.8,5.2,4.4,5.4,1.9c0-.7-2.3-2.2-2.4-3.1s.9-2,1.3-2.8a15.7,15.7,0,0,1,2.4-3.2c1.6-1.4,12.9-6.2,12.4-6.7s-11.3,2.3-13,3.4S318.2,145.6,318.2,145.6Z" transform="translate(-5.4 -29.6)"/><path class="cls-4" d="M429.5,143.2a3.6,3.6,0,0,0,2.9-.6C432.6,139.9,420.9,142.6,429.5,143.2Z" transform="translate(-5.4 -29.6)"/><path class="cls-4" d="M420.5,144.5c0-.5-1.9.3-1.1.5S420.5,145.1,420.5,144.5Z" transform="translate(-5.4 -29.6)"/><path class="cls-4" d="M370.4,134.2c.7.4,7.1-.6,7.3-1.9s-3.7-1.6-3.6-.6C373.4,126.1,371.3,134.7,370.4,134.2Z" transform="translate(-5.4 -29.6)"/><path class="cls-4" d="M365,128.7a2.3,2.3,0,0,0-.8,1.2c1.7,1.7,6.1,3,6.4,0S365,128,365,128.7Z" transform="translate(-5.4 -29.6)"/><path class="cls-4" d="M363.1,127.6c1.1.6-1,.6-1.1.7s2.2.1,2.8-.1,4.3-1.3,3.6-2.2C365.6,122.5,362.5,127.4,363.1,127.6Z" transform="translate(-5.4 -29.6)"/><path class="cls-4" d="M385.7,143.8c-.8,1.8,1.4.6,1.4.3A.9.9,0,0,0,385.7,143.8Z" transform="translate(-5.4 -29.6)"/><path class="cls-4" d="M317.9,125.9c.6.6,4,.7,4.1-.4s-2.8-.9-3-.9S318.2,126.2,317.9,125.9Z" transform="translate(-5.4 -29.6)"/><path class="cls-4" d="M362.2,124.9c.1-.6-2.2-.3-1.6.2S362,125.5,362.2,124.9Z" transform="translate(-5.4 -29.6)"/><path class="cls-4" d="M467.7,152.9c.1.1,3.3-.1,2.6-.8s-4.5.7-4.3.8Z" transform="translate(-5.4 -29.6)"/><path class="cls-4" d="M415.9,142.1a5.3,5.3,0,0,0,3.9.8c.9-.2,3.4-1.6,2.4-1.9.5.1,1.8,3.1,2.5.8s-1.1-1.4-2.8-2h-3C419.3,139.6,413.2,140.7,415.9,142.1Z" transform="translate(-5.4 -29.6)"/><path class="cls-4" d="M423.3,147.1c1.9-.5-4.8-2.7-3.5-.6S422.7,147.2,423.3,147.1Z" transform="translate(-5.4 -29.6)"/><path class="cls-4" d="M476.8,165.1l1.4.3c.3,0-.5-.5-.4-.6s2.4-.7,1.7-.9-5.4-3.3-5.5-2.1c.1-1.3.6,2,.4,1.4-1-3.3-7.8-7-11.6-7.8-2.2-.5-5.8-.4-7.1.2s.9,1.6-.2,2.3-2.7-1.8-2.2-2,1.2.9,1.3-.2-4.4.3-5.1.4-2.8-.2-3.3-.2-.7,1.1-1.3,1.4-1.8-2.3-1.8-2.3c-2.1-1.7-1.8-2.1-5.7-2.4-1.2,0-7,0-7.6-1.7s1.8.1,1.3-.8-5.8.3-5.8.5l.9-.6-1.3-.5c-.4-.6,1.8,0,1.8-.3.4-2-9.6-.9-8.6.5a.8.8,0,0,0,.9,0c-.6-.3.1,2.4.1,1.6s-2.3-.3-2.7,0a1.8,1.8,0,0,0,.7.5l-6.8-1.3c-.5-.1-1.1,2.6-2.1,2.6s-2.5-3.5-3.2-3.5a3.1,3.1,0,0,0,1.3.3c1.8-1.1-4.5-4.8-5.8-4.5s-1.2,2.3-1.6,2.3-5.6-.1-5.7-.7.7-.7.3-.8c-2.6-.6-4.6.6-6.3.7s.1-1.5-.5-1.6-4.6,0-4.2.5l.7.2c.1.6-5.3,1.4-5.4,1.7,1.1-3,9.9-3.8,9.1-6.9-.2-.9.4-1.7-1.5-2.6s-4.4.7-6.5.1l.8-1.2c0,.3-3.1-.6-3.5-.4s2.2-.4,1.8-1.1-4.7.6-5.9,1.5c.6-.5-2.3,3.3-2.4,1.5l.8.7c.1-.4-3.3.4-3.5.3a1.6,1.6,0,0,1,.4-.7,15.9,15.9,0,0,0-3.9.7,1.2,1.2,0,0,0,.7.5c0-.4-5.7,1.6-6.1,1.7s-.7.6-1.3,1.4h-1c-.1.2,1.2.8,1.2.9h-.9c0,.1,1.4.9.8,1.5s-2.6.1-3.3.3c-8.8,1.8,0,2.4-1.7,4.8s-5.1-3-6.4-1.7,1.4,1.2,1.1,1.3-1.7-.8-2.2.2,3.1,1.9,2.9,2.2l-3.8-.8c-.8-.8,1.3-3.3-.3-3.8s-2.5,7.1-1.9,7.9,4.9,1.1,5.9,4.6c.6,1.9-3.2-2.6-1.5-1.9-1.2-.4-.8-1.4-2.3-1.2s-.1,1.6-.9,2.6-2.2,2.9-3.5,3.2-3.5-.1-3.3-.9,4.3-.4,5-2.8-.3-2.7-.7-4.4.2-5.7.2-5.7c-2.5-4.1-6.7.6-6.9,3.6.1-.9-.1,3-.3,2.5s4.6,2.9,1.9,3.4-9.4-6.3-11.6-5c.6-.3,4,5.9.7,4.6-1.3-.5,0-.7-3-.4.1,0-4.8.8-4.4.5s1-.6.9-1.4-6.2,2.6-7.1,3-1,2.8-3.2,1.3,1.1-1.5,1.4-1.8-4.2-2.6-4-1.8,1.2,3.9.3,3.2c2.4,1.7-.4,1.6-.6,1.7-2.8,2.2-2.8-.2-3.3,3.8-.1.7-2.3-.7-2.7-.4l-1.4-.9q-1.2.6-.3,1.5c1.3-.7,1.8,3-.6,1.1-.6-.5-3.8-7.5-5.1-6.9.9-.4,14.2,5.9,10.2-1.4-.8-1.4-9.1-4.9-9.8-4l.9-.3c-.1-1-2.2,0-2.4-.2s-1.9.7-2.3-.8c.1.3,2.2-.2,2.2-.5.5-2.4-3.8-.3-3.2-.3s.2-1.3.2-1.3c-.9-1.7-1.6,1.4-2.1,1.4s.1-1.5-.2-1.3l-1.7,1.9c-.6.1,1.2-2,1.2-2.1s-2.1,1-2.1,1-2.3,1.7-1.5,1.4c-1.1.4.3-2.5.5-2s-1.8.2-1.7.6a4.1,4.1,0,0,1,.5.9h-1.4a2.3,2.3,0,0,0,.7.7,4.4,4.4,0,0,1-1.6-.6c.1,0,.5,1.6,0,1.3s-.7-1.5-1.9-1-2.5,1.9-2.5,2.2,1.2-.3,1,.7h-2l.3-1.1s-3.3,3.2-3.5,3.2,3-2.3,4-1.4l-.2,1c-2.8,1.1-3.6,5.7-6.2,6.8-.2.1,1.1,1,.6,1.1s-1.4,1.2-2.7,2.2-.9-1.1-1-.4-.8.4-1.6,1.5a1.8,1.8,0,0,0,.7.5c-.8-1.7-2.8,2.8-2.8,2.5-.4,2.7,1.4,1.8,1.5,2.3s-1.6.7-1.5.6a5.9,5.9,0,0,0-.2,1.3c0,.5,1.1-.6,1.3,0s-.7.7-.8.9c-1.4,2.1,4.7.5,3.9.6,1-.2,1.5-1.7,2.1-2.1s2.9,8,3.2,8.1,3.8-3.3,4.2-3.4-.4.5-.6.3c.2-2.2,2.8-3.9,2.8-5.6s-2.5-1.2-1.7-4.4,1.9-2,2.9-3.3,2-4.2,3.4-4.7c6.7-2.2-1.5,5.6-1.7,6s-.2,4.7.3,5.2,5.4.5,7.4-.1l.6-.8-.6.8a4.4,4.4,0,0,1,2.3.9c.4.5-5.7,1.2-5.4,1.1-4,1.9-.2,1.8-1.2,2.9s-1.4.5-1.9.9-3.1.3-2,2.5-1,3-2.4,3.5l-4.2.4c-1.9.2-.9.5-1.8-.8s-2.6,1.5-3,1.2a1.4,1.4,0,0,1,0-.9c-.5-.1-2.1,0-1.9-1.3s1.4.7,1.5.1-.7-.4-1-.9,1.5-3,.6-3.9-1.5,1.5-1.5,1.5-1.2-.5-1.3,2c0,.9,1.6,2.7,1.2,3.5s-3.7,1.2-4.3,1.6a31.9,31.9,0,0,0-3.2,3.2,15.2,15.2,0,0,1-2.2,2.2c-1,.4-3,.2-3.3.4s.7,1.4,0,1.9-2.5-1.1-2.9-.3.6.6,1.6,2.2,3.7,5,.4,6.7c-1.6.8-5.3-1.3-6.6-.6s-.5,1.2-1,3.4c-1,4.4-.9,6.3,2.7,7.4s5.3.3,7.4-2.5,2.7-6.2,5.3-7.8c-.6.4,5.3-.7,4.9-.7,2.5.1.9-.2,3.1,1.5-.1-.1,8.4,7.7,6,7.7,1.4,0,.9-3.4,1-3.5a1.9,1.9,0,0,1,1.6.5c-.9-.3-9.4-9.3-5.3-9.1.6,0,5,5,6.4,5.8v0c-1.4-.8,3.7,7.7,3.7,5.7s-2.3,4.4.7,2.7a6.9,6.9,0,0,0-.2-1.3h.8c.5-.5-.9-.5-.6-.8s1.7.6,1.5-.6-1,.1-1.5-.5-.2-2.8-.5-2.7a4,4,0,0,0,1.5.3c.8-.4,5-.3,6.1-1.4s-1.7-2.2-1.7-2.7a19.7,19.7,0,0,1,2.1-3.2c.5-.7.7-2.3,1.7-2.8s3.5-.2,3.6.7a6.2,6.2,0,0,1-1.6,1c0-.3,1.3,1.6,1.3,1.6s3.7-1,3.7-1.1-3.3-.1-1.6-2c.4-.4,4.4-1.9,4.6-1.3s-2.8,2.9-2.7,3.4,5.9,2.7,5.7,4.7-3.4,1.7-5.2,1.6-1.4-.8-2.2-.9c-2.5-.2-4,.4-6.4,1.1s-6.4,2.4-2.9,6c1.7,1.7,3.3,1,5.2,1s4.4-.8,4.9-.5-1.1,4.8-1.3,5.3l.6.3h0a.8.8,0,0,1-.1.4.8.8,0,0,0,.1-.4l-.6-.3c-1.9,4.4-5.4,3.5-10.1,2.6-1.2-.2-2.2-.8-3.4-1s-1-1.9-3.6-.5c-.9.5-.6,2.2-.7,2.3s-8.3-1.7-10-3.5,1.2-3.3-.1-5.2-6.3-.1-7.9.1a32.9,32.9,0,0,0-5.6,1.5c-1.9.5-3.5.4-5.3.8s-.9-.2-2.2.5c1.4-.7-3,3.3-2.5,2.4l-1.8,3.4c-.5.8-.4,1.9-1.2,3.1s-1.5.9-2.1,1.5a19.6,19.6,0,0,0-3.9,6.3c-1,2.6-.4,3-.5,5.3s-.8,4.4-.7,6.5,1.1,3.2,2.2,5c2.6,4.1,5.6,7.9,10.4,8.4a24.1,24.1,0,0,0,7.6-1.1c.3-.1,3.5-1.9,3.9-1.5a14.3,14.3,0,0,0,2.7,1.5c.4.2.3,1.3.8,1.5s1.2-.6,1.7-.3c2.5,1.6,1.5.2,2.9,3.2.2.6-.6,2.7-.5,3.1,0,2.6,1,3,2.6,5.7s2.9,6.6,2.5,9.1-2.3,5.1-2.5,8.1,2.7,6.7,3.1,8.8c.8,3.8,2,6,3.2,9.6s.3,5.9,5.7,5.2,8.2-2.3,10.9-7.5a24,24,0,0,0,.9-4.1c1.9-2.7,3-1.3,3.5-4.8s-1.2-2.4.2-4.8,4.1-2.3,5.2-4c2.4-3.6-.1-7.6-.8-11.2s1.3-6.7,4-9.6c1.1-1.2,14.3-15.1,10.2-16.7s-6,3-9.2,1h0a28.9,28.9,0,0,0-2.5-4.5c-1.5-1.8-3.6-3.6-4.5-6s-5.7-15.8-5.9-15.7,1.2,3.4,2,3.4a7.1,7.1,0,0,0,.8-1.8c.8.4,3.3,6.1,3.8,7.2,1.5,3,3.4,5.7,4.8,8.8.7,1.5.5,4.7,1.5,5.8s4.3,0,6.4-.9,7.9-3.7,10.4-6.3c.2-.3,3.2-3.8,3.1-4.5s-4.6-5.9-4.1-5.9c-1.1-.1-2.6,3.4-4.8,3.2s0-2.5-1.1-2.8-.9,1.3-.9,1.3-3.7-6.4-2.3-7.2,5.8,4.2,7.5,5a22.8,22.8,0,0,0,2.6.2c.2.1.9,1.1,1.6,1.3s4.2.4,6.3.4a8.7,8.7,0,0,1,4.4.9c-.3-.1,3.8,3.8,3.8,2.7a2.5,2.5,0,0,1-1.6.6c-.9,4.4,5.2.8,4.1.3,1,.4,5.8,30.8,9.2,13,.9-5,2.6-5.9,6.3-9.7.7-.7,5.2-4.8,6.3-4.2s2.1,8,3.3,9.1c2.7,2.2,2.1-4.9,3.9,2.8.6,2.5-.1,5.5.5,7.7s4.8,10.4,6.9,9.3-2.6-6.3-3.3-7.3-4.8-7.6-1.3-8.8c1-.3,3.3,2.7,3.7,3.2s1.9,3.2,1.8,3.1,2.6-2.2,2.8-2.3c3.7-3.5,2.3-4.4.1-8.5-1-2-3.1-4.9.5-6.3s1.6.2,2.8,1.4,9.7-5.2,10.7-6.4,3.6-7.3,3.9-7.2-1.3,0-1.6-.2,1.9-2.5-.5-2.5c0,0,2-.2,1.7.2s-3-4.6-3-4.8c.3-2,2.7-2,3.9-2.9s-5-1-3.5-.3l-2.4-2.2c0-.5,4.8-3.8,5.3-3.3s-1.2,3.1-.9,3.1c3.8.2,1.7-2.3,4.8-.3-1.4-.9.5,2.4.2,1.8s1.4.3,1.7,1.1-1.1,2.8-.4,3.8,3.5-1.3,3.6-1.4c1.1-1.7-1-3.1-1.3-4.6-.4-3.2-.8-.1.4-2.9a14.5,14.5,0,0,1,3-4h0c1.5-1.2,1.7.5,3.3-.2s2.8-2.6,3.8-3.8a21.5,21.5,0,0,0,4.2-8.4c.4-1.8,1.5-3.9.6-5.4s-2.3-.3-4-.2c-.2.1-.1-1.4,0-1.5l-1,.9c1.2-.2-1.8-2.4-1.9-1.7.1-1.1,3.3-3.2,4.1-3.9,2.6-2.5,3.9-4.3,7.5-4.8.9-.2,8.8,0,8.5.5l-.9.3c-.4.3,5-.4,4.7-.7-1.7-1.9,4.1-6.4,6.3-4.9-.3-.2-.2,2.3-.3,2.2s6.2-4.7,6.1-3.5-5.2,6-6.9,7.5-3.3,1.6-4.3,4.7-.4,8,1,9.6c-.2-.3,7.8-9.5,7.9-9.6s-.2-3.4,0-2.8c-.4-1.4-1.9-1.1.2-3.6a12.4,12.4,0,0,1,3.1-1.8,1.1,1.1,0,0,1,.3,1.1c-.5-1.9,5.1-.1,5-.1s2.4-2.2,3.6-2.8,5.6-1.8,6-2.2c3-2.8-1.7-2.7-2.3-4.8.2.8,4.3-.8,4.8-1.1s-.3-1.4,1.2-2.2c-.8.5,6.1,5.5,7.4,4.2a1.2,1.2,0,0,0-.5-.7C475.9,166.9,477,165.2,476.8,165.1Z" transform="translate(-5.4 -29.6)"/><path class="cls-4" d="M327.6,126.1c1.1-1.5-4.7-.7-3.3.5S327.2,126.8,327.6,126.1Z" transform="translate(-5.4 -29.6)"/><path class="cls-4" d="M321.6,126.8a5.2,5.2,0,0,1-1.6.6c-.7.8,3.6.7,3.9-.2S321.6,126.7,321.6,126.8Z" transform="translate(-5.4 -29.6)"/><path class="cls-4" d="M321.4,124.7a7.9,7.9,0,0,0,2.2-.8c-.4-.6-3.6.6-3.7.4A1.6,1.6,0,0,0,321.4,124.7Z" transform="translate(-5.4 -29.6)"/><path class="cls-4" d="M421.7,192.8c.7,1.9-1.5,7.2-.3,8.7-.8-1,1.8.1,1.8.1a29.9,29.9,0,0,1-1-3.2c.9-2.1,1.9-1.1,2.2-1.5s-2.8-9.2-2.3-9.5C420.8,188.3,421.3,191.8,421.7,192.8Z" transform="translate(-5.4 -29.6)"/><path class="cls-4" d="M337,147.4a3.2,3.2,0,0,0,1.9-.5C339.6,145.5,335.4,147.1,337,147.4Z" transform="translate(-5.4 -29.6)"/><path class="cls-4" d="M348.2,147.6c0-.7-1.3.1-.9.4S348.3,148.2,348.2,147.6Z" transform="translate(-5.4 -29.6)"/><path class="cls-4" d="M330.2,125.9l1.1-.6c.3-1.1-3.2.3-3.1.5A2.8,2.8,0,0,0,330.2,125.9Z" transform="translate(-5.4 -29.6)"/><path class="cls-4" d="M447.8,294.5c.1.4,3.1,2.9,3.5,2.6S447.7,294,447.8,294.5Z" transform="translate(-5.4 -29.6)"/><path class="cls-4" d="M159.2,233c-.7-1.3.1,2.5.4,1.8S159,232.7,159.2,233Z" transform="translate(-5.4 -29.6)"/><path class="cls-4" d="M178.7,253.5c.9.2,1.1-.1.8-.9S178.4,253.2,178.7,253.5Z" transform="translate(-5.4 -29.6)"/><path class="cls-4" d="M380.6,270.8c0-.4-.9-.2-.6.3S380.6,271.1,380.6,270.8Z" transform="translate(-5.4 -29.6)"/><path class="cls-4" d="M387.9,278.2a2.3,2.3,0,0,0,1.4.1c.6-.5-3.4-1.2-3.3-1.2a1,1,0,0,1,1.2-.9c-1,.7-10.2-2.3-9.6-.2S387.5,278.9,387.9,278.2Z" transform="translate(-5.4 -29.6)"/><path class="cls-4" d="M398.8,278.3c.9,0,1-.1.3-.4s-4.8.4-4.7.6S398,278.3,398.8,278.3Z" transform="translate(-5.4 -29.6)"/><path class="cls-4" d="M391.7,277.8c-.4.9-1.2-.3-1.6.3s3,1.1,3.3.3S391.8,277.4,391.7,277.8Z" transform="translate(-5.4 -29.6)"/><path class="cls-4" d="M381.3,266.1c2.7,2.8,1.4,5.1,5.8,5.3s3.8-2.7,6.2-5.6c-.2.1-1.6-3.2-1.6-3.5s1.8-1.2,2.1-2.2-3.4-1.6-3.6-1.5-.6,2.3-2.6,2.2c-.1,0-3.6,4-3.6,4S379.4,264.2,381.3,266.1Z" transform="translate(-5.4 -29.6)"/><path class="cls-4" d="M367.4,265.1c-.1.4.3,1.5.7,1S367.4,264.7,367.4,265.1Z" transform="translate(-5.4 -29.6)"/><path class="cls-4" d="M369.1,268.4c-.1.2.3,1,.6.8S369.3,267.8,369.1,268.4Z" transform="translate(-5.4 -29.6)"/><path class="cls-4" d="M377.9,272.7c-.1-1.6.8-1.2.8-2.2s-1.5-1.9-1.5-1a3.1,3.1,0,0,1,.7.9c-.3.8-3.9-4.7-4.1-5s-8.1-6.5-8.5-5.8,5.6,9,6.4,10.1S378.2,277.9,377.9,272.7Z" transform="translate(-5.4 -29.6)"/><path class="cls-4" d="M395.6,280.4c0-1.1-2.1-.5-2.2-.7S395.6,281.3,395.6,280.4Z" transform="translate(-5.4 -29.6)"/><path class="cls-4" d="M393.3,270.4c-.2.3,2.2,3.8,1.2,4.2.9-.4.1-4.3,1-3.8s-.2,3.3,2.1,1.4c-1.2,1,.1-6.4,1.1-4.3.1.3-5.3,1.7-4-.5s4.8.4,6.1-2.3c-.8,1.6-4-.4-5.1.4S394.2,268.8,393.3,270.4Z" transform="translate(-5.4 -29.6)"/><path class="cls-4" d="M404.4,271.3l3.1.8C408.8,272.1,403.7,269.2,404.4,271.3Z" transform="translate(-5.4 -29.6)"/><path class="cls-4" d="M404.5,265.2c0-2.6-2.1,2.8-.1,2.4S404.5,265.2,404.5,265.2Z" transform="translate(-5.4 -29.6)"/><path class="cls-4" d="M400.6,279.7c.6-.8,2.6-.9,2.9-1.7s-3.1,1-3.5,1.1-1.8,1-.9,1.5A1.8,1.8,0,0,0,400.6,279.7Z" transform="translate(-5.4 -29.6)"/><path class="cls-4" d="M401.9,271.4c.2.6,1.2.9,1.5.4S401.8,270.6,401.9,271.4Z" transform="translate(-5.4 -29.6)"/><path class="cls-4" d="M262.8,209.6c-.3.6.4,4.1,1.8,2.4S263.7,208,262.8,209.6Z" transform="translate(-5.4 -29.6)"/><path class="cls-4" d="M270.5,213.8c.3-.1-2.7-.3-2.4.5a7.8,7.8,0,0,0,2.6,1.7,14.5,14.5,0,0,1,.8-2.1A.8.8,0,0,0,270.5,213.8Z" transform="translate(-5.4 -29.6)"/><path class="cls-5" d="M288.2,169.1a5.5,5.5,0,0,0-5.5,5.5c0,2.8,5.1,9.3,5.1,9.3h.4s5.5-6.2,5.5-9.3A5.5,5.5,0,0,0,288.2,169.1Zm0,8.3a2.8,2.8,0,1,1,2.7-2.8A2.8,2.8,0,0,1,288.2,177.4Z" transform="translate(-5.4 -29.6)"/><path class="cls-5" d="M284,199.7a4.8,4.8,0,0,0-4.7,4.8c0,2.4,4.4,8,4.4,8h.3s4.8-5.4,4.8-8A4.8,4.8,0,0,0,284,199.7Zm0,7.1a2.3,2.3,0,1,1,2.4-2.3A2.3,2.3,0,0,1,284,206.8Z" transform="translate(-5.4 -29.6)"/><path class="cls-5" d="M318,183.8a11.9,11.9,0,0,0-11.9,11.9c0,6,11,20,11,20h.9s11.9-13.4,11.9-20A11.9,11.9,0,0,0,318,183.8Zm0,17.8a5.9,5.9,0,1,1,5.8-5.9A5.8,5.8,0,0,1,318,201.6Z" transform="translate(-5.4 -29.6)"/><path class="cls-5" d="M172.3,279a5.2,5.2,0,0,0-5.2,5.2c0,2.7,4.8,8.8,4.8,8.8h.4s5.3-5.9,5.3-8.8A5.2,5.2,0,0,0,172.3,279Zm0,7.8a2.6,2.6,0,0,1,0-5.1,2.6,2.6,0,1,1,0,5.1Z" transform="translate(-5.4 -29.6)"/><path class="cls-5" d="M385.2,206.5a7,7,0,0,0-7,7c0,3.5,6.5,11.7,6.5,11.7h.5s7-7.8,7-11.7A7,7,0,0,0,385.2,206.5Zm0,10.4a3.4,3.4,0,1,1,3.4-3.4A3.4,3.4,0,0,1,385.2,216.9Z" transform="translate(-5.4 -29.6)"/><path class="cls-5" d="M418.1,277.8a7,7,0,0,0-7,7c0,3.5,6.4,11.7,6.4,11.7h.6s7-7.8,7-11.7A7,7,0,0,0,418.1,277.8Zm0,10.4a3.4,3.4,0,1,1,3.4-3.4A3.4,3.4,0,0,1,418.1,288.2Z" transform="translate(-5.4 -29.6)"/><path class="cls-5" d="M139.2,196a7,7,0,0,0-7,7c0,3.5,6.5,11.7,6.5,11.7h.5s7-7.8,7-11.7A7,7,0,0,0,139.2,196Zm0,10.4a3.4,3.4,0,1,1,3.4-3.4A3.4,3.4,0,0,1,139.2,206.4Z" transform="translate(-5.4 -29.6)"/><path class="cls-5" d="M269.1,153.6a7.1,7.1,0,0,0-7,7c0,3.5,6.5,11.8,6.5,11.8h.5s7-7.9,7-11.8A7,7,0,0,0,269.1,153.6Zm0,10.4a3.4,3.4,0,0,1,0-6.8,3.4,3.4,0,1,1,0,6.8Z" transform="translate(-5.4 -29.6)"/><path class="cls-5" d="M89.8,149.3a7,7,0,0,0-7,7c0,3.5,6.4,11.7,6.4,11.7h.6s7-7.8,7-11.7A7,7,0,0,0,89.8,149.3Zm0,10.4a3.4,3.4,0,1,1,3.4-3.4A3.5,3.5,0,0,1,89.8,159.7Z" transform="translate(-5.4 -29.6)"/><path class="cls-6" d="M115,228a202.6,202.6,0,0,1,47.8-62.2,170.7,170.7,0,0,1,66.8-35.9,158,158,0,0,1,80.5-.5,168.1,168.1,0,0,1,67.6,35.4,197.8,197.8,0,0,1,48.2,61.7c1.7,3.3,3.3,6.7,4.9,10.2" transform="translate(-5.4 -29.6)"/></g><g id="Floor"><line class="cls-7" x1="4.5" y1="379.2" x2="458.7" y2="379.2"/></g><g id="Layer_10" data-name="Layer 10"><path class="cls-8" d="M125.1,316.9s-3.9,32.4-4.7,41.4-3.9,42.5-3.9,42.5l-4.5.4s-2.4-15.1-2.4-21.7-2.4-19-2.3-23.5-2.8-28.8-2.4-42.3S125.1,316.9,125.1,316.9Z" transform="translate(-5.4 -29.6)"/><path class="cls-9" d="M113,316.9s-4.3,32.4-5.1,41.4-4.2,42.5-4.2,42.5l-4.9.4s-2.6-15.1-2.6-21.7-2.6-19-2.4-23.5-3-28.8-2.6-42.3S113,316.9,113,316.9Z" transform="translate(-5.4 -29.6)"/><path class="cls-10" d="M117.1,400.8s4.8,3.3,6.8,4.3,5.6,1.7,5.6,2.4-1.6,1-1.6,1H111.1a21.3,21.3,0,0,1,.4-4.1c.4-1.5.8-3.2.8-3.2Z" transform="translate(-5.4 -29.6)"/><path class="cls-10" d="M98,402.6s-2.2,4.8-1,5.6,13.2.5,16.4.3,7-1.4,6.7-2.3-11.2-2.2-12.7-3-5.3-3.4-5.3-3.4Z" transform="translate(-5.4 -29.6)"/><path class="cls-11" d="M98.2,402.3l4.7,1.1.9-2.5-.7-.8-4,1.1Z" transform="translate(-5.4 -29.6)"/><path class="cls-11" d="M112,402.3c1.8.5,4.6,1,4.6,1l.9-2.5-.7-.8-3.8,1.1A10.6,10.6,0,0,0,112,402.3Z" transform="translate(-5.4 -29.6)"/><path class="cls-12" d="M109.4,342.2" transform="translate(-5.4 -29.6)"/><path class="cls-12" d="M99.9,332.4" transform="translate(-5.4 -29.6)"/><path class="cls-11" d="M135.2,317.1s3.5,4.4,4.3,6.3,1.8,6,.6,5.9-1.6-3.5-1.6-3.5.3,3.3-.3,4.1-1.1-3.4-1.1-3.4-.4,3.7-.9,3.1-.9-4.2-.9-4.2-1.1,4-1.5,3-.1-3.4-.1-3.4a37.2,37.2,0,0,1-2.4-5.1c-.8-2.1-.6-2.8-.6-2.8Z" transform="translate(-5.4 -29.6)"/><path class="cls-10" d="M127.1,288.7s3.3,8.6,4.3,12.9,4.7,15.3,4.7,15.3l-5.5,1.6s-5-8.8-7-13.3a48.9,48.9,0,0,1-2.9-7.6Z" transform="translate(-5.4 -29.6)"/><path class="cls-5" d="M124.5,320.3l-.9,9.8s-6.8-2.3-8-3.1-1.1-6.5.2-13,9.3-25.4,9.3-25.4Z" transform="translate(-5.4 -29.6)"/><path class="cls-11" d="M116.1,262.2a3.1,3.1,0,0,1,1.7,1.3,86.8,86.8,0,0,1,5.1,10.1c2.4,6.4-.6,54-3.3,51.2,0,0-2.6,3.7-3.9,3.6h-.6a4.7,4.7,0,0,1-1.5-.6,28,28,0,0,0-7.1-4.1c-4.2-1.8-9.8-7.8-10.8-8.9l-.3-.3-1-.7a3,3,0,0,1-1-2.6c1.2-7.3,6.1-36.9,6.4-41.4s5.6-7.3,8.8-8.1S114.3,261.7,116.1,262.2Z" transform="translate(-5.4 -29.6)"/><path class="cls-10" d="M116.9,265.2s3.6,6,3.9,11.7a58.2,58.2,0,0,0,1.3,9.1s1.6,23.6,2.7,27.5,2.5,9.8,2.5,9.8-.7-24.4-.1-29.6-5.2-26.9-7.3-29.2a20.3,20.3,0,0,0-5.4-3.6Z" transform="translate(-5.4 -29.6)"/><path class="cls-11" d="M78.5,334.4s-.9,5.2-1,6-2.4,2.6-2.7,4.5-.1,2.8-.9,2.4a2.8,2.8,0,0,1-1.1-2.2s-6.1-2-6.4-2.9,8.2-7.7,8.2-7.7Z" transform="translate(-5.4 -29.6)"/><path class="cls-11" d="M117.3,259.4s-.9,7.2-.9,10.2a34.2,34.2,0,0,1-.1,3.6s-5.3-5.2-6.3-7.1-2.3-4.8-2.3-4.8l1.6-7.1Z" transform="translate(-5.4 -29.6)"/><path class="cls-13" d="M121.9,235s3.9,2.2,3.7,8.6c0,2.6-1.6,7.2-2.7,10.6l-.3,1.1a18.9,18.9,0,0,0-.6,2.1,4.5,4.5,0,0,1-5.5,3c-2.2-.6-7.7-5.6-8.9-6.5s-2.6-4.6-2.3-9.9S112.7,231.1,121.9,235Z" transform="translate(-5.4 -29.6)"/><path class="cls-10" d="M106.7,261.4s2,10,4.3,15.5,1.7,22.9-1.9,32-7.6,20.4-7.6,20.4l-11.4-9.7s4.7-17.4,4.5-21.8-1.5-33.2.4-33.6S97.2,263.5,106.7,261.4Z" transform="translate(-5.4 -29.6)"/><path class="cls-10" d="M98.9,263.2s-9.7.7-9.8,2-5.7,31-6.6,32.7S78.2,305,77.7,309s-3.8,24.8-3.8,24.8l6,.2s9.4-22.3,10.1-26.1,12.5-35.1,12-37.2a11,11,0,0,0-1.2-3.5" transform="translate(-5.4 -29.6)"/><path class="cls-5" d="M28.9,405.5a2.9,2.9,0,1,0-2.9,2.8A2.9,2.9,0,0,0,28.9,405.5Z" transform="translate(-5.4 -29.6)"/><line class="cls-14" x1="61.9" y1="319" x2="23.1" y2="371.2"/><line class="cls-15" x1="67.4" y1="310.8" x2="60.6" y2="320.2"/><path class="cls-5" d="M25,400.2l-10-6.7a4,4,0,0,1-1.1-5.8l20.2-27.8a4.5,4.5,0,0,1,6.1-1l10.1,6.6a4.1,4.1,0,0,1,1.1,5.8L31.2,399.1A4.7,4.7,0,0,1,25,400.2Z" transform="translate(-5.4 -29.6)"/><path class="cls-5" d="M8.6,386.9l5.9,3.8L34,363.9l-7.2-4.7a4.8,4.8,0,0,0-6.5,1.1L7.1,378.5A5.9,5.9,0,0,0,8.6,386.9Z" transform="translate(-5.4 -29.6)"/><path class="cls-10" d="M10.4,388l5.8,3.9,19.5-26.8-7.2-4.8a4.8,4.8,0,0,0-6.4,1.2L8.8,379.7A5.7,5.7,0,0,0,10.4,388Z" transform="translate(-5.4 -29.6)"/><path class="cls-8" d="M28,360l-8.8,11.4a.9.9,0,0,0,.2,1.3l2.2,1.5a.9.9,0,0,0,1.3-.2l8.9-11.5Z" transform="translate(-5.4 -29.6)"/><path class="cls-10" d="M27,401.5l-10-6.6a4.1,4.1,0,0,1-1.1-5.9l20.2-27.7a4.5,4.5,0,0,1,6.1-1.1l10.1,6.6a4.1,4.1,0,0,1,1.1,5.9L33.2,400.4A4.7,4.7,0,0,1,27,401.5Z" transform="translate(-5.4 -29.6)"/><polygon class="cls-11" points="22.8 369.8 20.7 375.5 21.8 376 25.7 371.6 22.8 369.8"/><path class="cls-8" d="M45.4,362.3l-9.8,12.5a.9.9,0,0,0,.2,1.4l2,1.5a1.2,1.2,0,0,0,1.5-.2l9.9-12.7Z" transform="translate(-5.4 -29.6)"/><path class="cls-5" d="M27.6,396.2l-6.3-4.3a3.6,3.6,0,0,1-.9-5.1l4.9-6.5a4.1,4.1,0,0,1,5.4-.9l6.3,4.3a3.7,3.7,0,0,1,.9,5.2L33,395.4A4,4,0,0,1,27.6,396.2Z" transform="translate(-5.4 -29.6)"/><path class="cls-10" d="M28.5,397.1l-6.3-4.3a3.5,3.5,0,0,1-.8-5.1l4.9-6.5a4,4,0,0,1,5.4-.8l6.2,4.3a3.4,3.4,0,0,1,.9,5.1l-4.9,6.5A4,4,0,0,1,28.5,397.1Z" transform="translate(-5.4 -29.6)"/><path class="cls-11" d="M70.5,343.5c.4-1.2,4.3-6,2.7-4.9" transform="translate(-5.4 -29.6)"/><path class="cls-13" d="M52.8,235.3" transform="translate(-5.4 -29.6)"/><path class="cls-16" d="M80.5,249.9" transform="translate(-5.4 -29.6)"/><path class="cls-5" d="M127.4,233.3a17.6,17.6,0,0,0-11.5-2.2h-.4l-5.1,1.6a11.3,11.3,0,0,0-4.5,4.7,50.8,50.8,0,0,0-1.5,5.9c.1.4.1.8.2,1.2,1.1,3.7,1.3,7.3,2.1,7.8l2.1,1.3v-1.8s-2.7-7.2,0-8.9,3.7-4.4,6.8-4.5,7.7.5,9.7,0l1.6-.6C129.3,235.9,129.5,235.1,127.4,233.3Z" transform="translate(-5.4 -29.6)"/></g><g id="Layer_9" data-name="Layer 9"><path class="cls-5" d="M423.2,242.6a20.2,20.2,0,0,0-7.6,8.5c-2.6,5.6-1.1,9.3,1.8,11.7s5.9,7.2,6.2,8.6-1,3.6-1,3.6,5.9,3,10.6,1.3,6.3-10.3,4.8-13.7-10.8-10.6-11.8-15.2-.5-5.6-.5-5.6Z" transform="translate(-5.4 -29.6)"/><path class="cls-17" d="M432,274.5l-7,1.4s-3.3,1-5.8,7.2-3.8,18.2-3.8,18.2l-1.4-2-3,3.5s4.9,10.2,7.1,10.5,6.2-6.5,6.2-6.5a74,74,0,0,1-2.3,10.6,67.8,67.8,0,0,0-3.6,21.4c0,11.2,6.3,26.2,7.9,31.8s1.4,10.3,2.7,15.9a126.9,126.9,0,0,1,2,15.2,47.7,47.7,0,0,1-4.2,4.3c-1.6,1.4,8.2,1,9.1.4s1.1-2.9,1.1-4.4-.1-24.2-.1-24.2,11.8,19.2,10.9,21.5,3.1-3.3,3.1-3.3-1.7-14.1-3-19.4a79.4,79.4,0,0,0-3.6-11.2s9.8-18.6,10.8-30.1-4.6-26.8-4.6-26.8,5-12.9,5.2-21.4-2.7-10.1-6-11.6a16.4,16.4,0,0,0-5.4-1.6l-7.3-.7Z" transform="translate(-5.4 -29.6)"/><g class="cls-18"><path class="cls-19" d="M450.5,280.6a20.3,20.3,0,0,1,3.9-1.2,1.6,1.6,0,0,0-.4-.7c-1.7.4-3.6,1.3-3.8,1.3a.4.4,0,0,0-.1.5C450.2,280.7,450.3,280.7,450.5,280.6Z" transform="translate(-5.4 -29.6)"/><path class="cls-19" d="M447.1,289.6v.7a6.4,6.4,0,0,1,2.5,1.2.3.3,0,1,0,.3-.5A7.1,7.1,0,0,0,447.1,289.6Z" transform="translate(-5.4 -29.6)"/><path class="cls-19" d="M454.8,292.2c.1-.4.2-.5.4-.6h0a6.4,6.4,0,0,0,.2-.7h-.5a1.4,1.4,0,0,0-.7,1.1,20.6,20.6,0,0,0-.1,4.9,16,16,0,0,0,.5-2.1A11.8,11.8,0,0,1,454.8,292.2Z" transform="translate(-5.4 -29.6)"/><path class="cls-19" d="M454.5,284.7c-.2.1-.1.4,0,.5h.2a.2.2,0,0,0,.2-.2c.1,0,.4-.4.7-.9s-.1-.7-.1-1Z" transform="translate(-5.4 -29.6)"/><path class="cls-19" d="M450.1,305.8c.1.1.2.2.4.1l1.1-.4.3-.8-1.7.6A.4.4,0,0,0,450.1,305.8Z" transform="translate(-5.4 -29.6)"/><path class="cls-19" d="M450,316.7a.2.2,0,0,0-.1-.4,7.1,7.1,0,0,0-2.8-1.4v.7a6.4,6.4,0,0,1,2.5,1.2A.2.2,0,0,0,450,316.7Z" transform="translate(-5.4 -29.6)"/><path class="cls-19" d="M454.2,322.8a1.1,1.1,0,0,0-.1-.5,1,1,0,0,1,.1.4Z" transform="translate(-5.4 -29.6)"/><path class="cls-19" d="M441.5,278.6a.5.5,0,0,0,0,.5h.2l.3-.2c.1-.1,2.4-3,2-5.1h-.7C443.8,275.3,442.2,277.7,441.5,278.6Z" transform="translate(-5.4 -29.6)"/><path class="cls-19" d="M437.5,274.5l2.8-1-1.7-.2-1.3.6a.4.4,0,0,0-.2.5C437.2,274.5,437.4,274.6,437.5,274.5Z" transform="translate(-5.4 -29.6)"/><path class="cls-19" d="M433,281.7a3.7,3.7,0,0,0,0-2.1,1.5,1.5,0,0,0-.8-.8c-1.8-.7-5.7,1.2-5.8,1.2a.4.4,0,0,0-.2.5.2.2,0,0,0,.4.1c1.1-.5,4.1-1.7,5.3-1.2a.7.7,0,0,1,.5.4,3.2,3.2,0,0,1-.1,1.9Z" transform="translate(-5.4 -29.6)"/><path class="cls-19" d="M423.2,289.6v.7a5.8,5.8,0,0,1,2.5,1.2.2.2,0,0,0,.4-.1.3.3,0,0,0,0-.4A7.7,7.7,0,0,0,423.2,289.6Z" transform="translate(-5.4 -29.6)"/><path class="cls-19" d="M446.3,289.7a1.4,1.4,0,0,0-.8,1,22.1,22.1,0,0,0,0,5.4q.2.3.3.3h.1c.2,0,.3-.2.3-.4a19.7,19.7,0,0,1,0-5.1.7.7,0,0,1,.3-.6h.6v-.7Z" transform="translate(-5.4 -29.6)"/><path class="cls-19" d="M431,291a1.4,1.4,0,0,0-.7,1.1,21.4,21.4,0,0,0,0,5.3.3.3,0,0,0,.3.3h.1c.1,0,.2-.2.2-.4a19.7,19.7,0,0,1,0-5.1,1,1,0,0,1,.4-.6c.7-.2,2.2.6,3,1.2h.5a.4.4,0,0,0-.1-.5C434.5,292.1,432.3,290.5,431,291Z" transform="translate(-5.4 -29.6)"/><path class="cls-19" d="M441.5,304.4h.5c.1-.1,2.8-3.4,1.9-5.6a1.8,1.8,0,0,0-.8-.7c-1.8-.7-5.7,1.2-5.8,1.2a.4.4,0,0,0-.2.5c.1.1.3.2.4.1s4.1-1.7,5.3-1.2a.7.7,0,0,1,.5.4c.6,1.5-1.1,4-1.8,4.9A.4.4,0,0,0,441.5,304.4Z" transform="translate(-5.4 -29.6)"/><path class="cls-19" d="M430.6,284.7a.5.5,0,0,0,0,.5h.2l.3-.2a13.3,13.3,0,0,0,1.9-3.4h-.7A13.3,13.3,0,0,1,430.6,284.7Z" transform="translate(-5.4 -29.6)"/><path class="cls-19" d="M426.2,305.8c.1.1.3.2.4.1s4.1-1.7,5.3-1.2a.7.7,0,0,1,.5.4,2.8,2.8,0,0,1-.1,1.8h.7a3.4,3.4,0,0,0,0-2,1.5,1.5,0,0,0-.8-.8c-1.8-.7-5.7,1.2-5.8,1.2A.4.4,0,0,0,426.2,305.8Z" transform="translate(-5.4 -29.6)"/><path class="cls-19" d="M438.4,283.3c-.1-.1-.3,0-.4.1s-1.8,2.7-1.4,4.3a1.3,1.3,0,0,0,.9,1,4,4,0,0,0,1.5.3,4.9,4.9,0,0,0,2.9-1,.2.2,0,0,0,.1-.4c-.1-.2-.3-.2-.5-.1a4.3,4.3,0,0,1-3.8.6c-.3-.1-.4-.3-.5-.6s.8-3,1.3-3.7S438.6,283.5,438.4,283.3Z" transform="translate(-5.4 -29.6)"/><path class="cls-19" d="M423.2,314.9v.7a5.8,5.8,0,0,1,2.5,1.2.2.2,0,0,0,.4-.1.3.3,0,0,0,0-.4A7.7,7.7,0,0,0,423.2,314.9Z" transform="translate(-5.4 -29.6)"/><path class="cls-19" d="M446.3,315a1.4,1.4,0,0,0-.8,1,22.1,22.1,0,0,0,0,5.4q.2.3.3.3h.1c.2-.1.3-.2.3-.4a19.7,19.7,0,0,1,0-5.1.7.7,0,0,1,.3-.6h.6v-.7Z" transform="translate(-5.4 -29.6)"/><path class="cls-19" d="M431,316.3a1.4,1.4,0,0,0-.7,1.1,21.4,21.4,0,0,0,0,5.3.3.3,0,0,0,.3.3h.1c.1,0,.2-.2.2-.4a19.7,19.7,0,0,1,0-5.1,1,1,0,0,1,.4-.6c.7-.3,2.2.6,3,1.2s.4.1.5-.1,0-.3-.1-.4S432.3,315.8,431,316.3Z" transform="translate(-5.4 -29.6)"/><path class="cls-19" d="M441.5,329.7h.5c.1-.1,2.8-3.4,1.9-5.6a1.8,1.8,0,0,0-.8-.7c-1.8-.7-5.7,1.1-5.8,1.2a.4.4,0,0,0-.2.5c.1.1.3.2.4.1s4.1-1.7,5.3-1.2a.7.7,0,0,1,.5.4c.6,1.5-1.1,4-1.8,4.9A.4.4,0,0,0,441.5,329.7Z" transform="translate(-5.4 -29.6)"/><path class="cls-19" d="M432.3,306.9a8.6,8.6,0,0,1-1.4,2.7l-.3.4a.5.5,0,0,0,0,.5h.2l.3-.2.4-.6a8.7,8.7,0,0,0,1.5-2.9Z" transform="translate(-5.4 -29.6)"/><path class="cls-19" d="M438.4,308.6c-.1-.1-.3,0-.4.1s-1.8,2.7-1.4,4.3a1.3,1.3,0,0,0,.9,1,4,4,0,0,0,1.5.3,4.9,4.9,0,0,0,2.9-1,.2.2,0,0,0,.1-.4c-.1-.2-.3-.2-.5-.1a4.3,4.3,0,0,1-3.8.6c-.3-.1-.4-.3-.5-.6s.8-3,1.3-3.7A.3.3,0,0,0,438.4,308.6Z" transform="translate(-5.4 -29.6)"/><path class="cls-19" d="M437.1,400.7Z" transform="translate(-5.4 -29.6)"/><path class="cls-19" d="M422.4,289.7a1.2,1.2,0,0,0-.7,1,14.8,14.8,0,0,0,0,5.4.3.3,0,0,0,.3.3h0c.2,0,.3-.2.3-.4a19.7,19.7,0,0,1,0-5.1.7.7,0,0,1,.3-.6h.6v-.7Z" transform="translate(-5.4 -29.6)"/><path class="cls-19" d="M413.7,299.8l.5-.2-.2-.3-.5.6Z" transform="translate(-5.4 -29.6)"/><path class="cls-19" d="M419.2,298a5.2,5.2,0,0,0-3.4.3,1.7,1.7,0,0,0-.1.7,5.8,5.8,0,0,1,3.3-.4.8.8,0,0,1,.4.4c.6,1.5-1.1,4-1.8,4.9a.4.4,0,0,0,0,.5h.5c.1-.1,2.8-3.4,1.9-5.6A1.4,1.4,0,0,0,419.2,298Z" transform="translate(-5.4 -29.6)"/><path class="cls-19" d="M418,288a.2.2,0,0,0,.1-.4l-.3-.2c-.1.3-.1.6-.2.9S418,288.1,418,288Z" transform="translate(-5.4 -29.6)"/><path class="cls-19" d="M422,321.7h0c.2-.1.3-.2.3-.4a23.3,23.3,0,0,1-.1-4.4l-.2.5a16.7,16.7,0,0,1-.5,1.8,7.1,7.1,0,0,0,.2,2.2A.3.3,0,0,0,422,321.7Z" transform="translate(-5.4 -29.6)"/><path class="cls-19" d="M422.6,315.6h.6v-.7h-.5c-.1.3-.1.6-.2.8Z" transform="translate(-5.4 -29.6)"/><path class="cls-19" d="M420.1,324.4c-.2,1-.5,2-.7,3.2A5.4,5.4,0,0,0,420.1,324.4Z" transform="translate(-5.4 -29.6)"/><path class="cls-19" d="M417.7,312.8l-.3.2.6.3h0a.3.3,0,0,0-.3-.5Z" transform="translate(-5.4 -29.6)"/><path class="cls-19" d="M414.1,308.7a2.1,2.1,0,0,1,.4.6c0-.1.1-.1.1-.2a.3.3,0,0,0-.1-.5C414.4,308.5,414.2,308.6,414.1,308.7Z" transform="translate(-5.4 -29.6)"/></g><path class="cls-20" d="M432,274.5l-7,1.4s-3.3,1-5.8,7.2-3.8,18.2-3.8,18.2l-1.4-2-3,3.5s4.9,10.2,7.1,10.5,6.2-6.5,6.2-6.5a74,74,0,0,1-2.3,10.6,67.8,67.8,0,0,0-3.6,21.4c0,11.2,6.3,26.2,7.9,31.8s1.4,10.3,2.7,15.9a126.9,126.9,0,0,1,2,15.2,47.7,47.7,0,0,1-4.2,4.3c-1.6,1.4,8.2,1,9.1.4s1.1-2.9,1.1-4.4-.1-24.2-.1-24.2,11.8,19.2,10.9,21.5,3.1-3.3,3.1-3.3-1.7-14.1-3-19.4a79.4,79.4,0,0,0-3.6-11.2s9.8-18.6,10.8-30.1-4.6-26.8-4.6-26.8,5-12.9,5.2-21.4-2.7-10.1-6-11.6a16.4,16.4,0,0,0-5.4-1.6l-7.3-.7Z" transform="translate(-5.4 -29.6)"/><path class="cls-11" d="M435.5,406.4a8.5,8.5,0,0,0,1.1-4.4c0-1.5-.1-17.2-.1-17.2h-7.9a13.6,13.6,0,0,0,.4,1.7,142.3,142.3,0,0,1,1.9,15.2C430.3,403.6,434.9,408.4,435.5,406.4Z" transform="translate(-5.4 -29.6)"/><path class="cls-11" d="M452.2,403.9c.5-.3-1.2-8.6-1.2-8.6s-.7-5.4-1.5-10.5h-8.7c3.1,5.3,6.5,12.3,7,13.6A14.5,14.5,0,0,0,452.2,403.9Z" transform="translate(-5.4 -29.6)"/><path class="cls-1" d="M437.3,404.6a5.1,5.1,0,0,1-6-1.4c-1.8-1.9-3.4,1-5.9,1.9s-4.3,2-3.8,2.7,2.5,1.2,5.6,1.1a43.2,43.2,0,0,0,8.1-.8C436.3,407.7,437,406.1,437.3,404.6Z" transform="translate(-5.4 -29.6)"/><path class="cls-1" d="M452.6,399.3a5.1,5.1,0,0,1-2.7,2.2,21.3,21.3,0,0,0-.9-2.5c-.5-1.1-1.5.3-1.5.3s-1.6,3.8-2.6,5.5-2.1,3.7-1.5,4.2,2.1.1,4.1-1.3a31.2,31.2,0,0,0,5-4.1C453,402.8,452.8,400.9,452.6,399.3Z" transform="translate(-5.4 -29.6)"/><path class="cls-5" d="M419.7,326.2a63.4,63.4,0,0,0-1.3,12.6c0,11.2,6.3,26.2,7.9,31.8s1.4,10.3,2.7,15.9l.6,3.3a13.3,13.3,0,0,0,7.4.1V377.8s3.5,6.1,6.5,11.9a12.3,12.3,0,0,0,6.5-1.4c-.6-4.2-1.3-9-2-11.7a79.4,79.4,0,0,0-3.6-11.2s9.8-18.6,10.8-30.1a50.7,50.7,0,0,0-.4-9.5,49.6,49.6,0,0,1-18.8,3.3C428.2,329.1,422.9,327.6,419.7,326.2Z" transform="translate(-5.4 -29.6)"/><path class="cls-12" d="M436.2,334s-4.5,23.5-4.6,28.1,4.3,13.5,4.3,13.5" transform="translate(-5.4 -29.6)"/><path class="cls-20" d="M424.3,306.8s-4.3-5-4.5-8.7,3.5-13.4,3.5-13.4" transform="translate(-5.4 -29.6)"/><path class="cls-11" d="M431.9,269.4s2.2,2.7,2.3,3.8-1.4,1.7-1.4,1.7-3.1,6.3-.4,9.1,6.5.1,7.9-2.1,2.2-7.6,2.2-7.6a25.5,25.5,0,0,1-4.6-5.1,38.2,38.2,0,0,0-3.8-4.8S432.9,268.5,431.9,269.4Z" transform="translate(-5.4 -29.6)"/><path class="cls-11" d="M421,251.2s-1.6,5-.7,7.7,2.6,2.9,2.7,3.7-.8,3.5-.6,3.9,2.2.9,2.2.9,3,4.4,4.2,4.4,3.4-1.5,4.2-2.7a22.6,22.6,0,0,0,1.6-3.8s-.9-2.4-5.2-4.8S421.2,254.1,421,251.2Z" transform="translate(-5.4 -29.6)"/><path class="cls-20" d="M427.9,264.4" transform="translate(-5.4 -29.6)"/><path class="cls-20" d="M425.3,266.3" transform="translate(-5.4 -29.6)"/><path class="cls-5" d="M423.2,242.6s-3.2,5.6-2.3,9.6,4.8,7.5,7.7,9.1,7.7,6.3,7.9,9.3-2.9,5-2.3,5.3,5.5,1.5,8.3-1.6,6.9-6.3,6.8-12.4-5.5-11.4-7.6-14.7-5.4-7.9-10.5-8S423.9,241.8,423.2,242.6Z" transform="translate(-5.4 -29.6)"/><path class="cls-21" d="M421.6,247.7s.2,6.7,6.9,8.5,16.7,6.9,15.7,14.7" transform="translate(-5.4 -29.6)"/><path class="cls-21" d="M427.1,243a9.2,9.2,0,0,0,6.3,7.6c6,2.2,14.5,6.1,15.6,13" transform="translate(-5.4 -29.6)"/><path class="cls-22" d="M42.9,235.5" transform="translate(-5.4 -29.6)"/><path class="cls-22" d="M27,236.4" transform="translate(-5.4 -29.6)"/><path class="cls-22" d="M27.3,237.3" transform="translate(-5.4 -29.6)"/><path class="cls-21" d="M421.5,242.5s-2.4,5.6-1.8,8.3" transform="translate(-5.4 -29.6)"/><path class="cls-17" d="M447.9,284.4,444.5,301l-22.1-7.2a24.5,24.5,0,0,0-2.7-7.4c-1.9-3-5.7-3.7-5.7-2.8s3.1,5.5,3.1,5.5-3.6-2.7-3.6-1.9,3.2,4.1,4.1,4.7,1.2,3.8,2.3,4.3,22,14,24.4,15.6,4.9-.5,5.2-1.1,5.9-10.4,8.6-17.3a13.7,13.7,0,0,0-3.4-15,13.4,13.4,0,0,0-3.6-2.2" transform="translate(-5.4 -29.6)"/><g class="cls-23"><path class="cls-19" d="M450.5,280.6c1-.4,3.8-1.6,5.2-1.2l-.7-.8c-1.9.1-4.6,1.4-4.8,1.4a.4.4,0,0,0-.1.5C450.2,280.7,450.3,280.7,450.5,280.6Z" transform="translate(-5.4 -29.6)"/><path class="cls-19" d="M456.8,281.7c.1-.2.1-.4.2-.6l-.6-.9a7.7,7.7,0,0,1-.2,1.5Z" transform="translate(-5.4 -29.6)"/><path class="cls-19" d="M447.1,290.3a6.4,6.4,0,0,1,2.5,1.2.3.3,0,1,0,.3-.5,7.1,7.1,0,0,0-2.8-1.4Z" transform="translate(-5.4 -29.6)"/><path class="cls-19" d="M454.9,291a1.4,1.4,0,0,0-.7,1.1,21.4,21.4,0,0,0,0,5.3.3.3,0,0,0,.3.3h0c.2,0,.3-.2.3-.4a19.7,19.7,0,0,1,0-5.1c.1-.4.2-.5.4-.6s2.2.6,3,1.2h.1a1.4,1.4,0,0,1,.2-.6C458,291.8,456,290.5,454.9,291Z" transform="translate(-5.4 -29.6)"/><path class="cls-19" d="M454.5,284.7c-.2.1-.1.4,0,.5h.2a.2.2,0,0,0,.2-.2,9,9,0,0,0,1.9-3.4h-.6A13.3,13.3,0,0,1,454.5,284.7Z" transform="translate(-5.4 -29.6)"/><path class="cls-19" d="M450.5,305.9l2-.8.5-.8c-1.4.4-2.7,1-2.8,1a.4.4,0,0,0-.1.5C450.2,305.9,450.3,306,450.5,305.9Z" transform="translate(-5.4 -29.6)"/><path class="cls-19" d="M445.8,296.4h.1c.2,0,.3-.2.3-.4a13,13,0,0,1-.2-2.3l-.5,2.3h0Q445.7,296.4,445.8,296.4Z" transform="translate(-5.4 -29.6)"/><path class="cls-19" d="M447.1,290.3v-.7h-.2l-.2.7Z" transform="translate(-5.4 -29.6)"/><path class="cls-19" d="M430.3,297.4a.3.3,0,0,0,.3.3h.1c.1,0,.2-.2.2-.4a4.5,4.5,0,0,0-.1-.8l-.6-.2A6.3,6.3,0,0,0,430.3,297.4Z" transform="translate(-5.4 -29.6)"/><path class="cls-19" d="M437.1,299.7c.1.1.3.2.4.1l1.5-.6-.9-.3-.8.3A.4.4,0,0,0,437.1,299.7Z" transform="translate(-5.4 -29.6)"/><path class="cls-19" d="M441.7,304.4h.3a14.8,14.8,0,0,0,1.9-3.5l-.6-.2a11.1,11.1,0,0,1-1.8,3.3.4.4,0,0,0,0,.5Z" transform="translate(-5.4 -29.6)"/><path class="cls-19" d="M421.7,296.1a.3.3,0,0,0,.3.3h0c.2,0,.3-.2.3-.4a18.1,18.1,0,0,1-.2-3.5,14.2,14.2,0,0,0-.5-1.6A18.7,18.7,0,0,0,421.7,296.1Z" transform="translate(-5.4 -29.6)"/><path class="cls-19" d="M414.6,283.8c.1-.1.1-.3-.1-.5s-.3,0-.4.1a.3.3,0,0,0-.1.2,2.7,2.7,0,0,0,.3.8A1.6,1.6,0,0,1,414.6,283.8Z" transform="translate(-5.4 -29.6)"/><path class="cls-19" d="M417.7,287.5l-1.2.6.4.6a3.3,3.3,0,0,0,1.1-.7.3.3,0,0,0-.3-.5Z" transform="translate(-5.4 -29.6)"/><path class="cls-19" d="M413.9,288.1l.7.9h.5a4.1,4.1,0,0,0,1.6-.3l-.8-.5A2.8,2.8,0,0,1,413.9,288.1Z" transform="translate(-5.4 -29.6)"/></g><path class="cls-20" d="M447.9,284.4,444.5,301l-22.1-7.2a24.5,24.5,0,0,0-2.7-7.4c-1.9-3-5.7-3.7-5.7-2.8s3.1,5.5,3.1,5.5-3.6-2.7-3.6-1.9,3.2,4.1,4.1,4.7,1.2,3.8,2.3,4.3,22,14,24.4,15.6,4.9-.5,5.2-1.1,5.9-10.4,8.6-17.3a13.7,13.7,0,0,0-3.4-15,13.4,13.4,0,0,0-3.6-2.2" transform="translate(-5.4 -29.6)"/><path class="cls-24" d="M440.3,299.7l-17.9-5.9a24.5,24.5,0,0,0-2.7-7.4c-1.9-3-5.7-3.7-5.7-2.8s3.1,5.5,3.1,5.5-3.6-2.7-3.6-1.9,3.2,4.1,4.1,4.7,1.2,3.8,2.3,4.3,11.5,6.8,18,11.3Z" transform="translate(-5.4 -29.6)"/><path class="cls-11" d="M419.2,285.8a25.7,25.7,0,0,0-2.9-2.9,4.4,4.4,0,0,0-3.4.3c-.4.4.5.6.9.5h1.7c.2.1,2.2,3.3,2.2,3.3" transform="translate(-5.4 -29.6)"/><path class="cls-5" d="M412.7,291.7l-4,1a1.9,1.9,0,0,1-2.4-1.5l-2.9-13a2,2,0,0,1,1.5-2.5l4.1-1a1.9,1.9,0,0,1,2.3,1.5l2.9,13A2,2,0,0,1,412.7,291.7Z" transform="translate(-5.4 -29.6)"/><path class="cls-24" d="M411,302.8s-4.4-8.5-4.7-9.4-2.7-12-2.8-13.4-.4-3.1.2-2.7,2.4,7.4,2.4,7.4l1.4-3.4c.6-1.4,1.9-3.5,2.1-2.9s-.3,1.7-.4,2.2-1.4,4.8-1.4,4.8v1.9l2.2-2.9c.7-.8,2.7-1.9,2.6-1.2s-1.7,1.5-1.7,2.1a21.7,21.7,0,0,1-2,3.5s2.4-2.6,2.9-3,1.4-.8.8.2-2.2,3.2-2.2,3.2a32.7,32.7,0,0,1,.7,3.4c0,.5-.8,1.5-.8,1.5l3.8,5.2Z" transform="translate(-5.4 -29.6)"/></g><g id="Layer_14" data-name="Layer 14"><path class="cls-22" d="M117.1,236.4c4.4,2.2,9.9,1.2,10.9-1.2" transform="translate(-5.4 -29.6)"/><path class="cls-22" d="M98.6,236.9" transform="translate(-5.4 -29.6)"/></g><g id="Layer_12" data-name="Layer 12"><line class="cls-25" x1="67.4" y1="297.2" x2="63.6" y2="331.3"/></g></svg>