<?xml version="1.0" encoding="utf-8"?>
<!-- Generator: Adobe Illustrator 24.0.2, SVG Export Plug-In . SVG Version: 6.00 Build 0)  -->
<svg version="1.1" id="Layer_1" xmlns="http://www.w3.org/2000/svg" xmlns:xlink="http://www.w3.org/1999/xlink" x="0px" y="0px"
	 viewBox="0 0 340 296.7" style="enable-background:new 0 0 340 296.7;" xml:space="preserve">
<style type="text/css">
	.st0{opacity:0.79;fill:#EDF1F0;enable-background:new    ;}
	.st1{fill:none;stroke:#263238;stroke-miterlimit:10;}
	.st2{fill:none;stroke:#B2B2B2;stroke-miterlimit:10;}
	.st3{fill:#263238;stroke:#263238;stroke-linecap:round;stroke-linejoin:round;}
	.st4{fill:#FFFFFF;stroke:#263238;stroke-miterlimit:10;}
	.st5{fill:#263238;stroke:#263238;stroke-miterlimit:10;}
	.st6{fill:none;stroke:#707070;stroke-width:0.5;stroke-linecap:round;stroke-linejoin:round;}
	.st7{fill:#263238;}
	.st8{fill:#28353A;}
	.st9{fill:#067FC8;stroke:#263238;stroke-linecap:round;stroke-linejoin:round;}
	.st10{fill:#FFFFFF;stroke:#263238;stroke-linecap:round;stroke-linejoin:round;}
	.st11{fill:none;stroke:#FFFFFF;stroke-linecap:round;stroke-linejoin:round;}
	.st12{fill:none;stroke:#263238;stroke-width:2;stroke-linecap:round;stroke-linejoin:round;}
	.st13{fill:none;stroke:#263238;stroke-width:4;stroke-linecap:round;stroke-linejoin:round;}
	.st14{fill:#FF9A00;}
	.st15{clip-path:url(#SVGID_2_);}
	.st16{fill:#FFFFFF;}
	.st17{fill:none;stroke:#263238;stroke-linecap:round;stroke-linejoin:round;}
	.st18{fill:#FF9A00;stroke:#263238;stroke-linecap:round;stroke-linejoin:round;}
	.st19{fill:none;stroke:#707070;stroke-linecap:round;stroke-linejoin:round;}
	.st20{clip-path:url(#SVGID_4_);}
	.st21{fill:#FFFFFF;stroke:#263238;stroke-width:0.75;stroke-linecap:round;stroke-linejoin:round;}
	.st22{opacity:0.16;fill:none;stroke:#707070;stroke-width:0.25;stroke-miterlimit:10;enable-background:new    ;}
</style>
<title>main_banner1</title>
<g id="Layer_13">
	<path class="st0" d="M126.3,18.2c0,0-52.9,26.9-79.3,68.5s-24.3,95,7.8,134.7s93.4,34.5,144.7,59.7s108.1,19.9,132.3-33.4
		s-12.3-73.1-18.6-134.8S251.3-39,126.3,18.2z"/>
	<line class="st1" x1="16.7" y1="296.2" x2="334" y2="296.2"/>
	<path class="st2" d="M183.4,120.2c0.3-0.1,0.3-1.6,0.2-1.7S182.7,120.3,183.4,120.2z"/>
	<path class="st2" d="M116,143.3c0.5-0.2,3.8,0.5,3.8-0.5s-3.4-1.6-3.8-1.3c0,0.5,0.2,0.9,0.5,1.2c0,0.4-1.5,0-1.6,0.3
		C115.1,143.4,115.6,143.5,116,143.3C116,143.3,116,143.3,116,143.3z"/>
	<path class="st2" d="M146.4,164.3c-1.4,0.1-2.7-1.7-4.3-1.9s-1.4-0.4-2.6,0.1c1.3-0.5-2.2-2.2-2.2-2.2s-1.2,1.5-1.8,1.2
		s0.7-1.2,0.1-1.7s-1.5,0.7-1.5,0.6s1.5-3.5-0.2-4.4s-3.1-0.9-4.6-1.7s-1.5-2.4-3.5-2.3c0.8-0.1-1.6-2.1-0.9-1.9
		c-1-0.4-3.1,0.5-4.5,0.2s-0.8-1.5-1.6-1.5s-0.9,2.1-1.1,2.6s-0.8-3.2-0.2-2.9s-3.2,1.7-3.5,1.9s-0.9,1.4-1.5,1.6
		c1.1-0.3-3.5-0.8-2.5-0.5c-2.9-1.1-1.6-1.4-2.4-4c-0.2-0.7,0.5-1.1-0.1-1.7c-1.2-0.6-2.5-0.8-3.8-0.3c-0.7,0.5,0.1-2,0.3-2.3l0,0
		c0.9-0.9,1.2-3.1-0.2-3.2s-1.3,2.1-2.8,2.9c-4.5,2.2-4.7-4.2-4.6-6.9l0,0c0.3-4.7,3.7-3.4,6.5-3.1c-0.7-0.1-0.1-1.2,0.8-1.3
		l2.3,0.5c1.5,0.5,1.1,0,2.2,1.8s0.6,2.6,1.5,2.9s-0.1-6.6,0.5-7.4c0.9-1,1.8-2,2.8-2.9c1.2-1.5,0,0.2,0.2-1.6
		c0-0.2-0.5-2.7,0.3-2.7s0.3,2.4,0.3,2.4l0.3-2c0.1-0.6,2.6-1.4,2.8-1.8s-1.3,0-1.3-0.1s2.1-0.5,2.4-0.7c0.2-0.9,0.5-1.7,0.9-2.5
		c0.9-0.9,3.3-0.7,4-2.2c-0.1,0.2,0.3,0.9,0.8,0.8c-1.8,0.5-2.7,1.5-0.5,1.2c1.3-0.4,2.6-1.1,3.7-1.9c0.1-0.1-0.4-0.6-0.3-1
		s-1.4,1.3-1.7,1.2c-2.2-0.3-1.2-1.8-2-2.4c-0.2,0.2-0.4,0.2-0.7,0.2c-0.3-0.8,2.6-1.4-0.1-1.7s-2.9,2.5-4.2,2.5
		c0.7,0,3.5-3.5,4.9-3.8s8.2-0.7,7.5-2.4l-0.5-0.3c-0.5-0.5,1.4-1-0.7-1.2c-0.1-0.2-0.1-0.5-0.1-0.7c-0.2-0.2-2.3,0.7-2.3,0.7
		c0.8-0.3,1.5-0.7,2.2-1.2c0.3-0.4-4.6-2.2-4.2-2.8s0.9,0.1,0.3-1.6s-2.2-3.3-2-3.4s-0.5,2.9-2.2,2.9s-1.7-2.2-1.7-3.4s-4.7-2-5.1-2
		c-2.7,0.1-1.6,0.3-1.7,2.4c-0.2,0.7-0.3,1.4-0.4,2.1c0.3,1.6,1.6,2.2,0.8,4.3s-1.8,0.8-1.9,1.2s0.6,1,0.5,1.6s0.3,2.5,0.1,2.4
		s-0.6,0.5-1.7-0.5s-0.4-2.8-1.1-3.7s-4-1.7-4.8-2.1c-1.1-0.6-2.4-0.8-3.6-0.6c0.3,0-0.3-1.8-0.4-2.1s-1.7,0.2-1.2-2.5
		c0.1-0.7,3.1-3.9,3.1-3.8l-2.4-1.1c0.3-0.8,2.4,1.4,3-0.3c-0.3,0.8,3.3-0.8,2.4-1.4s-2.4,0-2.3-1c-0.1,0.7,4.5,0.9,2.7-0.7h2
		c0.2,0-0.7-0.8-0.6-0.9s1.2,1.3,2.4-0.1s-0.5-1.1-0.6-2.1s1.5-0.5,1-1.2c-0.8-0.7-1.8-1.1-2.9-1c-0.4,0.1,0.1,2.2-1,2.9
		c-0.2-0.1-0.3-0.3-0.4-0.5c-0.5,0,0.5,1.8-0.2,1.5s-0.7-1.6-0.8-1.7c-0.3-0.5-0.6-1-1-1.4c-0.4-0.4-0.8,1.4-1,1.5s0.1-1.6,0.1-1.7
		l-1.5-0.3l0.5-0.9c-0.4-0.7-0.9-1.4-1.4-2.1s-0.3,0-0.5-2.2c0.1,1,3.9-1.7,2.6-2.1s-3.3-0.6-3.6,0.5c0,1.3-0.1,2.7-0.3,4
		c-0.1,0.3-1.1,0.8-0.7,2.1s2.9,1.1,1.6,2.1s0.2-0.4,0.5-0.4s-1.4,2.7-1.3,2.6l-1.6-1.7c-0.1-0.2,1.8-0.5,1.9-0.6s-1.1-0.7-1.1-0.8
		s1-0.1,0.7-0.3c-0.9-0.7-2.2-0.6-3,0.3c0,0.1-0.1,0.1-0.1,0.2s2.7,1.6-1,2.1c-1.7,0.2-2.4-0.6-3.8-1s-0.4-0.5-1.2-0.6
		s-2.1,0.8-1.6,1s2-0.8,2.2-0.6s-1.2,3.1-1.8,2.8s-0.1-1.2-1-1.5S82.7,88,81.8,87s1.2-0.6,1-0.9c-1.2-0.6-2.5-1-3.8-1.3L76.6,84
		c-0.9-0.1-1.3,0.6-2.2,0.6s0.2-1.2-0.2-1.3c-0.3,0.5-0.7,0.9-1.1,1.3c-0.9-0.1-0.8-2.2-1.8-2c0.7-0.1-1.5,1.5-1.3,1.4
		c-0.9,0.6-1.9,1.1-2.9,1.6c-0.5,0,3.1-2.2,3.1-2.1l-3.5,1.1c-0.4,0.2,0-0.6-0.6-0.4s-0.4,1-0.8,1.4s-9.3-2.2-9.9-2.2
		s-6.6-0.8-7-1.2s-2.3,0.1-3,0.9s-5.1,1.6-5.3,2.6s4.3,2.4,4.7,3.6s-5.4-0.3-6,1.2c0.2-0.5,1.5,1.5,1.7,1.6c1.3,0,2.6-0.2,3.9-0.5
		c0.9,0.9-1.1,2.1-1.6,2.6s-0.6-0.3-1.3,0.6l-1.4,1.1c0.2-0.2,1.1,1.9,1.1,1.9s2.3,0.5,2.1,0.3s0,1.7,0.5,2s1.5,0,2.2,0.3
		s1.8-1.1,1.6-0.6s-4.2,5.7-4.8,5.1s7.8-4,7.8-5.1l-0.7-0.4c-0.2-0.4,3.8-3.7,3.7-2.4s-2.4,1.8-1.8,2.3s2.7-0.8,3.2-0.9
		s-1-1.4,0-1.5c0.6,0,1.2,0.2,1.6,0.6c-0.3-0.1-0.5,0.1-0.6,0.4l0,0c0.2,0.4,5.6,0.1,6,0.4s3.5,3.1,3.5,2.2
		c-0.2-0.3-0.2-0.7-0.2-1.1c1.8,1.3-0.8,1.7-0.8,1.6c0.5,0.6,0.9,1.3,1.3,2c-0.1,0-0.3-1.7,0.1-1.6c0.1,0.2,0.1,0.5,0.1,0.7
		c0.4,0.5,0.5-1.3,0.5-1.2s0.1,2.4-0.2,2.4s2.3-0.2,1.5,0.2s-1-0.9-0.3-1s0.3,0.9-0.5,1s0.1,1.5,0.2,1.6s1.2-0.8,1.7-0.7
		s0.4,1.9,0.6,2.3l1.8,1.8c0.9,0.9,1.8,1.7,2.9,2.4c-0.1-0.1,3.6,3,1.5,3c0,0-2.2-5.7-4.5-4.1c0.5-0.3,3.2,3.6,3.3,4
		c1,2.9-0.6,6.2,0.5,9.3s2.7,3.5,4.1,4.9c0.8,1,1.5,2.1,2.1,3.3c1,1.6,1.2,2,1,2.9s4.3,4.5,4.1,4.6c-1.5-2.8-2.9-5.7-4.1-8.7
		c1.7-0.1,1.8,2.5,2.1,3s2.5,2.5,3.4,3.8s1.8,4.2,3.2,5.7c1.4,1,2.9,1.7,4.5,2.2c1.7,0.5,3.5,0,4.8,1.4l0,0c0.6,0.5,1.6,0.6,2,1
		s1.7,0.5,2.8,1.7c0.5,0.6,1,1.2,1.4,1.9c0.7,0.7,1.9,2,3,2.1s0.7-1.2,1.3-1.1c2.4,0.6,1.9,3.8,1,5.8s-2.4,2.5-1.2,4.6
		c0,0.1-1.2,2.2-1.1,2.8s2.9,4.7,3.5,6s2.8,2.6,4.4,4.5s1.1,3.1,0.8,5.5s-0.5,7-1.2,10.4c-0.3,1.3-2.9,8.4-1.9,9.7s0.6-1.8,1-1.9
		s-0.2,5.3-0.7,5s0.3-1.8-0.3-1.5s-1.1,2.2-1.1,2.3s0.8,0.8,0.9,1.1s0.9-0.3,0.8,0.3s-2.6,1.1-1.3,0.9l0.6-0.5
		c0.1,0-1.4,1.6-0.4,1.8s0.4-1.1,0.6-0.8s-1.1,1.9-0.7,2.4s0.9-0.4,1.1,0s-0.6,0.6-0.5,0.6s1.2-0.3,1.3,0.2s-1.5,0-0.9,0.8
		s1.5-0.9,1.8-0.1s-1.5,0.8-1.6,0.8l1.8-0.4c0.1,0.1-2,1.1-2,0.9s1.2,1,1.4,0.8s-0.4-0.2-0.1-0.5s1.8-1.2,1.9-1.4
		c-0.3,0.2-0.5,0.5-0.5,0.8h0.8c-0.3-0.3-0.5,1-0.5,1c-0.2-0.2-0.3-0.4-0.3-0.7c-0.4-0.2-0.2,0.7-0.2,0.7s-0.3-0.4-0.6-0.4
		s-0.4,1.3-0.4,0.7s1,1,1,1c0.2-0.2,0.3-0.4,0.3-0.7l1.7,1.2c0.3,0.1-0.2-0.8,0-0.8c0.8,0,1.6-0.2,2.4-0.5c-1.1-0.4-2.5-2.4-2.7-2.5
		l0,0c-0.2,0-0.8,0.1-0.7-0.3s0.7,0.1,0.8,0s-0.7-1.5-0.5-2s0.8-0.8,1.1-1.4s1.5-1.3,1.6-2.2s-1-0.7-1-0.9c0.3-1.3,0.8-2.5,1.5-3.6
		l1.3-1.4c-0.3-0.2-2.2-0.1-1.2-1.6c-0.3,0.5,2.3-0.4,2.2-0.4c-0.1-0.5,0-1.1,0.1-1.6c0.1-0.2,4.3,0.5,4.6-2.1
		c0.1-0.6-1.4-2.5-1.5-2.5s3,0.6,4.4-0.8c0.9-0.9,1.6-2,2-3.2c-0.2,0.4-0.4,0.8-0.7,1.2c0-0.6,2-2.2,2.3-2.9s-0.1-2.3,0.4-3.2
		s3.3-1.4,4.6-2.2s2.1-2.5,2.6-4.5s0-4.2,0.6-5.1S150.5,164.1,146.4,164.3z"/>
	<path class="st2" d="M115.1,141.4c0.9-1.3-9.7-3.6-8.3-1.6c-0.7-1,4.2,0.3,4.4,0.4S113.9,142.9,115.1,141.4z"/>
	<path class="st2" d="M111.7,143.1c0.2,0.3,1.5,0.7,1.7,0.3S111.5,142.8,111.7,143.1z"/>
	<path class="st2" d="M121,143.2c0.3,0.5,1.2,0.2,1.3,0S120.6,142.6,121,143.2z"/>
	<path class="st2" d="M126.1,211.2c0.4,0.2,1.3-1,0.9-1.1S125.7,210.9,126.1,211.2z"/>
	<path class="st2" d="M127.2,211.2c0.3,0.2,1.4-0.3,1.3-0.6S126.9,211.1,127.2,211.2z"/>
	<path class="st2" d="M133.4,84.3c0.1-1.4-2.1-0.7-2.4-0.7S133.3,86,133.4,84.3z"/>
	<path class="st2" d="M157.8,83.3c-1.2,0-2.3-0.1-3.5-0.3c0.1-0.2,1.2-1.4,1.1-1.5s2.7,2.7,2.8,0.5s-1.8-1.3-2.1-2.4
		s2.5,0.8,1.9-0.8s-2.8,0.7-2.7-0.3s0.9-1.2,0.8-1s4.4,2.2,2-0.9c-0.1-0.1,2.2-0.1,2.3-0.5s-2.2-0.4-1.7-1.3s2.3,0.5,1.2-1.7
		c0.1,0.1-2.6-0.8-2.2-1.2s3.6-0.1,3.5-0.5s-1.9,0-2.1-1s1,0,1.2-0.2s-2.5-0.2-2.4-0.1s3.4-4.6,3.5-4.4s-1.5,0.7-2,0.1s3-0.9,3.1-1
		s-1.9-0.7-2-0.5s5.5-0.6,5.5-2s-4.9-0.1-5.4,0.1s-1.1-0.4-1.4-0.3s-1.8,2-2.9,2.1c1-0.1,2.2-2.6,0.5-2.9s-3.1,2-3.3,1.4
		s1.7-0.8,1.7-1.2s-6.1,0.5-6.1,0.4s8.3-0.7,9.2-1.9s-10.7-2.4-11.7-2.1l-2,0.6h-1c-1.9,0.1-3.8,0.2-5.7,0.5c-0.2,0,0.8,0.7,0.8,0.8
		s-1.6,0.2-1.4,0.5l2.2,1.7c-1.4,0.3-3.8-2.8-5.2-1.8s1,1.1,1,1.2l-2.6-0.8c0.1,0-0.1,1.6-0.5,1.8c1.2-0.7-1.4-1.7-1.8-1.7
		c-0.9-0.1-1.8,0.4-2.2,1.2c-0.6,0.2-1.5-0.5-2.3-0.2s0.5,1.2-0.2,1.6s-5.7,0.2-5,1.9c0.7,1.7,3.5,0,0.9,2.1c-0.7,0.6-2.7,0.3-3.6,1
		c-4.2,2.8,3.8,0.9,3.7,2.5s-4.2,0.2-4.1,0.6s2.9,1.9,3.7,1.9s3-1,5.1,0c2,0.9,3.5,2.6,4.1,4.7c0.7,2.4-0.8,2.6,1.6,2.6
		c0.7,0.8,1.4,1.6,2.2,2.3c-0.1,0.1-2.8-1-2.8-0.4s3.7,0.5,2.7,3.3c-0.1,0.4-1.3-0.2-1.6,0.7c-0.3,0.6-0.5,1.2-0.5,1.8
		c0,1.1,1.7,5.1,3,6.8c0.7,1.1,1.8,1.9,3,2.3c2.3,1,1.7,1.1,3-0.8s-0.3-1.4-0.1-2s1.1-0.3,1.3-0.9c0.1-0.9,0.1-1.7,0.1-2.6h0.8
		c0.1,0,1.5-1.9,1.7-1.9c0.2,0.2,0.3,0.5,0.1,0.8c0.3,0.8,3.5-2,3.6-2.1c0.6-0.6,1.3-1.1,2.1-1.4C153.1,85.4,155.9,84.5,157.8,83.3z
		"/>
	<path class="st2" d="M76,73.5c0.7-0.4,0.7,0,1.2-0.5c0.1,0.3,0.3,0.5,0.6,0.7c0.8,0,1.1-1.8,1.6-1.9s0.2,1.6,1.4,0.4
		s0.4-0.8,0.8-1.3s-2.5-0.1-2.9,0C77.6,71.6,76.7,72.5,76,73.5z"/>
	<path class="st2" d="M81.3,72.8c-1.2,0.1,0.6,0.9,0.6,0.7c-0.5,0-1,0.1-1.4,0.4c-0.2,0.3,1.2,0.2,1,0.2c-0.5,0-1,0.3-1.4,0.6
		c0.8,1.1,2.1,0,2.7-0.4s1.8,0.8,2,0.5s-2.3,0.6-2.2,1s4.1-0.4,4.6-0.6c2-0.9,2.6-0.2,1.7-1.9c0.1,0.1-2.2-1.4-2.5-1.2
		s0.6,1.6,0.4,2s-2.6-1.1-3.1-1.3C82.9,72.6,82.1,72.6,81.3,72.8z"/>
	<path class="st2" d="M94.7,81.3c1.5,1.1,3.2-3,2.3-3.1s-0.4,0.5-0.2,0.9s-1.2-0.7-1.2-0.6s1.9-0.9,0.5-1.8s-0.9,0.6-0.9,0.6
		s-3.1-0.4-2,0.5l1,0.3c1.2,1-2.1,0.4-1.7,0.4S94.4,81,94.7,81.3z"/>
	<path class="st2" d="M74.3,80.6c0.5,0.4,0.9,0.9,1.2,1.4c0.9,0,1.8-1.3,2.2-1.6s2.8-1.7,3.9-2.6s-5.2-2-5.9-1.8
		c-2.4,0.8-0.4,0.3-1.1,1.6c-0.6,0.8-1.1,1.7-1.4,2.7L74.3,80.6z"/>
	<path class="st2" d="M78.7,74.1c0.6,0,1.1-0.4,1.2-0.9C79.9,72.8,78.3,74.1,78.7,74.1z"/>
	<path class="st2" d="M116.8,82c0.4,0,0.7-0.3,0.7-0.7c0.1,0.5-2.7-1-3-1.1s-0.2-0.8-1.3-1c-0.7-0.1-1.4,0.3-1.7,0.9h-1.6
		c-1,0,0.5-4.3-3-2.2c-2,1.2-0.3,1.9-0.2,3.2s-1.6-0.4-1.5-1.5s1.2-1.7,1.2-2.3s-3.8,1.3-3.9,2.2s1.3,3.3,2,2.4s-1.8-0.2-1.7,0.2
		c0.2,2.3,8.5,0.9,8.6,1.4c-0.2-0.2-0.3-0.4-0.4-0.7c0.1-0.4,2.9,1.8,2.9,1.9c-0.3,0.2-0.5,0.5-0.7,0.8c0.5,0.4,1.1-0.5,2,0.5
		s1,0.8,1.2,2.4s3-0.7,2.5,0.7s-1.3-0.3-1.7-0.2l-2,0.3c-0.1,0,0.3,1,0.3,1c-1,0-1.9,0.2-2.8,0.6c-2.4,2.1,2.5,0.8,3.2,1
		s4.8,5.3,5.8,3.8s-1.8-2.6-2.1-2.5c1.5-0.4,3.8,2.2,3-0.5s-3.1-2.1-1.9-3.5s2.6,2,3,2l2-2.2c0-1.5-5.7-2.3-5.5-3.7l1.1-0.3l-1-0.5
		c-0.1-0.8,1-0.8-0.5-0.8c1.1,0-1.5-1.2-1.6-1.2L116.8,82z"/>
	<path class="st2" d="M67.4,106c-0.7,0.4,0.8,2.2,1.2,2S68.4,105.4,67.4,106z"/>
	<path class="st2" d="M91.2,74.9c0.3-0.3-0.5-1-0.7-0.4c-0.1,0.2,0,0.4,0.2,0.5C90.8,75.2,91.1,75.1,91.2,74.9z"/>
	<path class="st2" d="M110.6,96c0.3,0,0.8-1,0.1-1S110.3,96.1,110.6,96z"/>
	<path class="st2" d="M114.2,87.6c2-0.3-1.9-1.8-1.2-1.2S111.9,88,114.2,87.6z"/>
	<path class="st2" d="M107.5,95.1c0.6,0.4,1.4-0.6,1.3-0.9S106.8,94.7,107.5,95.1z"/>
	<path class="st2" d="M100.6,75c0.3,1,8.5,1.4,9.5,0.7c3.8-2.7-8.1-1.4-7.9-2.3l0.6-0.6c0.3-0.4-6.4-1.8-5.9-0.9S99.6,72,100.6,75z"
		/>
	<path class="st2" d="M92.3,83.8c0.2-0.3,1.1,0.5,1.2,0s-2.8-2.4-3-3c-0.1-0.8-0.2-1.7-0.2-2.5c0.3-0.3,0.3-0.6-0.1-1
		c-0.6-0.1-1.2,0-1.6,0.4l1,1c0-0.2-1.8-0.9-2-0.5s0.9,2.3,0.5,2.5s-2.4-2.6-2.5-2l0.6,0.7l-1.3,0.2c-0.9-2.5-1.7,0.5-2.6-0.3
		s1.5-1.2-0.3-1.2c-1.1,0.2-2.1,0.7-2.8,1.6c-1.1,2.5,1.3,0.6,2.3,1.4s-2.1,0.6-2.1,0.9s5.1-0.1,5.1,1s-4.6,0-4.4,0.8
		s6.3,1.6,7.5,1.4l2-0.2c0.4,0,3.7,1.1,3.3-0.2s-1.1,0.3-1.4-0.4C91.7,84.1,92,83.9,92.3,83.8z"/>
	<path class="st2" d="M123.2,110.9c0.1,0.3,2.2,1.3,2.2,0.8S123.2,110.6,123.2,110.9z"/>
	<path class="st2" d="M102.4,70.3c-0.6-0.3-1.4,0.4-0.8,0.7S103.1,70.7,102.4,70.3z"/>
	<path class="st2" d="M96.8,69.8c4.2,0-0.8-2.4-1-1.9S96.3,69.8,96.8,69.8z"/>
	<path class="st2" d="M97.2,65.9c0.1,0,3.4,1.5,3.2,1s-1.5,0.7-1.4,0.8c1,1.2,2.6,1.8,4.2,1.5c0.1-0.1,3.1-2.7,3-2.3
		s-2.2-2.1-2.3-2.2s-4.6-2.4-5-2.1s0.2,0.4,0.5,0.5s-1.1,0-1.2,0.2l0.6,0.5c-0.2,0.5-1.5-0.2-1.4,0.7l0.9,0.7
		C98.4,65.7,96,65.2,97.2,65.9z"/>
	<path class="st2" d="M109.7,77.4c-0.9,2.1,3.7,1.6,3.7,1.2S110,76.8,109.7,77.4z"/>
	<path class="st2" d="M99.7,70c-0.1-0.2-2.8,0.1-2.4,0.5C98.1,70.8,99.1,70.6,99.7,70z"/>
	<path class="st2" d="M83.1,70c0.2-0.5-1.1-0.4-1-0.3S83,70.4,83.1,70z"/>
	<path class="st2" d="M98.9,74.3c-0.6-0.5-2.3,0.6-2,0.8S101,76,98.9,74.3z"/>
	<path class="st2" d="M90.6,71.1c0.3-0.4-1.1-1.7-1.2-1.1S90.3,71.5,90.6,71.1z"/>
	<path class="st2" d="M93.8,71.8c-0.9-0.4,0.3,1.3,0.2,1.2c-0.4-0.3-0.8-0.5-1.3-0.6c-0.4,0.2,0.4,1,0.1,1.1s-1.3-1.6-1.8-1.6
		s0.4,1.6,0.4,1.6c0.9,0,1.8,0.2,2.7,0.4c0.9,0.3,1.1,3,2.2,0.3S94.8,72.2,93.8,71.8z"/>
	<path class="st2" d="M86.1,69.8c0.6-0.1-2.5-0.9-2.5,0.3S86.1,69.8,86.1,69.8z"/>
	<path class="st2" d="M84.4,69c0.3,0.1,2.3,0.1,2.3-0.3s-3.4,0.2-3.3,0.2L84.4,69z"/>
	<path class="st2" d="M95.3,65.9c0.2-0.4-1.5-0.8-1.1-0.4S95,66.4,95.3,65.9z"/>
	<path class="st2" d="M90.4,67.8c0.4-0.2,0.9,0,1.1,0.3l0,0c-0.1,0.2-1.4,0.2-1.3,0.3s6.9,2.8,3.4-0.7c-0.5-0.4-1.1-0.7-1.7-0.9
		C88.8,66.7,90.6,67.6,90.4,67.8z"/>
	<path class="st2" d="M110.1,93c0-0.4-3.5-2.9-3.7-2.9s-2,2.3-1.8,3S110.1,92.8,110.1,93z"/>
	<path class="st2" d="M101.6,62c1.3-0.9,0.2,0.4,0.2,0.4h0.8c-1.4,1.7,2.7,1.4,2.6,1.1c0.2,2.6,5.3-0.9,5.9-0.4s-3.1,1.6-3,1.8
		s1.4,1.1,1.2,1.1s-5-2.9-4.3-0.2c0.2,0.6,3.5,1.8,3.5,2.4s-4.2-1.2-4.3,0.6s2.3-0.2,2.3-0.1s0.4,2.5,0.4,1.9s-3.2-2-3.1-0.5l1,0.7
		c0,0.3-2.8,0.5-2.2,1.2s9.2,1,9.7,0s-3.2-0.8-3.4-1.1s3.2-1.4,3.4-1.5c1.2,0.2,2.3-0.5,2.6-1.7c0.7-2.1-2.3-0.7-2.3-0.7
		c1.5-1.1,3.4-0.6,4.8-1.3s5.7-2.9,5.7-3.3s-2.3-0.1-2.4-0.1l5.1-2.2c0,0-4.9-1.6-4.9-0.5s0.4-0.5,0.7-0.6l-6,0.2
		c-0.6,0.1-4.1-0.3-5.9,0.2s-8.9,2.9-9,2.6C101,62.1,101.3,62.1,101.6,62z"/>
	<path class="st2" d="M130.3,109.2c-0.7,0.5-1.3,1.2-1.7,2c-0.1,0.2-1.7,1.8-1.1,2.2s2.8-1.3,3,0.6c-0.1-0.6,2.1,0.2,2.2,0
		s-0.6-1.6-0.4-1.5s-2.8-2-2.8-1.7C129.7,110.2,130,109.7,130.3,109.2z"/>
	<path class="st2" d="M39.3,106.7c0.5-0.2,0.6-0.4,0.5-0.6S39,106.9,39.3,106.7z"/>
	<path class="st2" d="M42.4,105c-0.5-0.2-1,0.6-1.1,0.5S42.9,105.1,42.4,105z"/>
	<path class="st2" d="M50.9,100.6c-0.8,1-1.5,3,0.2,1.2C51.4,101.6,51.8,99.5,50.9,100.6z"/>
	<path class="st2" d="M40.1,98c-0.4-0.2-0.6-0.1-0.8,0.3c0.3,0.3,0.8,0.4,1.2,0.4C41.7,98.2,40,97.9,40.1,98z"/>
	<path class="st2" d="M178.6,122.1c-0.1-0.5-0.9,0.1-0.7,0.2S178.7,122.5,178.6,122.1z"/>
	<path class="st2" d="M196.8,126.5c0-0.3-2.3,0-2.2,0.1S196.9,127.3,196.8,126.5z"/>
	<path class="st2" d="M202.9,126.9l0.6-0.8l-1.8,0.6C201.3,127.3,203,127.3,202.9,126.9z"/>
	<path class="st2" d="M163.5,92.3c2.5-0.2,0.1-4.1-1.1-3.3c-0.8,0.4-1.6,0.8-2.4,1c-0.1-0.2-0.3-0.4-0.5-0.4c-1.6,1.9,0-0.6-2.2-0.6
		c-0.4,0,0.2,0.7,0.1,0.7s-1.1-0.2-1.2,0.6s1.8,0.3,1.8,0.2l-0.2,0.7c0,0-1.5,0-1.3,0.3s1.3,0.1,1.5,0.4s-0.4,1-0.5,0.9
		C159,94.5,161.8,92.4,163.5,92.3z"/>
	<path class="st2" d="M168.2,108.9c2.2,0,2.8-1.6,2.6-3.2s1-0.6-0.3-1.3c-0.5,0-1.1,0.1-1.6,0.3c-0.1,1.2,0,0.2-1.2,0.8
		S167.7,108.9,168.2,108.9z"/>
	<path class="st2" d="M174.8,98.2c0.2-0.2,0.4-1.1,0.1-1S174.7,98.3,174.8,98.2z"/>
	<path class="st2" d="M170.7,100.3c-0.2-0.2-0.8,0.8-0.6,0.8S170.8,100.4,170.7,100.3z"/>
	<path class="st2" d="M170.5,101.4c0.8-0.6,0,2.7,0,2.3s1.1,0.3,0.9,0.3c0.2-0.2,0.4-0.4,0.5-0.7c0.4,0-0.2,1.4-0.2,1.5
		s1.3-0.3,1.4-0.2s-0.7,2.1-0.6,3.1c-0.5,0.1-0.8,0.4-0.9,0.9c0.6,0.2,1.3,0.3,2,0.3c0.1,0.2-2.8,0.8-2.1,1.8s5.2-1.2,5.5-1.5
		s-0.6-0.1-0.5-0.3c0.5-0.4,0.7-1.1,0.5-1.7c-0.4-1.1-0.9-0.5-1-0.8s-1.2-3.1-2.6-3s0.9-1.5,0.8-1.7s-1.1,0.1-1.7-0.5
		s1.2-1.2,0.8-1.5S170.5,101.4,170.5,101.4z"/>
	<path class="st2" d="M185.2,104.7c-0.2,0,2-0.6,1-1.3S185.1,104.7,185.2,104.7z"/>
	<path class="st2" d="M191,101c-0.5,0-0.7,1-0.6,1.1S191.4,101,191,101z"/>
	<path class="st2" d="M193.5,100.7l0.9-0.6C194.9,99.5,192.6,100.8,193.5,100.7z"/>
	<path class="st2" d="M194.2,99.6c0.1-0.2-0.7-0.2-0.5,0s0.3,0.2,0.4,0.1L194.2,99.6z"/>
	<path class="st2" d="M190.7,65.4c0.7,0.6,2-0.1,2.8,0.4l-1.7,0.6c0.5,1.1,6.4,0.6,6-1.1c-0.1-0.2-3.9-0.7-3.7-0.8
		c-0.3,0.2-0.3,0.6-0.2,0.9c-0.3,0.2-1.8-1-2.2-1l-0.5,0.7l-0.6-0.5C189.9,64.6,190.6,65.3,190.7,65.4z"/>
	<path class="st2" d="M185.7,67c-1.2-0.3,0.6,1.9,0.9,2s1-1,1.5-1.2s-0.2,0.8,0.2,0.7c0.2-0.2,0.5-0.3,0.8-0.3
		c0.4,0.5-2.5,1.6-2.1,1.7s1.5-0.3,2.3-0.1c-0.8,0.1-1.6,0.4-2.3,0.7c0,0.7,1.3,0.7,1.6,0.8s-0.2,0.3-0.4,0.3
		c0.4,0.2,0.8,0.3,1.2,0.3c0.5-0.6,0.9-1.3,1.3-2c0.1-0.1,1.3-2.9,2-1.8s0.3,2.4,0.1,2.4s3,0.5,2.9-0.8c0,0.7-2.8-2.1-2.8-2
		c-0.8-0.6-1.9-1-2.9-1c0.4,0-0.6-1.3-1-1.4s0.1,2.4,0.2,2.2c0.6-2.7-1.9-0.6-1.9-0.6l-0.8-0.7l0.7-0.2
		C187,66.1,182.6,66.2,185.7,67z"/>
	<path class="st2" d="M185,68.6l0.5,0.4c-0.2,0-0.5-1.4-1-1.2S184.6,68.4,185,68.6z"/>
	<path class="st2" d="M329.2,93.5c-0.4,0-0.7,0.1-1,0.4c0.2,0.2,2.5,0.7,2.5,0.2C330.3,93.7,329.8,93.5,329.2,93.5z"/>
	<path class="st2" d="M289.7,118.3c-0.1-0.8-1.9,2.6-1,2.1l0.7-0.4l-0.5-0.6c0,0.2,5.2,0.1,5-2.1c0.1,1.2-4.4-0.8-3.8-1.2
		L289.7,118.3z"/>
	<path class="st2" d="M280.1,129.3c0.3,0.6,0.5-0.7,0.7-0.1s-0.4,2,0.2,1.8s1.4-1.8,0.6-2.1S279.5,128,280.1,129.3z"/>
	<path class="st2" d="M283,129.1c0.2-0.7,1.2,0.2,1.2-1s-1.3,0-1.3,0.1S282.8,129.9,283,129.1z"/>
	<path class="st2" d="M284.8,126.5c0,0-4,0.1-3.7,1.5c0.3,1.4,3.4-0.3,3.6-0.3s0.7,0.5,0.9,0.5s0.1-0.8,0.2-0.9s2.5,0.4,3.2-0.5
		s1.6-5.5,0.7-6s-1.7,3-2.2,3.7S284.9,125.2,284.8,126.5z"/>
	<path class="st2" d="M264.4,142.8c0.1-0.4,0.3-0.7,0.4-1.1s-2.1-0.1-1.7,0.7S264.3,144.1,264.4,142.8z"/>
	<path class="st2" d="M272.8,139.6c0.4-0.3,1.3-2.3,1-2.7S271.9,140.3,272.8,139.6z"/>
	<path class="st2" d="M272,145.1c-0.5,1.8,5.4,4.3,4.2,5.7c1.9-2.3-2.3-3.2-2.7-4.2s1.5-2.5,0-3.4S272.1,145,272,145.1z"/>
	<path class="st2" d="M271,150.8c-0.4,0.4-0.8,0.9-1,1.5c-0.1-0.2,2.1-1.6,1.7-2.4C271.3,150.1,271.1,150.4,271,150.8z"/>
	<path class="st2" d="M272.5,147.8c0.1,0.3,0.2,1.1,0.8,0.9S272.5,147.5,272.5,147.8z"/>
	<path class="st2" d="M275.9,150.9c-0.2-0.2-0.7,0.3-0.6,0.5S276.1,151.2,275.9,150.9z"/>
	<path class="st2" d="M276.7,151.4c0,0-3.5,2.2-2.9,2.2s0.8-0.9,1.4-0.5s0.2,1.8,1.4,1.8c-0.9,0,0.9-1.8,0.8-1.5
		C277.6,152.7,277.3,151.9,276.7,151.4z"/>
	<path class="st2" d="M273.8,149.1c-0.3,0.3-0.3,0.9,0,1.2c1.5-0.3-0.5,1.2,0.7,1.4S275.5,148.7,273.8,149.1z"/>
	<path class="st2" d="M298,164.2c0,1.1-2.7,0.4-2.7,0.7s4.1,0.1,3.2-1S298.1,163.9,298,164.2z"/>
	<path class="st2" d="M299.1,164.1c0.7-0.2-0.6-1.1-0.7-1.1S298.8,164.2,299.1,164.1z"/>
	<path class="st2" d="M294.5,166c0.6,0-2.1-2.3-2.7-2.6s-4.1-2.1-5.5-2s-1,1.3-1.5,1.2s-0.4-1.3-1.1-1.5s-0.6-1-1.7-0.8
		s-1.3,0.8-0.9,0.9s2.3,1.2,2.3,0.9s-1.3,0.1-1.4,0.2l2.4,1.5c0.2,0.1,2.1,0.5,2.8,1.7s-1,1.2-0.7,1.8s4.4,0.1,4.8,0.1
		c0.9,0,1.8,0.3,2.6,0.7c-0.1,0,3.4,1.7,3.1,1.1S293.8,165.9,294.5,166z"/>
	<path class="st2" d="M240.7,151.1c-0.5,0.1-0.5,3.1,0.1,3.4S242.1,151,240.7,151.1z"/>
	<path class="st2" d="M215.2,170.5c0,0-1.1,2-1.3,2.2s-1.8,0.8-2.2,1.2s-0.4,1.9-0.6,3.8s-1.7,6.7,1.9,4.9s1.7-6.9,2.4-8.8
		c0.1-0.3,0.7,0.5,0.7-0.5C216,172.3,215.6,171.4,215.2,170.5z"/>
	<path class="st2" d="M218.8,148.6c0.2,0.3,0.8-0.1,0.8-0.2S218.5,148.2,218.8,148.6z"/>
	<path class="st2" d="M304.6,168.4c0,0.4,0.6,0.6,0.8,0.5S304.5,168,304.6,168.4z"/>
	<path class="st2" d="M302,166c0,0.1,0.6,0.7,0.7,0.6S302.1,165.8,302,166z"/>
	<path class="st2" d="M304.7,167.5c0.2-0.1-1.1-0.9-1.1-0.6S304.5,167.7,304.7,167.5z"/>
	<path class="st2" d="M300.5,164.9c-0.1,0.2,0.7,1.4,1,1.2S300.5,164.6,300.5,164.9z"/>
	<path class="st2" d="M305.4,167.5c-0.2,0.4,0.6,1.2,0.7,1.2S305.6,167.2,305.4,167.5z"/>
	<path class="st2" d="M306,169.3c0.1,0.1,0.6,0.5,0.8,0.3S306,169.1,306,169.3z"/>
	<path class="st2" d="M280.4,170.5c0.1,0.2,1,0,1-0.3S280.1,170.3,280.4,170.5z"/>
	<path class="st2" d="M299.4,185.7c0,0-0.4-2.6-0.2-2.5c-1.5-0.7-3.8-3.9-4.9-5.6c-0.7-1.4-1.2-2.8-1.7-4.2
		c-0.4-0.8-1.1-0.2-1.3-0.8s0-2.4-0.8-3.1s-0.9,3.9-0.9,3.9c-0.8,2.3-0.3,2.4-2.4,1.6s-2.4-1.1-2.5-1.9s1.4-1.8,1.2-2.2
		s-3.8-1.1-3.9-1.1c-0.1,0.2,0,0.4,0.1,0.5h0.2c-1.1-1.2-2.8,3.3-2.3,3.2s-1.6-0.3-1.1,0c-1.3-0.8-1.1-1.5-2.7-0.4s-0.7,1.7-1.3,2.4
		s-0.3-0.9-0.5-0.7s-0.2,1.3-1,1.9c-0.7,0.6-1.6,1.1-2.5,1.4c-1.3,0.4-2.5,1.1-3.5,2c-0.2-0.2-0.2-0.3-0.1-0.5
		c-0.2,0.5-0.3,1.1-0.4,1.6c0,0.5,0.4,2.3,0.3,2.6c-0.2-0.1-0.4-0.2-0.5-0.4l0.3,0.6l-0.6-0.5c-0.2,0.6,1.5,3.6,1.6,4.3
		c0.1,1.1,0.1,2.2,0,3.3c1.1,2.3,2.7,0.8,4.5,0.2c1.3-0.3,2.6-0.8,3.9-1.3c1.1-0.4,3.5-1.2,4.7-1s4.5,3,3.7,3.4s1.8-2,1.9-1.9
		l-0.9,1.9c-0.1,0.3,1.3-0.9,0.9-0.5s0.3,1.3,0.2,1.2s1.8,2.3,2,2.4h3.5c0.1,0.2,0.1,0.4,0,0.6c-0.2-0.3,0.9,0.3,1.1,0.6
		s3-1.6,2.9-1.5c0.3-1.5,0.8-2.9,1.3-4.3C298.1,190.2,299.1,185.9,299.4,185.7z"/>
	<path class="st2" d="M285.5,193.6c0.3,0.2,0.7,0.1,0.9-0.2C286.5,193.2,285.3,193.4,285.5,193.6z"/>
	<path class="st2" d="M293.6,199c-0.5,0-1-0.2-1.4-0.4c0.2-0.1,0,3.7,2.1,2.7S295.7,198.8,293.6,199z"/>
	<path class="st2" d="M311,205.7c0.1,0,0.5-0.1,0.3-0.4S310.7,205.6,311,205.7z"/>
	<path class="st2" d="M319.1,195.7c-0.5,0.9-1.5-1.3-1.6-1.3c-0.1,0.1-0.1,0.3-0.1,0.5c-0.5-0.9-1.1-1.7-1.9-2.4l1.3,2.7
		c0.4,1.1-0.8,1.1-0.8,1.7c0.3,0.8,0.6,1.6,0.8,2.5C317.9,201.3,320.1,193.9,319.1,195.7z"/>
	<path class="st2" d="M316.2,198.9c-1-0.8-7.1,4.6-5.3,5.8S317,199.6,316.2,198.9z"/>
	<path class="st2" d="M320.2,175.3c0.2,0.1,0.8-0.1,0.8-0.5S319.9,175.2,320.2,175.3z"/>
	<path class="st2" d="M319,176.4c0.3,0.3,1,0.3,1-0.3S318.8,176.1,319,176.4z"/>
	<path class="st2" d="M214.9,64.5l-0.8,0.5c0.3,0.8,3.5-0.7,3.5-0.9C216.7,64,215.8,64.2,214.9,64.5z"/>
	<path class="st2" d="M219.4,65c0-0.5-1.3,0-1,0.1S219.4,65.4,219.4,65z"/>
	<path class="st2" d="M213.7,64.3c0.4-0.2,0.9-0.3,1.4-0.2c0.2-0.5-2.8,0-2.7,0.2C212.7,64.7,213.3,64.7,213.7,64.3
		C213.7,64.3,213.7,64.3,213.7,64.3z"/>
	<path class="st2" d="M215,85.3c0.6,0.7,1.1-0.3,1.4-0.4S213.7,84,215,85.3z"/>
	<path class="st2" d="M220.1,77.4c-1,0.9-1.9,1.9-2.7,3c0,0.1,1.4,1.3,1.3,1.3s-0.1-0.4,0.1-0.5s3.5,3,3.6,1.3s-1.6-1.5-1.6-2.1
		c0.2-0.7,0.5-1.4,0.9-2l1.6-2.1c1.1-1,8.8-4.2,8.5-4.5s-7.7,1.5-8.9,2.2S221,76.2,220.1,77.4z"/>
	<path class="st2" d="M295.7,75.7c0.7,0.2,1.5,0.1,2-0.4C297.9,73.5,289.9,75.3,295.7,75.7z"/>
	<path class="st2" d="M289.6,76.7c0-0.4-1.3,0.1-0.8,0.3S289.6,77.1,289.6,76.7z"/>
	<path class="st2" d="M255.6,69.6c0.5,0.3,4.8-0.4,4.9-1.2s-2.5-1.1-2.4-0.5C257.7,64.2,256.2,70,255.6,69.6z"/>
	<path class="st2" d="M251.9,65.9l-0.6,0.8c1.3,1.2,4.2,2,4.4,0S251.9,65.5,251.9,65.9z"/>
	<path class="st2" d="M250.6,65.2c0.8,0.3-0.7,0.4-0.7,0.4c0.6,0.1,1.3,0.1,1.9,0c0.4-0.1,2.9-0.9,2.5-1.5
		C252.3,61.7,250.3,65,250.6,65.2z"/>
	<path class="st2" d="M266,76.2c-0.6,1.2,0.9,0.3,0.9,0.1c-0.2-0.2-0.5-0.3-0.8-0.2L266,76.2z"/>
	<path class="st2" d="M219.9,64c0.4,0.4,2.7,0.5,2.8-0.3s-1.9-0.6-2-0.6S220.1,64.2,219.9,64z"/>
	<path class="st2" d="M250,63.3c0.1-0.4-1.5-0.2-1.1,0.2c0.3,0.2,0.7,0.2,1,0C249.9,63.4,250,63.4,250,63.3z"/>
	<path class="st2" d="M321.7,82.3c0.1,0.1,2.2,0,1.8-0.5s-3.1,0.5-3,0.6L321.7,82.3z"/>
	<path class="st2" d="M286.5,75c0.8,0.5,1.7,0.7,2.6,0.6c0.7-0.2,2.3-1.1,1.7-1.4s1.2,2.2,1.7,0.6s-0.8-1-1.9-1.3h-2.1
		C288.8,73.3,284.7,74,286.5,75z"/>
	<path class="st2" d="M291.5,78.4c1.3-0.3-3.3-1.8-2.4-0.4S291.1,78.5,291.5,78.4z"/>
	<path class="st2" d="M327.9,90.6l0.9,0.2c0.2,0-0.3-0.3-0.2-0.3s1.6-0.5,1.1-0.7s-3.7-2.2-3.7-1.4c0.1-0.9,0.4,1.4,0.2,0.9
		c-0.6-2.2-5.3-4.7-7.9-5.3c-1.6-0.3-3.2-0.2-4.8,0.2c0.1-0.1,0.6,1.1-0.1,1.5s-1.9-1.2-1.5-1.3s0.8,0.6,0.9-0.2s-3,0.3-3.5,0.3
		h-2.2c-1-0.1-0.5,0.7-0.9,0.9s-1.3-1.5-1.2-1.5c-1.5-1.2-1.3-1.4-3.9-1.6c-0.8-0.1-4.7,0-5.1-1.2s1.2,0,0.8-0.5s-3.9,0.1-3.9,0.3
		l0.6-0.5l-0.9-0.3c-0.3-0.4,1.2,0,1.3-0.2s-6.6-0.6-5.9,0.4h0.6c-0.4-0.3,0.1,1.6,0,1.1s-1.5-0.2-1.8,0l0.5,0.3l-4.6-0.9
		c-0.3-0.1-0.8,1.8-1.4,1.7s-1.7-2.3-2.2-2.3c0.3,0.2,0.6,0.2,0.9,0.2c1.2-0.7-3.1-3.3-4-3.1s-0.8,1.6-1,1.6s-3.8,0-3.9-0.4
		s0.4-0.5,0.2-0.6c-1.8-0.5-3.2,0.4-4.3,0.5s0.1-1-0.4-1.1s-3.1,0-2.8,0.3h0.5c0,0.4-3.6,1-3.7,1.2c0.8-2,6.7-2.6,6.2-4.7
		c-0.1-0.6,0.3-1.1-1-1.7s-3,0.4-4.5,0l0.6-0.8c0,0.2-2.1-0.4-2.3-0.3s1.4-0.3,1.1-0.7s-3.1,0.4-3.9,1s-1.6,2.3-1.7,1.1l0.6,0.4
		c0.1-0.3-2.3,0.2-2.4,0.2l0.2-0.5l-2.6,0.5c0.1,0.2,0.3,0.3,0.5,0.4c0-0.3-3.9,1-4.2,1.1s-0.4,0.4-0.8,0.9h-0.7
		c-0.1,0.1,0.8,0.5,0.8,0.6h-0.6c0,0,0.9,0.6,0.5,1l-2.2,0.2c-6,1.3,0,1.7-1.2,3.3s-3.4-2-4.3-1.2s0.9,0.9,0.7,0.9s-1.1-0.5-1.5,0.1
		s2.2,1.3,2,1.6l-2.6-0.6c-0.5-0.6,0.9-2.2-0.2-2.6s-1.7,4.8-1.3,5.4s3.3,0.7,4.1,3.1s-2.2-1.7-1.1-1.3c-0.8-0.3-0.5-1-1.6-0.8
		s0,1.1-0.6,1.8s-1.5,2-2.3,2.2s-2.5-0.1-2.3-0.7s2.9-0.3,3.4-1.9s-0.2-1.8-0.4-3c-0.1-1.3-0.1-2.5,0.1-3.8
		c-1.7-2.8-4.6,0.4-4.7,2.4c0-0.6-0.1,2.1-0.2,1.7s3.1,2,1.3,2.3s-6.4-4.3-7.9-3.4c0.4-0.2,2.7,4.1,0.5,3.1s0-0.4-2.1-0.2l-3,0.3
		c0.3-0.2,0.7-0.4,0.7-0.9s-4.3,1.7-4.9,2s-0.6,1.9-2.2,0.9s0.8-1,1-1.2s-2.8-1.8-2.7-1.2s0.8,2.6,0.2,2.1c1.6,1.2-0.3,1.1-0.4,1.2
		c-1.9,1.5-1.9-0.2-2.3,2.6c0,0.4-1.5-0.5-1.8-0.3l-0.9-0.6c-0.6,0.2-0.7,0.6-0.3,1s1.3,2-0.3,0.7s-2.6-5.1-3.5-4.6
		c0.6-0.3,9.6,4,6.9-1c-0.5-0.9-6.2-3.3-6.6-2.7l0.6-0.2c-0.1-0.7-1.5,0-1.6-0.2s-1.3,0.5-1.6-0.5s1.5-0.2,1.5-0.4s-2.6-0.1-2.2-0.1
		s0.1-0.9,0.1-1s-1.1,1-1.4,1s0.1-1-0.1-0.9l-1.2,1.2c-0.4,0.1,0.8-1.4,0.8-1.4l-1.4,0.7c0,0-1.6,1.1-1,1s0.2-1.8,0.3-1.4
		s-1.2,0.1-1.2,0.4l0.4,0.6H193l0.4,0.4l-1-0.3c0-0.1,0.3,1.1,0,0.8s-0.5-1-1.3-0.6l-1.7,1.4c0,0.2,0.8-0.1,0.7,0.5h-1.4
		c0-0.2,0.1-0.5,0.2-0.7c-0.8,0.7-1.6,1.5-2.4,2.1s2-1.6,2.7-0.9v0.7c-1.9,0.7-2.5,3.8-4.2,4.6s0.7,0.6,0.4,0.7
		c-0.6,0.4-1.3,0.9-1.8,1.5c-0.8,0.7-0.7-0.7-0.7-0.2s-0.6,0.2-1.1,0.9l0.4,0.4c-0.5-1.2-1.9,1.9-1.8,1.7c-0.3,1.8,0.9,1.2,1,1.5
		s-1.1,0.5-1.1,0.5v0.8c0,0.4,0.7-0.4,0.9,0s-0.5,0.5-0.6,0.6s3.2,0.4,2.7,0.5s1-1.2,1.4-1.4s2,5.4,2.2,5.4s2.6-2.2,2.9-2.3
		s-0.3,0.4-0.5,0.2s2-2.6,2-3.8s-1.7-0.8-1.2-2.9s1.3-1.4,2-2.3s1.3-2.8,2.3-3.2c4.5-1.5-1.1,3.8-1.2,4.1c-0.2,1.2-0.2,2.4,0.2,3.5
		c1.3,1.3,3.7,0.3,5,0l0.4-0.6l-0.4,0.6c0.6,0,1.2,0.2,1.6,0.6c0.3,0.3-3.9,0.8-3.7,0.7c-2.7,1.3-0.1,1.2-0.7,2s-1,0.3-1.3,0.6
		s-2.1,0.2-1.4,1.7s-0.7,2-1.6,2.3l-2.9,0.3c-1.3,0.2-0.6,0.4-1.2-0.5s-1.8,1-2,0.8c-0.1-0.2-0.1-0.4,0-0.6c-0.4-0.1-1.5,0-1.3-0.9
		s0.9,0.5,1,0.1s-0.5-0.3-0.7-0.6s1-2.1,0.4-2.7s-1,1-1,1s-0.8-0.3-0.9,1.4s1.1,1.8,0.8,2.4s-2.5,0.8-2.9,1.1
		c-0.8,0.7-1.5,1.4-2.2,2.2l-1.5,1.4c-0.7,0.2-1.5,0.3-2.2,0.3c-0.5,0.2,0.4,1,0,1.3s-1.7-0.7-2-0.2s0.4,0.4,1.1,1.5
		s2.5,3.4,0.2,4.5s-3.6-0.8-4.4-0.4s-0.3,0.8-0.7,2.3c-0.7,3-0.6,4.3,1.9,5.1c1.9,0.6,3.9-0.1,5-1.7c1.1-1.6,1.8-4.2,3.5-5.3
		c1.1-0.1,2.3-0.2,3.4-0.5c1.7,0.1,0.6-0.2,2.1,1c-0.1,0,5.7,5.2,4.1,5.2c0.9,0,0.6-2.3,0.7-2.3c0.4-0.1,0.7,0,1,0.3
		c-0.6-0.2-6.3-6.3-3.5-6.2c0.3,0,3.3,3.4,4.3,4c0-0.1,0-0.2,0.1-0.3c-0.1,0.1-0.1,0.2-0.1,0.3c-0.9-0.6,2.5,5.2,2.5,3.9
		s-1.5,2.9,0.5,1.8c0-0.3-0.1-0.6-0.2-0.9h0.6c0.2,0-0.6-0.3-0.4-0.5s1.1,0.3,1-0.4s-0.7,0-1-0.4c0-0.6-0.1-1.2-0.3-1.8l0.9,0.2
		c0.6-0.3,3.5-0.2,4.2-1s-1.2-1.5-1.1-1.8c0.3-0.8,0.8-1.6,1.4-2.2c0.3-0.5,0.4-1.6,1.1-1.9s2.4-0.1,2.5,0.5
		c-0.3,0.3-0.7,0.5-1.1,0.6c0-0.2,0.9,1.2,0.9,1.1l2.5-0.7c0.1-0.2-2.3-0.1-1.1-1.3s3-1.3,3.1-0.9s-1.9,1.9-1.8,2.2s4,1.9,3.9,3.2
		s-2.3,1.2-3.6,1.2s-0.9-0.6-1.5-0.7c-1.5,0-2.9,0.2-4.3,0.8c-2.1,0.6-4.4,1.6-2,4.1s2.3,0.6,3.5,0.7s3-0.6,3.4-0.4
		s-0.8,3.3-0.9,3.6l0.4,0.2l0,0l-0.4-0.2c-1.3,3-3.7,2.4-6.8,1.8c-0.9-0.2-1.6-0.6-2.4-0.7s-0.6-1.3-2.4-0.3s-0.4,1.5-0.5,1.5
		s-5.6-1.1-6.8-2.4s0.8-2.2-0.1-3.5s-4.3-0.1-5.3,0.1c-1.3,0.2-2.6,0.5-3.8,1c-1.3,0.3-2.4,0.2-3.6,0.5s-0.6-0.1-1.5,0.4
		c0.9-0.5-2.1,2.2-1.7,1.6c-0.5,0.7-0.9,1.5-1.2,2.3c-0.4,0.6-0.3,1.3-0.8,2.1s-1.1,0.6-1.5,1.1c-1.1,1.2-2,2.6-2.6,4.2
		c-0.7,1.8-0.3,2-0.4,3.6s-0.5,3-0.5,4.4s0.8,2.2,1.6,3.4c1.7,2.8,3.7,5.4,7,5.7c1.8,0.1,3.5-0.2,5.2-0.7c0.2-0.1,2.4-1.3,2.6-1
		l1.9,1c0.3,0.1,0.1,0.8,0.5,1s0.8-0.4,1.1-0.2s1.1,0.2,2,2.2c0.2,0.4-0.4,1.8-0.3,2.1c0.5,1.3,1,2.6,1.7,3.9c1,1.9,2,4.4,1.8,6.2
		s-1.6,3.4-1.7,5.4s1.8,4.6,2.1,6c0.5,2.2,1.2,4.4,2.1,6.5c1.2,3.3,0.2,4,3.9,3.6s5.5-1.6,7.4-5.1c0.3-0.9,0.5-1.8,0.6-2.8
		c1.3-1.9,2.1-0.9,2.4-3.2s-0.8-1.7,0.1-3.4s2.8-1.5,3.6-2.6s-0.1-5.2-0.6-7.7s0.9-4.5,2.7-6.5s9.7-10.3,7-11.3s-4.1,2-6.3,0.6l0,0
		c-0.5-1-1.1-2-1.7-3s-2.4-2.4-3-4.1s-3.9-10.7-4-10.6s0.8,2.3,1.3,2.3c0.3-0.4,0.4-0.8,0.5-1.3c0.6,0.3,2.3,4.2,2.6,4.9
		s2.3,3.9,3.3,6s0.4,3.2,1,3.9s2.9,0,4.3-0.6c2.6-0.9,5-2.4,7.1-4.3c0.2-0.1,2.2-2.5,2.1-3s-3.1-4-2.7-4s-1.8,2.3-3.3,2.1
		s0-1.6-0.8-1.8s-0.6,0.8-0.6,0.8s-2.5-4.3-1.6-4.8s4,2.8,5.2,3.4h1.7c0.2,0,0.6,0.7,1.1,0.9c1.4,0.2,2.9,0.3,4.3,0.3
		c1-0.1,2.1,0.1,3,0.6c-0.2-0.1,2.6,2.5,2.6,1.8c-0.3,0.3-0.7,0.4-1.1,0.4c-0.6,3,3.5,0.5,2.8,0.2s3.9,20.9,6.2,8.8
		c0.6-3.4,1.8-4,4.3-6.5c0.5-0.5,3.5-3.3,4.2-2.9s1.5,5.4,2.3,6.2s1.4-3.4,2.7,1.9c0.4,1.7-0.1,3.7,0.3,5.2s3.3,7.1,4.7,6.3
		s-1.8-4.3-2.3-4.9s-3.2-5.2-0.8-6c0.7-0.2,2.2,1.8,2.5,2.2c0.5,0.7,0.9,1.4,1.2,2.1c0.2,0.1,1.8-1.5,1.9-1.6c2.5-2.4,1.5-3,0.1-5.7
		s-2.1-3.4,0.3-4.4s1.1,0.2,1.9,1s6.6-3.5,7.3-4.4s2.4-4.9,2.7-4.8s-0.9,0-1.1-0.2s1.2-1.7-0.4-1.7c0,0,1.4-0.1,1.2,0.1
		s-2.1-3.1-2.1-3.2l2.6-2c0.8-0.6-3.3-0.6-2.3-0.1c-0.6-0.5-1.2-1-1.7-1.6c0.1-0.3,3.3-2.5,3.7-2.2s-0.9,2.1-0.7,2.1
		c2.6,0.1,1.2-1.6,3.3-0.2c-0.9-0.6,0.4,1.6,0.2,1.2s0.9,0.2,1.1,0.8s-0.7,1.9-0.3,2.5s2.4-0.8,2.5-0.9s-0.7-2.1-0.9-3.1
		s-0.5-0.1,0.3-2c0.5-1,1.2-1.9,2-2.7l0,0c1-0.8,1.2,0.3,2.3-0.1c1-0.7,1.9-1.6,2.5-2.6c1.4-1.7,2.4-3.7,2.9-5.8
		c0.2-1.2,1-2.6,0.4-3.6s-1.5-0.2-2.7-0.1s-0.1-1-0.1-1l-0.6,0.6c0,0-1.3-1.7-1.3-1.2s2.2-2.2,2.8-2.7s2.6-2.9,5.1-3.2
		c0.6-0.1,5.9,0,5.7,0.3l-0.5,0.2c-0.4,0.3,3.3-0.2,3.1-0.4s2.8-4.4,4.3-3.4c-0.2-0.1-0.1,1.6-0.2,1.5s4.2-3.2,4.1-2.3s-3.5,4-4.7,5
		s-2.2,1.1-2.9,3.2s-0.2,5.4,0.8,6.5s5.2-6.4,5.3-6.5s-0.1-2.3,0-1.9s-1.3-0.7,0.1-2.4c0.7-0.5,1.4-0.9,2.2-1.2
		c0.1,0.2,0.2,0.5,0.1,0.7c-0.3-1.3,3.5-0.1,3.4,0s1.7-1.5,2.5-2s3.8-1.2,4.1-1.4c2-2-1.2-1.9-1.6-3.3c0.2,0.5,2.9-0.5,3.3-0.8
		s-0.2-0.9,0.8-1.4c-0.6,0.3,4.1,3.7,5,2.8c0-0.2-0.1-0.4-0.3-0.5C327.5,91.6,328,90.7,327.9,90.6z"/>
	<path class="st2" d="M226.5,64.1c0.8-1-3.1-0.4-2.3,0.3C225,64.8,225.9,64.7,226.5,64.1z"/>
	<path class="st2" d="M222.5,64.6l-1.2,0.4c-0.4,0.6,2.5,0.5,2.7-0.1S222.4,64.5,222.5,64.6z"/>
	<path class="st2" d="M222.3,63.2c0.2,0,1.6-0.5,1.5-0.6s-2.5,0.4-2.5,0.3C221.6,63.2,221.9,63.3,222.3,63.2z"/>
	<path class="st2" d="M290.4,109.4c0.5,1.3-1,4.9-0.2,6c-0.5-0.7,1.2,0,1.2,0l-0.6-2.1c0.6-1.5,1.2-0.8,1.5-1.1s-1.9-6.2-1.6-6.4
		S290.2,108.8,290.4,109.4z"/>
	<path class="st2" d="M232.9,78.6c0.5,0,0.9-0.1,1.3-0.3C234.7,77.3,231.8,78.4,232.9,78.6z"/>
	<path class="st2" d="M240.5,78.7c0-0.4-0.9,0.1-0.6,0.3S240.6,79.1,240.5,78.7z"/>
	<path class="st2" d="M228.3,64l0.7-0.4c0.3-0.8-2.1,0.2-2,0.3C227.4,64.1,227.9,64.1,228.3,64z"/>
	<path class="st2" d="M308.2,178.5c0,0.3,2,2,2.3,1.8S308.1,178.2,308.2,178.5z"/>
	<path class="st2" d="M112.1,136.7c-0.4-0.8,0.1,1.7,0.3,1.3L112.1,136.7z"/>
	<path class="st2" d="M125.4,150.7c0.6,0.1,0.7-0.1,0.5-0.6S125.2,150.5,125.4,150.7z"/>
	<path class="st2" d="M262.5,162.4c0-0.2-0.6-0.1-0.4,0.2S262.5,162.7,262.5,162.4z"/>
	<path class="st2" d="M267.5,167.5h0.9c0.5-0.3-2.3-0.8-2.2-0.8s0.4-0.7,0.8-0.6l0,0c-0.7,0.5-6.9-1.6-6.5-0.1
		S267.2,167.9,267.5,167.5z"/>
	<path class="st2" d="M274.9,167.5c0.6,0,0.7-0.1,0.2-0.3l-3.2,0.4C272.3,168.5,274.3,167.5,274.9,167.5z"/>
	<path class="st2" d="M270,167.2c-0.2,0.6-0.8-0.2-1,0.2s2,0.8,2.2,0.2S270.1,166.9,270,167.2z"/>
	<path class="st2" d="M263,159.3c1.8,1.8,0.9,3.4,3.9,3.6s2.6-1.9,4.2-3.9c-0.4-0.7-0.8-1.5-1-2.3c0-1,1.2-0.9,1.4-1.5
		s-2.3-1.1-2.5-1.1s-0.4,1.6-1.8,1.5l-2.4,2.8C265,157.9,261.7,158,263,159.3z"/>
	<path class="st2" d="M253.5,158.6c0,0.2,0.2,1,0.5,0.7S253.6,158.3,253.5,158.6z"/>
	<path class="st2" d="M254.7,160.8c0,0.1,0.2,0.7,0.4,0.5S254.9,160.4,254.7,160.8z"/>
	<path class="st2" d="M260.7,163.7c-0.1-1.1,0.5-0.8,0.5-1.5s-1-1.2-1-0.7l0.5,0.7c-0.2,0.5-2.7-3.3-2.8-3.4s-5.5-4.5-5.8-4
		s3.9,6.1,4.4,6.9S260.9,167.2,260.7,163.7z"/>
	<path class="st2" d="M272.7,168.9c0-0.7-1.4-0.3-1.5-0.4S272.7,169.6,272.7,168.9z"/>
	<path class="st2" d="M271.1,162.2c-0.1,0.2,1.5,2.5,0.9,2.8s0-2.9,0.6-2.6s-0.1,2.2,1.5,1c-0.8,0.7,0-4.3,0.7-2.9s-3.6,1.1-2.7-0.4
		s3.2,0.3,4.1-1.5c-0.5,1-2.7-0.3-3.4,0.2S271.7,161,271.1,162.2z"/>
	<path class="st2" d="M278.7,162.8l2.1,0.5C281.7,163.3,278.2,161.3,278.7,162.8z"/>
	<path class="st2" d="M278.8,158.6c0-1.7-1.5,1.9-0.1,1.6S278.8,158.6,278.8,158.6z"/>
	<path class="st2" d="M276.1,168.5c0.4-0.6,1.8-0.6,2-1.2s-2.2,0.7-2.4,0.7s-1.2,0.8-0.6,1.1C275.5,169.1,275.9,168.9,276.1,168.5z"
		/>
	<path class="st2" d="M277,162.8c0.1,0.4,0.8,0.7,1,0.3S276.9,162.3,277,162.8z"/>
	<path class="st2" d="M182.5,120.9c-0.2,0.4,0.3,2.8,1.2,1.6S183.1,119.8,182.5,120.9z"/>
	<path class="st2" d="M187.7,123.7c0.2,0-1.8-0.2-1.6,0.4c0.5,0.5,1.1,0.9,1.7,1.1l0.6-1.4C188.2,123.6,187.9,123.6,187.7,123.7z"/>
	<path class="st3" d="M199.8,93.4c-2,0-3.7,1.6-3.8,3.6l0,0c0,1.9,3.5,6.3,3.5,6.3h0.3c0,0,3.7-4.2,3.7-6.3
		C203.4,95,201.8,93.4,199.8,93.4L199.8,93.4z M199.8,98.9c-1,0-1.8-0.8-1.8-1.8c0-1,0.8-1.8,1.8-1.8s1.8,0.8,1.8,1.8
		S200.8,98.9,199.8,98.9L199.8,98.9z"/>
	<path class="st3" d="M196.9,114.2c-1.8,0-3.2,1.4-3.2,3.2l0,0c0,1.6,3,5.4,3,5.4h0.2c0,0,3.3-3.6,3.3-5.4c0-1.8-1.4-3.2-3.2-3.2
		H196.9z M196.9,119c-0.9,0-1.6-0.7-1.6-1.6s0.7-1.6,1.6-1.6c0.9,0,1.6,0.7,1.6,1.6C198.5,118.3,197.8,119,196.9,119L196.9,119z"/>
	<path class="st3" d="M220,103.4c-4.4-0.1-8,3.5-8.1,7.9c0,0,0,0,0,0l0,0c0,4.1,7.5,13.6,7.5,13.6h0.6c0,0,8.1-9.1,8.1-13.6
		C227.9,106.9,224.4,103.5,220,103.4z M220,115.4c-2.2,0.4-4.2-1.1-4.6-3.3c-0.4-2.2,1.1-4.2,3.3-4.6h1.3c2.1,0.3,3.6,2.3,3.3,4.4
		v0.2C223,113.8,221.7,115.1,220,115.4z"/>
	<path class="st3" d="M134.6,168.6c-1.9,0-3.5,1.6-3.5,3.5c0,1.8,3.3,6,3.3,6h0.2c0,0,3.6-4,3.6-6
		C138.1,170.1,136.5,168.6,134.6,168.6z M134.6,173.9c-1-0.1-1.7-0.8-1.7-1.8c0-0.9,0.8-1.7,1.7-1.7c1,0,1.7,0.7,1.8,1.7
		C136.4,173.1,135.6,173.9,134.6,173.9L134.6,173.9z"/>
	<path class="st3" d="M265.7,118.8c-2.6-0.1-4.7,2-4.8,4.6c0,0,0,0,0,0l0,0c0,2.4,4.4,8,4.4,8h0.4c0,0,4.7-5.4,4.7-8
		c0-2.6-2.1-4.7-4.7-4.7l0,0l0,0V118.8z M265.7,125.8c-1.3,0-2.3-1-2.3-2.3s1-2.3,2.3-2.3s2.3,1,2.3,2.3v0l0,0
		C268,124.8,267,125.8,265.7,125.8z"/>
	<path class="st3" d="M288,167.2c-2.6-0.1-4.7,2-4.8,4.6c0,0,0,0,0,0l0,0c0,2.4,4.4,8,4.4,8h0.4c0,0,4.7-5.3,4.7-8
		C292.7,169.2,290.6,167.1,288,167.2L288,167.2L288,167.2L288,167.2z M288,174.3c-1.3,0.2-2.6-0.6-2.9-1.9c-0.2-1.3,0.6-2.5,1.9-2.8
		h1c1.3,0.3,2.1,1.5,1.9,2.8C289.7,173.4,288.9,174.1,288,174.3z"/>
	<path class="st3" d="M98.5,111.6c-2.6,0-4.7,2.1-4.7,4.7l0,0c0,2.3,4.4,7.9,4.4,7.9h0.3c0,0,4.8-5.3,4.8-7.9c0.1-2.6-2-4.7-4.6-4.8
		c0,0,0,0,0,0h-0.2L98.5,111.6z M98.5,118.7c-1.3,0-2.3-1-2.3-2.3v0l0,0c-0.3-1.3,0.5-2.6,1.8-2.9c1.3-0.2,2.6,0.6,2.9,1.9l0,0
		c0.1,0.3,0.1,0.7,0,1c0,1.3-1,2.3-2.3,2.3H98.5L98.5,118.7z"/>
	<path class="st3" d="M186.8,82.8c-2.6,0.1-4.7,2.2-4.8,4.8c0,2.4,4.4,8,4.4,8h0.4c0,0,4.8-5.4,4.8-8
		C191.5,85,189.4,82.9,186.8,82.8z M186.8,89.9c-1.3,0-2.3-1-2.3-2.3c0-1.3,1-2.3,2.3-2.3c1.3,0,2.3,1,2.3,2.3
		S188.1,89.9,186.8,89.9L186.8,89.9z"/>
	<path class="st3" d="M64.9,79.9c-2.6,0-4.7,2.1-4.7,4.7l0,0c0,2.3,4.4,7.9,4.4,7.9h0.3c0,0,4.8-5.3,4.8-7.9c0.1-2.6-2-4.7-4.6-4.8
		c0,0,0,0,0,0h-0.2L64.9,79.9z M64.9,87c-1.3-0.3-2.1-1.6-1.8-2.9c0.3-1.3,1.6-2.1,2.9-1.8c0.9,0.2,1.6,0.9,1.8,1.9
		c0.2,1.3-0.6,2.5-1.9,2.8H64.9z"/>
	<path d="M249.7,199.8"/>
	<path class="st4" d="M136.6,167.1"/>
	<path class="st5" d="M147.6,172.9"/>
	<path class="st6" d="M150.5,168.1"/>
</g>
<g id="Layer_10">
	<path class="st7" d="M124.5,219c0,0-3.3,27.1-3.9,34.6s-3.3,35.6-3.3,35.6l-3.8,0.3c0,0-2-12.7-2-18.1s-2-16-1.9-19.7
		s-2.3-24.1-2-35.5S124.5,219,124.5,219z"/>
	<path class="st8" d="M114.3,219c0,0-3.5,27.1-4.2,34.6s-3.6,35.6-3.6,35.6l-4,0.3c0,0-2.2-12.7-2.2-18.1s-2.2-16-2-19.7
		s-2.6-24.1-2.2-35.5S114.3,219,114.3,219z"/>
	<path class="st9" d="M117.7,289.2c0,0,4.1,2.7,5.7,3.6s4.7,1.4,4.7,2s-1.3,0.8-1.3,0.8h-14.1c0-1.1,0.2-2.3,0.4-3.4l0.6-2.7
		L117.7,289.2z"/>
	<path class="st9" d="M101.8,290.7c0,0-1.8,4-0.8,4.7s11,0.4,13.7,0.2s5.9-1.2,5.6-1.9s-9.3-1.9-10.6-2.6l-4.5-2.7L101.8,290.7z"/>
	<path class="st10" d="M101.9,290.4l4,0.9l0.7-2.1l-0.6-0.6l-3.2,0.9L101.9,290.4z"/>
	<path class="st10" d="M113.5,290.4l3.9,0.9l0.7-2.1l-0.6-0.7l-3.2,0.9L113.5,290.4z"/>
	<path class="st11" d="M111.4,240.1"/>
	<path class="st11" d="M103.4,232"/>
	<path class="st10" d="M132.9,219.1c0,0,3,3.7,3.6,5.3s1.6,5,0.5,5s-1.3-3-1.3-3s0.2,2.8-0.2,3.5s-1-2.9-1-2.9s-0.3,3.1-0.8,2.6
		c-0.3-1.1-0.6-2.3-0.7-3.5c0,0-0.9,3.3-1.3,2.5c-0.2-1-0.2-1.9,0-2.9c0,0-1.4-2.5-2.1-4.2c-0.3-0.8-0.4-1.6-0.5-2.4L132.9,219.1z"
		/>
	<path class="st9" d="M126.1,195.4c0,0,2.8,7.1,3.7,10.8s3.8,12.7,3.8,12.7l-4.5,1.4c0,0-4.2-7.4-5.9-11.2c-1-2-1.8-4.1-2.4-6.3
		L126.1,195.4z"/>
	<path class="st3" d="M124,221.8l-0.8,8.2c-2.3-0.7-4.5-1.6-6.7-2.6c-1.1-0.7-0.9-5.4,0.2-10.9s7.8-21.2,7.8-21.2L124,221.8z"/>
	<path class="st10" d="M116.9,173.2c0.6,0.2,1.1,0.6,1.5,1.1c1.6,2.7,3,5.5,4.2,8.4c2,5.4-0.4,45.2-2.7,42.9c0,0-2.2,3.1-3.3,3h-0.5
		l-1.2-0.5c-1.8-1.4-3.9-2.5-6-3.4c-3.5-1.5-8.2-6.6-9-7.4l-0.3-0.3l-0.8-0.6c-0.6-0.6-0.9-1.4-0.8-2.2c1-6.1,5.1-30.9,5.3-34.6
		s4.7-6.1,7.4-6.8C112.8,172.3,114.9,172.5,116.9,173.2z"/>
	<path class="st9" d="M117.6,175.7c0,0,3,5,3.2,9.8c0.2,2.6,0.6,5.1,1.2,7.6c0,0,1.3,19.7,2.3,23.1s2,8.1,2,8.1s-0.6-20.4-0.1-24.8
		s-4.3-22.5-6.1-24.4c-1.3-1.2-2.9-2.2-4.5-3L117.6,175.7z"/>
	<path class="st10" d="M85.5,233.6l-0.8,5c-0.2,1.7-2.1,2.2-2.3,3.8s-0.1,2.3-0.7,2c-0.6-0.4-0.9-1.1-1-1.8c0,0-5.1-1.7-5.4-2.4
		s6.9-6.5,6.9-6.5L85.5,233.6z"/>
	<path class="st10" d="M118,170.9c0,0-0.8,6-0.8,8.4c0,1,0,2.1-0.1,3.1c-1.9-1.8-3.7-3.8-5.3-5.9c-0.8-1.6-1.9-4.1-1.9-4.1l1.4-5.9
		L118,170.9z"/>
	<path class="st4" d="M121.8,150.4c0,0,3.2,1.9,3.1,7.2c0,2.2-1.3,6.1-2.2,8.9l-0.3,0.9c-0.2,0.6-0.4,1.2-0.5,1.8
		c-0.6,1.9-2.6,3-4.6,2.5c-1.8-0.5-6.5-4.7-7.5-5.5s-2.1-3.8-1.9-8.3S114.1,147.1,121.8,150.4z"/>
	<path class="st9" d="M109.1,172.5c1,4.4,2.1,8.7,3.5,13s1.5,19.1-1.5,26.8s-6.4,17-6.4,17l-9.5-8c0,0,3.9-14.6,3.8-18.3
		s-1.3-27.8,0.3-28.1S101.2,174.2,109.1,172.5z"/>
	<path class="st9" d="M102.6,174c0,0-8.2,0.6-8.3,1.7s-4.7,25.9-5.5,27.3s-3.6,6-4,9.3s-3.1,20.8-3.1,20.8l5,0.2
		c0,0,7.8-18.7,8.4-21.9s10.4-29.4,10.1-31.1c-0.2-1-0.5-2-1-3"/>
	<path class="st3" d="M44,293.1c0-1.3-1-2.3-2.3-2.3h-0.1c-1.2,0.1-2.2,1.1-2.2,2.4c0.1,1.3,1.1,2.3,2.4,2.2c0,0,0,0,0,0
		c1.2-0.1,2.1-1,2.2-2.2L44,293.1z"/>
	<line class="st12" x1="76.3" y1="245.5" x2="43.8" y2="289.2"/>
	<line class="st13" x1="80.9" y1="238.6" x2="75.2" y2="246.5"/>
	<path class="st3" d="M40.7,288.6l-8.3-5.5c-1.5-1.1-2-3.1-1-4.7l0,0L48.3,255c1.2-1.6,3.5-2,5.2-0.9l8.3,5.5c1.6,1,2.1,3.1,1.1,4.7
		c0,0,0,0,0,0h-0.1l-16.9,23.4C44.7,289.3,42.4,289.7,40.7,288.6z"/>
	<path class="st3" d="M27,277.5l4.9,3.2l16.3-22.4l-6-3.9c-1.8-1.2-4.1-0.8-5.4,0.9l-11.1,15.2c-1.5,2.1-1.1,5,0.9,6.7L27,277.5z"/>
	<path class="st9" d="M28.5,278.5l4.9,3.2l16.3-22.4l-6-4c-1.8-1.2-4.1-0.7-5.4,1l-11.1,15.2c-1.5,2.1-1.1,5,0.9,6.7L28.5,278.5z"/>
	<path class="st7" d="M43.3,255l-7.4,9.6c-0.2,0.3-0.2,0.7,0,1h0.2l1.8,1.2c0.3,0.3,0.8,0.2,1.1-0.1l7.4-9.7L43.3,255z"/>
	<path class="st9" d="M42.4,289.7l-8.4-5.5c-1.5-1-2-2.9-1.1-4.5c0.1-0.1,0.1-0.1,0.1-0.2s0.1-0.1,0.1-0.2L50,256.1
		c1.2-1.6,3.4-2,5.1-0.9l8.4,5.5c1.6,1,2.1,3.1,1.1,4.7c0,0,0,0,0,0c0,0.1,0,0.1-0.1,0.1c0,0,0,0,0,0l0,0l-17,23.3
		C46.3,290.4,44.1,290.8,42.4,289.7z"/>
	<polygon class="st10" points="43.6,288 41.8,292.8 42.7,293.3 46,289.5 	"/>
	<path class="st7" d="M57.8,256.9l-8.3,10.5c-0.2,0.3-0.2,0.8,0.1,1.1h0.1l1.7,1.2c0.3,0.3,0.8,0.2,1.1-0.1h0.1l8.3-10.6L57.8,256.9
		z"/>
	<path class="st3" d="M42.9,285.3l-5.3-3.6c-1.3-0.9-1.6-2.7-0.8-4c0-0.1,0.1-0.1,0.1-0.2L41,272c1.1-1.4,3.1-1.7,4.5-0.7l5.2,3.6
		c1.4,0.7,1.9,2.4,1.1,3.8c0,0.1-0.1,0.1-0.1,0.2c0,0.1,0,0.1-0.1,0.1h0c0,0.1-0.1,0.1-0.1,0.2l-4.1,5.4
		C46.3,286,44.3,286.3,42.9,285.3z"/>
	<path class="st9" d="M43.7,286.1l-5.3-3.6c-1.3-1-1.7-2.8-0.8-4.2h0.1l4.1-5.4c1.1-1.4,3.1-1.7,4.5-0.7l5.3,3.6
		c1.3,0.8,1.7,2.5,0.9,3.9c0,0-0.1,0.1-0.1,0.1c0,0.1-0.1,0.1-0.1,0.2l-4.1,5.5C47.1,286.9,45.1,287.1,43.7,286.1z"/>
	<path class="st10" d="M78.8,241.2c0.3-1,3.6-5,2.2-4.1"/>
	<path class="st4" d="M-65.7,133"/>
	<path class="st5" d="M-38,147.6"/>
	<path class="st3" d="M126.4,149c-2.9-1.7-6.3-2.3-9.6-1.8h-0.4l-4.2,1.4c-1.6,0.9-2.9,2.3-3.8,3.9c-0.5,1.6-0.9,3.2-1.2,4.9
		c0.1,0.4,0.1,0.7,0.2,1.1c0.9,3,1,6.1,1.7,6.5l1.7,1.1v-1.5c0,0-2.2-6,0-7.5s3.2-3.7,5.7-3.8s6.4,0.5,8.2,0l1.3-0.4
		C128,151.2,128.2,150.5,126.4,149z"/>
</g>
<g id="Layer_9">
	<path class="st3" d="M251.7,153.2c-2.7,1.8-4.9,4.3-6.3,7.3c-2.1,4.8-0.9,8,1.5,10c2.3,2.1,4,4.6,5.2,7.5c0,1.1-0.3,2.1-0.9,3
		c0,0,4.9,2.6,8.8,1.1s5.3-8.8,4-11.7s-8.9-9.1-9.8-13s-0.4-4.9-0.4-4.9L251.7,153.2z"/>
	<path class="st14" d="M259.1,180.6l-5.9,1.2c0,0-2.7,0.8-4.8,6.1s-3.2,15.6-3.2,15.6l-1.1-1.7l-2.5,3c0,0,4,8.8,5.9,9.1
		s5.1-5.6,5.1-5.6c-0.4,3-1,6-1.8,9c-2,5.9-3,12.1-3.1,18.3c0,9.7,5.3,22.5,6.6,27.3s1.2,8.9,2.2,13.6c0.8,4.3,1.4,8.6,1.7,13
		c-1.1,1.3-2.3,2.5-3.5,3.7s6.8,0.9,7.6,0.3s0.9-2.4,0.9-3.7s-0.1-20.8-0.1-20.8s9.8,16.5,9,18.5s2.7-2.9,2.7-2.9s-1.5-12-2.5-16.6
		c-0.8-3.3-1.9-6.5-3.1-9.6c0,0,8.2-15.9,9-25.8s-3.8-22.9-3.8-22.9s4.2-11,4.3-18.3s-2.2-8.6-5-9.9c-1.4-0.7-2.9-1.2-4.5-1.4
		l-6-0.6L259.1,180.6z"/>
	<g>
		<defs>
			<path id="SVGID_1_" d="M259.1,180.6l-5.9,1.2c0,0-2.7,0.8-4.8,6.1s-3.2,15.6-3.2,15.6l-1.1-1.7l-2.5,3c0,0,4,8.8,5.9,9.1
				s5.1-5.6,5.1-5.6c-0.4,3-1,6-1.8,9c-2,5.9-3,12.1-3.1,18.3c0,9.7,5.3,22.5,6.6,27.3s1.2,8.9,2.2,13.6c0.8,4.3,1.4,8.6,1.7,13
				c-1.1,1.3-2.3,2.5-3.5,3.7s6.8,0.9,7.6,0.3s0.9-2.4,0.9-3.7s-0.1-20.8-0.1-20.8s9.8,16.5,9,18.5s2.7-2.9,2.7-2.9
				s-1.5-12-2.5-16.6c-0.8-3.3-1.9-6.5-3.1-9.6c0,0,8.2-15.9,9-25.8s-3.8-22.9-3.8-22.9s4.2-11,4.3-18.3s-2.2-8.6-5-9.9
				c-1.4-0.7-2.9-1.2-4.5-1.4l-6-0.6L259.1,180.6z"/>
		</defs>
		<clipPath id="SVGID_2_">
			<use xlink:href="#SVGID_1_"  style="overflow:visible;"/>
		</clipPath>
		<g class="st15">
			<path class="st16" d="M274.4,185.9c1-0.6,2.1-1,3.2-1.2l-0.3-0.5l-3.1,1.1c-0.2,0.1-0.3,0.2-0.2,0.4S274.2,186,274.4,185.9z"/>
			<path class="st16" d="M271.5,193.5v0.6c0.8,0.2,1.5,0.6,2.1,1.1c0.1,0.1,0.3,0,0.4-0.1s0-0.3-0.1-0.4
				C273.2,194.1,272.4,193.7,271.5,193.5z"/>
			<path class="st16" d="M278,195.7c0-0.2,0.1-0.3,0.2-0.4h0.1c0.1-0.2,0.1-0.4,0.1-0.6h-0.3c-0.4,0.1-0.7,0.5-0.7,0.9
				c-0.2,1.4-0.2,2.8,0,4.2c0.1-0.6,0.3-1.2,0.4-1.8C277.8,197.2,277.8,196.5,278,195.7z"/>
			<path class="st16" d="M277.7,189.3c-0.1,0.1-0.1,0.3,0,0.4c0,0.1,0.1,0.1,0.2,0.1h0.2l0.5-0.8c0-0.3,0-0.6-0.1-0.9L277.7,189.3z"
				/>
			<path class="st16" d="M274,207.4c0.1,0.1,0.3,0.2,0.4,0.1l0.9-0.4c0-0.2,0.1-0.5,0.2-0.7l-1.3,0.6C274,207.1,274,207.2,274,207.4
				z"/>
			<path class="st16" d="M274,216.8c0.1-0.2,0-0.3-0.1-0.4c-0.7-0.6-1.5-1-2.4-1.2v0.6c0.8,0.2,1.5,0.5,2.1,1L274,216.8z"/>
			<path class="st16" d="M277.5,222c0-0.2-0.1-0.3-0.1-0.4v0.3L277.5,222z"/>
			<path class="st16" d="M266.9,184.1c-0.1,0.1-0.1,0.3,0,0.4h0.4c0.1-0.1,2.1-2.6,1.7-4.5h-0.6
				C268.9,181.2,267.5,183.4,266.9,184.1z"/>
			<path class="st16" d="M263.6,180.6l2.3-0.9h-1.4l-1.1,0.5c-0.1,0.1-0.2,0.2-0.1,0.4H263.6z"/>
			<path class="st16" d="M259.8,186.7c0.2-0.6,0.2-1.2,0-1.8c-0.1-0.3-0.3-0.5-0.6-0.6c-1.5-0.6-4.7,1-4.9,1s-0.2,0.3-0.1,0.4
				l0.4,0.2c0.2,0,3.3-1.5,4.4-1.1s0.3,0.2,0.3,0.4c0.2,0.5,0.2,1,0,1.5L259.8,186.7z"/>
			<path class="st16" d="M251.7,193.5v0.6c0.8,0.2,1.5,0.6,2.1,1.1c0.1,0.1,0.2,0,0.3-0.1l0,0c0.1-0.1,0.1-0.3,0-0.4
				C253.4,194.2,252.5,193.8,251.7,193.5z"/>
			<path class="st16" d="M270.9,193.6c-0.3,0.2-0.5,0.5-0.6,0.9c-0.3,1.5-0.3,3.1,0,4.6c0,0.1,0.1,0.2,0.2,0.2l0,0h0.1
				c0.1,0,0.2-0.1,0.2-0.3c-0.2-1.5-0.2-2.9,0-4.4c0-0.3,0.2-0.4,0.3-0.4h0.4v-0.6H270.9z"/>
			<path class="st16" d="M258.2,194.7c-0.3,0.2-0.5,0.5-0.6,0.9c-0.2,1.5-0.2,3.1,0,4.6c0,0.1,0.1,0.2,0.3,0.2l0,0
				c0.1,0,0.2-0.1,0.2-0.3c-0.2-1.5-0.2-2.9,0-4.4c0.1-0.3,0.2-0.4,0.3-0.4c0.9,0.2,1.8,0.5,2.6,1c0.7,0.5,0.2,0,0.3-0.1
				c0.1-0.1,0.1-0.3,0-0.4C261.1,195.7,259.2,194.3,258.2,194.7z"/>
			<path class="st16" d="M266.9,206.2h0.4c0.1-0.1,2.3-2.9,1.6-4.7c-0.1-0.3-0.4-0.6-0.7-0.7c-1.4-0.6-4.7,1-4.8,1.1
				s-0.2,0.2-0.1,0.4s0.1,0.2,0.2,0.1h0.1c0.9-0.4,3.4-1.5,4.4-1.1l0.4,0.4c0.5,1.2-0.9,3.4-1.5,4.2
				C266.8,206,266.8,206.1,266.9,206.2C266.9,206.2,266.9,206.2,266.9,206.2z"/>
			<path class="st16" d="M257.8,189.3c-0.1,0.1,0,0.3,0.1,0.4s0,0.1,0.1,0.1l0,0c0.1,0,0.2,0,0.2-0.1c0.7-0.9,1.3-1.9,1.6-3h-0.5
				C259,187.7,258.5,188.6,257.8,189.3z"/>
			<path class="st16" d="M254.2,207.4c0.1,0.1,0.2,0.2,0.4,0.1s3.3-1.5,4.4-1l0.3,0.3c0.2,0.5,0.2,1.1,0,1.6h0.5
				c0.2-0.6,0.2-1.2,0-1.8c-0.1-0.3-0.3-0.5-0.6-0.7c-1.5-0.6-4.7,1-4.9,1.1S254.1,207.2,254.2,207.4z"/>
			<path class="st16" d="M264.3,188.2H264c-0.2,0.3-1.5,2.4-1.2,3.7c0.1,0.4,0.4,0.7,0.8,0.9c0.4,0.2,0.8,0.2,1.2,0.2
				c0.9,0,1.7-0.3,2.4-0.8h0.2c0.1-0.2,0-0.3-0.1-0.3l0,0c-0.1-0.1-0.2-0.2-0.4-0.1c-0.9,0.6-2,0.8-3.1,0.5c-0.3,0-0.5-0.2-0.5-0.5
				c-0.2-0.9,0.7-2.6,1.1-3.1S264.5,188.3,264.3,188.2z"/>
			<path class="st16" d="M251.7,215.2v0.6c0.8,0.2,1.5,0.5,2.1,1h0.3c0.1-0.2,0.1-0.3,0-0.4C253.4,215.8,252.6,215.4,251.7,215.2z"
				/>
			<path class="st16" d="M270.9,215.3c-0.4,0.2-0.6,0.5-0.6,0.9c-0.3,1.5-0.3,3,0,4.5c0,0.2,0.1,0.3,0.2,0.3h0.1
				c0.1,0,0.2-0.2,0.2-0.3c-0.2-1.5-0.2-2.9,0-4.4c0-0.2,0.1-0.4,0.3-0.5h0.4v-0.6L270.9,215.3z"/>
			<path class="st16" d="M258.2,216.4c-0.4,0.2-0.6,0.5-0.6,0.9c-0.2,1.5-0.2,3.1,0,4.6c0,0.1,0.1,0.2,0.3,0.2l0,0
				c0.1,0,0.2-0.2,0.2-0.3c-0.2-1.5-0.2-2.9,0-4.4l0.3-0.5c0.6-0.2,1.9,0.5,2.6,1.1h0.3c0.1-0.1,0.1-0.3,0-0.4
				C261.1,217.3,259.2,216,258.2,216.4z"/>
			<path class="st16" d="M266.9,227.8h0.4c0.1-0.1,2.3-3,1.6-4.8c-0.1-0.3-0.4-0.5-0.7-0.6c-1.4-0.6-4.7,1-4.8,1s-0.2,0.3-0.1,0.4
				l0.3,0.2c0.1,0,3.4-1.5,4.4-1.1c0.2,0.1,0.3,0.2,0.4,0.4c0.5,1.2-0.9,3.4-1.5,4.1C266.8,227.5,266.8,227.7,266.9,227.8z"/>
			<path class="st16" d="M259.3,208.4c-0.3,0.8-0.7,1.6-1.2,2.3l-0.3,0.3c-0.1,0.1,0,0.3,0.1,0.4h0.3l0.4-0.6c0.6-0.7,1-1.5,1.2-2.4
				H259.3z"/>
			<path class="st16" d="M264.3,209.8c-0.1-0.1-0.2,0-0.3,0.1s-1.5,2.3-1.2,3.7c0.1,0.4,0.4,0.7,0.8,0.8l1.2,0.3
				c0.9,0,1.7-0.3,2.4-0.9c0.2,0,0.2-0.2,0.1-0.4h-0.4c-0.9,0.6-2,0.8-3.1,0.5l-0.5-0.5c-0.2-0.9,0.7-2.6,1.1-3.2s0.2-0.1,0.1-0.3
				L264.3,209.8z"/>
			<path class="st16" d="M263.2,288.7"/>
			<path class="st16" d="M251,193.6c-0.3,0.2-0.5,0.5-0.6,0.9c-0.2,1.5-0.2,3.1,0,4.6l0.3,0.2l0,0c0.2,0,0.3-0.1,0.2-0.3
				c-0.2-1.5-0.2-2.9,0-4.4c0.1-0.3,0.2-0.4,0.3-0.4h0.5v-0.6H251z"/>
			<path class="st16" d="M243.8,202.3l0.4-0.2v-0.3L243.8,202.3z"/>
			<path class="st16" d="M248.4,200.7c-0.9-0.2-1.9-0.1-2.8,0.3c-0.1,0.2-0.1,0.4-0.1,0.6c0.8-0.4,1.8-0.5,2.7-0.4l0.4,0.4
				c0.5,1.2-0.9,3.4-1.5,4.2c-0.1,0.1-0.1,0.3,0,0.4h0.4c0.1-0.1,2.3-2.9,1.5-4.7C249,201.1,248.7,200.8,248.4,200.7z"/>
			<path class="st16" d="M247.4,192.2c0.1-0.1,0.2-0.3,0.1-0.4h-0.3c0,0.2-0.1,0.5-0.1,0.7L247.4,192.2z"/>
			<path class="st16" d="M250.7,221L250.7,221c0.2,0,0.3-0.2,0.2-0.3c-0.1-1.3-0.1-2.5,0-3.8c-0.1,0.1-0.1,0.3-0.1,0.4
				c-0.2,0.5-0.4,1-0.5,1.6c0,0.6,0,1.2,0.1,1.8C250.4,220.9,250.5,221,250.7,221L250.7,221z"/>
			<path class="st16" d="M251.2,215.8h0.5v-0.6h-0.4C251.2,215.4,251.2,215.7,251.2,215.8L251.2,215.8z"/>
			<path class="st16" d="M249.1,223.3c-0.2,0.9-0.4,1.8-0.5,2.7C249.1,225.2,249.2,224.2,249.1,223.3z"/>
			<path class="st16" d="M247.1,213.4h-0.2c0.2,0.2,0.3,0.3,0.5,0.3l0,0c0.1,0,0.2-0.2,0.1-0.4L247.1,213.4z"/>
			<path class="st16" d="M244.2,209.9l0.3,0.5c0-0.1,0.1-0.1,0.1-0.2c0-0.1,0-0.3-0.1-0.4C244.4,209.7,244.3,209.8,244.2,209.9z"/>
		</g>
	</g>
	<path class="st17" d="M259.1,180.6l-5.9,1.2c0,0-2.7,0.8-4.8,6.1s-3.2,15.6-3.2,15.6l-1.1-1.7l-2.5,3c0,0,4,8.8,5.9,9.1
		s5.1-5.6,5.1-5.6c-0.4,3-1,6-1.8,9c-2,5.9-3,12.1-3.1,18.3c0,9.7,5.3,22.5,6.6,27.3s1.2,8.9,2.2,13.6c0.8,4.3,1.4,8.6,1.7,13
		c-1.1,1.3-2.3,2.5-3.5,3.7s6.8,0.9,7.6,0.3s0.9-2.4,0.9-3.7s-0.1-20.8-0.1-20.8s9.8,16.5,9,18.5s2.7-2.9,2.7-2.9s-1.5-12-2.5-16.6
		c-0.8-3.3-1.9-6.5-3.1-9.6c0,0,8.2-15.9,9-25.8s-3.8-22.9-3.8-22.9s4.2-11,4.3-18.3s-2.2-8.6-5-9.9c-1.4-0.7-2.9-1.2-4.5-1.4
		l-6-0.6L259.1,180.6z"/>
	<path class="st10" d="M261.9,293.5c0.7-1.1,1-2.4,0.9-3.7V275h-6.6l0.3,1.5c0.8,4.3,1.3,8.6,1.6,13
		C257.6,291.1,261.5,295.3,261.9,293.5z"/>
	<path class="st10" d="M275.8,291.4c0.4-0.3-1-7.3-1-7.3s-0.6-4.6-1.3-9.1h-7.2c2.6,4.6,5.4,10.6,5.9,11.7
		C273,288.5,274.2,290.1,275.8,291.4z"/>
	<path class="st18" d="M263.4,292c-1.7,0.8-3.8,0.3-5-1.2c-1.5-1.6-2.8,0.9-4.9,1.6s-3.6,1.8-3.1,2.4s2.1,0.9,4.7,0.9
		c2.2,0,4.4-0.3,6.6-0.7C262.6,294.7,263.1,293.3,263.4,292z"/>
	<path class="st18" d="M276.1,287.5c-0.5,0.8-1.3,1.5-2.2,1.8c-0.2-0.7-0.4-1.3-0.7-2c-0.5-1-1.3,0.2-1.3,0.2
		c-0.6,1.6-1.4,3.2-2.2,4.7c-0.8,1.5-1.7,3.2-1.2,3.5s1.7,0.2,3.4-1c1.5-1,2.9-2.2,4.1-3.5C276.5,290.5,276.3,288.8,276.1,287.5z"/>
	<path class="st3" d="M248.8,224.8c-0.7,3.6-1.1,7.2-1.1,10.8c0,9.7,5.3,22.5,6.6,27.3s1.2,8.9,2.2,13.6c0.2,0.9,0.4,1.8,0.6,2.9
		c2,0.6,4.1,0.6,6.1,0V269c0,0,2.9,5.3,5.4,10.2c1.9,0.2,3.8-0.2,5.4-1.1c-0.5-3.6-1.1-7.8-1.6-10.1c-0.8-3.3-1.9-6.5-3.1-9.6
		c0,0,8.2-15.9,9-25.8c0.1-2.7,0-5.4-0.3-8.1c-5,1.9-10.3,2.9-15.6,2.8C255.8,227.3,251.5,226.1,248.8,224.8z"/>
	<path class="st11" d="M262.5,231.6c0,0-3.7,20-3.8,24s3.6,11.6,3.6,11.6"/>
	<path class="st17" d="M252.6,208.3c0,0-3.6-4.3-3.7-7.5s2.9-11.4,2.9-11.4"/>
	<path class="st10" d="M259,176.2c0.8,1,1.4,2.1,1.9,3.3c0.1,0.9-1.3,1.4-1.3,1.4s-2.5,5.4-0.2,7.8s5.4,0.1,6.5-1.8s1.9-6.5,1.9-6.5
		c-1.5-1.3-2.8-2.8-3.9-4.4c-1-1.5-2-2.8-3.2-4.1C260.7,171.9,259.7,175.5,259,176.2z"/>
	<path class="st10" d="M249.9,160.6c0,0-1.3,4.3-0.6,6.6s2.2,2.5,2.3,3.2s-0.7,3-0.6,3.3s1.9,0.8,1.9,0.8s2.5,3.8,3.5,3.8
		c1,0,2.8-1.3,3.5-2.4c0.5-1,0.9-2.1,1.3-3.2c0,0-0.8-2-4.4-4.1S250,163.1,249.9,160.6z"/>
	<path class="st17" d="M255.7,172"/>
	<path class="st17" d="M253.5,173.6"/>
	<path class="st3" d="M251.7,153.2c0,0-2.7,4.8-1.9,8.3s4,6.4,6.4,7.8c2.4,1.4,6.4,5.4,6.5,8s-2.3,4.2-1.8,4.5s4.5,1.2,6.9-1.4
		s5.7-5.4,5.6-10.6s-4.5-9.8-6.3-12.6s-4.5-6.7-8.8-6.9C255.8,150.1,253.3,151.2,251.7,153.2z"/>
	<path class="st19" d="M250.4,157.6c0,0,0.2,5.8,5.7,7.3c5.5,1.5,13.9,5.9,13,12.6"/>
	<path class="st19" d="M255,153.6c0.3,3,2.3,5.6,5.2,6.5c5,1.9,12.1,5.3,12.9,11.2"/>
	<path class="st6" d="M-64.1,147.2"/>
	<path class="st6" d="M-77.2,148"/>
	<path class="st6" d="M-77,148.8"/>
	<path class="st19" d="M250.3,153.1c0,0-2,4.8-1.5,7.2"/>
	<path class="st14" d="M272.3,189.1l-2.9,14.2l-18.3-6.2c-0.4-2.2-1.2-4.3-2.3-6.3c-1.6-2.6-4.7-3.2-4.7-2.4s2.6,4.7,2.6,4.7
		s-3.1-2.3-3.1-1.6s2.7,3.4,3.5,4s1,3.2,1.9,3.7s18.3,11.9,20.2,13.4s4.1-0.5,4.4-1c2.7-4.8,5-9.7,7.1-14.8
		c1.7-4.5,0.6-9.5-2.8-12.9c-0.9-0.7-1.9-1.3-3-1.8"/>
	<g>
		<defs>
			<path id="SVGID_3_" d="M272.3,189.1l-2.9,14.2l-18.3-6.2c-0.4-2.2-1.2-4.3-2.3-6.3c-1.6-2.6-4.7-3.2-4.7-2.4s2.6,4.7,2.6,4.7
				s-3.1-2.3-3.1-1.6s2.7,3.4,3.5,4s1,3.2,1.9,3.7s18.3,11.9,20.2,13.4s4.1-0.5,4.4-1c2.7-4.8,5-9.7,7.1-14.8
				c1.7-4.5,0.6-9.5-2.8-12.9c-0.9-0.7-1.9-1.3-3-1.8"/>
		</defs>
		<clipPath id="SVGID_4_">
			<use xlink:href="#SVGID_3_"  style="overflow:visible;"/>
		</clipPath>
		<g class="st20">
			<path class="st16" d="M274.4,185.9c0.8-0.5,3.2-1.5,4.3-1.1l-0.6-0.7c-1.4,0.2-2.7,0.6-3.9,1.2c-0.2,0.1-0.3,0.2-0.2,0.4
				S274.2,186,274.4,185.9L274.4,185.9z"/>
			<path class="st16" d="M279.7,186.7v-0.4c-0.1-0.3-0.2-0.6-0.4-0.8c0,0.4-0.1,0.8-0.2,1.2H279.7z"/>
			<path class="st16" d="M271.5,194.1c0.8,0.2,1.5,0.6,2.1,1.1c0.1,0.1,0.3,0,0.4-0.1s0-0.3-0.1-0.4c-0.7-0.6-1.5-1-2.4-1.2V194.1z"
				/>
			<path class="st16" d="M278.1,194.7c-0.4,0.1-0.7,0.5-0.7,0.9c-0.2,1.5-0.2,3.1,0,4.6l0.3,0.2l0,0c0.2,0,0.3-0.1,0.3-0.3
				c-0.2-1.5-0.2-2.9,0-4.4c0-0.2,0.1-0.3,0.2-0.4c0.6-0.3,1.9,0.5,2.6,1l0,0c0.1-0.2,0.1-0.4,0.2-0.5S279,194.3,278.1,194.7z"/>
			<path class="st16" d="M277.7,189.3c-0.1,0.1-0.1,0.3,0,0.4c0,0.1,0.1,0.1,0.2,0.1h0.2c0.7-0.9,1.2-1.9,1.6-3h-0.6
				C278.8,187.7,278.3,188.6,277.7,189.3z"/>
			<path class="st16" d="M274.4,207.5l1.7-0.7l0.3-0.7c-0.8,0.2-1.5,0.5-2.2,0.9c-0.2,0.1-0.2,0.2-0.2,0.4S274.3,207.6,274.4,207.5z
				"/>
			<path class="st16" d="M270.5,199.3h0.1c0.1,0,0.2-0.1,0.2-0.3l-0.2-1.9l-0.4,1.9h0.1C270.2,199.1,270.3,199.2,270.5,199.3
				L270.5,199.3z"/>
			<path class="st16" d="M271.5,194.1v-0.6h-0.1l-0.2,0.6H271.5z"/>
			<path class="st16" d="M257.6,200.2c0,0.1,0.1,0.2,0.3,0.2l0,0c0.1,0,0.2-0.1,0.2-0.3v-0.7h-0.6
				C257.6,199.7,257.6,199.9,257.6,200.2z"/>
			<path class="st16" d="M263.3,202.2c0,0.1,0.1,0.2,0.2,0.1h0.1l1.3-0.6l-0.8-0.2l-0.7,0.3C263.3,201.8,263.2,202,263.3,202.2z"/>
			<path class="st16" d="M267.1,206.2h0.2c0.7-0.9,1.3-1.9,1.6-3l-0.5-0.2c-0.3,1.1-0.8,2-1.5,2.9c-0.1,0.1-0.1,0.3,0,0.4
				L267.1,206.2z"/>
			<path class="st16" d="M250.4,199.1l0.3,0.2l0,0c0.2,0,0.3-0.1,0.2-0.3c-0.1-1-0.2-2-0.1-3c-0.1-0.5-0.2-0.9-0.4-1.4
				C250.2,196.1,250.2,197.6,250.4,199.1z"/>
			<path class="st16" d="M244.6,188.6c0.1-0.2,0-0.3-0.1-0.4h-0.4v0.2c0.1,0.2,0.1,0.4,0.2,0.6L244.6,188.6z"/>
			<path class="st16" d="M247.1,191.7l-1,0.5c0.2,0.1,0.3,0.3,0.3,0.5l1-0.5c0.1-0.1,0.2-0.3,0.1-0.4S247.2,191.6,247.1,191.7z"/>
			<path class="st16" d="M244,192.3l0.6,0.7h0.4l1.3-0.2l-0.6-0.4C245.1,192.5,244.5,192.5,244,192.3z"/>
		</g>
	</g>
	<path class="st17" d="M272.3,189.1l-2.9,14.2l-18.3-6.2c-0.4-2.2-1.2-4.3-2.3-6.3c-1.6-2.6-4.7-3.2-4.7-2.4s2.6,4.7,2.6,4.7
		s-3.1-2.3-3.1-1.6s2.7,3.4,3.5,4s1,3.2,1.9,3.7s18.3,11.9,20.2,13.4s4.1-0.5,4.4-1c2.7-4.8,5-9.7,7.1-14.8
		c1.7-4.5,0.6-9.5-2.8-12.9c-0.9-0.7-1.9-1.3-3-1.8"/>
	<path class="st21" d="M265.9,202.2l-14.8-5.1c-0.4-2.2-1.2-4.3-2.3-6.3c-1.6-2.6-4.7-3.2-4.7-2.4s2.6,4.7,2.6,4.7s-3.1-2.3-3.1-1.6
		s2.7,3.4,3.5,4s1,3.2,1.9,3.7s9.5,5.8,15,9.6L265.9,202.2z"/>
	<path class="st10" d="M248.4,190.3c-0.7-0.9-1.5-1.8-2.4-2.5c-0.9-0.3-1.9-0.2-2.8,0.2c-0.4,0.4,0.4,0.6,0.7,0.5h1.5
		c0.1,0,1.8,2.8,1.8,2.8"/>
	<path class="st3" d="M243,195.4l-3.4,0.8c-0.8,0.2-1.6-0.2-1.9-1c0-0.1,0-0.1,0-0.2l0,0l-2.4-11.2c-0.3-0.9,0.3-1.8,1.2-2.1
		c0,0,0,0,0,0l0,0l3.4-0.9c0.9-0.2,1.8,0.4,2,1.3l0,0l2.4,11.1C244.5,194.2,243.9,195.1,243,195.4z"/>
	<path class="st21" d="M241.6,204.8c0,0-3.7-7.3-3.9-8s-2.2-10.3-2.3-11.5s-0.3-2.7,0.2-2.3s1.9,6.3,1.9,6.3l1.2-2.9
		c0.5-1.2,1.6-3,1.8-2.5c0,0.7-0.2,1.3-0.4,1.9c-0.1,0.5-1.2,4.1-1.2,4.1v1.7l1.9-2.5c0.5-0.7,2.2-1.7,2.1-1s-1.4,1.2-1.4,1.7
		c-0.4,1.1-0.9,2.1-1.6,3c0,0,1.9-2.2,2.3-2.5s1.2-0.7,0.7,0.2l-1.8,2.7c0,0,0.5,2.4,0.5,2.9c-0.1,0.5-0.3,0.9-0.5,1.3l3.1,4.4
		L241.6,204.8z"/>
</g>
<g id="Layer_14">
	<path class="st6" d="M167.4,151.6c3.7,1.8,8.2,1,9.1-1"/>
	<path class="st6" d="M29.7,134.6"/>
</g>
<g id="Layer_12">
	<line class="st22" x1="3.9" y1="224.5" x2="0.1" y2="258.7"/>
</g>
</svg>
