<?xml version="1.0" standalone="no"?><!DOCTYPE svg PUBLIC "-//W3C//DTD SVG 1.1//EN" "http://www.w3.org/Graphics/SVG/1.1/DTD/svg11.dtd"><svg t="1608126106128" class="icon" viewBox="0 0 1024 1024" version="1.1" xmlns="http://www.w3.org/2000/svg" p-id="2514" xmlns:xlink="http://www.w3.org/1999/xlink" width="200" height="200"><defs><style type="text/css"></style></defs><path d="M883.626667 340.48L683.946667 140.8c-8.106667-8.106667-19.2-12.8-30.293334-12.8H370.346667c-11.093333 0-22.186667 4.693333-29.866667 12.373333L140.373333 340.48c-7.68 7.68-12.373333 18.773333-12.373333 29.866667v282.88c0 11.52 4.693333 22.186667 12.373333 30.293333l199.68 199.68c8.106667 8.106667 19.2 12.8 30.293334 12.8h282.88c11.52 0 22.186667-4.693333 30.293333-12.373333l199.68-199.68a42.24 42.24 0 0 0 12.373333-30.293334V370.346667c0.426667-11.093333-4.266667-22.186667-11.946666-29.866667zM810.666667 635.733333L635.733333 810.666667H388.266667L213.333333 635.733333V388.266667L388.266667 213.333333h247.466666L810.666667 388.266667v247.466666z m-298.666667 4.266667c-23.466667 0-42.666667 19.2-42.666667 42.666667s19.2 42.666667 42.666667 42.666666 42.666667-19.2 42.666667-42.666666-18.773333-42.666667-42.666667-42.666667z m0-341.333333c-23.466667 0-42.666667 19.2-42.666667 42.666666v213.333334c0 23.466667 19.2 42.666667 42.666667 42.666666s42.666667-19.2 42.666667-42.666666V341.333333c0-23.466667-19.2-42.666667-42.666667-42.666666z" p-id="2515"></path></svg>