<svg xmlns="http://www.w3.org/2000/svg" viewBox="0 0 329.1 344.2"><defs><style>.cls-1{fill:#edf2f0;}.cls-2,.cls-9{fill:#46a0ae;}.cls-3{opacity:0.5;}.cls-4,.cls-6{fill:#fff;}.cls-5,.cls-7{fill:#263238;}.cls-10,.cls-6,.cls-7,.cls-9{stroke:#263238;}.cls-10,.cls-6,.cls-7,.cls-8,.cls-9{stroke-linecap:round;stroke-linejoin:round;}.cls-10,.cls-8{fill:none;}.cls-8{stroke:#fff;}</style></defs><title>آدم صفحه راهنمایی مسافر۱</title><g id="Background_Simple" data-name="Background Simple"><path class="cls-1" d="M403.2,227.3c3.5-58.2-41.2-109.2-91.7-134.2-57.7-28.7-126-20.8-175,15-16.8,12.3-31.2,28.5-38.3,48.6-9.7,27-6.4,57.1-.6,85.3,4.5,22,14.1,46.1,11.7,68.1-2.6,23.8.9,48.1,17.4,67.7,41,48.6,133.8,38.1,182.5,20.3,22-7.9,44.8-21.1,57.4-41.8a67,67,0,0,0,9.4-36.6c-.4-10-2.8-21.9.4-31.5,6.4-18.7,21.8-29.9,25.6-50.5A92,92,0,0,0,403.2,227.3Z" transform="translate(-86.4 -70.9)"/></g><g id="Building"><rect class="cls-2" x="23.5" y="160.1" width="22.3" height="19.41"/><rect class="cls-2" x="23.5" y="120.5" width="22.3" height="19.41"/><rect class="cls-2" x="23.5" y="81" width="22.3" height="19.41"/><rect class="cls-2" x="23.5" y="41.5" width="22.3" height="19.41"/><rect class="cls-2" x="63" y="160.1" width="22.3" height="19.41"/><rect class="cls-2" x="63" y="120.5" width="22.3" height="19.41"/><rect class="cls-2" x="63" y="81" width="22.3" height="19.41"/><rect class="cls-2" x="63" y="41.5" width="22.3" height="19.41"/><rect class="cls-2" x="102.6" y="160.1" width="22.3" height="19.41"/><rect class="cls-2" x="102.6" y="120.5" width="22.3" height="19.41"/><rect class="cls-2" x="102.6" y="81" width="22.3" height="19.41"/><rect class="cls-2" x="102.6" y="41.5" width="22.3" height="19.41"/><rect class="cls-2" x="142.1" y="160.1" width="22.3" height="19.41"/><rect class="cls-2" x="142.1" y="120.5" width="22.3" height="19.41"/><rect class="cls-2" x="142.1" y="81" width="22.3" height="19.41"/><rect class="cls-2" x="142.1" y="41.5" width="22.3" height="19.41"/><rect class="cls-2" x="181.6" y="160.1" width="22.3" height="19.41"/><rect class="cls-2" x="181.6" y="120.5" width="22.3" height="19.41"/><rect class="cls-2" x="181.6" y="81" width="22.3" height="19.41"/><rect class="cls-2" x="181.6" y="41.5" width="22.3" height="19.41"/><rect class="cls-2" x="221.2" y="160.1" width="22.3" height="19.41"/><rect class="cls-2" x="221.2" y="120.5" width="22.3" height="19.41"/><rect class="cls-2" x="221.2" y="81" width="22.3" height="19.41"/><rect class="cls-2" x="221.2" y="41.5" width="22.3" height="19.41"/><path class="cls-2" d="M389.5,186.9a29.5,29.5,0,0,0-14,12.9H375c.8-3.8,2.9-12.6,7.3-19.2,5.8-8.6,27.8-18.1,25.9-26.3s-20.1,2.9-26.4,12.5c-5.1,8-6.7,26.9-7,33h-.1c-.2-2.6-1.4-8-7.2-16.3-8.6-12.4-37.8-9.1-41.6,1.4s14.3-1.9,28.2-.9c6.8.5,11.9,4.7,15.3,8.9-2.7-1.3-6.6-2-12.4-1.3-18.7,2.4-30.7,23.5-24.4,26.4s11.4-13,25.8-19.2c9.8-4.2,13.8-1.3,15.3.9h-.6v1.5c-3-.6-9.6-1.3-13.3,3.7-4.8,6.7-.4,18.2,2.4,12,2.2-4.7,8.1-10.9,10.9-13.8L372.3,339H338.2V275.3h1a1.5,1.5,0,0,0,0-3h-1.1l-.4-.2H295.3l-.3.2h-1.4V113.4a1.5,1.5,0,1,0-3,0V272.3h-5.7l-.3-.2H254.9V113.4a1.5,1.5,0,0,0-1.5-1.5,1.5,1.5,0,0,0-1.5,1.5V272.1H216.3V113.4a1.5,1.5,0,0,0-1.5-1.5,1.5,1.5,0,0,0-1.5,1.5V272.1H177.6V113.4a1.5,1.5,0,0,0-3,0V272.1H138.9V113.4a1.5,1.5,0,0,0-3,0V272.1H108.4l-.3.2h-5.3v-8.6a1.5,1.5,0,0,0-1.5-1.5,1.5,1.5,0,0,0-1.5,1.5v10.1a1.5,1.5,0,0,0,1.5,1.5h6.6V339h-21a.5.5,0,0,0-.5.5.5.5,0,0,0,.5.5H365c.3,0,27-.3,27-.5a.5.5,0,0,0-.5-.5H377.1l-.9-138.4c3-2,10.2-6.2,18.6-6.6,11-.4,15.7,14.9,20,7.7S401,181.6,389.5,186.9ZM294.8,339h-9.7V275.3h6.2l.8.2.8-.2h1.9Z" transform="translate(-86.4 -70.9)"/><g class="cls-3"><rect class="cls-4" x="23.5" y="160.1" width="22.3" height="19.41"/><rect class="cls-4" x="23.5" y="120.5" width="22.3" height="19.41"/><rect class="cls-4" x="23.5" y="81" width="22.3" height="19.41"/><rect class="cls-4" x="23.5" y="41.5" width="22.3" height="19.41"/><rect class="cls-4" x="63" y="160.1" width="22.3" height="19.41"/><rect class="cls-4" x="63" y="120.5" width="22.3" height="19.41"/><rect class="cls-4" x="63" y="81" width="22.3" height="19.41"/><rect class="cls-4" x="63" y="41.5" width="22.3" height="19.41"/><rect class="cls-4" x="102.6" y="160.1" width="22.3" height="19.41"/><rect class="cls-4" x="102.6" y="120.5" width="22.3" height="19.41"/><rect class="cls-4" x="102.6" y="81" width="22.3" height="19.41"/><rect class="cls-4" x="102.6" y="41.5" width="22.3" height="19.41"/><rect class="cls-4" x="142.1" y="160.1" width="22.3" height="19.41"/><rect class="cls-4" x="142.1" y="120.5" width="22.3" height="19.41"/><rect class="cls-4" x="142.1" y="81" width="22.3" height="19.41"/><rect class="cls-4" x="142.1" y="41.5" width="22.3" height="19.41"/><rect class="cls-4" x="181.6" y="160.1" width="22.3" height="19.41"/><rect class="cls-4" x="181.6" y="120.5" width="22.3" height="19.41"/><rect class="cls-4" x="181.6" y="81" width="22.3" height="19.41"/><rect class="cls-4" x="181.6" y="41.5" width="22.3" height="19.41"/><rect class="cls-4" x="221.2" y="160.1" width="22.3" height="19.41"/><rect class="cls-4" x="221.2" y="120.5" width="22.3" height="19.41"/><rect class="cls-4" x="221.2" y="81" width="22.3" height="19.41"/><rect class="cls-4" x="221.2" y="41.5" width="22.3" height="19.41"/><path class="cls-4" d="M389.5,186.9a29.5,29.5,0,0,0-14,12.9H375c.8-3.8,2.9-12.6,7.3-19.2,5.8-8.6,27.8-18.1,25.9-26.3s-20.1,2.9-26.4,12.5c-5.1,8-6.7,26.9-7,33h-.1c-.2-2.6-1.4-8-7.2-16.3-8.6-12.4-37.8-9.1-41.6,1.4s14.3-1.9,28.2-.9c6.8.5,11.9,4.7,15.3,8.9-2.7-1.3-6.6-2-12.4-1.3-18.7,2.4-30.7,23.5-24.4,26.4s11.4-13,25.8-19.2c9.8-4.2,13.8-1.3,15.3.9h-.6v1.5c-3-.6-9.6-1.3-13.3,3.7-4.8,6.7-.4,18.2,2.4,12,2.2-4.7,8.1-10.9,10.9-13.8L372.3,339H338.2V275.3h1a1.5,1.5,0,0,0,0-3h-1.1l-.4-.2H295.3l-.3.2h-1.4V113.4a1.5,1.5,0,1,0-3,0V272.3h-5.7l-.3-.2H254.9V113.4a1.5,1.5,0,0,0-1.5-1.5,1.5,1.5,0,0,0-1.5,1.5V272.1H216.3V113.4a1.5,1.5,0,0,0-1.5-1.5,1.5,1.5,0,0,0-1.5,1.5V272.1H177.6V113.4a1.5,1.5,0,0,0-3,0V272.1H138.9V113.4a1.5,1.5,0,0,0-3,0V272.1H108.4l-.3.2h-5.3v-8.6a1.5,1.5,0,0,0-1.5-1.5,1.5,1.5,0,0,0-1.5,1.5v10.1a1.5,1.5,0,0,0,1.5,1.5h6.6V339h-21a.5.5,0,0,0-.5.5.5.5,0,0,0,.5.5H365c.3,0,27-.3,27-.5a.5.5,0,0,0-.5-.5H377.1l-.9-138.4c3-2,10.2-6.2,18.6-6.6,11-.4,15.7,14.9,20,7.7S401,181.6,389.5,186.9ZM294.8,339h-9.7V275.3h6.2l.8.2.8-.2h1.9Z" transform="translate(-86.4 -70.9)"/></g></g><g id="Shadow"><ellipse class="cls-5" cx="138.7" cy="334.2" rx="54" ry="10"/></g><g id="Character"><path class="cls-6" d="M184.2,174.8s-3.3-.8-3.8,2.5-1.7,13.7-1,16.5,4.5,2,4.5,2Z" transform="translate(-86.4 -70.9)"/><path class="cls-6" d="M183.4,199s-3.5-.7-4,1.5-3,14.5-2.7,17.5,4.7,2.3,4.7,2.3Z" transform="translate(-86.4 -70.9)"/><path class="cls-6" d="M210.4,158s-10.7,4.5-17.2,7.8-10.5,6.5-10.5,12.2,0,21.5-2.3,32.3.5,22.2,9.3,25.7,17.5,2.5,21.5-1.5,6.2-15,6.7-21.7,0-47.5,0-50.8S214.2,154.8,210.4,158Z" transform="translate(-86.4 -70.9)"/><path class="cls-6" d="M216.5,222a11,11,0,0,0-3.1-2c-7-3-25.2,1.5-28.2,5.5a7.2,7.2,0,0,0-1,6.5,14.8,14.8,0,0,0,5.5,4c8.7,3.5,17.5,2.5,21.5-1.5C213.6,232.1,215.4,227.1,216.5,222Z" transform="translate(-86.4 -70.9)"/><path class="cls-6" d="M213.9,215s-8.2,29.3-8,41,7.5,39.8,9.8,44.3,2.2,6-.5,10.2-12.3,16.8-12.8,29.5.3,42-.2,45-10.5,17.3-9,22.3,6.7,1.7,8-1,3.7-11,4.5-13.8,1.2-7,2.2-10.7,9.5-29.5,12.8-36.8,11-26,12.5-28.5,2.7-11,2.7-11,1,33.5,2.5,41.8,2,34.5,2,40.5-2.7,14.2-1.2,15.5,7.5,2,8.2,2.7,7,3.5,9.3,4.5,6.2,1.2,5.7-1.3-10.2-10.2-12.5-15.4-3-6.8-2.7-11.3,12-36.5,11.2-49.2-1.2-21.3-1.2-28.5,10-25.8,12.5-42-4.5-37.3-9-45.3Z" transform="translate(-86.4 -70.9)"/><path class="cls-7" d="M233.2,316.5c1.5-2.5,2.7-11,2.7-11s1,33.5,2.5,41.8,2,31.5,2,39.2a10.1,10.1,0,0,0,6.8-.4,21.6,21.6,0,0,1,0-3.6c.2-4.5,12-36.5,11.2-49.2s-1.2-21.3-1.2-28.5,10-25.8,12.5-42-4.5-37.3-9-45.3L213.9,215s-8.2,29.3-8,41,7.5,39.8,9.8,44.3,2.2,6-.5,10.2-12.3,16.8-12.8,29.5c-.4,10.6,0,32.4-.1,41.3,1.2.6,3,.8,5.6.5,1-3.8,9.5-29.5,12.8-36.8S231.7,319,233.2,316.5Z" transform="translate(-86.4 -70.9)"/><path class="cls-8" d="M236.6,300.6c-.4,3-.7,4.9-.7,4.9" transform="translate(-86.4 -70.9)"/><path class="cls-8" d="M238.7,255.5c1.1,12.7-.4,29.6-1.5,40.2" transform="translate(-86.4 -70.9)"/><path class="cls-8" d="M233.2,250.8" transform="translate(-86.4 -70.9)"/><path class="cls-8" d="M248.9,245.8" transform="translate(-86.4 -70.9)"/><path class="cls-8" d="M238.7,255.5" transform="translate(-86.4 -70.9)"/><path class="cls-9" d="M262.4,409.2c-.5-2.4-9.5-9.6-12.2-14.8a7,7,0,0,0-1.4.8,9.5,9.5,0,0,0-3.1,3.3,61.6,61.6,0,0,1-6.2-2.9c-.6,3.7-1.2,6.9-.3,7.7s7.5,2,8.2,2.7,7,3.5,9.3,4.5S262.9,411.7,262.4,409.2Z" transform="translate(-86.4 -70.9)"/><path class="cls-6" d="M256.7,410.5c2.2,1,6.2,1.2,5.7-1.3l-.2-.5c-5.2,1.4-8.9-1.2-15.3-4.7a28.3,28.3,0,0,0-8.1-3.4c-.2,1.3-.1,2.3.4,2.7s7.5,2,8.2,2.7S254.4,409.5,256.7,410.5Z" transform="translate(-86.4 -70.9)"/><path class="cls-9" d="M201.2,406.3c.9-2.2,2.7-7.8,3.8-11.4a4.7,4.7,0,0,0-4.1-2.1,7.3,7.3,0,0,0-3,.7c-2.7,5.1-5.6,10.9-4.7,13.8C194.7,412.3,199.9,409,201.2,406.3Z" transform="translate(-86.4 -70.9)"/><path class="cls-6" d="M201.2,406.3c.3-.9.9-2.3,1.4-3.9-2.3,4.4-4.7,5.8-6.9,5.4s-2-4.1-2-5.3c-.6,1.9-.9,3.6-.5,4.8C194.7,412.3,199.9,409,201.2,406.3Z" transform="translate(-86.4 -70.9)"/><path class="cls-9" d="M278.7,142.8s2.7,2.4.9,9.4-6.1,29.9-5.6,32.7,1.3,15.7,1.3,15.7a10.7,10.7,0,0,1-5.4,7.7c-4.9,2.5-11.9-.5-12.8-5.6s5-16.7,7-21.9,9.7-32.2,10.4-33.6S277.4,140.1,278.7,142.8Z" transform="translate(-86.4 -70.9)"/><line class="cls-10" x1="181.5" y1="125.4" x2="174.5" y2="127.6"/><path class="cls-9" d="M238.7,136l-26.8,3.5c-3.5.5-3.5,3-3.5,3s6.5,42,7,49.5-5.7,29.5-5.7,29.5,13.7,4.5,26,5,29.2-5.2,29.2-5.2-8-14.3-6.7-20.5,7.7-17,9.5-22.5,12.2-33,11-35.5-26.3-8.3-32-8.3S238.7,136,238.7,136Z" transform="translate(-86.4 -70.9)"/><path class="cls-10" d="M252.9,192.8s2.3,7.2,4.8,11.2" transform="translate(-86.4 -70.9)"/><path class="cls-9" d="M209.7,140.2a9.7,9.7,0,0,0-4.2,5c-1.4,3.8-6.3,27-9.7,33.3s-6.4,14.7-6.1,19,6.3,7.6,9.5,6.3,7.4-3.8,9-4.3,2.7-6.1,1.3-6.8A7.6,7.6,0,0,1,207,190s4.1-10.3,4.8-13.7a31.6,31.6,0,0,0,.7-6.8C212.5,168.4,209.7,140.2,209.7,140.2Z" transform="translate(-86.4 -70.9)"/><path class="cls-10" d="M207,190a35.6,35.6,0,0,0-6-4.7c-2.5-1.4-7.3,2.2-7.5,3.6" transform="translate(-86.4 -70.9)"/><path class="cls-6" d="M210.9,139.3s1.8,44,.5,53-5.5,24.7-5.5,24.7h3s6.3-31.2,8.5-40.7,6.3-35,6.3-37.5S214.2,136,210.9,139.3Z" transform="translate(-86.4 -70.9)"/><path class="cls-7" d="M205.9,217h3s5.8-29.1,8.3-39.7l-5.3.2a133.4,133.4,0,0,1-.5,14.8C210.2,201.3,205.9,217,205.9,217Z" transform="translate(-86.4 -70.9)"/><path class="cls-6" d="M241.8,120.8s-8.6-.2-12.3,5.1-4.9,19.4-.8,26.6,14.1,9.1,22.5,7.1,10.8-12.2,11.2-16.5-1.2-15.1-3.7-18.8S244.8,120,241.8,120.8Z" transform="translate(-86.4 -70.9)"/><path class="cls-10" d="M239.7,141.6s2.3,6.6,8,8.2,14.1-4.7,14.7-10.8" transform="translate(-86.4 -70.9)"/><path class="cls-10" d="M227.3,131.6s-1.8,15.3,10.6,22.3,19.8-4.5,21.4-8.6" transform="translate(-86.4 -70.9)"/><path class="cls-10" d="M242,145.1s13.9,3.5,19.6-9.4" transform="translate(-86.4 -70.9)"/><path class="cls-7" d="M243,82.5s3.9-9.8,13.1-11.1,15.1,15.7,12.4,19.2-3.6,4.7-3.6,4.7-14.5-6.9-17-4.1-4.5,11.9-7.1,13.7-4.7,5.7-2.3,8.2,4.5,6.5,1.9,10-9,2-12.7-2.1-7.8-12.2-2.2-22S233.6,82.5,243,82.5Z" transform="translate(-86.4 -70.9)"/><path class="cls-8" d="M266.2,89.1a21.3,21.3,0,0,1,.4,2.2" transform="translate(-86.4 -70.9)"/><path class="cls-8" d="M243.6,86.1s5.6-6.8,14-6.1c4.3.3,6.6,3.4,7.7,6.2" transform="translate(-86.4 -70.9)"/><path class="cls-8" d="M245.9,84s4.7-9,12.3-9" transform="translate(-86.4 -70.9)"/><path class="cls-8" d="M229.5,121.4a3.7,3.7,0,0,0,2.1.6" transform="translate(-86.4 -70.9)"/><path class="cls-8" d="M242.2,88s-3.6,1.3-7.3,6.7-10,13.6-9.3,19a12.7,12.7,0,0,0,2.5,6.6" transform="translate(-86.4 -70.9)"/><path class="cls-6" d="M238.7,118.6s.2,8.6.4,12.8-.4,10.2,1.1,10.7,7.9-3.5,9.1-6.6,1.3-9,1.3-9l-.2-4S242.6,116.5,238.7,118.6Z" transform="translate(-86.4 -70.9)"/><path class="cls-6" d="M234,106.3s-2.6-3-4.1-.8,0,9.2,1.9,10.2a5.8,5.8,0,0,0,3.3.8s6.3,7,10,9.4,8.7,3.9,10.8,2.3,6.5-7.4,7.9-11.9.2-10.4.4-13.6,1.7-7.4.2-10.7-6.1-3.8-11-4.9a55.8,55.8,0,0,0-9.8-1s-1,6.6-3,9.8-4.5,7.4-4.5,7.4A2.3,2.3,0,0,1,234,106.3Z" transform="translate(-86.4 -70.9)"/><path class="cls-10" d="M253.8,103.3s-4.7-3.9-13.2-.2c0,0-1.3.4-.6.8a2.2,2.2,0,0,1,.8,1c.4,1.3-.2,3.1.3,4.6,1.1,3.3,6.4,3.7,9.3,2.7a4.9,4.9,0,0,0,2.8-2.7C253.7,108.5,254.8,104,253.8,103.3Z" transform="translate(-86.4 -70.9)"/><path class="cls-10" d="M256.2,103.3s4.7-3.9,13.3-.2c0,0,1.2.4.6.8a2.2,2.2,0,0,0-.8,1c-.6,1.8.3,3.8-.8,5.7s-6.6,2.4-9.2,1.4a5,5,0,0,1-2.6-2.9C256.3,108.2,255.4,104,256.2,103.3Z" transform="translate(-86.4 -70.9)"/><path class="cls-10" d="M253.8,103.3a2.2,2.2,0,0,1,2.4,0" transform="translate(-86.4 -70.9)"/><line class="cls-10" x1="153.6" y1="33" x2="147" y2="34.6"/><path class="cls-5" d="M248.1,104.6c0,.8-.4,1.5-1,1.5s-1-.7-1-1.5.4-1.5,1-1.5S248.1,103.8,248.1,104.6Z" transform="translate(-86.4 -70.9)"/><path class="cls-5" d="M259.7,104.6c0,.8-.4,1.5-1,1.5s-1-.7-1-1.5.5-1.5,1-1.5S259.7,103.8,259.7,104.6Z" transform="translate(-86.4 -70.9)"/><path class="cls-5" d="M251.2,99.2a8.1,8.1,0,0,0-9,.8S248.9,98.8,251.2,99.2Z" transform="translate(-86.4 -70.9)"/><path class="cls-5" d="M264,100s-2.8-2.6-5.9.8C258.1,100.8,262.6,99.6,264,100Z" transform="translate(-86.4 -70.9)"/><path class="cls-6" d="M255.1,108.4s3.6,1.4,3.6,2.4-3.8,3.1-3.8,3.1" transform="translate(-86.4 -70.9)"/><path class="cls-10" d="M253.8,119.6s-5.7,1-6.9-3.1" transform="translate(-86.4 -70.9)"/><path class="cls-7" d="M266.4,156.3l-4.5,19.9a1.2,1.2,0,0,0,1.1,1.4l9.3.3a1.2,1.2,0,0,0,1.2-.9l4.8-20.1a1.3,1.3,0,0,0-1.2-1.6h-9.4A1.3,1.3,0,0,0,266.4,156.3Z" transform="translate(-86.4 -70.9)"/><path class="cls-6" d="M278.5,185.3s-2.3-13.7-3.8-17.4-4.1-6-5.5-5.6-.2,1.8.9,2.9,2.6,6.6,2.6,6.6l-8.4-1.6c-3.2-.5-5.6-2-5.9-.5s.9,2.3,1.8,2.7l9.5,2.7-10.4-2.2s-.8,1.6.5,2.3,9.4,3.3,9.4,3.3-4.7.5-7.6.5-3.6.9-2.3,1.6,9.7.2,9.7.2,1.4,5.9,2.7,6.7l1.2.7s-3,5.4-4.5,7-.7,4.8,2,5.9,5-.7,5.2-1.8,2.7-9.1,3.1-10.9A6.4,6.4,0,0,0,278.5,185.3Z" transform="translate(-86.4 -70.9)"/><path class="cls-6" d="M213.3,181.9l-.2,16.9c-.1,1.3,2.5,2.6,5.8,2.9s6.1-.4,6.2-1.7l3.1-16.7Z" transform="translate(-86.4 -70.9)"/><path class="cls-6" d="M228.1,183.3l-14.8-1.4V185c.7,1.3,3.5,2.5,6.9,2.8s6.4-.3,7.4-1.4l.5-2.8Z" transform="translate(-86.4 -70.9)"/><ellipse class="cls-6" cx="220.7" cy="182.6" rx="2.9" ry="7.5" transform="translate(-68.6 313.9) rotate(-84.5)"/><path class="cls-6" d="M226.7,182.2c-.1,1.2-2.8,2-6.1,1.7s-5.7-1.6-5.6-2.8,2.8-2,6.1-1.7S226.8,180.9,226.7,182.2Z" transform="translate(-86.4 -70.9)"/><path class="cls-6" d="M209.5,192.7l6.1-4.2c1.6-1,12.8,2.7,13.3,2.7s.7.8.2,1.5a5,5,0,0,1-2,1.1,5.7,5.7,0,0,1-.9,2.5l-1.1,1.2s.7,1.1,0,1.8-4.3,1.5-4.3,1.5,4.9.9,3.8,1.8-6.5.7-8.5,0-6.8-2.6-8.9-4.2S203.9,190.7,209.5,192.7Z" transform="translate(-86.4 -70.9)"/><path class="cls-9" d="M227.1,193.8s-9-1.5-11-1.7" transform="translate(-86.4 -70.9)"/><path class="cls-10" d="M225.1,197.5a83.1,83.1,0,0,1-9.1-.7" transform="translate(-86.4 -70.9)"/><path class="cls-10" d="M220.8,200.8a34.5,34.5,0,0,1-5.4-.4" transform="translate(-86.4 -70.9)"/></g></svg>