<svg xmlns="http://www.w3.org/2000/svg" xmlns:xlink="http://www.w3.org/1999/xlink" viewBox="0 0 366.2 368.9"><defs><style>.cls-1,.cls-8{fill:#46a0ae;}.cls-1,.cls-2,.cls-3,.cls-31,.cls-34,.cls-5{stroke:#263238;}.cls-1,.cls-11,.cls-2,.cls-3,.cls-31,.cls-32,.cls-34,.cls-5{stroke-linecap:round;stroke-linejoin:round;}.cls-12,.cls-15,.cls-2,.cls-28{fill:#fff;}.cls-3,.cls-6{fill:#263238;}.cls-4{fill:#edf2f0;}.cls-11,.cls-31,.cls-32,.cls-5{fill:none;}.cls-7{opacity:0.25;}.cls-9{clip-path:url(#clip-path);}.cls-10{opacity:0.13;}.cls-11,.cls-32{stroke:#fff;}.cls-13{clip-path:url(#clip-path-2);}.cls-14,.cls-34{fill:#0f4c81;}.cls-15{opacity:0.5;}.cls-16{clip-path:url(#clip-path-3);}.cls-17{clip-path:url(#clip-path-4);}.cls-18{clip-path:url(#clip-path-5);}.cls-19{fill:#051b2b;}.cls-20{clip-path:url(#clip-path-6);}.cls-21{clip-path:url(#clip-path-7);}.cls-22{opacity:0.14;}.cls-23{clip-path:url(#clip-path-8);}.cls-24{clip-path:url(#clip-path-9);}.cls-25{clip-path:url(#clip-path-10);}.cls-26{clip-path:url(#clip-path-11);}.cls-27{clip-path:url(#clip-path-12);}.cls-28{opacity:0.53;}.cls-29{clip-path:url(#clip-path-13);}.cls-30{clip-path:url(#clip-path-14);}.cls-31{stroke-width:2px;}.cls-32{stroke-width:0.75px;}.cls-33{clip-path:url(#clip-path-15);}.cls-35{font-size:8.72px;font-family:AdobeArabic-Regular, Adobe Arabic;}.cls-36{letter-spacing:-0.01em;}.cls-37{letter-spacing:0em;}.cls-38{letter-spacing:0em;}.cls-39{letter-spacing:-0.01em;}.cls-40{letter-spacing:0em;}</style><clipPath id="clip-path" transform="translate(-66.2 -70.7)"><path class="cls-1" d="M210.3,232.2s-26-3-43.2,10.3-31.8,69.3-31.5,96,10.3,40.1,35.3,51.1,71.6,6.8,97.7-1.4,34.6-37,34.3-52.4-17.5-33.3-23.3-37.1-22.3-11.6-30.5-24S228.8,235.7,210.3,232.2Z"/></clipPath><clipPath id="clip-path-2" transform="translate(-66.2 -70.7)"><path class="cls-2" d="M209.4,235s-9.3,3-10.7,5.3-.3,18.7-.3,20.7,1.2-1.2,2.2-3.5,4.5-5.8,5.6-5.5,1.9,1.7,1.9,3.8,2.6,5.2,5,6.9l4.5,3.3,6-8.8c1.1-1.9,1-5.7,1.1-7s3.2,3.6,3.9,2.3-1.5-2.5-3.9-6.2-1.6-7.5-5.1-10.1S212.1,234.3,209.4,235Z"/></clipPath><clipPath id="clip-path-3" transform="translate(-66.2 -70.7)"><path class="cls-2" d="M187.3,302.6s-5.7-8.3-12.7-9-15.5,5-15.8,7-2,12.7-.7,14.2,6,2.8,15.2-.2S186.3,307.8,187.3,302.6Z"/></clipPath><clipPath id="clip-path-4" transform="translate(-66.2 -70.7)"><path class="cls-2" d="M167.8,304.8s-9.4,3.7-9.7,11c-.2,4,6.5,5.8,13.5,5.8s17-8.8,23.5-12.5,21.5-12.5,23.2-13.3,7.8,1.3,10.3,2a31.4,31.4,0,0,0,7.2.8s3.5,5.5,5.3,5.5-3.8-8.3-4.5-10-13-5.8-14.5-5.8-36.5,8.8-41.8,10.8S167.8,304.8,167.8,304.8Z"/></clipPath><clipPath id="clip-path-5" transform="translate(-66.2 -70.7)"><polygon class="cls-2" points="233.3 292.1 206.5 311 267.8 309.3 288.3 292.3 233.3 292.1"/></clipPath><clipPath id="clip-path-6" transform="translate(-66.2 -70.7)"><path class="cls-2" d="M253.6,310.8s22-19.2,43.7-25.7,26.3-5.5,25.8,4.2-11,60.8-18,73.8-15.8,36.7-15.5,41.2,8.7,17.8,16.2,22.5,6.8,10.5,2,11.5-10.2,2.8-26.5-7.7-23-25.5-22-29.3,11.5-8.7,15.8-16.2,11.2-35.5,11.7-48.3a76.2,76.2,0,0,1,5-23.5s-27.5,5-35.5,10Z"/></clipPath><clipPath id="clip-path-7" transform="translate(-66.2 -70.7)"><path class="cls-3" d="M275.1,385.1l-1.1,1.6a25.4,25.4,0,0,1,14.1,5.9l3.4,3.3c4.8-6.5,10.2-26.8,16.2-35.1,15.8-21.6,14.9-61.7,15.4-71.5s-4-10.7-25.8-4.2-43.7,25.7-43.7,25.7l2.7,12.5c8-5,35.5-10,35.5-10a76.2,76.2,0,0,0-5,23.5C286.3,349.6,279.3,377.6,275.1,385.1Z"/></clipPath><clipPath id="clip-path-8" transform="translate(-66.2 -70.7)"><path class="cls-2" d="M188.1,314.8s-8,4.5-10.8,9.5,9.1,13.4,21.6,12.9,35.4-14.1,35.4-14.1.3,22,4.5,30,23.8,27.5,31.5,32.5,33.8,23.7,37.8,26.7,11.5,8.5,13.2,8.8,20-22,24.3-29.5,8-23.3,6.5-26.8-4.5-.5-7.5,2-30.5,20.8-33,22a24.7,24.7,0,0,1-4.3,1.8s-22.5-21.5-34.5-38-13-37.8-17.5-45.8-11-11.5-20.7-10.5S204.6,302.6,188.1,314.8Z"/></clipPath><clipPath id="clip-path-9" transform="translate(-66.2 -70.7)"><path class="cls-3" d="M305.8,389.1c-5.3-5.2-25.2-31.8-33-47.1-11.5-22.4-12.7-30.1-17.2-38.1s-11.3-8.6-21-7.6-27.2,2.8-48.6,15c0,0-9,4.9-11.8,9.9s7.3,17.5,24.7,16c12.5-1.2,35.4-14.1,35.4-14.1s.3,22,4.5,30,23.8,27.5,31.5,32.5c4.9,3.1,17.2,11.8,26.5,18.5C299.2,395.8,303.3,391.2,305.8,389.1Z"/></clipPath><clipPath id="clip-path-10" transform="translate(-66.2 -70.7)"><path class="cls-2" d="M345.6,391.6c4.2-7.5,8-23.3,6.5-26.8-.9-2-2.3-1.8-3.9-.9,1.1,4.7,0,13.7-5.1,23.4s-18.9,24-26.1,31.4a18.3,18.3,0,0,0,4.3,2.4C323.1,421.3,341.3,399.1,345.6,391.6Z"/></clipPath><clipPath id="clip-path-11" transform="translate(-66.2 -70.7)"><path class="cls-2" d="M305.8,426.8a30.2,30.2,0,0,1-6.6-6c-5.2-2.2-12.1-5-18.1-8.7s-5-6.5-8.8-10.3-8.5-3.2-11-3.3a7.3,7.3,0,0,0-2,2.8c-1,3.8,5.8,18.8,22,29.3s21.8,8.7,26.5,7.7S313.3,431.6,305.8,426.8Z"/></clipPath><clipPath id="clip-path-12" transform="translate(-66.2 -70.7)"><path class="cls-3" d="M307.1,428.6c-6.5-3.8-19.8-6.3-28.3-12s-6.2-10.8-12.5-14.8c-2.9-1.8-5.2-1.4-7-.4-.9,3.9,5.9,18.8,22,29.2s21.8,8.7,26.5,7.7,4.5-3.4,2.9-6.6A13.4,13.4,0,0,0,307.1,428.6Z"/></clipPath><clipPath id="clip-path-13" transform="translate(-66.2 -70.7)"><path class="cls-2" d="M206.7,222s1.2,12.7,1.7,16.6,1.6,15.5,2.7,19.3,7.4,10.4,8.1,8.8,3.7-11.8,2.4-17.9-1.6-11.5-.8-13,3.5-3.3,3.5-3.3a107.6,107.6,0,0,1-9.4-5.5C210.5,224,207.3,220.7,206.7,222Z"/></clipPath><clipPath id="clip-path-14" transform="translate(-66.2 -70.7)"><path class="cls-2" d="M206.3,223.8s7.2,6.1,12.7,8.2,14,2.1,15.2-.8-2.1-25.6-5-31.6-5.9-6-10.9-6.5-15.1,3.6-16.8,8.5.2,11.7,1.7,15.8A25.5,25.5,0,0,0,206.3,223.8Z"/></clipPath><clipPath id="clip-path-15" transform="translate(-66.2 -70.7)"><path class="cls-2" d="M208.4,217.9s-3.2-4.7-6.6-2.8-.8,8.5,1.3,10.8,6-2,6.4-3.1"/></clipPath></defs><title>آدم صفحه راهنمایی خریدار</title><g id="Background_Simple" data-name="Background Simple"><path class="cls-4" d="M410.5,333.1c7.4-61.1-28.8-142.2-66.3-175.7-67.8-60.5-124.1-48.8-168-27.1s-50,94-80.3,126.7-47.4,76.8-1.5,120.6,82.9,21.5,130.9,18.8,111.6,19.1,146,0C395.3,383.1,407.2,360.1,410.5,333.1Z" transform="translate(-66.2 -70.7)"/></g><g id="Background"><line class="cls-5" x1="154.4" y1="260.2" x2="154.4" y2="35.3"/><polyline class="cls-5" points="8.2 262.5 150.1 262.5 365.7 332"/><path class="cls-6" d="M139,327.9h-9.8V165.8h20.2l-8.7-31.5H114.5l-8.7,31.5H126V327.9h-9.8a9.6,9.6,0,0,0-9.6,9.4h0c.3,2.3,9.6,4.1,21,4.1s20.7-1.8,21-4.1h0A9.6,9.6,0,0,0,139,327.9Z" transform="translate(-66.2 -70.7)"/><path class="cls-3" d="M269.6,94.9V285.7l143.7,23.6V71.2Zm139.9,54.6-73,4.1V87.3l73-11.6Zm-73,11.1,73-3.3v66.6l-73-3.4Zm-5.9,59.6L272,217.5V163.6l58.6-2.7Zm0-131.9V154L272,157.3V97.6ZM272,223.8l58.6,3.3v65.2L272,282.9Zm64.5,69.4V227.5l73,4.2v73.1Z" transform="translate(-66.2 -70.7)"/></g><g id="Character"><g class="cls-7"><ellipse class="cls-4" cx="153.9" cy="319.4" rx="114.9" ry="35.8"/></g><path class="cls-8" d="M210.3,232.2s-26-3-43.2,10.3-31.8,69.3-31.5,96,10.3,40.1,35.3,51.1,71.6,6.8,97.7-1.4,34.6-37,34.3-52.4-17.5-33.3-23.3-37.1-22.3-11.6-30.5-24S228.8,235.7,210.3,232.2Z" transform="translate(-66.2 -70.7)"/><g class="cls-9"><path class="cls-10" d="M273.4,386.4c-9.9-1.4-21.6-4-30.4-9.4-18.7-11.3-23.3-32.7-30-40.7s-18.7-7.3-24-16,3.3-72.6-12-76.6a32.8,32.8,0,0,0-9.6-1.4l-.3.2c-17.1,13.4-31.8,69.3-31.5,96s10.3,40.1,35.3,51.1,71.6,6.8,97.7-1.4A39.4,39.4,0,0,0,273.4,386.4Z" transform="translate(-66.2 -70.7)"/></g><path class="cls-5" d="M210.3,232.2s-26-3-43.2,10.3-31.8,69.3-31.5,96,10.3,40.1,35.3,51.1,71.6,6.8,97.7-1.4,34.6-37,34.3-52.4-17.5-33.3-23.3-37.1-22.3-11.6-30.5-24S228.8,235.7,210.3,232.2Z" transform="translate(-66.2 -70.7)"/><path class="cls-3" d="M200.1,244.3s-17,3.3-20,6.3-15.5,50-15.5,50a18.6,18.6,0,0,1,10.5.5c5,2,5.5,7.2,6,9.7a85.3,85.3,0,0,1,.7,9s50.6-4.5,61.3-7,27.1-3.6,27.1-3.6-27.6-62.4-31.9-64.6-22-2.5-24.5-2S200.1,244.3,200.1,244.3Z" transform="translate(-66.2 -70.7)"/><line class="cls-11" x1="117.1" y1="231.3" x2="121.4" y2="196.6"/><line class="cls-11" x1="120.4" y1="205.8" x2="126.1" y2="198.3"/><path class="cls-11" d="M203.8,281.1s16.3-5.3,27-5.3" transform="translate(-66.2 -70.7)"/><path class="cls-11" d="M219.2,266.7l-1.1,8.4s2.7,0,3,1.2a3.4,3.4,0,0,1-1,2.5s7.7,4.3,8.7,9.3" transform="translate(-66.2 -70.7)"/><path class="cls-12" d="M209.4,235s-9.3,3-10.7,5.3-.3,18.7-.3,20.7,1.2-1.2,2.2-3.5,4.5-5.8,5.6-5.5,1.9,1.7,1.9,3.8,2.6,5.2,5,6.9l4.5,3.3,6-8.8c1.1-1.9,1-5.7,1.1-7s3.2,3.6,3.9,2.3-1.5-2.5-3.9-6.2-1.6-7.5-5.1-10.1S212.1,234.3,209.4,235Z" transform="translate(-66.2 -70.7)"/><g class="cls-13"><path class="cls-14" d="M198.7,240.3c-.9,1.6-.7,9.4-.5,15,2.1-2.8,6.5-7.9,9-7s4.5,10.5,4.5,10.5L209.5,235h-.1S200.1,238,198.7,240.3Z" transform="translate(-66.2 -70.7)"/><path class="cls-15" d="M198.7,240.3c-.9,1.6-.7,9.4-.5,15,2.1-2.8,6.5-7.9,9-7s4.5,10.5,4.5,10.5L209.5,235h-.1S200.1,238,198.7,240.3Z" transform="translate(-66.2 -70.7)"/></g><path class="cls-5" d="M209.4,235s-9.3,3-10.7,5.3-.3,18.7-.3,20.7,1.2-1.2,2.2-3.5,4.5-5.8,5.6-5.5,1.9,1.7,1.9,3.8,2.6,5.2,5,6.9l4.5,3.3,6-8.8c1.1-1.9,1-5.7,1.1-7s3.2,3.6,3.9,2.3-1.5-2.5-3.9-6.2-1.6-7.5-5.1-10.1S212.1,234.3,209.4,235Z" transform="translate(-66.2 -70.7)"/><path class="cls-12" d="M187.3,302.6s-5.7-8.3-12.7-9-15.5,5-15.8,7-2,12.7-.7,14.2,6,2.8,15.2-.2S186.3,307.8,187.3,302.6Z" transform="translate(-66.2 -70.7)"/><g class="cls-16"><path class="cls-14" d="M163.9,314.6s-2-5.8-1-7.8,5-4.9,7.5-7.9-5.8,1.7-6.2,0,4.4-4.1,6.2-5.1c-5.8,1.1-11.4,5.2-11.6,6.8s-2,12.7-.7,14.2,2.2,1.5,4.8,1.6A14.1,14.1,0,0,0,163.9,314.6Z" transform="translate(-66.2 -70.7)"/><path class="cls-15" d="M163.9,314.6s-2-5.8-1-7.8,5-4.9,7.5-7.9-5.8,1.7-6.2,0,4.4-4.1,6.2-5.1c-5.8,1.1-11.4,5.2-11.6,6.8s-2,12.7-.7,14.2,2.2,1.5,4.8,1.6A14.1,14.1,0,0,0,163.9,314.6Z" transform="translate(-66.2 -70.7)"/></g><path class="cls-5" d="M187.3,302.6s-5.7-8.3-12.7-9-15.5,5-15.8,7-2,12.7-.7,14.2,6,2.8,15.2-.2S186.3,307.8,187.3,302.6Z" transform="translate(-66.2 -70.7)"/><path class="cls-12" d="M167.8,304.8s-9.4,3.7-9.7,11c-.2,4,6.5,5.8,13.5,5.8s17-8.8,23.5-12.5,21.5-12.5,23.2-13.3,7.8,1.3,10.3,2a31.4,31.4,0,0,0,7.2.8s3.5,5.5,5.3,5.5-3.8-8.3-4.5-10-13-5.8-14.5-5.8-36.5,8.8-41.8,10.8S167.8,304.8,167.8,304.8Z" transform="translate(-66.2 -70.7)"/><g class="cls-17"><path class="cls-14" d="M187.4,303.8c14.3-7.2,34.7-15.5,34.7-15.5s-36.5,8.8-41.8,10.8-12.5,5.7-12.5,5.7-9.4,3.7-9.7,11c-.2,4,6.5,5.8,13.5,5.8s17-8.8,23.5-12.5l3.9-2.3C189.5,308,176.7,309.1,187.4,303.8Z" transform="translate(-66.2 -70.7)"/><path class="cls-15" d="M187.4,303.8c14.3-7.2,34.7-15.5,34.7-15.5s-36.5,8.8-41.8,10.8-12.5,5.7-12.5,5.7-9.4,3.7-9.7,11c-.2,4,6.5,5.8,13.5,5.8s17-8.8,23.5-12.5l3.9-2.3C189.5,308,176.7,309.1,187.4,303.8Z" transform="translate(-66.2 -70.7)"/></g><path class="cls-5" d="M167.8,304.8s-9.4,3.7-9.7,11c-.2,4,6.5,5.8,13.5,5.8s17-8.8,23.5-12.5,21.5-12.5,23.2-13.3,7.8,1.3,10.3,2a31.4,31.4,0,0,0,7.2.8s3.5,5.5,5.3,5.5-3.8-8.3-4.5-10-13-5.8-14.5-5.8-36.5,8.8-41.8,10.8S167.8,304.8,167.8,304.8Z" transform="translate(-66.2 -70.7)"/><path class="cls-2" d="M240.9,249.2l-7.6,42.9,55,.2,8.2-40.6a2.5,2.5,0,0,0-2.4-3l-50.6-1.6A2.7,2.7,0,0,0,240.9,249.2Z" transform="translate(-66.2 -70.7)"/><polygon class="cls-12" points="167.1 221.3 140.4 240.3 201.6 238.5 222.1 221.6 167.1 221.3"/><g class="cls-18"><polygon class="cls-19" points="167.1 221.3 140.4 240.3 201.6 238.5 222.1 221.6 167.1 221.3"/></g><polygon class="cls-5" points="167.1 221.3 140.4 240.3 201.6 238.5 222.1 221.6 167.1 221.3"/><path class="cls-12" d="M253.6,310.8s22-19.2,43.7-25.7,26.3-5.5,25.8,4.2-11,60.8-18,73.8-15.8,36.7-15.5,41.2,8.7,17.8,16.2,22.5,6.8,10.5,2,11.5-10.2,2.8-26.5-7.7-23-25.5-22-29.3,11.5-8.7,15.8-16.2,11.2-35.5,11.7-48.3a76.2,76.2,0,0,1,5-23.5s-27.5,5-35.5,10Z" transform="translate(-66.2 -70.7)"/><g class="cls-20"><path class="cls-14" d="M253.6,310.8s22-19.2,43.7-25.7,26.3-5.5,25.8,4.2-11,60.8-18,73.8-15.8,36.7-15.5,41.2,8.7,17.8,16.2,22.5,6.8,10.5,2,11.5-10.2,2.8-26.5-7.7-23-25.5-22-29.3,11.5-8.7,15.8-16.2,11.2-35.5,11.7-48.3a76.2,76.2,0,0,1,5-23.5s-27.5,5-35.5,10Z" transform="translate(-66.2 -70.7)"/><path class="cls-15" d="M253.6,310.8s22-19.2,43.7-25.7,26.3-5.5,25.8,4.2-11,60.8-18,73.8-15.8,36.7-15.5,41.2,8.7,17.8,16.2,22.5,6.8,10.5,2,11.5-10.2,2.8-26.5-7.7-23-25.5-22-29.3,11.5-8.7,15.8-16.2,11.2-35.5,11.7-48.3a76.2,76.2,0,0,1,5-23.5s-27.5,5-35.5,10Z" transform="translate(-66.2 -70.7)"/></g><path class="cls-5" d="M253.6,310.8s22-19.2,43.7-25.7,26.3-5.5,25.8,4.2-11,60.8-18,73.8-15.8,36.7-15.5,41.2,8.7,17.8,16.2,22.5,6.8,10.5,2,11.5-10.2,2.8-26.5-7.7-23-25.5-22-29.3,11.5-8.7,15.8-16.2,11.2-35.5,11.7-48.3a76.2,76.2,0,0,1,5-23.5s-27.5,5-35.5,10Z" transform="translate(-66.2 -70.7)"/><path class="cls-2" d="M275.1,385.1l-1.1,1.6a25.4,25.4,0,0,1,14.1,5.9l3.4,3.3a214.5,214.5,0,0,1,13.6-32.8c7-13,17.5-64,18-73.8s-4-10.7-25.8-4.2-43.7,25.7-43.7,25.7l2.7,12.5c8-5,35.5-10,35.5-10a76.2,76.2,0,0,0-5,23.5C286.3,349.6,279.3,377.6,275.1,385.1Z" transform="translate(-66.2 -70.7)"/><path class="cls-6" d="M275.1,385.1l-1.1,1.6a25.4,25.4,0,0,1,14.1,5.9l3.4,3.3c4.8-6.5,10.2-26.8,16.2-35.1,15.8-21.6,14.9-61.7,15.4-71.5s-4-10.7-25.8-4.2-43.7,25.7-43.7,25.7l2.7,12.5c8-5,35.5-10,35.5-10a76.2,76.2,0,0,0-5,23.5C286.3,349.6,279.3,377.6,275.1,385.1Z" transform="translate(-66.2 -70.7)"/><g class="cls-21"><path class="cls-22" d="M312.5,288c-.4-3.6-39.1,12.8-55.4,19.9l-3.5,2.9,2.7,12.5c8-5,35.5-10,35.5-10a76.2,76.2,0,0,0-5,23.5c-.5,12.8-7.5,40.8-11.7,48.3l-1.1,1.6a28,28,0,0,1,8,2.1c6-12.8,12.5-27.7,15.5-39.3C303,328.5,313,292.5,312.5,288Z" transform="translate(-66.2 -70.7)"/><path class="cls-5" d="M291.8,313.3s7.5-15.2,14-21.5" transform="translate(-66.2 -70.7)"/></g><path class="cls-5" d="M275.1,385.1l-1.1,1.6a25.4,25.4,0,0,1,14.1,5.9l3.4,3.3c4.8-6.5,10.2-26.8,16.2-35.1,15.8-21.6,14.9-61.7,15.4-71.5s-4-10.7-25.8-4.2-43.7,25.7-43.7,25.7l2.7,12.5c8-5,35.5-10,35.5-10a76.2,76.2,0,0,0-5,23.5C286.3,349.6,279.3,377.6,275.1,385.1Z" transform="translate(-66.2 -70.7)"/><path class="cls-3" d="M220.6,331a88.4,88.4,0,0,0,23.7-4.5c11.3-4.1-9.3-11.7-17.2-7.5A11.7,11.7,0,0,0,220.6,331Z" transform="translate(-66.2 -70.7)"/><path class="cls-12" d="M188.1,314.8s-8,4.5-10.8,9.5,9.1,13.4,21.6,12.9,35.4-14.1,35.4-14.1.3,22,4.5,30,23.8,27.5,31.5,32.5,33.8,23.7,37.8,26.7,11.5,8.5,13.2,8.8,20-22,24.3-29.5,8-23.3,6.5-26.8-4.5-.5-7.5,2-30.5,20.8-33,22a24.7,24.7,0,0,1-4.3,1.8s-22.5-21.5-34.5-38-13-37.8-17.5-45.8-11-11.5-20.7-10.5S204.6,302.6,188.1,314.8Z" transform="translate(-66.2 -70.7)"/><g class="cls-23"><path class="cls-14" d="M293.9,402l14.2,10.3c4,3,11.5,8.5,13.2,8.8s3.3-2.7,6.7-6.6l-28.6-18.4Z" transform="translate(-66.2 -70.7)"/><path class="cls-15" d="M293.9,402l14.2,10.3c4,3,11.5,8.5,13.2,8.8s3.3-2.7,6.7-6.6l-28.6-18.4Z" transform="translate(-66.2 -70.7)"/></g><path class="cls-5" d="M188.1,314.8s-8,4.5-10.8,9.5,9.1,13.4,21.6,12.9,35.4-14.1,35.4-14.1.3,22,4.5,30,23.8,27.5,31.5,32.5,33.8,23.7,37.8,26.7,11.5,8.5,13.2,8.8,20-22,24.3-29.5,8-23.3,6.5-26.8-4.5-.5-7.5,2-30.5,20.8-33,22a24.7,24.7,0,0,1-4.3,1.8s-22.5-21.5-34.5-38-13-37.8-17.5-45.8-11-11.5-20.7-10.5S204.6,302.6,188.1,314.8Z" transform="translate(-66.2 -70.7)"/><path class="cls-6" d="M305.8,389.1c-5.3-5.2-25.2-31.8-33-47.1-11.5-22.4-12.7-30.1-17.2-38.1s-11.3-8.6-21-7.6-27.2,2.8-48.6,15c0,0-9,4.9-11.8,9.9s7.3,17.5,24.7,16c12.5-1.2,35.4-14.1,35.4-14.1s.3,22,4.5,30,23.8,27.5,31.5,32.5c4.9,3.1,17.2,11.8,26.5,18.5C299.2,395.8,303.3,391.2,305.8,389.1Z" transform="translate(-66.2 -70.7)"/><g class="cls-24"><path class="cls-22" d="M255.5,353.5c-7.5-19-3-57-24-52-15.3,3.6-43.3,16.6-57.4,23.3,1.6,5.8,10.8,13.6,24.8,12.4s35.4-14.1,35.4-14.1.3,22,4.5,30,23.8,27.5,31.5,32.5c4.9,3.1,17.2,11.8,26.5,18.5a38.3,38.3,0,0,1,3.5-8.3C281.7,382,259.7,364.1,255.5,353.5Z" transform="translate(-66.2 -70.7)"/><line class="cls-5" x1="168.1" y1="252.3" x2="167.4" y2="239.3"/></g><path class="cls-5" d="M305.8,389.1c-5.3-5.2-25.2-31.8-33-47.1-11.5-22.4-12.7-30.1-17.2-38.1s-11.3-8.6-21-7.6-27.2,2.8-48.6,15c0,0-9,4.9-11.8,9.9s7.3,17.5,24.7,16c12.5-1.2,35.4-14.1,35.4-14.1s.3,22,4.5,30,23.8,27.5,31.5,32.5c4.9,3.1,17.2,11.8,26.5,18.5C299.2,395.8,303.3,391.2,305.8,389.1Z" transform="translate(-66.2 -70.7)"/><path class="cls-3" d="M308.1,412.3c4,3,11.5,8.5,13.2,8.8s20-22,24.3-29.5,8-23.3,6.5-26.8-4.5-.5-7.5,2-30.5,20.8-33,22l-1.8.8c-.7,1.4-1.6,3.5-1,5s5.3,5.2,5.3,5.2l-7.6,11.4Z" transform="translate(-66.2 -70.7)"/><path class="cls-12" d="M345.6,391.6c4.2-7.5,8-23.3,6.5-26.8-.9-2-2.3-1.8-3.9-.9,1.1,4.7,0,13.7-5.1,23.4s-18.9,24-26.1,31.4a18.3,18.3,0,0,0,4.3,2.4C323.1,421.3,341.3,399.1,345.6,391.6Z" transform="translate(-66.2 -70.7)"/><g class="cls-25"><path class="cls-14" d="M321.6,421h.3l.3-.2h.1l.3-.2.2-.2.4-.3c0-.1.1-.2.2-.3l.3-.3.3-.3.3-.3.7-.7h.1l.5-.5c0-.1.1-.1.1-.2l1.7-1.8h0l.6-.7h0l-4.3-2.8-6.7,7h0l.7.5h.1l.6.4h0l1,.6.3.2h.3l.3.2h1.3Z" transform="translate(-66.2 -70.7)"/><path class="cls-15" d="M321.6,421h.3l.3-.2h.1l.3-.2.2-.2.4-.3c0-.1.1-.2.2-.3l.3-.3.3-.3.3-.3.7-.7h.1l.5-.5c0-.1.1-.1.1-.2l1.7-1.8h0l.6-.7h0l-4.3-2.8-6.7,7h0l.7.5h.1l.6.4h0l1,.6.3.2h.3l.3.2h1.3Z" transform="translate(-66.2 -70.7)"/></g><path class="cls-5" d="M345.6,391.6c4.2-7.5,8-23.3,6.5-26.8-.9-2-2.3-1.8-3.9-.9,1.1,4.7,0,13.7-5.1,23.4s-18.9,24-26.1,31.4a18.3,18.3,0,0,0,4.3,2.4C323.1,421.3,341.3,399.1,345.6,391.6Z" transform="translate(-66.2 -70.7)"/><path class="cls-3" d="M305.8,426.8c-7.5-4.7-16-18-16.2-22.5a4.1,4.1,0,0,1,.1-1.5,7.5,7.5,0,0,0-4.1,1.5,88.2,88.2,0,0,0-9.8-7.7,19.2,19.2,0,0,0-8.9-2.7c-3.7,3-7,5.4-7.6,7.4-1,3.8,5.8,18.8,22,29.3s21.8,8.7,26.5,7.7S313.3,431.6,305.8,426.8Z" transform="translate(-66.2 -70.7)"/><path class="cls-2" d="M257.8,401.8" transform="translate(-66.2 -70.7)"/><path class="cls-12" d="M305.8,426.8a30.2,30.2,0,0,1-6.6-6c-5.2-2.2-12.1-5-18.1-8.7s-5-6.5-8.8-10.3-8.5-3.2-11-3.3a7.3,7.3,0,0,0-2,2.8c-1,3.8,5.8,18.8,22,29.3s21.8,8.7,26.5,7.7S313.3,431.6,305.8,426.8Z" transform="translate(-66.2 -70.7)"/><g class="cls-26"><path class="cls-14" d="M305.8,426.8a30.2,30.2,0,0,1-6.6-6c-5.2-2.2-12.1-5-18.1-8.7s-5-6.5-8.8-10.3-8.5-3.2-11-3.3a7.3,7.3,0,0,0-2,2.8c-1,3.8,5.8,18.8,22,29.3s21.8,8.7,26.5,7.7S313.3,431.6,305.8,426.8Z" transform="translate(-66.2 -70.7)"/><path class="cls-15" d="M305.8,426.8a30.2,30.2,0,0,1-6.6-6c-5.2-2.2-12.1-5-18.1-8.7s-5-6.5-8.8-10.3-8.5-3.2-11-3.3a7.3,7.3,0,0,0-2,2.8c-1,3.8,5.8,18.8,22,29.3s21.8,8.7,26.5,7.7S313.3,431.6,305.8,426.8Z" transform="translate(-66.2 -70.7)"/></g><path class="cls-5" d="M305.8,426.8a30.2,30.2,0,0,1-6.6-6c-5.2-2.2-12.1-5-18.1-8.7s-5-6.5-8.8-10.3-8.5-3.2-11-3.3a7.3,7.3,0,0,0-2,2.8c-1,3.8,5.8,18.8,22,29.3s21.8,8.7,26.5,7.7S313.3,431.6,305.8,426.8Z" transform="translate(-66.2 -70.7)"/><path class="cls-6" d="M307.1,428.6c-6.5-3.8-19.8-6.3-28.3-12s-6.2-10.8-12.5-14.8c-2.9-1.8-5.2-1.4-7-.4-.9,3.9,5.9,18.8,22,29.2s21.8,8.7,26.5,7.7,4.5-3.4,2.9-6.6A13.4,13.4,0,0,0,307.1,428.6Z" transform="translate(-66.2 -70.7)"/><g class="cls-27"><path class="cls-28" d="M307.1,428.6c-6.5-3.8-19.8-6.3-28.3-12s-6.2-10.8-12.5-14.8c-2.9-1.8-5.2-1.4-7-.4-.9,3.9,5.9,18.8,22,29.2s21.8,8.7,26.5,7.7,4.5-3.4,2.9-6.6A13.4,13.4,0,0,0,307.1,428.6Z" transform="translate(-66.2 -70.7)"/></g><path class="cls-5" d="M307.1,428.6c-6.5-3.8-19.8-6.3-28.3-12s-6.2-10.8-12.5-14.8c-2.9-1.8-5.2-1.4-7-.4-.9,3.9,5.9,18.8,22,29.2s21.8,8.7,26.5,7.7,4.5-3.4,2.9-6.6A13.4,13.4,0,0,0,307.1,428.6Z" transform="translate(-66.2 -70.7)"/><path class="cls-2" d="M182.5,380.7s4.8-5.8,5.5-1.3-.4,12.7-3.8,15.7-5.1-1.7-5.1-1.7l2-2.7s1.7,3.4,3.1-2.1-2.7-4.8-2.7-4.8Z" transform="translate(-66.2 -70.7)"/><path class="cls-2" d="M178.8,402.7c-2.8,2.1-12.1,2.1-14.9,0-6-4.5-5-26-5-26h24.9S184.8,398.2,178.8,402.7Z" transform="translate(-66.2 -70.7)"/><path class="cls-5" d="M161.6,372.5c0-2.7,2.5-2.7,2.5-5.4s-2.5-2.7-2.5-5.4,2.5-2.7,2.5-5.4-2.5-2.7-2.5-5.4,2.5-2.7,2.5-5.5" transform="translate(-66.2 -70.7)"/><path class="cls-5" d="M170.2,372.5c0-2,2.5-2,2.5-4.1s-2.5-2-2.5-4.1,2.5-2.1,2.5-4.1-2.5-2.1-2.5-4.1,2.5-2.1,2.5-4.1" transform="translate(-66.2 -70.7)"/><path class="cls-5" d="M179.6,372.5c0-2.7,2.6-2.7,2.6-5.4s-2.6-2.7-2.6-5.4,2.6-2.7,2.6-5.4-2.6-2.7-2.6-5.4,2.6-2.7,2.6-5.5" transform="translate(-66.2 -70.7)"/><path class="cls-2" d="M183.8,376.7c0,.7-5.6,1.2-12.5,1.2s-12.4-.5-12.4-1.2,5.6-1.1,12.4-1.1S183.8,376.1,183.8,376.7Z" transform="translate(-66.2 -70.7)"/><path class="cls-12" d="M206.7,222s1.2,12.7,1.7,16.6,1.6,15.5,2.7,19.3,7.4,10.4,8.1,8.8,3.7-11.8,2.4-17.9-1.6-11.5-.8-13,3.5-3.3,3.5-3.3a107.6,107.6,0,0,1-9.4-5.5C210.5,224,207.3,220.7,206.7,222Z" transform="translate(-66.2 -70.7)"/><g class="cls-29"><path class="cls-14" d="M222.8,233.1l-1.1-2a72.1,72.1,0,0,1-6.8-4.1c-4.4-3-7.6-6.3-8.2-5s1.2,12.7,1.7,16.6,1.6,15.5,2.7,19.3a15.3,15.3,0,0,0,1.6,3.1c-1.2-7.5.1-21.2.1-21.2Z" transform="translate(-66.2 -70.7)"/><path class="cls-15" d="M222.8,233.1l-1.1-2a72.1,72.1,0,0,1-6.8-4.1c-4.4-3-7.6-6.3-8.2-5s1.2,12.7,1.7,16.6,1.6,15.5,2.7,19.3a15.3,15.3,0,0,0,1.6,3.1c-1.2-7.5.1-21.2.1-21.2Z" transform="translate(-66.2 -70.7)"/></g><path class="cls-5" d="M206.7,222s1.2,12.7,1.7,16.6,1.6,15.5,2.7,19.3,7.4,10.4,8.1,8.8,3.7-11.8,2.4-17.9-1.6-11.5-.8-13,3.5-3.3,3.5-3.3a107.6,107.6,0,0,1-9.4-5.5C210.5,224,207.3,220.7,206.7,222Z" transform="translate(-66.2 -70.7)"/><path class="cls-12" d="M206.3,223.8s7.2,6.1,12.7,8.2,14,2.1,15.2-.8-2.1-25.6-5-31.6-5.9-6-10.9-6.5-15.1,3.6-16.8,8.5.2,11.7,1.7,15.8A25.5,25.5,0,0,0,206.3,223.8Z" transform="translate(-66.2 -70.7)"/><g class="cls-30"><path class="cls-14" d="M219.2,223.6c-2.6-7.6-3.2-19.5-3.2-22.7s6.4-5.1,9.3-6.2c-1.9-1.2-4.1-1.3-7-1.6-5-.5-15.1,3.6-16.8,8.5s.2,11.7,1.7,15.8a25.5,25.5,0,0,0,3.1,6.4s7.2,6.1,12.7,8.2a22.6,22.6,0,0,0,11.9,1.2C227,231.7,220.9,228.6,219.2,223.6Z" transform="translate(-66.2 -70.7)"/><path class="cls-15" d="M219.2,223.6c-2.6-7.6-3.2-19.5-3.2-22.7s6.4-5.1,9.3-6.2c-1.9-1.2-4.1-1.3-7-1.6-5-.5-15.1,3.6-16.8,8.5s.2,11.7,1.7,15.8a25.5,25.5,0,0,0,3.1,6.4s7.2,6.1,12.7,8.2a22.6,22.6,0,0,0,11.9,1.2C227,231.7,220.9,228.6,219.2,223.6Z" transform="translate(-66.2 -70.7)"/></g><path class="cls-5" d="M206.3,223.8s7.2,6.1,12.7,8.2,14,2.1,15.2-.8-2.1-25.6-5-31.6-5.9-6-10.9-6.5-15.1,3.6-16.8,8.5.2,11.7,1.7,15.8A25.5,25.5,0,0,0,206.3,223.8Z" transform="translate(-66.2 -70.7)"/><path class="cls-5" d="M229.8,209c.1,2.9-1.7,5.3-4,5.4s-4.4-2.2-4.5-5.1,1.7-5.3,4-5.4S229.7,206.1,229.8,209Z" transform="translate(-66.2 -70.7)"/><path class="cls-5" d="M235.4,207.9c.2,2.9-.8,5.2-2,5.3s-2.4-2.3-2.5-5.1.8-5.3,2.1-5.3S235.3,205,235.4,207.9Z" transform="translate(-66.2 -70.7)"/><path class="cls-2" d="M230.1,207.9s8.2,1.6,7.4,3.6-6.3,4.1-6.3,4.1" transform="translate(-66.2 -70.7)"/><path class="cls-5" d="M229.6,207s.1-1,1.4-.4" transform="translate(-66.2 -70.7)"/><line class="cls-5" x1="154.9" y1="139.1" x2="139.9" y2="145"/><path class="cls-31" d="M221.3,204.9a3.6,3.6,0,0,1,3.7-2.2" transform="translate(-66.2 -70.7)"/><line class="cls-31" x1="165.1" y1="132" x2="162.8" y2="132.9"/><path class="cls-5" d="M224.1,219.5s3-.8,4.7,1" transform="translate(-66.2 -70.7)"/><path class="cls-6" d="M226.1,209.5c.1,1-.1,1.9-.4,1.9s-.8-.7-.9-1.7,0-1.9.4-1.9S225.9,208.5,226.1,209.5Z" transform="translate(-66.2 -70.7)"/><path class="cls-3" d="M207.5,215.7s-1,2,1.8,2.1,4.7-1.2,3.3-2.9-3.3-3.4-1.3-5.6,6.2-4.2,3.9-6.7-10.7-.3-8.6-2.3,11.8-4.2,16.2-3.9,12.5-3.1,14.3-7.5-.7-12.6-6.6-12.2-10.2,5.7-12.8,6-7.9-2.5-12.4,0-4.6,9.8-5,10.7-6.5,2.2-7.5,8.3a16.2,16.2,0,0,0,4.2,13.8l3.6,3.8Z" transform="translate(-66.2 -70.7)"/><path class="cls-32" d="M194.7,204.7a4.3,4.3,0,0,0,.7,2.6" transform="translate(-66.2 -70.7)"/><path class="cls-32" d="M220.2,188.8s-2.2-4.8,3.4-4.8,6.4,7,.6,9.6-18.3,3.2-25,6.2a8.2,8.2,0,0,0-3.5,2.4" transform="translate(-66.2 -70.7)"/><path class="cls-32" d="M210.2,205.8c-2,.7-4.6,1.7-7.3,2.9-5.5,2.6-4.3,5.2-4.3,5.2" transform="translate(-66.2 -70.7)"/><path class="cls-32" d="M213.9,204.5l-1.3.4" transform="translate(-66.2 -70.7)"/><path class="cls-12" d="M208.4,217.9s-3.2-4.7-6.6-2.8-.8,8.5,1.3,10.8,6-2,6.4-3.1" transform="translate(-66.2 -70.7)"/><g class="cls-33"><path class="cls-14" d="M208.4,217.9s-3.2-4.7-6.6-2.8-.8,8.5,1.3,10.8,6-2,6.4-3.1" transform="translate(-66.2 -70.7)"/><path class="cls-15" d="M208.4,217.9s-3.2-4.7-6.6-2.8-.8,8.5,1.3,10.8,6-2,6.4-3.1" transform="translate(-66.2 -70.7)"/></g><path class="cls-5" d="M208.4,217.9s-3.2-4.7-6.6-2.8-.8,8.5,1.3,10.8,6-2,6.4-3.1" transform="translate(-66.2 -70.7)"/><rect class="cls-2" x="24.6" y="142.9" width="81.9" height="62.64" rx="5.1"/><polyline class="cls-2" points="105 188 153 200.5 105 177"/><rect class="cls-1" x="31.3" y="148.9" width="19.3" height="19.27"/><rect class="cls-34" x="99.9" y="148.9" width="2.4" height="50.6"/><rect class="cls-3" x="99.9" y="172.1" width="2.4" height="4.32"/><line class="cls-2" x1="56.6" y1="161" x2="94.5" y2="161"/><line class="cls-2" x1="56.6" y1="166.4" x2="94.5" y2="166.4"/><line class="cls-2" x1="56.6" y1="179.6" x2="94.5" y2="179.6"/><line class="cls-2" x1="56.6" y1="184.5" x2="94.5" y2="184.5"/><line class="cls-2" x1="56.6" y1="189.3" x2="94.5" y2="189.3"/><line class="cls-2" x1="56.6" y1="199.3" x2="94.5" y2="199.3"/><line class="cls-5" x1="31.3" y1="168.2" x2="50.5" y2="148.9"/><text class="cls-35" transform="translate(58.7 154.7)"><tspan class="cls-36">a</tspan><tspan class="cls-37" x="2.8" y="0">m</tspan><tspan x="8" y="0">a</tspan><tspan class="cls-38" x="10.8" y="0">z</tspan><tspan class="cls-39" x="13.5" y="0">o</tspan><tspan x="16.7" y="0">n.</tspan><tspan class="cls-40" x="21.7" y="0">c</tspan><tspan class="cls-39" x="24.4" y="0">o</tspan><tspan x="27.6" y="0">m</tspan></text></g><g id="Plants"><ellipse class="cls-4" cx="321.7" cy="332" rx="16.7" ry="7.5"/><path class="cls-6" d="M368.3,291.8c1.8.8,6.2.7,6.2.7l-1.1-3.1c-.9-2-4-5.3-6.4-5a3,3,0,0,0-2.4,3.7C365,289.8,366.8,291.1,368.3,291.8Z" transform="translate(-66.2 -70.7)"/><path class="cls-6" d="M425.7,276.9c-2.5-.3-5.5,3.1-6.4,5.1a25.4,25.4,0,0,0-.9,3.1h0l-1.5,1.8c-.9,1.1-2,2.5-3.1,4.1a56.5,56.5,0,0,0-3.3,5.1,39.8,39.8,0,0,0-2.7,6.3.1.1,0,0,1-.1.1,29.3,29.3,0,0,0,0-3c-.3-2.2-2.1-6.3-4.6-6.7a2.9,2.9,0,0,0-3.4,2.8,6.2,6.2,0,0,0,2.4,4.6c1.4,1.2,5.3,2.4,5.6,2.5a52,52,0,0,0-1.7,6.8l-.6,4.1v-1.3c-.3-2.2-2.2-6.3-4.6-6.8a3,3,0,0,0-3.4,2.8c-.2,1.7,1.1,3.5,2.4,4.6s4.5,2.2,5.4,2.5a8.8,8.8,0,0,0-.2,1.6c-.3,2.5-.6,5-1,7.4a23.4,23.4,0,0,1-.4,2.6v-1.1c-.3-2.2-2.2-6.3-4.6-6.8a3,3,0,0,0-3.4,2.8c-.2,1.7,1.1,3.5,2.3,4.6s4.3,2.1,5.3,2.5a22.7,22.7,0,0,1-.6,2.5,10.5,10.5,0,0,1-.4,1.7l-.6,1.6c-.3,1-.7,2.1-1.1,3.1l-.8,2c.1-.8.4-2.5.4-2.7a11.1,11.1,0,0,0-1.6-5.5V331a2.9,2.9,0,0,0-3.6-2.5c-2.4.6-4,4.9-4.1,7.1,0,.1.1,1.6.2,2.5a12.4,12.4,0,0,1-.4-1.6c-.2-1.1-.5-2.1-.8-3.3a9.8,9.8,0,0,1-.5-1.6l-.6-1.7c-.5-1.3-1-2.6-1.6-3.9s4.2-1.1,5.5-2.1,2.8-2.7,2.8-4.4a3,3,0,0,0-3.2-3c-2.5.2-4.7,4.2-5.1,6.4,0,.1-.2,1.7-.3,2.6-.3-.8-.7-1.6-1-2.3l-3.5-6.7-1.1-2.1c.3-.1,4.3-1,5.8-2.1s2.7-2.7,2.7-4.4a3,3,0,0,0-3.2-3.1c-2.5.3-4.6,4.3-5.1,6.4,0,.2-.2,2.5-.3,3.1l-2.2-4.5a40.6,40.6,0,0,1-2.4-6.3c.1,0,4.2-1,5.8-2.2s2.7-2.6,2.7-4.4a2.9,2.9,0,0,0-3.2-3c-2.5.3-4.6,4.2-5.1,6.4,0,.2-.3,2.6-.3,3.1s-.1-.3-.1-.4a40.5,40.5,0,0,1-1.3-6.6c-.1-1.3-.2-2.4-.2-3.6s4.4-.6,5.9-1.5,3-2.3,3.1-4.1a2.9,2.9,0,0,0-2.8-3.3c-2.5,0-5.1,3.6-5.7,5.8a19.8,19.8,0,0,0-.5,2.2v-1.6c0-1.9.1-3.6.2-5.1s.2-1.7.3-2.4,3.6-2.6,4.5-4,1.5-3.5.9-5.1a3,3,0,0,0-4.1-1.7c-2.2,1.2-2.8,5.6-2.4,7.8,0,.2.9,3.1.9,3.1h0a15.2,15.2,0,0,0-.2,2.3,37.7,37.7,0,0,0-.4,5.1,41.1,41.1,0,0,0,1.3,12.9h0l-1.6-2.5c-1.5-1.7-5.3-4.1-7.6-3.1a2.9,2.9,0,0,0-1.3,4.2c.8,1.6,2.9,2.3,4.5,2.6s5.8-.9,6.1-1a43.8,43.8,0,0,0,2.4,6.6c.5,1.2,1.1,2.4,1.7,3.7l-.8-1.1c-1.4-1.7-5.2-4.1-7.5-3.1a2.9,2.9,0,0,0-1.3,4.2c.8,1.6,2.8,2.3,4.5,2.6s5-.7,5.9-.9.5.9.7,1.4c1.1,2.2,2.3,4.5,3.3,6.7l1.1,2.4c-.4-.5-.6-.9-.7-.9-1.4-1.7-5.2-4.1-7.5-3.1a2.8,2.8,0,0,0-1.3,4.1c.8,1.6,2.8,2.4,4.5,2.6a18.9,18.9,0,0,0,5.7-.9l1,2.5a9.8,9.8,0,0,0,.5,1.6c.1.6.3,1.1.4,1.7a29.9,29.9,0,0,1,.8,3.2,15.5,15.5,0,0,1,.4,2.1c-.3-.8-1.1-2.3-1.1-2.4-1.2-1.9-4.6-4.9-7-4.2a2.9,2.9,0,0,0-2,3.9c.6,1.7,2.5,2.7,4.1,3.2a20.2,20.2,0,0,0,6.1,0c.3,1.1.5,2.3.7,3.3.6,3.8,1,6.9,1.3,9,0,.4.1.8.1,1.1h-7.5l2.4,47.1a6.7,6.7,0,0,0,6.7,6.4h0a6.8,6.8,0,0,0,6.8-6.4l2.4-47.1h-7c0-.1.1-.2.1-.3,1-2,2.3-4.9,3.8-8.4.4-1.1.9-2.3,1.3-3.5s4.4.8,6.1.4a6.2,6.2,0,0,0,4.4-2.9,2.9,2.9,0,0,0-1.7-4c-2.3-.8-5.9,1.8-7.3,3.6,0,.1-.8,1.4-1.2,2.2l.6-1.5c.3-1.1.7-2.1,1.1-3.2a10.9,10.9,0,0,1,.5-1.7,13.6,13.6,0,0,1,.4-1.7c.3-1.3.6-2.7.8-4.1.9.3,4.1,1.4,5.8,1.3s3.7-.7,4.7-2.2a3,3,0,0,0-1-4.3c-2.2-1.1-6.2,1-7.8,2.6l-1.6,2c.1-.8.3-1.7.4-2.5.3-2.5.5-5,.8-7.5a16.4,16.4,0,0,1,.2-2.3c.3.1,4.1,1.5,6,1.4s3.7-.7,4.7-2.2a3,3,0,0,0-1-4.3c-2.2-1.1-6.2,1-7.8,2.5a27.9,27.9,0,0,1-1.9,2.4l.6-5c.4-2.2.9-4.5,1.5-6.6.1.1,4.1,1.6,6,1.5s3.7-.8,4.7-2.2a3,3,0,0,0-1-4.3c-2.2-1.2-6.2.9-7.8,2.5l-1.9,2.5c0-.2.1-.3.1-.4a36.1,36.1,0,0,1,2.6-6.3l1.8-3.1a19.7,19.7,0,0,0,5.7,2c1.6.1,3.8-.3,4.9-1.7a2.9,2.9,0,0,0-.5-4.3c-2.1-1.4-6.3.3-8,1.6l-1.6,1.6.8-1.3c1.1-1.6,2.1-2.9,3.1-4.1l1.5-1.9c.9,0,4.4-.1,5.9-.8s3.3-2.1,3.6-3.8A2.9,2.9,0,0,0,425.7,276.9Zm-27.5,66.6c-1.5,3.5-2.9,6.3-3.9,8.2l-.5,1.1h-.2a6.9,6.9,0,0,0-.2-1.3c-.3-2.2-.7-5.3-1.5-9-.2-1.2-.5-2.5-.8-3.7s2-.8,3.4-1.6a25.9,25.9,0,0,0,5,3.2C399.1,341.5,398.6,342.5,398.2,343.5Z" transform="translate(-66.2 -70.7)"/><path class="cls-6" d="M412.6,292.7c0,.1.8-2.9.8-3.1.3-2.2-.4-6.6-2.6-7.7a2.9,2.9,0,0,0-4,1.8c-.7,1.6.1,3.7,1,5.1S412.6,292.7,412.6,292.7Z" transform="translate(-66.2 -70.7)"/></g></svg>