<svg xmlns="http://www.w3.org/2000/svg" viewBox="0 0 384.5 382.8"><defs><style>.cls-1{opacity:0.25;}.cls-2{fill:#edf2f0;}.cls-3{fill:#fff;}.cls-3,.cls-4,.cls-5,.cls-6{stroke:#263238;}.cls-3,.cls-4,.cls-5{stroke-linecap:round;stroke-linejoin:round;}.cls-4{fill:#263238;}.cls-5,.cls-7{fill:#067fc8;}.cls-6{fill:none;stroke-miterlimit:10;}</style></defs><title>آدم صفحه راهنمایی مسافر</title><g id="Background_Simple" data-name="Background Simple"><g class="cls-1"><path class="cls-2" d="M382.4,111.2s-45.8-41-110.2-31.8S157.4,138.6,115.5,178,67.3,272.2,98.4,311s71.3,16.7,128,37.9,68.7,35.5,127.8,22.4,97.5-85.4,82.9-156.4S382.4,111.2,382.4,111.2Z" transform="translate(-55.7 -59.7)"/></g></g><g id="Clouds"><path class="cls-2" d="M390.4,242.3c-4.5-2.5-6.6-.4-8.3-2.5s4.6-7.4-7.8-12.8c0,0-.8-11.5-17.8-11.9s-12.4,11.5-16.9,14.4-5.8-1.6-10.3,1.2-2.5,8.7-6.2,9.5-8.7-3.7-13.3-.8-4.5,5.4-6.6,5.4-6.2-1.7-8.6,0-5.4,3.7-5.4,3.7H393.7S394.9,244.8,390.4,242.3Z" transform="translate(-55.7 -59.7)"/><path class="cls-2" d="M363.5,97.8c-6.3-3.4-9.2-.6-11.5-3.4s6.3-10.4-11-17.9c0,0-1.2-16.2-24.8-16.8s-17.3,16.2-23.7,20.2-8.1-2.3-14.4,1.8-3.5,12.1-8.7,13.2-12.1-5.2-18.4-1.1-6.4,7.5-9.3,7.5-8.6-2.3-12.1,0-7.5,5.2-7.5,5.2h146S369.9,101.3,363.5,97.8Z" transform="translate(-55.7 -59.7)"/><path class="cls-2" d="M196.7,171.6c-4.5-2.5-6.6-.4-8.2-2.5s4.5-7.4-7.9-12.8c0,0-.8-11.5-17.8-11.9s-12.3,11.5-16.9,14.4-5.8-1.6-10.3,1.3-2.5,8.6-6.2,9.5-8.7-3.8-13.2-.9-4.6,5.4-6.6,5.4-6.2-1.7-8.7,0l-5.4,3.7H200S201.3,174.1,196.7,171.6Z" transform="translate(-55.7 -59.7)"/></g><g id="Trees"><path class="cls-3" d="M231.9,359.6h6.8c1.2,0,3.1,2.5,1.3,4.9s-2.9,5.2-5.5,5.8-2.2,2.1-3.9,4.1-6.8,2.4-9.3,1.8-.2-13.5.2-14.1S226.2,364.3,231.9,359.6Z" transform="translate(-55.7 -59.7)"/><path class="cls-3" d="M234.5,370.1c2.6-.6,3.8-3.4,5.5-5.8a3,3,0,0,0,.5-3.2,14,14,0,0,1-3.8,6.2c-1.8,1.4-3.2.6-4.2,1.8s-1.9,3.5-7.1,3.5a20.8,20.8,0,0,1-5.3-.6c0,2.1.3,3.8,1.2,4,2.5.6,7.5.2,9.3-1.8S231.9,370.6,234.5,370.1Z" transform="translate(-55.7 -59.7)"/><path class="cls-3" d="M265.8,366.9s-.6,7.1-.2,8.5,4.3,2.8,6.5,2.4,6.1-3.2,6.1-3.2,8.7-3.4,11.9-5.3,4.1-4.4,1.7-5-10.2-2.2-12.6-2.7-2.4,1.5-7.5,2.7S265.8,366.9,265.8,366.9Z" transform="translate(-55.7 -59.7)"/><path class="cls-3" d="M290.7,366.9a122.8,122.8,0,0,1-14.5,6.9,14.6,14.6,0,0,1-10.8.1,4.9,4.9,0,0,0,.2,1.5c.3,1.4,4.3,2.8,6.5,2.4s6.1-3.2,6.1-3.2,8.7-3.4,11.9-5.3,3.8-3.7,2.6-4.6A6.9,6.9,0,0,1,290.7,366.9Z" transform="translate(-55.7 -59.7)"/><path class="cls-4" d="M230.9,227.4s-2.3,12.6-3,19.7-2.7,24.6-2.7,33-.6,23.7-.6,23.7a105.3,105.3,0,0,1-2.1,11.7c-1.3,5.5-1.9,16-1.7,21.2s.2,19.4.2,19.4a38.3,38.3,0,0,0,0,5c.2,1.9.6,4.2,2.5,4.2s5.3,0,6.7-1.1a9.8,9.8,0,0,0,2.8-6.3c.2-2.9,1-12.6,1.2-14.9s6.8-30.6,7.6-36.5,1.2-9.2,1.2-9.2l7-37.1,2.1.4s12.1,45.1,12.1,48.2-1.4,17,.1,24.8,1.4,34.6,1.4,34.6a5.8,5.8,0,0,0,2.9,1.7c1.7.4,6.6-.8,8.5-3.8s2.7-8.6,2.7-10.1,1.7-32.9,1.7-40.9-.7-17.8-.7-18.6-1.9-37-2.5-40.3-7.1-29.6-7.1-29.6S251.4,232.6,230.9,227.4Z" transform="translate(-55.7 -59.7)"/><path class="cls-3" d="M214.1,199.3s-2.5,6.3-2.9,9.6,1.8,9.1,3.7,10.3,8.2-1.4,9.1-2.9,5.4-11.4,5.4-11.4A30.8,30.8,0,0,1,214.1,199.3Z" transform="translate(-55.7 -59.7)"/><polygon class="cls-4" points="218.8 143.5 211.3 176.8 216.2 176.8 223.4 142.8 218.8 143.5"/><path class="cls-3" d="M280.7,176.9s3.6-.7,4.5,0,1,3.9,1,5.2-1,4.9-.6,6.5,5.9,9.4,8.2,14.3-.7,12.8-3.3,16.1-7.9-8.4-9.5-12.3-4.3-28.2-4.3-28.2Z" transform="translate(-55.7 -59.7)"/><path class="cls-3" d="M287.7,197.2s5.2,8.9,5.4,11.8-1.2,9-2.5,11.1-4.8.3-7.3-1.1a10.3,10.3,0,0,1-5.1-5.4l-4.3-8.7S282.3,202.6,287.7,197.2Z" transform="translate(-55.7 -59.7)"/><path class="cls-3" d="M240.9,160a24.2,24.2,0,0,0-6.9,2.6c-3.3,1.9-8.4,5.8-10.1,8.8s-6.9,16.3-9.4,21.2l-3.3,6.7s3.1,4.4,7.1,6.1,11.1,2.1,11.1,2.1.9,19.5,1.5,22.4,7.1,4.6,16.6,4.9,23-3,24.7-4.9-.6-22.4-.6-22.4a51.5,51.5,0,0,0,9.2-2.1c3.8-1.3,8.8-7.8,8.8-7.8s-6.9-16.8-8.3-19.7-.3-4-5.7-7.8a60.8,60.8,0,0,0-10.9-6.1s-8-3.8-14.7-4.6S240.9,160,240.9,160Z" transform="translate(-55.7 -59.7)"/><path class="cls-3" d="M268.6,134s2.1,1.1,2.1,2.3-2.3,3.6-2.3,3.6a30,30,0,0,1,0,5.4c-.4,1.9,1.5,4,0,5.3s-6.2,1.3-6.2,1.3l-1.3,8.4-17.2-2.2-.6-5.4s-4.5-3.8-6.1-8-1.3-5.4-.9-8,3.2-8.3,9-9.6a32,32,0,0,1,15.2.2C264.3,128.4,268.6,134,268.6,134Z" transform="translate(-55.7 -59.7)"/><path class="cls-3" d="M260.9,147.2Z" transform="translate(-55.7 -59.7)"/><path class="cls-4" d="M255.9,151.6a10.4,10.4,0,0,0,5-4.4,1.5,1.5,0,0,1-1.3.5c-1.2,0-3.8-2.1-4.6-4s1.1-4.2,2.5-4.2,3.2,2.7,4.7,1.7,1.4-5.1,1.4-5.1a27.2,27.2,0,0,1,1.7-5.6,12.2,12.2,0,0,0-5-3.2,32,32,0,0,0-15.2-.2c-5.8,1.3-8.6,6.9-9,9.6s-.6,3.8.9,8,6.1,8,6.1,8C246.4,152.9,252.3,153.1,255.9,151.6Z" transform="translate(-55.7 -59.7)"/><path class="cls-3" d="M235.3,162.1s3.5-5.6,5.2-6.3,14.1-.8,16.6-.4,6.9,3.4,7.6,5.1l1.4,3.1v1.1s-8.2-3.8-16.1-3.8A96.6,96.6,0,0,0,235.3,162.1Z" transform="translate(-55.7 -59.7)"/><path class="cls-4" d="M266.1,164.7a94.3,94.3,0,0,1-5.5,10,48.5,48.5,0,0,0-5,11.2l6,.7s4.2-11.1,6.7-14.6a30.2,30.2,0,0,1,3.4-4.4S269.2,164.6,266.1,164.7Z" transform="translate(-55.7 -59.7)"/><path class="cls-4" d="M235.3,162.1s-1,7-.5,10.7a70.1,70.1,0,0,1,0,9.6l-4.4,1.5s-1.3-12.1-.9-14.8.9-4.6.9-4.6S233.2,162,235.3,162.1Z" transform="translate(-55.7 -59.7)"/><path class="cls-5" d="M226.4,226.2s-2.9,1-3.9,6,1.8,10.4,7.9,12.9,15.8,3.8,25,4.2,16.7-.4,20-6.2,2.1-12.1-1.9-13.2-8.3,1.3-23.5-.2A173.3,173.3,0,0,1,226.4,226.2Z" transform="translate(-55.7 -59.7)"/><path class="cls-5" d="M263.2,233.4c-3.9,4.5-4.8,15.4,2.9,15.4h.4c3.9-.8,7.1-2.5,8.9-5.7s2.4-9.4.3-11.8l-3.1-2.1A12.5,12.5,0,0,0,263.2,233.4Z" transform="translate(-55.7 -59.7)"/><path class="cls-5" d="M267.8,239.3s-.1,3.2,3.7,2c1.9-.6,2.9-2.5,3.2-4.4v-.7c.1-1.6-.5-3-1.6-3.3-2.6-.8-9,4-9,7.5s4,4.7,7.7,2.3,4.6-4.7,4.3-10.6" transform="translate(-55.7 -59.7)"/><path class="cls-5" d="M227.3,179.3s16.6,1.4,25.6,1.6,13.3-.6,16,2.3,6.1,34.2,7.5,39.8-1,7.3-7.2,9.6-16.3,2.3-27.8,0-16.4-3.9-17.7-8.9-.4-21.1-.4-30.1S222.5,179.5,227.3,179.3Z" transform="translate(-55.7 -59.7)"/><path class="cls-5" d="M266.6,211.8a29.4,29.4,0,0,0,7.7-1.7c-1.6-11.1-3.6-25-5.4-26.9s-7-2.1-16-2.3-25.6-1.6-25.6-1.6c-4.8.2-4,5.4-4,14.3,0,3.8-.1,8.7-.2,13.5C224.3,207.8,238,215.2,266.6,211.8Z" transform="translate(-55.7 -59.7)"/><path class="cls-4" d="M226.8,206.1a39.6,39.6,0,0,1-.2,9.1,48.1,48.1,0,0,0-.8,7.6l4.1,1.7s.7-6.5,1.2-9.3a63.6,63.6,0,0,0,.5-8.1Z" transform="translate(-55.7 -59.7)"/><path class="cls-4" d="M257.8,209s-.2,4.3-.7,7.4-1.2,10.4-1.2,10.4h4.8s1.6-7.3,1.6-10.2.3-7.9.3-7.9Z" transform="translate(-55.7 -59.7)"/><path class="cls-5" d="M276.4,223c-1.4-5.6-4.7-36.9-7.5-39.8l-1.4-1.1c-1.7.6-4.3,2-3.1,5.1,1.6,4.6,3.3,27.1,2.5,34.2s-5.5,10.4-1.3,12.1h.2l3.4-1C275.4,230.3,277.9,228.7,276.4,223Z" transform="translate(-55.7 -59.7)"/><path class="cls-5" d="M232.2,124.6s2.3,13,2.3,14.5.4,2,6.5,2.3,14.6.8,19.3-1.7,13.2-8.2,14.9-12,.6-4.4-4-4.4h-5.7s-1.3-5.6-5-7.3-9.3-5.1-15.4-2.5S234.4,117.5,232.2,124.6Z" transform="translate(-55.7 -59.7)"/><path class="cls-4" d="M264.2,136.7a3.3,3.3,0,0,0-1,1.4c4.7-2.9,10.6-7.3,12-10.4s.6-4.4-4-4.4h-5.7s1.7,5.5,1.7,7.4S266.4,134.4,264.2,136.7Z" transform="translate(-55.7 -59.7)"/><path class="cls-4" d="M238,139.6s-1.6-5.5,1.4-6.1,6.1,6.7,6.1,6.7A20.5,20.5,0,0,1,238,139.6Z" transform="translate(-55.7 -59.7)"/><path class="cls-2" d="M328.3,393.5h37.6c-.7-4.6-3.6-3.8-4-10.9-.2-3.6,3.1-8.1,2.8-12.8s-4.1-7.9-4.4-12.3,3-8.5,2.7-12.8-4.2-8-4.5-12.2,2.9-8.7,2.5-12.9-4.3-8-4.8-12.1,2.7-8.8,2.2-12.9-4.5-8-5.1-12,2.3-9.1,1.6-13-5.2-8-6.1-11.5c-1.7-6.4-1.5-12.6-3.5-13s-2.7,5.6-4.3,12.4c-.8,3.4-5.1,6.9-5.8,11.6s2.5,8.4,2,12.8-4.4,7.7-4.8,12,2.9,8.5,2.5,12.7-4.1,8-4.4,12.2,3.1,8.5,2.8,12.6-4,8.2-4.2,12.3,3.2,8.6,3.1,12.5-4,8.5-4.1,12.3,3.3,9,3.2,12.6c-.3,7.7-3.8,6.1-3.9,12.3Z" transform="translate(-55.7 -59.7)"/><line class="cls-6" x1="288.8" y1="197.7" x2="288.8" y2="332"/><polyline class="cls-6" points="294.6 211.8 288.5 217.1 283.5 210.4"/><polyline class="cls-6" points="294.6 235.2 288.5 240.5 283.5 233.8"/><polyline class="cls-6" points="294.6 257.2 288.5 262.5 283.5 255.8"/><polyline class="cls-6" points="294.6 283.3 288.5 288.6 283.5 281.9"/><polyline class="cls-6" points="294.6 309.8 288.5 315 283.5 308.4"/><path class="cls-7" d="M113,370.5h48.8c-.9-6-4.8-4.9-5.3-14.2-.2-4.6,4.1-10.4,3.7-16.5s-5.3-10.2-5.6-16,3.8-10.9,3.4-16.6-5.4-10.3-5.8-15.8,3.7-11.3,3.2-16.7-5.6-10.4-6.2-15.8,3.5-11.4,2.9-16.7-6-10.4-6.7-15.5,3-11.9,2.1-16.9-6.7-10.4-7.9-14.9c-2.2-8.3-2-16.4-4.6-16.9s-3.4,7.3-5.5,16.1c-1.1,4.4-6.6,8.9-7.5,15s3.2,10.9,2.5,16.6-5.7,10.1-6.2,15.6,3.7,11,3.3,16.5-5.4,10.4-5.7,15.8,3.9,11,3.6,16.4-5.2,10.6-5.4,15.9,4.1,11.1,3.9,16.3-5.1,10.9-5.3,15.9,4.3,11.7,4.1,16.3c-.3,10.1-4.8,8-5,16Z" transform="translate(-55.7 -59.7)"/><line class="cls-6" x1="78.3" y1="134.3" x2="78.3" y2="308.5"/><polyline class="cls-6" points="85.9 152.6 77.9 159.4 71.4 150.8"/><polyline class="cls-6" points="85.9 182.9 77.9 189.8 71.4 181.1"/><polyline class="cls-6" points="85.9 211.4 77.9 218.3 71.4 209.6"/><polyline class="cls-6" points="85.9 245.4 77.9 252.2 71.4 243.5"/><polyline class="cls-6" points="85.9 279.6 77.9 286.5 71.4 277.8"/><path class="cls-2" d="M83.5,378.1h36.1c-.7-4.4-3.5-3.6-3.9-10.5-.2-3.4,3-7.7,2.7-12.2s-3.9-7.6-4.2-11.8,2.9-8.2,2.6-12.3-4-7.7-4.3-11.8,2.7-8.3,2.4-12.3-4.2-7.7-4.6-11.7,2.6-8.4,2.1-12.3-4.4-7.8-4.9-11.6,2.2-8.8,1.5-12.4-5-7.8-5.8-11.1c-1.7-6.2-1.5-12.1-3.4-12.5s-2.6,5.4-4.1,11.9c-.8,3.3-4.9,6.6-5.6,11.1s2.4,8.1,1.9,12.3-4.2,7.5-4.6,11.6,2.7,8.1,2.4,12.2-4,7.7-4.2,11.7,2.9,8.2,2.7,12.1-3.8,7.9-4,11.8,3,8.2,2.9,12.1-3.8,8.1-3.9,11.8,3.1,8.6,3,12c-.2,7.5-3.6,5.9-3.7,11.9Z" transform="translate(-55.7 -59.7)"/><line class="cls-6" x1="43.3" y1="187.8" x2="43.3" y2="316.7"/><polyline class="cls-6" points="48.9 201.3 43 206.4 38.2 199.9"/><polyline class="cls-6" points="48.9 223.7 43 228.8 38.2 222.4"/><polyline class="cls-6" points="48.9 244.8 43 249.9 38.2 243.5"/><polyline class="cls-6" points="48.9 270 43 275 38.2 268.6"/><polyline class="cls-6" points="48.9 295.4 43 300.4 38.2 294"/><path class="cls-7" d="M361.3,404.1h48.8c-1-6-4.8-4.9-5.3-14.2-.2-4.6,4.1-10.4,3.7-16.5s-5.3-10.2-5.7-16,3.9-11,3.5-16.6-5.4-10.4-5.9-15.9,3.8-11.2,3.3-16.6-5.6-10.4-6.2-15.8,3.5-11.4,2.9-16.7-6-10.4-6.7-15.6,2.9-11.8,2.1-16.8-6.7-10.5-7.9-14.9c-2.3-8.4-2-16.4-4.6-16.9s-3.4,7.3-5.5,16.1c-1.1,4.4-6.6,8.9-7.5,15s3.1,10.9,2.5,16.6-5.7,10-6.2,15.6,3.7,11,3.3,16.5-5.4,10.4-5.8,15.8,4,11,3.7,16.3-5.2,10.7-5.4,15.9,4.1,11.2,3.9,16.4-5.1,10.9-5.3,15.9,4.3,11.7,4.1,16.3c-.3,10-4.9,8-5,16Z" transform="translate(-55.7 -59.7)"/><line class="cls-6" x1="326.5" y1="167.9" x2="326.5" y2="342.1"/><polyline class="cls-6" points="334.1 186.1 326.2 193 319.7 184.3"/><polyline class="cls-6" points="334.1 216.5 326.2 223.3 319.7 214.7"/><polyline class="cls-6" points="334.1 245 326.2 251.9 319.7 243.2"/><polyline class="cls-6" points="334.1 278.9 326.2 285.8 319.7 277.1"/><polyline class="cls-6" points="334.1 313.2 326.2 320.1 319.7 311.4"/></g><g id="Floor"><path class="cls-3" d="M76,379.9s86.2-42.5,217.3-20.8c102.6,17,136.4,60.9,136.4,60.9" transform="translate(-55.7 -59.7)"/><path class="cls-7" d="M223.5,361.1l-16.2-6.6c-79.8,4-129.8,29-129.8,29L71,385a123.4,123.4,0,0,0-15.3,8.4l23.7.3,40.7-2.6L90.9,401.7l28.3-6.2,46.8-1.8-27.4-7,42.4-4.4-39.7.8,31.9-6.5,41.4-6.7-15-.9,3.7-1.2Z" transform="translate(-55.7 -59.7)"/><path class="cls-7" d="M324,367.5l9,5.5-22-.5,10,5.5-6,2,14.5,7-14,2L329,400l-74.5.5,21,8-8,3.5,51,8L374,434l-23.5-13S404,435.5,406,436.5s13.5,5.5,15,6-18-15-18-15l20,5L403,410l9,1-6.5-5.5,13,5.5S382.5,382,324,367.5Z" transform="translate(-55.7 -59.7)"/></g></svg>