<?xml version="1.0" encoding="utf-8"?>
<!-- Generator: Adobe Illustrator 24.0.2, SVG Export Plug-In . SVG Version: 6.00 Build 0)  -->
<svg version="1.1" id="Layer_1" xmlns="http://www.w3.org/2000/svg" xmlns:xlink="http://www.w3.org/1999/xlink" x="0px" y="0px"
	 viewBox="0 0 412.9 416.8" style="enable-background:new 0 0 412.9 416.8;" xml:space="preserve">
<style type="text/css">
	.st0{fill:#EDF1F0;}
	.st1{opacity:0.7;fill:#EDF1F0;enable-background:new    ;}
	.st2{fill:none;stroke:#263238;stroke-linecap:round;stroke-linejoin:round;}
	.st3{fill:none;stroke:#263238;stroke-width:2;stroke-linecap:round;stroke-linejoin:round;}
	.st4{fill:#FFFFFF;stroke:#263238;stroke-linecap:round;stroke-linejoin:round;}
	.st5{fill:#46A0AE;}
	.st6{clip-path:url(#SVGID_2_);}
	
		.st7{opacity:0.3;fill:#46A0AE;fill-opacity:0.7;stroke:#263238;stroke-linecap:round;stroke-linejoin:round;enable-background:new    ;}
	.st8{fill:#067FC8;}
	.st9{clip-path:url(#SVGID_4_);}
	.st10{fill:#92E3A9;stroke:#263238;stroke-linecap:round;stroke-linejoin:round;}
	.st11{clip-path:url(#SVGID_6_);}
	.st12{opacity:0.3;fill:#46A0AE;fill-opacity:0.7;stroke:#263238;stroke-miterlimit:10;enable-background:new    ;}
	.st13{fill:#263238;}
	.st14{opacity:0.2;}
	.st15{fill:none;stroke:#FFFFFF;stroke-linecap:round;stroke-linejoin:round;}
	.st16{fill:#757575;stroke:#263238;stroke-linecap:round;stroke-linejoin:round;}
	.st17{clip-path:url(#SVGID_8_);}
	.st18{fill:#FFFFFF;}
	.st19{fill:none;stroke:#263238;stroke-width:1.0042;stroke-linecap:round;stroke-linejoin:round;stroke-miterlimit:4.017;}
	.st20{fill:#BFBFBF;stroke:#263238;stroke-linecap:round;stroke-linejoin:round;}
	.st21{fill:#92E3A9;}
	.st22{clip-path:url(#SVGID_10_);}
	.st23{fill:url(#SVGID_11_);}
	.st24{clip-path:url(#SVGID_13_);}
	.st25{opacity:0.4;fill:#EDF1F0;enable-background:new    ;}
	.st26{fill:#FF9A00;stroke:#263238;stroke-linecap:round;stroke-linejoin:round;}
</style>
<title>1مزایا بیلیگ</title>
<g id="Background_Simple">
	<path class="st0" d="M54.2,52.3l0.5-0.5c51.6-46.4,120.1-48.5,170,1.5c26,26,72.2,21,105.2,30.5c113.9,32.4,94.2,187,38,261.7
		c-50.8,67.4-160.8,82.7-234.8,49.5C68.2,365.9,22.4,300.7,6.2,232.6c-1.7-6.8-3-13.7-4-20.6C-6.4,154,10,92.4,54.2,52.3z"/>
	<path class="st1" d="M54.2,52.3l0.5-0.5c51.6-46.4,120.1-48.5,170,1.5c26,26,72.2,21,105.2,30.5c113.9,32.4,94.2,187,38,261.7
		c-50.8,67.4-160.8,82.7-234.8,49.5C68.2,365.9,22.4,300.7,6.2,232.6c-1.7-6.8-3-13.7-4-20.6C-6.4,154,10,92.4,54.2,52.3z"/>
</g>
<g id="Bubble">
	<path class="st2" d="M236,360c-4.9,24.7-29,40.8-53.8,35.9c-17.1-3.4-30.8-16.3-35.2-33.2"/>
	<path class="st2" d="M235.4,339.4c1.3,5.1,1.8,10.3,1.3,15.5"/>
	<path class="st2" d="M161.8,316.1c10.6-9,24.7-12.6,38.3-9.8c14.4,2.9,26.6,12.5,32.7,25.9"/>
	<polyline class="st2" points="149.1,308.9 147.9,305.5 159.9,314.7 	"/>
	<path class="st2" d="M146.4,342.1c1.3-6.7,4.1-13,8.2-18.4l-4-10.8"/>
	<path class="st2" d="M145.5,353c-0.1-1.9,0-3.7,0.1-5.6"/>
	<path class="st2" d="M193.3,328.3c12.6,1.5,21.7,12.9,20.2,25.5S200.6,375.5,188,374c-12.6-1.5-21.7-12.9-20.2-25.5
		c1.1-9.6,8.1-17.4,17.4-19.7"/>
	<path class="st2" d="M187.7,376.5c-13.9-1.6-23.9-14.2-22.3-28.1v-0.2"/>
	<path class="st2" d="M215.1,358.5c-2.7,9-10.2,15.8-19.5,17.6"/>
	<path class="st2" d="M167,341.7c5.2-13.1,20.1-19.4,33.2-14.2c10.7,4.3,17.1,15.2,15.8,26.6"/>
	<line class="st3" x1="205.5" y1="341.2" x2="205.8" y2="340.9"/>
	<line class="st3" x1="201.6" y1="345.8" x2="203.6" y2="343.5"/>
	<polyline class="st3" points="176.9,350.3 187.4,362.8 200,347.8 	"/>
</g>
<g id="Character">
	<path class="st4" d="M255,106.8h109.8c25.5,0,46.2,20.7,46.2,46.2v109.8c0,25.5-20.7,46.2-46.2,46.2H255
		c-25.5,0-46.2-20.7-46.2-46.2V153C208.8,127.5,229.5,106.8,255,106.8z"/>
	<path class="st5" d="M270.7,195.9c-3-5.1-17.8-5-19.1-2.7c0,0,7.3,23.5,15.4,21.1S270.7,195.9,270.7,195.9z"/>
	<g>
		<defs>
			<path id="SVGID_1_" d="M270.7,195.9c-3-5.1-17.8-5-19.1-2.7c0,0,7.3,23.5,15.4,21.1S270.7,195.9,270.7,195.9z"/>
		</defs>
		<clipPath id="SVGID_2_">
			<use xlink:href="#SVGID_1_"  style="overflow:visible;"/>
		</clipPath>
		<g class="st6">
			<path class="st7" d="M270.7,195.9c-3-5.1-17.8-5-19.1-2.7c0,0,7.3,23.5,15.4,21.1S270.7,195.9,270.7,195.9z"/>
		</g>
	</g>
	<path class="st2" d="M270.7,195.9c-3-5.1-17.8-5-19.1-2.7c0,0,7.3,23.5,15.4,21.1S270.7,195.9,270.7,195.9z"/>
	<path class="st8" d="M253.2,207.9c-1,1.2-1.6,2.8-1.6,4.4c0,2.2,4.2,46.2,17.1,61.5c2.8,3.2,5.9,5.1,9.4,5.2
		c10.9,0.1,16.3-8.6,23.2-28.8c0.9-2.5,1.8-5.2,2.7-8.1c6.8-20.8,15.2-64.2,15.2-64.2s-14.8,3.4-23.6,12.1
		c-3.8,3.8-7.8,14.6-10.4,22.5c-1.2,3.9-2.2,7.1-2.5,8.4c0,0.2-0.1,0.5-0.2,0.7c-0.4-1.4-0.9-2.7-1.6-3.9l0,0
		c-1.9-3.5-4.3-6.7-7-9.6l-3.2-12.1c0,0-1.1,2.2-6.2,3s-12.9-5.7-12.9-5.7L253.2,207.9z"/>
	<g>
		<defs>
			<path id="SVGID_3_" d="M253.2,207.9c-1,1.2-1.6,2.8-1.6,4.4c0,2.2,4.2,46.2,17.1,61.5c2.8,3.2,5.9,5.1,9.4,5.2
				c10.9,0.1,16.3-8.6,23.2-28.8c0.9-2.5,1.8-5.2,2.7-8.1c6.8-20.8,15.2-64.2,15.2-64.2s-14.8,3.4-23.6,12.1
				c-3.8,3.8-7.8,14.6-10.4,22.5c-1.2,3.9-2.2,7.1-2.5,8.4c0,0.2-0.1,0.5-0.2,0.7c-0.4-1.4-0.9-2.7-1.6-3.9l0,0
				c-1.9-3.5-4.3-6.7-7-9.6l-3.2-12.1c0,0-1.1,2.2-6.2,3s-12.9-5.7-12.9-5.7L253.2,207.9z"/>
		</defs>
		<clipPath id="SVGID_4_">
			<use xlink:href="#SVGID_3_"  style="overflow:visible;"/>
		</clipPath>
		<g class="st9">
			<path class="st7" d="M267.2,272.7c2.7,3.3,5.8,5.2,9.4,5.2c10.9,0.2,16.2-8.5,23.2-28.7l-0.2-46.9c-6,1.6-11.5,4.8-15.9,9.2
				c-1.3,3.9-2.2,7.1-2.6,8.4c3.1,6.4,8.5,21.2,2.3,36.9C279.4,267,272.9,271.2,267.2,272.7z"/>
		</g>
	</g>
	<path class="st2" d="M253.2,207.9c-1,1.2-1.6,2.8-1.6,4.4c0,2.2,4.2,46.2,17.1,61.5c2.8,3.2,5.9,5.1,9.4,5.2
		c10.9,0.1,16.3-8.6,23.2-28.8c0.9-2.5,1.8-5.2,2.7-8.1c6.8-20.8,15.2-64.2,15.2-64.2s-14.8,3.4-23.6,12.1
		c-3.8,3.8-7.8,14.6-10.4,22.5c-1.2,3.9-2.2,7.1-2.5,8.4c0,0.2-0.1,0.5-0.2,0.7c-0.4-1.4-0.9-2.7-1.6-3.9l0,0
		c-1.9-3.5-4.3-6.7-7-9.6l-3.2-12.1c0,0-1.1,2.2-6.2,3s-12.9-5.7-12.9-5.7L253.2,207.9z"/>
	<path class="st2" d="M288,235.9c0.8,4.2,0.8,8.6-1.1,12.5"/>
	<path class="st2" d="M282.5,221.6c2.1,3.7,3.8,7.7,4.9,11.8"/>
	<path class="st2" d="M289.5,226.8c0,0-1.6-4.2-5.7-5.2"/>
	<path class="st2" d="M268.2,211.3c1-0.5,1.9-1.2,2.8-1.9"/>
	<path class="st2" d="M253.2,207.9c3.2,3.5,8.3,5.8,13.1,4.2"/>
	<path class="st10" d="M280.9,217.6"/>
	<path class="st8" d="M377.4,307.1c0,0,1.9-14.7,3-19.5c5.2-21.6,23.2-71.8,20.3-86.6s-21.3-28.6-50.8-30
		c-27.3-1.4-49.9,8.3-55.3,19.6s-4.9,85-3.6,118.5h75.1C369.9,309,373.8,308.4,377.4,307.1z"/>
	<g>
		<defs>
			<path id="SVGID_5_" d="M377.4,307.1c0,0,1.9-14.7,3-19.5c5.2-21.6,23.2-71.8,20.3-86.6s-21.3-28.6-50.8-30
				c-27.3-1.4-49.9,8.3-55.3,19.6s-4.9,85-3.6,118.5h75.1C369.9,309,373.8,308.4,377.4,307.1z"/>
		</defs>
		<clipPath id="SVGID_6_">
			<use xlink:href="#SVGID_5_"  style="overflow:visible;"/>
		</clipPath>
		<g class="st11">
			<path class="st12" d="M371.6,217.7c-14.2,19.4-29.7,48.5-29.7,48.5l-42.2-52.6c0,0,9.7,66.8,15,74s5,10.6,5,10.6
				s13.4,14.4,23.4,12.4s39.1-35.8,48.7-75.4L371.6,217.7z"/>
		</g>
	</g>
	<path class="st2" d="M377.4,307.1c0,0,1.9-14.7,3-19.5c5.2-21.6,23.2-71.8,20.3-86.6s-21.3-28.6-50.8-30
		c-27.3-1.4-49.9,8.3-55.3,19.6s-4.9,85-3.6,118.5h75.1C369.9,309,373.8,308.4,377.4,307.1z"/>
	<path class="st4" d="M361.8,173.9c0,0-14.7,6.3-30.6,1.1c1.1-2.9,1.9-6,2.1-9.1c0-2-0.6-3.9-2.1-4.8l1.9-2h0.1
		c6-6.2,24.3-23.4,30.3-13.1C363.5,146,357.2,146.6,361.8,173.9z"/>
	<path class="st13" d="M345.2,154.9c-1.8,5.5-6.3,9.7-11.9,11c0-2-0.6-3.9-2.1-4.8l1.9-2h0.1C339,156.8,345.2,154.9,345.2,154.9z"/>
	<path class="st4" d="M367.6,131.5c6.3-25.2-7.3-33.8-15.9-37.1c-13.7-5.3-31,0.7-35.1,14.7s-0.4,17.2-0.6,22.9
		c-0.1,4-2.8,6,0.1,16.1c2,6.6,5.6,14.2,9.8,14.5c11.3,0.6,22.1-5.8,21.5-8.9"/>
	<path class="st2" d="M331.9,119.2c0,0,5.1-1.8,7.8,3.7"/>
	<path class="st2" d="M314.7,118.3c0,0,3.8-3.2,7.5,1.4"/>
	<ellipse class="st13" cx="334.2" cy="129.8" rx="1.3" ry="2.1"/>
	<path class="st13" d="M318.5,128.7c0,1.1,0.5,2.1,1.2,2.1s1.3-1,1.3-2.1s-0.6-2.2-1.3-2.2S318.5,127.5,318.5,128.7z"/>
	<path class="st4" d="M322.2,123.8c0,0,0.8,5.8,0.5,7s-4.3,4.7-4.5,6.3s3.3,3.1,3.3,3.1"/>
	<path class="st13" d="M319.7,143.6c0,0,7.9,2,14.5,0c0,0-3.1,9.8-9.3,8.8c-4.1-0.7-3-7.1-3-7.1L319.7,143.6z"/>
	<path class="st13" d="M341.4,105c-2.3-1.4-5.2-1.8-7.8-1.1c-4.5,1-5.2,10.5-5.2,10.5c-1.4-1.3-2.4-2.9-2.9-4.7l-1.4,4.1l-3.8-3.6
		l-1.2,4.2l-1.5-3l-2.9,5.6c0,0-4.4-5.6-3.7-9.9c1.8-11.9,11.2-21.7,30.9-20.6c10,0.5,13.7,7.3,13.7,7.3s9.7-1.3,14,3.7
		c14.6,17.2,5.4,35.8-8.5,53.4l-4.8-16.8l-4.6-0.5c0.1-1.7,0.2-3.5,0.1-5.2c-0.3-2.2-0.9-4.4-1.8-6.5l-1.7,0.8l0.7-3.3l-3.9,2
		c0,0,1.7-13.2,0-15.4C344.4,104.7,342.7,104.3,341.4,105C341.4,105,341.4,105,341.4,105L341.4,105z"/>
	<path class="st4" d="M353.4,135.9c0,0,4.7-8.6,9.5-6.5c4.8,2.1,1.5,12.4-2.7,15.7s-6.8,0-6.8,0"/>
	<g class="st14">
		<path class="st15" d="M345.6,101.5c-1.3-3-4.1-5-7.4-5.2c-5.6-0.4-9.7,5.8-9.8,10"/>
		<path class="st15" d="M349.4,101.3c0,0,3.9-3,6.2,0c3.8,5,0.6,17.1,0.6,17.1"/>
		<path class="st15" d="M354.7,97.8c0,0,4-2.5,7.5,2.3s3.1,16.3,3.1,16.3"/>
		<path class="st15" d="M366.1,97.1c0,0,7,3,7.4,17"/>
		<path class="st15" d="M349.9,97.8c0,0-3.9-6.7-15.5-4.5S321,107.4,321,107.4"/>
		<path class="st15" d="M352.8,95.8c0,0-4.7-6.5-18.9-5.2s-19.9,13.7-18.5,19.6"/>
	</g>
	<path class="st16" d="M236.3,179c0,0,16.9-13,24.3-14.3c7.4-1.3,32.7,4.2,32.7,4.2v30c0,0-15.9,1.8-23,7s-31.6,6-31.6,6L236.3,179z
		"/>
	<path class="st4" d="M252.2,169.7c0.2-2,0.5-4,1-5.9c0.5-2.1,4.6-1.9,5.6-1.2c0.7,0.6,1.3,1.3,1.8,2.1l-1.8,0.5
		C258.4,165.3,258,173,252.2,169.7z"/>
	
		<rect x="244.4" y="48" transform="matrix(0.9659 -0.2589 0.2589 0.9659 -10.3719 69.1372)" class="st8" width="25.7" height="51.9"/>
	<g>
		<defs>
			
				<rect id="SVGID_7_" x="244.7" y="47.7" transform="matrix(0.9659 -0.2589 0.2589 0.9659 -10.2971 69.1946)" width="25.7" height="51.9"/>
		</defs>
		<clipPath id="SVGID_8_">
			<use xlink:href="#SVGID_7_"  style="overflow:visible;"/>
		</clipPath>
		<g class="st17">
			<path class="st18" d="M263.1,45.3l-24.7,6.5l13.2,50l24.8-6.6L263.1,45.3z M253.1,99.3l-12.3-46l20.9-5.6l12.2,46.1L253.1,99.3z"
				/>
			<path class="st1" d="M268.8,92.7l-1.6-6.1c-0.2-0.7,0.2-1.4,0.9-1.6l0,0c0.7-0.2,1.4,0.2,1.6,0.9l1.6,6.2
				c0.2,0.6-0.1,1.2-0.6,1.4h-0.3C269.7,93.7,269,93.3,268.8,92.7z"/>
			<path class="st1" d="M244.5,61.3l-1.6-6.1c-0.2-0.7,0.2-1.4,0.9-1.6l0,0c0.7-0.2,1.4,0.2,1.6,0.9l1.6,6.2
				c0.2,0.7-0.2,1.4-0.9,1.6l0,0C245.4,62.5,244.7,62,244.5,61.3z"/>
			<path class="st1" d="M264.8,71.3c-1.1-4.3-5.5-6.8-9.8-5.7c0,0,0,0,0,0l0,0c-4.3,1.1-6.8,5.5-5.7,9.8c1.1,4.3,5.5,6.8,9.8,5.7
				l0,0l0,0C263.4,80,265.9,75.6,264.8,71.3C264.8,71.3,264.8,71.3,264.8,71.3z M253.1,75h-0.6l-0.3-1.1h0.6c-0.1-1,0.6-1.7,1.7-2
				l0.6-0.2l0.3,1.3l-0.7,0.2c-0.6,0.1-0.7,0.4-0.6,0.9s0.4,0.6,1,0.4s1-0.5,1.4-1.6c0.3-1,1.1-1.8,2.1-2.1c1.2-0.3,2,0,2.4,0.9
				l0.7-0.2l0.3,1.1l-0.7,0.2c0.1,0.9-0.5,1.6-1.6,1.9h-0.3l-0.3-1.3h0.3c0.6-0.2,0.8-0.5,0.7-0.9c-0.1-0.4-0.6-0.6-1-0.5
				c-0.6,0.2-1,0.5-1.5,1.6s-1.1,1.9-2.1,2.1C254.6,76.1,253.6,75.8,253.1,75z"/>
		</g>
	</g>
	
		<rect x="244.7" y="47.7" transform="matrix(0.9659 -0.2589 0.2589 0.9659 -10.2971 69.1946)" class="st19" width="25.7" height="51.9"/>
	<path class="st0" d="M236.3,179c0,0,24.5-8.3,31.1-9.5s25.9-0.6,25.9-0.6v30c0,0-20.1,6.1-23.2,8.6s-31.4,4.4-31.4,4.4L236.3,179z"
		/>
	<path class="st2" d="M269.8,182.6c-1.3,6.9-0.4,16.3-5,21.9"/>
	<path class="st2" d="M271.9,172.1c-0.5,2.2-1,4.5-1.4,6.8"/>
	<path class="st20" d="M296.3,72.4c0,3-2.5,5.5-5.5,5.5s-5.5-2.5-5.5-5.5s2.5-5.5,5.5-5.5l0,0l0,0C293.8,66.9,296.3,69.4,296.3,72.4
		z"/>
	<path class="st0" d="M293.9,75.8c1.9-1.7,2-4.6,0.3-6.5s-4.6-2-6.5-0.3c-1.9,1.7-2,4.6-0.3,6.5C289.1,77.4,292,77.5,293.9,75.8
		C293.9,75.8,293.9,75.8,293.9,75.8z M289,70.8l-0.3-0.3l0.5-0.4l0.2,0.3c0.5-0.3,1.2-0.2,1.5,0.3l0.2,0.3l-0.5,0.5l-0.3-0.3
		c-0.2-0.3-0.4-0.3-0.6-0.1s-0.2,0.4,0,0.6l0,0c0.2,0.3,0.5,0.4,1.2,0.3c0.6-0.1,1.2,0.1,1.6,0.6c0.4,0.4,0.5,0.9,0.2,1.4l0.2,0.3
		l-0.4,0.4l-0.3-0.3c-0.5,0.3-1.1,0.2-1.4-0.3c0,0,0,0,0,0h-0.1l0.5-0.5h0.2c0.2,0.3,0.4,0.3,0.6,0.1s0.2-0.3-0.1-0.6
		c-0.3-0.3-0.7-0.4-1.1-0.3c-0.9,0-1.3-0.1-1.7-0.5C288.7,71.9,288.6,71.2,289,70.8L289,70.8z"/>
	<path class="st20" d="M270.3,29c0,3-2.5,5.5-5.5,5.5s-5.5-2.5-5.5-5.5s2.5-5.5,5.5-5.5S270.3,26,270.3,29z"/>
	<path class="st0" d="M267.9,32.4c1.9-1.7,2-4.6,0.3-6.5c-1.7-1.9-4.6-2-6.5-0.3c-1.9,1.7-2,4.6-0.3,6.5
		C263.1,34,266,34.1,267.9,32.4C267.9,32.4,267.9,32.4,267.9,32.4z M262.9,27.4l-0.2-0.3l0.5-0.4l0.2,0.3c0.5-0.3,1.2-0.2,1.5,0.3
		l0.2,0.3l-0.6,0.5l-0.2-0.3c-0.3-0.3-0.5-0.3-0.7-0.1s-0.2,0.3,0.1,0.6c0.3,0.3,0.7,0.4,1.1,0.3c0.6-0.1,1.2,0.1,1.7,0.5
		c0.4,0.4,0.5,1,0.2,1.5l0.2,0.3l-0.5,0.4l-0.2-0.3c-0.5,0.3-1.1,0.2-1.4-0.3c0,0,0,0,0,0h-0.1l0.5-0.5h0.1c0.3,0.3,0.5,0.3,0.7,0.1
		s0.2-0.3-0.1-0.6s-0.5-0.3-1.2-0.3c-0.6,0.1-1.2-0.1-1.6-0.5C262.7,28.5,262.6,27.9,262.9,27.4z"/>
	<path class="st20" d="M244.8,135.2c-3-0.7-4.8-3.7-4.1-6.7c0.7-3,3.7-4.8,6.7-4l0,0l0,0c2.9,0.6,4.7,3.4,4.1,6.3c0,0,0,0,0,0l0,0
		v0.3c-0.6,2.9-3.5,4.8-6.4,4.2c0,0,0,0,0,0h-0.3L244.8,135.2z"/>
	<path class="st0" d="M242,132c1.2,2.2,4,3.1,6.3,1.9c2.2-1.2,3-4,1.8-6.2c-1.1-2.2-3.8-3.1-6-2h-0.2c-2.2,1.2-3.1,3.9-2,6.2
		L242,132z M248.1,128.4l0.3-0.2l0.3,0.6l-0.3,0.2c0.2,0.5-0.1,1-0.7,1.3h-0.3l-0.3-0.6l0.3-0.2c0.3-0.2,0.4-0.4,0.3-0.6
		c-0.2-0.2-0.3-0.3-0.7-0.1s-0.4,0.4-0.5,1.1c-0.1,0.6-0.4,1.1-0.9,1.4c-0.5,0.3-1.1,0.3-1.5-0.1h-0.3l-0.3-0.5l0.3-0.2
		c-0.2-0.6,0.1-1,0.7-1.3h0.1l0.4,0.7h-0.2c-0.3,0.2-0.4,0.4-0.3,0.6c0.1,0.2,0.3,0.3,0.6,0.1c0.4-0.2,0.6-0.6,0.6-1
		c0.1-0.6,0.4-1.2,0.9-1.5C247.1,127.8,247.8,127.9,248.1,128.4z"/>
	<path class="st21" d="M310.7,184c-1.4-2.6-5.4-1.3-10.1,6s-6.6,15.9-5.4,19s16.2,6.9,16.2,6.9l3.1-7.9L310.7,184z"/>
	<g>
		<defs>
			<path id="SVGID_9_" d="M310.7,184c-1.4-2.6-5.4-1.3-10.1,6s-6.6,15.9-5.4,19s16.2,6.9,16.2,6.9l3.1-7.9L310.7,184z"/>
		</defs>
		<clipPath id="SVGID_10_">
			<use xlink:href="#SVGID_9_"  style="overflow:visible;"/>
		</clipPath>
		<g class="st22">
			<path class="st1" d="M310.7,184c-1.4-2.6-5.4-1.3-10.1,6s-6.6,15.9-5.4,19s16.2,6.9,16.2,6.9l3.1-7.9L310.7,184z"/>
		</g>
	</g>
	<path class="st2" d="M310.7,184c-1.4-2.6-5.4-1.3-10.1,6s-6.6,15.9-5.4,19s16.2,6.9,16.2,6.9l3.1-7.9L310.7,184z"/>
	<path class="st4" d="M317,199.3l-8.6-18.9c0,0-5.7-8.1-6.8-11.2s-13.5-5.4-16.3-5.4s-5.8,5-5.8,5h5.9c0,0,2.1,2.3,2.4,3.6
		s-7.7,8.2-8.8,8.8c-2.6,1.1-5,2.4-7.3,4c-3.2,2.4-10.4,4.2-11.7,6.3s-0.4,2.5,0.6,3c0.8,0.3,1.6,0.5,2.5,0.6
		c-0.3,1.2-0.3,2.5,0,3.7c0.6,1.2,3.9,1.1,3.9,1.1c0.1,1,0.8,1.8,1.8,2l2.9,0.8c0,0,6.8,1.1,9.9,0.5s12.4-5.6,14.7-5.4
		s8.6,14.8,8.6,14.8S315.7,210.8,317,199.3z"/>
	<path class="st2" d="M263.1,195.1c0,0,9-1.9,9.6-2.6s6.8-2.6,6.8-2.6"/>
	<path class="st2" d="M267,199.9l6.8-1.2c1.7-0.2,8.9-3.6,8.9-3.6"/>
	<path class="st2" d="M271.7,202.7c0,0,7-0.6,8.5-1.3s5.8-2.1,5.8-2.1"/>
	
		<linearGradient id="SVGID_11_" gradientUnits="userSpaceOnUse" x1="295.2" y1="179.8644" x2="394.6" y2="179.8644" gradientTransform="matrix(1 0 0 -1 0 418)">
		<stop  offset="0" style="stop-color:#066EC8"/>
		<stop  offset="1" style="stop-color:#067FC8"/>
	</linearGradient>
	<path class="st23" d="M376.4,191c-10.5,6.9-16.9,23.7-16.9,23.7l-16.4,30.5c0,0-13.8-34-17.7-34.4L310.7,184c0,0,1.7,15.7-4.4,22.4
		s-11.1,2.6-11.1,2.6l4.5,12.7l1.2,6c0,0,19.4,58.1,25.7,61.7s20.7,5.2,32.9-3.7s33.2-42.8,35.1-53.9"/>
	<path class="st2" d="M319.5,214.8c0.5-0.8,1-1.6,1.4-2.5"/>
	<path class="st2" d="M307.1,222.7c4.2-0.5,8.1-2.5,10.8-5.8"/>
	<path class="st2" d="M299.7,221.7c1.7,0.7,3.4,1,5.2,1.1"/>
	<path class="st2" d="M347.4,258.7c0.1,1.4,0,2.8-0.3,4.2"/>
	<path class="st2" d="M343.1,245.2c2,3.4,3.4,7.1,4.1,11"/>
	<path class="st2" d="M352.2,250.7c-1.8-2.2-3.9-4.1-6.4-5.5"/>
	<path class="st2" d="M361.6,213.6"/>
	<path class="st2" d="M378.2,206.4"/>
	<path class="st2" d="M387.9,232.2c-1.7,0.2-3.5,0-5.1-0.8"/>
	<path class="st2" d="M399,219.8c-1.4,7-5.3,10.6-8.7,11.8"/>
	<path class="st2" d="M355.5,179.9c0,0-15.4,3.6-23.9-2.1"/>
	<path class="st2" d="M356.3,306.5c-1,0.8-2,1.5-3.1,2.1"/>
	<line class="st2" x1="249.7" y1="20.7" x2="249.7" y2="41.5"/>
	<line class="st2" x1="249.7" y1="8.3" x2="249.7" y2="16.6"/>
	<line class="st2" x1="249.7" y1="0.5" x2="249.7" y2="4.9"/>
	<polyline class="st2" points="245.8,39 249.7,43.9 253.6,39 	"/>
	<line class="st2" x1="260.1" y1="124.6" x2="260.1" y2="145.3"/>
	<line class="st2" x1="260.1" y1="112.1" x2="260.1" y2="120.4"/>
	<line class="st2" x1="260.1" y1="104.4" x2="260.1" y2="108.8"/>
	<polyline class="st2" points="256.1,142.9 260.1,147.8 264,142.9 	"/>
	<line class="st2" x1="280.6" y1="62.2" x2="280.6" y2="82.9"/>
	<line class="st2" x1="280.6" y1="49.7" x2="280.6" y2="58"/>
	<line class="st2" x1="280.6" y1="42" x2="280.6" y2="46.4"/>
	<polyline class="st2" points="276.6,80.5 280.6,85.3 284.5,80.5 	"/>
	
		<rect x="242.6" y="125.7" transform="matrix(0.2571 -0.9664 0.9664 0.2571 65.6028 362.3168)" class="st8" width="51.7" height="25.6"/>
	<g>
		<defs>
			
				<rect id="SVGID_12_" x="242.5" y="125.7" transform="matrix(0.2571 -0.9664 0.9664 0.2571 65.5127 362.1929)" width="51.7" height="25.6"/>
		</defs>
		<clipPath id="SVGID_13_">
			<use xlink:href="#SVGID_12_"  style="overflow:visible;"/>
		</clipPath>
		<g class="st24">
			<path class="st18" d="M249.5,160.3l24.7,6.6l13.3-50l-24.8-6.5L249.5,160.3z M251.9,158.9l12.3-46.1l20.8,5.6l-12.2,46
				L251.9,158.9z"/>
			<path class="st1" d="M256,157l1.6-6.1c0.2-0.7-0.2-1.4-0.9-1.6l0,0c-0.7-0.2-1.4,0.2-1.6,0.9l-1.6,6.2c-0.2,0.6,0.2,1.3,0.8,1.5
				c0,0,0,0,0,0h0.1C255.1,158.1,255.8,157.7,256,157z"/>
			<path class="st1" d="M281.8,127l1.6-6.1c0.2-0.7-0.2-1.4-0.9-1.6l0,0c-0.7-0.2-1.4,0.2-1.6,0.9l-1.6,6.2
				c-0.2,0.7,0.2,1.4,0.9,1.6l0,0C280.9,128.1,281.6,127.7,281.8,127z"/>
			<path class="st1" d="M266.4,146.4c4.3,1.1,8.6-1.4,9.8-5.7c1.1-4.3-1.4-8.6-5.7-9.8c-4.3-1.1-8.6,1.4-9.8,5.7
				C259.6,140.9,262.1,145.3,266.4,146.4C266.4,146.4,266.4,146.4,266.4,146.4z M270.5,139.9c0.6,0.1,0.9,0,1-0.4
				c0.1-0.4-0.1-0.7-0.4-0.9h-0.2l-0.7-0.2l0.4-1.3l0.6,0.2c1,0.1,1.7,1,1.6,2c0,0,0,0,0,0h0.6l-0.2,1.1l-0.6-0.2
				c-0.5,0.9-1.6,1.3-2.5,0.9H270c-0.9-0.2-1.5-0.8-2.1-2.1s-0.8-1.4-1.4-1.6c-0.3-0.1-0.7,0-0.9,0.3v0.2c-0.1,0.4,0,0.7,0.6,0.9
				h0.4l-0.3,1.3H266c-1-0.1-1.7-0.9-1.7-1.9l-0.6-0.2l0.3-1.1l0.6,0.2c0.4-0.9,1.5-1.3,2.4-0.9c0,0,0,0,0,0l0,0"/>
		</g>
	</g>
	
		<rect x="242.6" y="125.7" transform="matrix(0.2571 -0.9664 0.9664 0.2571 65.6028 362.3168)" class="st2" width="51.7" height="25.6"/>
</g>
<g id="Hand">
	<path class="st18" d="M100,290.7c-0.4,13,6.1,12,6.1,12c0.7-1.5,1.5-2.9,2.4-4.3c3.4-5.2,8.6-12.5,6.6-16.8c-1.3-2.6-2.7-5-4.3-7.4
		c-3.4-5.3-7.4-10.7-7.4-10.7l17.2-2.8c0,0,12.3,5.1,21.9,5.7h0.8c8.8,0.1,7.4-6.8,7.4-9s-2.4-2.7-5.2-4.4s-8.8-4.9-8.8-4.9l2.6-5.4
		c1.5,0.3,3.1,0.4,4.6,0.2c6.7-0.7,5.8-7.3,4.7-10.2c-0.3-0.8-1.9-2-4.1-3.5c-6.8-4.5-20-10.8-20-10.8h-19.4l-19,51.9
		C86.1,270.3,100.3,277.7,100,290.7z"/>
	<path class="st18" d="M100,290.7c-0.4,13,6.1,12,6.1,12c0.7-1.5,1.5-2.9,2.4-4.3c3.4-5.2,8.6-12.5,6.6-16.8c-1.3-2.6-2.7-5-4.3-7.4
		c-3.4-5.3-7.4-10.7-7.4-10.7l17.2-2.8c0,0,12.3,5.1,21.9,5.7h0.8c8.8,0.1,7.4-6.8,7.4-9s-2.4-2.7-5.2-4.4s-8.8-4.9-8.8-4.9l2.6-5.4
		c1.5,0.3,3.1,0.4,4.6,0.2c6.7-0.7,5.8-7.3,4.7-10.2c-0.3-0.8-1.9-2-4.1-3.5c-6.8-4.5-20-10.8-20-10.8h-19.4l-19,51.9
		C86.1,270.3,100.3,277.7,100,290.7z"/>
	<path class="st25" d="M100,290.7c-0.4,13,6.1,12,6.1,12c0.7-1.5,1.5-2.9,2.4-4.3c-0.3-1.2-0.4-2.5-0.3-3.8c0-4.4,3.7-13,3.7-13
		l-3.7-5.9c0.7-0.7,1.6-1.2,2.6-1.5c-3.4-5.3-7.4-10.7-7.4-10.7l17.2-2.8c0,0,12.3,5.1,21.9,5.7h0.8c-0.6-4.9,1.3-11,2.2-13.4
		c-4-2.5-8.8-4.9-8.8-4.9l2.6-5.4c1.5,0.3,3.1,0.4,4.6,0.2c-0.9-4.2-0.1-10.1,0.6-13.7c-6.8-4.5-20-10.8-20-10.8h-19.4l-19,51.9
		C86.1,270.3,100.3,277.7,100,290.7z"/>
	<path class="st2" d="M105.1,218.4h19.4c0,0,22.8,10.9,24.1,14.3s2.3,12.1-9.3,10l-2.6,5.4c0,0,14,7,14,9.3c0,2.3,1.5,9.5-8.2,8.9
		s-21.9-5.6-21.9-5.6l-17.2,2.8c0,0,9.1,12.4,11.7,18.1s-7.4,16.8-9,21.1c0,0-6.5,1-6.1-12s-13.9-20.4-13.9-20.4"/>
	<path class="st2" d="M109.7,279.3c0,0-4.8-2.7-7.5,2.3"/>
	<path class="st26" d="M73.2,86.4H169c5.1,0,9.3,4.2,9.3,9.3v179.6c0,5.1-4.2,9.3-9.3,9.3H73.2c-5.1,0-9.3-4.2-9.3-9.3V95.7
		C63.9,90.6,68.1,86.4,73.2,86.4z"/>
	<path class="st13" d="M174.7,94.4v182.7c0,2.3-1.8,4.1-4.1,4.1h0H71.5c-2.3,0-4.1-1.8-4.1-4.1l0,0l0,0V94.4c0-2.3,1.8-4.1,4.1-4.1
		h22c1.5,0,2.8,0.9,3.3,2.3l0.9,2.5c0.6,1.3,1.9,2.2,3.3,2.2h40.1c1.4,0,2.7-0.9,3.3-2.2l0.9-2.5c0.5-1.4,1.8-2.3,3.2-2.3h22
		c2.3-0.1,4.1,1.7,4.2,4C174.7,94.3,174.7,94.3,174.7,94.4L174.7,94.4L174.7,94.4z"/>
	<path class="st26" d="M131.2,236.1h-20.3c-3.8,0-6.9-4.4-6.9-9.8l0,0c0-5.5,3.1-9.9,6.9-9.9h20.3c3.8,0,6.9,4.4,6.9,9.9l0,0
		C138.1,231.7,135,236.1,131.2,236.1z"/>
	<path class="st4" d="M111.6,92.4c0,0.9-0.8,1.7-1.7,1.7c-1,0-1.7-0.7-1.8-1.7c0-1,0.8-1.8,1.8-1.8h0l0,0
		C110.9,90.7,111.6,91.4,111.6,92.4z"/>
	<path class="st4" d="M133.9,92.4c0,0.5-0.5,1-1,1c-0.6,0-1-0.4-1.1-1c0-0.6,0.5-1.1,1.1-1.1l0,0l0,0
		C133.5,91.4,133.9,91.8,133.9,92.4z"/>
	<path class="st4" d="M127.8,93H115c-0.3,0-0.6-0.3-0.6-0.6l0,0c0-0.4,0.3-0.6,0.6-0.7h12.8c0.4,0,0.6,0.3,0.6,0.7l0,0
		C128.4,92.7,128.1,93,127.8,93z"/>
	<path class="st4" d="M85.2,107.7h71.7c6.9,0,12.5,5.6,12.5,12.5v73.7c0,6.9-5.6,12.5-12.5,12.5H85.2c-6.9,0-12.5-5.6-12.5-12.5
		v-73.7C72.7,113.3,78.3,107.7,85.2,107.7z"/>
	<line class="st2" x1="111.3" y1="161.4" x2="111.3" y2="146.6"/>
	<line class="st2" x1="111.3" y1="170.3" x2="111.3" y2="164.4"/>
	<line class="st2" x1="111.3" y1="175.9" x2="111.3" y2="172.7"/>
	<polyline class="st2" points="114.1,148.3 111.3,144.9 108.5,148.3 	"/>
	<line class="st2" x1="130.8" y1="155.9" x2="130.8" y2="141.1"/>
	<line class="st2" x1="130.8" y1="164.8" x2="130.8" y2="158.9"/>
	<line class="st2" x1="130.8" y1="170.4" x2="130.8" y2="167.2"/>
	<polyline class="st2" points="133.6,142.8 130.8,139.4 128,142.8 	"/>
	<line class="st2" x1="120.6" y1="146" x2="120.6" y2="131.1"/>
	<line class="st2" x1="120.6" y1="154.9" x2="120.6" y2="148.9"/>
	<line class="st2" x1="120.6" y1="160.4" x2="120.6" y2="157.3"/>
	<polyline class="st2" points="123.4,132.9 120.6,129.4 117.8,132.9 	"/>
	<path class="st2" d="M55.1,202.3c0,0,6.5,2,8.8,7.6"/>
	<path class="st18" d="M25.9,379.9c0.7-12.5,1.2-25.2,1.8-35.4c1.3-21.3,2.3-35.5,4.2-50c1.9-14.5,1.6-36.5,2.6-44.1
		s3.9-9.3,6.1-18.4s4.4-27.2,8.1-29.7s15.2-7.4,15.2-7.4v51.3c6.7,10.4,14.8,13,14.8,13c5.1-14.9,4.5-20.8,9.7-26.3
		s8.8-12.7,16.9-9.7c3.9,1.5,5.9,2.9,4,16s-5.8,17.2-5.8,17.2c-0.6,4.4,0.3,17.4,1.9,24.1s-4.5,24.3-7.4,35.6s-18.3,34.1-18.3,34.1
		c-0.4,8.6-0.2,17.2,0.6,25.8c0.1,1.2,0.3,2.5,0.4,3.9l1.1,35.1l-55.9-1L25.9,379.9z"/>
	<path class="st25" d="M108.2,227.1c-0.3-0.7-0.3-1.6,0-2.3c-0.8-0.7-1.8-1.3-2.9-1.6c-8.1-3-11.8,4.2-16.9,9.7l-1.3,1.5
		c4.6-1.7,10.7-1.7,13.2,1.7S109.7,232.7,108.2,227.1z"/>
	<path class="st25" d="M73.2,367.3l-2.6,9.6c0,0,3.6-3.5,9-12.1c-0.3-8.3,0.1-14.6,0.1-14.6s15.4-22.9,18.3-34.1s9.1-29,7.4-35.6
		s-2.5-19.7-1.9-24.1c0.8-0.9,1.4-2,1.9-3.1c-0.6-0.7-1.5-1.2-2.4-1.4c-2.7,7.2-3.8,15-3.2,22.7c1,12.9-1.2,14-5.5,30.7
		S83,341.1,79.7,344.5S74.9,363.2,73.2,367.3z"/>
	<path class="st25" d="M67.1,254.4c0,0-5.1,0.8-7.2,2c0,0,10,2.6,10.6,5.3s2.8,5.7,6.6,2.3l0.5-5.2c-2.4-1.1-8.4-4.4-13.7-12.6
		v-51.3c0,0-5.7,2.4-10.3,4.7c3.4,0.4,6.9,1.5,8.3,3.8c-0.9,2.9-3,5.3-5.8,6.5c-3.7,1.6,0,29.3,0,29.3s-6,1.5-7.9,7
		c0,0,9.9,1,13.9,4.2C63.8,251.6,65.5,253,67.1,254.4z"/>
	<path class="st25" d="M27.7,344.5c-0.5,8.3-0.9,18.2-1.4,28.3c1.3-19.2,5.2-52.1,5.2-52.1s3.4,12.1,3.7,10.8
		c0.7-3.8-1.7-25.3-1.4-33c0.1-3.5-0.2-12.4-0.5-21.1c-0.3,6-0.7,12-1.4,17.1C30,309,29,323.2,27.7,344.5z"/>
	<path class="st2" d="M25.9,416.3v-36.4c0.7-12.5,1.2-25.2,1.8-35.4c1.3-21.3,2.3-35.5,4.2-50c1.9-14.5,1.6-36.5,2.6-44.1
		s3.9-9.3,6.1-18.4s4.4-27.2,8.1-29.7s15.2-7.4,15.2-7.4v51.3c6.7,10.4,14.8,13,14.8,13c5.1-14.9,4.5-20.8,9.7-26.3
		s8.8-12.7,16.9-9.7c3.9,1.5,5.9,2.9,4,16s-5.8,17.2-5.8,17.2c-0.6,4.4,0.3,17.4,1.9,24.1s-4.5,24.3-7.4,35.6s-18.3,34.1-18.3,34.1
		c-0.4,8.6-0.2,17.2,0.6,25.8c0.1,1.2,0.3,2.5,0.4,3.9s0.6,22.7,3,36.4"/>
	<path class="st2" d="M78.7,259.2c0,0-1.6,7.2-4.9,8.8s-7.8,0-7.8,0"/>
	<path class="st2" d="M63.9,246.2c0,0-3.3-7.1-13.6-0.9"/>
	<path class="st2" d="M63.9,217.3c0,0-0.7-3.8-6-4.8"/>
	<path class="st2" d="M79.7,350.2c-6.2,7.8-5,15.2-7.4,19.1s-2,17.7-2,17.7"/>
	<path class="st2" d="M35.2,275.7v27c0.1,7.7,0.8,15.4,2.2,23"/>
	<path class="st2" d="M103.5,256.4c0,0,0-4.6-1.3-6"/>
	<path class="st2" d="M100,241.9c0,0-2.9-9.6-11.3-5.4"/>
	<path class="st2" d="M74.1,256.8c-6.2,0.2-12.5-2.6-16.2,0.8"/>
	<path class="st13" d="M23.4,367.5h1.7c1.1,0,2,0.9,2,2v34.3c0,1.1-0.9,2-2,2h-1.7V367.5z"/>
	<path class="st13" d="M23.3,372.5c0,0,29.6-7.7,58,1.1c0.9,0.3,1.5,1.1,1.5,2v18.2c0,0.6-0.5,1.1-1.1,1.1c0,0,0,0,0,0h-0.2
		c-6.1-1.1-32.9-5.4-56.7,0.2L23.3,372.5z"/>
	<path class="st26" d="M24.6,372.2v-4.1c0-1.3-1.1-2.4-2.4-2.5h-3.3c-0.8,0-1.6,0.5-2,1.2l-3,5.4v31.2l2.9,3.5
		c0.4,0.6,1.1,0.9,1.8,0.9h3.6c1.3-0.1,2.4-1.2,2.4-2.5L24.6,372.2z"/>
	<path class="st26" d="M22.5,370.1l6.8-1.2c0.7-0.1,1.4,0.4,1.5,1.1c0,0,0,0,0,0l0,0v4.1l-2.2,1.6v12.7h2.2v6.6
		c0,0.8-0.6,1.4-1.3,1.6l-6.4,1.3c-0.8,0.1-1.6-0.4-1.8-1.2v-25C21.3,371,21.8,370.3,22.5,370.1z"/>
	<path class="st2" d="M22.8,396.2l5.5-1.3c0.4-0.1,0.7-0.5,0.7-0.9v-4.1"/>
	<polyline class="st2" points="26.8,388.2 26.8,374.6 29,372.9 29,370.4 	"/>
	<line class="st2" x1="17.8" y1="368.1" x2="17.8" y2="404.3"/>
	<path class="st18" d="M44.5,382.2L44.5,382.2c-0.5,0.1-0.9-0.3-1-0.8c0,0,0,0,0,0l0,0v-2.3c-0.1-0.5,0.3-0.9,0.8-1c0,0,0,0,0,0h0.2
		c0.5-0.1,0.9,0.3,1,0.8c0,0,0,0,0,0l0,0v2.3c0.1,0.5-0.3,0.9-0.8,1c0,0,0,0,0,0H44.5z"/>
	<path class="st18" d="M59.7,382.6L59.7,382.6c-0.5,0.1-0.9-0.3-1-0.8c0,0,0,0,0,0l0,0v-2.3c-0.1-0.5,0.3-0.9,0.8-1c0,0,0,0,0,0h0.2
		c0.5-0.1,0.9,0.3,1,0.8c0,0,0,0,0,0l0,0v2.3c0.1,0.5-0.3,0.9-0.8,1c0,0,0,0,0,0H59.7z"/>
	<path class="st18" d="M73.3,384.3L73.3,384.3c-0.5,0.1-0.9-0.3-1-0.8c0,0,0,0,0,0l0,0v-2.3c-0.1-0.5,0.3-0.9,0.8-1c0,0,0,0,0,0h0.2
		c0.5-0.1,0.9,0.3,1,0.8c0,0,0,0,0,0l0,0v2.3c0.1,0.5-0.3,0.9-0.8,1c0,0,0,0,0,0H73.3z"/>
</g>
<g id="Layer_5">
	<path class="st20" d="M130.3,186.2c-3.6,5.4-10.9,7-16.3,3.4c-5.4-3.6-7-10.9-3.4-16.3c0.3-0.5,0.6-0.9,1-1.3
		c0.1-0.3,0.3-0.5,0.5-0.7l0.8-0.9c4.3-4.8,11.7-5.2,16.5-0.9h0.1c4.8,4.4,5.2,11.8,0.8,16.7C130.3,186.1,130.3,186.1,130.3,186.2
		L130.3,186.2L130.3,186.2z"/>
	<path class="st0" d="M121.5,188.1c5.5,0.1,9.9-4.3,10-9.8c0.1-5.5-4.3-9.9-9.8-10c-5.5-0.1-9.9,4.3-10,9.8l0,0
		c-0.1,5.4,4.3,9.8,9.7,9.9c0,0,0,0,0,0h0.1L121.5,188.1z M120.9,173v-0.8h1.4v0.8c1.2,0.3,1.8,1.2,1.8,2.7v0.7h-1.6v-0.9
		c0-0.7-0.3-1-0.9-1s-0.8,0.3-0.8,1s0.3,1.3,1.4,2.2c1.1,0.7,1.8,1.9,1.8,3.2c0,1.4-0.6,2.4-1.8,2.6v0.8h-1.4v-0.8
		c-1.2-0.3-1.9-1.4-1.8-2.6v-0.4h1.5v0.5c0,0.8,0.3,1,0.9,1s0.8-0.2,0.8-1s-0.3-1.3-1.4-2.2c-1.1-0.7-1.8-1.9-1.8-3.2
		C119.1,174.2,119.7,173.2,120.9,173z"/>
</g>
<path class="st2" d="M382.4,189.4c-6.3,1.1-11.6,5.1-14.5,10.8"/>
</svg>
